<svg width="52" height="45" viewBox="0 0 52 45" fill="none" xmlns="http://www.w3.org/2000/svg">
<rect width="52" height="42" rx="3" fill="#C2BDBD"/>
<g filter="url(#filter0_d_3197_1383)">
<rect x="6" y="3" width="39" height="34" fill="#D9D9D9"/>
</g>
<path d="M17.9096 22.076H18.1616V13.2H20.0096V23H16.3976L15.2496 14.124H14.9976V23H13.1496V13.2H16.7616L17.9096 22.076ZM28.6099 19.612C28.6099 20.1907 28.5119 20.704 28.3159 21.152C28.1199 21.5907 27.8539 21.964 27.5179 22.272C27.1819 22.5707 26.7945 22.7993 26.3559 22.958C25.9265 23.1167 25.4739 23.196 24.9979 23.196C24.5219 23.196 24.0645 23.1167 23.6259 22.958C23.1965 22.7993 22.8139 22.5707 22.4779 22.272C22.1419 21.964 21.8759 21.5907 21.6799 21.152C21.4839 20.704 21.3859 20.1907 21.3859 19.612V19.444C21.3859 18.8747 21.4839 18.3707 21.6799 17.932C21.8759 17.484 22.1419 17.106 22.4779 16.798C22.8139 16.49 23.1965 16.2567 23.6259 16.098C24.0645 15.9393 24.5219 15.86 24.9979 15.86C25.4739 15.86 25.9265 15.9393 26.3559 16.098C26.7945 16.2567 27.1819 16.49 27.5179 16.798C27.8539 17.106 28.1199 17.484 28.3159 17.932C28.5119 18.3707 28.6099 18.8747 28.6099 19.444V19.612ZM24.9979 21.516C25.2499 21.516 25.4879 21.474 25.7119 21.39C25.9359 21.306 26.1319 21.1847 26.2999 21.026C26.4679 20.8673 26.5985 20.676 26.6919 20.452C26.7945 20.2187 26.8459 19.9573 26.8459 19.668V19.388C26.8459 19.0987 26.7945 18.842 26.6919 18.618C26.5985 18.3847 26.4679 18.1887 26.2999 18.03C26.1319 17.8713 25.9359 17.75 25.7119 17.666C25.4879 17.582 25.2499 17.54 24.9979 17.54C24.7459 17.54 24.5079 17.582 24.2839 17.666C24.0599 17.75 23.8639 17.8713 23.6959 18.03C23.5279 18.1887 23.3925 18.3847 23.2899 18.618C23.1965 18.842 23.1499 19.0987 23.1499 19.388V19.668C23.1499 19.9573 23.1965 20.2187 23.2899 20.452C23.3925 20.676 23.5279 20.8673 23.6959 21.026C23.8639 21.1847 24.0599 21.306 24.2839 21.39C24.5079 21.474 24.7459 21.516 24.9979 21.516ZM31.9881 23H30.2241V16.056H31.9881V17.092H32.2401C32.3988 16.7 32.6555 16.3967 33.0101 16.182C33.3648 15.9673 33.7801 15.86 34.2561 15.86C34.5921 15.86 34.9048 15.916 35.1941 16.028C35.4928 16.1307 35.7541 16.294 35.9781 16.518C36.2021 16.742 36.3748 17.0267 36.4961 17.372C36.6268 17.7173 36.6921 18.128 36.6921 18.604V23H34.9281V19.052C34.9281 18.5573 34.8068 18.17 34.5641 17.89C34.3308 17.6007 33.9901 17.456 33.5421 17.456C33.0195 17.456 32.6275 17.6333 32.3661 17.988C32.1141 18.3333 31.9881 18.8 31.9881 19.388V23Z" fill="#7B7C76"/>
<defs>
<filter id="filter0_d_3197_1383" x="2" y="3" width="47" height="42" filterUnits="userSpaceOnUse" color-interpolation-filters="sRGB">
<feFlood flood-opacity="0" result="BackgroundImageFix"/>
<feColorMatrix in="SourceAlpha" type="matrix" values="0 0 0 0 0 0 0 0 0 0 0 0 0 0 0 0 0 0 127 0" result="hardAlpha"/>
<feOffset dy="4"/>
<feGaussianBlur stdDeviation="2"/>
<feComposite in2="hardAlpha" operator="out"/>
<feColorMatrix type="matrix" values="0 0 0 0 0 0 0 0 0 0 0 0 0 0 0 0 0 0 0.25 0"/>
<feBlend mode="normal" in2="BackgroundImageFix" result="effect1_dropShadow_3197_1383"/>
<feBlend mode="normal" in="SourceGraphic" in2="effect1_dropShadow_3197_1383" result="shape"/>
</filter>
</defs>
</svg>
