<svg width="52" height="45" viewBox="0 0 52 45" fill="none" xmlns="http://www.w3.org/2000/svg">
<rect width="52" height="42" rx="3" fill="#C2BDBD"/>
<g filter="url(#filter0_d_3197_1379)">
<rect x="6" y="3" width="39" height="34" fill="#D9D9D9"/>
</g>
<path d="M12.9676 17.008C12.9676 15.7387 13.2849 14.754 13.9196 14.054C14.5636 13.354 15.4503 13.004 16.5796 13.004C17.7089 13.004 18.5909 13.354 19.2256 14.054C19.8696 14.754 20.1916 15.7387 20.1916 17.008V19.192C20.1916 20.4987 19.8696 21.4927 19.2256 22.174C18.5909 22.8553 17.7089 23.196 16.5796 23.196C15.4503 23.196 14.5636 22.8553 13.9196 22.174C13.2849 21.4927 12.9676 20.4987 12.9676 19.192V17.008ZM16.5796 21.516C16.9156 21.516 17.1956 21.4647 17.4196 21.362C17.6436 21.25 17.8256 21.096 17.9656 20.9C18.1056 20.704 18.2036 20.4707 18.2596 20.2C18.3156 19.9293 18.3436 19.6307 18.3436 19.304V16.896C18.3436 16.588 18.3109 16.2987 18.2456 16.028C18.1803 15.7573 18.0776 15.524 17.9376 15.328C17.7976 15.132 17.6156 14.978 17.3916 14.866C17.1676 14.7447 16.8969 14.684 16.5796 14.684C16.2623 14.684 15.9916 14.7447 15.7676 14.866C15.5436 14.978 15.3616 15.132 15.2216 15.328C15.0816 15.524 14.9789 15.7573 14.9136 16.028C14.8483 16.2987 14.8156 16.588 14.8156 16.896V19.304C14.8156 19.6307 14.8436 19.9293 14.8996 20.2C14.9556 20.4707 15.0536 20.704 15.1936 20.9C15.3336 21.096 15.5156 21.25 15.7396 21.362C15.9636 21.4647 16.2436 21.516 16.5796 21.516ZM26.5099 16.056H28.2739V23H26.5099V21.992H26.2579C25.9499 22.7947 25.2872 23.196 24.2699 23.196C23.9245 23.196 23.6025 23.14 23.3039 23.028C23.0052 22.916 22.7439 22.7433 22.5199 22.51C22.2959 22.2767 22.1185 21.9873 21.9879 21.642C21.8665 21.2873 21.8059 20.872 21.8059 20.396V16.056H23.5699V20.032C23.5699 20.5267 23.6865 20.914 23.9199 21.194C24.1532 21.4647 24.5032 21.6 24.9699 21.6C25.5019 21.6 25.8892 21.432 26.1319 21.096C26.3839 20.7507 26.5099 20.284 26.5099 19.696V16.056ZM30.3501 21.32H32.7021V17.736H30.5181V16.056H34.4661V21.32H36.4821V23H30.3501V21.32ZM34.9001 13.998C34.9001 14.1847 34.8628 14.362 34.7881 14.53C34.7228 14.6887 34.6295 14.8287 34.5081 14.95C34.3868 15.062 34.2421 15.1553 34.0741 15.23C33.9155 15.2953 33.7475 15.328 33.5701 15.328C33.3835 15.328 33.2108 15.2953 33.0521 15.23C32.8935 15.1553 32.7535 15.062 32.6321 14.95C32.5108 14.8287 32.4128 14.6887 32.3381 14.53C32.2728 14.362 32.2401 14.1847 32.2401 13.998C32.2401 13.8113 32.2728 13.6387 32.3381 13.48C32.4128 13.312 32.5108 13.172 32.6321 13.06C32.7535 12.9387 32.8935 12.8453 33.0521 12.78C33.2108 12.7053 33.3835 12.668 33.5701 12.668C33.7475 12.668 33.9155 12.7053 34.0741 12.78C34.2421 12.8453 34.3868 12.9387 34.5081 13.06C34.6295 13.172 34.7228 13.312 34.7881 13.48C34.8628 13.6387 34.9001 13.8113 34.9001 13.998Z" fill="#7B7C76"/>
<defs>
<filter id="filter0_d_3197_1379" x="2" y="3" width="47" height="42" filterUnits="userSpaceOnUse" color-interpolation-filters="sRGB">
<feFlood flood-opacity="0" result="BackgroundImageFix"/>
<feColorMatrix in="SourceAlpha" type="matrix" values="0 0 0 0 0 0 0 0 0 0 0 0 0 0 0 0 0 0 127 0" result="hardAlpha"/>
<feOffset dy="4"/>
<feGaussianBlur stdDeviation="2"/>
<feComposite in2="hardAlpha" operator="out"/>
<feColorMatrix type="matrix" values="0 0 0 0 0 0 0 0 0 0 0 0 0 0 0 0 0 0 0.25 0"/>
<feBlend mode="normal" in2="BackgroundImageFix" result="effect1_dropShadow_3197_1379"/>
<feBlend mode="normal" in="SourceGraphic" in2="effect1_dropShadow_3197_1379" result="shape"/>
</filter>
</defs>
</svg>
