<svg width="52" height="45" viewBox="0 0 52 45" fill="none" xmlns="http://www.w3.org/2000/svg">
<rect width="52" height="42" rx="3" fill="#C2BDBD"/>
<g filter="url(#filter0_d_2831_475)">
<rect x="6" y="3" width="39" height="34" fill="#D9D9D9"/>
</g>
<path d="M12.6036 13.2H15.8516L16.4116 20.564V21.992H16.7476V20.564L17.3076 13.2H20.5556V23H18.8756V16.448L19.0436 14.208H18.7076L17.9796 23H15.2076L14.4516 14.208H14.1156L14.2836 16.448V23H12.6036V13.2ZM28.6099 19.612C28.6099 20.1907 28.5119 20.704 28.3159 21.152C28.1199 21.5907 27.8539 21.964 27.5179 22.272C27.1819 22.5707 26.7945 22.7993 26.3559 22.958C25.9265 23.1167 25.4739 23.196 24.9979 23.196C24.5219 23.196 24.0645 23.1167 23.6259 22.958C23.1965 22.7993 22.8139 22.5707 22.4779 22.272C22.1419 21.964 21.8759 21.5907 21.6799 21.152C21.4839 20.704 21.3859 20.1907 21.3859 19.612V19.444C21.3859 18.8747 21.4839 18.3707 21.6799 17.932C21.8759 17.484 22.1419 17.106 22.4779 16.798C22.8139 16.49 23.1965 16.2567 23.6259 16.098C24.0645 15.9393 24.5219 15.86 24.9979 15.86C25.4739 15.86 25.9265 15.9393 26.3559 16.098C26.7945 16.2567 27.1819 16.49 27.5179 16.798C27.8539 17.106 28.1199 17.484 28.3159 17.932C28.5119 18.3707 28.6099 18.8747 28.6099 19.444V19.612ZM24.9979 21.516C25.2499 21.516 25.4879 21.474 25.7119 21.39C25.9359 21.306 26.1319 21.1847 26.2999 21.026C26.4679 20.8673 26.5985 20.676 26.6919 20.452C26.7945 20.2187 26.8459 19.9573 26.8459 19.668V19.388C26.8459 19.0987 26.7945 18.842 26.6919 18.618C26.5985 18.3847 26.4679 18.1887 26.2999 18.03C26.1319 17.8713 25.9359 17.75 25.7119 17.666C25.4879 17.582 25.2499 17.54 24.9979 17.54C24.7459 17.54 24.5079 17.582 24.2839 17.666C24.0599 17.75 23.8639 17.8713 23.6959 18.03C23.5279 18.1887 23.3925 18.3847 23.2899 18.618C23.1965 18.842 23.1499 19.0987 23.1499 19.388V19.668C23.1499 19.9573 23.1965 20.2187 23.2899 20.452C23.3925 20.676 23.5279 20.8673 23.6959 21.026C23.8639 21.1847 24.0599 21.306 24.2839 21.39C24.5079 21.474 24.7459 21.516 24.9979 21.516ZM35.2081 21.992H34.9561C34.8815 22.1507 34.7881 22.3047 34.6761 22.454C34.5735 22.594 34.4335 22.72 34.2561 22.832C34.0881 22.944 33.8828 23.0327 33.6401 23.098C33.4068 23.1633 33.1221 23.196 32.7861 23.196C32.3568 23.196 31.9555 23.1213 31.5821 22.972C31.2181 22.8133 30.8961 22.5847 30.6161 22.286C30.3455 21.978 30.1308 21.6047 29.9721 21.166C29.8228 20.7273 29.7481 20.2233 29.7481 19.654V19.402C29.7481 18.842 29.8275 18.3427 29.9861 17.904C30.1541 17.4653 30.3781 17.0967 30.6581 16.798C30.9475 16.49 31.2788 16.2567 31.6521 16.098C32.0348 15.9393 32.4361 15.86 32.8561 15.86C33.4161 15.86 33.8595 15.9673 34.1861 16.182C34.5128 16.3873 34.7695 16.6813 34.9561 17.064H35.2081V13.2H36.9721V23H35.2081V21.992ZM33.3601 21.516C33.9108 21.516 34.3541 21.3433 34.6901 20.998C35.0355 20.6433 35.2081 20.1813 35.2081 19.612V19.444C35.2081 18.8747 35.0355 18.4173 34.6901 18.072C34.3541 17.7173 33.9108 17.54 33.3601 17.54C32.8095 17.54 32.3615 17.7127 32.0161 18.058C31.6801 18.394 31.5121 18.856 31.5121 19.444V19.612C31.5121 20.2 31.6801 20.6667 32.0161 21.012C32.3615 21.348 32.8095 21.516 33.3601 21.516Z" fill="#7B7C76"/>
<defs>
<filter id="filter0_d_2831_475" x="2" y="3" width="47" height="42" filterUnits="userSpaceOnUse" color-interpolation-filters="sRGB">
<feFlood flood-opacity="0" result="BackgroundImageFix"/>
<feColorMatrix in="SourceAlpha" type="matrix" values="0 0 0 0 0 0 0 0 0 0 0 0 0 0 0 0 0 0 127 0" result="hardAlpha"/>
<feOffset dy="4"/>
<feGaussianBlur stdDeviation="2"/>
<feComposite in2="hardAlpha" operator="out"/>
<feColorMatrix type="matrix" values="0 0 0 0 0 0 0 0 0 0 0 0 0 0 0 0 0 0 0.25 0"/>
<feBlend mode="normal" in2="BackgroundImageFix" result="effect1_dropShadow_2831_475"/>
<feBlend mode="normal" in="SourceGraphic" in2="effect1_dropShadow_2831_475" result="shape"/>
</filter>
</defs>
</svg>
