<svg width="52" height="45" viewBox="0 0 52 45" fill="none" xmlns="http://www.w3.org/2000/svg">
<rect width="52" height="42" rx="3" fill="#C2BDBD"/>
<g filter="url(#filter0_d_2831_470)">
<rect x="6" y="3" width="39" height="34" fill="#D9D9D9"/>
</g>
<path d="M18.2596 16.196C18.2596 15.804 18.1056 15.4633 17.7976 15.174C17.4989 14.8847 17.0743 14.74 16.5236 14.74C16.0569 14.74 15.6883 14.838 15.4176 15.034C15.1469 15.2207 15.0116 15.4773 15.0116 15.804C15.0116 15.972 15.0443 16.126 15.1096 16.266C15.1749 16.3967 15.2869 16.518 15.4456 16.63C15.6136 16.7327 15.8283 16.826 16.0896 16.91C16.3603 16.994 16.7009 17.0733 17.1116 17.148C18.1383 17.3347 18.9223 17.6473 19.4636 18.086C20.0049 18.5247 20.2756 19.1733 20.2756 20.032V20.2C20.2756 20.6573 20.1916 21.0727 20.0236 21.446C19.8649 21.81 19.6316 22.1227 19.3236 22.384C19.0156 22.6453 18.6423 22.846 18.2036 22.986C17.7649 23.126 17.2703 23.196 16.7196 23.196C16.0756 23.196 15.5063 23.1073 15.0116 22.93C14.5263 22.7433 14.1203 22.4913 13.7936 22.174C13.4669 21.8473 13.2196 21.4693 13.0516 21.04C12.8836 20.6013 12.7996 20.1253 12.7996 19.612V19.192H14.6476V19.528C14.6476 20.116 14.8156 20.5873 15.1516 20.942C15.4969 21.2873 16.0289 21.46 16.7476 21.46C17.3076 21.46 17.7229 21.3387 17.9936 21.096C18.2643 20.8533 18.3996 20.564 18.3996 20.228C18.3996 20.0693 18.3716 19.92 18.3156 19.78C18.2596 19.6307 18.1616 19.5 18.0216 19.388C17.8816 19.2667 17.6903 19.1593 17.4476 19.066C17.2049 18.9727 16.8969 18.8933 16.5236 18.828C16.0289 18.744 15.5763 18.6367 15.1656 18.506C14.7549 18.366 14.3956 18.184 14.0876 17.96C13.7889 17.736 13.5556 17.456 13.3876 17.12C13.2196 16.784 13.1356 16.3733 13.1356 15.888V15.804C13.1356 15.4027 13.2149 15.034 13.3736 14.698C13.5416 14.3527 13.7703 14.054 14.0596 13.802C14.3583 13.55 14.7129 13.354 15.1236 13.214C15.5436 13.074 16.0103 13.004 16.5236 13.004C17.1023 13.004 17.6156 13.088 18.0636 13.256C18.5116 13.4147 18.8849 13.634 19.1836 13.914C19.4916 14.194 19.7203 14.516 19.8696 14.88C20.0283 15.244 20.1076 15.6267 20.1076 16.028V16.532H18.2596V16.196ZM26.5099 16.056H28.2739V23H26.5099V21.992H26.2579C25.9499 22.7947 25.2872 23.196 24.2699 23.196C23.9245 23.196 23.6025 23.14 23.3039 23.028C23.0052 22.916 22.7439 22.7433 22.5199 22.51C22.2959 22.2767 22.1185 21.9873 21.9879 21.642C21.8665 21.2873 21.8059 20.872 21.8059 20.396V16.056H23.5699V20.032C23.5699 20.5267 23.6865 20.914 23.9199 21.194C24.1532 21.4647 24.5032 21.6 24.9699 21.6C25.5019 21.6 25.8892 21.432 26.1319 21.096C26.3839 20.7507 26.5099 20.284 26.5099 19.696V16.056ZM31.6241 25.8H29.8601V16.056H31.6241V17.064H31.8761C32.0628 16.6813 32.3335 16.3873 32.6881 16.182C33.0428 15.9673 33.4955 15.86 34.0461 15.86C34.4568 15.86 34.8441 15.9393 35.2081 16.098C35.5815 16.2567 35.9035 16.49 36.1741 16.798C36.4541 17.0967 36.6735 17.4653 36.8321 17.904C37.0001 18.3427 37.0841 18.842 37.0841 19.402V19.654C37.0841 20.2233 37.0048 20.7273 36.8461 21.166C36.6875 21.6047 36.4728 21.978 36.2021 22.286C35.9315 22.5847 35.6095 22.8133 35.2361 22.972C34.8721 23.1213 34.4755 23.196 34.0461 23.196C33.7288 23.196 33.4535 23.1633 33.2201 23.098C32.9868 23.0327 32.7815 22.944 32.6041 22.832C32.4361 22.72 32.2915 22.594 32.1701 22.454C32.0581 22.3047 31.9601 22.1507 31.8761 21.992H31.6241V25.8ZM33.4721 21.516C34.0228 21.516 34.4661 21.348 34.8021 21.012C35.1475 20.6667 35.3201 20.2 35.3201 19.612V19.444C35.3201 18.856 35.1475 18.394 34.8021 18.058C34.4661 17.7127 34.0228 17.54 33.4721 17.54C32.9215 17.54 32.4735 17.7173 32.1281 18.072C31.7921 18.4173 31.6241 18.8747 31.6241 19.444V19.612C31.6241 20.1813 31.7921 20.6433 32.1281 20.998C32.4735 21.3433 32.9215 21.516 33.4721 21.516Z" fill="#7B7C76"/>
<defs>
<filter id="filter0_d_2831_470" x="2" y="3" width="47" height="42" filterUnits="userSpaceOnUse" color-interpolation-filters="sRGB">
<feFlood flood-opacity="0" result="BackgroundImageFix"/>
<feColorMatrix in="SourceAlpha" type="matrix" values="0 0 0 0 0 0 0 0 0 0 0 0 0 0 0 0 0 0 127 0" result="hardAlpha"/>
<feOffset dy="4"/>
<feGaussianBlur stdDeviation="2"/>
<feComposite in2="hardAlpha" operator="out"/>
<feColorMatrix type="matrix" values="0 0 0 0 0 0 0 0 0 0 0 0 0 0 0 0 0 0 0.25 0"/>
<feBlend mode="normal" in2="BackgroundImageFix" result="effect1_dropShadow_2831_470"/>
<feBlend mode="normal" in="SourceGraphic" in2="effect1_dropShadow_2831_470" result="shape"/>
</filter>
</defs>
</svg>
