<svg width="402" height="874" viewBox="0 0 402 874" fill="none" xmlns="http://www.w3.org/2000/svg">
<g clip-path="url(#clip0_2757_4)">
<rect width="402" height="874" fill="url(#paint0_linear_2757_4)"/>
<path d="M683.959 785.956C706.243 932.84 546.204 1078.93 326.503 1112.26C106.801 1145.6 -89.3672 1053.54 -111.651 906.66C-133.935 759.776 26.1033 613.683 245.805 580.351C465.507 547.02 661.675 639.073 683.959 785.956Z" fill="url(#paint1_linear_2757_4)"/>
<ellipse cx="131.088" cy="746.633" rx="10.0371" ry="5.71813" transform="rotate(-13.3788 131.088 746.633)" fill="#F4958D" fill-opacity="0.5"/>
<ellipse cx="201.392" cy="733.561" rx="12.6745" ry="7.2206" transform="rotate(-16.7193 201.392 733.561)" fill="#F4958D" fill-opacity="0.5"/>
<ellipse cx="73.2036" cy="776.885" rx="29.6848" ry="16.9113" transform="rotate(-10.1661 73.2036 776.885)" fill="#F4958D" fill-opacity="0.5"/>
<ellipse cx="11.0531" cy="730.695" rx="29.6848" ry="16.9113" transform="rotate(-34.2876 11.0531 730.695)" fill="#F4958D" fill-opacity="0.5"/>
<ellipse cx="28.7194" cy="688.465" rx="11.0878" ry="6.31666" transform="rotate(-34.2876 28.7194 688.465)" fill="#F4958D" fill-opacity="0.5"/>
<ellipse cx="52.628" cy="673.117" rx="10.2155" ry="5.81976" transform="rotate(-21.175 52.628 673.117)" fill="#F4958D" fill-opacity="0.5"/>
<ellipse cx="140.628" cy="641.117" rx="10.2155" ry="5.81976" transform="rotate(-21.175 140.628 641.117)" fill="#F4958D" fill-opacity="0.5"/>
<ellipse cx="178.614" cy="632.378" rx="17.2312" ry="9.81657" transform="rotate(-21.175 178.614 632.378)" fill="#F4958D" fill-opacity="0.5"/>
<ellipse cx="383.798" cy="640.556" rx="8.51553" ry="4.85127" transform="rotate(31.138 383.798 640.556)" fill="#F4958D" fill-opacity="0.5"/>
<ellipse cx="403.071" cy="663.781" rx="15.7067" ry="8.94808" transform="rotate(31.138 403.071 663.781)" fill="#F4958D" fill-opacity="0.5"/>
<ellipse cx="67.5143" cy="664.565" rx="3.96733" ry="3.35877" transform="rotate(-21.175 67.5143 664.565)" fill="#F4958D" fill-opacity="0.5"/>
<ellipse cx="159" cy="700.404" rx="48.8828" ry="27.8484" transform="rotate(-13.3788 159 700.404)" fill="#F4958D" fill-opacity="0.5"/>
<path d="M-28.8632 802.927C-16.0298 812.26 20.5368 828.927 64.1368 820.927C118.637 810.927 199.137 766.927 396.637 802.927C554.637 831.727 467.137 958.927 403.637 1018.93C259.637 1033.09 -29.8632 1044.03 -35.8632 974.427C-43.3632 887.427 -59.8632 845.427 -51.8632 820.927C-45.4632 801.327 -33.8632 800.76 -28.8632 802.927Z" fill="#F4958D" fill-opacity="0.5"/>
<g clip-path="url(#clip1_2757_4)">
<path d="M375.486 575.42L300.849 575.541L338.951 493.284L375.486 575.42Z" fill="#3C3D78"/>
<path d="M365.093 575.437L300.849 575.541L338.951 493.284L365.093 575.437Z" fill="#575884"/>
<path d="M345.417 513.68L338.922 493.283L329.47 513.706L337.033 511.143L338.898 513.691L345.417 513.68Z" fill="white"/>
<path d="M353.188 575.409L300.848 575.494L327.567 517.914L353.188 575.409Z" fill="#575884"/>
<path d="M345.819 575.421L300.848 575.494L327.52 517.914L345.819 575.421Z" fill="#575884"/>
<path d="M357.284 584.879C358.673 585.768 362.387 587.136 366.122 585.496C370.791 583.446 375.937 585.899 377.354 583.028C378.771 580.157 383.858 584.67 384.143 578.976C384.427 573.282 377.622 560.956 372.632 561.541C367.641 562.126 363.471 559.458 361.4 564.009C359.328 568.56 351.515 570.277 357.284 584.879Z" fill="#406E63"/>
<path d="M296.74 580.729C297.425 581.156 299.257 581.81 301.107 581.007C303.42 580.004 305.958 581.179 306.665 579.786C307.371 578.393 309.875 580.566 310.029 577.809C310.183 575.052 306.849 569.1 304.381 569.395C301.913 569.69 299.858 568.408 298.824 570.616C297.789 572.824 293.923 573.674 296.74 580.729Z" fill="#406E63"/>
</g>
<path d="M17.9325 669.681C19.4665 670.289 23.3729 670.923 26.7264 668.601C30.9183 665.698 36.4381 667.123 37.281 664.035C38.1239 660.946 43.9789 664.405 43.1717 658.762C42.3646 653.119 33.333 642.317 28.5455 643.843C23.758 645.37 19.156 643.547 17.9909 648.409C16.8258 653.272 9.48339 656.448 17.9325 669.681Z" fill="#406E63"/>
<path d="M44.2146 651.954C46.3122 652.785 51.6539 653.653 56.2396 650.477C61.9716 646.507 69.5195 648.456 70.6722 644.233C71.8248 640.009 79.8311 644.74 78.7273 637.023C77.6236 629.306 65.2735 614.535 58.727 616.622C52.1805 618.71 45.8876 616.218 44.2944 622.866C42.7012 629.515 32.661 633.859 44.2146 651.954Z" fill="#406E63"/>
<path d="M263.26 575.362L263.26 579.5L268 579.5L268.407 575.352L294.139 573.713L286.997 566.179L284.21 558.239L288.963 559.024C285.124 553.073 277.445 540.455 277.439 537.595C277.434 534.987 278.314 536.142 278.872 537.269L273.059 524.891L274.643 524.888L269.879 518.144L271.854 516.153L265.494 503.056L259.188 517.37C259.32 517.635 259.743 518.164 260.377 518.162C261.01 518.161 258.01 522.669 256.431 524.923C256.696 525.32 257.304 526.114 257.621 526.113C257.938 526.112 252.492 535.127 249.729 539.635C250.522 539.898 252.344 540.266 253.293 539.628C254.241 538.991 246.323 552.354 242.245 559.116L246.6 559.107C247.788 559.105 234.75 573.035 235.151 575.417C235.471 577.323 254.024 576.175 263.26 575.362Z" fill="#406E63"/>
<path d="M418.76 788.957L345.76 761.956L342.841 719.157L321.159 715.016L271.32 745.863L243.902 701.991C241.665 698.796 238.984 691.202 246.16 686.391C253.337 681.58 261.13 689.673 264.13 694.321L279.034 719.08L314.267 696.63L359.361 700.629L362.852 752.849L418.762 772.956L418.76 788.957Z" fill="#FFDEA4"/>
<circle cx="252.272" cy="696.134" r="4" transform="rotate(-19.2045 252.272 696.134)" fill="white"/>
<line x1="256.595" y1="704.03" x2="261.115" y2="710.927" stroke="white"/>
<line x1="263.047" y1="713.43" x2="267.567" y2="720.327" stroke="white"/>
<line x1="269.826" y1="723.776" x2="274.347" y2="730.673" stroke="white"/>
<line x1="281.209" y1="727.897" x2="288.106" y2="723.377" stroke="white"/>
<line x1="293.444" y1="720.459" x2="300.341" y2="715.939" stroke="white"/>
<line x1="304.734" y1="713.349" x2="311.631" y2="708.829" stroke="white"/>
<line x1="318.557" y1="706.447" x2="328.372" y2="707.264" stroke="white"/>
<line x1="332.807" y1="707.837" x2="342.622" y2="708.654" stroke="white"/>
<line x1="351.261" y1="711.448" x2="351.388" y2="720.934" stroke="white"/>
<line x1="351.262" y1="727.448" x2="351.389" y2="736.934" stroke="white"/>
<line x1="351.262" y1="742.448" x2="351.389" y2="751.934" stroke="white"/>
<line x1="355.934" y1="757.986" x2="366.934" y2="761.985" stroke="white"/>
<line x1="370.933" y1="762.986" x2="381.933" y2="766.985" stroke="white"/>
<line x1="387.933" y1="768.986" x2="398.933" y2="772.985" stroke="white"/>
<path d="M260.941 596.854C254.246 597.86 248.02 598.745 244.348 600.472L245.587 611.496C247.058 610.379 256.622 608.698 261.149 607.374L260.941 596.854Z" fill="#8C3838"/>
<path d="M275.271 608.224C273.734 607.451 268.758 606.197 261.149 607.374L261.482 624.206C264.115 623.91 270.132 623.536 273.133 624.414L275.271 608.224Z" fill="#8C3838"/>
<path d="M249.492 646.225C252.668 642.564 257.171 641.881 261.815 641.039L261.482 624.206C259.513 623.713 251.215 625.763 247.384 627.474L249.492 646.225Z" fill="#8C3838"/>
<path d="M270.996 640.603C274.882 640.86 278.555 641.593 281.48 642.423L285.488 631.868C283.908 629.924 276.593 626.089 273.133 624.414L270.996 640.603Z" fill="#8C3838"/>
<path d="M283.261 599.908C281.228 598.693 279.022 597.829 276.72 597.25L275.271 608.224C278.645 608.982 286.672 615.919 290.263 619.293L294.324 608.598C290.054 605.531 286.156 602.406 283.261 599.908Z" fill="#8C3838"/>
<path d="M323.193 620.033C319.737 622.052 313.607 620.127 306.961 616.598L302.019 626.967C306.288 629.699 312.08 630.548 314.442 630.632C318.586 626.82 321.553 622.892 323.193 620.033Z" fill="#8C3838"/>
<path d="M302.019 626.967C299.064 625.199 292.575 621.189 290.263 619.293L285.488 631.868C286.971 634.235 291.203 638.98 296.272 639.023L302.019 626.967Z" fill="#8C3838"/>
<path d="M239.956 602.002L250.178 695.349L252.492 697.431L254.974 694.978L249.492 646.225L247.384 627.474L245.587 611.496L244.348 600.472L239.956 602.002Z" fill="#F68E86"/>
<path d="M261.149 607.374C256.622 608.698 247.058 610.379 245.587 611.496L247.384 627.474C251.215 625.763 259.513 623.713 261.482 624.206L261.149 607.374Z" fill="#E2D393"/>
<path d="M276.72 597.25C271.649 595.974 266.113 596.078 260.941 596.854L261.149 607.374C268.758 606.197 273.734 607.451 275.271 608.224L276.72 597.25Z" fill="#E2D393"/>
<path d="M290.263 619.293C286.672 615.919 278.645 608.982 275.271 608.224L273.133 624.414C276.593 626.089 283.908 629.924 285.488 631.868L290.263 619.293Z" fill="#E2D393"/>
<path d="M261.815 641.039C264.838 640.49 267.981 640.404 270.996 640.603L273.133 624.414C270.132 623.536 264.115 623.91 261.482 624.206L261.815 641.039Z" fill="#E2D393"/>
<path d="M306.961 616.598C302.773 614.373 298.381 611.511 294.324 608.598L290.263 619.293C292.575 621.189 299.064 625.199 302.019 626.967L306.961 616.598Z" fill="#E2D393"/>
<path d="M281.48 642.423C282.442 642.697 283.324 642.98 284.105 643.261C287.97 643.235 291.601 642.676 294.979 641.735L296.272 639.023C291.203 638.98 286.971 634.235 285.488 631.868L281.48 642.423Z" fill="#E2D393"/>
<path d="M314.442 630.632C312.08 630.548 306.288 629.699 302.019 626.967L296.272 639.023C297.84 638.968 301.463 638.768 303.41 638.404C307.689 636.193 311.386 633.444 314.442 630.632Z" fill="#E2D393"/>
<path d="M296.272 639.023L294.979 641.735C297.995 640.894 300.81 639.748 303.41 638.404C301.463 638.768 297.84 638.968 296.272 639.023Z" fill="#8C3838"/>
<circle cx="241.81" cy="599.205" r="5" transform="rotate(-19.2045 241.81 599.205)" fill="#F68E86"/>
</g>
<defs>
<linearGradient id="paint0_linear_2757_4" x1="201" y1="0" x2="201" y2="874" gradientUnits="userSpaceOnUse">
<stop stop-color="#066893"/>
<stop offset="1" stop-color="#999999"/>
</linearGradient>
<linearGradient id="paint1_linear_2757_4" x1="351.5" y1="573" x2="111.5" y2="813.5" gradientUnits="userSpaceOnUse">
<stop stop-color="#FFB62F"/>
<stop offset="1" stop-color="#8F3C3C"/>
</linearGradient>
<clipPath id="clip0_2757_4">
<rect width="402" height="874" fill="white"/>
</clipPath>
<clipPath id="clip1_2757_4">
<rect width="96.7446" height="96.7446" fill="white" transform="translate(289.555 485.711) rotate(-0.0928688)"/>
</clipPath>
</defs>
</svg>
