<svg width="110" height="114" viewBox="0 0 110 114" fill="none" xmlns="http://www.w3.org/2000/svg">
<path d="M39.1041 23.4131C33.1387 24.309 27.5908 25.0974 24.3192 26.6368L25.4236 36.4588C26.7341 35.4635 35.256 33.9665 39.2895 32.786L39.1041 23.4131Z" fill="#8C3838"/>
<path d="M51.872 33.5441C50.5027 32.8546 46.0693 31.7376 39.2895 32.786L39.5861 47.784C41.9321 47.5198 47.2928 47.187 49.9673 47.9692L51.872 33.5441Z" fill="#8C3838"/>
<path d="M28.9028 67.4033C31.7321 64.1416 35.7446 63.5326 39.8827 62.782L39.5861 47.784C37.8316 47.3443 30.4382 49.171 27.0243 50.6958L28.9028 67.4033Z" fill="#8C3838"/>
<path d="M48.0627 62.3942C51.5258 62.6234 54.7982 63.276 57.4046 64.0159L60.976 54.6105C59.5682 52.8785 53.0503 49.4613 49.9673 47.9692L48.0627 62.3942Z" fill="#8C3838"/>
<path d="M58.9916 26.1336C57.1803 25.0516 55.2144 24.282 53.1631 23.7657L51.872 33.5441C54.8786 34.2188 62.0304 40.3998 65.2305 43.4059L68.8489 33.8767C65.0439 31.1439 61.5709 28.3599 58.9916 26.1336Z" fill="#8C3838"/>
<path d="M94.5715 44.0658C91.4924 45.8651 86.03 44.1498 80.1087 41.0047L75.7047 50.2438C79.509 52.6779 84.6695 53.4352 86.7741 53.5095C90.4667 50.1127 93.11 46.6132 94.5715 44.0658Z" fill="#8C3838"/>
<path d="M75.7047 50.2438C73.0717 48.6686 67.2906 45.0959 65.2305 43.4059L60.976 54.6105C62.2968 56.7197 66.0675 60.9478 70.5841 60.9864L75.7047 50.2438Z" fill="#8C3838"/>
<path d="M20.4057 27.9999L29.5139 111.174L31.5752 113.028L33.787 110.843L28.9028 67.4033L27.0243 50.6958L25.4236 36.4588L24.3192 26.6368L20.4057 27.9999Z" fill="#F68E86"/>
<path d="M39.2895 32.786C35.256 33.9665 26.7341 35.4635 25.4236 36.4588L27.0243 50.6958C30.4382 49.171 37.8316 47.3443 39.5861 47.784L39.2895 32.786Z" fill="#E2D393"/>
<path d="M53.1631 23.7657C48.6447 22.6286 43.7119 22.721 39.1041 23.4131L39.2895 32.786C46.0693 31.7376 50.5027 32.8546 51.872 33.5441L53.1631 23.7657Z" fill="#E2D393"/>
<path d="M65.2305 43.4059C62.0304 40.3998 54.8786 34.2188 51.872 33.5441L49.9673 47.9692C53.0503 49.4613 59.5682 52.8785 60.976 54.6105L65.2305 43.4059Z" fill="#E2D393"/>
<path d="M39.8827 62.782C42.5763 62.2935 45.3769 62.2165 48.0627 62.3942L49.9673 47.9692C47.2928 47.187 41.9321 47.5198 39.5861 47.784L39.8827 62.782Z" fill="#E2D393"/>
<path d="M80.1087 41.0047C76.3771 39.0227 72.4633 36.4728 68.8489 33.8767L65.2305 43.4059C67.2906 45.0959 73.0717 48.6686 75.7047 50.2438L80.1087 41.0047Z" fill="#E2D393"/>
<path d="M57.4046 64.0159C58.2619 64.2593 59.0472 64.5121 59.7434 64.7625C63.187 64.7392 66.4222 64.2413 69.4325 63.4024L70.5841 60.9864C66.0675 60.9478 62.2968 56.7197 60.976 54.6105L57.4046 64.0159Z" fill="#E2D393"/>
<path d="M86.7741 53.5095C84.6695 53.4352 79.509 52.6779 75.7047 50.2438L70.5841 60.9864C71.9814 60.9374 75.2098 60.7585 76.9448 60.4348C80.7567 58.4642 84.0508 56.0148 86.7741 53.5095Z" fill="#E2D393"/>
<path d="M70.5841 60.9864L69.4325 63.4024C72.1199 62.6534 74.628 61.6326 76.9448 60.4348C75.2098 60.7585 71.9814 60.9374 70.5841 60.9864Z" fill="#8C3838"/>
<circle cx="22.0574" cy="25.5073" r="4.45508" transform="rotate(-19.2045 22.0574 25.5073)" fill="#F68E86"/>
</svg>
