<svg width="79" height="87" viewBox="0 0 79 87" fill="none" xmlns="http://www.w3.org/2000/svg">
<path d="M30.2068 12.7049C32.0889 10.8228 33.0301 9.41123 36.3238 9.88175C39.6174 10.3523 41.9701 8.94028 43.3816 9.41101C44.7932 9.88175 48.5574 11.293 49.0279 15.9982C49.4043 19.7624 49.4984 22.8994 49.4984 23.9974C49.8426 22.9646 50.5394 21.3274 51.1835 20.9651L49.4985 11.7637C49.4275 11.565 49.3496 11.3727 49.2653 11.1868C48.8418 10.2535 48.2554 9.47946 47.5637 8.84051C47.0424 8.35906 46.4614 7.9543 45.8451 7.61584C44.8873 7.08985 43.8444 6.72401 42.8087 6.47935C41.9146 6.26812 41.0259 6.14721 40.2019 6.09154C39.472 6.04222 38.7929 6.04411 38.206 6.07976C38.0416 6.08974 37.8844 6.10238 37.7354 6.11727C37.0804 6.0736 36.4528 6.10973 35.8534 6.21213C34.5902 6.42791 33.4522 6.93798 32.4462 7.61584C31.9031 7.9818 31.3985 8.39665 30.9334 8.84051C30.3044 9.44082 29.7477 10.0942 29.2661 10.7514C28.3782 11.9628 27.7452 13.1872 27.384 14.1161L27.1784 21.2224C27.7303 20.9863 28.3054 21.0261 28.7374 21.7808C28.7202 18.4223 29.0001 13.9115 30.2068 12.7049Z" fill="black"/>
<path d="M25.9724 10.3518C25.9724 11.1046 28.1682 10.9318 29.2661 10.7514C29.7477 10.0942 30.3044 9.44082 30.9334 8.84051C30.8278 8.32864 30.2868 7.98455 29.7366 7.77439C29.3914 7.64256 29.0427 7.56343 28.7955 7.52865C25.9724 6.82413 25.9724 9.41074 25.9724 10.3518Z" fill="#3D3D3D"/>
<path d="M29.7366 7.77439C30.2868 7.98455 30.8278 8.32864 30.9334 8.84051C31.3985 8.39665 31.9031 7.9818 32.4462 7.61584C33.4522 6.93798 34.5902 6.42791 35.8534 6.21213C35.6545 5.13866 35.32 4.31274 34.9123 3.6831C33.7762 1.9287 32.0715 1.69819 31.1481 1.8824C30.0189 2.25881 29.7366 5.96723 29.7366 7.77439Z" fill="#4B4B4B"/>
<path d="M35.8534 6.21213C36.4528 6.10973 37.0804 6.0736 37.7354 6.11727C37.8844 6.10238 38.0416 6.08974 38.206 6.07976C38.7929 6.04411 39.472 6.04222 40.2019 6.09154C41.0259 6.14721 41.9146 6.26812 42.8087 6.47935C42.8429 5.41745 42.9112 3.19954 42.9112 2.82313C42.9112 2.35261 39.6175 0 38.6765 0C37.9237 0 35.8534 2.4554 34.9123 3.6831C35.32 4.31274 35.6545 5.13866 35.8534 6.21213Z" fill="#4C4C4C"/>
<path d="M42.9112 2.82313C42.9112 3.19954 42.8429 5.41745 42.8087 6.47935C43.8444 6.72401 44.8873 7.08985 45.8451 7.61584C46.4614 7.9543 47.0424 8.35906 47.5637 8.84051C47.6548 8.4481 47.7935 7.77359 47.9053 7.05782C48.0074 6.40363 48.0869 5.71498 48.0869 5.17573C48.0869 3.76417 46.6754 2.35261 46.2048 1.8824C45.8284 1.50623 43.8522 2.35281 42.9112 2.82313Z" fill="#535353"/>
<path d="M47.9053 7.05782C47.7935 7.77359 47.6548 8.4481 47.5637 8.84051C48.2554 9.47946 48.8418 10.2535 49.2653 11.1868L52.3216 10.7514C52.4784 10.4612 52.698 9.59863 52.3216 8.46938C51.9452 7.34013 49.2205 7.05782 47.9053 7.05782Z" fill="#636363"/>
<path d="M36.3238 9.88175C33.0301 9.41123 32.0889 10.8228 30.2068 12.7049C29.0001 13.9115 28.7202 18.4223 28.7374 21.7808C28.3054 21.0261 27.7303 20.9863 27.1784 21.2224C26.4536 21.5325 25.769 22.3184 25.5019 22.5855C25.0314 23.056 26.4429 26.3497 25.9724 28.2318C25.596 29.7374 27.0835 31.2891 27.8743 31.8768C29.3812 30.3479 33.0231 27.2902 35.5357 27.2902C37.1149 27.2902 40.3853 27.1317 43.3817 27.592C46.3447 28.0472 49.0399 29.1076 49.5671 31.5249C49.6194 29.5306 49.8102 27.3074 49.9689 25.8792C49.9689 27.7613 50.1571 31.6195 50.91 31.9959C51.851 32.4665 51.851 27.7613 52.3215 26.8202C52.792 25.8792 52.792 22.5855 51.851 21.174C51.6489 20.8709 51.4198 20.8322 51.1835 20.9651C50.5394 21.3274 49.8426 22.9646 49.4984 23.9974C49.4984 22.8994 49.4043 19.7624 49.0279 15.9982C48.5574 11.293 44.7932 9.88175 43.3816 9.41101C41.9701 8.94028 39.6174 10.3523 36.3238 9.88175Z" fill="#D5BFA6"/>
<path fill-rule="evenodd" clip-rule="evenodd" d="M39.6845 56.9408C38.7365 57.2023 37.8992 57.3161 37.2868 57.3656C37.387 57.4016 37.4837 57.465 37.5906 57.5351C37.8246 57.6885 38.1076 57.8741 38.5828 57.8741C38.6791 57.8741 38.9173 57.6384 39.1561 57.4022C39.3623 57.1982 39.5688 56.9939 39.6845 56.9408Z" fill="#DCDCDC"/>
<path d="M27.8743 31.8768C27.8678 36.151 28.0428 45.0759 28.7955 46.5816C29.7365 48.4637 35.3828 57.4031 36.3239 57.4036C36.429 57.4037 36.6223 57.4037 36.8867 57.3913C37.0409 57.3188 37.1663 57.3223 37.2868 57.3656C37.8992 57.3161 38.7365 57.2023 39.6845 56.9408C39.7027 56.9325 39.7187 56.9279 39.7321 56.9276C42.5516 56.1381 46.3261 54.0398 48.0869 48.4637C50.3453 41.3118 50.2826 37.0147 49.9689 35.7601C49.597 35.2022 49.516 33.4726 49.5671 31.5249C49.0399 29.1076 46.3447 28.0472 43.3817 27.592C40.3853 27.1317 37.1149 27.2902 35.5357 27.2902C33.0231 27.2902 29.3812 30.3479 27.8743 31.8768Z" fill="#C2BDBD"/>
<path d="M35.3285 28.2314C34.0738 29.7998 32.3901 33.6895 32.7666 36.7008C33.143 39.7122 33.7596 42.9744 34.3867 44.2292C32.9756 41.0924 31.1885 33.5013 35.3285 28.2314ZM42.3476 28.2314C43.7591 33.8777 44.7002 41.5001 42.8181 43.7586C44.2296 42.3471 46.1117 37.2655 42.3476 28.2314Z" stroke="#999999"/>
<path d="M41.8769 21.3667C42.3474 20.7385 43.6649 19.5449 45.1706 19.7962C47.0527 20.1104 47.9937 21.0526 47.9937 21.3667C47.9937 21.6808 42.3474 21.6809 41.8769 21.3667Z" fill="white"/>
<path d="M29.1729 21.3666C29.8002 20.7385 31.4314 19.545 32.937 19.7962C34.4427 20.0475 35.7602 20.9479 36.2307 21.3666C34.0349 21.576 29.5493 21.8691 29.1729 21.3666Z" fill="white"/>
<circle cx="32.9362" cy="20.703" r="0.5" fill="black" stroke="black" stroke-width="0.882085"/>
<circle cx="45.1696" cy="20.703" r="0.5" fill="black" stroke="black" stroke-width="0.882085"/>
<path d="M37.2222 23.5264C36.2812 23.84 34.4932 24.7497 34.8696 25.879C35.3402 27.2905 35.3403 26.82 35.8109 26.82C36.2814 26.82 36.7519 26.3495 37.693 26.82C38.634 27.2905 39.575 27.7611 40.0456 27.2905C40.5161 26.82 40.0456 26.3495 40.9866 26.3495C41.9276 26.3495 41.9276 27.2905 42.3982 26.82C42.8687 26.3495 42.8687 24.9379 41.4571 23.5264" stroke="#B19F8A"/>
</svg>
