<svg width="40" height="60" viewBox="0 0 40 60" fill="none" xmlns="http://www.w3.org/2000/svg">
<path d="M19.8861 0.947021C29.9562 0.947021 38.1196 7.39496 38.1196 15.3489C38.1196 16.7237 37.8757 18.0535 37.4202 19.3127C36.5296 21.7747 34.8302 23.9672 32.5636 25.6995C33.0795 28.1857 33.363 30.8884 33.363 33.7146C33.363 45.9739 28.0391 55.912 21.4716 55.912C14.9041 55.912 9.58012 45.9739 9.58012 33.7146C9.58012 31.5503 9.74681 29.4584 10.0562 27.4806C5.00188 24.9204 1.65248 20.4437 1.65248 15.3489C1.65248 15.0452 1.66438 14.7437 1.68783 14.4447C1.75948 13.5313 1.93891 12.6409 2.21621 11.7815C4.22575 5.55308 11.3749 0.947021 19.8861 0.947021Z" fill="#CCAB8F" fill-opacity="0.77"/>
<path d="M32.5636 25.6995C33.0795 28.1857 33.363 30.8884 33.363 33.7146C33.7593 33.4944 34.6577 32.7369 35.0805 31.4684C35.609 29.8829 35.0805 26.3155 35.8732 25.6995C36.5074 25.2067 37.1688 21.2363 37.4202 19.3127C36.5296 21.7747 34.8302 23.9672 32.5636 25.6995Z" fill="#CCAB8F" fill-opacity="0.77"/>
<path d="M9.58012 33.7146C9.58012 31.5503 9.74681 29.4584 10.0562 27.4806C5.00188 24.9204 1.65248 20.4437 1.65248 15.3489C1.65248 15.0452 1.66438 14.7437 1.68783 14.4447C1.23205 17.0156 0.822319 20.1828 1.12397 21.691C1.54678 23.8051 2.0283 24.9502 2.21621 25.2585C2.07226 26.3595 2.18075 29.1959 3.76628 31.7327C4.29479 32.085 5.40466 32.9747 5.61606 33.7146C5.88032 34.6395 5.61606 35.5644 6.14457 35.9608C6.67308 36.3572 7.86223 36.6214 8.12648 35.168L9.58012 33.7146Z" fill="#CCAB8F" fill-opacity="0.77"/>
<path d="M20.8389 15.5086C21.7197 15.2884 23.9042 14.9801 25.5955 15.5086C27.7095 16.1693 28.5023 16.4336 29.9557 16.1693C31.1184 15.9579 32.6422 16.0812 33.2588 16.1693" stroke="black"/>
<path d="M14 20.2885C16.3727 19.5872 21.3256 18.3949 22.156 19.2365C23.194 20.2885 22.0077 21.3403 25.715 21.7611C28.6808 22.0978 28.1371 21.9014 27.4945 21.7611" stroke="black"/>
<path d="M9 33.447C8.95596 34.1957 8.34052 36.7534 7.4949 37.8104C6.43788 39.1317 6.0415 39.2638 6.43788 40.5851C6.75499 41.6421 7.27469 40.5851 7.4949 39.9245C7.45082 41.8183 7.49478 45.9231 8.02335 47.1915C8.68405 48.777 9.741 49.1734 9.60887 49.834C9.47675 50.4947 9.21249 53.1372 10.5338 53.93C11.5541 54.5422 13.3623 55.8635 14.4374 55.7035C14.5898 55.4343 14.8963 55.2314 15.1582 55.1191C15.0077 55.4803 14.7545 55.6563 14.4374 55.7035C14.2311 56.068 14.3071 56.5539 15.1582 57.101C16.6381 58.0524 17.008 57.4974 17.008 57.101C17.8008 58.1581 19.5977 60.0078 20.4433 58.9508C21.5003 57.6295 20.4433 56.8368 20.4433 56.4404C20.4433 56.044 21.8967 59.4793 22.5574 59.2151C23.218 58.9508 23.3501 59.4793 23.4822 58.4223C24.3631 58.6866 26.3098 59.0565 27.0497 58.4223C27.9746 57.6295 28.6352 56.9689 30.0886 55.9119C31.542 54.8549 32.2027 53.93 32.2027 52.873C32.9514 52.6968 34.3431 51.7895 33.9203 49.5698C34.0965 49.3055 34.4224 48.4599 34.3167 47.1915C34.669 46.3987 35.268 44.5489 34.8452 43.4919C34.4224 42.4349 34.669 41.1136 34.8452 40.5851C34.9773 40.0566 35.0566 38.7618 34.3167 37.8104C33.3918 36.6213 32.4669 36.8856 32.2027 35.6964C31.9384 34.5073 31.0135 35.6964 30.0886 35.6964C29.1637 35.6964 26.9176 35.3 26.7854 34.7715C26.6533 34.243 25.0678 35.5643 24.275 35.0358C23.6408 34.613 23.218 33.7145 23.0859 33.3181C22.3371 33.8907 20.3376 35.0358 18.3293 35.0358C15.8189 35.0358 13.9691 35.0358 13.5727 33.8466C13.2556 32.8953 11.4689 33.4185 10.5 33.947L9 33.447Z" fill="#C2BDBD"/>
<path d="M26.6534 38.2069C25.5964 38.0747 24.5394 38.7354 23.4824 39.6603C24.143 39.6162 25.5699 39.581 25.9928 39.7924C26.5214 40.0567 26.7856 40.5852 27.3141 40.3209C27.8426 40.0567 29.0318 40.0567 29.296 40.1888C29.4521 40.2668 29.6656 40.3017 29.82 40.3145C29.8407 40.0687 29.838 39.8353 29.8245 39.6603C29.8685 39.5281 29.7981 39.1053 29.1639 38.4711C28.3711 37.6783 27.7105 38.339 26.6534 38.2069Z" fill="black"/>
<path d="M23.4824 39.6603C24.5394 38.7354 25.5964 38.0747 26.6534 38.2069C27.7105 38.339 28.3711 37.6783 29.1639 38.4711C29.7981 39.1053 29.8685 39.5281 29.8245 39.6603C29.838 39.8353 29.8407 40.0687 29.82 40.3145M23.4824 39.6603C22.8217 39.9245 22.8217 40.9816 23.086 41.5101C23.3502 42.0386 25.2 41.6422 25.9928 42.0386C26.7856 42.435 28.3711 41.9065 29.1639 41.6422C29.6042 41.4954 29.7728 40.873 29.82 40.3145M23.4824 39.6603C24.143 39.6162 25.5699 39.581 25.9928 39.7924C26.5214 40.0567 26.7856 40.5852 27.3141 40.3209C27.8426 40.0567 29.0318 40.0567 29.296 40.1888C29.4521 40.2668 29.6656 40.3017 29.82 40.3145M29.9567 40.3209C29.9221 40.3209 29.8747 40.3191 29.82 40.3145" stroke="black"/>
<path d="M6.83409 25.2586C6.34963 24.5098 5.22214 23.1445 4.58793 23.673C3.79517 24.3337 2.60602 24.9944 3.26666 26.9763C3.92729 28.9582 4.45588 30.808 5.90928 30.9401C7.36268 31.0723 6.83417 31.6008 7.49481 31.3365C8.15544 31.0723 6.43779 29.8831 6.30566 29.0904C6.17353 28.2976 6.43764 28.1655 6.83409 27.3727C7.23055 26.5799 7.09827 25.6375 6.83409 25.2586Z" fill="black"/>
<path d="M24.5392 34.3754C23.6143 34.2433 23.6143 32.6578 23.8786 31.865C23.8951 31.8155 23.9176 31.7716 23.9453 31.7329C23.6156 32.1292 23.6143 34.1112 23.7465 34.9039C23.8786 35.6967 25.8605 34.9039 26.6533 34.6397C27.446 34.3754 27.7103 35.1682 28.8994 35.5646C30.0886 35.9609 30.7492 35.3003 31.4099 34.9039C32.0705 34.5075 31.8062 34.1112 31.4099 32.5256C31.1079 31.3178 30.5759 27.5796 30.398 26.2177C30.5166 27.7247 30.6471 31.9849 30.8814 32.922C31.1456 33.979 29.9565 34.1112 29.2958 34.3754C28.6352 34.6397 27.7103 33.7148 27.3139 33.3184C26.9175 32.922 26.1248 32.922 25.4641 33.1863C24.8035 33.4505 25.4641 34.5075 24.5392 34.3754Z" fill="black"/>
<path d="M18.065 23.1446C19.122 22.7482 20.0469 22.0876 21.6324 22.6161C22.9009 23.0389 23.5703 23.7612 23.7465 24.0695C22.9537 24.642 21.1304 25.6813 20.179 25.2586C18.9899 24.7301 17.5365 23.4169 17.1401 23.4254C17.392 23.3898 17.6609 23.2962 18.065 23.1446Z" fill="black"/>
<path d="M29.8243 23.4254C30.3088 23.1997 31.3966 23.1594 32.3348 23.2767C33.5239 23.4254 34.1845 23.8052 34.4488 24.0695C34.713 24.3337 33.3918 25.3907 32.2026 25.2586C31.2513 25.1529 30.2648 24.0805 29.8243 23.4254Z" fill="black"/>
<path d="M2.20319 25.1269C2.20319 24.9947 2.33532 24.5719 2.86383 23.9377C3.52447 23.1449 3.92085 22.7486 4.84574 22.8807C5.77063 23.0128 6.95978 23.2771 7.09191 24.0698C7.19761 24.704 7.48829 25.303 7.62041 25.5232C7.44424 24.9947 7.25046 23.8584 7.88467 23.5413C8.67743 23.1449 8.28105 24.4662 8.67743 25.1269C9.07382 25.7875 8.80956 24.8626 10.3951 23.2771C11.6635 22.0086 11.8044 19.4894 11.7164 18.3884C12.2889 17.2432 13.4869 14.9002 13.6983 14.6888C13.9625 14.4245 14.6232 13.4996 15.4159 13.4996C16.2087 13.4996 17.3978 13.896 17.7942 13.4996C18.1906 13.1033 15.4159 13.4996 15.4159 12.5747C15.4159 11.8348 15.8564 10.5048 16.0766 9.9322C16.7372 10.9892 18.2435 13.0768 18.9834 12.9711C19.9083 12.839 17.7942 12.1784 18.0585 10.5928C18.2992 9.14856 18.8688 8.03318 18.9684 7.24671C18.9725 6.9703 18.9834 6.86449 18.9834 7.0254C18.9834 7.09602 18.9781 7.16979 18.9684 7.24671C18.9523 8.33213 19.0409 12.0482 20.3046 12.5747C21.8902 13.2354 22.6829 13.1031 23.3436 12.8389C23.8721 12.6276 23.74 12.2224 23.6078 12.0462C23.2555 11.7819 22.6565 10.8834 23.0793 9.40362C23.5964 7.59393 24.1134 8.5664 23.8882 6.75358C23.7756 6.15327 23.6769 5.59022 23.6078 5.17554C23.6078 4.99937 23.6607 5.04341 23.8721 6.62894C23.8778 6.6719 23.8832 6.71342 23.8882 6.75358C24.1343 8.06596 24.4473 9.55645 24.6648 10.0641C25.0612 10.989 27.968 10.9889 28.4965 11.5175C29.025 12.0462 29.5536 12.0464 29.6857 12.5747C29.8178 13.1031 30.0821 11.9139 29.6857 10.989C29.2893 10.0641 29.9499 10.1961 31.2712 11.1212C32.5925 12.0462 32.8567 12.3106 33.5174 12.5747C34.178 12.8389 32.8567 10.8573 32.5925 10.5928C32.3282 10.3284 31.4033 9.27137 31.6676 7.81797C31.9318 6.36457 32.3282 9.4035 33.5174 10.3284C34.7065 11.2533 34.9708 10.9893 35.6314 12.0462C36.2921 13.1031 36.0278 15.6135 36.2921 16.5384C36.5563 17.4633 36.8206 18.5203 37.4812 18.6524C38.0097 18.7581 38.0538 15.8777 38.0097 14.4243C37.5252 12.1342 37.7455 8.87485 33.6496 5.4397C30.4482 2.75475 24.1364 0.0222281 17.0015 1.34373C12.1945 2.23405 12.9056 2.13635 10.6594 2.92912C8.41328 3.72188 3.92085 7.55366 3.52447 9.27135C3.12808 10.989 0.756235 13.2349 1.02049 17.7273C1.28474 22.2196 0.881919 21.6918 2.20319 25.1269Z" fill="black"/>
<path d="M18.9684 7.24671C18.8688 8.03318 18.2992 9.14856 18.0585 10.5928C17.7942 12.1784 19.9083 12.839 18.9834 12.9711C18.2435 13.0768 16.7372 10.9892 16.0766 9.9322C15.8564 10.5048 15.4159 11.8348 15.4159 12.5747C15.4159 13.4996 18.1906 13.1033 17.7942 13.4996C17.3978 13.896 16.2087 13.4996 15.4159 13.4996C14.6232 13.4996 13.9625 14.4245 13.6983 14.6888C13.4869 14.9002 12.2889 17.2432 11.7164 18.3884C11.8044 19.4894 11.6635 22.0086 10.3951 23.2771C8.80956 24.8626 9.07382 25.7875 8.67743 25.1269C8.28105 24.4662 8.67743 23.1449 7.88467 23.5413C7.25046 23.8584 7.44424 24.9947 7.62041 25.5232C7.48829 25.303 7.19761 24.704 7.09191 24.0698C6.95978 23.2771 5.77063 23.0128 4.84574 22.8807C3.92085 22.7486 3.52447 23.1449 2.86383 23.9377C2.33532 24.5719 2.20319 24.9947 2.20319 25.1269C0.881919 21.6918 1.28474 22.2196 1.02049 17.7273C0.756235 13.2349 3.12808 10.989 3.52447 9.27135C3.92085 7.55366 8.41328 3.72188 10.6594 2.92912C12.9056 2.13635 12.1945 2.23405 17.0015 1.34373C24.1364 0.022228 30.4482 2.75475 33.6496 5.4397C37.7455 8.87485 37.5252 12.1342 38.0097 14.4243C38.0538 15.8777 38.0097 18.7581 37.4812 18.6524C36.8206 18.5203 36.5563 17.4633 36.2921 16.5384C36.0278 15.6135 36.2921 13.1031 35.6314 12.0462C34.9708 10.9893 34.7065 11.2533 33.5174 10.3284C32.3282 9.4035 31.9318 6.36457 31.6676 7.81797C31.4033 9.27137 32.3282 10.3284 32.5925 10.5928C32.8567 10.8573 34.178 12.8389 33.5174 12.5747C32.8567 12.3106 32.5925 12.0462 31.2712 11.1212C29.9499 10.1961 29.2893 10.0641 29.6857 10.989C30.0821 11.9139 29.8178 13.1031 29.6857 12.5747C29.5536 12.0464 29.025 12.0462 28.4965 11.5175C27.968 10.9889 25.0612 10.989 24.6648 10.0641C24.4473 9.55645 24.1343 8.06596 23.8882 6.75358M18.9684 7.24671C18.9725 6.9703 18.9834 6.86449 18.9834 7.0254C18.9834 7.09602 18.9781 7.16979 18.9684 7.24671ZM18.9684 7.24671C18.9523 8.33213 19.0409 12.0482 20.3046 12.5747C21.8902 13.2354 22.6829 13.1031 23.3436 12.8389C23.8721 12.6276 23.74 12.2224 23.6078 12.0462C23.2555 11.7819 22.6565 10.8834 23.0793 9.40362C23.5964 7.59393 24.1134 8.5664 23.8882 6.75358M23.8882 6.75358C23.7756 6.15327 23.6769 5.59022 23.6078 5.17554C23.6078 4.99937 23.6607 5.04341 23.8721 6.62894C23.8778 6.6719 23.8832 6.71342 23.8882 6.75358Z" stroke="black" stroke-width="2"/>
<path d="M12.9959 42.6992C12.6852 44.6811 12.0195 46.3988 12.6408 47.9843C13.2622 49.5698 13.706 49.1735 13.706 49.8341" stroke="#999999"/>
<path d="M15.2082 37.9426C15.5189 39.9245 16.1846 41.6422 15.5633 43.2277C14.9419 44.8132 14.4981 44.4169 14.4981 45.0775" stroke="#999999"/>
<path d="M26.2568 46.7952C26.5739 51.2346 26.389 53.1373 26.2568 53.5337" stroke="#999999"/>
<path d="M30.0879 44.5491C30.405 48.9886 30.22 50.8912 30.0879 51.2876" stroke="#999999"/>
<path d="M22.1602 45.342C22.4773 49.7815 22.2923 51.6842 22.1602 52.0805" stroke="#999999"/>
<path d="M18.7256 35.5645C19.0427 40.0039 18.8577 41.9066 18.7256 42.3029" stroke="#999999"/>
<path d="M23.7412 34.0098C20.9651 37.8626 21.1558 39.967 21.5981 40.5376" stroke="black"/>
<path d="M31.0674 34.488C32.9059 39.3076 31.2139 41.0345 30.138 41.2955" stroke="black"/>
<path d="M10.0049 34.2432C10.322 38.6826 10.137 40.5853 10.0049 40.9817" stroke="#999999"/>
</svg>
