<svg width="59" height="60" viewBox="0 0 59 60" fill="none" xmlns="http://www.w3.org/2000/svg">
<rect x="7" y="7" width="44.8377" height="45.585" rx="22.4188" fill="#FD03DF"/>
<g opacity="0.6">
<rect width="58.484" height="59.4587" rx="29.242" fill="url(#paint0_radial_3537_1435)"/>
</g>
<path d="M34.6146 32.2251C33.4908 31.3775 32.0229 31.1942 31.4495 30.8964C30.8532 30.5986 30.0504 30.0488 30.0504 29.5677C30.0504 29.3158 30.1651 29.1554 30.2339 29.1096C31.4036 28.4681 31.7935 26.3835 31.8853 26.3835C32.2752 26.3835 32.5504 25.3984 32.5504 24.757C32.5504 24.2301 32.3899 24.253 32.1146 24.0926V24.0239C32.1146 22.3287 30.7156 21 29.0183 21C27.2981 21 25.8303 22.3745 25.8303 24.0697V24.1385C25.555 24.2988 25.4404 24.3904 25.4404 24.8944C25.4404 25.5588 25.6697 26.4751 26.0596 26.4751C26.1284 26.4751 26.633 28.4911 27.7569 29.1783C27.8257 29.2241 27.9403 29.3387 27.9403 29.5677C27.9403 30.1175 27.1835 30.5986 26.5413 30.9193C25.7614 31.3088 22 31.6295 22 35.2032H34.1559" stroke="#6B6C6E"/>
<path fill-rule="evenodd" clip-rule="evenodd" d="M34.6146 32.2251C33.4908 31.3775 32.0229 31.1942 31.4495 30.8964C30.8532 30.5986 30.0504 30.0488 30.0504 29.5677C30.0504 29.3158 30.1651 29.1554 30.2339 29.1096C31.4036 28.4681 31.7935 26.3835 31.8853 26.3835C32.2752 26.3835 32.5504 25.3984 32.5504 24.757C32.5504 24.2301 32.3899 24.253 32.1146 24.0926V24.0239C32.1146 22.3287 30.7156 21 29.0183 21C27.2981 21 25.8303 22.3745 25.8303 24.0697V24.1385C25.555 24.2988 25.4404 24.3904 25.4404 24.8944C25.4404 25.5588 25.6697 26.4751 26.0596 26.4751C26.1284 26.4751 26.633 28.4911 27.7569 29.1783C27.8257 29.2241 27.9403 29.3387 27.9403 29.5677C27.9403 30.1175 27.1835 30.5986 26.5413 30.9193C25.7614 31.3088 22 31.6295 22 35.2032H34.1559" fill="#7E0F3D"/>
<path d="M34.6146 32.2251C33.4908 31.3775 32.0229 31.1942 31.4495 30.8964C30.8532 30.5986 30.0504 30.0488 30.0504 29.5677C30.0504 29.3158 30.1651 29.1554 30.2339 29.1096C31.4036 28.4681 31.7935 26.3835 31.8853 26.3835C32.2752 26.3835 32.5504 25.3984 32.5504 24.757C32.5504 24.2301 32.3899 24.253 32.1146 24.0926V24.0239C32.1146 22.3287 30.7156 21 29.0183 21C27.2981 21 25.8303 22.3745 25.8303 24.0697V24.1385C25.555 24.2988 25.4404 24.3904 25.4404 24.8944C25.4404 25.5588 25.6697 26.4751 26.0596 26.4751C26.1284 26.4751 26.633 28.4911 27.7569 29.1783C27.8257 29.2241 27.9403 29.3387 27.9403 29.5677C27.9403 30.1175 27.1835 30.5986 26.5413 30.9193C25.7614 31.3088 22 31.6295 22 35.2032H34.1559" stroke="#7E0F3D" stroke-opacity="0.870588"/>
<path d="M34.1785 32.4547C33.8574 31.7445 32.1143 31.6987 32.1143 32.9587C32.1143 33.9437 33.8115 35.2037 34.1785 35.2037C34.5454 35.2037 36.2427 33.9437 36.2427 32.9587C36.2427 31.5613 33.972 31.6529 33.972 33.1419" stroke="#6B6C6E"/>
<path fill-rule="evenodd" clip-rule="evenodd" d="M34.1785 32.4547C33.8574 31.7445 32.1143 31.6987 32.1143 32.9587C32.1143 33.9437 33.8115 35.2037 34.1785 35.2037C34.5454 35.2037 36.2427 33.9437 36.2427 32.9587C36.2427 31.5613 33.972 31.6529 33.972 33.1419" fill="white"/>
<path d="M34.1785 32.4547C33.8574 31.7445 32.1143 31.6987 32.1143 32.9587C32.1143 33.9437 33.8115 35.2037 34.1785 35.2037C34.5454 35.2037 36.2427 33.9437 36.2427 32.9587C36.2427 31.5613 33.972 31.6529 33.972 33.1419" stroke="white"/>
<defs>
<radialGradient id="paint0_radial_3537_1435" cx="0" cy="0" r="1" gradientUnits="userSpaceOnUse" gradientTransform="translate(29.242 29.7293) rotate(90) scale(29.7293 29.242)">
<stop offset="0.5" stop-color="#FF00E0" stop-opacity="0.5"/>
<stop offset="0.610577" stop-color="white"/>
<stop offset="1" stop-color="#0F3E4C" stop-opacity="0"/>
</radialGradient>
</defs>
</svg>
