<svg width="119" height="120" viewBox="0 0 119 120" fill="none" xmlns="http://www.w3.org/2000/svg">
<g filter="url(#filter0_f_1_2)">
<path d="M36.8235 59.2419C36.8235 46.8603 46.8607 36.823 59.2423 36.823C71.6239 36.823 81.6612 46.8603 81.6612 59.2418V59.9892C81.6612 72.3707 71.6239 82.408 59.2423 82.408C46.8607 82.408 36.8235 72.3707 36.8235 59.9892V59.2419Z" fill="#FD03DF"/>
</g>
<g opacity="0.6" filter="url(#filter1_d_1_2)">
<path d="M30 59.242C30 43.0921 43.0921 30 59.242 30C75.3919 30 88.484 43.0921 88.484 59.242V60.2167C88.484 76.3666 75.3919 89.4587 59.242 89.4587C43.0921 89.4587 30 76.3666 30 60.2167V59.242Z" fill="url(#paint0_radial_1_2)"/>
</g>
<path d="M59.2744 60.2898C59.2745 59.9041 59.447 59.5713 59.6807 59.4158L59.6982 59.4041L59.7168 59.3933C60.1424 59.1599 60.4781 58.6209 60.7275 58.033C60.8464 57.7527 60.9348 57.4887 61.002 57.2849C61.0337 57.1886 61.0648 57.092 61.0908 57.0222C61.103 56.9896 61.1222 56.9411 61.1465 56.8953C61.1575 56.8746 61.182 56.8295 61.2227 56.783C61.2398 56.7634 61.3313 56.6589 61.4912 56.6208C61.5249 56.5743 61.5715 56.4908 61.6172 56.364C61.7152 56.0918 61.7744 55.7421 61.7744 55.4792C61.7744 55.415 61.77 55.3713 61.7666 55.3425C61.7515 55.3348 61.7345 55.3268 61.708 55.3132C61.6739 55.2958 61.6325 55.2734 61.5869 55.2468L61.3379 55.1023V54.7458C61.3376 53.3422 60.1783 52.2225 58.7422 52.2224C57.2761 52.2224 56.0539 53.3945 56.0537 54.7917V55.1482L55.8057 55.2927C55.7297 55.337 55.6967 55.3596 55.6846 55.3689C55.6789 55.3876 55.6641 55.4529 55.6641 55.6169C55.6641 55.9021 55.7147 56.2424 55.8008 56.4958C55.8372 56.603 55.8751 56.6718 55.9014 56.7117C55.9915 56.7334 56.0555 56.7751 56.0879 56.7996C56.1371 56.8367 56.169 56.8754 56.1846 56.8953C56.2161 56.9356 56.2365 56.9734 56.2451 56.99C56.2649 57.0282 56.2819 57.0701 56.2939 57.1003C56.3194 57.1639 56.3529 57.2553 56.3877 57.3484C56.4609 57.5447 56.5604 57.8032 56.6895 58.0798C56.9252 58.5851 57.2269 59.0738 57.585 59.363L57.7412 59.4744L57.75 59.4792L57.7578 59.4841C57.938 59.6041 58.1639 59.8628 58.1641 60.2898C58.1641 60.7946 57.8255 61.1805 57.5293 61.4324C57.2141 61.7003 56.8219 61.922 56.4883 62.0886C56.3466 62.1594 56.1624 62.2185 55.9893 62.2703C55.7896 62.3299 55.611 62.3782 55.3721 62.4509C54.9218 62.5879 54.4175 62.7647 53.9443 63.0271C53.4726 63.2887 53.046 63.6278 52.7373 64.0837C52.4995 64.4349 52.3224 64.8717 52.2549 65.4255H63.8799V66.4255H51.2236V65.9255C51.2236 64.9387 51.485 64.1497 51.9092 63.5232C52.33 62.9018 52.893 62.466 53.459 62.1521C54.0236 61.839 54.6067 61.6392 55.0811 61.4949C55.3043 61.4269 55.5479 61.3586 55.7031 61.3123C55.8844 61.2581 55.9878 61.2206 56.041 61.1941C56.3495 61.04 56.6581 60.8609 56.8818 60.6707C57.1242 60.4646 57.1631 60.3346 57.1631 60.2898C56.4986 59.8561 56.0566 59.0886 55.7832 58.5027C55.6371 58.1895 55.527 57.9011 55.4512 57.698C55.4373 57.6609 55.4239 57.6285 55.4131 57.5994C55.2916 57.5315 55.1969 57.4387 55.1299 57.3542C55.004 57.1953 54.9158 57.0004 54.8535 56.8171C54.7275 56.4464 54.6641 55.996 54.6641 55.6169C54.6641 55.3444 54.6912 55.081 54.8262 54.8542C54.8928 54.7423 54.9764 54.6568 55.0596 54.5896C55.1709 52.6933 56.8354 51.2224 58.7422 51.2224C60.6232 51.2225 62.2084 52.6416 62.3301 54.5144C62.3893 54.5506 62.4602 54.5996 62.5254 54.6697C62.7353 54.8956 62.7744 55.1886 62.7744 55.4792C62.7744 55.8578 62.6957 56.3222 62.5586 56.7029C62.4905 56.8919 62.3974 57.0906 62.2705 57.2517C62.2049 57.335 62.1083 57.4317 61.9824 57.5037C61.9732 57.5315 61.9628 57.5631 61.9512 57.5984C61.8829 57.8055 61.7836 58.1027 61.6475 58.4236C61.3969 59.014 60.9761 59.7959 60.2842 60.2185C60.2794 60.234 60.2744 60.2574 60.2744 60.2898C60.2743 60.2729 60.2686 60.2994 60.3213 60.3767C60.3724 60.4515 60.4565 60.5429 60.5742 60.6433C60.7507 60.7938 60.9709 60.9384 61.1855 61.0593L61.3965 61.1716L61.4033 61.1755C61.5009 61.2262 61.6593 61.2819 61.8984 61.3552C62.1199 61.4231 62.4103 61.5055 62.7041 61.6013C63.3011 61.7962 64.0117 62.075 64.6396 62.5486L64.0371 63.3464C63.5413 62.9726 62.9556 62.7356 62.3945 62.5525C62.1095 62.4595 61.8545 62.3879 61.6045 62.3113C61.375 62.2409 61.1381 62.1617 60.9502 62.0652C60.6285 61.9045 60.2409 61.6728 59.9258 61.4041C59.7684 61.2698 59.6141 61.1139 59.4961 60.9412C59.3802 60.7715 59.2744 60.5479 59.2744 60.2898Z" fill="#6B6C6E"/>
<path fill-rule="evenodd" clip-rule="evenodd" d="M64.3383 62.9475C63.2144 62.0999 61.7465 61.9167 61.1731 61.6188C60.5768 61.321 59.7741 60.7712 59.7741 60.2902C59.7741 60.0382 59.8887 59.8778 59.9575 59.832C61.1273 59.1906 61.5172 57.1059 61.6089 57.1059C61.9988 57.1059 62.274 56.1208 62.274 55.4794C62.274 54.9525 62.1135 54.9754 61.8383 54.815V54.7463C61.8383 53.0511 60.4392 51.7224 58.7419 51.7224C57.0218 51.7224 55.5539 53.0969 55.5539 54.7921V54.8609C55.2787 55.0212 55.164 55.1129 55.164 55.6168C55.164 56.2812 55.3933 57.1975 55.7832 57.1975C55.8521 57.1975 56.3566 59.2135 57.4805 59.9007C57.5493 59.9465 57.664 60.0611 57.664 60.2902C57.664 60.84 56.9071 61.321 56.2649 61.6418C55.4851 62.0312 51.7236 62.3519 51.7236 65.9256H63.8795" fill="#7E0F3D"/>
<path d="M59.2744 60.2898C59.2745 59.9041 59.447 59.5713 59.6807 59.4158L59.6982 59.4041L59.7168 59.3933C60.1424 59.1599 60.4781 58.6209 60.7275 58.033C60.8464 57.7527 60.9348 57.4887 61.002 57.2849C61.0337 57.1886 61.0648 57.092 61.0908 57.0222C61.103 56.9896 61.1222 56.9411 61.1465 56.8953C61.1575 56.8746 61.182 56.8295 61.2227 56.783C61.2398 56.7634 61.3313 56.6589 61.4912 56.6208C61.5249 56.5743 61.5715 56.4908 61.6172 56.364C61.7152 56.0918 61.7744 55.7421 61.7744 55.4792C61.7744 55.415 61.77 55.3713 61.7666 55.3425C61.7515 55.3348 61.7345 55.3268 61.708 55.3132C61.6739 55.2958 61.6325 55.2734 61.5869 55.2468L61.3379 55.1023V54.7458C61.3376 53.3422 60.1783 52.2225 58.7422 52.2224C57.2761 52.2224 56.0539 53.3945 56.0537 54.7917V55.1482L55.8057 55.2927C55.7297 55.337 55.6967 55.3596 55.6846 55.3689C55.6789 55.3876 55.6641 55.4529 55.6641 55.6169C55.6641 55.9021 55.7147 56.2424 55.8008 56.4958C55.8372 56.603 55.8751 56.6718 55.9014 56.7117C55.9915 56.7334 56.0555 56.7751 56.0879 56.7996C56.1371 56.8367 56.169 56.8754 56.1846 56.8953C56.2161 56.9356 56.2365 56.9734 56.2451 56.99C56.2649 57.0282 56.2819 57.0701 56.2939 57.1003C56.3194 57.1639 56.3529 57.2553 56.3877 57.3484C56.4609 57.5447 56.5604 57.8032 56.6895 58.0798C56.9252 58.5851 57.2269 59.0738 57.585 59.363L57.7412 59.4744L57.75 59.4792L57.7578 59.4841C57.938 59.6041 58.1639 59.8628 58.1641 60.2898C58.1641 60.7946 57.8255 61.1805 57.5293 61.4324C57.2141 61.7003 56.8219 61.922 56.4883 62.0886C56.3466 62.1594 56.1624 62.2185 55.9893 62.2703C55.7896 62.3299 55.611 62.3782 55.3721 62.4509C54.9218 62.5879 54.4175 62.7647 53.9443 63.0271C53.4726 63.2887 53.046 63.6278 52.7373 64.0837C52.4995 64.4349 52.3224 64.8717 52.2549 65.4255H63.8799V66.4255H51.2236V65.9255C51.2236 64.9387 51.485 64.1497 51.9092 63.5232C52.33 62.9018 52.893 62.466 53.459 62.1521C54.0236 61.839 54.6067 61.6392 55.0811 61.4949C55.3043 61.4269 55.5479 61.3586 55.7031 61.3123C55.8844 61.2581 55.9878 61.2206 56.041 61.1941C56.3495 61.04 56.6581 60.8609 56.8818 60.6707C57.1242 60.4646 57.1631 60.3346 57.1631 60.2898C56.4986 59.8561 56.0566 59.0886 55.7832 58.5027C55.6371 58.1895 55.527 57.9011 55.4512 57.698C55.4373 57.6609 55.4239 57.6285 55.4131 57.5994C55.2916 57.5315 55.1969 57.4387 55.1299 57.3542C55.004 57.1953 54.9158 57.0004 54.8535 56.8171C54.7275 56.4464 54.6641 55.996 54.6641 55.6169C54.6641 55.3444 54.6912 55.081 54.8262 54.8542C54.8928 54.7423 54.9764 54.6568 55.0596 54.5896C55.1709 52.6933 56.8354 51.2224 58.7422 51.2224C60.6232 51.2225 62.2084 52.6416 62.3301 54.5144C62.3893 54.5506 62.4602 54.5996 62.5254 54.6697C62.7353 54.8956 62.7744 55.1886 62.7744 55.4792C62.7744 55.8578 62.6957 56.3222 62.5586 56.7029C62.4905 56.8919 62.3974 57.0906 62.2705 57.2517C62.2049 57.335 62.1083 57.4317 61.9824 57.5037C61.9732 57.5315 61.9628 57.5631 61.9512 57.5984C61.8829 57.8055 61.7836 58.1027 61.6475 58.4236C61.3969 59.014 60.9761 59.7959 60.2842 60.2185C60.2794 60.234 60.2745 60.2574 60.2744 60.2898C60.2743 60.2729 60.2686 60.2994 60.3213 60.3767C60.3724 60.4515 60.4565 60.5429 60.5742 60.6433C60.7507 60.7938 60.9709 60.9384 61.1855 61.0593L61.3965 61.1716L61.4033 61.1755C61.5009 61.2262 61.6593 61.2819 61.8984 61.3552C62.1199 61.4231 62.4103 61.5055 62.7041 61.6013C63.3011 61.7962 64.0117 62.075 64.6396 62.5486L64.0371 63.3464C63.5413 62.9726 62.9556 62.7356 62.3945 62.5525C62.1095 62.4595 61.8545 62.3879 61.6045 62.3113C61.375 62.2409 61.1381 62.1617 60.9502 62.0652C60.6285 61.9045 60.2409 61.6728 59.9258 61.4041C59.7684 61.2698 59.6141 61.1139 59.4961 60.9412C59.3802 60.7715 59.2744 60.5479 59.2744 60.2898Z" fill="#7E0F3D" fill-opacity="0.870588"/>
<path d="M65.4668 63.6812C65.4668 63.4824 65.3929 63.3736 65.3057 63.3062C65.2048 63.2281 65.0463 63.1778 64.8613 63.189C64.4902 63.2114 64.1953 63.4472 64.1953 63.8647H63.1953C63.1953 63.6415 63.2332 63.4407 63.2979 63.2622C63.285 63.256 63.2718 63.2487 63.2568 63.2427C63.1293 63.191 62.9664 63.1682 62.8096 63.187C62.6527 63.2059 62.5347 63.2617 62.4619 63.3315C62.3989 63.3921 62.3379 63.4918 62.3379 63.6812C62.3379 63.7912 62.389 63.9588 62.5293 64.1772C62.6651 64.3887 62.8584 64.6069 63.0732 64.8071C63.2871 65.0064 63.5094 65.1755 63.6924 65.2915C63.7782 65.3459 63.8493 65.3836 63.9014 65.4077C63.9536 65.3836 64.0258 65.3463 64.1123 65.2915C64.2953 65.1755 64.5177 65.0063 64.7314 64.8071C64.9461 64.6071 65.1386 64.3886 65.2744 64.1772C65.4148 63.9588 65.4668 63.7912 65.4668 63.6812ZM66.4668 63.6812C66.4668 64.0634 66.3054 64.4226 66.1162 64.7173C65.9224 65.019 65.6683 65.3007 65.4131 65.5386C65.1569 65.7773 64.8858 65.9852 64.6475 66.1362C64.5287 66.2115 64.4099 66.2775 64.2998 66.3267C64.2073 66.3679 64.0594 66.4262 63.9023 66.4263C63.7451 66.4263 63.5964 66.3679 63.5039 66.3267C63.3939 66.2776 63.2759 66.2114 63.1572 66.1362C62.9188 65.9852 62.6479 65.7774 62.3916 65.5386C62.1363 65.3007 61.8823 65.0191 61.6885 64.7173C61.4992 64.4226 61.3379 64.0635 61.3379 63.6812C61.3379 63.2405 61.4947 62.8729 61.7686 62.6099C62.0326 62.3563 62.3706 62.2323 62.6895 62.1938C63.0085 62.1555 63.3423 62.1987 63.6318 62.3159C63.7331 62.3569 63.8344 62.411 63.9307 62.4771C64.1968 62.3052 64.5041 62.2089 64.8008 62.1909C65.1833 62.1678 65.5922 62.2641 65.917 62.5151C66.2555 62.777 66.4668 63.1812 66.4668 63.6812Z" fill="#6B6C6E"/>
<path fill-rule="evenodd" clip-rule="evenodd" d="M63.9021 63.1771C63.581 62.4669 61.8379 62.4211 61.8379 63.6811C61.8379 64.6661 63.5351 65.9261 63.9021 65.9261C64.2691 65.9261 65.9663 64.6661 65.9663 63.6811C65.9663 62.2837 63.6957 62.3753 63.6957 63.8644" fill="white"/>
<path d="M65.4668 63.6812C65.4668 63.4824 65.3929 63.3736 65.3057 63.3062C65.2048 63.2281 65.0463 63.1778 64.8613 63.189C64.4902 63.2114 64.1953 63.4472 64.1953 63.8647H63.1953C63.1953 63.6415 63.2332 63.4407 63.2979 63.2622C63.285 63.256 63.2718 63.2487 63.2568 63.2427C63.1293 63.191 62.9664 63.1682 62.8096 63.187C62.6527 63.2059 62.5347 63.2617 62.4619 63.3315C62.3989 63.3921 62.3379 63.4918 62.3379 63.6812C62.3379 63.7912 62.389 63.9588 62.5293 64.1772C62.6651 64.3887 62.8584 64.6069 63.0732 64.8071C63.2871 65.0064 63.5094 65.1755 63.6924 65.2915C63.7782 65.3459 63.8493 65.3836 63.9014 65.4077C63.9536 65.3836 64.0258 65.3463 64.1123 65.2915C64.2953 65.1755 64.5177 65.0063 64.7314 64.8071C64.9461 64.6071 65.1386 64.3886 65.2744 64.1772C65.4148 63.9588 65.4668 63.7912 65.4668 63.6812ZM66.4668 63.6812C66.4668 64.0634 66.3054 64.4226 66.1162 64.7173C65.9224 65.019 65.6683 65.3007 65.4131 65.5386C65.1569 65.7773 64.8858 65.9852 64.6475 66.1362C64.5287 66.2115 64.4099 66.2775 64.2998 66.3267C64.2073 66.3679 64.0594 66.4262 63.9023 66.4263C63.7451 66.4263 63.5964 66.3679 63.5039 66.3267C63.3939 66.2776 63.2759 66.2114 63.1572 66.1362C62.9188 65.9852 62.6479 65.7774 62.3916 65.5386C62.1363 65.3007 61.8823 65.0191 61.6885 64.7173C61.4992 64.4226 61.3379 64.0635 61.3379 63.6812C61.3379 63.2405 61.4947 62.8729 61.7686 62.6099C62.0326 62.3563 62.3706 62.2323 62.6895 62.1938C63.0085 62.1555 63.3423 62.1987 63.6318 62.3159C63.7331 62.3569 63.8344 62.411 63.9307 62.4771C64.1968 62.3052 64.5041 62.2089 64.8008 62.1909C65.1833 62.1678 65.5922 62.2641 65.917 62.5151C66.2555 62.777 66.4668 63.1812 66.4668 63.6812Z" fill="white"/>
<defs>
<filter id="filter0_f_1_2" x="16.8235" y="16.823" width="84.8377" height="85.585" filterUnits="userSpaceOnUse" color-interpolation-filters="sRGB">
<feFlood flood-opacity="0" result="BackgroundImageFix"/>
<feBlend mode="normal" in="SourceGraphic" in2="BackgroundImageFix" result="shape"/>
<feGaussianBlur stdDeviation="10" result="effect1_foregroundBlur_1_2"/>
</filter>
<filter id="filter1_d_1_2" x="0" y="0" width="118.484" height="119.459" filterUnits="userSpaceOnUse" color-interpolation-filters="sRGB">
<feFlood flood-opacity="0" result="BackgroundImageFix"/>
<feColorMatrix in="SourceAlpha" type="matrix" values="0 0 0 0 0 0 0 0 0 0 0 0 0 0 0 0 0 0 127 0" result="hardAlpha"/>
<feOffset/>
<feGaussianBlur stdDeviation="15"/>
<feComposite in2="hardAlpha" operator="out"/>
<feColorMatrix type="matrix" values="0 0 0 0 0.0705882 0 0 0 0 0.784314 0 0 0 0 1 0 0 0 1 0"/>
<feBlend mode="screen" in2="BackgroundImageFix" result="effect1_dropShadow_1_2"/>
<feBlend mode="normal" in="SourceGraphic" in2="effect1_dropShadow_1_2" result="shape"/>
</filter>
<radialGradient id="paint0_radial_1_2" cx="0" cy="0" r="1" gradientUnits="userSpaceOnUse" gradientTransform="translate(59.242 59.7293) rotate(90) scale(29.7293 29.242)">
<stop offset="0.5" stop-color="#FF00E0" stop-opacity="0.5"/>
<stop offset="0.610577" stop-color="white"/>
<stop offset="1" stop-color="#0F3E4C" stop-opacity="0"/>
</radialGradient>
</defs>
</svg>
