<svg width="360" height="383" viewBox="0 0 360 383" fill="none" xmlns="http://www.w3.org/2000/svg">
<circle cx="199" cy="196.511" r="154.5" fill="url(#paint0_linear_250_201)"/>
<mask id="mask0_250_201" style="mask-type:alpha" maskUnits="userSpaceOnUse" x="41" y="0" width="313" height="309">
<path d="M354 194C354 279.328 284.709 309 198 309C111.291 309 41 239.828 41 154.5C41 69.172 111.291 0 198 0C284.709 0 350 110 354 194Z" fill="url(#paint1_linear_250_201)"/>
</mask>
<g mask="url(#mask0_250_201)">
<ellipse cx="215" cy="290.5" rx="236.5" ry="143.5" fill="url(#paint2_linear_250_201)"/>
</g>
<path d="M283.997 277.501L210.997 250.5L208.078 207.7L186.396 203.56L136.558 234.407L109.139 190.535C106.902 187.34 104.221 179.746 111.397 174.935C118.574 170.124 126.368 178.217 129.367 182.865L144.271 207.624L179.504 185.174L224.598 189.173L228.089 241.393L283.999 261.5L283.997 277.501Z" fill="#FFDEA4"/>
<circle cx="117.509" cy="184.676" r="4" transform="rotate(-19.2045 117.509 184.676)" fill="white"/>
<line x1="121.832" y1="192.573" x2="126.352" y2="199.47" stroke="white"/>
<line x1="128.283" y1="201.973" x2="132.804" y2="208.87" stroke="white"/>
<line x1="135.064" y1="212.319" x2="139.584" y2="219.216" stroke="white"/>
<line x1="146.447" y1="216.44" x2="153.344" y2="211.92" stroke="white"/>
<line x1="158.681" y1="209.002" x2="165.578" y2="204.482" stroke="white"/>
<line x1="169.97" y1="201.892" x2="176.867" y2="197.372" stroke="white"/>
<line x1="183.793" y1="194.99" x2="193.608" y2="195.807" stroke="white"/>
<line x1="198.044" y1="196.38" x2="207.859" y2="197.197" stroke="white"/>
<line x1="216.498" y1="199.991" x2="216.625" y2="209.477" stroke="white"/>
<line x1="216.498" y1="215.991" x2="216.625" y2="225.477" stroke="white"/>
<line x1="216.499" y1="230.991" x2="216.626" y2="240.477" stroke="white"/>
<line x1="221.17" y1="246.529" x2="232.17" y2="250.528" stroke="white"/>
<line x1="236.17" y1="251.529" x2="247.17" y2="255.528" stroke="white"/>
<line x1="253.17" y1="257.529" x2="264.17" y2="261.528" stroke="white"/>
<path d="M126.178 85.3982C119.483 86.4038 113.256 87.2886 109.584 89.0162L110.824 100.04C112.295 98.9226 121.859 97.2424 126.386 95.9176L126.178 85.3982Z" fill="#8C3838"/>
<path d="M140.507 96.7684C138.97 95.9945 133.995 94.7409 126.386 95.9176L126.719 112.75C129.351 112.454 135.368 112.08 138.37 112.958L140.507 96.7684Z" fill="#8C3838"/>
<path d="M114.729 134.769C117.904 131.108 122.407 130.425 127.051 129.583L126.719 112.75C124.749 112.257 116.452 114.307 112.62 116.018L114.729 134.769Z" fill="#8C3838"/>
<path d="M136.232 129.147C140.119 129.404 143.791 130.137 146.717 130.967L150.725 120.411C149.145 118.468 141.83 114.632 138.37 112.958L136.232 129.147Z" fill="#8C3838"/>
<path d="M148.498 88.4515C146.465 87.2372 144.258 86.3734 141.956 85.794L140.507 96.7684C143.882 97.5256 151.908 104.463 155.5 107.836L159.561 97.1417C155.29 94.0746 151.392 90.9501 148.498 88.4515Z" fill="#8C3838"/>
<path d="M188.429 108.577C184.974 110.596 178.843 108.671 172.198 105.142L167.255 115.511C171.525 118.242 177.316 119.092 179.678 119.176C183.823 115.364 186.789 111.436 188.429 108.577Z" fill="#8C3838"/>
<path d="M167.255 115.511C164.3 113.743 157.812 109.733 155.5 107.836L150.725 120.411C152.207 122.779 156.439 127.524 161.508 127.567L167.255 115.511Z" fill="#8C3838"/>
<path d="M105.192 90.5461L115.414 183.893L117.728 185.975L120.21 183.521L114.729 134.769L112.62 116.018L110.824 100.04L109.584 89.0162L105.192 90.5461Z" fill="#F68E86"/>
<path d="M126.386 95.9176C121.859 97.2424 112.295 98.9226 110.824 100.04L112.62 116.018C116.452 114.307 124.749 112.257 126.719 112.75L126.386 95.9176Z" fill="#E2D393"/>
<path d="M141.956 85.794C136.885 84.5178 131.349 84.6215 126.178 85.3982L126.386 95.9176C133.995 94.7409 138.97 95.9945 140.507 96.7684L141.956 85.794Z" fill="#E2D393"/>
<path d="M155.5 107.836C151.908 104.463 143.882 97.5256 140.507 96.7684L138.37 112.958C141.83 114.632 149.145 118.468 150.725 120.411L155.5 107.836Z" fill="#E2D393"/>
<path d="M127.051 129.583C130.075 129.034 133.218 128.948 136.232 129.147L138.37 112.958C135.368 112.08 129.351 112.454 126.719 112.75L127.051 129.583Z" fill="#E2D393"/>
<path d="M172.198 105.142C168.01 102.917 163.617 100.055 159.561 97.1417L155.5 107.836C157.812 109.733 164.3 113.743 167.255 115.511L172.198 105.142Z" fill="#E2D393"/>
<path d="M146.717 130.967C147.679 131.24 148.56 131.524 149.341 131.805C153.206 131.779 156.837 131.22 160.216 130.279L161.508 127.567C156.439 127.524 152.207 122.779 150.725 120.411L146.717 130.967Z" fill="#E2D393"/>
<path d="M179.678 119.176C177.316 119.092 171.525 118.242 167.255 115.511L161.508 127.567C163.076 127.512 166.7 127.311 168.647 126.948C172.925 124.737 176.622 121.988 179.678 119.176Z" fill="#E2D393"/>
<path d="M161.508 127.567L160.216 130.279C163.232 129.438 166.047 128.292 168.647 126.948C166.7 127.311 163.076 127.512 161.508 127.567Z" fill="#8C3838"/>
<circle cx="107.046" cy="87.748" r="5" transform="rotate(-19.2045 107.046 87.748)" fill="#F68E86"/>
<g filter="url(#filter0_d_250_201)">
<mask id="mask1_250_201" style="mask-type:alpha" maskUnits="userSpaceOnUse" x="0" y="173" width="360" height="210">
<path d="M45.7542 190.627C61.5084 211.445 93.9218 253.784 97.5419 256.604L128.212 239.984L163.408 256.604L193.073 249.553L245.363 271.714L285.587 251.064L313.743 253.582C325.642 238.305 345.391 206.738 347 201.5C348.609 196.262 351.665 175.347 352 173.5L360 268.188L270.503 382.011L32.6816 335.676L0 173L45.7542 190.627Z" fill="black"/>
</mask>
<g mask="url(#mask1_250_201)">
<ellipse cx="199.106" cy="198.733" rx="154.86" ry="154.92" fill="url(#paint3_radial_250_201)"/>
</g>
</g>
<path d="M230.26 143.362L230.26 147.5L235 147.5L235.407 143.352L261.139 141.713L253.997 134.179L251.21 126.239L255.963 127.024C252.124 121.073 244.445 108.455 244.439 105.595C244.434 102.987 245.314 104.142 245.872 105.269L240.059 92.8908L241.643 92.8877L236.879 86.1436L238.854 84.1535L232.494 71.0564L226.188 85.3701C226.32 85.6347 226.743 86.1635 227.377 86.1623C228.01 86.161 225.01 90.6692 223.431 92.9234C223.696 93.3202 224.304 94.1135 224.621 94.1129C224.938 94.1123 219.492 103.127 216.729 107.635C217.522 107.898 219.344 108.266 220.293 107.628C221.241 106.991 213.323 120.354 209.245 127.116L213.6 127.107C214.788 127.105 201.75 141.035 202.151 143.417C202.471 145.323 221.024 144.175 230.26 143.362Z" fill="#406E63"/>
<mask id="mask2_250_201" style="mask-type:alpha" maskUnits="userSpaceOnUse" x="44" y="42" width="310" height="310">
<circle cx="199" cy="196.511" r="154.5" fill="url(#paint4_linear_250_201)"/>
</mask>
<g mask="url(#mask2_250_201)">
<path d="M274.037 107.122C273.754 108.461 274.312 111.313 278.815 112.009C284.443 112.878 300.667 112.257 301.107 104.207C303.893 105.582 309.642 106.882 310.351 101.091C311.061 95.2996 307.993 95.9628 306.37 97.0183C306.932 94.8769 306.925 90.7424 302.408 91.3354C300.294 88.358 295.079 84.1641 291.133 91.2073C288.195 89.8316 282.146 88.2059 281.451 92.7085C278.806 89.1882 272.36 84.7119 267.733 94.9689C267.458 95.5028 267.229 96.7352 268.51 97.3941C264.981 100.844 261.145 107.619 274.037 107.122Z" fill="#CB942C"/>
<g clip-path="url(#clip0_250_201)">
<path d="M332.285 167.063L259.362 151.16L314.232 78.9991L332.285 167.063Z" fill="#3C3D78"/>
<path d="M322.131 164.849L259.362 151.16L314.232 78.9991L322.131 164.849Z" fill="#575884"/>
<path d="M316.17 100.308L314.204 78.9927L300.588 96.9101L308.526 96.0303L309.801 98.9191L316.17 100.308Z" fill="white"/>
<path d="M310.51 162.266L259.372 151.114L297.828 100.611L310.51 162.266Z" fill="#575884"/>
<path d="M303.31 160.696L259.372 151.114L297.782 100.601L303.31 160.696Z" fill="#575884"/>
<path d="M312.477 172.394C313.643 173.561 316.977 175.694 320.977 174.894C325.977 173.894 330.477 177.394 332.477 174.894C334.477 172.394 338.477 177.894 339.977 172.394C341.477 166.894 337.477 153.394 332.477 152.894C327.477 152.394 323.977 148.894 320.977 152.894C317.977 156.894 309.977 156.894 312.477 172.394Z" fill="#406E63"/>
<path d="M254.236 155.346C254.813 155.91 256.462 156.942 258.441 156.555C260.915 156.072 263.142 157.764 264.131 156.555C265.121 155.346 267.1 158.006 267.842 155.346C268.584 152.686 266.605 146.158 264.131 145.916C261.657 145.674 259.926 143.982 258.441 145.916C256.957 147.85 252.999 147.85 254.236 155.346Z" fill="#406E63"/>
</g>
<path d="M55.9461 134.371C55.6025 135.992 56.2786 139.447 61.7319 140.289C68.5485 141.342 88.1989 140.59 88.7317 130.841C92.1056 132.505 99.0684 134.08 99.9279 127.066C100.787 120.052 97.0717 120.855 95.1064 122.134C95.7862 119.54 95.778 114.533 90.307 115.251C87.7466 111.645 81.431 106.565 76.6516 115.096C73.0936 113.43 65.7671 111.461 64.9247 116.914C61.7215 112.65 53.9139 107.229 48.3099 119.652C47.9774 120.298 47.7003 121.791 49.252 122.589C44.9772 126.767 40.3311 134.973 55.9461 134.371Z" fill="#CB942C"/>
<path d="M39.616 187.364C41.649 188.64 47.068 190.584 52.481 188.152C59.2472 185.112 66.764 188.615 68.7893 184.421C70.8146 180.227 78.2712 186.729 78.6142 178.443C78.9573 170.157 68.9057 152.31 61.6529 153.223C54.4001 154.135 48.3014 150.307 45.3446 156.953C42.3878 163.599 31.0427 166.193 39.616 187.364Z" fill="#406E63"/>
</g>
<path d="M166.946 80.3705C166.602 81.9925 167.279 85.447 172.732 86.2893C179.549 87.3423 199.199 86.59 199.732 76.8409C203.106 78.5051 210.068 80.08 210.928 73.0661C211.787 66.0521 208.072 66.8554 206.106 68.1337C206.786 65.5402 206.778 60.5326 201.307 61.2509C198.747 57.6448 192.431 52.5653 187.652 61.0957C184.094 59.4296 176.767 57.4605 175.925 62.9138C172.721 58.6502 164.914 53.2287 159.31 65.6516C158.977 66.2982 158.7 67.7908 160.252 68.5889C155.977 72.7672 151.331 80.9731 166.946 80.3705Z" fill="#CB942C"/>
<path d="M171.477 157.394C172.643 158.561 175.977 160.694 179.977 159.894C184.977 158.894 189.477 162.394 191.477 159.894C193.477 157.394 197.477 162.894 198.977 157.394C200.477 151.894 196.477 138.394 191.477 137.894C186.477 137.394 182.977 133.894 179.977 137.894C176.977 141.894 168.977 141.894 171.477 157.394Z" fill="#406E63"/>
<path d="M156.228 163.452C157.094 164.109 159.46 165.202 161.998 164.322C165.171 163.221 168.421 165.102 169.502 163.291C170.583 161.481 173.686 164.711 174.172 160.988C174.658 157.265 170.838 148.815 167.531 148.936C164.223 149.058 161.626 147.088 160.027 149.967C158.428 152.846 153.208 153.562 156.228 163.452Z" fill="#355951"/>
<path fill-rule="evenodd" clip-rule="evenodd" d="M326.863 153.59C326.04 154.109 324.437 155.448 324.616 156.648C324.795 157.847 326.191 162.152 326.866 164.154C327.939 164.95 330.101 166.727 330.172 167.464C330.243 168.201 329.67 169.986 329.375 170.786C329.349 171.155 329.342 171.985 329.52 172.344C329.698 172.704 332.339 180.183 333.637 183.878C333.833 184.347 334.649 185.301 336.338 185.358C338.45 185.431 344.701 184.167 345.266 180.464L341.566 168.986C341.34 168.21 340.601 166.576 339.456 166.256C338.311 165.935 337.94 164.724 337.897 164.158C338.225 162.943 338.801 160.361 338.485 159.759C338.091 159.007 336.426 153.468 335.856 152.972C335.286 152.476 333.622 151.694 332.256 151.861C332.357 152.341 332.292 153.391 331.226 153.753C329.893 154.204 327.875 155.544 326.863 153.59ZM331.739 157.319C329.422 158.577 326.606 157.986 325.488 157.533C330.115 160.166 334.403 156.439 335.969 154.246L335.552 154.19C335.247 154.709 334.057 156.062 331.739 157.319ZM337.453 160.601C334.441 163.669 329.588 164.074 327.538 163.894C331.889 165.203 336.239 162.281 337.87 160.657L337.453 160.601ZM333.987 182.316C335.636 182.676 339.928 182.522 343.903 179.023C342.529 180.658 338.623 183.607 333.987 182.316Z" fill="#CA9999"/>
<path fill-rule="evenodd" clip-rule="evenodd" d="M331.226 153.753C332.292 153.391 332.357 152.341 332.256 151.861C332.033 151.062 331.387 149.367 330.59 148.98C330.453 148.914 330.29 148.884 330.109 148.881C328.975 148.867 327.15 149.949 326.767 150.079C326.411 150.199 326.249 150.779 326.212 151.054L326.863 153.59C327.875 155.544 329.893 154.204 331.226 153.753ZM326.938 150.381C327.07 150.632 327.538 151.077 328.361 150.851C329.388 150.569 330.541 149.883 330.387 149.443C330.35 149.337 330.324 149.268 330.306 149.225C330.296 149.223 330.286 149.22 330.276 149.218C330.266 149.168 330.264 149.125 330.306 149.225C330.587 149.298 331.061 149.569 330.93 150.145C330.794 150.742 330.108 151.178 329.783 151.321C328.943 151.605 327.184 152.037 326.861 151.49C326.538 150.943 326.778 150.523 326.938 150.381Z" fill="#8C3838"/>
<path d="M326.497 148.923L326.767 150.079C327.15 149.949 328.975 148.867 330.109 148.881C330.005 148.599 329.775 147.99 329.686 147.81C329.575 147.585 329.176 147.392 328.82 147.414C328.463 147.437 326.746 148.117 326.579 148.304C326.446 148.455 326.469 148.779 326.497 148.923Z" fill="#FFD382"/>
<path d="M328.361 150.851C327.538 151.077 327.07 150.632 326.938 150.381C326.778 150.523 326.538 150.943 326.861 151.49C327.184 152.037 328.943 151.605 329.783 151.321C330.108 151.178 330.794 150.742 330.93 150.145C331.061 149.569 330.587 149.298 330.306 149.225C330.324 149.268 330.35 149.337 330.387 149.443C330.541 149.883 329.388 150.569 328.361 150.851Z" fill="#FFD78D"/>
<path d="M325.488 157.533C326.606 157.986 329.422 158.577 331.739 157.319C334.057 156.062 335.247 154.709 335.552 154.19L335.969 154.246C334.403 156.439 330.115 160.166 325.488 157.533Z" fill="#FFDEA4"/>
<path d="M327.538 163.894C329.588 164.074 334.441 163.669 337.453 160.601L337.87 160.657C336.239 162.281 331.889 165.203 327.538 163.894Z" fill="#FFDEA4"/>
<path d="M333.987 182.316C335.636 182.676 339.928 182.522 343.903 179.023C342.529 180.658 338.623 183.607 333.987 182.316Z" fill="#FFDEA4"/>
<path d="M199.957 153.756C194.381 159.731 185.858 162.27 182.294 162.793C181.572 168.688 184.939 171.332 185.58 171.504C186.04 171.628 191.023 168.735 194.206 166.826C194.569 166.608 194.908 166.404 195.215 166.217C195.596 165.92 195.975 165.631 196.352 165.35C205.083 158.85 212.641 156.911 215.42 156.765C214.24 151.357 211.342 149.459 210.04 149.185C207.07 148.095 202.08 151.778 199.957 153.756Z" fill="#BEAD65"/>
<path d="M215.42 156.765C212.641 156.911 205.083 158.85 196.352 165.35C199.664 166.234 206.574 167.922 207.723 167.608C209.158 167.216 212.501 168.251 217.667 161.855C218.688 160.914 221.163 158.972 222.893 158.734C220.543 157.934 217.386 157.177 215.42 156.765Z" fill="#406E63"/>
<path d="M222.367 162.11C223.732 162.035 226.361 161.581 225.954 160.373C225.786 159.875 224.537 159.294 222.893 158.734C221.163 158.972 218.688 160.914 217.667 161.855C212.501 168.251 209.158 167.216 207.723 167.608C206.574 167.922 199.664 166.234 196.352 165.35C195.975 165.631 195.596 165.92 195.215 166.217C194.908 166.404 194.569 166.608 194.206 166.826C196.982 165.455 201.722 167.315 203.745 168.417C207.067 169.355 212.169 167.612 213.042 167.435C213.741 167.293 218.125 163.443 220.229 161.536L222.367 162.11Z" fill="#8C7438"/>
<path d="M319.696 180.732L304.08 165.228C300.687 164.777 299.418 168.273 299.207 170.078L314.622 185.969C315.998 186.422 318.578 182.667 319.696 180.732Z" fill="#AC9C9C"/>
<path d="M319.696 180.732C318.578 182.667 315.998 186.422 314.622 185.969C311.721 191.549 315.014 193.611 317.024 193.945C322.265 193.553 326.966 184.513 327.042 183.076C327.103 181.926 324.827 180.447 323.681 179.851L319.696 180.732Z" fill="#8C8686"/>
<path d="M299.207 170.078C299.418 168.273 300.687 164.777 304.08 165.228L306.032 160.829C305.64 159.86 304.446 157.871 302.803 157.673C300.748 157.425 295.78 156.646 291.662 167.795C292.599 169.759 295.421 172.966 299.207 170.078Z" fill="#8C8686"/>
<path d="M294.852 179.103L271.459 170.608C267.762 171.756 268.12 175.948 268.761 177.9L292.131 186.889C293.759 186.7 294.624 181.62 294.852 179.103Z" fill="#AC9C9C"/>
<path d="M294.852 179.103C294.624 181.62 293.759 186.7 292.131 186.889C291.804 193.994 296.164 194.546 298.385 193.935C303.579 191.043 304.11 179.53 303.505 178.019C303.021 176.81 299.982 176.373 298.523 176.306L294.852 179.103Z" fill="#8C8686"/>
<path d="M268.761 177.9C268.12 175.948 267.762 171.756 271.459 170.608L271.372 165.165C270.51 164.356 268.34 162.883 266.559 163.46C264.333 164.181 258.862 165.742 259.932 179.141C261.827 180.712 266.247 182.663 268.761 177.9Z" fill="#8C8686"/>
<defs>
<filter id="filter0_d_250_201" x="40.2461" y="173" width="317.721" height="188.652" filterUnits="userSpaceOnUse" color-interpolation-filters="sRGB">
<feFlood flood-opacity="0" result="BackgroundImageFix"/>
<feColorMatrix in="SourceAlpha" type="matrix" values="0 0 0 0 0 0 0 0 0 0 0 0 0 0 0 0 0 0 127 0" result="hardAlpha"/>
<feOffset dy="4"/>
<feGaussianBlur stdDeviation="2"/>
<feComposite in2="hardAlpha" operator="out"/>
<feColorMatrix type="matrix" values="0 0 0 0 0 0 0 0 0 0 0 0 0 0 0 0 0 0 0.25 0"/>
<feBlend mode="normal" in2="BackgroundImageFix" result="effect1_dropShadow_250_201"/>
<feBlend mode="normal" in="SourceGraphic" in2="effect1_dropShadow_250_201" result="shape"/>
</filter>
<linearGradient id="paint0_linear_250_201" x1="199" y1="42.0107" x2="199" y2="351.011" gradientUnits="userSpaceOnUse">
<stop stop-color="#FFAF16"/>
<stop offset="1" stop-color="#FDD69F"/>
</linearGradient>
<linearGradient id="paint1_linear_250_201" x1="198" y1="0" x2="198" y2="309" gradientUnits="userSpaceOnUse">
<stop stop-color="#FFA9A7"/>
<stop offset="1" stop-color="#FDD69F"/>
</linearGradient>
<linearGradient id="paint2_linear_250_201" x1="215" y1="147" x2="215" y2="434" gradientUnits="userSpaceOnUse">
<stop stop-color="#842C2A"/>
<stop offset="1" stop-color="#FFDCF9"/>
</linearGradient>
<radialGradient id="paint3_radial_250_201" cx="0" cy="0" r="1" gradientUnits="userSpaceOnUse" gradientTransform="translate(199.106 198.733) rotate(90) scale(154.92 154.86)">
<stop stop-color="#DECABA"/>
<stop offset="1" stop-color="#FF7974"/>
</radialGradient>
<linearGradient id="paint4_linear_250_201" x1="199" y1="42.0107" x2="199" y2="351.011" gradientUnits="userSpaceOnUse">
<stop stop-color="#FFAF16"/>
<stop offset="1" stop-color="#FDD69F"/>
</linearGradient>
<clipPath id="clip0_250_201">
<rect width="96.7446" height="96.7446" fill="white" transform="translate(267.613 61) rotate(12.3022)"/>
</clipPath>
</defs>
</svg>
