<svg width="339" height="339" viewBox="0 0 339 339" fill="none" xmlns="http://www.w3.org/2000/svg">
<circle cx="169.5" cy="169.5" r="167.5" stroke="white" stroke-width="4"/>
<circle cx="38.5" cy="275.5" r="8.5" fill="white"/>
<circle cx="285.5" cy="46.5" r="8.5" fill="white"/>
<path d="M44 299L46.0206 305.219H52.5595L47.2694 309.062L49.2901 315.281L44 311.438L38.7099 315.281L40.7306 309.062L35.4405 305.219H41.9794L44 299Z" fill="white"/>
<path d="M14.5 262L15.5103 265.109H18.7798L16.1347 267.031L17.145 270.141L14.5 268.219L11.855 270.141L12.8653 267.031L10.2202 265.109H13.4897L14.5 262Z" fill="white"/>
<path d="M4.5 86L5.51031 89.1094H8.77975L6.13472 91.0312L7.14503 94.1406L4.5 92.2188L1.85497 94.1406L2.86528 91.0312L0.220246 89.1094H3.48969L4.5 86Z" fill="white"/>
<path d="M312 43L313.572 47.8369H318.657L314.543 50.8262L316.114 55.6631L312 52.6738L307.886 55.6631L309.457 50.8262L305.343 47.8369H310.428L312 43Z" fill="white"/>
</svg>
