<svg width="402" height="874" viewBox="0 0 402 874" fill="none" xmlns="http://www.w3.org/2000/svg">
<g clip-path="url(#clip0_2731_207)">
<rect width="402" height="874" fill="url(#paint0_linear_2731_207)"/>
<path d="M683.959 785.956C706.243 932.84 546.204 1078.93 326.503 1112.26C106.801 1145.6 -89.3672 1053.54 -111.651 906.66C-133.935 759.776 26.1033 613.683 245.805 580.351C465.507 547.02 661.675 639.073 683.959 785.956Z" fill="url(#paint1_linear_2731_207)"/>
<ellipse cx="131.088" cy="746.633" rx="10.0371" ry="5.71813" transform="rotate(-13.3788 131.088 746.633)" fill="#575884" fill-opacity="0.5"/>
<ellipse cx="201.392" cy="733.561" rx="12.6745" ry="7.2206" transform="rotate(-16.7193 201.392 733.561)" fill="#575884" fill-opacity="0.5"/>
<ellipse cx="73.2036" cy="776.885" rx="29.6848" ry="16.9113" transform="rotate(-10.1661 73.2036 776.885)" fill="#575884" fill-opacity="0.5"/>
<ellipse cx="11.0531" cy="730.695" rx="29.6848" ry="16.9113" transform="rotate(-34.2876 11.0531 730.695)" fill="#575884" fill-opacity="0.5"/>
<ellipse cx="28.7194" cy="688.465" rx="11.0878" ry="6.31666" transform="rotate(-34.2876 28.7194 688.465)" fill="#575884" fill-opacity="0.5"/>
<ellipse cx="52.628" cy="673.117" rx="10.2155" ry="5.81976" transform="rotate(-21.175 52.628 673.117)" fill="#575884" fill-opacity="0.5"/>
<ellipse cx="140.628" cy="641.117" rx="10.2155" ry="5.81976" transform="rotate(-21.175 140.628 641.117)" fill="#575884" fill-opacity="0.5"/>
<ellipse cx="178.614" cy="632.378" rx="17.2312" ry="9.81657" transform="rotate(-21.175 178.614 632.378)" fill="#575884" fill-opacity="0.5"/>
<ellipse cx="383.798" cy="640.556" rx="8.51553" ry="4.85127" transform="rotate(31.138 383.798 640.556)" fill="#575884" fill-opacity="0.5"/>
<ellipse cx="403.071" cy="663.781" rx="15.7067" ry="8.94808" transform="rotate(31.138 403.071 663.781)" fill="#575884" fill-opacity="0.5"/>
<ellipse cx="67.5143" cy="664.565" rx="3.96733" ry="3.35877" transform="rotate(-21.175 67.5143 664.565)" fill="#575884" fill-opacity="0.5"/>
<ellipse cx="159" cy="700.404" rx="48.8828" ry="27.8484" transform="rotate(-13.3788 159 700.404)" fill="#575884" fill-opacity="0.5"/>
<path d="M-28.8632 802.927C-16.0298 812.26 20.5368 828.927 64.1368 820.927C118.637 810.927 199.137 766.927 396.637 802.927C554.637 831.727 467.137 958.927 403.637 1018.93C259.637 1033.09 -29.8632 1044.03 -35.8632 974.427C-43.3632 887.427 -59.8632 845.427 -51.8632 820.927C-45.4632 801.327 -33.8632 800.76 -28.8632 802.927Z" fill="#575884" fill-opacity="0.5"/>
<path d="M370.692 552.22L364.938 551.871C364.67 553.348 363.325 554.455 361.716 554.525L361.201 563.004C362.79 563.267 363.991 564.526 364.08 566.021L369.834 566.37C370.103 564.896 371.451 563.791 373.064 563.723L373.579 555.244C371.985 554.981 370.78 553.719 370.692 552.22Z" fill="#2979A7"/>
<path d="M373.259 549.392L362.731 548.754C361.54 550.781 359.298 552.112 356.825 552.257L355.806 569.065L377.68 570.391L378.699 553.584C376.262 553.141 374.197 551.549 373.259 549.392ZM373.815 564.11C373.803 564.31 373.624 564.458 373.408 564.444C371.926 564.355 370.646 565.399 370.563 566.774C370.551 566.975 370.371 567.122 370.155 567.109L363.672 566.716C363.456 566.703 363.296 566.535 363.308 566.334C363.391 564.959 362.255 563.768 360.773 563.678C360.557 563.665 360.397 563.497 360.409 563.297L360.964 554.141C360.976 553.94 361.155 553.793 361.372 553.806C362.854 553.896 364.126 552.844 364.209 551.468C364.221 551.268 364.401 551.12 364.617 551.133L371.1 551.527C371.316 551.54 371.476 551.708 371.464 551.908C371.381 553.284 372.524 554.482 374.006 554.572C374.222 554.585 374.383 554.753 374.371 554.954L373.815 564.11Z" fill="#D9F6FF"/>
<path d="M381.224 574.11C381.317 572.579 380.055 571.257 378.406 571.157L354.994 569.737C353.345 569.637 351.933 570.797 351.84 572.328L351.784 573.258L349.532 573.122L349.489 573.838L383.375 575.893L383.419 575.176L381.168 575.04L381.224 574.11Z" fill="#D9F6FF"/>
<path d="M379.885 549.764C381.578 549.866 383.033 548.671 383.128 547.099C383.224 545.527 381.924 544.165 380.231 544.062C378.537 543.96 377.082 545.155 376.986 546.727C376.891 548.298 378.191 549.661 379.885 549.764Z" fill="#67BEDB"/>
<path d="M355.915 551.548C358.709 551.717 361.185 550.235 362.265 548.007L373.811 548.707C374.614 551.049 376.893 552.82 379.687 552.989C383.307 553.209 386.397 550.663 386.6 547.311C386.804 543.958 384.043 541.058 380.424 540.838L356.342 539.385C352.868 539.326 349.936 541.816 349.738 545.075C349.535 548.428 352.303 551.329 355.915 551.548ZM380.274 543.346C382.393 543.474 384.02 545.179 383.9 547.146C383.781 549.113 381.96 550.609 379.841 550.48C377.722 550.352 376.095 548.647 376.214 546.68C376.334 544.713 378.155 543.217 380.274 543.346ZM356.499 541.904C358.618 542.033 360.245 543.737 360.125 545.705C360.006 547.672 358.185 549.167 356.066 549.039C353.947 548.91 352.32 547.206 352.439 545.239C352.559 543.271 354.38 541.776 356.499 541.904Z" fill="#D9F6FF"/>
<path d="M356.111 548.322C357.803 548.425 359.259 547.229 359.354 545.658C359.449 544.086 358.149 542.723 356.456 542.621C354.763 542.518 353.307 543.714 353.212 545.286C353.117 546.857 354.417 548.22 356.111 548.322Z" fill="#67BEDB"/>
<path d="M140.5 546L141.286 548.418H143.829L141.771 549.913L142.557 552.332L140.5 550.837L138.443 552.332L139.229 549.913L137.171 548.418H139.714L140.5 546Z" fill="#A0BDCB"/>
<path d="M166.5 537L167.286 539.418H169.829L167.771 540.913L168.557 543.332L166.5 541.837L164.443 543.332L165.229 540.913L163.171 539.418H165.714L166.5 537Z" fill="#A0BDCB"/>
<path d="M186.5 528L187.286 530.418H189.829L187.771 531.913L188.557 534.332L186.5 532.837L184.443 534.332L185.229 531.913L183.171 530.418H185.714L186.5 528Z" fill="#A0BDCB"/>
<path d="M204.5 510L205.286 512.418H207.829L205.771 513.913L206.557 516.332L204.5 514.837L202.443 516.332L203.229 513.913L201.171 512.418H203.714L204.5 510Z" fill="#A0BDCB"/>
<path d="M210.5 486L211.286 488.418H213.829L211.771 489.913L212.557 492.332L210.5 490.837L208.443 492.332L209.229 489.913L207.171 488.418H209.714L210.5 486Z" fill="#A0BDCB"/>
<path d="M232.5 489L233.286 491.418H235.829L233.771 492.913L234.557 495.332L232.5 493.837L230.443 495.332L231.229 492.913L229.171 491.418H231.714L232.5 489Z" fill="#A0BDCB"/>
<path d="M225.5 517L226.286 519.418H228.829L226.771 520.913L227.557 523.332L225.5 521.837L223.443 523.332L224.229 520.913L222.171 519.418H224.714L225.5 517Z" fill="#A0BDCB"/>
<rect x="252.147" y="536.521" width="4.91245" height="38.0715" transform="rotate(-4.63141 252.147 536.521)" fill="#D9F6FF"/>
<rect x="260.719" y="535.828" width="6.14057" height="38.0715" transform="rotate(-4.63141 260.719 535.828)" fill="#D9F6FF"/>
<rect x="271.734" y="534.935" width="4.91245" height="38.0715" transform="rotate(-4.63141 271.734 534.935)" fill="#D9F6FF"/>
<rect x="326.82" y="530.474" width="4.91245" height="38.0715" transform="rotate(-4.63141 326.82 530.474)" fill="#D9F6FF"/>
<rect x="315.802" y="531.366" width="6.14057" height="38.0715" transform="rotate(-4.63141 315.802 531.366)" fill="#D9F6FF"/>
<rect x="306.009" y="532.158" width="4.91245" height="38.0715" transform="rotate(-4.63141 306.009 532.158)" fill="#D9F6FF"/>
<rect x="294.992" y="533.052" width="4.91245" height="38.0715" transform="rotate(-4.63141 294.992 533.052)" fill="#D9F6FF"/>
<rect x="282.75" y="534.043" width="4.91245" height="38.0715" transform="rotate(-4.63141 282.75 534.043)" fill="#D9F6FF"/>
<rect x="247.882" y="529.475" width="85.9679" height="8.59679" transform="rotate(-4.63141 247.882 529.475)" fill="#2979A7"/>
<rect x="251.551" y="574.766" width="87.196" height="4.91245" transform="rotate(-4.63141 251.551 574.766)" fill="#2979A7"/>
<path d="M288.15 507.882L324.09 523.452L255.184 529.034L288.15 507.882Z" fill="#0F5065"/>
<path d="M49.0654 626.508L48.8859 626.081L90.2231 615.286L104.759 611.49L109.976 621.5L56.136 642.126L49.0654 626.508Z" fill="#527E97"/>
<path d="M31.0968 646.121L49.0654 626.508L56.136 642.126L35.4053 656.369L31.0968 646.121Z" fill="#527E97"/>
<path d="M82.3181 602.478L86.7653 610.658C87.1106 610.68 87.9229 610.774 88.4093 610.972C88.8956 611.169 88.9247 612.597 88.8785 613.287C88.8795 614.09 87.1877 614.332 86.3417 614.353C86.2851 614.562 86.194 614.771 86.0592 614.974C85.3182 616.09 84.0058 615.286 83.4422 614.745C83.3578 614.904 83.254 615.057 83.1297 615.201C82.4524 615.988 78.1562 611.765 77.9766 611.338C77.833 610.996 73.9317 609.856 71.9991 609.329C71.8743 608.993 71.7303 608.705 71.5729 608.503C71.4284 608.318 71.2726 608.206 71.11 608.195C71.0371 608.191 70.9475 608.176 70.8437 608.151C72.8269 602.68 76.6417 590.896 76.0347 587.534C75.5044 584.596 75.0452 581.382 75.0775 579.261C72.0431 581.637 65.5638 581.128 62.7035 580.577C62.3816 584.398 61.7719 589.142 61.6077 591.589C61.3301 595.725 64.5616 603.411 65.1001 604.692C65.6008 605.883 69.4695 607.83 70.8437 608.151C70.9475 608.176 71.0371 608.191 71.11 608.195C71.2726 608.206 71.4284 608.318 71.5729 608.503C71.7303 608.705 71.8743 608.993 71.9991 609.329C72.4895 610.651 72.6831 612.723 72.2279 613.252C71.5506 614.04 69.9757 612.692 69.1189 613.052C68.4334 613.34 67.2856 613.488 66.7973 613.526C66.2493 613.421 64.8961 613.32 63.8679 613.752C62.5827 614.293 60.151 613.305 59.5431 613.058C59.0567 612.861 57.1943 611.868 56.3239 611.397C55.1081 610.903 54.031 608.341 53.8514 607.914C53.6719 607.487 53.619 598.968 53.6883 597.933C53.7438 597.106 50.3061 586.291 48.5803 580.987C48.4973 581.19 48.1959 581.752 47.6541 582.382C47.1123 583.011 42.7199 586.633 40.5915 588.366C40.0434 588.261 38.7898 587.917 38.1598 587.378C37.3724 586.704 36.1851 582.681 35.8261 581.827C35.467 580.973 34.0595 574.028 33.7004 573.174C33.3414 572.32 28.4251 561.825 27.8865 560.545C27.4557 559.52 26.4558 553.944 26.0098 551.284L24.8225 547.261C24.7786 547.126 24.7302 546.978 24.678 546.819C25.7761 547.865 28.08 550.213 28.5108 551.238C29.0494 552.519 32.3787 555.641 32.9172 556.922C33.4558 558.203 35.6793 562.293 36.2873 562.54C36.7142 562.713 40.2782 562.559 43.166 562.114C44.3904 561.925 45.4932 561.684 46.1837 561.394C48.5029 560.419 53.1052 556.976 54.9983 556.683C56.5128 556.448 58.4392 556.074 59.213 555.916C60.0976 556.923 62.2099 558.843 64.0953 559.135C64.5679 560.311 63.8516 565.483 63.41 568.074C63.3782 568.143 63.3679 568.197 63.3828 568.232C63.3917 568.181 63.4008 568.128 63.41 568.074C63.6836 567.48 65.5463 565.763 66.5439 564.893C66.241 564.773 66.0512 564.075 65.9817 563.622C66.1708 562.873 66.4771 561.203 66.1898 560.52C65.9026 559.837 65.0202 559.337 64.6149 559.172C64.4445 559.175 64.2708 559.162 64.0953 559.135C62.2099 558.843 60.0976 556.923 59.213 555.916C58.4392 556.074 56.5128 556.448 54.9983 556.683C53.1052 556.976 48.5029 560.419 46.1837 561.394C45.4932 561.684 44.3904 561.925 43.166 562.114C40.2782 562.559 36.7142 562.713 36.2873 562.54C35.6793 562.293 33.4558 558.203 32.9172 556.922C32.3787 555.641 29.0494 552.519 28.5108 551.238C28.08 550.213 25.7761 547.865 24.678 546.819C24.0476 544.901 22.8623 541.4 22.1991 539.822C21.3015 537.687 23.264 536.36 24.1902 534.965C25.1164 533.571 34.0435 530.823 35.7571 530.102C37.4707 529.382 39.1436 526.166 39.2129 525.132C39.6182 525.297 40.6001 525.554 41.2856 525.266C42.1424 524.906 40.4574 522.097 40.2779 521.67C40.0983 521.243 42.3097 519.308 42.1302 518.881C41.9507 518.454 44.3416 516.946 44.77 516.766C45.1984 516.586 47.5893 515.079 48.0177 514.898C48.4461 514.718 51.5551 514.919 52.4119 514.558C53.0974 514.27 54.9078 514.849 55.7273 515.174C55.7996 515.386 55.8493 515.54 55.88 515.613C56.0237 515.955 55.6352 518.228 55.4231 519.322C55.5794 520.094 55.964 521.808 56.2513 522.491C56.496 523.073 55.8617 525.046 55.3607 526.369C54.3887 525.256 48.0829 529.443 47.3362 531.264C46.7389 532.721 48.5698 534.598 49.5599 535.354L49.3538 550.452C48.3559 550.615 47.6125 550.744 47.483 550.798C47.1853 550.923 43.8859 550.855 41.6958 550.719C40.7338 550.659 39.9858 550.586 39.8003 550.511L38.4049 549.59C38.6674 549.815 39.3139 550.314 39.8003 550.511C39.9858 550.586 40.7338 550.659 41.6958 550.719C43.8859 550.855 47.1853 550.923 47.483 550.798C47.6125 550.744 48.3559 550.615 49.3538 550.452C51.6566 550.075 55.3146 549.516 55.9123 549.264C56.286 549.107 57.5691 549.165 58.9485 549.291C60.0995 549.397 61.3175 549.55 62.1304 549.665C62.8213 549.71 64.6535 549.911 66.4552 550.359C68.257 550.808 71.3784 552.477 72.714 553.255C73.2389 553.704 74.4822 554.823 75.2558 555.704C76.0294 556.584 76.0106 557.899 75.9045 558.446C77.9038 557.605 81.9741 556.095 82.2614 556.778C82.5486 557.461 86.3604 557.734 88.2304 557.786C93.5222 559.581 89.6216 574.285 90.1601 575.566C90.591 576.59 85.1116 593.934 82.3181 602.478Z" fill="#74B4D7"/>
<path d="M55.9123 549.264C55.3146 549.516 51.6566 550.075 49.3538 550.452L49.5599 535.354C48.5698 534.598 46.7389 532.721 47.3362 531.264C48.0829 529.443 54.3887 525.256 55.3607 526.369C55.2737 526.598 55.1907 526.808 55.117 526.988C55.8613 527.79 57.0693 529.11 57.9386 530.102C58.3009 531.364 58.89 534.044 58.3482 534.674C58.1892 534.858 58.0962 535.076 58.0485 535.302C57.9338 535.847 58.0826 536.44 58.2095 536.742L58.9485 549.291C57.5691 549.165 56.286 549.107 55.9123 549.264Z" fill="#527E97"/>
<path d="M65.1048 536.355C66.4529 538.602 63.6835 546.165 62.1304 549.665C61.3175 549.55 60.0995 549.397 58.9485 549.291L58.2095 536.742C58.0826 536.44 57.9338 535.847 58.0485 535.302C58.0962 535.076 58.1892 534.858 58.3482 534.674C58.89 534.044 58.3009 531.364 57.9386 530.102C58.5053 530.749 58.9282 531.257 58.9848 531.391C59.1284 531.733 61.0711 532.357 62.0244 532.626C62.4896 532.933 63.7568 534.108 65.1048 536.355Z" fill="#527E97"/>
<path d="M41.4694 510.115C45.3944 507.46 50.5067 508.828 52.6895 510.422C54.4987 511.744 55.3774 514.147 55.7273 515.174C54.9078 514.849 53.0974 514.27 52.4119 514.558C51.5551 514.919 48.4461 514.718 48.0177 514.898C47.5893 515.079 45.1984 516.586 44.77 516.766C44.3416 516.946 41.9507 518.454 42.1302 518.881C42.3097 519.308 40.0983 521.243 40.2779 521.67C40.4574 522.097 42.1424 524.906 41.2856 525.266C40.6001 525.554 39.6182 525.297 39.2129 525.132C39.2823 524.098 38.6744 523.851 37.8869 523.177C37.257 522.638 37.2111 518.772 37.2668 516.906C37.3594 515.527 38.3294 512.239 41.4694 510.115Z" fill="#527E97"/>
<path d="M65.1001 604.692C64.5616 603.411 61.3301 595.725 61.6077 591.589C61.7719 589.142 62.3816 584.398 62.7035 580.577C65.5638 581.128 72.0431 581.637 75.0775 579.261C75.0452 581.382 75.5044 584.596 76.0347 587.534C76.6417 590.896 72.8269 602.68 70.8437 608.151C69.4695 607.83 65.6008 605.883 65.1001 604.692Z" fill="#5A70B0"/>
<path d="M36.3482 592.662C36.5473 592.176 39.26 589.595 40.5915 588.366C42.7199 586.633 47.1123 583.011 47.6541 582.382C48.1959 581.752 48.4973 581.19 48.5803 580.987C50.3061 586.291 53.7438 597.106 53.6883 597.933C53.619 598.968 53.6719 607.487 53.8514 607.914C54.031 608.341 55.1081 610.903 56.3239 611.397C57.1943 611.868 59.0567 612.861 59.5431 613.058C60.151 613.305 62.5827 614.293 63.8679 613.752C64.8961 613.32 66.2493 613.421 66.7973 613.526C67.2856 613.488 68.4334 613.34 69.1189 613.052C69.9757 612.692 71.5506 614.04 72.2279 613.252C72.6831 612.723 72.4895 610.651 71.9991 609.329C73.9317 609.856 77.833 610.996 77.9766 611.338C78.1562 611.765 82.4524 615.988 83.1297 615.201C83.254 615.057 83.3578 614.904 83.4422 614.745C84.0058 615.286 85.3182 616.09 86.0592 614.974C86.194 614.771 86.2851 614.562 86.3417 614.353C87.1877 614.332 88.8795 614.09 88.8785 613.287L90.2231 615.286L48.8859 626.081L49.0654 626.508L31.0968 646.121C31.037 645.979 30.9671 645.573 31.1662 645.087C31.4151 644.48 31.154 639.063 31.2234 638.029C31.2927 636.995 34.0427 636.341 34.5404 635.127C35.0382 633.913 35.9522 626.494 36.3398 623.818C36.7275 621.143 34.2428 611.636 32.4476 607.366C30.6524 603.096 36.0994 593.269 36.3482 592.662Z" fill="#5A70B0"/>
<path d="M62.1304 549.665C62.8213 549.71 64.6535 549.911 66.4552 550.359C68.257 550.808 71.3784 552.477 72.714 553.255C73.2389 553.704 74.4822 554.823 75.2558 555.704C76.0294 556.584 76.0106 557.899 75.9045 558.446C77.9038 557.605 81.9741 556.095 82.2614 556.778C82.5486 557.461 86.3604 557.734 88.2304 557.786C93.5222 559.581 89.6216 574.285 90.1601 575.566C90.591 576.59 85.1116 593.934 82.3181 602.478L86.7653 610.658C87.1106 610.68 87.9229 610.774 88.4093 610.972C88.8956 611.169 88.9247 612.597 88.8785 613.287M62.1304 549.665C63.6835 546.165 66.4529 538.602 65.1048 536.355C63.7568 534.108 62.4896 532.933 62.0244 532.626C61.0711 532.357 59.1284 531.733 58.9848 531.391C58.9282 531.257 58.5053 530.749 57.9386 530.102M62.1304 549.665C61.3175 549.55 60.0995 549.397 58.9485 549.291M39.2129 525.132C39.2823 524.098 38.6744 523.851 37.8869 523.177C37.257 522.638 37.2111 518.772 37.2668 516.906C37.3594 515.527 38.3294 512.239 41.4694 510.115C45.3944 507.46 50.5067 508.828 52.6895 510.422C54.4987 511.744 55.3774 514.147 55.7273 515.174M39.2129 525.132C39.1436 526.166 37.4707 529.382 35.7571 530.102C34.0435 530.823 25.1164 533.571 24.1902 534.965C23.264 536.36 21.3015 537.687 22.1991 539.822C22.8623 541.4 24.0476 544.901 24.678 546.819M39.2129 525.132C39.6182 525.297 40.6001 525.554 41.2856 525.266C42.1424 524.906 40.4574 522.097 40.2779 521.67C40.0983 521.243 42.3097 519.308 42.1302 518.881C41.9507 518.454 44.3416 516.946 44.77 516.766C45.1984 516.586 47.5893 515.079 48.0177 514.898C48.4461 514.718 51.5551 514.919 52.4119 514.558C53.0974 514.27 54.9078 514.849 55.7273 515.174M40.5915 588.366C40.0434 588.261 38.7898 587.917 38.1598 587.378C37.3724 586.704 36.1851 582.681 35.8261 581.827C35.467 580.973 34.0595 574.028 33.7004 573.174C33.3414 572.32 28.4251 561.826 27.8865 560.545C27.4557 559.52 26.4558 553.944 26.0098 551.284L24.8225 547.261C24.7786 547.126 24.7302 546.978 24.678 546.819M40.5915 588.366C39.26 589.595 36.5473 592.176 36.3482 592.662C36.0993 593.269 30.6524 603.096 32.4476 607.366C34.2428 611.636 36.7275 621.143 36.3398 623.818C35.9522 626.494 35.0382 633.913 34.5404 635.127M40.5915 588.366C42.7199 586.633 47.1123 583.011 47.6541 582.382C48.1959 581.752 48.4973 581.19 48.5803 580.987M34.5404 635.127C34.0427 636.341 31.2927 636.995 31.2234 638.029C31.154 639.063 31.4151 644.48 31.1662 645.087C30.9671 645.573 31.037 645.979 31.0968 646.121M34.5404 635.127C36.9545 633.274 42.0951 628.634 43.3452 624.893M31.0968 646.121L49.0654 626.508M31.0968 646.121L35.4053 656.369L56.136 642.126M49.0654 626.508L48.8859 626.081L90.2231 615.286M49.0654 626.508L56.136 642.126M105.668 611.253L104.759 611.49M104.759 611.49L109.976 621.5L56.136 642.126M104.759 611.49L90.2231 615.286M90.2231 615.286L88.8785 613.287M88.8785 613.287C88.8795 614.09 87.1877 614.332 86.3417 614.353M39.8003 550.511C39.3139 550.314 38.6674 549.815 38.4049 549.59L39.8003 550.511ZM39.8003 550.511C39.9858 550.586 40.7338 550.659 41.6958 550.719M41.6958 550.719C43.8859 550.855 47.1853 550.923 47.483 550.798C47.6125 550.744 48.3559 550.615 49.3538 550.452M41.6958 550.719C41.3008 549.545 40.317 546.877 39.5415 545.595C38.7661 544.313 37.4026 542.81 36.8178 542.218C36.233 541.626 35.0773 540.237 35.1328 539.409M49.3538 550.452C51.6566 550.075 55.3146 549.516 55.9123 549.264C56.286 549.107 57.5691 549.165 58.9485 549.291M49.3538 550.452L49.5599 535.354C48.5698 534.598 46.7389 532.721 47.3362 531.264M47.3362 531.264C48.0829 529.443 54.3887 525.256 55.3607 526.369M47.3362 531.264L43.0808 529.536L42.1832 527.401M55.3607 526.369C55.2737 526.598 55.1907 526.808 55.117 526.988C55.8613 527.79 57.0693 529.11 57.9386 530.102M55.3607 526.369C55.8617 525.046 56.496 523.073 56.2513 522.491C55.964 521.808 55.5794 520.094 55.4231 519.322C55.6352 518.228 56.0237 515.955 55.88 515.613C55.8493 515.54 55.7996 515.386 55.7273 515.174M57.9386 530.102C58.3009 531.364 58.89 534.044 58.3482 534.674C58.1892 534.858 58.0962 535.076 58.0485 535.302M58.9485 549.291L58.2095 536.742C58.0826 536.44 57.9338 535.847 58.0485 535.302M58.0485 535.302C57.803 535.07 57.2401 534.436 56.9528 533.753M24.678 546.819C25.7761 547.865 28.08 550.213 28.5108 551.238C29.0494 552.519 32.3787 555.641 32.9172 556.922C33.4558 558.203 35.6793 562.293 36.2873 562.54C36.7142 562.713 40.2782 562.559 43.166 562.114M59.213 555.916C58.4392 556.074 56.5128 556.448 54.9983 556.683C53.1052 556.976 48.5029 560.419 46.1837 561.394C45.4932 561.684 44.3903 561.925 43.166 562.114M59.213 555.916L59.2824 554.882M59.213 555.916C60.0976 556.923 62.2099 558.843 64.0953 559.135M67.9728 558.765C68.1523 559.192 68.5832 560.217 68.8704 560.9C69.2294 561.754 67.626 563.936 66.9487 564.723C66.7969 564.899 66.6618 564.94 66.5439 564.893M67.626 563.936C67.8653 564.505 68.4297 565.608 68.7724 565.464C68.9463 565.39 69.4547 564.928 69.9902 564.308M70.2944 558.292C70.6765 558.801 71.4629 560.112 71.551 561.281C71.6164 562.149 70.7743 563.398 69.9902 564.308M69.9902 564.308C70.3119 565.224 71.0907 566.901 71.6325 566.271C72.3098 565.484 74.9091 560.874 74.1909 559.166C73.4727 557.458 72.6159 557.818 72.2569 556.964C71.8978 556.11 71.1798 554.402 71.0002 553.975M48.5803 580.987C48.5721 576.971 48.777 568.745 49.6616 567.971M48.5803 580.987C50.3061 586.291 53.7438 597.106 53.6883 597.933C53.619 598.968 53.6719 607.487 53.8514 607.914C54.031 608.341 55.1081 610.903 56.3239 611.397C57.1943 611.868 59.0567 612.861 59.5431 613.058C60.151 613.305 62.5827 614.293 63.8679 613.752C64.8961 613.32 66.2493 613.421 66.7973 613.526C67.2856 613.488 68.4334 613.34 69.1189 613.052C69.9757 612.692 71.5506 614.04 72.2279 613.252C72.6831 612.723 72.4895 610.651 71.9991 609.329M62.7176 575.044C63.0109 575.741 62.9258 577.939 62.7035 580.577M70.8437 608.151C70.9475 608.176 71.0371 608.191 71.11 608.195C71.2726 608.206 71.4284 608.318 71.5729 608.503C71.7303 608.705 71.8743 608.993 71.9991 609.329M70.8437 608.151C69.4695 607.83 65.6008 605.883 65.1001 604.692C64.5616 603.411 61.3301 595.725 61.6077 591.589C61.7719 589.142 62.3816 584.398 62.7035 580.577M70.8437 608.151C72.8269 602.68 76.6417 590.896 76.0347 587.534C75.5044 584.596 75.0452 581.382 75.0775 579.261M79.1765 568.626C78.181 571.055 76.0372 576.177 75.4263 577.238C75.1965 577.637 75.0914 578.348 75.0775 579.261M71.9991 609.329C73.9317 609.856 77.833 610.996 77.9766 611.338C78.1562 611.765 82.4524 615.988 83.1297 615.201C83.254 615.057 83.3578 614.904 83.4422 614.745M83.5173 612.526C83.8105 613.223 83.818 614.04 83.4422 614.745M83.4422 614.745C84.0058 615.286 85.3182 616.09 86.0592 614.974C86.194 614.771 86.2851 614.562 86.3417 614.353M85.8389 612.052C86.1515 612.469 86.5958 613.413 86.3417 614.353M62.7035 580.577C65.5638 581.128 72.0431 581.637 75.0775 579.261M66.5439 564.893C66.241 564.773 66.0512 564.075 65.9817 563.622C66.1708 562.873 66.4771 561.203 66.1898 560.52C65.9026 559.837 65.0202 559.337 64.6149 559.172C64.4445 559.175 64.2708 559.162 64.0953 559.135M66.5439 564.893C65.5463 565.763 63.6836 567.48 63.41 568.074M63.3828 568.232L63.4235 570.727M63.3828 568.232C63.3679 568.197 63.3782 568.143 63.41 568.074M63.3828 568.232C63.3917 568.181 63.4008 568.128 63.41 568.074M64.0953 559.135C64.5679 560.311 63.8516 565.483 63.41 568.074M43.166 562.114C42.3187 564.495 40.5745 569.38 40.3754 569.865C40.1265 570.472 38.4537 573.688 37.7764 574.475" stroke="#41A9E5" stroke-opacity="0.7"/>
</g>
<defs>
<linearGradient id="paint0_linear_2731_207" x1="201" y1="0" x2="201" y2="874" gradientUnits="userSpaceOnUse">
<stop stop-color="#066893"/>
<stop offset="1" stop-color="#999999"/>
</linearGradient>
<linearGradient id="paint1_linear_2731_207" x1="351.5" y1="573" x2="111.5" y2="813.5" gradientUnits="userSpaceOnUse">
<stop stop-color="#BDD7DF"/>
<stop offset="1" stop-color="#4F66AA"/>
</linearGradient>
<clipPath id="clip0_2731_207">
<rect width="402" height="874" fill="white"/>
</clipPath>
</defs>
</svg>
