<svg width="311" height="313" viewBox="0 0 311 313" fill="none" xmlns="http://www.w3.org/2000/svg">
<circle cx="155" cy="154.5" r="154.5" fill="url(#paint0_linear_3505_133)" style=""/>
<mask id="mask0_3505_133" style="mask-type:alpha" maskUnits="userSpaceOnUse" x="0" y="0" width="310" height="309">
<circle cx="155" cy="154.5" r="154.5" fill="url(#paint1_linear_3505_133)" style=""/>
</mask>
<g mask="url(#mask0_3505_133)">
<path d="M89.5 107.5L69.5 112C73.6667 128.5 82.1 161.5 82.5 161.5C82.9 161.5 91.3333 159.069 95.5 157.854L89.5 107.5Z" fill="#EFBC94" style="fill:#EFBC94;fill:color(display-p3 0.9373 0.7373 0.5804);fill-opacity:1;"/>
<path d="M69.5 112L89.5 107.5L92 106.5L89.5 82.5L86.5 83.2377L62 89.2623L59 90L66 112.5L69.5 112Z" fill="#CEA889" style="fill:#CEA889;fill:color(display-p3 0.8097 0.6573 0.5378);fill-opacity:1;"/>
<path d="M60.5 83.5L85.5 78L73.5 58L65 60.5L60.5 83.5Z" fill="#EFBC94" style="fill:#EFBC94;fill:color(display-p3 0.9373 0.7373 0.5804);fill-opacity:1;"/>
<path d="M65 60.5L73.5 58L73 55.5L66 46L64 58L65 60.5Z" fill="#5B5F5A" style="fill:#5B5F5A;fill:color(display-p3 0.3569 0.3725 0.3529);fill-opacity:1;"/>
<path d="M79 162L74.25 150.5C73.0651 150.881 71.8113 151.287 70.5 151.713C68.6083 152.328 66.5968 152.987 64.5 153.678C63.4114 154.037 62.4169 154.287 61.4079 154.54C60.3322 154.811 59.2401 155.085 58 155.5C56.1922 156.105 54.3529 156.724 52.5 157.352C51.2087 157.789 49.7435 158.38 48.2474 159C46.0857 159.896 43.8595 160.854 42 161.5C40.8502 161.899 39.8244 162.207 38.8133 162.511C37.7361 162.834 36.6757 163.153 35.5 163.571C33.9658 164.118 32.4619 164.658 31 165.189C19.5787 169.339 10.7191 172.927 10 174.269C15.8944 180.441 21.089 184.814 22.5 183C23.3087 181.96 26.8898 180.228 32 178.158C30.8333 175.374 29.1 169.445 31.5 168C33.9 166.555 36.5274 172.731 37.5411 176C39.1237 175.404 40.7843 174.792 42.5 174.172C41.5 171.781 40 166.4 42 164C44 161.6 46.1667 168.711 47 172.567C47.6622 172.334 48.3293 172.101 49 171.867C47.6667 169.102 45.7 163.157 48.5 161.5C51.3 159.843 52.6667 166.801 53 170.487C53.6657 170.259 54.3327 170.032 55 169.806C54.3333 166.908 53.3 160.689 54.5 159C55.7 157.311 58.6667 164.38 60 168.126C60.6695 167.903 61.3366 167.682 62 167.462C60.8333 164.87 59.1 159.148 61.5 157C63.9 154.852 65.8333 162.096 66.5 165.986C67.5171 165.655 68.5186 165.33 69.5 165.013C68.6667 162.01 67.4 155.802 69 155C70.6 154.198 73.4433 160.241 74.6649 163.362C76.2013 162.875 77.654 162.419 79 162Z" fill="#F0CCB0" style="fill:#F0CCB0;fill:color(display-p3 0.9426 0.8008 0.6896);fill-opacity:1;"/>
<path d="M28 138.5C24.3585 140.155 26.8333 147.258 28.5 150.338C30.956 149.555 33.4622 148.776 35.9712 148.013C35.7141 147.276 35.4732 146.445 35.2238 145.584C33.9994 141.359 32.5693 136.423 28 138.5Z" fill="#5B5F5A" style="fill:#5B5F5A;fill:color(display-p3 0.3569 0.3725 0.3529);fill-opacity:1;"/>
<path d="M48.2474 144C47.8783 142.992 47.5869 141.817 47.2918 140.627C46.2546 136.444 45.1711 132.075 40.5 134.096C38.6644 134.89 39.6667 142.467 40.5 146.652C42.6975 145.999 46.1225 144.611 48.2474 144Z" fill="#5B5F5A" style="fill:#5B5F5A;fill:color(display-p3 0.3569 0.3725 0.3529);fill-opacity:1;"/>
<path d="M35.5 163.571C34.8333 159.763 32.8 152.717 30 155C27.2 157.283 29.5 162.744 31 165.189C32.4619 164.658 33.9658 164.118 35.5 163.571Z" fill="#5B5F5A" style="fill:#5B5F5A;fill:color(display-p3 0.3569 0.3725 0.3529);fill-opacity:1;"/>
<path d="M58 155.5C57.8245 155.017 57.6491 154.51 57.4704 153.994C56.1217 150.097 54.5906 145.673 51.5 146.998C48.4093 148.322 50.8333 154.567 52.5 157.352C54.3529 156.724 56.1922 156.105 58 155.5Z" fill="#5B5F5A" style="fill:#5B5F5A;fill:color(display-p3 0.3569 0.3725 0.3529);fill-opacity:1;"/>
<path d="M70.5 151.713C68.8333 147.309 65 139.4 63 143C61 146.6 63.1667 151.619 64.5 153.678C66.5968 152.987 68.6083 152.328 70.5 151.713Z" fill="#5B5F5A" style="fill:#5B5F5A;fill:color(display-p3 0.3569 0.3725 0.3529);fill-opacity:1;"/>
<path d="M37.5411 176C36.5274 172.731 33.9 166.555 31.5 168C29.1 169.445 30.8333 175.374 32 178.158C33.6941 177.471 35.5562 176.748 37.5411 176Z" fill="#5B5F5A" style="fill:#5B5F5A;fill:color(display-p3 0.3569 0.3725 0.3529);fill-opacity:1;"/>
<path d="M47 172.567C46.1667 168.711 44 161.6 42 164C40 166.4 41.5 171.781 42.5 174.172C43.9646 173.642 45.4694 173.106 47 172.567Z" fill="#5B5F5A" style="fill:#5B5F5A;fill:color(display-p3 0.3569 0.3725 0.3529);fill-opacity:1;"/>
<path d="M53 170.487C52.6667 166.801 51.3 159.843 48.5 161.5C45.7 163.157 47.6667 169.102 49 171.867C50.322 171.407 51.6583 170.946 53 170.487Z" fill="#5B5F5A" style="fill:#5B5F5A;fill:color(display-p3 0.3569 0.3725 0.3529);fill-opacity:1;"/>
<path d="M60 168.126C58.6667 164.38 55.7 157.311 54.5 159C53.3 160.689 54.3333 166.908 55 169.806C56.6707 169.239 58.343 168.678 60 168.126Z" fill="#5B5F5A" style="fill:#5B5F5A;fill:color(display-p3 0.3569 0.3725 0.3529);fill-opacity:1;"/>
<path d="M66.5 165.986C65.8333 162.096 63.9 154.852 61.5 157C59.1 159.148 60.8333 164.87 62 167.462C63.5236 166.959 65.0282 166.465 66.5 165.986Z" fill="#5B5F5A" style="fill:#5B5F5A;fill:color(display-p3 0.3569 0.3725 0.3529);fill-opacity:1;"/>
<path d="M74.6649 163.362C73.4433 160.241 70.6 154.198 69 155C67.4 155.802 68.6667 162.01 69.5 165.013C71.2983 164.434 73.0291 163.88 74.6649 163.362Z" fill="#5B5F5A" style="fill:#5B5F5A;fill:color(display-p3 0.3569 0.3725 0.3529);fill-opacity:1;"/>
<path fill-rule="evenodd" clip-rule="evenodd" d="M62 140.596L69.5 139L74.25 150.5C73.0651 150.881 71.8113 151.287 70.5 151.713C68.8333 147.309 65 139.4 63 143C61 146.6 63.1667 151.619 64.5 153.678C63.4114 154.037 62.4169 154.287 61.4079 154.54C60.3322 154.811 59.2401 155.085 58 155.5C57.8245 155.017 57.6491 154.51 57.4704 153.994C56.1217 150.097 54.5906 145.673 51.5 146.998C48.4093 148.322 50.8333 154.567 52.5 157.352C51.2087 157.789 49.7435 158.38 48.2474 159L46 153.5C45.3333 149.833 44.3 149.8 41.5 151C38.7659 152.172 40.7357 157.853 41.9161 161.258C41.9445 161.34 41.9725 161.421 42 161.5C40.8502 161.899 39.8244 162.207 38.8133 162.511C37.7361 162.834 36.6757 163.153 35.5 163.571C34.8333 159.763 32.8 152.717 30 155C27.2 157.283 29.5 162.744 31 165.189C19.5787 169.339 10.7191 172.927 10 174.269C6.53289 170.638 3.32368 166.482 0 162.5C1.10752 159.8 13.9188 154.989 28.5 150.338C30.956 149.555 33.4622 148.776 35.9712 148.013C37.4833 147.553 38.9963 147.098 40.5 146.652C42.6975 145.999 46.1225 144.611 48.2474 144C49.4053 143.667 50.2135 143.543 51.0126 143.42C51.7577 143.306 52.4948 143.192 53.5 142.912C55.6119 142.324 57.625 141.772 59.5 141.265C60.364 141.032 61.1986 140.809 62 140.596Z" fill="#EFBC94" style="fill:#EFBC94;fill:color(display-p3 0.9373 0.7373 0.5804);fill-opacity:1;"/>
<path d="M46 153.5C45.3333 149.833 44.3 149.8 41.5 151C38.7659 152.172 40.7357 157.853 41.9161 161.258L42 161.5C43.8595 160.854 46.0857 159.896 48.2474 159L46 153.5Z" fill="#5B5F5A" style="fill:#5B5F5A;fill:color(display-p3 0.3569 0.3725 0.3529);fill-opacity:1;"/>
<path fill-rule="evenodd" clip-rule="evenodd" d="M13 143.596C23 137.762 46 126.296 58 127.096L62 140.596C61.1986 140.809 60.364 141.032 59.5 141.265C57.5 131.259 56.5 128.5 52.5 130C50.7606 130.87 50.9121 131.534 52.6256 139.049L52.6258 139.05C52.8825 140.176 53.1743 141.455 53.5 142.912C52.4948 143.192 51.7577 143.306 51.0126 143.42C50.2135 143.543 49.4053 143.667 48.2474 144C47.8783 142.992 47.5869 141.817 47.2918 140.627C46.2546 136.444 45.1711 132.075 40.5 134.096C38.6644 134.89 39.6667 142.467 40.5 146.652C38.9963 147.098 37.4833 147.553 35.9712 148.013C35.7141 147.276 35.4732 146.445 35.2238 145.584C33.9994 141.359 32.5693 136.423 28 138.5C24.3585 140.155 26.8333 147.258 28.5 150.338C13.9188 154.989 1.10752 159.8 0 162.5C-2.23888 159.818 -4.30283 157.259 -6 155.096L13 143.596Z" fill="#FACEAB" style="fill:#FACEAB;fill:color(display-p3 0.9811 0.8064 0.6693);fill-opacity:1;"/>
<path d="M53.5 142.912C55.6119 142.324 57.625 141.772 59.5 141.265C57.5 131.259 56.5 128.5 52.5 130C50.7606 130.87 50.9121 131.534 52.6256 139.049L52.6258 139.05C52.8825 140.176 53.1743 141.455 53.5 142.912Z" fill="#5B5F5A" style="fill:#5B5F5A;fill:color(display-p3 0.3569 0.3725 0.3529);fill-opacity:1;"/>
<path d="M60.5 83.5L62 89.2623L86.5 83.2377L85.5 78L60.5 83.5Z" fill="#5B5F5A" style="fill:#5B5F5A;fill:color(display-p3 0.3569 0.3725 0.3529);fill-opacity:1;"/>
</g>
<path d="M303.798 116.285L263.367 103.073L259.286 118.481L306.115 134.297C305.337 127.627 304.502 121.257 303.798 116.285Z" fill="#D5AC6B" style="fill:#D5AC6B;fill:color(display-p3 0.8344 0.6754 0.4186);fill-opacity:1;"/>
<path d="M306.115 134.297L259.286 118.481L255.3 133.531L270.285 139.61C272.49 133.005 274.959 127.944 277.236 128.146C283.233 128.678 286.733 128.696 286.197 135.693C286.112 136.798 285.816 138.35 285.372 140.189L307.812 150.806C307.357 145.508 306.756 139.8 306.115 134.297Z" fill="#EAC384" style="fill:#EAC384;fill:color(display-p3 0.9176 0.7647 0.5176);fill-opacity:1;"/>
<path d="M270.285 139.61L255.3 133.531L251.862 146.514L266.891 151.592C267.883 147.551 269.042 143.335 270.285 139.61Z" fill="#D2AE74" style="fill:#D2AE74;fill:color(display-p3 0.8255 0.6836 0.4544);fill-opacity:1;"/>
<path d="M249.085 156.999C253.405 158.491 258.801 160.31 264.558 162.189C265.132 159.218 265.934 155.486 266.891 151.592L251.862 146.514L249.085 156.999Z" fill="#EAC384" style="fill:#EAC384;fill:color(display-p3 0.9176 0.7647 0.5176);fill-opacity:1;"/>
<path d="M281.05 154.666L308.62 164.311C308.546 160.537 308.246 155.858 307.812 150.806L285.372 140.189C284.406 144.199 282.742 149.575 281.05 154.666Z" fill="#D2AE74" style="fill:#D2AE74;fill:color(display-p3 0.8235 0.6824 0.4549);fill-opacity:1;"/>
<path d="M277.037 166.164C291.76 170.724 305.595 174.482 307.5 173.305C308.418 172.738 308.718 169.324 308.62 164.311L281.05 154.666C279.588 159.066 278.106 163.253 277.037 166.164Z" fill="#EAC384" style="fill:#EAC384;fill:color(display-p3 0.9176 0.7647 0.5176);fill-opacity:1;"/>
<path d="M171.731 86.6253L163.151 135.098L191.491 140.352L200.306 91.7226L197.298 91.186L174.739 87.1618L171.731 86.6253Z" fill="#F2CB8B" style="fill:#F2CB8B;fill:color(display-p3 0.9485 0.7946 0.5461);fill-opacity:1;"/>
<path d="M177.998 70.0352L174.739 87.1618L197.298 91.186L200.052 73.7244L177.998 70.0352Z" fill="#CAA364" style="fill:#CAA364;fill:color(display-p3 0.7925 0.6393 0.3920);fill-opacity:1;"/>
<path d="M161.41 134.776L159.086 147.31L192.611 148.837L193.998 140.816L191.491 140.352L163.151 135.098L161.41 134.776Z" fill="#EDDCC0" style="fill:#EDDCC0;fill:color(display-p3 0.9294 0.8613 0.7513);fill-opacity:1;"/>
<rect x="160.559" y="131.082" width="37.0001" height="3.29474" rx="1.64737" transform="rotate(11.0648 160.559 131.082)" fill="#5B5F5A" style="fill:#5B5F5A;fill:color(display-p3 0.3569 0.3725 0.3529);fill-opacity:1;"/>
<rect x="163.326" y="116.247" width="37.0001" height="3.29474" rx="1.64737" transform="rotate(11.0648 163.326 116.247)" fill="#5B5F5A" style="fill:#5B5F5A;fill:color(display-p3 0.3569 0.3725 0.3529);fill-opacity:1;"/>
<rect x="165.114" y="101.22" width="37.0001" height="3.29474" rx="1.64737" transform="rotate(11.0648 165.114 101.22)" fill="#5B5F5A" style="fill:#5B5F5A;fill:color(display-p3 0.3569 0.3725 0.3529);fill-opacity:1;"/>
<rect x="174.54" y="68.084" width="31.1138" height="2.77058" rx="1.38529" transform="rotate(11.0648 174.54 68.084)" fill="#5B5F5A" style="fill:#5B5F5A;fill:color(display-p3 0.3569 0.3725 0.3529);fill-opacity:1;"/>
<rect width="20.4542" height="2.65213" rx="1.32606" transform="matrix(0.981411 0.191919 0.191919 -0.981411 179.992 69.6025)" fill="#5B5F5A" style="fill:#5B5F5A;fill:color(display-p3 0.3569 0.3725 0.3529);fill-opacity:1;"/>
<rect x="170.994" y="110" width="4.78195" height="10.0364" rx="2.39097" transform="rotate(11.4606 170.994 110)" fill="#5B5F5A" style="fill:#5B5F5A;fill:color(display-p3 0.3569 0.3725 0.3529);fill-opacity:1;"/>
<rect x="176.871" y="111.606" width="4.78195" height="9.41806" rx="2.39097" transform="rotate(11.4606 176.871 111.606)" fill="#5B5F5A" style="fill:#5B5F5A;fill:color(display-p3 0.3569 0.3725 0.3529);fill-opacity:1;"/>
<rect x="182.994" y="113" width="4.78195" height="10.0364" rx="2.39097" transform="rotate(11.4606 182.994 113)" fill="#5B5F5A" style="fill:#5B5F5A;fill:color(display-p3 0.3569 0.3725 0.3529);fill-opacity:1;"/>
<rect x="188.919" y="114.368" width="4.78195" height="9.66034" rx="2.39097" transform="rotate(11.4606 188.919 114.368)" fill="#5B5F5A" style="fill:#5B5F5A;fill:color(display-p3 0.3569 0.3725 0.3529);fill-opacity:1;"/>
<rect x="167.894" y="124.183" width="4.78195" height="10.0364" rx="2.39097" transform="rotate(11.4606 167.894 124.183)" fill="#5B5F5A" style="fill:#5B5F5A;fill:color(display-p3 0.3569 0.3725 0.3529);fill-opacity:1;"/>
<rect x="173.921" y="126.098" width="4.78195" height="10.0364" rx="2.39097" transform="rotate(11.4606 173.921 126.098)" fill="#5B5F5A" style="fill:#5B5F5A;fill:color(display-p3 0.3569 0.3725 0.3529);fill-opacity:1;"/>
<rect x="179.935" y="127.014" width="4.78195" height="10.0364" rx="2.39097" transform="rotate(11.4606 179.935 127.014)" fill="#5B5F5A" style="fill:#5B5F5A;fill:color(display-p3 0.3569 0.3725 0.3529);fill-opacity:1;"/>
<rect x="186.962" y="128.914" width="4.78195" height="10.0364" rx="2.39097" transform="rotate(11.4606 186.962 128.914)" fill="#5B5F5A" style="fill:#5B5F5A;fill:color(display-p3 0.3569 0.3725 0.3529);fill-opacity:1;"/>
<rect x="172.681" y="95.3643" width="4.78195" height="9.66677" rx="2.39097" transform="rotate(10.0134 172.681 95.3643)" fill="#5B5F5A" style="fill:#5B5F5A;fill:color(display-p3 0.3569 0.3725 0.3529);fill-opacity:1;"/>
<rect x="178.979" y="96.6143" width="4.78195" height="9.9564" rx="2.39097" transform="rotate(11.4606 178.979 96.6143)" fill="#5B5F5A" style="fill:#5B5F5A;fill:color(display-p3 0.3569 0.3725 0.3529);fill-opacity:1;"/>
<rect x="185.994" y="98" width="4.78195" height="10.0364" rx="2.39097" transform="rotate(11.4606 185.994 98)" fill="#5B5F5A" style="fill:#5B5F5A;fill:color(display-p3 0.3569 0.3725 0.3529);fill-opacity:1;"/>
<path d="M179.461 79.5645C179.812 77.8325 181.501 76.7133 183.233 77.0645C184.965 77.4157 186.084 79.1041 185.733 80.8359L184.336 87.7285C184.286 87.9747 184.208 88.2078 184.107 88.4268L178.007 87.3086C177.988 87.0298 178.006 86.7441 178.064 86.457L179.461 79.5645Z" fill="#5B5F5A" style="fill:#5B5F5A;fill:color(display-p3 0.3569 0.3725 0.3529);fill-opacity:1;"/>
<path d="M188.334 82.5986C188.731 80.8848 190.456 79.745 192.188 80.0527C193.92 80.3606 195.003 81.9992 194.606 83.7129L193.373 89.041C193.293 89.385 193.159 89.7054 192.983 89.9961L187.047 89.042C186.998 88.6831 187.014 88.3067 187.102 87.9268L188.334 82.5986Z" fill="#5B5F5A" style="fill:#5B5F5A;fill:color(display-p3 0.3569 0.3725 0.3529);fill-opacity:1;"/>
<rect x="191.876" y="99.583" width="4.78195" height="9.44183" rx="2.39097" transform="rotate(11.4606 191.876 99.583)" fill="#5B5F5A" style="fill:#5B5F5A;fill:color(display-p3 0.3569 0.3725 0.3529);fill-opacity:1;"/>
<rect x="184.018" y="142.955" width="6.84099" height="10.0364" rx="3.4205" transform="rotate(10.6312 184.018 142.955)" fill="#5B5F5A" style="fill:#5B5F5A;fill:color(display-p3 0.3569 0.3725 0.3529);fill-opacity:1;"/>
<rect x="173.119" y="140.421" width="6.84099" height="10.7374" rx="3.4205" transform="rotate(10.6312 173.119 140.421)" fill="#5B5F5A" style="fill:#5B5F5A;fill:color(display-p3 0.3569 0.3725 0.3529);fill-opacity:1;"/>
<rect x="163.571" y="137.089" width="6.84099" height="13.2547" rx="3.4205" transform="rotate(10.6312 163.571 137.089)" fill="#5B5F5A" style="fill:#5B5F5A;fill:color(display-p3 0.3569 0.3725 0.3529);fill-opacity:1;"/>
<mask id="mask1_3505_133" style="mask-type:alpha" maskUnits="userSpaceOnUse" x="0" y="0" width="310" height="309">
<circle cx="155" cy="154.5" r="154.5" fill="url(#paint2_linear_3505_133)" style=""/>
</mask>
<g mask="url(#mask1_3505_133)">
<ellipse cx="174.5" cy="290.5" rx="236.5" ry="143.5" fill="url(#paint3_linear_3505_133)" style=""/>
<mask id="mask2_3505_133" style="mask-type:alpha" maskUnits="userSpaceOnUse" x="-62" y="147" width="473" height="287">
<ellipse cx="174.5" cy="290.5" rx="236.5" ry="143.5" fill="url(#paint4_linear_3505_133)" style=""/>
</mask>
<g mask="url(#mask2_3505_133)">
<path d="M41.5002 198.023C39.1002 188.023 45.5002 174.523 49.0002 169.023C54.0003 166.023 103.5 152.523 103.5 154.523C103.5 156.523 92 165.023 90.5 168.023C89 171.023 79 173.523 77.5 177.523C76.3 180.723 73.6667 181.189 72.5 181.023C67 178.523 55.8 176.623 55 189.023C54 204.523 68 199.523 69 199.523C70 199.523 74 193.523 75.5 192.023C77 190.523 80.5 193.523 80.5 197.023C80.5 200.523 78 197.023 75.5 199.523C73 202.023 81.5 204.523 83 205.523C84.5 206.523 88 205.523 94 202.523C98.8 200.123 137.667 210.856 156.5 216.523C157.667 224.689 153.2 245.023 126 261.023C98.8 277.023 76.6667 256.689 69 244.523C74 233.856 83.8 212.023 83 210.023C82 207.523 71.5 203.023 69 203.523C66.5 204.023 58 211.023 53.5 211.523C49 212.023 46 193.523 45 193.523C44.2 193.523 45.3333 198.189 46 200.523C45.5001 203.856 43.9002 208.023 41.5002 198.023Z" fill="#FFA9A7" style="fill:#FFA9A7;fill:color(display-p3 1.0000 0.6615 0.6546);fill-opacity:1;"/>
<path d="M200 151.523C206.252 149.196 202.5 150 217.5 149.5C248.5 147 307.5 174.023 309.5 175.023C311.1 175.823 338.5 219.356 352 241.023C320.333 251.523 255.9 272.723 251.5 273.523C246 274.523 227.5 268.023 227.5 267.023C227.5 266.023 219.5 241.523 213.5 229.023C207.5 216.523 215.5 211.523 216.5 204.023C217.3 198.023 212.833 196.856 210.5 197.023C207.5 198.189 199.3 199.823 190.5 197.023C179.5 193.523 183.5 177.523 191.5 170.023C197.9 164.023 221.833 171.856 233 176.523C237.167 177.523 246.4 178.923 250 176.523C253.6 174.123 262.167 180.856 266 184.523C268.4 184.523 272.667 195.189 274.5 200.523C277.667 201.856 284 205.123 284 207.523C284 210.523 267 220.523 265 226.023C263 231.523 259 251.023 266 262.023C273 273.023 327.5 213.523 327 210.023C326.5 206.522 303 189.023 301 188.023C299 187.023 283 171.023 280 169.023C277.6 167.423 279 172.356 280 175.023C279.5 180.023 296.5 186.523 298 192.023C299.5 197.522 283 198.023 279 198.023C275 198.023 267 174.023 266 175.023C265 176.023 263 177.523 262 175.023C261 172.523 262.5 173.523 262 165.523C261.5 157.523 254 159.023 251.5 159.023C249 159.023 249 165.523 245.5 165.523C242.7 165.523 238.667 156.856 237 152.523L235 151.023C234.667 151.023 234 151.723 234 154.523C234 158.023 236.5 162.523 234 163.523C231.5 164.523 232 165.523 228.5 165.523C225 165.523 226.5 166.023 227.5 162.523C228.5 159.023 231.5 162.523 232 161.023C232.5 159.523 227 154.523 225 153.523C223 152.523 217 153.023 213.5 153.523C210 154.023 205 160.523 202.5 162.523C200 164.523 196 163.523 193.5 161.023C191 158.523 192 154.5 200 151.523Z" fill="#FFA9A7" style="fill:#FFA9A7;fill:color(display-p3 1.0000 0.6615 0.6546);fill-opacity:1;"/>
<path d="M41.5002 198.023C39.1002 188.023 45.5002 174.523 49.0002 169.023C54.0003 166.023 103.5 152.523 103.5 154.523C103.5 156.523 92 165.023 90.5 168.023C89 171.023 79 173.523 77.5 177.523C76.3 180.723 73.6667 181.189 72.5 181.023C67 178.523 55.8 176.623 55 189.023C54 204.523 68 199.523 69 199.523C70 199.523 74 193.523 75.5 192.023C77 190.523 80.5 193.523 80.5 197.023C80.5 200.523 78 197.023 75.5 199.523C73 202.023 81.5 204.523 83 205.523C84.5 206.523 88 205.523 94 202.523C98.8 200.123 137.667 210.856 156.5 216.523C157.667 224.689 153.2 245.023 126 261.023C98.8 277.023 76.6667 256.689 69 244.523C74 233.856 83.8 212.023 83 210.023C82 207.523 71.5 203.023 69 203.523C66.5 204.023 58 211.023 53.5 211.523C49 212.023 46 193.523 45 193.523C44.2 193.523 45.3333 198.189 46 200.523C45.5001 203.856 43.9002 208.023 41.5002 198.023Z" stroke="#FFA9A7" style="stroke:#FFA9A7;stroke:color(display-p3 1.0000 0.6615 0.6546);stroke-opacity:1;"/>
<path d="M200 151.523C206.252 149.196 202.5 150 217.5 149.5C248.5 147 307.5 174.023 309.5 175.023C311.1 175.823 338.5 219.356 352 241.023C320.333 251.523 255.9 272.723 251.5 273.523C246 274.523 227.5 268.023 227.5 267.023C227.5 266.023 219.5 241.523 213.5 229.023C207.5 216.523 215.5 211.523 216.5 204.023C217.3 198.023 212.833 196.856 210.5 197.023C207.5 198.189 199.3 199.823 190.5 197.023C179.5 193.523 183.5 177.523 191.5 170.023C197.9 164.023 221.833 171.856 233 176.523C237.167 177.523 246.4 178.923 250 176.523C253.6 174.123 262.167 180.856 266 184.523C268.4 184.523 272.667 195.189 274.5 200.523C277.667 201.856 284 205.123 284 207.523C284 210.523 267 220.523 265 226.023C263 231.523 259 251.023 266 262.023C273 273.023 327.5 213.523 327 210.023C326.5 206.522 303 189.023 301 188.023C299 187.023 283 171.023 280 169.023C277.6 167.423 279 172.356 280 175.023C279.5 180.023 296.5 186.523 298 192.023C299.5 197.522 283 198.023 279 198.023C275 198.023 267 174.023 266 175.023C265 176.023 263 177.523 262 175.023C261 172.523 262.5 173.523 262 165.523C261.5 157.523 254 159.023 251.5 159.023C249 159.023 249 165.523 245.5 165.523C242.7 165.523 238.667 156.856 237 152.523L235 151.023C234.667 151.023 234 151.723 234 154.523C234 158.023 236.5 162.523 234 163.523C231.5 164.523 232 165.523 228.5 165.523C225 165.523 226.5 166.023 227.5 162.523C228.5 159.023 231.5 162.523 232 161.023C232.5 159.523 227 154.523 225 153.523C223 152.523 217 153.023 213.5 153.523C210 154.023 205 160.523 202.5 162.523C200 164.523 196 163.523 193.5 161.023C191 158.523 192 154.5 200 151.523Z" stroke="#FFA9A7" style="stroke:#FFA9A7;stroke:color(display-p3 1.0000 0.6615 0.6546);stroke-opacity:1;"/>
</g>
</g>
<path d="M122.769 169.317L171.064 158.452C172.788 165.495 175.327 176.264 177.264 185.369C175.241 183.454 166.266 186.088 162.032 187.644C159.44 187.074 155.354 180.587 150.61 180.666C145.866 180.746 135.161 186.446 132.727 185.842C130.779 185.358 127.021 184.108 125.385 183.543L122.769 169.317Z" fill="#9CCEFF" style="fill:#9CCEFF;fill:color(display-p3 0.6118 0.8078 1.0000);fill-opacity:1;"/>
<path fill-rule="evenodd" clip-rule="evenodd" d="M179.924 202.218C178.916 204.157 146.787 210.387 130.849 213.259L126.344 188.759C129.189 189.271 136.034 189.74 140.656 187.514C146.434 184.733 149.641 182.201 151.174 183.173C152.706 184.145 156.762 191.957 159.419 191.359C162.076 190.761 175.583 185.747 177.954 188.671C179.424 195.84 180.354 201.393 179.924 202.218ZM143.074 193.884C142.24 193.677 140.39 195.091 139.57 195.824C138.357 195.055 135.632 193.649 134.438 194.181C133.244 194.713 135.06 196.455 136.116 197.26C135.076 197.988 133.073 199.788 133.383 201.167C133.693 202.545 136.039 202.27 137.174 201.96C137.172 203.167 137.592 205.718 139.29 206.257C140.988 206.797 141.39 203.426 141.378 201.672C142.822 202.006 145.791 202.457 146.122 201.593C146.453 200.728 143.821 199.148 142.463 198.466C143.015 197.025 143.909 194.091 143.074 193.884Z" fill="#FFE4BB" style="fill:#FFE4BB;fill:color(display-p3 1.0000 0.8941 0.7333);fill-opacity:1;"/>
<path d="M139.57 195.824C140.39 195.091 142.24 193.677 143.074 193.884C143.909 194.091 143.015 197.025 142.463 198.466C143.821 199.148 146.453 200.728 146.122 201.593C145.791 202.457 142.822 202.006 141.378 201.672C141.39 203.426 140.988 206.797 139.29 206.257C137.592 205.718 137.172 203.167 137.174 201.96C136.039 202.27 133.693 202.545 133.383 201.167C133.073 199.788 135.076 197.988 136.116 197.26C135.06 196.455 133.244 194.713 134.438 194.181C135.632 193.649 138.357 195.055 139.57 195.824Z" fill="#FEA062" style="fill:#FEA062;fill:color(display-p3 0.9961 0.6275 0.3843);fill-opacity:1;"/>
<path fill-rule="evenodd" clip-rule="evenodd" d="M174.054 153.5L152.955 158.247C150.704 158.753 127.864 163.013 116.726 165.08C120.063 183.807 126.77 221.551 126.899 222.707C127.027 223.863 128.55 230.291 129.295 233.361C144.664 229.903 175.742 223.043 177.105 223.263C178.469 223.483 186.332 220.968 190.093 219.683C187.143 208.276 181.104 184.835 180.54 182.328C179.835 179.194 178.99 170.331 178.638 168.764C178.285 167.198 175.587 154.472 174.054 153.5ZM171.064 158.452L122.769 169.317L125.385 183.543L126.344 188.759L130.849 213.259C146.787 210.387 178.916 204.157 179.924 202.218C180.354 201.393 179.424 195.84 177.954 188.671C177.735 187.603 177.504 186.499 177.264 185.369C175.327 176.264 172.788 165.495 171.064 158.452Z" fill="#FFFEF0" style="fill:#FFFEF0;fill:color(display-p3 1.0000 0.9961 0.9412);fill-opacity:1;"/>
<path d="M150.61 180.666C155.354 180.587 159.44 187.074 162.032 187.644C166.266 186.088 175.241 183.454 177.264 185.369C177.504 186.499 177.735 187.603 177.954 188.671C175.583 185.747 162.076 190.761 159.419 191.359C156.762 191.957 152.706 184.145 151.174 183.173C149.641 182.201 146.434 184.733 140.656 187.514C136.034 189.74 129.189 189.271 126.344 188.759L125.385 183.543C127.021 184.108 130.779 185.358 132.727 185.842C135.161 186.446 145.866 180.746 150.61 180.666Z" fill="#E2EEFB" style="fill:#E2EEFB;fill:color(display-p3 0.8847 0.9350 0.9843);fill-opacity:1;"/>
<path d="M130.405 97.7575L157.347 147.067L169.846 147.209L130.405 97.7575Z" fill="#EAC384" style="fill:#EAC384;fill:color(display-p3 0.9162 0.7638 0.5186);fill-opacity:1;"/>
<path d="M130.405 97.7575L100.759 154.424L157.347 147.067L130.405 97.7575Z" fill="#5B5F5A" style="fill:#5B5F5A;fill:color(display-p3 0.3569 0.3725 0.3529);fill-opacity:1;"/>
<path d="M131.888 55.2716C132.288 55.2762 134.324 60.9425 135.291 63.7751L142.792 60.3958C140.165 58.0325 134.71 53.3035 133.91 53.2945C132.911 53.2831 131.388 55.2659 131.888 55.2716Z" fill="#5B5F5A" style="fill:#5B5F5A;fill:color(display-p3 0.3569 0.3725 0.3529);fill-opacity:1;"/>
<path d="M142.069 83.3891L144.074 66.4108C141.82 67.3227 139.48 68.2558 137.231 69.1449L138.547 85.3492L142.069 83.3891Z" fill="#5B5F5A" style="fill:#5B5F5A;fill:color(display-p3 0.3569 0.3725 0.3529);fill-opacity:1;"/>
<path d="M117.951 74.6136C117.843 75.7794 117.726 78.2122 118.122 78.6167C118.616 79.1224 120.116 79.1394 120.122 78.6394C120.126 78.2395 120.488 75.7589 120.668 74.5686C119.673 74.6075 118.68 74.6175 117.951 74.6136Z" fill="#5B5F5A" style="fill:#5B5F5A;fill:color(display-p3 0.3569 0.3725 0.3529);fill-opacity:1;"/>
<path d="M122.224 69.6627L112.764 66.0551L110.742 68.0322L117.667 74.6113C117.756 74.6123 117.851 74.6131 117.951 74.6136C118.68 74.6175 119.673 74.6075 120.668 74.5686C122.083 74.5134 123.503 74.3999 124.172 74.1852C124.813 73.9797 130.635 71.7517 137.231 69.1449C139.48 68.2558 141.82 67.3227 144.074 66.4108C150.748 63.7115 156.678 61.1978 157.329 60.561C158.543 59.3747 156.862 57.7221 155.869 57.0441L150.37 56.9817L142.792 60.3958L135.291 63.7751L122.224 69.6627Z" fill="#D9D9D9" style="fill:#D9D9D9;fill:color(display-p3 0.8510 0.8510 0.8510);fill-opacity:1;"/>
<path d="M101.458 48.9255C101.282 49.7569 101.628 51.5276 104.424 51.9594C107.918 52.4991 117.99 52.1135 118.263 47.1163C119.993 47.9693 123.562 48.7766 124.002 45.1814C124.443 41.5861 122.538 41.9979 121.531 42.6531C121.879 41.3237 121.875 38.7569 119.071 39.1251C117.758 37.2767 114.521 34.673 112.071 39.0456C110.248 38.1915 106.492 37.1822 106.06 39.9775C104.418 37.7921 100.416 35.0131 97.5438 41.3809C97.3734 41.7123 97.2313 42.4774 98.0267 42.8864C95.8355 45.0282 93.454 49.2344 101.458 48.9255Z" fill="#FFD4D0" style="fill:#FFD4D0;fill:color(display-p3 1.0000 0.8321 0.8155);fill-opacity:1;"/>
<path d="M206.914 58.8025C206.738 59.6339 207.085 61.4046 209.88 61.8364C213.374 62.3761 223.446 61.9905 223.72 56.9933C225.449 57.8463 229.018 58.6536 229.459 55.0584C229.899 51.4631 227.994 51.8749 226.987 52.5301C227.336 51.2007 227.331 48.6339 224.527 49.0021C223.215 47.1537 219.977 44.55 217.527 48.9226C215.704 48.0685 211.948 47.0592 211.516 49.8545C209.875 47.6691 205.873 44.8901 203 51.2579C202.83 51.5893 202.688 52.3544 203.483 52.7634C201.292 54.9052 198.91 59.1114 206.914 58.8025Z" fill="#FFD4D0" style="fill:#FFD4D0;fill:color(display-p3 1.0000 0.8321 0.8155);fill-opacity:1;"/>
<path d="M123 113.5L127.75 112.75M132.5 112L127.75 112.75M127.75 112.75V110.5M127.75 110.5H126M127.75 110.5L131.5 110" stroke="#CEA889" style="stroke:#CEA889;stroke:color(display-p3 0.8078 0.6588 0.5373);stroke-opacity:1;"/>
<path d="M113 133L123.938 130.5M130.5 129L123.938 130.5M123.938 130.5L123.5 128M123.5 128L118.5 129M123.5 128L132 126" stroke="#CEA889" style="stroke:#CEA889;stroke:color(display-p3 0.8078 0.6588 0.5373);stroke-opacity:1;"/>
<path d="M106 146L110 145M114 144L110 145M110 145L110.5 148.5M110.5 148.5L121.5 146.5M110.5 148.5L107.25 149M104 149.5L107.25 149M107.25 149V152.5" stroke="#CEA889" style="stroke:#CEA889;stroke:color(display-p3 0.8078 0.6588 0.5373);stroke-opacity:1;"/>
<path d="M126 143L138 141.588M151.5 140L142.5 141.059M142.5 141.059L142 138M142.5 141.059L138 141.588M142 138L150 137M142 138L137.25 138.5M132.5 139L136 138.632M137.25 138.5L138 141.588M137.25 138.5L136 138.632M136 138.632L135.5 137L125 139" stroke="#CEA889" style="stroke:#CEA889;stroke:color(display-p3 0.8078 0.6588 0.5373);stroke-opacity:1;"/>
<path d="M126 71.4929L146.33 63.8148" stroke="black" style="stroke:black;stroke-opacity:1;"/>
<circle cx="75.5" cy="97.5" r="9" stroke="black" style="stroke:black;stroke-opacity:1;"/>
<rect x="71.9453" y="112.39" width="2" height="9.70059" transform="rotate(-11.267 71.9453 112.39)" fill="#CEA889" style="fill:#CEA889;fill:color(display-p3 0.8078 0.6588 0.5373);fill-opacity:1;"/>
<rect x="76" y="111.391" width="2" height="9.70059" transform="rotate(-11.267 76 111.391)" fill="#CEA889" style="fill:#CEA889;fill:color(display-p3 0.8078 0.6588 0.5373);fill-opacity:1;"/>
<rect x="80" y="110.391" width="2" height="9.70059" transform="rotate(-11.267 80 110.391)" fill="#CEA889" style="fill:#CEA889;fill:color(display-p3 0.8078 0.6588 0.5373);fill-opacity:1;"/>
<rect x="84" y="109.391" width="2" height="9.70059" transform="rotate(-11.267 84 109.391)" fill="#CEA889" style="fill:#CEA889;fill:color(display-p3 0.8078 0.6588 0.5373);fill-opacity:1;"/>
<rect x="75" y="125.982" width="1.75974" height="8.53526" transform="rotate(-11.267 75 125.982)" fill="#9C816B" style="fill:#9C816B;fill:color(display-p3 0.6128 0.5055 0.4180);fill-opacity:1;"/>
<rect x="78.5674" y="125.104" width="1.75974" height="8.53526" transform="rotate(-11.267 78.5674 125.104)" fill="#9C816B" style="fill:#9C816B;fill:color(display-p3 0.6128 0.5055 0.4180);fill-opacity:1;"/>
<rect x="82.0869" y="124.224" width="1.75974" height="8.53526" transform="rotate(-11.267 82.0869 124.224)" fill="#9C816B" style="fill:#9C816B;fill:color(display-p3 0.6128 0.5055 0.4180);fill-opacity:1;"/>
<rect x="85.6064" y="123.344" width="1.75974" height="8.53526" transform="rotate(-11.267 85.6064 123.344)" fill="#9C816B" style="fill:#9C816B;fill:color(display-p3 0.6128 0.5055 0.4180);fill-opacity:1;"/>
<rect x="79" y="139.557" width="1.50836" height="7.31599" transform="rotate(-11.267 79 139.557)" fill="#705640" style="fill:#705640;fill:color(display-p3 0.4377 0.3358 0.2526);fill-opacity:1;"/>
<rect x="82.0576" y="138.804" width="1.50836" height="7.31599" transform="rotate(-11.267 82.0576 138.804)" fill="#705640" style="fill:#705640;fill:color(display-p3 0.4377 0.3358 0.2526);fill-opacity:1;"/>
<rect x="85.0742" y="138.05" width="1.50836" height="7.31599" transform="rotate(-11.267 85.0742 138.05)" fill="#705640" style="fill:#705640;fill:color(display-p3 0.4377 0.3358 0.2526);fill-opacity:1;"/>
<rect x="88.0908" y="137.295" width="1.50836" height="7.31599" transform="rotate(-11.267 88.0908 137.295)" fill="#705640" style="fill:#705640;fill:color(display-p3 0.4377 0.3358 0.2526);fill-opacity:1;"/>
<rect x="82" y="151.344" width="1.38272" height="6.70659" transform="rotate(-11.267 82 151.344)" fill="black" style="fill:black;fill-opacity:1;"/>
<rect x="84.8027" y="150.653" width="1.38272" height="6.70659" transform="rotate(-11.267 84.8027 150.653)" fill="black" style="fill:black;fill-opacity:1;"/>
<rect x="87.5684" y="149.963" width="1.38272" height="6.70659" transform="rotate(-11.267 87.5684 149.963)" fill="black" style="fill:black;fill-opacity:1;"/>
<rect x="90.334" y="149.271" width="1.38272" height="6.70659" transform="rotate(-11.267 90.334 149.271)" fill="black" style="fill:black;fill-opacity:1;"/>
<line x1="74.495" y1="90.9293" x2="75.495" y2="97.9293" stroke="black" style="stroke:black;stroke-opacity:1;"/>
<line x1="74.495" y1="90.9293" x2="75.495" y2="97.9293" stroke="black" style="stroke:black;stroke-opacity:1;"/>
<line x1="74.495" y1="90.9293" x2="75.495" y2="97.9293" stroke="black" style="stroke:black;stroke-opacity:1;"/>
<line x1="81.7798" y1="98.9039" x2="74.9496" y2="97.0737" stroke="black" style="stroke:black;stroke-opacity:1;"/>
<line x1="81.7798" y1="98.9039" x2="74.9496" y2="97.0737" stroke="black" style="stroke:black;stroke-opacity:1;"/>
<line x1="81.7798" y1="98.9039" x2="74.9496" y2="97.0737" stroke="black" style="stroke:black;stroke-opacity:1;"/>
<circle cx="264.231" cy="129.083" r="4" transform="rotate(0.299781 264.231 129.083)" fill="#5B5F5A" style="fill:#5B5F5A;fill:color(display-p3 0.3569 0.3725 0.3529);fill-opacity:1;"/>
<path fill-rule="evenodd" clip-rule="evenodd" d="M213.173 129.41L199.222 146.042L196.737 145.475L196 148L211.5 149.5L211.691 147.377L209.205 146.81L215.958 137.488C236.597 128.838 243.976 143.408 245.085 151.774L242.586 151.707L242 153.5L257.014 156L257.014 154.595L255.028 154.041L246.567 133.807L246.661 130.309C246.693 129.109 245.693 129.115 245.189 129.269L247.768 126.337L242.77 126.203L240.24 108.629L225.786 106.74L218.373 122.047L214.374 121.94L216.306 124.492L213.28 125.412L213.173 129.41ZM235.608 113.506L229.137 112.332L225.343 123.234L236.312 124.529L235.608 113.506Z" fill="#5B5F5A" style="fill:#5B5F5A;fill:color(display-p3 0.3569 0.3725 0.3529);fill-opacity:1;"/>
<path d="M239.903 46.5972L226.919 101.769L230.408 102.251L238.827 68.0761L236.388 103.079L240.374 103.63C241.366 85.317 243.659 48.2985 244.902 46.7313C246.455 44.7722 243.969 44.2054 244.996 43.2325C245.604 42.6561 244.993 41.6958 244.082 41.0005C243.456 40.5223 242.688 40.1696 242.077 40.1532C240.578 40.1129 241.024 42.1256 239.997 43.0985C239.176 43.8767 239.593 45.7552 239.903 46.5972Z" fill="#5B5F5A" style="fill:#5B5F5A;fill:color(display-p3 0.3569 0.3725 0.3529);fill-opacity:1;"/>
<path d="M226.919 101.769C224.11 102.094 224.993 105.218 225.786 106.74L240.24 108.629C242.725 105.494 241.365 103.99 240.374 103.63L236.388 103.079L230.408 102.251L226.919 101.769Z" fill="#5B5F5A" style="fill:#5B5F5A;fill:color(display-p3 0.3569 0.3725 0.3529);fill-opacity:1;"/>
<path d="M242.077 40.1532C242.688 40.1696 243.456 40.5223 244.082 41.0005L244.5 31.5005L242.077 40.1532Z" fill="#5B5F5A" style="fill:#5B5F5A;fill:color(display-p3 0.3569 0.3725 0.3529);fill-opacity:1;"/>
<rect x="242.678" y="92" width="37.0001" height="3.29474" rx="1.64737" transform="rotate(11.8733 242.678 92)" fill="#D9D9D9" style="fill:#D9D9D9;fill:color(display-p3 0.8510 0.8510 0.8510);fill-opacity:1;"/>
<path d="M1.19137 153C-1.81604 199.746 29.9541 301.062 144.043 311.704C195.454 316.5 303.736 289.154 310.954 157L270.855 213.388L240.781 211.391L201.685 231.354L150.058 211.391L120.986 217.38L85.3987 200.911L54.3222 217.38L1.19137 153Z" fill="url(#paint5_linear_3505_133)" style=""/>
<defs>
<linearGradient id="paint0_linear_3505_133" x1="155" y1="0" x2="155" y2="309" gradientUnits="userSpaceOnUse">
<stop stop-color="#FFA9A7" style="stop-color:#FFA9A7;stop-color:color(display-p3 1.0000 0.6627 0.6549);stop-opacity:1;"/>
<stop offset="1" stop-color="#FDD69F" style="stop-color:#FDD69F;stop-color:color(display-p3 0.9922 0.8392 0.6235);stop-opacity:1;"/>
</linearGradient>
<linearGradient id="paint1_linear_3505_133" x1="155" y1="0" x2="155" y2="309" gradientUnits="userSpaceOnUse">
<stop stop-color="#FFA9A7" style="stop-color:#FFA9A7;stop-color:color(display-p3 1.0000 0.6627 0.6549);stop-opacity:1;"/>
<stop offset="1" stop-color="#FDD69F" style="stop-color:#FDD69F;stop-color:color(display-p3 0.9922 0.8392 0.6235);stop-opacity:1;"/>
</linearGradient>
<linearGradient id="paint2_linear_3505_133" x1="155" y1="0" x2="155" y2="309" gradientUnits="userSpaceOnUse">
<stop stop-color="#FFA9A7" style="stop-color:#FFA9A7;stop-color:color(display-p3 1.0000 0.6627 0.6549);stop-opacity:1;"/>
<stop offset="1" stop-color="#FDD69F" style="stop-color:#FDD69F;stop-color:color(display-p3 0.9922 0.8392 0.6235);stop-opacity:1;"/>
</linearGradient>
<linearGradient id="paint3_linear_3505_133" x1="174.5" y1="147" x2="174.5" y2="434" gradientUnits="userSpaceOnUse">
<stop stop-color="#DBE9F1" style="stop-color:#DBE9F1;stop-color:color(display-p3 0.8588 0.9137 0.9451);stop-opacity:1;"/>
<stop offset="1" stop-color="#FFDCF9" style="stop-color:#FFDCF9;stop-color:color(display-p3 1.0000 0.8627 0.9765);stop-opacity:1;"/>
</linearGradient>
<linearGradient id="paint4_linear_3505_133" x1="174.5" y1="147" x2="174.5" y2="434" gradientUnits="userSpaceOnUse">
<stop stop-color="#DBE9F1" style="stop-color:#DBE9F1;stop-color:color(display-p3 0.8588 0.9137 0.9451);stop-opacity:1;"/>
<stop offset="1" stop-color="#FFDCF9" style="stop-color:#FFDCF9;stop-color:color(display-p3 1.0000 0.8627 0.9765);stop-opacity:1;"/>
</linearGradient>
<linearGradient id="paint5_linear_3505_133" x1="155.954" y1="153" x2="155.954" y2="312" gradientUnits="userSpaceOnUse">
<stop stop-color="#DECABA" style="stop-color:#DECABA;stop-color:color(display-p3 0.8706 0.7922 0.7294);stop-opacity:1;"/>
<stop offset="1" stop-color="#FFB274" style="stop-color:#FFB274;stop-color:color(display-p3 1.0000 0.6980 0.4549);stop-opacity:1;"/>
</linearGradient>
</defs>
</svg>
