<svg width="21" height="19" viewBox="0 0 21 19" fill="none" xmlns="http://www.w3.org/2000/svg">
<path d="M10.2889 17.6507C9.00444 17.3372 8.21072 17.3707 6.9998 16.8481C4.19432 15.6373 2.87912 13.9752 1.65498 11.2299C0.181272 7.92485 1.65498 2 1.65498 2C1.65498 2 5.21995 2.98765 6.9998 4.4078C8.96532 5.97609 10.7001 9.62469 10.7001 9.62469M10.7001 9.62469C10.7001 9.62469 7.79545 16.3141 10.7001 17.6507C12.8147 18.6237 14.5702 17.394 16.456 16.0455C18.324 14.7097 19.109 13.4031 19.7451 11.2299C20.3186 9.27095 19.7451 6.01299 19.7451 6.01299C19.7451 6.01299 17.6507 5.55234 16.456 6.01299C15.4999 6.3817 15.2427 7.04292 14.4003 7.61819C13.0459 8.54318 10.7001 9.62469 10.7001 9.62469Z" stroke="#62635E" stroke-width="2"/>
</svg>
