<svg width="16" height="20" viewBox="0 0 16 20" fill="none" xmlns="http://www.w3.org/2000/svg">
<path d="M1.26216 13.7901C-0.617196 8.77992 8.22387 2 8.22387 2C8.22387 2 9.37715 3.46238 9.68949 4.57909C10.3284 6.86348 7.68476 8.16389 8.22387 10.4742C8.3999 11.2285 8.40575 11.7746 8.95668 12.3164C9.78148 13.1274 10.8207 13.1252 11.8879 12.6848C13.76 11.9122 12.6207 7.52663 12.6207 7.52663C12.6207 7.52663 15.7765 11.8266 14.8192 14.527C14.1396 16.4437 12.9939 17.3619 11.1551 18.2114C8.94472 19.2327 7.10823 19.2926 4.92622 18.2114C2.92127 17.218 2.05099 15.8931 1.26216 13.7901Z" stroke="#62635E" stroke-width="2"/>
</svg>
