<svg width="44" height="60" viewBox="0 0 44 60" fill="none" xmlns="http://www.w3.org/2000/svg">
<path d="M28 26.574C26.1886 26.0167 24.2204 27.5029 23.6979 28.4899C27.4599 26.2606 29.4454 27.9094 29.968 29.0124C29.9099 28.3157 29.8114 27.1314 28 26.574Z" fill="#717171"/>
<path d="M7.84837 30.2315C8.54504 30.0573 8.89338 30.5798 9.41589 31.2765C9.70402 31.6607 10.8362 31.6256 11.8542 31.4906C12.3131 31.4298 12.7487 31.3487 13.0734 31.2765C10.8091 28.5325 13.7702 25.1807 13.9444 24.8324C14.6411 24.8904 16.3479 24.275 17.602 21.349C19.1695 17.6914 24.3945 16.2981 24.9171 15.7756C25.4396 15.2531 27.5296 15.0789 28.5746 14.9047C29.6196 14.7305 31.8838 15.2531 32.4063 15.7756C32.9288 16.2981 34.8447 15.4272 35.5414 15.2531C36.238 15.0789 36.238 15.0789 37.6314 14.9047C38.7461 14.7654 39.3731 16.7045 39.5473 17.6914C39.4892 18.33 39.5124 19.9905 40.0698 21.5231C40.7664 23.439 40.2439 26.574 40.5923 26.574C40.9406 26.574 41.9856 25.529 42.334 25.0065C42.6126 24.5885 42.4501 22.6262 42.334 21.6973C42.8565 21.5231 43.7273 20.304 43.7273 19.9556C43.7273 19.6769 43.6112 17.9817 43.5531 17.1689C44.6678 14.9396 43.437 12.7566 42.6823 11.9438C42.8565 11.4213 41.6373 8.63463 41.4631 8.28629C41.2889 7.93796 40.5923 7.76379 40.2439 7.41545C39.8956 7.06711 38.6764 5.67376 38.1539 4.80291C37.6314 3.93207 35.8897 4.28041 35.193 4.28041C34.4964 4.28041 34.148 3.06122 33.4513 2.5384C32.7547 2.01557 33.4513 2.19038 31.5355 1.84204C29.6196 1.4937 27.0071 0.970877 26.1362 0.274331C25.2654 -0.422215 21.6078 0.4485 20.5628 0.274331C19.5178 0.100162 16.9053 1.14505 16.0344 0.970877C15.1636 0.796708 13.7702 2.01589 13.5961 2.5384C13.4567 2.9564 10.6352 3.52536 9.24184 3.75758C7.15181 3.75758 5.70041 6.07983 5.23596 7.24096C4.39994 7.3803 3.49427 9.15682 3.14593 10.0277C2.17058 10.4457 1.57841 12.408 1.40424 13.3369C1.40424 14.3819 1.19524 16.6809 0.359224 17.5169C-0.685791 18.5619 0.881731 23.2645 0.881731 24.4837C0.881731 25.459 1.34606 26.1673 1.57822 26.3996C0.881543 28.6637 2.97157 32.1471 4.01659 32.8438C5.0616 33.5405 4.01659 34.4113 4.01659 37.5464C4.01659 40.6814 8.54498 40.8556 9.24166 40.8556C9.799 40.8556 10.2867 38.2271 10.4608 36.9129C9.83714 37.1268 9.09797 37.0239 8.71915 37.0239C8.02241 37.0239 6.97746 34.7597 6.10661 34.4113C5.23577 34.063 3.49414 29.0122 3.31997 28.4897C3.1458 27.9672 4.53916 26.9222 4.71333 27.9672C4.88749 29.0122 7.15169 30.4057 7.84837 30.2315Z" fill="#C2BDBD"/>
<path d="M13.0734 31.2765C12.7487 31.3487 12.3131 31.4298 11.8542 31.4906C11.1575 31.6 11.68 33.5405 11.5059 35.4563C11.4264 36.3306 10.9843 36.7333 10.4608 36.9129V38.9397C10.4608 39.9847 11.1575 39.6364 11.5059 39.6364C11.8542 39.6364 11.1575 42.0748 11.8542 42.0748C12.5509 42.0748 12.5509 44.6873 13.2475 44.5131C13.9442 44.339 12.5509 45.2098 13.9442 45.7323C15.0589 46.1503 14.4087 47.1837 13.9442 47.6482C13.5959 48.0546 13.2475 48.8325 14.6409 48.6932C16.0342 48.5538 16.6148 48.2868 16.7309 48.1707C16.847 48.519 17.0096 49.355 16.7309 49.9124C16.3826 50.609 17.6018 49.3899 18.1243 51.1315C18.6468 52.8732 19.5176 56.0083 17.9501 56.3566C18.9371 56.8211 21.0503 57.4365 21.6077 56.1824C21.7756 55.8046 21.9031 55.457 22.0047 55.1374C22.4529 55.8341 23.4538 57.1926 23.8719 57.0533C23.988 57.4016 24.2899 58.0635 24.5685 57.9241C24.8472 57.7848 25.3813 57.75 25.6135 57.75C25.7297 57.9822 26.0315 58.4466 26.3102 58.4466C26.5889 58.4466 27.123 57.6339 27.3552 57.2275C27.2972 57.4597 27.2507 57.9938 27.5294 58.2725C27.8081 58.5512 29.0389 57.9241 29.6194 57.5758C29.6194 58.2144 29.7936 59.4568 30.4903 59.3175C31.3611 59.1433 32.9286 58.4467 32.9286 57.2275C33.8575 57.808 35.8547 58.8298 36.412 58.2725C37.1087 57.5758 37.2829 55.4858 37.6312 55.1374C37.9795 54.7891 38.3279 54.0924 38.3279 53.5699C38.3279 53.0474 38.3279 52.3507 38.6762 52.1766C38.9549 52.0372 38.9084 51.1896 38.8504 50.7832C39.0826 50.609 39.5471 50.1214 39.5471 49.564C39.5471 48.8674 39.1987 48.6932 39.5471 48.519C39.8954 48.3448 39.7212 47.6482 39.7212 47.474C39.7212 47.2998 40.2437 46.0807 40.0696 45.7323C39.8954 45.384 40.0696 44.5131 39.8954 44.339C39.7561 44.1996 39.8373 43.2359 39.8954 42.7714C39.7212 42.2489 39.2336 41.0994 38.6762 40.6814C37.9795 40.1589 37.457 39.2881 37.457 39.1139C37.457 38.9397 36.7604 38.0689 36.5862 37.8947C36.412 37.7205 36.0637 37.5464 35.7153 37.3722C35.367 37.198 33.277 36.8497 32.7545 36.8497C32.232 36.8497 31.187 37.0239 30.4903 37.3722C29.7936 37.7205 26.4844 40.3331 26.3102 40.5072C26.1361 40.6814 23.6977 40.6814 23.001 39.9847C22.3043 39.2881 20.5626 38.243 19.866 38.0689C19.1693 37.8947 18.6468 36.8497 17.2534 37.0239C16.1388 37.1632 16.0923 35.6886 16.2084 34.9338C16.0342 34.5855 15.5117 33.8888 14.8151 33.8888C13.9442 33.8888 13.596 31.1718 13.0734 31.2765Z" fill="#C8C8C8"/>
<path fill-rule="evenodd" clip-rule="evenodd" d="M38.6762 40.6814C39.2336 41.0994 39.7212 42.2489 39.8954 42.7714C40.2437 42.4228 39.8954 40.5072 39.5473 39.1139C39.1991 37.7205 40.2439 32.67 39.8954 31.2765C39.6166 30.1618 40.2438 27.6771 40.5923 26.574C40.2439 26.574 40.7664 23.439 40.0698 21.5231C39.5124 19.9905 39.4892 18.33 39.5473 17.6914C39.3731 16.7045 38.7461 14.7654 37.6314 14.9047C36.238 15.0789 36.238 15.0789 35.5414 15.2531C34.8447 15.4272 32.9288 16.2981 32.4063 15.7756C31.8838 15.2531 29.6196 14.7305 28.5746 14.9047C27.5296 15.0789 25.4396 15.2531 24.9171 15.7756C24.3945 16.2981 19.1695 17.6914 17.602 21.349C16.3479 24.275 14.6411 24.8904 13.9444 24.8324C13.7702 25.1807 10.8091 28.5325 13.0734 31.2765C13.596 31.1718 13.9442 33.8888 14.8151 33.8888C15.5117 33.8888 16.0342 34.5855 16.2084 34.9338C16.0923 35.6886 16.1388 37.1632 17.2534 37.0239C18.6468 36.8497 19.1693 37.8947 19.866 38.0689C20.5626 38.243 22.3043 39.2881 23.001 39.9847C23.6977 40.6814 26.1361 40.6814 26.3102 40.5072C26.4844 40.3331 29.7936 37.7205 30.4903 37.3722C31.187 37.0239 32.232 36.8497 32.7545 36.8497C33.277 36.8497 35.367 37.198 35.7153 37.3722C36.0637 37.5464 36.412 37.7205 36.5862 37.8947C36.7604 38.0689 37.457 38.9397 37.457 39.1139C37.457 39.2881 37.9795 40.1589 38.6762 40.6814ZM23.6979 28.4899C24.2204 27.5029 26.1886 26.0167 28 26.574C29.8114 27.1314 29.9099 28.3157 29.968 29.0124C27.4599 30.6844 24.7429 29.3607 23.6979 28.4899Z" fill="#CCAB8F"/>
<path d="M9.41589 31.2765C8.89338 30.5798 8.54504 30.0573 7.84837 30.2315C7.15169 30.4057 4.88749 29.0122 4.71333 27.9672C4.53916 26.9222 3.1458 27.9672 3.31997 28.4897C3.49414 29.0122 5.23577 34.063 6.10661 34.4113C6.97746 34.7597 8.02241 37.0239 8.71915 37.0239C9.09797 37.0239 9.83714 37.1268 10.4608 36.9129C10.9843 36.7333 11.4264 36.3306 11.5059 35.4563C11.68 33.5405 11.1575 31.6 11.8542 31.4906C10.8362 31.6256 9.70402 31.6607 9.41589 31.2765Z" fill="#CCAB8F"/>
<path d="M34.6708 26.9225C34.8808 25.0325 36.7852 24.0458 38.3571 23.6494C31.4754 25.1396 35.1932 31.829 35.1932 32.3218C35.1932 32.8443 34.6707 34.7601 32.5807 34.2376C30.4907 33.7151 30.1425 35.2826 30.665 35.9792C31.1875 36.6759 33.8 37.0243 36.0642 37.0243C37.8756 37.0243 37.7478 35.8051 37.4575 34.7601C36.5286 33.3087 34.3921 29.4305 34.6708 26.9225Z" fill="#B5967B"/>
<path d="M39.124 27.8787C38.7595 28.5489 37.4582 29.5011 35.1694 27.9482C35.8162 27.0155 37.2611 25.7539 38.508 27.0048C38.7208 27.2182 38.9278 27.5048 39.124 27.8787Z" fill="#D9D9D9"/>
<path d="M38.8146 27.1178C38.9226 27.9409 38.5001 28.675 37.871 28.7575C37.2419 28.84 36.6444 28.2397 36.5365 27.4166C36.4286 26.5935 36.7372 26.2533 37.3663 26.1708C37.9954 26.0883 38.7067 26.2948 38.8146 27.1178Z" fill="#252525"/>
<path d="M21.7822 25.5289C22.9434 24.1936 26.6241 22.1849 32.0582 24.8322" stroke="#B5967B"/>
<path d="M30.3164 43.2942C31.0711 43.7006 33.1379 44.2695 35.3673 43.2942" stroke="#8E8B8B"/>
<path d="M28.574 45.384L27.7031 46.6032" stroke="#8E8B8B"/>
<path d="M30.8393 45.0359L30.1426 47.1259" stroke="#8E8B8B"/>
<path d="M24.3945 44.339C25.7298 44.5131 28.7836 44.2693 30.3163 41.9006C30.6646 42.1328 31.3961 42.3883 31.5355 41.5523L32.4063 42.4231C32.9869 42.2489 34.148 41.8309 34.148 41.5523C34.148 41.2039 36.9347 43.294 36.7605 42.9456C36.6212 42.6669 37.0508 43.4102 37.283 43.8166L37.8055 43.4683C38.0958 43.7005 38.7112 44.0953 38.8506 43.8166C38.9899 43.5379 39.4892 42.7715 39.7214 42.4231" stroke="#8E8B8B"/>
<path d="M9.06777 31.6247C9.00972 31.7988 8.96327 32.182 9.24194 32.3213C9.59028 32.4955 9.93843 33.5405 9.06777 33.5405C8.19711 33.5405 6.45542 31.6247 6.28125 30.928" stroke="#B5967B"/>
<path d="M20.737 45.7324C20.7951 46.1969 20.8067 47.1954 20.3887 47.4741" stroke="#8E8B8B"/>
<path d="M19.6925 45.0359C19.5764 45.2101 19.3441 45.7326 19.3441 46.4292C19.3441 47.1259 18.8797 47.3001 18.6475 47.3001" stroke="#8E8B8B"/>
<path d="M22.8276 43.6426C22.6341 43.9641 22.2471 44.9287 22.2471 46.2149C22.2471 47.5011 21.473 47.8226 21.0859 47.8226" stroke="#8E8B8B"/>
<path d="M18.2987 40.6816C18.0665 40.7978 17.6717 41.1693 17.9503 41.7267" stroke="#8E8B8B"/>
<path d="M13.7695 36.6758C14.5243 36.9661 15.8944 37.9995 15.3371 39.8108" stroke="#8E8B8B"/>
<path d="M14.4676 42.7717C13.4226 41.7266 11.646 39.3231 12.9001 38.0691" stroke="#8E8B8B"/>
<path d="M33.4512 44.8618C33.6253 45.2682 34.0085 46.1507 34.1478 46.4293C34.2872 46.708 34.2059 46.8938 34.1478 46.9518" stroke="#8E8B8B"/>
<path d="M36.2374 44.8618C36.1793 45.1521 36.1329 45.8023 36.4116 46.081C36.7599 46.4293 37.6309 47.6485 37.2826 48.8677" stroke="#8E8B8B"/>
<path d="M35.1684 27.948C35.2985 27.4301 36.0997 26.0102 36.9996 26.0101C38.5 26.01 38.3535 26.0786 38.8314 26.968C39.2137 27.6796 39.1851 27.8715 39.123 27.8785C38.7693 26.9751 37.4832 25.7241 35.1684 27.948Z" fill="#717171"/>
</svg>
