<svg width="62" height="62" viewBox="0 0 62 62" fill="none" xmlns="http://www.w3.org/2000/svg">
<circle cx="31" cy="31" r="31" fill="#C2BDBD"/>
<g filter="url(#filter0_i_3196_2459)">
<path d="M31 4L40.9651 7.87178L50.799 12.0546L55.0578 21.7129L59 31.5L55.0578 41.2871L50.799 50.9454L40.9651 55.1282L31 59L21.0349 55.1282L11.201 50.9454L6.94218 41.2871L3 31.5L6.94218 21.7129L11.201 12.0546L21.0349 7.87178L31 4Z" fill="#C2BDBD"/>
</g>
<path d="M31 4L40.9651 7.87178L50.799 12.0546L55.0578 21.7129L59 31.5L55.0578 41.2871L50.799 50.9454L40.9651 55.1282L31 59L21.0349 55.1282L11.201 50.9454L6.94218 41.2871L3 31.5L6.94218 21.7129L11.201 12.0546L21.0349 7.87178L31 4Z" stroke="#ABA7A7"/>
<g filter="url(#filter1_d_3196_2459)">
<path d="M26.7045 39.1441C26.7647 39.0162 26.7394 38.8643 26.6411 38.7628L22.4273 34.4106C22.3289 34.309 22.178 34.2789 22.0481 34.3348C21.3873 34.6202 20.7881 35.0205 20.2671 35.525C18.5564 37.1813 17.9934 39.691 18.8328 41.9186C18.8494 41.9626 18.8747 42.0022 18.9067 42.0352C18.9388 42.0683 18.9775 42.0949 19.0209 42.1129C21.2203 43.0238 23.7468 42.5422 25.4575 40.8858C25.9787 40.3812 26.3982 39.7952 26.7045 39.1441Z" fill="#FF9737"/>
<path d="M26.2534 38.0296C26.2586 37.9349 26.2241 37.8424 26.1582 37.7743L23.3996 34.9252C23.3337 34.8571 23.2424 34.8196 23.1475 34.8218C23.0529 34.824 22.9633 34.8656 22.9005 34.9366C22.0236 35.929 21.7785 37.3652 22.2762 38.5954C22.2927 38.6363 22.317 38.6732 22.3471 38.7044C22.3773 38.7356 22.4134 38.761 22.4538 38.7788C23.6673 39.3159 25.1105 39.1173 26.1307 38.2729C26.2037 38.2123 26.2482 38.1241 26.2534 38.0296Z" fill="#FFD960"/>
<path opacity="0.1" d="M20.7549 36.6306C21.3171 36.0863 21.9636 35.6543 22.6767 35.3465C22.8168 35.2861 22.9796 35.3186 23.0857 35.4282L26.6974 39.1584C26.6997 39.1536 26.7022 39.149 26.7045 39.1441C26.7647 39.0162 26.7394 38.8643 26.6411 38.7628L22.4273 34.4106C22.3289 34.309 22.178 34.2789 22.0481 34.3348C21.3873 34.6202 20.7881 35.0205 20.2671 35.525C18.5617 37.1762 17.9973 39.6753 18.8253 41.8976C18.6325 39.9691 19.3186 38.0212 20.7549 36.6306Z" fill="#231F20"/>
<path d="M30.9898 44.385L33.2581 42.1889C34.2639 41.215 34.4386 40.1008 34.4689 39.7476L34.8652 32.8103L28.1693 39.2934L29.9775 44.4449C30.0546 44.6277 30.318 45.0355 30.9898 44.385Z" fill="#0B6B95"/>
<path d="M16.9483 29.8824L19.2165 27.6862C20.2224 26.7124 21.3417 26.5737 21.6956 26.5548L28.6421 26.3827L21.9462 32.8658L16.8558 30.8923C16.6755 30.8092 16.2765 30.5328 16.9483 29.8824Z" fill="#0B6B95"/>
<path d="M36.8999 24.6146C36.7039 24.4122 36.6776 24.1198 36.841 23.9615L39.9149 20.9853C40.0784 20.8271 40.3698 20.8628 40.5658 21.0652C40.7617 21.2676 40.7881 21.56 40.6246 21.7183L37.5507 24.6945C37.3872 24.8528 37.0958 24.817 36.8999 24.6146Z" fill="#90C8EC"/>
<path d="M39.5871 22.6541L38.9458 21.9917C36.7053 21.2042 34.7256 20.3032 33.0796 21.8969L21.8517 32.7679C21.4008 33.2045 21.3891 33.924 21.8259 34.3751L26.6574 39.3653C27.094 39.8163 27.8137 39.8279 28.2646 39.3913L37.1316 30.8062L38.3288 29.647L39.4925 28.5203C41.1385 26.9265 40.3632 25.4688 39.5871 22.6541Z" fill="#CAE9F7"/>
<path d="M23.0312 31.6255L21.8517 32.7675C21.4008 33.2041 21.3891 33.9236 21.8259 34.3747L26.6574 39.3649C27.094 39.8159 27.8137 39.8275 28.2646 39.3909L29.4441 38.2489L23.0312 31.6255Z" fill="#90C8EC"/>
<path d="M28.1433 33.0926C28.9195 33.8944 30.1988 33.915 31.0005 33.1388C31.8023 32.3625 31.8229 31.0833 31.0467 30.2815C30.2704 29.4798 28.9912 29.4591 28.1894 30.2354C27.3877 31.0116 27.367 32.2909 28.1433 33.0926Z" fill="#A599A3"/>
<path opacity="0.1" d="M17.3652 31.0563L19.6334 28.8602C20.6393 27.8863 21.7585 27.7476 22.1125 27.7287L27.3864 27.598L28.6416 26.3827L21.6951 26.5548C21.3412 26.5737 20.222 26.7123 19.216 27.6862L16.9478 29.8824C16.276 30.5328 16.675 30.8092 16.8554 30.8922L17.341 31.0805C17.3491 31.0725 17.3567 31.0645 17.3652 31.0563Z" fill="#231F20"/>
<path opacity="0.1" d="M22.6399 33.5824L33.8678 22.7114C35.4883 21.1424 38.0583 21.1604 39.6583 22.732C39.6344 22.7061 39.6114 22.6797 39.5867 22.6541L38.9453 21.9917C37.3515 20.3456 34.7252 20.3032 33.0791 21.8969L21.8513 32.7679C21.4003 33.2045 21.3886 33.924 21.8254 34.3751L22.614 35.1896C22.1772 34.7385 22.1889 34.019 22.6399 33.5824Z" fill="#231F20"/>
<path opacity="0.1" d="M28.9775 31.0499C29.6378 30.4106 30.6218 30.3123 31.3821 30.7452C31.2946 30.5795 31.1831 30.4229 31.0462 30.2815C30.2699 29.4797 28.9907 29.4591 28.1889 30.2354C27.3871 31.0117 27.3664 32.2909 28.1427 33.0927C28.2797 33.2341 28.4324 33.3507 28.5953 33.4434C28.1871 32.6694 28.3172 31.6892 28.9775 31.0499Z" fill="#231F20"/>
</g>
<defs>
<filter id="filter0_i_3196_2459" x="2.46094" y="3.46362" width="57.0781" height="60.0728" filterUnits="userSpaceOnUse" color-interpolation-filters="sRGB">
<feFlood flood-opacity="0" result="BackgroundImageFix"/>
<feBlend mode="normal" in="SourceGraphic" in2="BackgroundImageFix" result="shape"/>
<feColorMatrix in="SourceAlpha" type="matrix" values="0 0 0 0 0 0 0 0 0 0 0 0 0 0 0 0 0 0 127 0" result="hardAlpha"/>
<feOffset dy="5"/>
<feGaussianBlur stdDeviation="2"/>
<feComposite in2="hardAlpha" operator="arithmetic" k2="-1" k3="1"/>
<feColorMatrix type="matrix" values="0 0 0 0 0 0 0 0 0 0 0 0 0 0 0 0 0 0 0.21 0"/>
<feBlend mode="normal" in2="shape" result="effect1_innerShadow_3196_2459"/>
</filter>
<filter id="filter1_d_3196_2459" x="12.5723" y="20.7288" width="32.1597" height="32.011" filterUnits="userSpaceOnUse" color-interpolation-filters="sRGB">
<feFlood flood-opacity="0" result="BackgroundImageFix"/>
<feColorMatrix in="SourceAlpha" type="matrix" values="0 0 0 0 0 0 0 0 0 0 0 0 0 0 0 0 0 0 127 0" result="hardAlpha"/>
<feOffset dy="4"/>
<feGaussianBlur stdDeviation="2"/>
<feComposite in2="hardAlpha" operator="out"/>
<feColorMatrix type="matrix" values="0 0 0 0 0 0 0 0 0 0 0 0 0 0 0 0 0 0 0.25 0"/>
<feBlend mode="normal" in2="BackgroundImageFix" result="effect1_dropShadow_3196_2459"/>
<feBlend mode="normal" in="SourceGraphic" in2="effect1_dropShadow_3196_2459" result="shape"/>
</filter>
</defs>
</svg>
