<svg width="362" height="336" viewBox="0 0 362 336" fill="none" xmlns="http://www.w3.org/2000/svg">
<circle cx="198" cy="154.501" r="154.5" fill="#99DD66"/>
<path d="M186.01 47.001C186.01 61.0842 174.593 72.501 160.51 72.501C146.427 72.501 135.01 61.0842 135.01 47.001C135.01 32.9177 146.427 21.501 160.51 21.501C174.593 21.501 186.01 32.9177 186.01 47.001Z" fill="#FFF5C9"/>
<path d="M175.145 127.799H108.025L142.409 53.8828L175.145 127.799Z" fill="#3C3D78"/>
<path d="M165.799 127.799H108.025L142.409 53.8828L165.799 127.799Z" fill="#575884"/>
<path d="M148.195 72.2344L142.384 53.8828L133.854 72.2344L140.659 69.9404L142.333 72.2344H148.195Z" fill="white"/>
<path d="M155.094 127.757H108.025L132.137 76.0156L155.094 127.757Z" fill="#575884"/>
<path d="M148.467 127.757H108.025L132.095 76.0156L148.467 127.757Z" fill="#575884"/>
<path fill-rule="evenodd" clip-rule="evenodd" d="M120.15 135.037C120.292 135.457 122.806 144.127 114.67 146.264C107.896 148.042 106.934 141.764 107.299 138.402C104.343 137.443 99.3135 134.376 102.849 129.773L104.667 128.377C102.213 126.164 99.086 121.148 106.206 118.788C105.601 116.089 105.558 110.141 110.222 107.936C110.792 105.746 113.024 101.016 117.402 99.6212C120.529 97.2691 128.05 93.5796 133.111 97.639C135.716 97.2608 141.158 98.0971 142.082 104.468C144.713 104.185 150.172 104.609 150.961 108.565C152.599 109.258 155.898 111.678 155.987 115.818C158.532 117.191 162.754 121.144 159.278 125.976C158.879 128.02 156.762 131.841 151.488 130.777C149.62 131.982 145.291 133.324 142.92 129.047C142.535 128.803 142.037 128.434 141.538 127.983C140.418 126.97 139.295 125.538 139.447 124.142C138.753 124.459 137.529 124.879 135.976 125.189C135.531 125.279 135.058 125.359 134.563 125.424C132.858 125.651 130.888 125.71 128.852 125.393C128.633 125.48 128.379 125.582 128.104 125.694C127.643 125.88 127.121 126.094 126.596 126.314C125.267 126.869 123.923 127.456 123.53 127.71C123.536 128.493 123.442 129.614 123.169 130.752C123.109 131 123.041 131.248 122.963 131.494C122.697 132.341 122.4 132.972 121.878 133.624C121.437 134.174 120.814 134.793 120.147 135.028L120.146 135.028C120.147 135.031 120.148 135.034 120.15 135.037Z" fill="#59B836"/>
<path fill-rule="evenodd" clip-rule="evenodd" d="M157.15 132.037C157.292 132.457 159.806 141.127 151.67 143.264C144.896 145.042 143.934 138.764 144.299 135.402C141.343 134.443 136.314 131.376 139.849 126.773L141.667 125.377C139.213 123.164 136.086 118.148 143.206 115.788C142.601 113.089 142.558 107.141 147.222 104.936C147.792 102.746 150.024 98.0158 154.402 96.6212C157.529 94.2691 165.05 90.5796 170.111 94.639C172.716 94.2608 178.158 95.0971 179.082 101.468C181.713 101.185 187.172 101.609 187.961 105.565C189.599 106.258 192.898 108.678 192.987 112.818C195.532 114.191 199.754 118.144 196.278 122.976C195.879 125.02 193.762 128.841 188.488 127.777C186.62 128.982 182.291 130.324 179.92 126.047C179.535 125.803 179.037 125.434 178.538 124.983C177.418 123.97 176.295 122.538 176.447 121.142C175.753 121.459 174.529 121.879 172.976 122.189C172.531 122.279 172.058 122.359 171.563 122.424C169.858 122.651 167.888 122.71 165.852 122.393C165.633 122.48 165.379 122.582 165.104 122.694C164.643 122.88 164.121 123.094 163.596 123.314C162.267 123.869 160.923 124.456 160.53 124.71C160.536 125.493 160.442 126.614 160.169 127.752C160.109 128 160.041 128.248 159.963 128.494C159.697 129.341 159.4 129.972 158.878 130.624C158.437 131.174 157.814 131.793 157.147 132.028L157.146 132.028C157.147 132.031 157.148 132.034 157.15 132.037Z" fill="#406E63"/>
<path fill-rule="evenodd" clip-rule="evenodd" d="M276.15 147.037C276.292 147.457 278.806 156.127 270.67 158.264C263.896 160.042 262.934 153.764 263.299 150.402C260.343 149.443 255.314 146.376 258.849 141.773L260.667 140.377C258.213 138.164 255.086 133.148 262.206 130.788C261.601 128.089 261.558 122.141 266.222 119.936C266.792 117.746 269.024 113.016 273.402 111.621C276.529 109.269 284.05 105.58 289.111 109.639C291.716 109.261 297.158 110.097 298.082 116.468C300.713 116.185 306.172 116.609 306.961 120.565C308.599 121.258 311.898 123.678 311.987 127.818C314.532 129.191 318.754 133.144 315.278 137.976C314.879 140.02 312.762 143.841 307.488 142.777C305.62 143.982 301.291 145.324 298.92 141.047C298.535 140.803 298.037 140.434 297.538 139.983C296.418 138.97 295.295 137.538 295.447 136.142C294.753 136.459 293.529 136.879 291.976 137.189C291.531 137.279 291.058 137.359 290.563 137.424C288.858 137.651 286.888 137.71 284.852 137.393C284.633 137.48 284.379 137.582 284.104 137.694C283.643 137.88 283.121 138.094 282.596 138.314C281.267 138.869 279.923 139.456 279.53 139.71C279.536 140.493 279.442 141.614 279.169 142.752C279.109 143 279.041 143.248 278.963 143.494C278.697 144.341 278.4 144.972 277.878 145.624C277.437 146.174 276.814 146.793 276.147 147.028L276.146 147.028C276.147 147.031 276.148 147.034 276.15 147.037Z" fill="#406E63"/>
<path fill-rule="evenodd" clip-rule="evenodd" d="M232.15 140.037C232.292 140.457 234.806 149.127 226.67 151.264C219.896 153.042 218.934 146.764 219.299 143.402C216.343 142.443 211.314 139.376 214.849 134.773L216.667 133.377C214.213 131.164 211.086 126.148 218.206 123.788C217.601 121.089 217.558 115.141 222.222 112.936C222.792 110.746 225.024 106.016 229.402 104.621C232.529 102.269 240.05 98.5796 245.111 102.639C247.716 102.261 253.158 103.097 254.082 109.468C256.713 109.185 262.172 109.609 262.961 113.565C264.599 114.258 267.898 116.678 267.987 120.818C270.532 122.191 274.754 126.144 271.278 130.976C270.879 133.02 268.762 136.841 263.488 135.777C261.62 136.982 257.291 138.324 254.92 134.047C254.535 133.803 254.037 133.434 253.538 132.983C252.418 131.97 251.295 130.538 251.447 129.142C250.753 129.459 249.529 129.879 247.976 130.189C247.531 130.279 247.058 130.359 246.563 130.424C244.858 130.651 242.888 130.71 240.852 130.393C240.633 130.48 240.379 130.582 240.104 130.694C239.643 130.88 239.121 131.094 238.596 131.314C237.267 131.869 235.923 132.456 235.53 132.71C235.536 133.493 235.442 134.614 235.169 135.752C235.109 136 235.041 136.248 234.963 136.494C234.697 137.341 234.4 137.972 233.878 138.624C233.437 139.174 232.814 139.793 232.147 140.028L232.146 140.028C232.147 140.031 232.148 140.034 232.15 140.037Z" fill="#406E63"/>
<path fill-rule="evenodd" clip-rule="evenodd" d="M68.1505 154.037C68.2923 154.457 70.8063 163.127 62.6696 165.264C55.896 167.042 54.9337 160.764 55.2993 157.402C52.3428 156.443 47.3135 153.376 50.8488 148.773L52.6667 147.377C50.2131 145.164 47.086 140.148 54.2061 137.788C53.6014 135.089 53.5581 129.141 58.2225 126.936C58.7916 124.746 61.0243 120.016 65.402 118.621C68.5295 116.269 76.0498 112.58 81.1107 116.639C83.7163 116.261 89.1585 117.097 90.0824 123.468C92.7131 123.185 98.1717 123.609 98.9611 127.565C100.599 128.258 103.898 130.678 103.987 134.818C106.532 136.191 110.754 140.144 107.278 144.976C106.879 147.02 104.762 150.841 99.4884 149.777C97.6202 150.982 93.291 152.324 90.9196 148.047C90.5347 147.803 90.0366 147.434 89.5378 146.983C88.4178 145.97 87.2948 144.538 87.4466 143.142C86.7529 143.459 85.5285 143.879 83.9764 144.189C83.5307 144.279 83.0581 144.359 82.5631 144.424C80.8576 144.651 78.8882 144.71 76.8517 144.393C76.6331 144.48 76.3794 144.582 76.1035 144.694C75.6433 144.88 75.1211 145.094 74.5965 145.314C73.2673 145.869 71.9226 146.456 71.5299 146.71C71.5356 147.493 71.442 148.614 71.1685 149.752C71.1089 150 71.0408 150.248 70.9634 150.494C70.6968 151.341 70.3997 151.972 69.8775 152.624C69.4372 153.174 68.8136 153.793 68.1471 154.028L68.1458 154.028C68.1466 154.031 68.1482 154.034 68.1505 154.037Z" fill="#406E63"/>
<path fill-rule="evenodd" clip-rule="evenodd" d="M312.15 157.037C312.292 157.457 314.806 166.127 306.67 168.264C299.896 170.042 298.934 163.764 299.299 160.402C296.343 159.443 291.314 156.376 294.849 151.773L296.667 150.377C294.213 148.164 291.086 143.148 298.206 140.788C297.601 138.089 297.558 132.141 302.222 129.936C302.792 127.746 305.024 123.016 309.402 121.621C312.529 119.269 320.05 115.58 325.111 119.639C327.716 119.261 333.158 120.097 334.082 126.468C336.713 126.185 342.172 126.609 342.961 130.565C344.599 131.258 347.898 133.678 347.987 137.818C350.532 139.191 354.754 143.144 351.278 147.976C350.879 150.02 348.762 153.841 343.488 152.777C341.62 153.982 337.291 155.324 334.92 151.047C334.535 150.803 334.037 150.434 333.538 149.983C332.418 148.97 331.295 147.538 331.447 146.142C330.753 146.459 329.529 146.879 327.976 147.189C327.531 147.279 327.058 147.359 326.563 147.424C324.858 147.651 322.888 147.71 320.852 147.393C320.633 147.48 320.379 147.582 320.104 147.694C319.643 147.88 319.121 148.094 318.596 148.314C317.267 148.869 315.923 149.456 315.53 149.71C315.536 150.493 315.442 151.614 315.169 152.752C315.109 153 315.041 153.248 314.963 153.494C314.697 154.341 314.4 154.972 313.878 155.624C313.437 156.174 312.814 156.793 312.147 157.028L312.146 157.028C312.147 157.031 312.148 157.034 312.15 157.037Z" fill="#59B836"/>
<path d="M44.5 145.001L184.5 109.001L352 145.001L347 186.501C324.667 209.834 277.9 256.401 269.5 256.001C259 255.501 90 230.501 80.5 216.501C71 202.501 49.5 172.501 49.5 168.501C49.5 165.301 46.1667 151.501 44.5 145.001Z" fill="#ABF46F"/>
<mask id="mask0_215_1968" style="mask-type:alpha" maskUnits="userSpaceOnUse" x="-1" y="127" width="360" height="210">
<path d="M45.5 146.001C61.1667 166.668 93.4 208.701 97 211.501L127.5 195.001L162.5 211.501L192 204.501L244 226.501L284 206.001L312 208.501C323.833 193.334 347.9 161.701 349.5 156.501C351.1 151.301 352.167 146.334 352.5 144.501L358 223.001L269 336.001L32.5 290.001L0 128.501L45.5 146.001Z" fill="black" stroke="black"/>
</mask>
<g mask="url(#mask0_215_1968)">
<circle cx="198" cy="154.501" r="154.5" fill="url(#paint0_linear_215_1968)"/>
</g>
<path d="M265.546 123.092C267.34 125.753 272.26 129.84 277.59 124.895C282.919 119.949 284.081 114.077 283.996 111.759C283.91 109.612 282.766 105.113 278.871 104.289C280.323 99.9959 281.382 90.9979 274.002 89.3494C271.098 88.6626 264.06 88.5252 259.14 93.4706C254.271 91.6677 244.79 90.8436 245.815 101.971C242.826 103.688 238.743 108.359 246.328 113.304C244.278 115.966 241.305 121.907 245.815 124.38C247.097 125.925 251.248 128.089 257.603 124.38C258.543 124.037 260.627 123.401 261.447 123.607L265.546 123.092Z" fill="#51AE1F"/>
<path d="M262.471 137.001H266.059L265.546 123.092L261.447 123.607L262.471 137.001Z" fill="#6E7760"/>
<path d="M102.001 126.268C104.82 130.427 112.551 136.813 120.927 129.085C129.302 121.358 131.128 112.182 130.993 108.56C130.859 105.206 129.06 98.1761 122.94 96.8882C125.222 90.1805 126.886 76.1212 115.289 73.5454C110.726 72.4722 99.6656 72.2575 91.9343 79.9848C84.2836 77.1677 69.3848 75.88 70.9955 93.2664C66.2978 95.9495 59.8821 103.247 71.8012 110.975C68.5795 115.133 63.9081 124.417 70.9955 128.281C73.0092 130.695 79.533 134.076 89.5188 128.281C90.9955 127.744 94.2708 126.751 95.5589 127.073L102.001 126.268Z" fill="#51AE1F"/>
<path d="M97.169 148.001H102.806L102.001 126.268L95.5589 127.073L97.169 148.001Z" fill="#6E7760"/>
<path d="M151.198 155.007C153.803 158.833 160.949 164.708 168.69 157.598C176.431 150.489 178.118 142.047 177.994 138.715C177.87 135.629 176.207 129.162 170.55 127.977C172.659 121.806 174.198 108.872 163.479 106.502C159.262 105.514 149.039 105.317 141.894 112.426C134.823 109.834 121.053 108.65 122.541 124.645C118.199 127.114 112.27 133.828 123.286 140.937C120.308 144.763 115.991 153.304 122.541 156.858C124.402 159.08 130.432 162.19 139.661 156.858C141.026 156.365 144.053 155.451 145.244 155.747L151.198 155.007Z" fill="#575884"/>
<path d="M146.732 175.001H151.942L151.198 155.007L145.244 155.747L146.732 175.001Z" fill="#6E7760"/>
<path d="M185.622 169.41C187.117 171.628 191.216 175.034 195.658 170.913C200.1 166.791 201.068 161.897 200.996 159.966C200.925 158.177 199.971 154.428 196.726 153.741C197.936 150.163 198.818 142.665 192.668 141.291C190.248 140.719 184.383 140.604 180.283 144.726C176.226 143.223 168.325 142.536 169.179 151.809C166.688 153.24 163.286 157.132 169.607 161.254C167.898 163.472 165.421 168.423 169.179 170.483C170.247 171.771 173.707 173.574 179.002 170.483C179.785 170.197 181.522 169.668 182.205 169.84L185.622 169.41Z" fill="#51AE1F"/>
<path d="M183.059 181.001H186.049L185.622 169.41L182.205 169.84L183.059 181.001Z" fill="#6E7760"/>
<path d="M257.258 165.438C258.497 167.268 261.894 170.078 265.574 166.678C269.254 163.278 270.056 159.241 269.997 157.647C269.938 156.171 269.148 153.078 266.458 152.511C267.461 149.56 268.192 143.374 263.097 142.241C261.092 141.768 256.232 141.674 252.835 145.074C249.473 143.834 242.927 143.268 243.634 150.918C241.57 152.098 238.751 155.309 243.988 158.709C242.573 160.539 240.52 164.624 243.634 166.324C244.519 167.387 247.386 168.874 251.773 166.324C252.422 166.088 253.861 165.651 254.427 165.793L257.258 165.438Z" fill="#51AE1F"/>
<path d="M255.135 175.001H257.612L257.258 165.438L254.427 165.793L255.135 175.001Z" fill="#6E7760"/>
<path d="M200.119 120.302L199.723 135.001H205.266V120.302L231 118.713L223.874 111.165L221.102 103.22L225.853 104.015C222.026 98.0559 214.372 85.4231 214.372 82.5628C214.372 79.9547 215.249 81.1121 215.804 82.24L210.017 69.8502H211.6L206.849 63.0968L208.829 61.1105L202.494 48.001L196.16 62.3023C196.292 62.5671 196.714 63.0968 197.347 63.0968C197.981 63.0968 194.972 67.5991 193.388 69.8502C193.652 70.2475 194.259 71.042 194.576 71.042C194.893 71.042 189.429 80.0465 186.658 84.5488C187.449 84.8136 189.271 85.1844 190.221 84.5488C191.171 83.9132 183.226 97.2613 179.135 104.015H183.49C184.678 104.015 171.613 117.919 172.009 120.302C172.326 122.209 190.881 121.097 200.119 120.302Z" fill="#406E63"/>
<path d="M219.319 131.137C222.01 135.13 229.39 141.26 237.384 133.842C245.379 126.424 247.122 117.615 246.994 114.137C246.865 110.918 245.149 104.169 239.306 102.933C241.484 96.4934 243.073 82.9964 232.003 80.5236C227.647 79.4933 217.09 79.2873 209.71 86.7055C202.407 84.001 188.185 82.7648 189.723 99.4558C185.239 102.032 179.115 109.038 190.492 116.456C187.417 120.448 182.958 129.36 189.723 133.069C191.645 135.388 197.872 138.633 207.404 133.069C208.814 132.554 211.94 131.601 213.17 131.91L219.319 131.137Z" fill="#64BD34"/>
<path d="M214.707 152.001H220.088L219.319 131.137L213.17 131.91L214.707 152.001Z" fill="#6E7760"/>
<mask id="mask1_215_1968" style="mask-type:alpha" maskUnits="userSpaceOnUse" x="43" y="0" width="310" height="310">
<circle cx="198" cy="154.501" r="154.5" fill="#99DD66"/>
</mask>
<g mask="url(#mask1_215_1968)">
<path d="M343 47.001H391V81.001H288C278.611 81.001 271 73.3898 271 64.001C271 62.6231 271.165 61.2838 271.475 60.001H240C230.611 60.001 223 52.3898 223 43.001C223 33.6121 230.611 26.001 240 26.001H343V47.001Z" fill="#BDE99A"/>
</g>
<g clip-path="url(#clip0_215_1968)">
<path d="M300.292 96.1449C300.154 96.7117 300.247 97.31 300.551 97.8082C300.854 98.3065 301.343 98.6637 301.91 98.8015C302.476 98.9393 303.075 98.8463 303.573 98.5429C304.071 98.2396 304.428 97.7507 304.566 97.1839C304.704 96.6171 304.611 96.0188 304.308 95.5206C304.004 95.0224 303.515 94.6651 302.949 94.5273C302.382 94.3895 301.784 94.4826 301.285 94.7859C300.787 95.0893 300.43 95.5781 300.292 96.1449Z" fill="#FFEB4D"/>
<path d="M314.689 101.483L317.895 102.263L305.07 155.023L301.865 154.243L314.689 101.483Z" fill="#DAE5FF"/>
<path d="M325.457 136.913L298.209 130.289C297.622 130.146 297.258 129.549 297.4 128.961L298.439 124.687C298.582 124.099 299.18 123.735 299.768 123.878L327.016 130.501L330.511 134.746L325.457 136.913Z" fill="#6E7760"/>
<path d="M294.581 118.444L321.829 125.068C322.417 125.211 323.015 124.847 323.157 124.259L324.196 119.985C324.339 119.397 323.975 118.799 323.388 118.657L296.139 112.033L291.086 114.2L294.581 118.444Z" fill="#96522D"/>
<path d="M330.49 116.21L303.242 109.586C302.654 109.443 302.29 108.846 302.433 108.258L303.472 103.984C303.615 103.396 304.212 103.032 304.8 103.175L332.048 109.798L335.543 114.043L330.49 116.21Z" fill="#575884"/>
<path d="M287.755 143.033C287.411 144.45 287.643 145.946 288.402 147.192C289.16 148.437 290.382 149.33 291.799 149.675C293.216 150.019 294.712 149.787 295.957 149.028C297.203 148.27 298.096 147.048 298.441 145.631C298.785 144.214 298.552 142.718 297.794 141.472C297.036 140.227 295.813 139.334 294.396 138.989C292.979 138.645 291.484 138.877 290.238 139.636C288.993 140.394 288.099 141.616 287.755 143.033Z" fill="#575884"/>
<path d="M290.695 151.599L277.605 148.417L278.547 144.544C279.422 140.944 283.083 138.715 286.683 139.59C290.282 140.465 292.512 144.126 291.637 147.726L290.695 151.599Z" fill="#6E7760"/>
<path d="M298.976 153.612L288.224 150.998L288.767 148.761C289.487 145.802 292.492 143.972 295.45 144.692C298.409 145.411 300.239 148.416 299.52 151.375L298.976 153.612Z" fill="#96522D"/>
<path d="M288.203 140.787C287.701 140.495 287.147 140.269 286.553 140.124C283.481 139.377 280.381 141.071 279.303 143.964C280.831 144.285 282.557 144.373 283.56 144.171C285.367 143.811 284.812 141.787 287.171 142.064C287.913 142.152 288.638 142.194 289.499 141.795C289.375 141.666 289.243 141.542 289.102 141.423C288.82 141.184 288.519 140.97 288.203 140.787ZM294.267 139.524C292.804 139.168 291.328 139.51 290.195 140.33C290.074 140.421 289.953 140.512 289.837 140.611C290.123 140.858 290.385 141.119 290.627 141.404C290.67 141.401 290.722 141.392 290.765 141.389C291.405 141.318 291.916 141.018 292.422 140.886C293.276 140.662 294.238 141.419 295.453 141.715C295.954 141.836 296.512 141.809 297.171 141.517C296.481 140.518 295.447 139.809 294.267 139.524Z" fill="white"/>
</g>
<defs>
<linearGradient id="paint0_linear_215_1968" x1="198" y1="0.000976562" x2="198" y2="309.001" gradientUnits="userSpaceOnUse">
<stop stop-color="#96522D"/>
<stop offset="1" stop-color="#5A3521"/>
</linearGradient>
<clipPath id="clip0_215_1968">
<rect width="70.379" height="70.379" fill="white" transform="translate(280.624 84.001) rotate(13.6625)"/>
</clipPath>
</defs>
</svg>
