<svg width="73" height="79" viewBox="0 0 73 79" fill="none" xmlns="http://www.w3.org/2000/svg">
<g filter="url(#filter0_d_2774_8)">
<path d="M63.1813 14.1817L20.845 4.65728C19.3335 10.8312 17.1072 20.2712 15.4095 28.2534C17.1826 26.5744 25.0505 28.8832 28.7628 30.2474C31.0343 29.7484 34.6168 24.061 38.7755 24.1308C42.9342 24.2006 52.318 29.1976 54.4525 28.6677C56.16 28.2438 59.4545 27.1476 60.8883 26.6525L63.1813 14.1817Z" fill="#9CCEFF"/>
<path fill-rule="evenodd" clip-rule="evenodd" d="M13.0773 43.0241C13.9616 44.7237 42.1267 50.1846 56.0986 52.7026L60.0476 31.2251C57.5539 31.6742 51.5534 32.0847 47.5011 30.1341C42.4358 27.6959 39.6244 25.4761 38.2811 26.3283C36.9379 27.1805 33.3821 34.0282 31.0529 33.5043C28.7237 32.9803 16.8835 28.585 14.8045 31.1475C13.516 37.4327 12.7009 42.3008 13.0773 43.0241ZM45.3813 35.7176C46.1131 35.536 47.7342 36.7761 48.4533 37.4188C49.5167 36.7442 51.9052 35.5115 52.9518 35.9778C53.9985 36.4442 52.4073 37.9717 51.4809 38.6771C52.393 39.3152 54.1491 40.8935 53.8772 42.1021C53.6053 43.3108 51.5484 43.0693 50.554 42.7975C50.5557 43.856 50.1872 46.0915 48.6988 46.5647C47.2105 47.0379 46.8582 44.0824 46.8681 42.5454C45.6027 42.838 42.9995 43.2335 42.7094 42.4756C42.4193 41.7178 44.727 40.3322 45.9171 39.7342C45.4336 38.471 44.6495 35.8993 45.3813 35.7176Z" fill="#FFE4BB"/>
<path d="M48.4533 37.4188C47.7342 36.7761 46.1131 35.536 45.3813 35.7176C44.6495 35.8993 45.4336 38.471 45.9171 39.7342C44.727 40.3322 42.4193 41.7178 42.7094 42.4756C42.9995 43.2335 45.6027 42.838 46.8681 42.5454C46.8582 44.0824 47.2105 47.0379 48.6988 46.5647C50.1872 46.0915 50.5557 43.856 50.554 42.7975C51.5484 43.0693 53.6053 43.3108 53.8772 42.1021C54.1491 40.8935 52.393 39.3152 51.4809 38.6771C52.4073 37.9717 53.9985 36.4442 52.9518 35.9778C51.9052 35.5115 49.5167 36.7442 48.4533 37.4188Z" fill="#FEA062"/>
<path fill-rule="evenodd" clip-rule="evenodd" d="M18.2232 0.315756L36.7197 4.4769C38.6926 4.92076 58.7148 8.65558 68.4793 10.4675C65.5537 26.8844 59.6743 59.9715 59.5614 60.9851C59.4486 61.9986 58.1137 67.6337 57.4603 70.3245C43.9876 67.2936 16.7434 61.2799 15.5485 61.4728C14.3535 61.6657 7.46038 59.4608 4.16318 58.3342C6.74876 48.3342 12.0435 27.7847 12.5379 25.5872C13.1559 22.8403 13.8962 15.0706 14.2052 13.6971C14.5142 12.3237 16.88 1.16793 18.2232 0.315756ZM20.845 4.65728L63.1813 14.1817L60.8883 26.6525L60.0476 31.2251L56.0986 52.7026C42.1267 50.1846 13.9616 44.7237 13.0773 43.0241C12.7009 42.3008 13.516 37.4327 14.8045 31.1475C14.9965 30.2113 15.1989 29.2435 15.4095 28.2534C17.1072 20.2712 19.3335 10.8312 20.845 4.65728Z" fill="#FFFEF0"/>
<path d="M38.7755 24.1308C34.6168 24.061 31.0343 29.7484 28.7628 30.2474C25.0505 28.8832 17.1826 26.5744 15.4095 28.2534C15.1989 29.2435 14.9965 30.2113 14.8045 31.1475C16.8835 28.585 28.7237 32.9803 31.0529 33.5043C33.3821 34.0282 36.9379 27.1805 38.2811 26.3283C39.6244 25.4761 42.4358 27.6959 47.5011 30.1341C51.5534 32.0847 57.5539 31.6742 60.0476 31.2251L60.8883 26.6525C59.4545 27.1476 56.16 28.2438 54.4525 28.6677C52.318 29.1976 42.9342 24.2006 38.7755 24.1308Z" fill="#E2EEFB"/>
</g>
<defs>
<filter id="filter0_d_2774_8" x="0.163086" y="0.315674" width="72.3164" height="78.0088" filterUnits="userSpaceOnUse" color-interpolation-filters="sRGB">
<feFlood flood-opacity="0" result="BackgroundImageFix"/>
<feColorMatrix in="SourceAlpha" type="matrix" values="0 0 0 0 0 0 0 0 0 0 0 0 0 0 0 0 0 0 127 0" result="hardAlpha"/>
<feOffset dy="4"/>
<feGaussianBlur stdDeviation="2"/>
<feComposite in2="hardAlpha" operator="out"/>
<feColorMatrix type="matrix" values="0 0 0 0 0.878431 0 0 0 0 0.560784 0 0 0 0 0.560784 0 0 0 1 0"/>
<feBlend mode="normal" in2="BackgroundImageFix" result="effect1_dropShadow_2774_8"/>
<feBlend mode="normal" in="SourceGraphic" in2="effect1_dropShadow_2774_8" result="shape"/>
</filter>
</defs>
</svg>
