<svg width="112" height="112" viewBox="0 0 112 112" fill="none" xmlns="http://www.w3.org/2000/svg">
<g filter="url(#filter0_d_2644_134)">
<circle cx="56" cy="56" r="31" fill="#C2BDBD"/>
</g>
<g filter="url(#filter1_d_2644_134)">
<path d="M56 29L65.9651 32.8718L75.799 37.0546L80.0578 46.7129L84 56.5L80.0578 66.2871L75.799 75.9454L65.9651 80.1282L56 84L46.0349 80.1282L36.201 75.9454L31.9422 66.2871L28 56.5L31.9422 46.7129L36.201 37.0546L46.0349 32.8718L56 29Z" fill="#D9D9D9"/>
</g>
<g filter="url(#filter2_d_2644_134)">
<path d="M56 44.5C57.3807 44.5 58.5 45.6193 58.5 47V53.5H65C66.3807 53.5 67.5 54.6193 67.5 56C67.5 57.3807 66.3807 58.5 65 58.5H58.5V65C58.5 66.3807 57.3807 67.5 56 67.5C54.6193 67.5 53.5 66.3807 53.5 65V58.5H47C45.6193 58.5 44.5 57.3807 44.5 56C44.5 54.6193 45.6193 53.5 47 53.5H53.5V47C53.5 45.6193 54.6193 44.5 56 44.5Z" fill="#7B7C76"/>
<path d="M56 44.5C57.3807 44.5 58.5 45.6193 58.5 47V53.5H65C66.3807 53.5 67.5 54.6193 67.5 56C67.5 57.3807 66.3807 58.5 65 58.5H58.5V65C58.5 66.3807 57.3807 67.5 56 67.5C54.6193 67.5 53.5 66.3807 53.5 65V58.5H47C45.6193 58.5 44.5 57.3807 44.5 56C44.5 54.6193 45.6193 53.5 47 53.5H53.5V47C53.5 45.6193 54.6193 44.5 56 44.5Z" fill="black" fill-opacity="0.2"/>
</g>
<defs>
<filter id="filter0_d_2644_134" x="0.6" y="0.6" width="110.8" height="110.8" filterUnits="userSpaceOnUse" color-interpolation-filters="sRGB">
<feFlood flood-opacity="0" result="BackgroundImageFix"/>
<feColorMatrix in="SourceAlpha" type="matrix" values="0 0 0 0 0 0 0 0 0 0 0 0 0 0 0 0 0 0 127 0" result="hardAlpha"/>
<feOffset/>
<feGaussianBlur stdDeviation="12.2"/>
<feComposite in2="hardAlpha" operator="out"/>
<feColorMatrix type="matrix" values="0 0 0 0 0.780392 0 0 0 0 0.929412 0 0 0 0 0.427451 0 0 0 1 0"/>
<feBlend mode="lighten" in2="BackgroundImageFix" result="effect1_dropShadow_2644_134"/>
<feBlend mode="normal" in="SourceGraphic" in2="effect1_dropShadow_2644_134" result="shape"/>
</filter>
<filter id="filter1_d_2644_134" x="23.1" y="24.1" width="65.8" height="64.8" filterUnits="userSpaceOnUse" color-interpolation-filters="sRGB">
<feFlood flood-opacity="0" result="BackgroundImageFix"/>
<feColorMatrix in="SourceAlpha" type="matrix" values="0 0 0 0 0 0 0 0 0 0 0 0 0 0 0 0 0 0 127 0" result="hardAlpha"/>
<feOffset/>
<feGaussianBlur stdDeviation="2.45"/>
<feComposite in2="hardAlpha" operator="out"/>
<feColorMatrix type="matrix" values="0 0 0 0 0.158998 0 0 0 0 0.226131 0 0 0 0 0 0 0 0 0.66 0"/>
<feBlend mode="normal" in2="BackgroundImageFix" result="effect1_dropShadow_2644_134"/>
<feBlend mode="normal" in="SourceGraphic" in2="effect1_dropShadow_2644_134" result="shape"/>
</filter>
<filter id="filter2_d_2644_134" x="27.3" y="27.3" width="57.4" height="57.4" filterUnits="userSpaceOnUse" color-interpolation-filters="sRGB">
<feFlood flood-opacity="0" result="BackgroundImageFix"/>
<feColorMatrix in="SourceAlpha" type="matrix" values="0 0 0 0 0 0 0 0 0 0 0 0 0 0 0 0 0 0 127 0" result="hardAlpha"/>
<feOffset/>
<feGaussianBlur stdDeviation="8.6"/>
<feComposite in2="hardAlpha" operator="out"/>
<feColorMatrix type="matrix" values="0 0 0 0 0.780392 0 0 0 0 0.929412 0 0 0 0 0.427451 0 0 0 1 0"/>
<feBlend mode="hard-light" in2="BackgroundImageFix" result="effect1_dropShadow_2644_134"/>
<feBlend mode="normal" in="SourceGraphic" in2="effect1_dropShadow_2644_134" result="shape"/>
</filter>
</defs>
</svg>
