<svg width="115" height="115" viewBox="0 0 115 115" fill="none" xmlns="http://www.w3.org/2000/svg">
<path d="M61.7532 25.0534C63.9048 25.0812 65.943 25.568 67.7736 26.4182C69.5448 27.2409 71.1206 28.4047 72.4159 29.8226L72.4344 29.8161C72.4979 29.7936 72.4628 29.8055 72.4806 29.7993C72.4783 29.8002 72.479 29.8001 72.4849 29.7982L72.4868 29.7971L72.5371 29.7807C72.6839 29.7306 72.4825 29.7972 72.5936 29.7602C72.674 29.7333 72.6105 29.7537 72.6526 29.74C72.6783 29.7312 72.7362 29.7127 72.6526 29.74L72.653 29.7411L72.702 29.7256C72.7935 29.6964 72.6421 29.7451 72.7492 29.7114C72.899 29.6644 72.7041 29.7235 72.8096 29.6912C72.9022 29.6628 72.8236 29.6859 72.8729 29.6712C72.8999 29.6628 72.9558 29.6464 72.8729 29.6712L72.8732 29.6723L72.9594 29.6473L72.9617 29.6473C73.0509 29.6216 72.9843 29.6398 73.0278 29.6276C73.1044 29.6062 73.0379 29.6244 73.03 29.6273C73.0339 29.6265 73.0519 29.6221 73.0984 29.6095L73.0984 29.6072L73.1337 29.5978L73.136 29.5978L73.1714 29.5884L73.1737 29.5885C73.277 29.5615 73.1868 29.5838 73.2483 29.5682C73.3047 29.5539 73.2149 29.5772 73.323 29.5508L73.3529 29.5436L73.3553 29.5413L73.3852 29.5342L73.3875 29.5342C73.4415 29.5214 73.3565 29.542 73.468 29.5167C73.5718 29.4931 73.491 29.51 73.5487 29.4975L73.5736 29.4921L73.5759 29.4921L73.6009 29.4868L73.6032 29.4868C73.7198 29.4621 73.6387 29.478 73.6898 29.4677C73.7275 29.4601 73.6777 29.4706 73.7767 29.4516L73.779 29.4516L73.8004 29.4476L73.8027 29.4476L73.8241 29.4436C73.9418 29.4216 73.8581 29.4357 73.9151 29.4257C73.9629 29.4173 73.8947 29.4298 74.0088 29.411L74.0088 29.4087L74.0443 29.4029L74.0467 29.4029C74.0868 29.3965 74.0395 29.4046 74.1447 29.3888C74.1607 29.3864 74.162 29.3867 74.2404 29.3757L74.2427 29.3734L74.2705 29.3696C74.2959 29.3662 74.2798 29.3689 74.3724 29.3573C74.3911 29.355 74.3876 29.3559 74.4747 29.346L74.4771 29.3437L74.4994 29.3413L74.4996 29.3433C74.6185 29.33 74.5511 29.3361 74.6027 29.3309C74.6123 29.33 74.6284 29.3288 74.7081 29.3217L74.7105 29.3218L74.7269 29.3203L74.836 29.3122C74.9686 29.3023 74.8859 29.3067 74.9455 29.303L74.9556 29.3023C74.9669 29.3017 75.0044 29.2997 75.0681 29.2966C75.0836 29.2958 75.1219 29.2943 75.1809 29.2921L75.1889 29.2919C75.2103 29.2911 75.2489 29.29 75.3039 29.2886C75.3304 29.288 75.3683 29.2873 75.4191 29.2867L75.4223 29.2867C75.4542 29.2863 75.4933 29.2861 75.5393 29.2861C75.6985 29.2862 75.5736 29.2836 75.6566 29.2847C77.5974 29.3097 79.3919 29.9284 80.8654 30.9639C82.0836 31.8199 83.0807 32.9608 83.7584 34.2864C83.7632 34.2953 83.7678 34.3043 83.7721 34.3135C83.8621 34.4909 83.9464 34.6716 84.0246 34.8553C84.1945 34.8404 84.3631 34.8285 84.5304 34.8198C84.8601 34.8026 85.1815 34.7957 85.4939 34.7997C88.7774 34.8422 91.7941 35.9562 94.2076 37.8009C96.5923 39.6235 98.3864 42.1605 99.2653 45.0821C102.376 46.072 105.05 48.0132 106.94 50.5546C108.849 53.1213 109.959 56.2987 109.915 59.7257C109.861 63.9157 108.092 67.687 105.277 70.397C102.461 73.107 98.5979 74.7558 94.3554 74.701C94.2159 74.6992 94.0375 74.6931 93.8219 74.6829L93.7072 74.6772C92.9506 76.2718 91.7588 77.6221 90.2848 78.5808C88.735 79.5888 86.8767 80.1652 84.8874 80.1395C84.5572 80.1353 84.2215 80.1128 83.8818 80.0732C83.7683 80.06 83.6558 80.0449 83.5444 80.028C83.1115 83.3881 81.466 86.3675 79.0591 88.5316C76.5156 90.8184 73.1225 92.1944 69.4126 92.1465C67.9195 92.1272 66.4795 91.8766 65.1274 91.4296C63.8901 91.0206 62.7305 90.4469 61.6752 89.7354C60.9448 90.3674 60.1067 90.8799 59.1922 91.2426C58.1588 91.6525 57.0296 91.8716 55.8502 91.8564C54.0958 91.8337 52.4672 91.2954 51.1099 90.3888C49.9253 89.5976 48.9504 88.5268 48.2818 87.2746C47.4195 87.9009 46.4609 88.4088 45.4313 88.774C44.2008 89.2104 42.8758 89.4406 41.5 89.4229C38.8801 89.389 36.4798 88.4671 34.5883 86.9502C33.3665 85.9705 32.3583 84.7427 31.6416 83.3461C31.6389 83.3411 31.6363 83.3361 31.6338 83.331L31.6303 83.3239C31.3098 82.6958 31.048 82.0337 30.8523 81.3447C30.699 81.3745 30.5438 81.3996 30.3868 81.4201C30.0287 81.4668 29.6671 81.4888 29.3042 81.4841C27.236 81.4574 25.3743 80.6052 24.0363 79.2491C22.6982 77.893 21.8838 76.0329 21.9102 73.9904C21.9117 73.8667 21.9172 73.7381 21.9262 73.6047C18.7019 73.2598 15.8341 71.7626 13.7475 69.543C11.5376 67.1923 10.2032 64.0329 10.2478 60.575C10.2791 58.1561 10.9828 55.8987 12.1816 53.9737C13.2084 52.3248 14.5987 50.9223 16.2405 49.8735C16.4609 49.718 16.6946 49.5747 16.9349 49.444C16.9291 49.3614 16.9241 49.2769 16.9199 49.1907C16.9085 48.9581 16.904 48.7372 16.9067 48.5288C16.945 45.5646 18.1872 42.8938 20.1684 40.9635C22.0307 39.149 24.5464 37.9898 27.3291 37.8574C27.3377 37.7812 27.3472 37.7052 27.357 37.6294L27.3573 37.6271C27.358 37.6205 27.3589 37.6139 27.3599 37.6073C27.7733 34.4752 29.3026 31.6961 31.5372 29.6666C33.9432 27.4815 37.1653 26.1646 40.6903 26.2101C42.6672 26.2357 44.5396 26.6883 46.2189 27.4782C47.7352 28.1914 49.0921 29.1804 50.2245 30.3788C50.2475 30.3516 50.2707 30.3246 50.294 30.2978C50.2983 30.2929 50.3027 30.288 50.3071 30.2832C51.6031 28.7383 53.2178 27.4657 55.05 26.563C57.068 25.5689 59.3475 25.0223 61.7532 25.0534ZM80.7899 69.4786C80.7399 69.1572 80.9632 68.8566 81.2886 68.8074C81.614 68.7581 81.9184 68.9788 81.9684 69.3002C82.0585 69.8807 82.0638 70.4798 81.9774 71.08C81.8941 71.6579 81.7251 72.2351 81.4642 72.7956C80.7338 74.365 79.4243 75.5044 77.8976 76.078C76.3694 76.6521 74.6217 76.6625 73.0168 75.9731C72.7143 75.8432 72.5756 75.4957 72.7071 75.197C72.8385 74.8982 73.1903 74.7614 73.4928 74.8913C74.8004 75.453 76.2257 75.4439 77.4731 74.9753C78.722 74.5062 79.7907 73.5796 80.3831 72.3068C80.5943 71.853 80.7312 71.3854 80.7986 70.9172C80.868 70.4354 80.8633 69.951 80.7899 69.4786ZM27.6991 53.8167C27.986 53.6574 28.3494 53.7581 28.5107 54.0415C28.672 54.3249 28.5702 54.6837 28.2833 54.843C27.7661 55.1293 27.331 55.5358 26.9892 56.0186C26.4776 56.7411 26.1758 57.6311 26.1184 58.5479C26.061 59.4644 26.2478 60.4031 26.7132 61.2227C27.0296 61.7799 27.4764 62.284 28.0648 62.6904C28.3344 62.8772 28.3996 63.2444 28.2106 63.5106C28.0215 63.7767 27.6498 63.841 27.3802 63.6543C26.6391 63.1422 26.075 62.5051 25.6742 61.7993C25.0923 60.7745 24.8582 59.6092 24.9291 58.4772C25 57.3455 25.3756 56.2424 26.0131 55.3422C26.4539 54.7196 27.0204 54.1925 27.6991 53.8167ZM84.9763 37.8938C85.0405 38.2129 84.8307 38.5228 84.5076 38.5861C84.1846 38.6494 83.8707 38.4421 83.8065 38.123C83.7042 37.6217 83.5416 37.0697 83.37 36.5597C83.2498 36.2021 83.1248 35.8635 83.0126 35.5758C82.8795 35.2345 82.7645 34.965 82.697 34.8213C82.1069 33.6644 81.2379 32.6691 80.1762 31.923C78.8965 31.0238 77.3345 30.4865 75.6413 30.4646C75.4847 30.4626 75.6239 30.4617 75.5381 30.4616C75.5106 30.4616 75.4764 30.4619 75.4351 30.4623L75.4319 30.4623C75.4106 30.4626 75.3762 30.4634 75.3307 30.4645C75.3136 30.4649 75.2802 30.466 75.2297 30.4679L75.2263 30.468C75.2172 30.4684 75.1956 30.4694 75.1604 30.4712C75.1505 30.4717 75.1396 30.4722 75.1275 30.4728L75.0189 30.4794C74.8909 30.4874 74.988 30.4794 74.9235 30.4842L74.8143 30.4937C74.8003 30.495 74.798 30.4958 74.7229 30.5033C74.605 30.5151 74.6882 30.5052 74.6313 30.5115L74.6289 30.5138L74.6066 30.5163L74.6064 30.5143C74.5867 30.5166 74.5996 30.5156 74.5207 30.5255C74.4915 30.5291 74.5214 30.5259 74.4328 30.538L74.405 30.5418L74.4047 30.5399C74.3903 30.542 74.3935 30.5419 74.3211 30.5528C74.277 30.5594 74.3368 30.5509 74.2392 30.5667L74.2038 30.5729L74.2034 30.5706C74.148 30.5798 74.2294 30.5669 74.1242 30.5854C74.0096 30.6056 74.1028 30.5876 74.0425 30.5988L74.0234 30.6024L74.0043 30.6065C73.9602 30.615 74.0193 30.6046 73.9269 30.6232C73.8225 30.6442 73.9096 30.6252 73.852 30.6374L73.8293 30.6427L73.8045 30.6486C73.6961 30.6722 73.7864 30.6512 73.7332 30.6633C73.6728 30.6771 73.7651 30.6566 73.6643 30.6804L73.6345 30.6881L73.6341 30.6865L73.607 30.6931C73.5456 30.7081 73.6446 30.6844 73.5416 30.7106C73.4349 30.7376 73.5305 30.7122 73.4786 30.7258L73.4456 30.7352L73.4104 30.7453C73.4051 30.7469 73.3887 30.7508 73.3537 30.7606L73.3514 30.7606C73.2625 30.7854 73.3384 30.7631 73.2947 30.7757L73.2173 30.799C73.2403 30.7925 73.3344 30.7656 73.2177 30.8004C73.1293 30.8268 73.2174 30.7994 73.1638 30.8159C73.0195 30.8601 73.2193 30.7967 73.1081 30.8316C73.0309 30.8559 73.1869 30.8071 73.0656 30.8459L73.025 30.8589C73.0389 30.8547 73.1507 30.8196 73.0255 30.8604C72.9472 30.8859 73.0202 30.8613 72.9759 30.876L72.9316 30.8907C72.9254 30.893 72.9103 30.8983 72.8809 30.9086L72.8785 30.9085C72.8155 30.9304 72.8729 30.9098 72.8355 30.923C72.7632 30.9487 72.8955 30.9021 72.7896 30.9403C72.653 30.9896 72.8677 30.9108 72.7421 30.9571C72.6655 30.9852 72.8031 30.935 72.6954 30.9753C72.6407 30.9958 72.6847 30.9787 72.6511 30.9915L72.6227 31.0024C72.6172 31.0047 72.5996 31.0118 72.5615 31.0269L72.5355 31.0371C72.5297 31.0397 72.5113 31.0474 72.4714 31.0638L72.0717 31.2278L71.7897 30.9005C70.555 29.468 69.0161 28.297 67.2697 27.4858C65.59 26.7056 63.7174 26.2589 61.7379 26.2333C59.5244 26.2047 57.4315 26.7054 55.5825 27.6163C53.8977 28.4463 52.4135 29.616 51.2232 31.0356C51.2155 31.0457 51.2074 31.0557 51.1989 31.0655L51.183 31.0838C51.1054 31.1773 51.0289 31.2719 50.9538 31.3676C50.8837 31.4568 50.8148 31.547 50.747 31.638C50.5637 31.8931 50.3969 32.1553 50.2496 32.4134C49.9533 32.9323 49.7355 33.4307 49.6208 33.8185C49.5292 34.1305 49.1987 34.3099 48.8828 34.2193C48.567 34.1286 48.3852 33.8023 48.4769 33.4903C48.615 33.0232 48.8698 32.436 49.2115 31.8376C49.3043 31.6751 49.4035 31.5115 49.5085 31.3489C48.4478 30.1831 47.1573 29.2238 45.7058 28.5411C44.1818 27.8242 42.4782 27.4134 40.6751 27.3901C37.4646 27.3486 34.5316 28.5466 32.3428 30.5344C30.3013 32.3885 28.9066 34.9294 28.5372 37.7923C28.4641 38.4498 28.4386 39.2253 28.4451 39.9393C28.4527 40.7849 28.504 41.533 28.573 41.8834C28.6359 42.2024 28.425 42.5114 28.102 42.5734C27.779 42.6354 27.4661 42.427 27.4032 42.108C27.3226 41.6986 27.2631 40.8661 27.2548 39.947C27.2521 39.6505 27.2547 39.3438 27.2634 39.0382C24.8335 39.1842 22.6389 40.2095 21.007 41.7995C19.2422 43.519 18.1356 45.9 18.1014 48.5442C18.0998 48.6739 18.1003 48.7978 18.103 48.9162C18.1935 48.8827 18.2835 48.8509 18.3728 48.8209C18.8969 48.6444 19.3933 48.528 19.7891 48.4757C20.1157 48.4328 20.4158 48.6596 20.4593 48.9822C20.5028 49.3048 20.2733 49.6011 19.9467 49.644C19.522 49.7001 18.9491 49.8485 18.3565 50.0824C18.2298 50.1325 18.1026 50.1863 17.9763 50.2437L17.841 50.3135C15.9299 51.2992 14.322 52.7822 13.1958 54.5907C12.109 56.3358 11.471 58.3872 11.4425 60.5905C11.4223 62.153 11.7113 63.6481 12.2534 65.019C12.8025 66.4075 13.6112 67.6685 14.6213 68.743C15.9845 70.193 17.7141 71.3039 19.6671 71.9306C20.605 72.2315 21.5943 72.4207 22.6193 72.4822L23.2692 72.5211L23.1731 73.1554C23.1527 73.2897 23.1363 73.4313 23.1241 73.5803C23.1133 73.7114 23.1068 73.8532 23.1048 74.0058C23.0827 75.7227 23.7671 77.2861 24.8917 78.4258C26.0163 79.5656 27.5811 80.2817 29.3194 80.3042C29.6341 80.3083 29.9394 80.2903 30.2339 80.2519C30.3501 80.2367 30.4656 80.2183 30.5803 80.1968C30.3687 79.2924 30.2212 78.3688 30.1954 77.5947C30.1854 77.27 30.4438 76.9988 30.7726 76.989C31.1014 76.9793 31.3761 77.2346 31.386 77.5593C31.4119 78.3333 31.5776 79.2925 31.81 80.2188C32.0618 81.223 32.3896 82.1772 32.7005 82.8062C33.3409 84.0594 34.2433 85.1605 35.3375 86.038C37.0241 87.3905 39.1693 88.2127 41.5153 88.243C42.7532 88.259 43.9375 88.0546 45.0301 87.6671C46.1639 87.265 47.2065 86.6629 48.1147 85.9026L48.7376 85.3812L49.0523 86.1268C49.6186 87.4688 50.5722 88.6115 51.776 89.4155C52.9419 90.1943 54.3466 90.6568 55.8655 90.6765C56.8865 90.6897 57.8605 90.5013 58.7489 90.149C59.674 89.7821 60.5081 89.2381 61.2077 88.559L61.5687 88.2086L61.9762 88.5044C63.0402 89.2769 64.2284 89.892 65.5059 90.3144C66.7355 90.7209 68.053 90.9488 69.4278 90.9666C72.8251 91.0105 75.9311 89.7515 78.2582 87.6592C80.4551 85.684 81.9587 82.9657 82.3587 79.8993C82.4203 79.303 82.4496 78.7738 82.4604 78.3145C82.4714 77.8491 82.4629 77.4444 82.4501 77.1139C82.4375 76.7892 82.6939 76.5159 83.0227 76.5036C83.3515 76.4913 83.6283 76.7446 83.6408 77.0694C83.6539 77.4062 83.6624 77.8278 83.6503 78.3391C83.6465 78.5014 83.6405 78.6717 83.6319 78.8498C83.7605 78.8709 83.8893 78.8891 84.0183 78.9041C84.2992 78.9369 84.5941 78.9557 84.9027 78.9596C86.6504 78.9822 88.2776 78.4792 89.63 77.5997C91.0263 76.6916 92.1333 75.3835 92.7816 73.8387L92.9487 73.4404L93.3791 73.4753C93.5644 73.4903 93.7297 73.5013 93.8744 73.5081C94.0005 73.5141 94.1654 73.5184 94.3706 73.5211C98.2834 73.5716 101.846 72.0511 104.443 69.5518C107.039 67.0526 108.671 63.5746 108.721 59.7103C108.761 56.5477 107.738 53.6174 105.979 51.2521C104.363 49.0799 102.127 47.3832 99.5247 46.4194C99.6129 46.9264 99.6698 47.41 99.6971 47.8635C99.7161 48.1884 99.4649 48.4668 99.136 48.4855C98.8071 48.5042 98.525 48.2559 98.506 47.9311C98.4757 47.4268 98.4071 46.8893 98.2979 46.3303C98.1943 45.8005 98.0522 45.242 97.8691 44.6634C96.997 42.299 95.4592 40.247 93.4768 38.7318C91.3678 37.1199 88.7544 36.1164 85.9032 35.9917C85.7623 35.9855 85.6207 35.9815 85.4787 35.9797C85.1689 35.9757 84.8727 35.9813 84.5899 35.9961C84.5383 35.9988 84.487 36.0017 84.4359 36.0049C84.4572 36.0665 84.4785 36.1288 84.4996 36.1917C84.5036 36.2033 84.5075 36.2149 84.5114 36.2265C84.6959 36.7781 84.8689 37.3672 84.9763 37.8938ZM70.3887 38.2378C70.0955 38.3854 69.7365 38.2704 69.5869 37.9808C69.4373 37.6912 69.5536 37.3366 69.8468 37.189C70.2648 36.978 70.6992 36.8196 71.1417 36.7104C72.5613 36.3603 74.061 36.519 75.367 37.0809C76.679 37.6454 77.8027 38.619 78.4636 39.8957C78.6564 40.2683 78.8096 40.6666 78.9163 41.088C78.996 41.4034 78.8017 41.7229 78.4823 41.8015C78.1629 41.8801 77.8394 41.6881 77.7597 41.3727C77.6755 41.0402 77.5544 40.7254 77.4018 40.4306C76.8724 39.4078 75.9608 38.623 74.891 38.1627C73.8153 37.6999 72.5867 37.5675 71.4303 37.8528C71.0745 37.9405 70.725 38.068 70.3887 38.2378ZM9.74643 39.6512L16.1837 45.0245L11.0316 38.527C10.6032 38.9017 10.1748 39.2765 9.74643 39.6512ZM110.205 32.1762C111.21 32.1891 112.115 32.6032 112.765 33.2622C113.415 33.9211 113.811 34.8249 113.798 35.8174C113.785 36.8099 113.366 37.7032 112.699 38.3451C112.032 38.9871 111.117 39.3776 110.112 39.3646C109.107 39.3517 108.203 38.9376 107.553 38.2786C106.902 37.6197 106.507 36.7158 106.519 35.7234C106.532 34.7309 106.951 33.8376 107.618 33.1957C108.285 32.5537 109.2 32.1632 110.205 32.1762ZM111.909 34.0855C111.473 33.6429 110.865 33.3648 110.19 33.3561C109.515 33.3473 108.9 33.6097 108.452 34.0408C108.004 34.472 107.723 35.072 107.714 35.7388C107.706 36.4056 107.971 37.0127 108.408 37.4553C108.845 37.8979 109.452 38.176 110.127 38.1847C110.803 38.1934 111.417 37.9311 111.865 37.5C112.313 37.0688 112.595 36.4687 112.603 35.802C112.612 35.1352 112.346 34.5281 111.909 34.0855ZM93.56 55.6863C93.2773 55.5197 93.1848 55.1584 93.3534 54.8792C93.522 54.6001 93.8878 54.5088 94.1705 54.6754C94.8393 55.0686 95.392 55.6102 95.8166 56.244C96.4306 57.1604 96.7776 58.2728 96.8192 59.406C96.8609 60.5394 96.5968 61.6983 95.9885 62.7077C95.5696 63.4029 94.9892 64.0253 94.2352 64.518C93.9609 64.6977 93.5909 64.6238 93.4088 64.3529C93.2267 64.0819 93.3014 63.7165 93.5757 63.5368C94.1744 63.1456 94.6341 62.6533 94.9648 62.1045C95.4512 61.2972 95.6622 60.3636 95.6285 59.4459C95.5948 58.528 95.3161 57.6304 94.8233 56.8949C94.4941 56.4035 94.0696 55.9859 93.56 55.6863ZM53.9027 79.5616C54.1592 79.3575 54.5348 79.3974 54.7416 79.6508C54.9485 79.9043 54.9081 80.2752 54.6516 80.4794C54.3313 80.734 53.979 80.9493 53.6037 81.126C52.3418 81.72 50.8282 81.8625 49.4145 81.5875C47.9903 81.3104 46.6567 80.6091 45.7672 79.5177C45.5292 79.2257 45.3222 78.9042 45.153 78.5537C45.0112 78.2604 45.1369 77.9091 45.4339 77.7691C45.7308 77.6291 46.0865 77.7534 46.2284 78.0467C46.3551 78.3092 46.5128 78.5533 46.6962 78.7783C47.4035 79.6462 48.4825 80.2074 49.6441 80.4334C50.8162 80.6615 52.0618 80.5477 53.09 80.0637C53.3796 79.9273 53.6528 79.7602 53.9027 79.5616ZM41.7523 42.0774C41.6992 42.3988 41.3923 42.6167 41.0669 42.5641C40.7415 42.5115 40.5208 42.2084 40.5739 41.887C40.6714 41.3087 40.8563 40.7369 41.1295 40.1903C41.3911 39.6671 41.7339 39.171 42.1587 38.719C43.3471 37.4546 44.9512 36.7763 46.584 36.7018C48.2166 36.6272 49.8799 37.1557 51.1869 38.3048C51.4328 38.5206 51.4552 38.8924 51.2368 39.1352C51.0185 39.3781 50.642 39.4001 50.396 39.1843C49.3307 38.2477 47.9729 37.817 46.6388 37.878C45.3049 37.9388 43.9967 38.4905 43.0305 39.5185C42.6862 39.8848 42.4084 40.287 42.1963 40.7112C41.9797 41.1444 41.8319 41.605 41.7523 42.0774ZM96.684 91.5199L89.1307 87.0284L95.5462 92.8922L96.684 91.5199ZM94.1382 94.5984L86.424 87.9827L92.7422 96.0952L94.1382 94.5984ZM14.6145 87.9544L18.724 80.8933L13.293 86.9287L14.6145 87.9544ZM11.6501 85.6595L17.7684 78.4104L10.2058 84.3976L11.6501 85.6595ZM46.0297 102.685L47.3723 95.0843L44.5173 102.194L46.0297 102.685ZM42.639 101.589L45.7078 93.1796L40.9398 100.928L42.639 101.589ZM66.6019 14.3478L65.331 22.6049L68.2506 14.8433L66.6019 14.3478ZM72.337 4.50626C72.3376 4.4563 72.3349 4.38944 72.3287 4.30479C72.2802 3.63972 71.9633 3.0569 71.4902 2.65231C71.018 2.24847 70.3882 2.02257 69.7129 2.0704C69.0395 2.11809 68.4495 2.43086 68.04 2.89796C67.6312 3.36421 67.4027 3.98614 67.4513 4.65317C67.4591 4.75893 67.4721 4.85701 67.4901 4.94739C67.509 5.0425 67.5346 5.1383 67.5664 5.23416L67.8059 5.95611L67.0395 6.00384C66.3661 6.05153 65.7761 6.36466 65.3666 6.83176C64.9579 7.29801 64.7294 7.91994 64.778 8.58697C64.8265 9.25203 65.1434 9.83485 65.6165 10.2394C66.0887 10.6433 66.7184 10.8692 67.3938 10.8213C67.5876 10.8076 67.769 10.7744 67.9364 10.7239C68.1086 10.6719 68.2768 10.5985 68.4383 10.5066L69.0159 10.1777L69.2819 10.7849C69.6091 11.532 70.165 12.1526 70.8567 12.5671C71.5287 12.9698 72.3316 13.1777 73.1801 13.1176C74.2639 13.0408 75.2136 12.5374 75.8727 11.7855C76.5311 11.0345 76.8993 10.0338 76.8211 8.9613C76.7469 7.94504 76.2837 7.04843 75.5859 6.40353C74.8807 5.75189 73.9379 5.35618 72.9158 5.35181L72.2637 5.34901L72.3244 4.71032C72.3321 4.62846 72.3364 4.56009 72.337 4.50626ZM73.5192 4.21335C74.6201 4.34534 75.6223 4.8243 76.3998 5.54282C77.311 6.3848 77.9157 7.55464 78.0123 8.87988C78.1139 10.2734 77.6329 11.5769 76.7729 12.5578C75.9137 13.5378 74.6758 14.1941 73.2629 14.2941C72.1646 14.3719 71.1202 14.0998 70.2416 13.5733C69.5115 13.1358 68.8976 12.5225 68.464 11.7883C68.4041 11.8097 68.3431 11.8298 68.2812 11.8485C68.0192 11.9275 67.7498 11.9786 67.4766 11.9979C66.4762 12.0687 65.5399 11.7312 64.8348 11.1282C64.1306 10.526 63.6589 9.65842 63.5867 8.66839C63.5147 7.68033 63.8561 6.75568 64.4665 6.05953C64.9347 5.52543 65.5615 5.12689 66.2813 4.93862C66.2721 4.86999 66.265 4.80195 66.2601 4.73459C66.188 3.74653 66.5295 2.82189 67.1398 2.12573C67.7494 1.43041 68.6276 0.964833 69.63 0.893844C70.6304 0.822999 71.5668 1.16054 72.2718 1.76353C72.9737 2.36375 73.4445 3.22749 73.5192 4.21335ZM89.8107 20.4468L86.0764 27.2078L91.0819 21.389L89.8107 20.4468ZM91.8511 23.0002L86.2218 29.9807L93.2435 24.1631L91.8511 23.0002ZM7.03581 37.0308C7.05411 36.9247 7.06505 36.8184 7.06898 36.7125L7.09167 36.1003L7.70872 36.1468C8.58623 36.213 9.44347 35.9749 10.1458 35.5028C10.8334 35.0405 11.3734 34.3527 11.6392 33.5051C11.9513 32.5098 11.8259 31.4847 11.3709 30.632C10.9156 29.7787 10.1306 29.0968 9.12408 28.7886C8.11623 28.48 7.0783 28.6035 6.21504 29.0526C5.35119 29.5021 4.66102 30.2771 4.34931 31.2711C4.22946 31.6533 4.17385 32.0384 4.17643 32.4154C4.17905 32.8019 4.24416 33.1847 4.3649 33.5509L4.55666 34.1325L3.9585 34.2994C3.56863 34.4082 3.20854 34.6136 2.91401 34.8971C2.63065 35.1698 2.41075 35.5126 2.28659 35.9085C2.08636 36.547 2.1666 37.2043 2.45816 37.7507C2.75002 38.2976 3.2532 38.7348 3.89843 38.9323C4.54499 39.1303 5.21043 39.0512 5.76359 38.7634C6.31731 38.4754 6.75975 37.9786 6.95955 37.3414C6.99348 37.2332 7.01877 37.1295 7.03581 37.0308ZM8.1897 37.3316C8.16511 37.4536 8.1348 37.5726 8.09861 37.688C7.80142 38.6357 7.14331 39.3747 6.31959 39.8032C5.49529 40.2321 4.50623 40.3506 3.54784 40.0572C2.58815 39.7634 1.83972 39.1131 1.40555 38.2995C0.971081 37.4852 0.850739 36.5083 1.14754 35.5619C1.33408 34.967 1.66082 34.4555 2.08011 34.0519C2.37384 33.7692 2.71443 33.5384 3.08534 33.368C3.02214 33.0592 2.98838 32.7414 2.98618 32.4185C2.98279 31.923 3.05486 31.42 3.21025 30.9245C3.61934 29.6199 4.52521 28.6028 5.65904 28.0129C6.79344 27.4227 8.15498 27.2597 9.47467 27.6638C10.7957 28.0682 11.8258 28.9632 12.4235 30.0832C13.0214 31.2038 13.1869 32.5485 12.7782 33.8518C12.4297 34.9632 11.7196 35.8665 10.8147 36.4749C10.0457 36.9918 9.13661 37.2951 8.1897 37.3316ZM44.4353 15.1917L47.4194 22.9762L46.1119 14.826L44.4353 15.1917ZM47.9905 15.3377L49.8232 24.8112L49.9355 15.0294L47.9905 15.3377ZM50.6288 10.0173C50.6253 10.0359 50.6217 10.0546 50.6179 10.0732C50.576 10.2797 50.517 10.4828 50.4402 10.6805C50.0649 11.646 49.3291 12.3696 48.4429 12.7591C47.5564 13.1486 46.52 13.2044 45.544 12.8341C45.169 12.6918 44.8283 12.4952 44.5274 12.2563C44.3828 12.1415 44.2479 12.017 44.1233 11.8841C43.5211 12.2667 42.8435 12.5246 42.135 12.6382C41.2572 12.7789 40.3309 12.6989 39.4407 12.3612L39.4229 12.3544L39.4218 12.3539C38.0888 11.8424 37.0893 10.8481 36.55 9.65166C36.0081 8.44932 35.9301 7.04364 36.4448 5.71966L36.4516 5.7021L36.4521 5.7011C36.9653 4.39565 37.9608 3.4141 39.1606 2.87881C40.2075 2.41176 41.4084 2.28459 42.5787 2.57824C42.9862 1.83133 43.6258 1.26629 44.3721 0.938344C45.2586 0.548799 46.2949 0.49301 47.271 0.863313L47.2894 0.870357C47.8372 1.08138 48.3084 1.40567 48.6861 1.80605C48.9342 2.06903 49.1414 2.36591 49.3029 2.68585C49.5928 2.60352 49.8939 2.5549 50.1998 2.54282C50.7004 2.52305 51.2119 2.60093 51.7065 2.78858C52.6842 3.15952 53.4172 3.88646 53.8118 4.76181C54.2065 5.63747 54.2633 6.66103 53.8887 7.62488C53.5841 8.40842 53.0412 9.03289 52.3726 9.44876C51.8496 9.77411 51.2503 9.9715 50.6288 10.0173ZM49.4493 9.84141C49.4791 9.69509 49.4956 9.55215 49.4995 9.41377L49.5171 8.79135L50.1416 8.84124C50.7091 8.88656 51.2684 8.74538 51.7367 8.45406C52.1936 8.16983 52.5651 7.74214 52.7739 7.20481C53.0314 6.54246 52.9929 5.84046 52.7227 5.24097C52.4523 4.64118 51.9506 4.14325 51.2816 3.88943C50.9389 3.75944 50.5873 3.70538 50.2453 3.71889C49.8903 3.73292 49.5433 3.81971 49.2258 3.96989L48.6027 4.26457L48.3996 3.60888C48.2851 3.23911 48.0849 2.89507 47.8123 2.60607C47.5532 2.33143 47.2273 2.10879 46.846 1.96416C46.1754 1.70987 45.4644 1.74745 44.8576 2.01408C44.2504 2.28092 43.7464 2.77632 43.4896 3.43699L43.479 3.46425C43.4649 3.50224 43.4878 3.44177 43.4689 3.49387L43.2656 4.05513L42.7012 3.84811C41.6693 3.46968 40.5798 3.53553 39.6509 3.95C38.7232 4.36387 37.9537 5.12557 37.5595 6.1397C37.1623 7.16206 37.2217 8.24646 37.6391 9.1725C38.0567 10.099 38.8319 10.8681 39.8656 11.2603C40.5524 11.5207 41.2675 11.5826 41.9447 11.4741C42.6468 11.3615 43.3081 11.0668 43.8562 10.6219L44.3676 10.2067L44.732 10.753C44.8783 10.9723 45.0597 11.1708 45.272 11.3394C45.4748 11.5004 45.7083 11.6343 45.969 11.7333C46.6397 11.9877 47.3505 11.95 47.9574 11.6833C48.5646 11.4165 49.0686 10.9211 49.3254 10.2604C49.3803 10.1192 49.4214 9.97916 49.4493 9.84141ZM22.2429 15.3638C23.2478 15.3768 24.1524 15.7908 24.8026 16.4498C25.4528 17.1087 25.8485 18.0126 25.8357 19.005C25.8229 19.9975 25.4039 20.8908 24.7369 21.5327C24.0699 22.1747 23.1549 22.5653 22.15 22.5523C21.1451 22.5393 20.2405 22.1252 19.5903 21.4662C18.9401 20.8073 18.5444 19.9035 18.5572 18.911C18.57 17.9185 18.989 17.0252 19.656 16.3833C20.323 15.7414 21.238 15.3508 22.2429 15.3638ZM23.9471 17.2731C23.5104 16.8305 22.9027 16.5524 22.2276 16.5437C21.5525 16.535 20.9379 16.7973 20.4899 17.2285C20.0419 17.6596 19.7605 18.2597 19.7519 18.9264C19.7433 19.5932 20.0091 20.2003 20.4458 20.6429C20.8825 21.0855 21.4902 21.3636 22.1653 21.3724C22.8404 21.3811 23.455 21.1187 23.903 20.6876C24.351 20.2564 24.6324 19.6564 24.641 18.9896C24.6497 18.3228 24.3838 17.7157 23.9471 17.2731ZM6.89258 97.5706C6.572 97.7955 6.21544 97.9691 5.83639 98.0819C5.32142 98.235 4.76439 98.2775 4.19878 98.1855C3.20768 98.0244 2.37562 97.4807 1.83157 96.732C1.28873 95.9849 1.03432 95.0338 1.197 94.0558C1.25061 93.7335 1.34849 93.4246 1.48379 93.1342C1.53873 93.0163 1.59993 92.902 1.66691 92.7918C1.22581 92.3534 0.878715 91.8286 0.650344 91.2514C0.36776 90.5371 0.266104 89.7432 0.39188 88.9338L0.391904 88.9319L0.399511 88.8862C0.603525 87.6597 1.29279 86.6303 2.24215 85.9576C3.17753 85.2947 4.36534 84.9798 5.58951 85.1657L5.5916 85.1658L5.63788 85.1733C6.78356 85.3595 7.75981 85.9545 8.43942 86.7832C8.99787 87.4641 9.35454 88.3024 9.43869 89.2007C9.60117 89.2083 9.7584 89.2234 9.9096 89.2461L9.91166 89.2462L9.95792 89.2537C11.1999 89.4556 12.2424 90.1366 12.9239 91.0745C13.5953 91.9985 13.9146 93.1717 13.7267 94.3807L13.7266 94.3828L13.719 94.4285C13.515 95.6551 12.8258 96.6845 11.8764 97.3572C10.9287 98.0287 9.7219 98.3432 8.48067 98.1414C8.11606 98.0822 7.76835 97.9814 7.44172 97.8449C7.25116 97.7653 7.06785 97.6734 6.89258 97.5706ZM5.49159 96.9526C5.85263 96.8452 6.18153 96.6583 6.45315 96.4096L6.8167 96.0767L7.21447 96.3687C7.42523 96.5234 7.65613 96.6548 7.90384 96.7584C8.14503 96.8592 8.40245 96.9337 8.67307 96.9777C9.59155 97.127 10.4839 96.8948 11.184 96.3987C11.8823 95.9038 12.3897 95.1447 12.5406 94.2386C12.6915 93.3315 12.4561 92.4496 11.9536 91.758C11.4523 91.0682 10.6835 90.5668 9.76605 90.4176C9.61309 90.3927 9.47013 90.378 9.33842 90.3732C9.19779 90.3681 9.05507 90.3722 8.9112 90.385L8.23103 90.4458L8.26332 89.7728C8.30352 88.9351 8.02176 88.1405 7.51504 87.5226C7.01528 86.9133 6.29448 86.4752 5.44605 86.3372C4.52758 86.1878 3.63468 86.42 2.93454 86.9161C2.23622 87.4109 1.72886 88.17 1.578 89.0761C1.47635 89.6872 1.54978 90.2867 1.76206 90.8232C1.98248 91.3803 2.35152 91.871 2.82872 92.2395L3.3149 92.615L2.91586 93.0819C2.77657 93.2449 2.65792 93.428 2.56492 93.6276C2.47713 93.816 2.4125 94.0231 2.3754 94.2462C2.26574 94.9055 2.43675 95.546 2.80189 96.0485C3.16584 96.5494 3.72437 96.9134 4.39118 97.0218C4.77202 97.0837 5.14629 97.0553 5.49159 96.9526ZM74.0194 102.918C75.0243 102.931 75.9289 103.345 76.5791 104.004C77.2293 104.663 77.6251 105.567 77.6123 106.559C77.5994 107.551 77.1804 108.445 76.5135 109.087C75.8465 109.729 74.9315 110.119 73.9266 110.106C72.9217 110.093 72.0171 109.679 71.3669 109.02C70.7167 108.361 70.3209 107.457 70.3337 106.465C70.3466 105.473 70.7655 104.579 71.4325 103.937C72.0995 103.295 73.0145 102.905 74.0194 102.918ZM75.7237 104.827C75.287 104.384 74.6793 104.106 74.0042 104.098C73.3291 104.089 72.7144 104.351 72.2664 104.782C71.8184 105.214 71.537 105.814 71.5284 106.48C71.5198 107.147 71.7856 107.754 72.2223 108.197C72.659 108.639 73.2667 108.918 73.9418 108.926C74.6169 108.935 75.2316 108.673 75.6796 108.242C76.1276 107.81 76.409 107.21 76.4176 106.544C76.4262 105.877 76.1604 105.27 75.7237 104.827ZM39.0222 112.997C37.6541 113.34 36.2735 113.102 35.1474 112.441L35.148 112.44C34.022 111.778 33.1518 110.693 32.8041 109.343C32.5194 108.237 32.6599 107.147 33.0799 106.188C33.4153 105.422 33.9295 104.741 34.5468 104.204C35.1687 103.664 35.8995 103.267 36.6627 103.076C37.4896 102.869 38.3532 102.901 39.1618 103.246L44.6747 105.603C45.7246 106.052 46.4436 106.708 46.8717 107.445C47.2575 108.11 47.4051 108.836 47.3448 109.537C47.2848 110.235 47.017 110.909 46.5715 111.474C46.0691 112.111 45.344 112.605 44.4407 112.832C43.7137 113.014 42.9816 112.977 42.3162 112.763C41.8279 112.606 41.3758 112.353 40.9884 112.021C40.7827 112.186 40.5625 112.337 40.329 112.47C39.9269 112.7 39.4891 112.879 39.0222 112.997ZM35.7579 111.43C36.62 111.936 37.6784 112.118 38.7289 111.854C39.0917 111.763 39.4272 111.627 39.7308 111.453C40.0465 111.272 40.3317 111.05 40.5809 110.795L41.0431 110.323L41.4673 110.827C41.7874 111.208 42.2115 111.491 42.6854 111.643C43.1422 111.79 43.646 111.815 44.1474 111.69C44.7836 111.53 45.2887 111.189 45.6333 110.752C45.9341 110.371 46.115 109.913 46.1559 109.438C46.1964 108.967 46.097 108.478 45.8373 108.031C45.5302 107.502 44.997 107.024 44.2033 106.685L38.6904 104.328C38.1379 104.092 37.5378 104.073 36.956 104.218C36.3781 104.363 35.8174 104.67 35.3335 105.09C34.845 105.515 34.4389 106.052 34.1754 106.654C33.8541 107.387 33.7454 108.217 33.9607 109.054C34.228 110.092 34.8944 110.924 35.7556 111.43L35.7579 111.43ZM95.4439 99.957C95.7508 99.3697 96.1988 98.9013 96.7257 98.5714C97.0923 98.3419 97.4975 98.1795 97.9203 98.0907C97.9034 97.7015 97.9267 97.31 97.9922 96.9224C98.088 96.3549 98.2752 95.7893 98.5601 95.2441C99.2912 93.845 100.528 92.871 101.937 92.4274C103.343 91.9842 104.922 92.0714 106.339 92.7939C107.756 93.5164 108.742 94.7382 109.192 96.1295C109.641 97.519 109.553 99.0781 108.822 100.477C108.117 101.827 106.943 102.781 105.598 103.245C104.427 103.649 103.127 103.681 101.894 103.28L101.86 103.345L101.856 103.349C101.391 104.179 100.636 104.758 99.7807 105.028C98.9399 105.293 98.0016 105.256 97.1452 104.863L97.1381 104.863L96.9155 104.749L96.9118 104.746C96.071 104.285 95.484 103.54 95.2109 102.695C94.9425 101.865 94.9787 100.938 95.3768 100.092L95.3769 100.085L95.4439 99.957ZM97.3616 99.5661C97.0082 99.7875 96.7076 100.101 96.5017 100.495L96.5012 100.496C96.1913 101.089 96.1543 101.751 96.345 102.341C96.5221 102.889 96.8969 103.375 97.4326 103.687L97.536 103.688L97.6422 103.796C98.2197 104.062 98.8535 104.087 99.4218 103.908C100.018 103.72 100.541 103.307 100.851 102.714L100.853 102.711C100.88 102.659 100.907 102.6 100.935 102.533C100.962 102.47 100.985 102.408 101.005 102.347L101.209 101.722L101.815 101.991C102.92 102.482 104.131 102.504 105.206 102.133C106.274 101.765 107.206 101.008 107.765 99.938C108.345 98.8271 108.415 97.5883 108.058 96.4836C107.701 95.3806 106.918 94.4115 105.793 93.8378C104.668 93.2642 103.414 93.1953 102.295 93.5476C101.179 93.8993 100.198 94.6723 99.6173 95.7833C99.3948 96.2091 99.2475 96.6575 99.1706 97.1128C99.0906 97.5859 99.0876 98.0597 99.1561 98.5176L99.2531 99.1662L98.5873 99.1902C98.1532 99.2058 97.7292 99.336 97.3616 99.5661ZM106.416 80.1126C107.421 80.1256 108.326 80.5397 108.976 81.1986C109.626 81.8576 110.022 82.7614 110.009 83.7539C109.996 84.7463 109.577 85.6396 108.91 86.2816C108.243 86.9235 107.328 87.3141 106.323 87.3011C105.319 87.2881 104.414 86.874 103.764 86.2151C103.114 85.5561 102.718 84.6523 102.731 83.6598C102.743 82.6674 103.162 81.7741 103.829 81.1321C104.496 80.4902 105.411 80.0996 106.416 80.1126ZM108.121 82.0219C107.684 81.5793 107.076 81.3012 106.401 81.2925C105.726 81.2838 105.111 81.5461 104.663 81.9773C104.215 82.4084 103.934 83.0085 103.925 83.6753C103.917 84.342 104.183 84.9492 104.619 85.3918C105.056 85.8344 105.664 86.1125 106.339 86.1212C107.014 86.1299 107.628 85.8676 108.076 85.4364C108.524 85.0053 108.806 84.4052 108.814 83.7384C108.823 83.0717 108.557 82.4645 108.121 82.0219ZM99.0173 13.1004C100.43 13.1186 101.702 13.7007 102.616 14.627C103.53 15.5533 104.086 16.8238 104.068 18.2189C104.053 19.3587 103.631 20.3764 102.972 21.1968C102.449 21.8488 101.774 22.3747 101.037 22.7352C100.291 23.0997 99.4814 23.2968 98.6978 23.2867C97.8456 23.2757 97.0196 23.0235 96.3272 22.4814L91.6192 18.7959C90.7235 18.0948 90.2011 17.2775 89.9806 16.4551C89.7827 15.7168 89.8307 14.9786 90.0729 14.3162C90.3149 13.6544 90.75 13.0707 91.3266 12.6403C91.9782 12.154 92.8078 11.8622 93.7399 11.8742C94.4885 11.8839 95.1857 12.107 95.7733 12.4844C96.2043 12.7612 96.5751 13.1212 96.8627 13.5409C97.1061 13.4329 97.3589 13.3434 97.6194 13.2741C98.067 13.155 98.536 13.0941 99.0173 13.1004ZM101.76 15.4503C101.06 14.7404 100.085 14.2942 99.0021 14.2803C98.6273 14.2754 98.2667 14.3216 97.9268 14.412C97.5724 14.5064 97.239 14.6476 96.9343 14.8283L96.3643 15.1664L96.0858 14.5684C95.8768 14.1196 95.5421 13.7391 95.1258 13.4717C94.7238 13.2135 94.2435 13.0609 93.7246 13.0541C93.0683 13.0457 92.4907 13.2462 92.0426 13.5807C91.6505 13.8734 91.3555 14.2679 91.1926 14.7133C91.03 15.1579 90.9985 15.6559 91.1327 16.1565C91.2905 16.7453 91.6806 17.3431 92.3593 17.8744L97.0672 21.5598C97.5371 21.9277 98.1116 22.099 98.713 22.1068C99.3129 22.1145 99.9348 21.9627 100.509 21.682C101.092 21.3971 101.625 20.9813 102.039 20.4656C102.54 19.8409 102.862 19.0676 102.873 18.2035C102.887 17.1341 102.461 16.1602 101.76 15.4503ZM72.0144 29.9754C72.0052 29.9789 72.0074 29.9784 72.0144 29.9754ZM72.5152 31.044C72.4416 31.0736 72.4864 31.0558 72.5167 31.044C72.5364 31.0357 72.5896 31.0141 72.5152 31.044ZM72.1081 29.9384L72.1186 29.9341C72.1126 29.9366 72.1081 29.9384 72.1081 29.9384ZM72.1186 29.9341C72.1249 29.9315 72.1243 29.9315 72.1243 29.9315L72.1186 29.9341ZM72.6051 31.0079C72.5271 31.0382 72.5705 31.0216 72.6017 31.0098C72.6175 31.0033 72.6704 30.9825 72.6051 31.0079ZM72.3873 29.8321C72.3913 29.8304 72.3873 29.8317 72.3807 29.834L72.3873 29.8321ZM72.4845 29.7971C72.5592 29.7711 72.5034 29.7913 72.4849 29.7982L72.4845 29.7971ZM72.9242 30.892C72.9007 30.8996 72.8511 30.9168 72.9242 30.892C72.9923 30.8688 72.9399 30.8862 72.9242 30.892ZM72.6526 29.74C72.6411 29.7439 72.6363 29.7463 72.653 29.7411L72.6526 29.74ZM72.8729 29.6712C72.8599 29.6752 72.8538 29.6778 72.8732 29.6723L72.8729 29.6712ZM73.2173 30.799C73.2117 30.8006 73.2103 30.8011 73.2173 30.799ZM73.4098 30.7431C73.3963 30.7462 73.3256 30.7659 73.4098 30.7431Z" fill="#D9D9D9"/>
<path fill-rule="evenodd" clip-rule="evenodd" d="M84.9763 37.8938C85.0405 38.2129 84.8307 38.5228 84.5076 38.5861C84.1846 38.6494 83.8707 38.4421 83.8065 38.123C83.7042 37.6217 83.5416 37.0697 83.37 36.5597C83.2498 36.2021 83.1248 35.8635 83.0126 35.5758C82.8795 35.2345 82.7645 34.965 82.697 34.8213C82.1069 33.6644 81.2379 32.6691 80.1762 31.923C78.8965 31.0238 77.3345 30.4865 75.6413 30.4646C75.4847 30.4626 75.6239 30.4617 75.5381 30.4616C75.5106 30.4616 75.4764 30.4619 75.4351 30.4623L75.4319 30.4623C75.4106 30.4626 75.3762 30.4634 75.3307 30.4645C75.3136 30.4649 75.2802 30.466 75.2297 30.4679L75.2263 30.468C75.2172 30.4684 75.1956 30.4694 75.1604 30.4712L75.1275 30.4728L75.0189 30.4794C74.8909 30.4874 74.988 30.4794 74.9235 30.4842L74.8143 30.4937C74.8003 30.495 74.798 30.4958 74.7229 30.5033C74.605 30.5151 74.6882 30.5052 74.6313 30.5115L74.6289 30.5138L74.6066 30.5163L74.6064 30.5143C74.5867 30.5166 74.5996 30.5156 74.5207 30.5255C74.4915 30.5291 74.5214 30.5259 74.4328 30.538L74.405 30.5418L74.4047 30.5399C74.3903 30.542 74.3935 30.5419 74.3211 30.5528C74.277 30.5594 74.3368 30.5509 74.2392 30.5667L74.2038 30.5729L74.2034 30.5706C74.148 30.5798 74.2294 30.5669 74.1242 30.5854C74.0096 30.6056 74.1028 30.5876 74.0425 30.5988L74.0234 30.6024L74.0043 30.6065C73.9602 30.615 74.0193 30.6046 73.9269 30.6232C73.8225 30.6442 73.9096 30.6252 73.852 30.6374L73.8293 30.6427L73.8045 30.6486C73.6961 30.6722 73.7864 30.6512 73.7332 30.6633C73.6728 30.6771 73.7651 30.6566 73.6643 30.6804L73.6345 30.6881L73.6341 30.6865L73.607 30.6931C73.5456 30.7081 73.6446 30.6844 73.5416 30.7106C73.4349 30.7376 73.5305 30.7122 73.4786 30.7258L73.4456 30.7352L73.4104 30.7453C73.4051 30.7469 73.3887 30.7508 73.3537 30.7606L73.3514 30.7606C73.2625 30.7854 73.3384 30.7631 73.2947 30.7757L73.2173 30.799C73.2403 30.7925 73.3344 30.7656 73.2177 30.8004C73.1293 30.8268 73.2174 30.7994 73.1638 30.8159C73.0195 30.8601 73.2193 30.7967 73.1081 30.8316C73.0309 30.8559 73.1869 30.8071 73.0656 30.8459L73.025 30.8589C73.0389 30.8547 73.1507 30.8196 73.0255 30.8604C72.9472 30.8859 73.0202 30.8613 72.9759 30.876L72.9316 30.8907C72.9254 30.893 72.9103 30.8983 72.8809 30.9086L72.8785 30.9085C72.8155 30.9304 72.8729 30.9098 72.8355 30.923C72.7632 30.9487 72.8955 30.9021 72.7896 30.9403C72.653 30.9896 72.8677 30.9108 72.7421 30.9571C72.6655 30.9852 72.8031 30.935 72.6954 30.9753C72.6407 30.9958 72.6847 30.9787 72.6511 30.9915L72.6227 31.0024C72.6172 31.0047 72.5996 31.0118 72.5615 31.0269L72.5355 31.0371C72.5297 31.0397 72.5113 31.0474 72.4714 31.0638L72.0717 31.2278L71.7897 30.9005C70.555 29.468 69.0161 28.297 67.2697 27.4858C65.59 26.7056 63.7174 26.2589 61.7379 26.2333C59.5244 26.2047 57.4315 26.7054 55.5825 27.6163C53.8977 28.4463 52.4135 29.616 51.2232 31.0356C51.2155 31.0457 51.2074 31.0557 51.1989 31.0655L51.183 31.0838C51.1054 31.1773 51.0289 31.2719 50.9538 31.3676C50.8837 31.4568 50.8148 31.547 50.747 31.638C50.5637 31.8931 50.3969 32.1553 50.2496 32.4134C49.9533 32.9323 49.7355 33.4307 49.6208 33.8185C49.5292 34.1305 49.1987 34.3099 48.8828 34.2193C48.567 34.1286 48.3852 33.8023 48.4769 33.4903C48.615 33.0232 48.8698 32.436 49.2115 31.8376C49.3043 31.6751 49.4035 31.5115 49.5085 31.3489C48.4478 30.1831 47.1573 29.2238 45.7058 28.5411C44.1818 27.8242 42.4782 27.4134 40.6751 27.3901C37.4646 27.3486 34.5316 28.5466 32.3428 30.5344C30.3013 32.3885 28.9066 34.9294 28.5372 37.7923C28.4641 38.4498 28.4386 39.2253 28.4451 39.9393C28.4527 40.7849 28.504 41.533 28.573 41.8834C28.6359 42.2024 28.425 42.5114 28.102 42.5734C27.779 42.6354 27.4661 42.427 27.4032 42.108C27.3226 41.6986 27.2631 40.8661 27.2548 39.947C27.2521 39.6505 27.2547 39.3438 27.2634 39.0382C24.8335 39.1842 22.6389 40.2095 21.007 41.7995C19.2422 43.519 18.1356 45.9 18.1014 48.5442C18.0998 48.6739 18.1003 48.7978 18.103 48.9162C18.1935 48.8827 18.2835 48.8509 18.3728 48.8209C18.8969 48.6444 19.3933 48.528 19.7891 48.4757C20.1157 48.4328 20.4158 48.6596 20.4593 48.9822C20.5028 49.3048 20.2733 49.6011 19.9467 49.644C19.522 49.7001 18.9491 49.8485 18.3565 50.0824C18.2298 50.1325 18.1026 50.1863 17.9763 50.2437L17.841 50.3135C15.9299 51.2992 14.322 52.7822 13.1958 54.5907C12.109 56.3358 11.471 58.3872 11.4425 60.5905C11.4223 62.153 11.7113 63.6481 12.2534 65.019C13.9556 67.8766 16.862 70.2585 19.6671 71.9306C20.605 72.2315 21.5943 72.4207 22.6193 72.4822L23.2692 72.5211L23.1731 73.1554C23.1527 73.2897 23.1363 73.4313 23.1241 73.5803C23.1133 73.7114 23.1068 73.8532 23.1048 74.0058C23.0827 75.7227 23.7671 77.2861 24.8917 78.4258C26.0163 79.5656 27.5811 80.2817 29.3194 80.3042C29.6341 80.3083 29.9394 80.2903 30.2339 80.2519C30.3501 80.2367 30.4656 80.2183 30.5803 80.1968C30.3687 79.2924 30.2212 78.3688 30.1954 77.5947C30.1854 77.27 30.4438 76.9988 30.7726 76.989C31.1014 76.9793 31.3761 77.2346 31.386 77.5593C31.4119 78.3333 31.5776 79.2925 31.81 80.2188C32.0618 81.223 32.3896 82.1772 32.7005 82.8062C33.3409 84.0594 34.2433 85.1605 35.3375 86.038C37.0241 87.3905 39.1693 88.2127 41.5153 88.243C42.7532 88.259 43.9375 88.0546 45.0301 87.6671C46.1639 87.265 47.2065 86.6629 48.1147 85.9026L48.7376 85.3812L49.0523 86.1268C49.6186 87.4688 50.5722 88.6115 51.776 89.4155C52.9419 90.1943 54.3466 90.6568 55.8655 90.6765C56.8865 90.6897 57.8605 90.5013 58.7489 90.149C59.674 89.7821 60.5081 89.2381 61.2077 88.559L61.5687 88.2086L61.9762 88.5044C63.0402 89.2769 64.2284 89.892 65.5059 90.3144C66.7355 90.7209 68.053 90.9488 69.4278 90.9666C72.8251 91.0105 75.9311 89.7515 78.2582 87.6592C80.4551 85.684 81.9587 82.9657 82.3587 79.8993C82.4203 79.303 82.4496 78.7738 82.4604 78.3145C82.4714 77.8491 82.4629 77.4444 82.4501 77.1139C82.4375 76.7892 82.6939 76.5159 83.0227 76.5036C83.3515 76.4913 83.6283 76.7446 83.6408 77.0694C83.6539 77.4062 83.6624 77.8278 83.6503 78.3391C83.6465 78.5014 83.6405 78.6717 83.6319 78.8498C83.7605 78.8709 83.8893 78.8891 84.0183 78.9041C84.2992 78.9369 84.5941 78.9557 84.9027 78.9596C86.6504 78.9822 88.2776 78.4792 89.63 77.5997C91.0263 76.6916 92.1333 75.3835 92.7816 73.8387L92.9487 73.4404L93.3791 73.4753C93.5644 73.4903 93.7297 73.5013 93.8744 73.5081C94.0005 73.5141 94.1654 73.5184 94.3706 73.5211C98.2834 73.5716 101.846 72.0511 104.443 69.5518C107.039 67.0526 108.671 63.5746 108.721 59.7103C108.761 56.5477 107.738 53.6174 105.979 51.2521C104.363 49.0799 102.127 47.3832 99.5247 46.4194C99.6129 46.9264 99.6698 47.41 99.6971 47.8635C99.7161 48.1884 99.4649 48.4668 99.136 48.4855C98.8071 48.5042 98.525 48.2559 98.506 47.9311C98.4757 47.4268 98.4071 46.8893 98.2979 46.3303C98.1943 45.8005 98.0522 45.242 97.8691 44.6634C96.997 42.299 95.4592 40.247 93.4768 38.7318C91.3678 37.1199 88.7544 36.1164 85.9032 35.9917C85.4113 36.0451 84.9447 36.1261 84.5114 36.2265C84.6959 36.7781 84.8689 37.3672 84.9763 37.8938ZM81.2886 68.8074C80.9632 68.8566 80.7399 69.1572 80.7899 69.4786C80.8633 69.951 80.868 70.4354 80.7986 70.9172C80.7312 71.3854 80.5943 71.853 80.3831 72.3068C79.7907 73.5796 78.722 74.5062 77.4731 74.9753C76.2257 75.4439 74.8004 75.453 73.4928 74.8913C73.1903 74.7614 72.8385 74.8982 72.7071 75.197C72.5756 75.4957 72.7143 75.8432 73.0168 75.9731C74.6217 76.6625 76.3694 76.6521 77.8976 76.078C79.4243 75.5044 80.7338 74.365 81.4642 72.7956C81.7251 72.2351 81.8941 71.6579 81.9774 71.08C82.0638 70.4798 82.0585 69.8807 81.9684 69.3002C81.9184 68.9788 81.614 68.7581 81.2886 68.8074ZM28.5107 54.0415C28.3494 53.7581 27.986 53.6574 27.6991 53.8167C27.0204 54.1925 26.4539 54.7196 26.0131 55.3422C25.3756 56.2424 25 57.3455 24.9291 58.4772C24.8582 59.6092 25.0923 60.7745 25.6742 61.7993C26.075 62.5051 26.6391 63.1422 27.3802 63.6543C27.6498 63.841 28.0215 63.7767 28.2106 63.5106C28.3996 63.2444 28.3344 62.8772 28.0648 62.6904C27.4764 62.284 27.0296 61.7799 26.7132 61.2227C26.2478 60.4031 26.061 59.4644 26.1184 58.5479C26.1758 57.6311 26.4776 56.7411 26.9892 56.0186C27.331 55.5358 27.7661 55.1293 28.2833 54.843C28.5702 54.6837 28.672 54.3249 28.5107 54.0415ZM69.5869 37.9808C69.7365 38.2704 70.0955 38.3854 70.3887 38.2378C70.725 38.068 71.0745 37.9405 71.4303 37.8528C72.5867 37.5675 73.8153 37.6999 74.891 38.1627C75.9608 38.623 76.8724 39.4078 77.4018 40.4306C77.5544 40.7254 77.6755 41.0402 77.7597 41.3727C77.8394 41.6881 78.1629 41.8801 78.4823 41.8015C78.8017 41.7229 78.996 41.4034 78.9163 41.088C78.8096 40.6666 78.6564 40.2683 78.4636 39.8957C77.8027 38.619 76.679 37.6454 75.367 37.0809C74.061 36.519 72.5613 36.3603 71.1417 36.7104C70.6992 36.8196 70.2648 36.978 69.8468 37.189C69.5536 37.3366 69.4373 37.6912 69.5869 37.9808ZM93.3534 54.8792C93.1848 55.1584 93.2773 55.5197 93.56 55.6863C94.0696 55.9859 94.4941 56.4035 94.8233 56.8949C95.3161 57.6304 95.5948 58.528 95.6285 59.4459C95.6622 60.3636 95.4512 61.2972 94.9648 62.1045C94.6341 62.6533 94.1744 63.1456 93.5757 63.5368C93.3014 63.7165 93.2267 64.0819 93.4088 64.3529C93.5909 64.6238 93.9609 64.6977 94.2352 64.518C94.9892 64.0253 95.5696 63.4029 95.9885 62.7077C96.5968 61.6983 96.8609 60.5394 96.8192 59.406C96.7776 58.2728 96.4306 57.1604 95.8166 56.244C95.392 55.6102 94.8393 55.0686 94.1705 54.6754C93.8878 54.5088 93.522 54.6001 93.3534 54.8792ZM54.7416 79.6508C54.5348 79.3974 54.1592 79.3575 53.9027 79.5616C53.6528 79.7602 53.3796 79.9273 53.09 80.0637C52.0618 80.5477 50.8162 80.6615 49.6441 80.4334C48.4825 80.2074 47.4035 79.6462 46.6962 78.7783C46.5128 78.5533 46.3551 78.3092 46.2284 78.0467C46.0865 77.7534 45.7308 77.6291 45.4339 77.7691C45.1369 77.9091 45.0112 78.2604 45.153 78.5537C45.3222 78.9042 45.5292 79.2257 45.7672 79.5177C46.6567 80.6091 47.9903 81.3104 49.4145 81.5875C50.8282 81.8625 52.3418 81.72 53.6037 81.126C53.979 80.9493 54.3313 80.734 54.6516 80.4794C54.9081 80.2752 54.9485 79.9043 54.7416 79.6508ZM41.0669 42.5641C41.3923 42.6167 41.6992 42.3988 41.7523 42.0774C41.8319 41.605 41.9797 41.1444 42.1963 40.7112C42.4084 40.287 42.6862 39.8848 43.0305 39.5185C43.9967 38.4905 45.3049 37.9388 46.6388 37.878C47.9729 37.817 49.3307 38.2477 50.396 39.1843C50.642 39.4001 51.0185 39.3781 51.2368 39.1352C51.4552 38.8924 51.4328 38.5206 51.1869 38.3048C49.8799 37.1557 48.2166 36.6272 46.584 36.7018C44.9512 36.7763 43.3471 37.4546 42.1587 38.719C41.7339 39.171 41.3911 39.6671 41.1295 40.1903C40.8563 40.7369 40.6714 41.3087 40.5739 41.887C40.5208 42.2084 40.7415 42.5115 41.0669 42.5641Z" fill="white"/>
<path d="M49.4493 9.84141C49.4791 9.69509 49.4956 9.55215 49.4995 9.41377L49.5171 8.79135L50.1416 8.84124C50.7091 8.88656 51.2684 8.74538 51.7367 8.45406C52.1936 8.16983 52.5651 7.74214 52.7739 7.20481C53.0314 6.54246 52.9929 5.84046 52.7227 5.24097C52.4523 4.64118 51.9506 4.14325 51.2816 3.88943C50.9389 3.75944 50.5873 3.70538 50.2453 3.71889C49.8903 3.73292 49.5433 3.81971 49.2258 3.96989L48.6027 4.26457L48.3996 3.60888C48.2851 3.23911 48.0849 2.89507 47.8123 2.60607C47.5532 2.33143 47.2273 2.10879 46.846 1.96416C46.1754 1.70987 45.4644 1.74745 44.8576 2.01408C44.2504 2.28092 43.7464 2.77632 43.4896 3.43699L43.479 3.46425C43.4649 3.50224 43.4878 3.44177 43.4689 3.49387L43.2656 4.05513L42.7012 3.84811C41.6693 3.46968 40.5798 3.53553 39.6509 3.95C38.7232 4.36387 37.9537 5.12557 37.5595 6.1397C37.1623 7.16206 37.2217 8.24646 37.6391 9.1725C38.0567 10.099 38.8319 10.8681 39.8656 11.2603C40.5524 11.5207 41.2675 11.5826 41.9447 11.4741C42.6468 11.3615 43.3081 11.0668 43.8562 10.6219L44.3676 10.2067L44.732 10.753C44.8783 10.9723 45.0597 11.1708 45.272 11.3394C45.4748 11.5004 45.7083 11.6343 45.969 11.7333C46.6397 11.9877 47.3505 11.95 47.9574 11.6833C48.5646 11.4165 49.0686 10.9211 49.3254 10.2604C49.3803 10.1192 49.4214 9.97916 49.4493 9.84141Z" fill="white"/>
<path d="M72.337 4.50626C72.3376 4.4563 72.3349 4.38944 72.3287 4.30479C72.2802 3.63972 71.9633 3.0569 71.4902 2.65231C71.018 2.24847 70.3882 2.02257 69.7129 2.0704C69.0395 2.11809 68.4495 2.43086 68.04 2.89796C67.6312 3.36421 67.4027 3.98614 67.4513 4.65317C67.4591 4.75893 67.4721 4.85701 67.4901 4.94739C67.509 5.0425 67.5346 5.1383 67.5664 5.23416L67.8059 5.95611L67.0395 6.00384C66.3661 6.05153 65.7761 6.36466 65.3666 6.83176C64.9579 7.29801 64.7294 7.91994 64.778 8.58697C64.8265 9.25203 65.1434 9.83485 65.6165 10.2394C66.0887 10.6433 66.7184 10.8692 67.3938 10.8213C67.5876 10.8076 67.769 10.7744 67.9364 10.7239C68.1086 10.6719 68.2768 10.5985 68.4383 10.5066L69.0159 10.1777L69.2819 10.7849C69.6091 11.532 70.165 12.1526 70.8567 12.5671C71.5287 12.9698 72.3316 13.1777 73.1801 13.1176C74.2639 13.0408 75.2136 12.5374 75.8727 11.7855C76.5311 11.0345 76.8993 10.0338 76.8211 8.9613C76.7469 7.94504 76.2837 7.04843 75.5859 6.40353C74.8807 5.75189 73.9379 5.35618 72.9158 5.35181L72.2637 5.34901L72.3244 4.71032C72.3321 4.62846 72.3364 4.56009 72.337 4.50626Z" fill="white"/>
<path d="M23.9471 17.2731C23.5104 16.8305 22.9027 16.5524 22.2276 16.5437C21.5525 16.535 20.9379 16.7973 20.4899 17.2285C20.0419 17.6596 19.7605 18.2597 19.7519 18.9264C19.7433 19.5932 20.0091 20.2003 20.4458 20.6429C20.8825 21.0855 21.4902 21.3636 22.1653 21.3724C22.8404 21.3811 23.455 21.1187 23.903 20.6876C24.351 20.2564 24.6324 19.6564 24.641 18.9896C24.6497 18.3228 24.3838 17.7157 23.9471 17.2731Z" fill="white"/>
<path d="M7.03581 37.0308C7.05411 36.9247 7.06505 36.8184 7.06898 36.7125L7.09167 36.1003L7.70872 36.1468C8.58623 36.213 9.44347 35.9749 10.1458 35.5028C10.8334 35.0405 11.3734 34.3527 11.6392 33.5051C11.9513 32.5098 11.8259 31.4847 11.3709 30.632C10.9156 29.7787 10.1306 29.0968 9.12408 28.7886C8.11623 28.48 7.0783 28.6035 6.21504 29.0526C5.35119 29.5021 4.66102 30.2771 4.34931 31.2711C4.22946 31.6533 4.17385 32.0384 4.17643 32.4154C4.17905 32.8019 4.24416 33.1847 4.3649 33.5509L4.55666 34.1325L3.9585 34.2994C3.56863 34.4082 3.20854 34.6136 2.91401 34.8971C2.63065 35.1698 2.41075 35.5126 2.28659 35.9085C2.08636 36.547 2.1666 37.2043 2.45816 37.7507C2.75002 38.2976 3.2532 38.7348 3.89843 38.9323C4.54499 39.1303 5.21043 39.0512 5.76359 38.7634C6.31731 38.4754 6.75975 37.9786 6.95955 37.3414C6.99348 37.2332 7.01877 37.1295 7.03581 37.0308Z" fill="white"/>
<path d="M101.76 15.4503C101.06 14.7404 100.085 14.2942 99.0021 14.2803C98.6273 14.2754 98.2667 14.3216 97.9268 14.412C97.5724 14.5064 97.239 14.6476 96.9343 14.8283L96.3643 15.1664L96.0858 14.5684C95.8768 14.1196 95.5421 13.7391 95.1258 13.4717C94.7238 13.2135 94.2435 13.0609 93.7246 13.0541C93.0683 13.0457 92.4907 13.2462 92.0426 13.5807C91.6505 13.8734 91.3555 14.2679 91.1926 14.7133C91.03 15.1579 90.9985 15.6559 91.1327 16.1565C91.2905 16.7453 91.6806 17.3431 92.3593 17.8744L97.0672 21.5598C97.5371 21.9277 98.1116 22.099 98.713 22.1068C99.3129 22.1145 99.9348 21.9627 100.509 21.682C101.092 21.3971 101.625 20.9813 102.039 20.4656C102.54 19.8409 102.862 19.0676 102.873 18.2035C102.887 17.1341 102.461 16.1602 101.76 15.4503Z" fill="white"/>
<path d="M111.909 34.0855C111.473 33.6429 110.865 33.3648 110.19 33.3561C109.515 33.3473 108.9 33.6097 108.452 34.0408C108.004 34.472 107.723 35.072 107.714 35.7388C107.706 36.4056 107.971 37.0127 108.408 37.4553C108.845 37.8979 109.452 38.176 110.127 38.1847C110.803 38.1934 111.417 37.9311 111.865 37.5C112.313 37.0688 112.595 36.4687 112.603 35.802C112.612 35.1352 112.346 34.5281 111.909 34.0855Z" fill="white"/>
<path d="M108.121 82.0219C107.684 81.5793 107.076 81.3012 106.401 81.2925C105.726 81.2838 105.111 81.5461 104.663 81.9773C104.215 82.4084 103.934 83.0085 103.925 83.6753C103.917 84.342 104.183 84.9492 104.619 85.3918C105.056 85.8344 105.664 86.1125 106.339 86.1212C107.014 86.1299 107.628 85.8676 108.076 85.4364C108.524 85.0053 108.806 84.4052 108.814 83.7384C108.823 83.0717 108.557 82.4645 108.121 82.0219Z" fill="white"/>
<path d="M97.3616 99.5661C97.0082 99.7875 96.7076 100.101 96.5017 100.495L96.5012 100.496C96.1913 101.089 96.1543 101.751 96.345 102.341C96.5221 102.889 96.8969 103.375 97.4326 103.687L97.536 103.688L97.6422 103.796C98.2197 104.062 98.8535 104.087 99.4218 103.908C100.018 103.72 100.541 103.307 100.851 102.714L100.853 102.711C100.88 102.659 100.907 102.6 100.935 102.533C100.962 102.47 100.985 102.408 101.005 102.347L101.209 101.722L101.815 101.991C102.92 102.482 104.131 102.504 105.206 102.133C106.274 101.765 107.206 101.008 107.765 99.938C108.345 98.8271 108.415 97.5883 108.058 96.4836C107.701 95.3806 106.918 94.4115 105.793 93.8378C104.668 93.2642 103.414 93.1953 102.295 93.5476C101.179 93.8993 100.198 94.6723 99.6173 95.7833C99.3948 96.2091 99.2475 96.6575 99.1706 97.1128C99.0906 97.5859 99.0876 98.0597 99.1561 98.5176L99.2531 99.1662L98.5873 99.1902C98.1532 99.2058 97.7292 99.336 97.3616 99.5661Z" fill="white"/>
<path d="M75.7237 104.827C75.287 104.384 74.6793 104.106 74.0042 104.098C73.3291 104.089 72.7144 104.351 72.2664 104.782C71.8184 105.214 71.537 105.814 71.5284 106.48C71.5198 107.147 71.7856 107.754 72.2223 108.197C72.659 108.639 73.2667 108.918 73.9418 108.926C74.6169 108.935 75.2316 108.673 75.6796 108.242C76.1276 107.81 76.409 107.21 76.4176 106.544C76.4262 105.877 76.1604 105.27 75.7237 104.827Z" fill="white"/>
<path d="M35.7579 111.43C36.62 111.936 37.6784 112.118 38.7289 111.854C39.0917 111.763 39.4272 111.627 39.7308 111.453C40.0465 111.272 40.3317 111.05 40.5809 110.795L41.0431 110.323L41.4673 110.827C41.7874 111.208 42.2115 111.491 42.6854 111.643C43.1422 111.79 43.646 111.815 44.1474 111.69C44.7836 111.53 45.2887 111.189 45.6333 110.752C45.9341 110.371 46.115 109.913 46.1559 109.438C46.1964 108.967 46.097 108.478 45.8373 108.031C45.5302 107.502 44.997 107.024 44.2033 106.685L38.6904 104.328C38.1379 104.092 37.5378 104.073 36.956 104.218C36.3781 104.363 35.8174 104.67 35.3335 105.09C34.845 105.515 34.4389 106.052 34.1754 106.654C33.8541 107.387 33.7454 108.217 33.9607 109.054C34.228 110.092 34.8944 110.924 35.7556 111.43L35.7579 111.43Z" fill="white"/>
<path d="M5.49159 96.9526C5.85263 96.8452 6.18153 96.6583 6.45315 96.4096L6.8167 96.0767L7.21447 96.3687C7.42523 96.5234 7.65613 96.6548 7.90384 96.7584C8.14503 96.8592 8.40245 96.9337 8.67307 96.9777C9.59155 97.127 10.4839 96.8948 11.184 96.3987C11.8823 95.9038 12.3897 95.1447 12.5406 94.2386C12.6915 93.3315 12.4561 92.4496 11.9536 91.758C11.4523 91.0682 10.6835 90.5668 9.76605 90.4176C9.61309 90.3927 9.47013 90.378 9.33842 90.3732C9.19779 90.3681 9.05507 90.3722 8.9112 90.385L8.23103 90.4458L8.26332 89.7728C8.30352 88.9351 8.02176 88.1405 7.51504 87.5226C7.01528 86.9133 6.29448 86.4752 5.44605 86.3372C4.52758 86.1878 3.63468 86.42 2.93454 86.9161C2.23622 87.4109 1.72886 88.17 1.578 89.0761C1.47635 89.6872 1.54978 90.2867 1.76206 90.8232C1.98248 91.3803 2.35152 91.871 2.82872 92.2395L3.3149 92.615L2.91586 93.0819C2.77657 93.2449 2.65792 93.428 2.56492 93.6276C2.47713 93.816 2.4125 94.0231 2.3754 94.2462C2.26574 94.9055 2.43675 95.546 2.80189 96.0485C3.16584 96.5494 3.72437 96.9134 4.39118 97.0218C4.77202 97.0837 5.14629 97.0553 5.49159 96.9526Z" fill="white"/>
</svg>
