<svg width="85" height="85" viewBox="0 0 85 85" fill="none" xmlns="http://www.w3.org/2000/svg">
<path d="M45.1561 44.2992L75.2603 32.2576V52.2783C73.4714 51.1329 71.3442 50.4688 69.0623 50.4688C62.7054 50.4688 57.5519 55.6223 57.5519 61.9792C57.5519 68.3362 62.7054 73.4897 69.0623 73.4897C75.4193 73.4897 80.5728 68.3362 80.5728 61.9792V28.143C80.5728 24.0955 80.5728 20.701 80.288 17.9964C80.2476 17.6142 80.2002 17.2341 80.1478 16.8796C79.8733 15.0318 79.3884 13.3081 78.4527 11.8687C77.9849 11.149 77.404 10.5004 76.6808 9.94292C76.5452 9.8384 76.4042 9.73708 76.2587 9.63908L76.2293 9.61953C73.7246 7.95254 70.9086 8.07175 68.008 8.81093C65.2026 9.52578 61.7247 10.9815 57.4598 12.7667L50.0436 15.8708C48.0443 16.7074 46.3507 17.4163 45.0215 18.1504C43.607 18.9315 42.3886 19.8528 41.4749 21.2257C40.5615 22.5986 40.1818 24.0781 40.0076 25.6844C39.8436 27.1941 39.8436 29.0301 39.8436 31.1971V59.3616C38.0543 58.2162 35.9276 57.5522 33.6457 57.5522C27.2886 57.5522 22.1353 62.7056 22.1353 69.0626C22.1353 75.4195 27.2886 80.573 33.6457 80.573C40.0026 80.573 45.1561 75.4195 45.1561 69.0626V44.2992Z" fill="#2F232D"/>
<path opacity="0.5" d="M27.4481 7.08325C27.4481 5.61626 26.2588 4.427 24.7918 4.427C23.3248 4.427 22.1356 5.61626 22.1356 7.08325V27.4865C20.3465 26.3411 18.2196 25.677 15.9377 25.677C9.58062 25.677 4.42725 30.8304 4.42725 37.1874C4.42725 43.5444 9.58062 48.6978 15.9377 48.6978C22.2947 48.6978 27.4481 43.5444 27.4481 37.1874V17.7242C29.922 19.5114 32.8652 20.3645 35.4168 20.3645C36.8838 20.3645 38.0731 19.1752 38.0731 17.7083C38.0731 16.2413 36.8838 15.052 35.4168 15.052C33.8077 15.052 31.7558 14.4283 30.1454 13.0983C28.6112 11.8312 27.4481 9.90897 27.4481 7.08325Z" fill="#68325F"/>
</svg>
