<svg width="52" height="45" viewBox="0 0 52 45" fill="none" xmlns="http://www.w3.org/2000/svg">
<rect width="52" height="42" rx="3" fill="#C2BDBD"/>
<g filter="url(#filter0_d_2644_856)">
<rect x="6" y="3" width="39" height="34" fill="#D9D9D9"/>
</g>
<path d="M20.8407 23.196C20.2434 23.196 19.7021 23.0513 19.2167 22.762C18.7314 22.4633 18.3441 22.02 18.0547 21.432C17.7654 20.844 17.6207 20.116 17.6207 19.248V16.952C17.6207 16.1027 17.7747 15.384 18.0827 14.796C18.4001 14.208 18.8341 13.7647 19.3847 13.466C19.9354 13.158 20.5701 13.004 21.2887 13.004C22.0354 13.004 22.6747 13.1627 23.2067 13.48C23.7387 13.7973 24.1447 14.2267 24.4247 14.768C24.7047 15.3 24.8447 15.8973 24.8447 16.56V16.728H22.9967V16.56C22.9967 15.972 22.8427 15.5287 22.5347 15.23C22.2361 14.922 21.8114 14.768 21.2607 14.768C20.7474 14.768 20.3181 14.9407 19.9727 15.286C19.6367 15.6313 19.4687 16.2333 19.4687 17.092V19.164C19.4687 20.676 20.0847 21.432 21.3167 21.432C21.8674 21.432 22.2827 21.2827 22.5627 20.984C22.8521 20.6853 22.9967 20.2933 22.9967 19.808H20.6447V18.044H24.8447V23H23.1647V21.908H22.9127C22.8007 22.272 22.5861 22.58 22.2687 22.832C21.9514 23.0747 21.4754 23.196 20.8407 23.196ZM29.707 23.196C29.0723 23.196 28.4797 23.056 27.929 22.776C27.3783 22.496 26.935 22.09 26.599 21.558C26.263 21.026 26.095 20.3773 26.095 19.612V19.444C26.095 18.688 26.263 18.044 26.599 17.512C26.935 16.9707 27.3783 16.56 27.929 16.28C28.4797 16 29.0723 15.86 29.707 15.86C30.3417 15.86 30.9343 16 31.485 16.28C32.0357 16.56 32.479 16.9707 32.815 17.512C33.151 18.044 33.319 18.688 33.319 19.444V19.612C33.319 20.3773 33.151 21.026 32.815 21.558C32.479 22.09 32.0357 22.496 31.485 22.776C30.9343 23.056 30.3417 23.196 29.707 23.196ZM29.707 21.516C30.2203 21.516 30.6543 21.3527 31.009 21.026C31.373 20.69 31.555 20.2373 31.555 19.668V19.388C31.555 18.8093 31.373 18.3567 31.009 18.03C30.6543 17.7033 30.2203 17.54 29.707 17.54C29.1937 17.54 28.755 17.7033 28.391 18.03C28.0363 18.3567 27.859 18.8093 27.859 19.388V19.668C27.859 20.2373 28.0363 20.69 28.391 21.026C28.755 21.3527 29.1937 21.516 29.707 21.516Z" fill="#7B7C76"/>
<defs>
<filter id="filter0_d_2644_856" x="2" y="3" width="47" height="42" filterUnits="userSpaceOnUse" color-interpolation-filters="sRGB">
<feFlood flood-opacity="0" result="BackgroundImageFix"/>
<feColorMatrix in="SourceAlpha" type="matrix" values="0 0 0 0 0 0 0 0 0 0 0 0 0 0 0 0 0 0 127 0" result="hardAlpha"/>
<feOffset dy="4"/>
<feGaussianBlur stdDeviation="2"/>
<feComposite in2="hardAlpha" operator="out"/>
<feColorMatrix type="matrix" values="0 0 0 0 0 0 0 0 0 0 0 0 0 0 0 0 0 0 0.25 0"/>
<feBlend mode="normal" in2="BackgroundImageFix" result="effect1_dropShadow_2644_856"/>
<feBlend mode="normal" in="SourceGraphic" in2="effect1_dropShadow_2644_856" result="shape"/>
</filter>
</defs>
</svg>
