<svg width="86" height="90" viewBox="0 0 86 90" fill="none" xmlns="http://www.w3.org/2000/svg">
<path d="M5.71387 71.2009L10.1355 63.3818L77.0351 63.7814L80.2864 71.2009H5.71387Z" fill="#46A1F8"/>
<path d="M31.2576 63.5092L10.1352 63.3818L8.37744 66.4901C11.6496 66.2399 26.4416 65.4672 34.7899 71.2009H41.2378C39.371 69.1726 36.0359 66.0511 31.2576 63.5092Z" fill="#3084D6"/>
<path d="M51.2096 71.2009C60.4011 64.8877 77.4165 66.4594 78.243 66.5428L77.0348 63.7814L54.486 63.6453C49.842 66.1653 46.5908 69.2077 44.7617 71.2009H51.2096Z" fill="#3084D6"/>
<path d="M29.6635 39.7449L10.1353 57.2971L42.9998 71.201V43.4063L29.6635 39.7449Z" fill="white"/>
<path d="M56.3363 39.7449L43 43.4063V71.201L75.8646 57.2971L56.3363 39.7449Z" fill="white"/>
<path opacity="0.2" d="M44.762 42.9233L43.1049 43.3799L43 71.3853L48.462 68.8872L44.762 42.9233Z" fill="#231F20"/>
<path opacity="0.2" d="M42.1611 43.178L43.0001 43.4063V71.2009L37.5381 68.8872L42.1611 43.178Z" fill="#231F20"/>
<path d="M54.5493 30.6921C54.5493 23.9794 49.318 18.5443 42.891 18.6057C36.4641 18.6672 31.3796 24.1682 31.4509 30.837C31.4805 33.7743 32.5354 36.599 34.4169 38.7789C36.7787 41.5228 38.117 45.0657 38.117 48.7623V48.7843H47.8832V48.7623C47.8799 45.0877 49.1857 41.5438 51.5456 38.8228C53.4819 36.6002 54.5534 33.6998 54.5493 30.6921Z" fill="#F4C23F"/>
<path d="M38.0874 48.7624H47.9082V53.0912C47.9071 54.4532 47.3896 55.759 46.4694 56.7221C45.5491 57.6851 44.3013 58.2267 42.9999 58.2278C41.697 58.2278 40.4475 57.6862 39.5262 56.7221C38.605 55.7579 38.0874 54.4503 38.0874 53.0868V48.7581V48.7624Z" fill="#4D4C78"/>
<path d="M47.9124 52.3975V50.6414H38.0874V52.3975H47.9124Z" fill="#323150"/>
<path d="M43.0002 14.0927C42.7776 14.0927 42.5642 14.0002 42.4069 13.8355C42.2495 13.6708 42.1611 13.4475 42.1611 13.2146V8.38537C42.1611 8.1525 42.2495 7.92916 42.4069 7.7645C42.5642 7.59983 42.7776 7.50732 43.0002 7.50732C43.2227 7.50732 43.4361 7.59983 43.5934 7.7645C43.7508 7.92916 43.8392 8.1525 43.8392 8.38537V13.2146C43.8392 13.4475 43.7508 13.6708 43.5934 13.8355C43.4361 14.0002 43.2227 14.0927 43.0002 14.0927Z" fill="#F8881B"/>
<path d="M31.2955 19.1678C31.0721 19.167 30.858 19.0739 30.6998 18.9088L27.4402 15.4976C27.2828 15.3328 27.1943 15.1093 27.1943 14.8763C27.1943 14.6433 27.2828 14.4199 27.4402 14.2551C27.5977 14.0904 27.8112 13.9978 28.0338 13.9978C28.2565 13.9978 28.47 14.0904 28.6274 14.2551L31.887 17.6707C32.0037 17.7935 32.083 17.9496 32.1151 18.1195C32.1472 18.2893 32.1306 18.4653 32.0674 18.6253C32.0042 18.7853 31.8972 18.9221 31.7598 19.0187C31.6225 19.1152 31.461 19.1671 31.2955 19.1678Z" fill="#F8881B"/>
<path d="M54.7042 19.1678C54.9276 19.167 55.1417 19.0739 55.2999 18.9088L58.5595 15.4976C58.7169 15.3328 58.8054 15.1093 58.8054 14.8763C58.8054 14.6433 58.7169 14.4199 58.5595 14.2551C58.402 14.0904 58.1885 13.9978 57.9659 13.9978C57.7432 13.9978 57.5297 14.0904 57.3722 14.2551L54.1126 17.6707C53.996 17.7935 53.9167 17.9496 53.8846 18.1195C53.8525 18.2893 53.8691 18.4653 53.9323 18.6253C53.9955 18.7853 54.1025 18.9221 54.2399 19.0187C54.3772 19.1152 54.5387 19.1671 54.7042 19.1678Z" fill="#F8881B"/>
<path d="M26.4458 31.4165H21.8312C21.6087 31.4165 21.3953 31.324 21.2379 31.1593C21.0806 30.9947 20.9922 30.7713 20.9922 30.5384C20.9922 30.3056 21.0806 30.0822 21.2379 29.9176C21.3953 29.7529 21.6087 29.6604 21.8312 29.6604H26.4458C26.6684 29.6604 26.8818 29.7529 27.0391 29.9176C27.1965 30.0822 27.2849 30.3056 27.2849 30.5384C27.2849 30.7713 27.1965 30.9947 27.0391 31.1593C26.8818 31.324 26.6684 31.4165 26.4458 31.4165Z" fill="#F8881B"/>
<path d="M64.1685 31.4165H59.5539C59.3313 31.4165 59.1179 31.324 58.9606 31.1593C58.8032 30.9947 58.7148 30.7713 58.7148 30.5384C58.7148 30.3056 58.8032 30.0822 58.9606 29.9176C59.1179 29.7529 59.3313 29.6604 59.5539 29.6604H64.1685C64.391 29.6604 64.6044 29.7529 64.7618 29.9176C64.9191 30.0822 65.0075 30.3056 65.0075 30.5384C65.0075 30.7713 64.9191 30.9947 64.7618 31.1593C64.6044 31.324 64.391 31.4165 64.1685 31.4165Z" fill="#F8881B"/>
<path d="M48.7261 71.2009H37.2734V74.5467H48.7261V71.2009Z" fill="#323150"/>
<path d="M37.278 71.2009H5.71387V74.5467H37.278V71.2009Z" fill="#67BAEB"/>
<path d="M48.722 74.5464H80.2861V71.2006H48.722V74.5464Z" fill="#67BAEB"/>
<path d="M42.9999 71.2009C42.9999 71.2009 31.8409 55.2204 10.1353 57.297L7.72314 64.4268C7.72314 64.4268 28.9463 62.236 37.2736 71.2009H42.9999Z" fill="#4D4C78"/>
<path d="M43 71.2009C43 71.2009 54.159 55.2204 75.8646 57.297L78.2768 64.4268C78.2768 64.4268 57.0537 62.236 48.7263 71.2009H43Z" fill="#4D4C78"/>
<path d="M42.8909 18.6057C38.8636 18.6453 35.3313 20.8579 33.2925 24.1638C33.5987 33.5589 40.6046 41.176 49.4689 41.9487C50.0268 40.8158 50.725 39.7648 51.5455 38.8228C53.4818 36.6002 54.5533 33.6998 54.5492 30.6921C54.5492 23.9794 49.3178 18.5443 42.8909 18.6057Z" fill="#FFD960"/>
<path d="M58.9267 42.2578C58.3619 41.733 57.4981 41.786 56.9974 42.3762C56.4967 42.9664 56.5487 43.8703 57.1135 44.395L61.603 48.5664C62.1678 49.0912 63.0316 49.0382 63.5323 48.448C64.033 47.8578 63.981 46.954 63.4162 46.4292L58.9267 42.2578Z" fill="#DFDAFD"/>
</svg>
