<svg width="59" height="60" viewBox="0 0 59 60" fill="none" xmlns="http://www.w3.org/2000/svg">
<rect x="6.82227" y="6.82324" width="44.8377" height="45.585" rx="22.4188" fill="#83DFF1"/>
<g opacity="0.6">
<rect width="58.484" height="59.4587" rx="29.242" fill="url(#paint0_radial_3481_1504)"/>
</g>
<path d="M20.4102 19V19.7049" stroke="#FFC778" stroke-linecap="round" stroke-linejoin="round"/>
<path d="M20.4102 21.1145V21.8194" stroke="#FFC778" stroke-linecap="round" stroke-linejoin="round"/>
<path d="M19 20.4097H19.7049" stroke="#FFC778" stroke-linecap="round" stroke-linejoin="round"/>
<path d="M21.1162 20.4097H21.8212" stroke="#FFC778" stroke-linecap="round" stroke-linejoin="round"/>
<path d="M35.5669 26.4017C36.9295 26.4017 38.0342 25.2971 38.0342 23.9345C38.0342 22.5718 36.9295 21.4672 35.5669 21.4672C34.2043 21.4672 33.0996 22.5718 33.0996 23.9345C33.0996 25.2971 34.2043 26.4017 35.5669 26.4017Z" stroke="black" stroke-linecap="round" stroke-linejoin="round"/>
<path d="M26.0503 26.4017C27.4129 26.4017 28.5176 25.2971 28.5176 23.9345C28.5176 22.5718 27.4129 21.4672 26.0503 21.4672C24.6877 21.4672 23.583 22.5718 23.583 23.9345C23.583 25.2971 24.6877 26.4017 26.0503 26.4017Z" stroke="black" stroke-linecap="round" stroke-linejoin="round"/>
<path d="M35.5669 26.4017C36.9295 26.4017 38.0342 25.2971 38.0342 23.9345C38.0342 22.5718 36.9295 21.4672 35.5669 21.4672C34.2043 21.4672 33.0996 22.5718 33.0996 23.9345C33.0996 25.2971 34.2043 26.4017 35.5669 26.4017Z" fill="#0E7DAD" stroke="#0E7DAD" stroke-linecap="round" stroke-linejoin="round"/>
<path d="M26.0503 26.4017C27.4129 26.4017 28.5176 25.2971 28.5176 23.9345C28.5176 22.5718 27.4129 21.4672 26.0503 21.4672C24.6877 21.4672 23.583 22.5718 23.583 23.9345C23.583 25.2971 24.6877 26.4017 26.0503 26.4017Z" fill="#0E7DAD" stroke="#0E7DAD" stroke-linecap="round" stroke-linejoin="round"/>
<path d="M29.4446 28.6178C29.0362 27.8063 28.3653 27.1568 27.541 26.7748C26.7168 26.3928 25.7876 26.3008 24.9044 26.5137C24.0212 26.7265 23.236 27.2318 22.6763 27.9474C22.1166 28.663 21.8153 29.5468 21.8214 30.4552V32.7463C21.8214 34.4289 22.4898 36.0427 23.6796 37.2325C24.8694 38.4223 26.4832 39.0907 28.1658 39.0907H33.1004C34.7831 39.0907 36.3968 38.4223 37.5866 37.2325C38.7765 36.0427 39.4449 34.4289 39.4449 32.7463V30.4552C39.4507 29.5291 39.1373 28.6293 38.5574 27.9072C37.9775 27.1851 37.1665 26.6849 36.261 26.4907C35.3555 26.2965 34.4107 26.4202 33.5857 26.841C32.7607 27.2618 32.1059 27.954 31.7314 28.8011" stroke="black" stroke-linecap="round" stroke-linejoin="round"/>
<path d="M29.4446 28.6178C29.0362 27.8063 28.3653 27.1568 27.541 26.7748C26.7168 26.3928 25.7876 26.3008 24.9044 26.5137C24.0212 26.7265 23.236 27.2318 22.6763 27.9474C22.1166 28.663 21.8153 29.5468 21.8214 30.4552V32.7463C21.8214 34.4289 22.4898 36.0427 23.6796 37.2325C24.8694 38.4223 26.4832 39.0907 28.1658 39.0907H33.1004C34.7831 39.0907 36.3968 38.4223 37.5866 37.2325C38.7765 36.0427 39.4449 34.4289 39.4449 32.7463V30.4552C39.4507 29.5291 39.1373 28.6293 38.5574 27.9072C37.9775 27.1851 37.1665 26.6849 36.261 26.4907C35.3555 26.2965 34.4107 26.4202 33.5857 26.841C32.7607 27.2618 32.1059 27.954 31.7314 28.8011" fill="#0E7DAD"/>
<path d="M29.4446 28.6178C29.0362 27.8063 28.3653 27.1568 27.541 26.7748C26.7168 26.3928 25.7876 26.3008 24.9044 26.5137C24.0212 26.7265 23.236 27.2318 22.6763 27.9474C22.1166 28.663 21.8153 29.5468 21.8214 30.4552V32.7463C21.8214 34.4289 22.4898 36.0427 23.6796 37.2325C24.8694 38.4223 26.4832 39.0907 28.1658 39.0907H33.1004C34.7831 39.0907 36.3968 38.4223 37.5866 37.2325C38.7765 36.0427 39.4449 34.4289 39.4449 32.7463V30.4552C39.4507 29.5291 39.1373 28.6293 38.5574 27.9072C37.9775 27.1851 37.1665 26.6849 36.261 26.4907C35.3555 26.2965 34.4107 26.4202 33.5857 26.841C32.7607 27.2618 32.1059 27.954 31.7314 28.8011" stroke="#0E7DAD" stroke-linecap="round" stroke-linejoin="round"/>
<path d="M32.4772 28.7461C31.8446 28.7507 31.2395 29.0053 30.7938 29.4542C30.348 29.0052 29.7428 28.7506 29.1101 28.7461C27.7157 28.7461 26.585 29.984 26.585 31.5112C26.585 33.0385 29.5313 35.6587 30.7938 36.5805C32.0564 35.6587 35.003 33.0381 35.003 31.5126C35.003 29.9871 33.8719 28.7461 32.4772 28.7461Z" fill="#FFE3E3"/>
<defs>
<radialGradient id="paint0_radial_3481_1504" cx="0" cy="0" r="1" gradientUnits="userSpaceOnUse" gradientTransform="translate(29.242 29.7293) rotate(90) scale(29.7293 29.242)">
<stop offset="0.5" stop-color="#83DFF1" stop-opacity="0.5"/>
<stop offset="0.610577" stop-color="white"/>
<stop offset="1" stop-color="#0F3E4C" stop-opacity="0"/>
</radialGradient>
</defs>
</svg>
