<svg width="120" height="120" viewBox="0 0 120 120" fill="none" xmlns="http://www.w3.org/2000/svg">
<g filter="url(#filter0_f_3481_1484)">
<rect x="37.792" y="36.8232" width="44.8377" height="45.585" rx="22.4188" fill="#FFCB51"/>
</g>
<g opacity="0.6" filter="url(#filter1_d_3481_1484)">
<rect x="30.9688" y="30" width="58.484" height="59.4587" rx="29.242" fill="url(#paint0_radial_3481_1484)"/>
</g>
<g clip-path="url(#clip0_3481_1484)">
<path d="M63.4792 65.2357H56.9406C56.4894 65.2357 56.1233 64.8699 56.1233 64.4184C56.1233 63.2916 55.6438 61.7091 54.842 61.0118C52.6449 59.1029 51.6487 56.2398 52.1772 53.3536C52.8807 49.5076 56.2558 46.7134 60.203 46.7097C60.2051 46.7097 60.2078 46.7097 60.2104 46.7097C62.3921 46.7097 64.4434 47.5587 65.987 49.101C67.5323 50.6452 68.3831 52.6986 68.3831 54.8829C68.3831 57.2311 67.3588 59.4668 65.5731 61.0163C64.7739 61.7096 64.2965 63.2905 64.2965 64.4184C64.2965 64.8699 63.9304 65.2357 63.4792 65.2357Z" fill="#FFC778"/>
<path d="M60.2099 65.2357C59.7587 65.2357 59.3926 64.8699 59.3926 64.4184V57.8798C59.3926 57.4283 59.7587 57.0625 60.2099 57.0625C60.6611 57.0625 61.0273 57.4283 61.0273 57.8798V64.4184C61.0273 64.8699 60.6612 65.2357 60.2099 65.2357Z" fill="#FFD919"/>
<path d="M55.3948 54.76C55.3459 54.76 55.2964 54.7555 55.2469 54.7465C54.8026 54.6654 54.5083 54.2394 54.5897 53.7953C55.0111 51.4916 56.8613 49.6654 59.1935 49.2511C59.6394 49.1731 60.0624 49.4687 60.1412 49.913C60.2205 50.3573 59.9241 50.7817 59.4798 50.8607C57.8159 51.1561 56.4968 52.4536 56.1978 54.0896C56.1254 54.4839 55.7816 54.76 55.3948 54.76Z" fill="#F2FAFF"/>
<path d="M61.8445 66.8704H58.5752C58.1229 66.8704 57.7578 67.2354 57.7578 67.6877V69.3223C57.7578 70.6736 58.8585 71.7743 60.2098 71.7743C61.4739 71.7743 62.5146 70.8153 62.6508 69.5839C62.6563 69.4967 62.6618 69.4095 62.6618 69.3223V67.6877C62.6618 67.2354 62.2967 66.8704 61.8445 66.8704Z" fill="#485566"/>
<path d="M63.4797 65.2357C63.9309 65.2357 64.297 64.8699 64.297 64.4184C64.297 63.2906 64.7743 61.7096 65.5735 61.0163C67.3593 59.4667 68.3836 57.2311 68.3836 54.8829C68.3836 52.6986 67.5328 50.6452 65.9875 49.101C64.4439 47.5587 62.3926 46.7097 60.2109 46.7097V65.2357H63.4797Z" fill="#FF9602"/>
<path d="M62.6619 67.6877V69.3223C62.6619 69.4095 62.6565 69.4967 62.651 69.5839C62.5148 70.8153 61.4741 71.7743 60.21 71.7743V66.8704H61.8446C62.2969 66.8704 62.6619 67.2354 62.6619 67.6877Z" fill="#36404D"/>
<path d="M60.2109 65.2356C60.662 65.2354 61.0277 64.8697 61.0277 64.4184V57.8798C61.0277 57.4285 60.662 57.0628 60.2109 57.0625V65.2356Z" fill="#FFD919"/>
<path d="M61.8453 68.5049H58.576C57.2218 68.5049 56.124 67.4072 56.124 66.053V64.4183H64.2973V66.053C64.2973 67.4072 63.1995 68.5049 61.8453 68.5049Z" fill="#576573"/>
<path d="M64.297 66.053V64.4183H60.2109V68.5049H61.845C63.1992 68.5049 64.297 67.4072 64.297 66.053Z" fill="#485566"/>
<path d="M62.6518 55.989C62.5211 54.7575 61.4749 53.7931 60.2108 53.7931C58.8595 53.7931 57.7588 54.8937 57.7588 56.2451C57.7588 57.5964 58.8594 58.697 60.2108 58.697C61.5621 58.697 62.6627 57.5964 62.6627 56.2451C62.6627 56.1579 62.6572 56.0762 62.6518 55.989ZM60.2107 57.0624C59.7585 57.0624 59.3934 56.6973 59.3934 56.2451C59.3934 55.7928 59.7584 55.4277 60.2107 55.4277C60.663 55.4277 61.028 55.7928 61.028 56.2451C61.028 56.6973 60.663 57.0624 60.2107 57.0624Z" fill="#FFD919"/>
<path d="M62.6619 56.2452C62.6619 57.5965 61.5613 58.6972 60.21 58.6972V57.0625C60.6622 57.0625 61.0273 56.6975 61.0273 56.2452C61.0273 55.7929 60.6622 55.4278 60.21 55.4278V53.7932C61.4741 53.7932 62.5203 54.7577 62.651 55.9891C62.6565 56.0762 62.6619 56.158 62.6619 56.2452Z" fill="#FFD919"/>
</g>
<defs>
<filter id="filter0_f_3481_1484" x="17.792" y="16.8232" width="84.8379" height="85.585" filterUnits="userSpaceOnUse" color-interpolation-filters="sRGB">
<feFlood flood-opacity="0" result="BackgroundImageFix"/>
<feBlend mode="normal" in="SourceGraphic" in2="BackgroundImageFix" result="shape"/>
<feGaussianBlur stdDeviation="10" result="effect1_foregroundBlur_3481_1484"/>
</filter>
<filter id="filter1_d_3481_1484" x="0.96875" y="0" width="118.484" height="119.459" filterUnits="userSpaceOnUse" color-interpolation-filters="sRGB">
<feFlood flood-opacity="0" result="BackgroundImageFix"/>
<feColorMatrix in="SourceAlpha" type="matrix" values="0 0 0 0 0 0 0 0 0 0 0 0 0 0 0 0 0 0 127 0" result="hardAlpha"/>
<feOffset/>
<feGaussianBlur stdDeviation="15"/>
<feComposite in2="hardAlpha" operator="out"/>
<feColorMatrix type="matrix" values="0 0 0 0 0.0705882 0 0 0 0 0.784314 0 0 0 0 1 0 0 0 1 0"/>
<feBlend mode="screen" in2="BackgroundImageFix" result="effect1_dropShadow_3481_1484"/>
<feBlend mode="normal" in="SourceGraphic" in2="effect1_dropShadow_3481_1484" result="shape"/>
</filter>
<radialGradient id="paint0_radial_3481_1484" cx="0" cy="0" r="1" gradientUnits="userSpaceOnUse" gradientTransform="translate(60.2107 59.7293) rotate(90) scale(29.7293 29.242)">
<stop offset="0.5" stop-color="#FFCB51" stop-opacity="0.5"/>
<stop offset="0.610577" stop-color="white"/>
<stop offset="1" stop-color="#0F3E4C" stop-opacity="0"/>
</radialGradient>
<clipPath id="clip0_3481_1484">
<rect width="25.0646" height="25.0646" fill="white" transform="translate(47.6787 46.7097)"/>
</clipPath>
</defs>
</svg>
