<svg width="114" height="66" viewBox="0 0 114 66" fill="none" xmlns="http://www.w3.org/2000/svg">
<g filter="url(#filter0_d_2644_583)">
<rect x="12" y="12" width="90" height="41.625" rx="3" fill="#C2BDBD"/>
</g>
<g filter="url(#filter1_d_2644_583)">
<rect x="16.5" y="15.375" width="82.125" height="33.75" fill="#D9D9D9"/>
</g>
<path d="M31.1321 37L28.9201 27.2H30.8241L32.7421 36.076H32.9941L34.9121 27.2H36.8161L34.6041 37H31.1321ZM40.6283 37.196C40.0777 37.196 39.569 37.056 39.1023 36.776C38.6357 36.496 38.2623 36.09 37.9823 35.558C37.7023 35.026 37.5623 34.3867 37.5623 33.64V33.416C37.5623 32.6787 37.6977 32.044 37.9683 31.512C38.239 30.98 38.5983 30.574 39.0463 30.294C39.5037 30.0047 40.003 29.86 40.5443 29.86C41.039 29.86 41.4357 29.944 41.7343 30.112C42.0423 30.28 42.285 30.5413 42.4623 30.896H42.7143V30.056H44.4783V34.9C44.4783 35.18 44.6043 35.32 44.8563 35.32H45.1223V37H43.9183C43.601 37 43.3397 36.9067 43.1343 36.72C42.9383 36.524 42.8403 36.2813 42.8403 35.992H42.5883C42.411 36.4213 42.1497 36.7293 41.8043 36.916C41.4683 37.1027 41.0763 37.196 40.6283 37.196ZM41.0203 35.516C41.5337 35.516 41.9443 35.348 42.2523 35.012C42.5603 34.6667 42.7143 34.2 42.7143 33.612V33.444C42.7143 32.856 42.5603 32.394 42.2523 32.058C41.9443 31.7127 41.5337 31.54 41.0203 31.54C40.507 31.54 40.0963 31.7127 39.7883 32.058C39.4803 32.394 39.3263 32.856 39.3263 33.444V33.612C39.3263 34.2 39.4803 34.6667 39.7883 35.012C40.0963 35.348 40.507 35.516 41.0203 35.516ZM46.4706 37V35.32H48.9066V28.88H46.5546V27.2H50.6706V35.32H52.9386V37H46.4706ZM58.2769 29.328C57.9129 29.328 57.6002 29.202 57.3389 28.95C57.0775 28.6887 56.9469 28.3713 56.9469 27.998C56.9469 27.6247 57.0775 27.312 57.3389 27.06C57.6002 26.7987 57.9129 26.668 58.2769 26.668C58.6409 26.668 58.9535 26.7987 59.2149 27.06C59.4762 27.312 59.6069 27.6247 59.6069 27.998C59.6069 28.3713 59.4762 28.6887 59.2149 28.95C58.9535 29.202 58.6409 29.328 58.2769 29.328ZM55.0569 37V35.32H57.4089V31.736H55.2249V30.056H59.1729V35.32H61.1889V37H55.0569ZM65.9111 37.196C65.3418 37.196 64.8285 37.0607 64.3711 36.79C63.9138 36.51 63.5498 36.1087 63.2791 35.586C63.0085 35.054 62.8731 34.41 62.8731 33.654V33.402C62.8731 32.6553 63.0131 32.0207 63.2931 31.498C63.5825 30.966 63.9605 30.56 64.4271 30.28C64.9031 30 65.4211 29.86 65.9811 29.86C66.5411 29.86 66.9845 29.9673 67.3111 30.182C67.6471 30.3873 67.9038 30.6813 68.0811 31.064H68.3331V27.2H70.0971V37H68.3331V35.992H68.0811C67.9411 36.3 67.7078 36.58 67.3811 36.832C67.0638 37.0747 66.5738 37.196 65.9111 37.196ZM66.4851 35.516C67.0358 35.516 67.4791 35.3433 67.8151 34.998C68.1605 34.6433 68.3331 34.1813 68.3331 33.612V33.444C68.3331 32.8747 68.1605 32.4173 67.8151 32.072C67.4791 31.7173 67.0358 31.54 66.4851 31.54C65.9438 31.54 65.5005 31.7127 65.1551 32.058C64.8098 32.4033 64.6371 32.8653 64.6371 33.444V33.612C64.6371 34.1907 64.8098 34.6527 65.1551 34.998C65.5005 35.3433 65.9438 35.516 66.4851 35.516ZM75.0294 37.196C74.3387 37.196 73.7274 37.0513 73.1954 36.762C72.6634 36.4633 72.2481 36.0387 71.9494 35.488C71.6507 34.9373 71.5014 34.2747 71.5014 33.5V33.416C71.5014 32.7067 71.6601 32.086 71.9774 31.554C72.2947 31.022 72.7147 30.6067 73.2374 30.308C73.7694 30.0093 74.3574 29.86 75.0014 29.86C75.5987 29.86 76.1121 29.9627 76.5414 30.168C76.9707 30.3733 77.3207 30.6393 77.5914 30.966C77.8714 31.2927 78.0767 31.652 78.2074 32.044C78.3474 32.4267 78.4174 32.8 78.4174 33.164V34.102H73.3214C73.3401 34.5127 73.5127 34.8533 73.8394 35.124C74.1661 35.3853 74.5534 35.516 75.0014 35.516C75.4401 35.516 75.7761 35.4367 76.0094 35.278C76.2521 35.1193 76.4201 34.9373 76.5134 34.732L78.0254 35.572C77.9227 35.8053 77.7501 36.048 77.5074 36.3C77.2741 36.552 76.9567 36.7667 76.5554 36.944C76.1541 37.112 75.6454 37.196 75.0294 37.196ZM73.3494 32.59H76.6254C76.5694 32.2633 76.3921 31.9927 76.0934 31.778C75.8041 31.5633 75.4354 31.456 74.9874 31.456C74.5487 31.456 74.1847 31.5727 73.8954 31.806C73.6154 32.03 73.4334 32.2913 73.3494 32.59ZM79.6817 37V35.32H81.1097V31.736H79.8497V30.056H82.7897V31.064H83.0417C83.1723 30.6813 83.3963 30.3873 83.7137 30.182C84.031 29.9673 84.4043 29.86 84.8337 29.86C85.5243 29.86 86.0797 30.0793 86.4997 30.518C86.9197 30.9473 87.1297 31.6053 87.1297 32.492V32.8L85.3097 32.968V32.772C85.3097 32.3893 85.2117 32.086 85.0157 31.862C84.8197 31.6287 84.5257 31.512 84.1337 31.512C83.7417 31.512 83.4337 31.6473 83.2097 31.918C82.9857 32.1887 82.8737 32.576 82.8737 33.08V35.32H84.4697V37H79.6817Z" fill="#9DBC1E"/>
<defs>
<filter id="filter0_d_2644_583" x="0.4" y="0.4" width="113.2" height="64.825" filterUnits="userSpaceOnUse" color-interpolation-filters="sRGB">
<feFlood flood-opacity="0" result="BackgroundImageFix"/>
<feColorMatrix in="SourceAlpha" type="matrix" values="0 0 0 0 0 0 0 0 0 0 0 0 0 0 0 0 0 0 127 0" result="hardAlpha"/>
<feOffset/>
<feGaussianBlur stdDeviation="5.8"/>
<feComposite in2="hardAlpha" operator="out"/>
<feColorMatrix type="matrix" values="0 0 0 0 0.780392 0 0 0 0 0.929412 0 0 0 0 0.427451 0 0 0 1 0"/>
<feBlend mode="hard-light" in2="BackgroundImageFix" result="effect1_dropShadow_2644_583"/>
<feBlend mode="normal" in="SourceGraphic" in2="effect1_dropShadow_2644_583" result="shape"/>
</filter>
<filter id="filter1_d_2644_583" x="12.5" y="15.375" width="90.125" height="41.75" filterUnits="userSpaceOnUse" color-interpolation-filters="sRGB">
<feFlood flood-opacity="0" result="BackgroundImageFix"/>
<feColorMatrix in="SourceAlpha" type="matrix" values="0 0 0 0 0 0 0 0 0 0 0 0 0 0 0 0 0 0 127 0" result="hardAlpha"/>
<feOffset dy="4"/>
<feGaussianBlur stdDeviation="2"/>
<feComposite in2="hardAlpha" operator="out"/>
<feColorMatrix type="matrix" values="0 0 0 0 0 0 0 0 0 0 0 0 0 0 0 0 0 0 0.25 0"/>
<feBlend mode="normal" in2="BackgroundImageFix" result="effect1_dropShadow_2644_583"/>
<feBlend mode="normal" in="SourceGraphic" in2="effect1_dropShadow_2644_583" result="shape"/>
</filter>
</defs>
</svg>
