<svg width="43" height="56" viewBox="0 0 43 56" fill="none" xmlns="http://www.w3.org/2000/svg">
<path fill-rule="evenodd" clip-rule="evenodd" d="M35.128 46.4497C35.8132 42.5613 37.0146 35.4187 37.3753 32.2009C37.4668 31.3847 37.5042 30.821 37.4654 30.627C37.4336 30.468 37.4229 30.079 37.4077 29.5261C37.3082 25.9115 37.0158 15.2911 29.3743 16.1229C27.8959 16.0629 24.6035 16.5304 23.2609 18.8799C22.7615 19.3793 21.3071 20.0785 19.4851 18.8799C18.9179 18.5067 18.4288 18.1113 17.966 17.7371C16.5701 16.6085 15.4126 15.6728 13.0721 16.1229C9.95551 16.7222 6.05961 20.4382 5.40041 31.6459C5.45064 37.056 6.57349 45.0373 10.315 50.3121C12.5284 53.4325 15.6582 55.6059 20.0245 55.7395C23.2251 55.8394 30.5361 54.9604 34.1752 50.6451C34.1605 49.1148 34.6961 47.4214 35.128 46.4497ZM12.7076 25.2329C10.4501 25.1849 9.13309 27.2507 8.75675 28.2895C9.05642 29.0087 14.2108 27.5703 15.5893 27.5703C16.9678 27.5703 18.1065 30.627 18.7658 31.2863C19.4251 31.9456 19.1853 30.1475 18.7658 28.2895C18.3463 26.4315 15.5293 25.2928 12.7076 25.2329ZM27.696 25.4726C29.9496 24.8493 32.9544 27.3306 34.1752 28.6491C34.1752 29.7279 30.5129 27.5703 28.7748 27.5703C27.0367 27.5703 26.6771 28.6491 25.7182 29.788C24.7592 30.9268 25.5983 37.8191 24.1599 40.6959C22.7215 43.5728 18.7658 40.9956 18.5261 40.3363C18.2863 39.6771 17.9267 36.8002 18.7658 36.1409C19.6049 35.4816 18.7658 36.5605 19.4851 38.838C20.2044 41.1155 22.1821 39.4972 22.8413 38.838C23.3688 38.3105 23.3408 32.5849 23.2609 29.788C23.8003 28.6092 25.4425 26.0959 27.696 25.4726ZM13.2518 33.9233C12.149 34.5467 10.5947 33.5438 9.95543 32.9644C9.55587 32.8445 8.56496 32.7247 7.79779 33.2041C6.83884 33.8035 9.11635 35.3018 10.7346 36.1409C12.3528 36.98 14.7502 36.1409 15.8889 34.8224C17.0277 33.5038 15.9489 32.9644 15.2896 32.6048C14.6303 32.2452 14.6303 33.1442 13.2518 33.9233ZM32.6706 32.7846C31.5318 32.9644 30.9924 33.7435 30.0335 33.9233C29.3642 34.0488 28.3119 33.5145 27.696 33.124C27.5362 32.8311 27.0847 32.5089 26.5573 33.5638C25.898 34.8824 27.696 36.1409 30.0335 36.3807C32.3709 36.6204 34.8282 33.9233 34.5285 33.2041C34.2289 32.4849 33.8093 32.6048 32.6706 32.7846ZM26.5573 44.2321C25.8381 44.4718 20.3441 44.332 17.687 44.2321C17.3473 44.0323 16.5482 43.7046 16.0687 43.9923C15.4694 44.3519 16.6681 45.8503 17.0277 46.2698C17.3873 46.6894 24.1599 46.4497 25.8381 46.2698C27.5162 46.09 27.696 45.1311 27.8758 44.8314C28.0556 44.5317 27.4563 43.9324 26.5573 44.2321ZM21.8824 48.2477C21.307 48.4395 20.0444 48.0079 19.4851 47.7682C19.1654 47.928 18.6339 48.4874 19.0655 49.4464C19.6049 50.6451 22.6016 50.1656 23.2609 50.1056C23.9203 50.0457 24.8791 49.0268 25.1788 48.4275C25.4784 47.8281 24.7592 46.9891 24.1599 47.049C23.5605 47.1089 22.6016 48.0079 21.8824 48.2477Z" fill="#CCAB8F"/>
<path fill-rule="evenodd" clip-rule="evenodd" d="M16.2485 0.599861C11.5017 0.983441 11.91 6.31363 12.7076 8.93077C19.9134 7.56396 26.1803 7.11501 30.5129 8.38667C30.6927 2.92803 29.3743 2.39789 27.9957 0.899533C26.6171 -0.598827 22.1821 0.120386 16.2485 0.599861ZM28.7748 5.99391L14.8701 6.35352C13.7673 3.33282 15.6092 2.21804 16.6681 2.03824C17.9866 1.85844 21.4748 1.49883 24.8791 1.49883C28.2834 1.49883 28.8947 4.49555 28.7748 5.99391Z" fill="#44403A"/>
<path d="M14.8701 6.35352L28.7748 5.99391C28.8947 4.49555 28.2834 1.49883 24.8791 1.49883C21.4748 1.49883 17.9866 1.85844 16.6681 2.03824C15.6092 2.21804 13.7673 3.33282 14.8701 6.35352Z" fill="#44403A"/>
<path d="M9.95543 32.9644C10.5947 33.5438 12.149 34.5467 13.2518 33.9233C14.6303 33.1442 14.6303 32.2452 15.2896 32.6048C15.9489 32.9644 17.0277 33.5038 15.8889 34.8224C14.7502 36.1409 12.3528 36.98 10.7346 36.1409C9.11635 35.3018 6.83884 33.8035 7.79779 33.2041C8.56496 32.7247 9.55587 32.8445 9.95543 32.9644Z" fill="#8E8B8B"/>
<path d="M30.0335 33.9233C30.9924 33.7435 31.5318 32.9644 32.6706 32.7846C33.8093 32.6048 34.2289 32.4849 34.5285 33.2041C34.8282 33.9233 32.3709 36.6204 30.0335 36.3807C27.696 36.1409 25.898 34.8824 26.5573 33.5638C27.0847 32.5089 27.5362 32.8311 27.696 33.124C28.3119 33.5145 29.3642 34.0488 30.0335 33.9233Z" fill="#8E8B8B"/>
<path d="M34.1752 28.6491C32.9544 27.3306 29.9496 24.8493 27.696 25.4726C25.4425 26.0959 23.8003 28.6092 23.2609 29.788C23.3408 32.5849 23.3688 38.3105 22.8413 38.838C22.1821 39.4972 20.2044 41.1155 19.4851 38.838C18.7658 36.5605 19.6049 35.4816 18.7658 36.1409C17.9267 36.8002 18.2863 39.6771 18.5261 40.3363C18.7658 40.9956 22.7215 43.5728 24.1599 40.6959C25.5983 37.8191 24.7592 30.9268 25.7182 29.788C26.6771 28.6491 27.0367 27.5703 28.7748 27.5703C30.5129 27.5703 34.1752 29.7279 34.1752 28.6491Z" fill="#8E8B8B"/>
<path d="M8.75675 28.2895C9.13309 27.2507 10.4501 25.1849 12.7076 25.2329C15.5293 25.2928 18.3463 26.4315 18.7658 28.2895C19.1853 30.1475 19.4251 31.9456 18.7658 31.2863C18.1065 30.627 16.9678 27.5703 15.5893 27.5703C14.2108 27.5703 9.05642 29.0087 8.75675 28.2895Z" fill="#8E8B8B"/>
<path d="M17.687 44.2321C20.3441 44.332 25.8381 44.4718 26.5573 44.2321C27.4563 43.9324 28.0556 44.5317 27.8758 44.8314C27.696 45.1311 27.5162 46.09 25.8381 46.2698C24.1599 46.4497 17.3873 46.6894 17.0277 46.2698C16.6681 45.8503 15.4694 44.3519 16.0687 43.9923C16.5482 43.7046 17.3473 44.0323 17.687 44.2321Z" fill="#8E8B8B"/>
<path d="M19.4851 47.7682C20.0444 48.0079 21.307 48.4395 21.8824 48.2477C22.6016 48.0079 23.5605 47.1089 24.1599 47.049C24.7592 46.9891 25.4784 47.8281 25.1788 48.4275C24.8791 49.0268 23.9203 50.0457 23.2609 50.1056C22.6016 50.1656 19.6049 50.6451 19.0655 49.4464C18.6339 48.4874 19.1654 47.928 19.4851 47.7682Z" fill="#8E8B8B"/>
<path fill-rule="evenodd" clip-rule="evenodd" d="M5.40041 31.6459C4.26166 31.7658 1.97216 31.562 1.92422 29.788C1.92299 29.7427 1.92152 29.6915 1.91988 29.6348C1.84143 26.9128 1.39108 11.289 10.315 9.41025C11.1229 9.24018 11.9208 9.08 12.7076 8.93077C19.9134 7.56396 26.1803 7.11501 30.5129 8.38667C31.0418 8.54191 31.5419 8.72279 32.0114 8.93077C36.7462 11.0285 39.9227 15.1639 40.7618 21.2173C41.4331 26.06 41.2013 29.9477 41.0015 31.2863C39.8495 31.1368 37.5114 31.1105 37.3753 32.2009C37.4668 31.3847 37.5042 30.821 37.4654 30.627C37.4336 30.468 37.4229 30.079 37.4077 29.5261C37.3082 25.9115 37.0158 15.2911 29.3743 16.1229C27.8959 16.0629 24.6035 16.5304 23.2609 18.8799C22.7615 19.3793 21.3071 20.0785 19.4851 18.8799C18.9179 18.5067 18.4288 18.1113 17.966 17.7371C16.5701 16.6085 15.4126 15.6728 13.0721 16.1229C9.95551 16.7222 6.05961 20.4382 5.40041 31.6459Z" fill="#44403A"/>
<path d="M42.9194 33.5638C42.9194 31.9336 41.6408 31.3662 41.0015 31.2863C39.8495 31.1368 37.5114 31.1105 37.3753 32.2009C37.0146 35.4187 35.8132 42.5613 35.128 46.4497C34.6961 47.4214 34.1605 49.1148 34.1752 50.6451C34.1849 51.6633 34.4383 52.6093 35.128 53.2223C37.2856 55.1402 40.4621 53.4021 41.4211 52.0835C42.38 50.765 39.8628 42.9735 39.683 41.3553C39.5032 39.737 42.9194 35.6016 42.9194 33.5638Z" fill="#CAA27E"/>
<path d="M5.40041 31.6459C4.26166 31.7658 1.97216 31.562 1.92422 29.788C-2.75074 33.5638 2.46371 38.3585 3.24285 41.3553C4.022 44.352 1.38489 47.8881 2.46371 51.3044C3.32676 54.0374 4.94099 54.5209 5.64023 54.421C7.1266 55.1881 9.37609 52.0014 10.315 50.3121C6.57349 45.0373 5.45064 37.056 5.40041 31.6459Z" fill="#CAA27E"/>
<ellipse cx="21.5826" cy="23.1949" rx="1.85797" ry="2.57718" fill="#D9D9D9"/>
</svg>
