<svg width="392" height="383" viewBox="0 0 392 383" fill="none" xmlns="http://www.w3.org/2000/svg">
<circle cx="207" cy="196.511" r="154.5" fill="url(#paint0_linear_245_590)"/>
<mask id="mask0_245_590" style="mask-type:alpha" maskUnits="userSpaceOnUse" x="49" y="0" width="313" height="309">
<path d="M362 194C362 279.328 292.709 309 206 309C119.291 309 49 239.828 49 154.5C49 69.172 119.291 0 206 0C292.709 0 358 110 362 194Z" fill="url(#paint1_linear_245_590)"/>
</mask>
<g mask="url(#mask0_245_590)">
<ellipse cx="223" cy="290.5" rx="236.5" ry="143.5" fill="url(#paint2_linear_245_590)"/>
</g>
<mask id="mask1_245_590" style="mask-type:alpha" maskUnits="userSpaceOnUse" x="35" y="107" width="150" height="162">
<path d="M68.1515 115.915C67.245 116.51 66.7416 116.902 66.3831 117.294C65.9993 117.722 65.7106 117.932 65.1823 118.214C64.6492 118.488 64.3092 118.748 63.7487 119.303C63.351 119.705 62.8707 120.14 62.69 120.281L62.3713 120.518L62.0977 120.152C61.879 119.868 61.7894 119.805 61.6595 119.874C61.3996 120.013 60.0615 121.218 58.3442 122.86C57.4662 123.697 56.2793 124.81 55.709 125.326C53.3121 127.51 50.7363 130.546 48.8542 133.4C48.5381 133.892 47.8584 134.912 47.3431 135.678C42.9229 142.305 39.4254 150.389 37.6447 158.1C37.3972 159.179 37.0346 160.709 36.8452 161.501C36.1336 164.42 35.7489 167.076 35.8195 168.542C35.8377 168.888 35.8068 169.205 35.7548 169.233C35.7075 169.27 35.6071 169.457 35.5553 169.652C35.4666 169.944 35.4835 170.08 35.6483 170.326C35.8317 170.606 35.8329 170.65 35.6395 170.809C35.382 171.036 35.4058 171.101 35.8219 171.213C36.2379 171.325 36.2131 171.382 35.7354 171.426C35.2403 171.479 35.2143 171.493 35.438 171.641C35.5947 171.746 35.5989 171.9 35.3974 172.732C35.0797 174.138 35.1745 174.878 35.7092 175.149C35.941 175.27 35.941 175.27 35.5512 175.478C35.1094 175.714 35.1019 175.763 35.5111 175.945C35.9203 176.127 35.9129 176.176 35.4624 176.416L35.0553 176.634L35.5119 176.78L35.9684 176.926L35.7086 177.064C35.57 177.138 35.3846 177.271 35.2946 177.352C35.1318 177.506 35.1278 177.52 35.4127 177.657C35.5641 177.732 35.7786 177.862 35.8948 177.934L36.0919 178.073L35.6194 178.148C35.3658 178.194 35.1521 178.253 35.144 178.279C35.1273 178.311 35.3285 178.437 35.5822 178.557L36.0452 178.778L35.6034 179.014C35.3609 179.143 35.1755 179.276 35.194 179.311C35.2079 179.337 35.4183 179.48 35.6554 179.632L36.0889 179.901L35.8399 179.956C35.7048 179.995 35.5344 180.031 35.4558 180.05C35.3726 180.061 35.3284 180.375 35.3433 180.923C35.3636 181.67 35.4031 181.827 35.646 182.198L35.9255 182.617L35.6068 182.854L35.2927 183.1L35.8381 183.12L36.3835 183.14L36.0348 183.405C35.6774 183.674 35.3981 184.068 35.4676 184.198C35.4907 184.241 35.705 184.205 35.9574 184.114L36.4016 183.966L35.9599 184.369L35.527 184.768L35.7323 185.048C35.896 185.25 35.9354 185.407 35.8906 185.698C35.7372 186.682 35.9578 188.491 36.4801 190.572C36.6187 191.144 36.7088 191.709 36.6811 191.824C36.646 191.987 36.708 192.166 36.9192 192.498C37.1992 192.939 37.2085 192.956 37.0128 193.194C36.8299 193.415 36.8357 193.467 37.041 193.747C37.2238 194.006 37.2592 194.176 37.2343 194.713C37.2132 195.069 37.2454 195.609 37.3104 195.897C37.4125 196.422 37.4536 196.478 38.0238 197.086C38.0782 197.146 38.0378 197.279 37.9097 197.414C37.7943 197.532 37.6921 197.653 37.6794 197.671C37.6754 197.684 37.894 197.969 38.167 198.313C38.4354 198.648 38.6673 198.936 38.6766 198.953C38.6812 198.962 38.5454 198.979 38.3565 198.98C37.97 198.986 37.9479 198.82 38.5544 200.6C38.7785 201.249 39.0894 202.018 39.2468 202.313C39.4783 202.746 39.5033 202.855 39.3895 202.871C39.2757 202.887 39.2694 202.98 39.3458 203.206C39.4032 203.376 39.6795 204.164 39.9424 204.948C40.301 206.014 40.4793 206.431 40.6325 206.572C40.7944 206.708 40.828 206.813 40.804 207.06C40.7185 207.796 40.9079 208.296 41.6558 209.299C42.0751 209.855 42.1081 209.937 42.1195 210.354C42.1274 210.807 42.1413 210.833 45.2864 216.613C47.4731 220.601 49.0351 223.586 50.2904 226.122C52.7548 231.108 52.69 230.987 53.1374 231.282C53.482 231.51 53.5965 231.683 54.5663 233.414C55.8868 235.759 56.925 237.098 59.4415 239.639C60.0967 240.303 60.2159 240.484 60.4827 241.087C60.7595 241.73 60.7866 241.76 60.8246 241.539C60.8516 241.402 60.8282 241.025 60.784 240.692C60.7357 240.373 60.724 240.101 60.7552 240.118C60.7904 240.121 60.9647 240.551 61.1367 241.061C61.4756 242.049 61.7226 242.407 62.1618 242.562C62.3704 242.64 62.4075 242.709 62.5622 243.228C62.7471 243.886 63.0003 244.152 63.3458 244.09C63.5162 244.054 63.5566 244.088 63.5614 244.264C63.5622 244.453 63.5887 244.461 63.7966 244.35C64.2644 244.1 64.3685 244.211 64.1228 244.71C63.9192 245.142 63.9198 245.164 64.1335 245.105C64.26 245.071 64.539 244.989 64.7527 244.93L65.1362 244.814L64.8576 245.23L64.5789 245.647L64.967 245.539C65.1807 245.481 65.3817 245.44 65.4083 245.448C65.4349 245.456 65.4397 245.632 65.4237 245.852C65.3964 246.301 65.494 246.338 66.0051 246.065L66.2869 245.925L66.0377 246.293C65.898 246.49 65.7844 246.673 65.7717 246.691C65.7428 246.762 66.7633 247.609 66.8366 247.558C66.8753 247.526 67.03 247.399 67.1761 247.277L67.4515 247.063L67.2711 247.538L67.082 248.017L67.6013 247.885L68.1159 247.743L67.8817 248.18C67.6723 248.559 67.6695 248.616 67.8486 248.576C67.993 248.555 68.1271 248.639 68.3006 248.881C68.4417 249.061 68.9477 249.57 69.4213 250.019C69.9035 250.463 70.3279 250.882 70.3696 250.96C70.4113 251.038 70.5107 251.14 70.5997 251.182C70.7159 251.253 70.7592 251.23 70.8278 251.004C70.8854 250.862 70.9443 250.764 70.9709 250.772C70.9974 250.78 71.2698 251.102 71.5793 251.494C72.1472 252.181 73.2839 253.099 74.1087 253.538C74.3092 253.643 74.8249 254.024 75.2476 254.377C77.1624 255.96 79.4695 257.422 81.1669 258.118C83.633 259.128 84.3849 259.472 84.3966 259.577C84.407 259.638 84.4801 259.9 84.5704 260.152C84.7175 260.553 84.7447 260.583 84.811 260.436C84.8727 260.28 85.0281 260.342 85.8807 260.833C88.3137 262.239 91.0566 263.412 94.1455 264.378C95.373 264.758 97.1899 265.324 98.1694 265.635C99.149 265.947 100.264 266.22 100.643 266.262C101.026 266.291 101.578 266.408 101.875 266.506C102.164 266.608 102.805 266.766 103.291 266.863C103.786 266.955 104.665 267.142 105.262 267.279C106.58 267.577 108.27 267.843 109.308 267.912C109.819 267.95 110.116 268.026 110.171 268.13C110.268 268.312 110.43 268.281 110.398 268.075C110.383 268.005 110.66 268.024 111.103 268.144C111.51 268.238 112.29 268.323 112.874 268.311C113.607 268.287 113.956 268.335 114.038 268.447C114.138 268.571 114.158 268.505 114.178 268.126C114.189 267.854 114.222 267.624 114.265 267.601C114.3 267.583 114.465 267.829 114.631 268.14C114.9 268.643 114.95 268.694 115.011 268.539C115.102 268.312 115.176 268.306 116.292 268.456C117.694 268.641 119.136 268.651 121.777 268.487C125.76 268.251 126.346 268.138 126.643 267.612C126.773 267.375 126.773 267.375 127.024 267.698L127.274 268.021L127.439 267.643L127.614 267.26L127.813 267.488C128.044 267.754 128.5 267.856 128.998 267.745C130.098 267.491 131.04 267.211 131.334 267.053C131.611 266.905 131.657 266.825 131.658 266.513L131.665 266.152L131.955 266.632C132.121 266.9 132.258 267.116 132.276 267.107C132.293 267.098 132.417 266.954 132.544 266.796C132.863 266.414 132.863 266.414 132.993 266.657C133.058 266.778 133.228 266.888 133.369 266.901C133.664 266.933 134.142 266.722 134.215 266.527C134.235 266.46 134.359 266.316 134.492 266.212C134.69 266.039 134.773 266.028 134.978 266.141C135.326 266.334 135.626 266.229 136.228 265.73L136.744 265.298L136.858 265.616L136.963 265.938L137.621 265.586C138.141 265.308 138.333 265.251 138.594 265.301C138.863 265.346 139.024 265.293 139.63 264.947C140.11 264.679 140.384 264.566 140.464 264.613C140.602 264.683 142.66 263.929 144.519 263.114C149.278 261.038 154.119 258.072 158.016 254.842C158.519 254.428 158.944 254.079 158.962 254.069C158.97 254.065 159.033 254.12 159.092 254.189C159.169 254.27 159.174 254.112 159.109 253.824L159.007 253.321L159.316 253.524C159.477 253.638 159.633 253.7 159.653 253.655C159.679 253.619 160.22 253.152 160.855 252.612L162.024 251.631L161.947 251.238C161.864 250.748 162.017 250.743 162.272 251.22L162.475 251.579L162.497 251.267C162.507 250.994 162.576 250.913 162.887 250.746C163.329 250.51 164.171 249.793 164.631 249.258L164.972 248.875L164.742 248.508L164.517 248.149L165.059 248.35C165.587 248.546 165.6 248.55 165.541 248.314C165.516 248.183 165.407 247.918 165.314 247.723L165.138 247.372L165.497 247.648L165.856 247.924L166.329 247.392C166.585 247.1 167.118 246.514 167.52 246.099C168.319 245.26 169.147 244.205 169.396 243.693C169.526 243.434 169.642 243.339 169.933 243.239L170.307 243.105L170.025 242.911C169.869 242.805 169.751 242.69 169.763 242.65C169.767 242.615 169.945 242.553 170.16 242.516C170.558 242.448 170.651 242.31 170.475 241.98C170.377 241.799 170.477 241.734 170.898 241.732L171.232 241.731L171.061 241.411C170.881 241.073 170.889 241.068 171.575 240.935C171.807 240.89 171.811 240.876 171.592 240.592C171.406 240.347 171.395 240.286 171.522 240.273C172.087 240.205 172.165 240.142 172.112 239.814C172.064 239.494 172.072 239.49 172.341 239.513C172.751 239.55 172.81 239.474 172.629 239.136C172.541 238.971 172.485 238.824 172.502 238.814C172.519 238.805 172.708 238.782 172.918 238.759L173.299 238.722L173.133 238.411C172.98 238.125 172.983 238.089 173.202 238.04C173.328 238.005 173.507 237.965 173.595 237.963C173.7 237.951 173.71 237.846 173.638 237.606C173.517 237.214 173.573 237.151 173.914 237.269C174.154 237.363 174.163 237.359 174.233 237.01C174.271 236.811 174.486 236.462 174.72 236.192C175.125 235.742 175.326 235.222 175.192 234.971C175.155 234.902 175.188 234.818 175.257 234.78C175.456 234.674 176.385 233.265 176.919 232.244C178.437 229.395 180.923 222.253 182.247 216.957C183.455 212.113 183.987 208.087 183.917 204.372C183.897 203.647 183.929 202.873 183.98 202.656C184.023 202.444 184.04 201.956 184.017 201.579C183.975 201.167 184.018 200.81 184.094 200.702C184.175 200.603 184.219 200.312 184.204 200.053C184.188 199.795 184.151 198.912 184.129 198.1C184.079 196.757 184.053 196.604 183.857 196.508C183.594 196.37 183.529 196.249 183.409 195.734L183.32 195.336L183.687 195.586C184.009 195.814 184.044 195.818 184.022 195.629C184.014 195.511 183.944 194.691 183.884 193.81C183.812 192.924 183.719 191.749 183.668 191.197C183.618 190.644 183.607 190.06 183.646 189.905C183.702 189.697 183.663 189.54 183.484 189.246C183.268 188.927 183.262 188.852 183.4 188.756C183.533 188.652 183.531 188.586 183.325 188.262C183.128 187.955 183.087 187.754 183.102 187.156C183.133 185.881 183.054 185.4 182.73 184.794C182.563 184.482 182.384 184.188 182.321 184.133C182.235 184.056 182.294 183.958 182.509 183.798C182.664 183.671 182.805 183.539 182.818 183.5C182.834 183.468 182.595 183.396 182.295 183.356C181.995 183.315 181.752 183.256 181.765 183.238C181.764 183.216 181.943 183.154 182.156 183.096C182.37 183.037 182.54 182.98 182.535 182.971C182.539 182.958 182.391 182.202 182.221 181.279C181.487 177.406 180.487 174.076 178.979 170.484C178.627 169.636 178.365 168.896 178.39 168.839C178.465 168.709 178.18 168.739 177.903 168.887C177.505 169.1 177.512 168.885 177.905 168.641L178.307 168.393L177.711 166.818C176.196 162.839 174.442 159.077 172.336 155.325C171.519 153.858 170.547 152.206 170.175 151.636C169.812 151.061 169.275 150.201 168.989 149.708C167.676 147.481 167.291 146.885 167.037 146.743C166.84 146.625 166.625 146.306 165.964 145.089C165.33 143.924 165.045 143.475 164.711 143.141C164.472 142.902 164.235 142.605 164.17 142.484C163.854 141.851 162.909 140.374 162.84 140.411C162.701 140.485 162.802 141.11 163.052 141.745C163.278 142.315 163.274 142.328 163.052 142.079C162.734 141.714 162.506 141.057 162.528 140.599C162.55 140.265 162.493 140.117 162.154 139.586C161.717 138.895 161.359 138.641 161.065 138.798C160.887 138.882 160.882 138.873 161.042 138.632C161.181 138.413 161.184 138.334 161.047 138.162C160.952 138.045 160.692 137.705 160.46 137.395C160.232 137.094 160.018 136.841 160 136.828C159.974 136.82 159.983 137.171 160.021 137.596C160.078 138.223 160.072 138.315 159.952 138.112C159.739 137.714 159.64 137.132 159.748 136.918C159.844 136.722 159.816 136.67 158.782 135.341C158.017 134.346 157.6 133.879 157.269 133.655C156.956 133.444 156.716 133.182 156.536 132.866C156.388 132.611 155.748 131.873 155.133 131.222C154.509 130.575 153.694 129.697 153.331 129.267C152.687 128.52 152.656 128.503 152.502 128.674C152.332 128.877 152.377 128.92 151.725 128.032C151.492 127.722 149.554 125.762 149.43 125.717C149.376 125.701 149.274 125.823 149.2 125.996C149.125 126.169 149.037 126.295 149.001 126.291C148.97 126.275 148.916 126.07 148.879 125.833C148.81 125.392 148.797 125.387 147.457 124.132C146.11 122.881 146.1 122.864 145.93 123.066C145.73 123.296 145.366 123.323 145.259 123.124C145.204 123.02 145.251 122.962 145.464 122.881C145.625 122.829 145.738 122.768 145.728 122.751C145.719 122.734 145.105 122.293 144.366 121.764C138.492 117.609 132.633 114.46 127.073 112.454C126.057 112.095 125.235 111.765 123.08 110.879C121.511 110.237 118.588 109.393 117.003 109.116C116.262 109 115.228 108.773 114.7 108.62C113.456 108.272 112.972 108.241 112.605 108.493C112.45 108.598 112.274 108.748 112.215 108.824C112.062 109.017 111.802 108.677 111.764 108.252C111.738 107.932 111.725 107.928 111.263 107.918C111.008 107.921 110.661 107.917 110.503 107.913C110.336 107.913 109.665 107.826 109.016 107.716C108.359 107.611 107.117 107.495 106.267 107.448C105.409 107.405 104.001 107.312 103.142 107.247L101.575 107.127L101.749 107.558L101.923 107.988L101.442 107.566C101.18 107.327 100.88 107.12 100.779 107.096C100.628 107.065 100.635 107.14 100.786 107.549C100.99 108.097 100.861 108.043 100.373 107.38C100.223 107.182 100.065 107.032 100.022 107.055C99.9784 107.078 99.9231 107.308 99.9037 107.564C99.8756 107.824 99.8377 108.045 99.8203 108.054C99.7944 108.068 99.7012 107.873 99.6062 107.611L99.44 107.155L97.3411 107.207L95.2468 107.269L95.2852 107.549C95.3875 108.24 95.3581 108.289 95.1174 107.839C94.9791 107.601 94.8148 107.377 94.7391 107.34C94.5784 107.247 93.3636 107.496 92.9998 107.69C92.8179 107.787 92.7341 107.776 92.6693 107.655C92.6045 107.534 92.3844 107.518 91.7541 107.61C91.2198 107.673 90.9362 107.746 90.9472 107.829C90.9577 107.891 90.7953 107.899 90.5567 107.849C90.1193 107.76 90.0014 107.789 89.7457 108.082C89.6095 108.244 89.5223 108.268 89.3403 108.198C89.2027 108.149 88.8861 108.14 88.6192 108.183C88.361 108.22 87.87 108.26 87.5407 108.269C86.7677 108.281 86.0428 108.446 85.0511 108.82C84.6116 108.977 84.1888 109.103 84.109 109.079C83.9854 109.056 84.0011 109.148 84.1909 109.503C84.5473 110.17 84.2654 110.142 83.8338 109.46L83.4942 108.928L83.4373 109.26C83.3804 109.591 83.3717 109.595 83.1498 109.513C83.0123 109.464 82.6691 109.447 82.3843 109.477C81.9106 109.508 81.4491 109.665 79.1481 110.527C78.7565 110.67 77.9728 110.933 77.4021 111.115C76.4826 111.395 75.9883 111.637 72.8907 113.259C70.3781 114.58 69.0581 115.319 68.1515 115.915ZM78.0411 117.645C78.3061 117.537 78.7561 117.441 79.0462 117.442C79.6216 117.435 80.7935 117.065 82.0698 116.494C82.5214 116.297 83.1267 116.096 83.4115 116.066C84.2433 115.956 85.4124 115.643 85.8282 115.421C86.088 115.282 86.4768 115.197 87.0123 115.178C87.4554 115.152 88.6541 114.957 89.6898 114.749C91.6387 114.353 93.6571 114.087 96.0644 113.903C98.5462 113.713 102.542 113.604 104.279 113.667C105.22 113.698 105.994 113.708 106.015 113.685C106.037 113.663 105.973 113.44 105.879 113.201L105.705 112.771L106.004 112.934C106.191 113.035 106.372 113.227 106.461 113.436C106.61 113.757 106.637 113.765 107.504 113.825C108.939 113.927 111.665 114.296 113.326 114.611C118.988 115.705 126.153 118.213 130.871 120.747C131.869 121.282 133.094 121.886 133.587 122.079C134.928 122.61 135.765 123.154 140.301 126.453C140.83 126.839 141.658 127.366 142.126 127.616C142.594 127.867 143.054 128.145 143.149 128.239C143.244 128.333 143.91 128.913 144.626 129.543C145.782 130.54 146.229 130.981 146.927 131.788C147.055 131.942 147.205 131.973 147.476 131.918C148.014 131.82 148.169 131.881 147.831 132.062C147.519 132.228 147.525 132.259 147.935 132.63C148.097 132.788 148.374 133.097 148.547 133.339L148.853 133.765L148.995 133.322C149.161 132.821 149.166 132.83 149.372 133.632C149.579 134.435 149.579 134.435 149.98 134.332L150.338 134.23L150.104 134.689C149.883 135.13 149.879 135.143 150.106 135.089C150.237 135.063 150.49 134.973 150.654 134.885L150.967 134.74L150.786 135.193C150.696 135.442 150.627 135.668 150.646 135.703C150.669 135.746 150.821 135.698 150.995 135.605C151.272 135.457 151.316 135.456 151.365 135.652C151.408 135.774 151.439 135.958 151.446 136.054C151.463 136.19 151.538 136.206 151.817 136.123L152.157 136.009L151.981 136.325C151.838 136.558 151.828 136.663 151.931 136.753C152.007 136.812 152.314 137.094 152.594 137.368C152.878 137.65 153.234 137.961 153.377 138.063C153.57 138.193 153.725 138.422 153.908 138.848L154.184 139.447L154.502 139.355L154.833 139.266L154.617 139.549C154.38 139.876 154.385 139.885 155.322 140.598L155.928 141.065L155.823 141.577L155.715 142.103L156.2 141.844C156.468 141.7 156.699 141.61 156.717 141.645C156.736 141.68 156.701 141.865 156.654 142.069L156.545 142.427L157.159 143.013C157.677 143.504 157.915 143.823 158.697 145.12C159.787 146.931 160.234 147.538 160.873 148.066L161.336 148.453L161.156 148.616C160.946 148.806 160.96 148.854 161.222 148.948C161.399 149.009 161.977 150.048 165.115 155.899C167.147 159.68 168.986 163.163 169.192 163.631C169.529 164.387 169.616 164.508 169.92 164.723L170.27 164.96L170.278 165.579C170.283 166.278 170.428 166.59 171.548 168.352L172.25 169.436L172.201 169.886C172.152 170.357 172.272 171.061 172.533 171.779L172.704 172.223L173.059 172.033C173.544 171.774 173.646 171.986 173.217 172.371L172.896 172.666L173.793 175.115C174.282 176.468 174.711 177.687 174.754 177.831C174.831 178.079 174.858 178.087 175.126 177.944C175.417 177.8 175.417 177.8 175.322 178.018C175.264 178.138 175.168 178.334 175.114 178.441C175.013 178.628 175.031 178.641 175.436 178.669C175.929 178.695 175.918 178.779 175.35 179.216L175.001 179.481L175.436 179.482L175.867 179.475L175.739 179.777C175.635 180.021 175.667 180.205 175.877 180.806C176.024 181.206 176.152 181.739 176.159 181.98C176.17 182.23 176.185 182.445 176.189 182.454C176.199 182.471 176.338 182.419 176.503 182.353L176.799 182.24L176.506 182.63L176.209 183.011L176.47 183.874C176.672 184.545 176.771 184.771 176.914 184.851C177.066 184.948 177.096 185.11 177.077 185.844C177.059 186.332 177.091 187.017 177.145 187.367C177.198 187.717 177.268 188.515 177.303 189.142C177.379 190.493 177.522 191.074 177.899 191.507C178.13 191.773 178.154 191.839 178.044 192.009C177.91 192.236 177.928 193.563 178.092 196.037C178.157 196.971 178.185 198.169 178.16 198.706C178.135 199.243 178.104 200.039 178.082 200.497C178.048 201.205 178.07 201.349 178.28 201.638C178.576 202.048 178.547 202.576 178.192 203.411C178.043 203.758 177.927 204.354 177.887 204.966C177.747 207.246 177.092 211.438 176.409 214.432C175.35 219.14 173.381 225.103 172.033 227.706C169.786 232.025 165.855 238.692 165.422 238.923C165.387 238.942 165.186 238.816 164.966 238.633C164.413 238.16 163.228 237.423 161.904 236.739C160.246 235.865 157.064 234.036 155.396 232.979C153.97 232.082 152.86 231.36 147.983 228.11C143.669 225.248 140.783 223.494 140.767 223.736C140.751 223.934 141.783 225.844 142.433 226.811C143.33 228.135 143.908 228.695 145.566 229.88C148.111 231.683 150.079 232.802 156.219 235.935C160.706 238.226 160.853 238.314 159.696 237.941C158.814 237.644 154.062 235.317 150.433 233.382C148.373 232.278 145.841 230.791 144.712 229.991C142.433 228.414 140.494 225.141 139.62 221.443C139.322 220.177 139.098 218.091 139.126 216.873C139.142 216.319 139.134 215.845 139.11 215.802C139.087 215.758 138.664 215.695 138.18 215.664C135.785 215.519 134.641 215.128 133.771 214.167L133.454 213.803L133.695 212.816C134.014 211.476 134.074 211.066 134.046 210.201L134.017 209.459L134.305 209.728C134.716 210.121 135.037 210.952 135.066 211.694C135.08 212.053 134.963 212.751 134.787 213.38L134.482 214.456L134.997 214.648C136.581 215.216 139.002 215.058 140.818 214.288L141.47 214.006L141.497 213.557C141.516 213.302 141.542 212.954 141.55 212.783L141.568 212.461L142.511 212.893C143.886 213.528 144.601 213.636 145.259 213.284C145.502 213.154 145.552 213.06 145.551 212.705C145.562 212.142 145.335 211.529 144.931 211.065C144.749 210.85 144.12 210.318 143.523 209.869C142.169 208.855 141.772 208.488 141.494 207.968L141.285 207.557L141.652 207.806C141.85 207.946 142.529 208.384 143.155 208.784C143.781 209.185 144.48 209.658 144.709 209.836C145.674 210.601 146.296 211.494 146.529 212.471C146.682 213.069 146.567 213.064 147.893 212.544C149.536 211.889 150.979 211.151 151.832 210.517C152.831 209.76 153.548 208.976 153.458 208.724C153.424 208.619 152.85 208.024 152.187 207.388L150.982 206.238L151.761 205.778C152.642 205.24 153.124 204.682 153.336 203.933C153.5 203.345 153.493 201.956 153.311 201.241C153.083 200.271 152.192 198.709 150.926 197.048C150.333 196.273 149.764 195.52 149.663 195.395C149.349 194.973 145.871 191.341 144.901 190.423C143.444 189.03 142.054 187.991 140.803 187.38C140.531 187.246 139.685 186.663 138.935 186.095C138.181 185.517 137.329 184.882 137.051 184.674L136.536 184.314L135.401 184.921C134.076 185.629 133.122 186.261 131.522 187.518C129.921 188.752 129.934 188.734 130.607 188.764C132.401 188.83 134.175 188.127 136.336 186.482C136.715 186.19 137.038 185.962 137.056 185.974C137.144 185.994 136.873 187.319 136.609 188.139C136.298 189.119 135.66 190.072 135.022 190.525C134.216 191.1 133.08 190.995 131.177 190.185C130.026 189.698 129.365 189.483 129.315 189.577C129.29 189.613 129.261 190.352 129.245 191.218C129.225 192.743 129.025 193.952 128.684 194.647L128.521 194.968L127.852 194.903C127.054 194.828 125.983 194.554 125.214 194.219L124.663 193.979L124.683 194.391C124.71 194.755 124.874 195.102 125.897 197.017C126.892 198.879 127.098 199.326 127.222 199.872C127.708 202.051 127.22 204.327 125.833 206.316C125.275 207.126 124.576 207.923 124.457 207.887C124.35 207.855 124.852 206.606 125.515 205.261C126.414 203.444 126.736 202.337 126.71 201.081C126.688 199.79 126.464 199.119 125.644 197.898C124.874 196.75 124.296 195.667 124.181 195.161C124.057 194.659 124.193 193.829 124.462 193.395L124.664 193.065L126.261 193.593L127.848 194.125L127.991 193.726C128.198 193.092 128.494 191.062 128.492 190.184C128.502 189.744 128.553 189.338 128.608 189.275C128.993 188.891 131.056 187.188 132.085 186.404C133.51 185.319 136.389 183.602 136.789 183.6C137.47 183.603 138.75 184.601 140.268 186.296C140.603 186.673 140.955 187.019 141.044 187.061C141.226 187.131 143.261 187.124 143.276 187.049C143.282 186.934 142.1 183.869 141.617 182.757C140.998 181.328 140.181 180.05 139.335 179.154C138.684 178.456 138.06 177.998 137.873 178.065C137.799 178.093 137.261 178.336 136.693 178.607L135.647 179.088L134.53 179.039C133.324 178.971 132.633 179.095 132.182 179.459C132.022 179.577 131.67 180.022 131.4 180.434C130.783 181.364 130.139 182.054 129.628 182.327L129.238 182.536L129.062 182.206C128.867 181.843 127.694 180.231 127.61 180.198C127.575 180.195 127.305 180.606 127.016 181.128C126.722 181.642 126.136 182.567 125.714 183.194C122.91 187.365 122.18 188.646 121.596 190.428C120.679 193.213 120.776 195.02 121.948 197.234C122.518 198.321 122.493 198.357 121.686 197.619C121.159 197.132 120.53 195.998 120.337 195.177C119.934 193.444 120.334 190.88 121.335 188.753C121.979 187.395 122.574 186.465 124.774 183.373C125.904 181.778 126.864 180.407 126.897 180.323C126.939 180.234 126.893 180.024 126.805 179.86C126.528 179.34 126.217 178.114 126.2 177.477C126.184 176.884 126.391 176.084 126.669 175.667C126.839 175.421 126.857 175.456 126.846 176.163C126.825 177.522 127.313 178.809 127.983 179.208C128.496 179.502 129.022 179.466 130.697 179.016C133.236 178.327 135.469 177.546 137.383 176.69C138.173 176.334 138.273 176.27 138.561 175.871C139.162 175.038 139.402 173.862 139.087 173.251C139.018 173.121 138.03 172.19 136.887 171.198C134.631 169.207 130.173 165.075 128.791 163.676C126.776 161.656 125.204 160.882 123.469 161.052C123.035 161.095 122.682 161.205 122.275 161.423C121.712 161.724 121.682 161.751 121.575 162.198C120.976 164.556 121.183 167.174 122.12 169.156C122.381 169.707 122.566 170.177 122.531 170.195C122.418 170.255 121.98 169.81 121.6 169.245L121.247 168.71L121.469 169.271C121.592 169.584 121.705 170.024 121.715 170.252L121.74 170.674L121.425 170.23C121.251 169.988 120.943 169.474 120.73 169.097C120.046 167.859 119.268 167.195 118.41 167.152C118.124 167.138 117.889 167.219 117.161 167.608C115.732 168.372 114.99 169.047 112.715 171.666C111.923 172.58 111.158 173.378 110.985 173.471C110.638 173.656 110.59 173.815 110.868 173.878C111.005 173.905 111.457 173.708 112.423 173.203C113.433 172.675 114.258 172.323 115.568 171.856C116.551 171.509 117.37 171.227 117.383 171.231C117.454 171.238 117.396 173.151 117.311 173.597C117.206 174.11 116.89 174.435 116.111 174.852C115.383 175.24 114.728 175.39 113.739 175.395C112.883 175.396 111.454 175.035 110.757 174.628L110.355 174.397L109.327 174.869C108.741 175.149 107.91 175.448 107.369 175.581L106.439 175.822L106.745 175.414C106.965 175.118 107.339 174.818 108.026 174.373C110.099 173.042 110.549 172.634 112.54 170.401C115.311 167.272 115.651 166.99 117.901 166.054L119.513 165.382L119.623 165.067C120.083 163.719 117.774 162.837 115.414 163.464C114.891 163.61 114.47 163.801 113.51 164.359C111.511 165.516 110.91 166.183 109.229 169.019C107.671 171.667 106.856 172.559 105.158 173.467C104.11 174.027 103.295 174.251 102.284 174.256C101.419 174.262 101.399 174.184 102.218 173.924C102.523 173.828 103.248 173.518 103.839 173.248C105.873 172.283 107.003 171.167 107.917 169.23C108.731 167.503 109.389 166.339 110.155 165.272C111.439 163.506 112.348 162.686 113.985 161.811C115.367 161.084 116.013 160.939 118.345 160.862C119.205 160.825 120.279 160.73 120.747 160.647C121.485 160.509 121.685 160.424 122.364 160.006C124.585 158.64 125.689 156.268 124.916 154.488C124.378 153.272 123.354 152.316 119.783 149.781C118.412 148.799 116.582 147.416 115.728 146.714C112.874 144.375 111.82 143.758 110.7 143.788C109.866 143.811 109.265 143.999 107.433 144.8C105.652 145.573 104.362 145.951 104.376 145.687C104.396 145.432 107.312 144.096 109.65 143.281C110.838 142.858 111.847 142.496 111.908 142.464C112.055 142.385 111.947 140.037 111.756 139.282L111.584 138.628L113.382 137.678L115.171 136.733L114.12 137.684C113.541 138.206 113.032 138.733 112.992 138.844C112.951 138.955 112.932 139.879 112.951 140.893C112.973 141.894 112.966 142.923 112.942 143.169L112.888 143.61L115.16 145.381C122.118 150.794 126.267 153.599 129.08 154.779C129.916 155.134 130.73 155.345 130.895 155.257C131.086 155.155 130.635 153.792 130.067 152.748C129.215 151.176 128.631 150.52 125.635 147.789C123.454 145.814 123.348 145.637 122.877 143.339C122.741 142.688 122.515 141.995 122.243 141.361C121.836 140.454 121.791 140.389 121.547 140.33C120.782 140.127 119.945 140.395 118.354 141.335L117.216 141.999L117.235 141.721C117.272 141.312 117.612 140.885 118.332 140.356C119.072 139.804 119.455 139.31 119.431 138.933C119.392 138.319 118.307 137.975 117.423 138.302L116.971 138.477L116.987 137.277L117.003 136.077L116.007 135.34C114.882 134.505 114.104 134.174 113.283 134.201L112.751 134.207L111.803 134.891L110.846 135.581L110.276 135.596C109.494 135.613 108.329 135.913 107.653 136.274C107.177 136.529 107.098 136.548 107.077 136.404C107.061 136.312 107.03 136.128 106.991 135.993L106.931 135.736L107.925 135.282C108.467 135.026 109.283 134.657 109.73 134.451C110.542 134.095 110.546 134.082 110.492 133.855C110.338 133.191 107.403 132.388 104.87 132.316C101.95 132.229 98.2705 132.658 95.9214 133.368C93.886 133.977 91.3948 135.275 90.246 136.334C89.174 137.308 87.986 139.024 87.4591 140.33L87.2821 140.769L89.2327 140.273C91.5102 139.679 92.4027 139.536 93.204 139.598C93.8823 139.658 94.7376 139.925 95.2781 140.249C96.1313 140.762 97.0955 140.67 98.6963 139.914C99.2645 139.644 99.7514 139.451 99.7746 139.494C99.844 139.624 98.9133 140.299 98.1672 140.654C97.1606 141.125 96.6736 141.151 95.5605 140.777C93.7557 140.172 93.1628 140.021 92.6446 140.03C92.0738 140.046 89.858 140.484 88.4752 140.856C85.5745 141.638 83.0365 142.994 81.5629 144.55C81.1231 145.019 81.0971 145.033 80.3254 145.256C79.1396 145.6 76.6258 146.877 75.4197 147.766C73.7736 148.958 71.968 150.747 70.9744 152.18C69.6842 154.017 68.7654 156.423 68.55 158.521C68.4211 159.759 68.4495 160.479 68.7337 162.365C69.0411 164.461 69.0828 165.185 68.9031 165.849C68.7591 166.371 68.7551 166.385 67.8965 166.966C66.4259 167.986 65.4453 169.089 64.7971 170.46C64.3773 171.342 64.2215 172.238 64.2866 173.339C64.3365 174.203 64.4055 174.478 65.0639 176.231C65.3957 177.123 65.4511 177.706 65.2646 178.44C65.0498 179.268 65.0022 180.262 65.1289 181.208C65.2266 181.89 65.328 182.226 65.71 183.024C65.9982 183.605 66.3304 184.185 66.5571 184.442C66.9659 184.936 68.1141 185.793 68.3244 185.769C68.4029 185.75 68.7203 185.302 69.026 184.749C70.6862 181.812 71.1004 181.212 72.0351 180.356C72.6781 179.768 73.2925 179.417 74.0296 179.212C74.6268 179.038 74.6268 179.038 73.5973 179.8C73.158 180.124 72.5097 180.682 72.1414 181.034C71.208 181.934 69.9224 183.779 69.333 185.052C68.7068 186.423 68.5626 186.611 67.5649 187.411C66.6579 188.152 66.2667 188.629 66.1753 189.145C66.0729 189.746 66.1748 191.228 66.3864 192.062C66.667 193.17 67.5621 194.741 68.2368 195.316C68.8034 195.792 69.6271 196.187 70.098 196.214C70.8814 196.263 71.3599 195.762 72.0132 194.255C72.2403 193.721 72.4572 193.294 72.4884 193.31C72.5283 193.323 72.5568 193.563 72.5732 193.844C72.5917 194.525 72.2451 195.835 71.8436 196.584C71.4629 197.289 70.5089 198.4 69.9356 198.806L69.5262 199.103L70.4829 200.997C71.8111 203.628 72.7947 205.219 73.3687 205.647C73.6023 205.834 73.9728 206.048 74.1861 206.134C74.968 206.451 76.7802 206.195 77.986 205.618L78.4717 205.381L78.2138 204.46C78.077 203.954 77.8609 203.279 77.7335 202.958C77.6107 202.645 77.5331 202.374 77.5677 202.356C77.5937 202.342 77.8887 202.685 78.2212 203.12C78.8089 203.886 78.9714 204.044 79.0157 203.898C79.0278 203.858 78.6744 203.301 78.226 202.65C77.4757 201.559 77.4017 201.42 77.2955 200.909C77.0478 199.716 77.4153 199.174 78.7242 198.831C79.1735 198.713 79.5397 198.607 79.5351 198.598C79.5391 198.585 79.5348 198.264 79.52 197.882C79.5 196.824 79.3797 196.599 78.0096 195.015C76.4221 193.19 75.7604 192.286 75.1261 191.099C74.603 190.12 74.1889 188.949 74.141 188.318C74.1245 188.037 74.3132 188.348 75.5498 190.683C76.8791 193.191 77.0081 193.412 77.524 193.96C77.827 194.277 78.304 194.69 78.5947 194.88C79.0243 195.163 79.1648 195.322 79.4194 195.798C79.9749 196.837 80.165 198.172 79.899 199.217C79.8236 199.513 79.7834 199.813 79.8112 199.865C79.9177 200.064 81.3812 200.886 82.8233 201.563C83.6377 201.94 84.3058 202.274 84.2978 202.3C84.2897 202.327 84.1274 202.336 83.9425 202.323C82.8199 202.244 82.1489 201.968 80.2546 200.819C79.1644 200.155 77.638 199.445 77.589 199.583C77.5406 199.742 79.4031 204.248 80.0867 205.631C80.4218 206.321 80.4669 206.363 81.2918 206.969C81.7624 207.308 82.9607 208.071 83.9613 208.672C86.5296 210.206 87.2548 210.375 90.3819 210.162C91.7724 210.076 91.7811 210.072 91.4225 210.297C90.9473 210.595 90.1346 210.762 88.9358 210.791C86.793 210.844 85.8527 210.523 83.7832 209.068C82.6853 208.285 81.6547 207.711 81.6231 207.839C81.5626 208.038 81.856 209.296 82.145 210.066C82.6766 211.519 83.7328 212.87 85.0358 213.766C85.6046 214.163 86.0716 214.37 86.9887 214.649C88.0786 214.979 88.33 215.012 89.445 214.973C90.6478 214.931 92.007 214.662 93.1124 214.271C93.53 214.115 93.671 214.129 94.8453 214.492C96.52 215 96.8799 214.986 98.2515 214.364C99.4885 213.803 99.6843 213.732 101.679 213.089C102.533 212.811 103.381 212.502 103.563 212.405L103.892 212.229L103.781 211.375C103.628 210.088 103.226 208.565 102.466 206.31C101.601 203.732 101.211 202.337 101.004 201.033C100.852 200.123 100.777 198.482 100.878 198.505C100.896 198.518 101.005 198.972 101.13 199.518C101.438 200.99 101.928 202.699 102.368 203.856C103.387 206.553 103.773 208.339 104.489 213.804C104.664 215.091 104.943 216.946 105.119 217.921C105.488 220.007 105.504 220.912 105.232 222.694L105.039 224L106.426 224.428C109.399 225.345 113.904 226.523 121.366 228.337C130.172 230.479 133.058 231.231 138.595 232.882C144.212 234.557 146.985 235.536 151.15 237.308C154.458 238.725 160.446 241.594 161.323 242.194C161.717 242.451 162.272 243.135 162.369 243.462L162.461 243.78L161.997 243.371C161.281 242.718 160.442 242.275 158.764 241.635C157.92 241.307 156.756 240.816 156.181 240.532C154.787 239.841 154.098 239.53 152.097 238.684C144.456 235.429 136.779 233.006 123.164 229.514C121.642 229.125 119.571 228.583 118.566 228.308C117.561 228.032 115.432 227.466 113.835 227.061C110.548 226.223 107.762 225.407 106.053 224.772C105.405 224.54 104.846 224.348 104.811 224.345C104.771 224.355 104.488 224.762 104.181 225.271C103.298 226.724 102.219 227.935 99.4004 230.6C98.5865 231.369 97.581 232.363 97.1798 232.8C96.7787 233.237 96.3902 233.656 96.3088 233.733C96.1847 233.855 96.2131 233.929 96.5382 234.412C96.7308 234.71 97.3754 235.791 97.961 236.803L99.0222 238.664L99.5505 238.382C101.153 237.525 104.367 236.642 108.003 236.047C114.28 235.019 115.365 234.841 116.755 234.587C118.395 234.279 120.259 234.185 121.683 234.348C123.252 234.534 126.599 235.44 135.76 238.183C146.281 241.325 149.517 242.212 153.521 243.057C154.135 243.185 155.051 243.397 155.555 243.529C156.06 243.66 157.358 243.879 158.46 244.025C160.625 244.305 162.118 244.576 162.077 244.687C162.073 244.722 161.697 244.768 161.262 244.788C159.041 244.884 152.507 243.554 144.49 241.369C143.197 241.013 139.083 239.837 135.353 238.735C127.443 236.415 123.506 235.3 122.25 235.014C120.363 234.586 118.577 234.683 114.835 235.391C113.532 235.642 111.551 235.977 110.448 236.143C106.947 236.656 103.758 237.336 100.728 238.209L99.4069 238.592L98.9321 239.391C97.7974 241.29 96.6093 243.651 94.4221 248.372C93.6834 249.97 92.8772 251.67 92.6309 252.147C92.3893 252.633 92.2077 253.064 92.2262 253.098C92.2493 253.142 92.8694 253.323 93.6033 253.487L94.9433 253.807L95.5961 255.028C96.7951 257.271 97.7938 258.286 99.2246 258.712C100.084 258.966 103.668 259.712 108.359 260.613C110.161 260.964 111.615 261.267 111.607 261.293C111.579 261.408 109.881 261.503 108.812 261.462C106.877 261.382 105.264 261.053 100.823 259.807C99.4858 259.43 97.999 259.045 97.5217 258.943C96.099 258.657 92.8262 257.388 89.5421 255.869C86.7118 254.553 83.3229 252.734 82.2517 251.959C81.9782 251.76 81.5042 251.457 81.2054 251.293C78.0419 249.521 71.0079 243.569 67.3716 239.599L66.2121 238.326L66.2213 238.989C66.2182 239.358 66.1883 239.552 66.1495 239.417C66.1106 239.282 65.9895 238.868 65.8783 238.493C65.6853 237.861 65.6344 237.766 65.1087 237.178C64.8005 236.831 64.3447 236.228 64.0925 235.839L63.6383 235.136L63.6818 235.925C63.711 236.355 63.7206 236.706 63.694 236.698C63.6761 236.686 63.4485 236.072 63.1954 235.328C62.9376 234.575 62.7187 233.957 62.6967 233.957C62.6834 233.953 62.4293 233.978 62.1445 234.007L61.6188 234.066L62.0801 233.741L62.5328 233.421L62.0861 233.315L61.6394 233.208L61.2324 232.301C60.7977 231.342 60.4935 230.981 60.0428 230.888C59.8527 230.845 59.8434 230.827 59.8947 230.611C59.9545 230.389 59.8897 230.268 59.2482 229.297C58.8588 228.714 58.4522 228.141 58.3481 228.029C58.1717 227.845 58.1735 227.911 58.3439 228.522C58.4425 228.914 58.604 229.363 58.692 229.527C58.78 229.692 58.8333 229.875 58.7952 229.929C58.711 230.063 58.1039 228.906 58.0539 228.521C58.0277 228.368 58.0593 228.072 58.1111 227.878L58.2073 227.537L57.8733 227.537L57.5394 227.537L57.4199 227.022C57.3347 226.633 57.036 225.991 56.323 224.657C55.3833 222.899 55.3144 222.791 54.7963 222.322L54.2424 221.827L51.5203 216.734C50.0203 213.927 48.7269 211.445 48.6325 211.206C48.4808 210.797 48.4888 210.77 48.766 210.622C49.0346 210.478 49.0426 210.452 48.8961 210.073C48.8156 209.86 48.4978 209.162 48.1951 208.533C45.2184 202.317 42.9788 194.126 41.9232 185.525C41.7364 183.988 41.6865 183.77 41.4934 183.617C41.2917 183.468 41.2766 183.398 41.3531 182.979C41.4755 182.312 41.4911 181.591 41.3818 180.803C41.3364 180.427 41.3225 179.755 41.3591 179.323C41.3911 178.883 41.4378 177.533 41.4535 176.333C41.4779 175.128 41.5108 173.752 41.5375 173.281C41.5729 172.805 41.5577 171.923 41.5237 171.317C41.4784 170.462 41.5568 169.629 41.8727 167.511C42.4966 163.469 42.7663 162.078 43.229 160.673C43.4561 159.972 44.0091 158.173 44.4648 156.671C45.5294 153.162 46.4453 150.813 48.2768 146.905C49.8049 143.638 50.4367 142.633 53.9929 137.681C56.3761 134.347 56.525 134.167 58.3963 132.209C59.4601 131.095 60.6139 129.899 60.9603 129.547C61.5808 128.937 61.5889 128.91 61.4921 128.583C61.4301 128.405 61.4034 128.23 61.4241 128.185C61.4495 128.149 61.6588 128.249 61.8917 128.414L62.3085 128.715L62.2517 128.4L62.1815 128.081L63.0898 127.551C63.7256 127.178 64.419 126.663 65.4408 125.782C66.2438 125.097 67.0301 124.443 67.1981 124.32C67.4735 124.106 67.4862 124.088 67.3103 123.759L67.1251 123.412L68.7876 122.501C71.0646 121.24 77.4589 117.889 78.0411 117.645ZM92.7501 137.123C93.4935 136.993 94.2804 137.007 95.317 137.154C96.3316 137.303 96.8481 137.227 98.196 136.707C99.927 136.049 100.574 135.948 101.412 136.202C102.205 136.435 102.683 136.748 103.258 137.365C104.033 138.209 104.521 139.541 104.559 140.924C104.582 141.925 104.157 144.401 103.706 145.912C103.11 147.901 102.349 149.187 101.194 150.15C100.511 150.727 99.6761 151.061 97.4945 151.626C95.6051 152.112 94.6707 152.489 94.0218 153.025C93.0421 153.839 92.1237 155.454 91.7248 157.104C91.5866 157.679 91.5197 157.804 91.4751 157.616C91.1428 156.223 91.8461 154.456 93.2806 153.076C93.7343 152.633 94.0923 152.386 94.8678 151.983C95.76 151.506 96.0297 151.407 97.4443 151.074C100.042 150.454 100.842 149.993 101.883 148.501C103.469 146.239 104.221 143.209 103.91 140.313C103.648 137.947 101.805 136.271 99.8917 136.692C99.6208 136.747 98.9462 136.985 98.3854 137.207C97.0773 137.739 96.5256 137.811 95.4468 137.564C93.8415 137.186 91.9276 137.418 90.9663 138.099L90.6343 138.332L90.8293 138.072C91.1352 137.686 92.024 137.244 92.7501 137.123ZM80.3591 146.819C79.9998 147.501 79.2973 148.166 77.8706 149.185C75.232 151.041 73.7342 152.676 72.045 155.517C71.7762 155.972 71.5316 156.348 71.5136 156.335C71.4871 156.327 71.6431 155.765 71.8575 155.083C72.221 153.908 72.2671 153.828 72.7267 153.438C72.9974 153.215 73.3905 152.804 73.6069 152.522C74.6128 151.216 75.2472 150.632 77.7864 148.673C78.7759 147.899 79.7649 147.103 79.9664 146.918C80.5142 146.38 80.5927 146.36 80.3591 146.819ZM81.9318 148.908C83.7183 148.354 86.1278 147.445 87.7859 146.692C89.6044 145.865 89.7061 145.888 88.5816 146.868C87.7745 147.567 86.3856 148.198 84.3196 148.812C82.0005 149.495 80.9662 149.914 80.1821 150.489C79.3247 151.114 78.8266 151.703 78.4449 152.531C77.7109 154.137 77.3544 154.762 76.0936 156.549C75.3659 157.584 74.5513 158.81 74.2911 159.261L73.8083 160.087L73.9438 161.195C74.1836 163.227 73.9849 164.481 73.3113 165.241C73.1404 165.422 72.1758 166.305 71.15 167.198C69.0729 169.021 67.8971 170.218 66.998 171.411C66.3026 172.339 66.1957 172.285 66.6772 171.248C67.1373 170.234 67.8091 169.407 69.0532 168.297C69.6582 167.762 70.5633 166.955 71.061 166.511C72.6098 165.138 73.4163 163.771 73.5312 162.34C73.5963 161.503 73.4962 161.379 72.6508 161.151C71.8984 160.952 71.5874 160.662 71.8257 160.378C71.8898 160.311 72.4999 159.639 73.1786 158.909C75.2831 156.637 75.9386 155.697 77.1162 153.274C77.5695 152.33 78.3513 151.189 78.9966 150.521C79.6373 149.844 80.6288 149.303 81.9318 148.908ZM94.0834 146.244C94.4554 146.19 95.4347 146.168 96.2614 146.193C97.0882 146.219 97.8 146.218 97.8433 146.194C97.8866 146.171 97.9898 145.927 98.0831 145.643L98.241 145.147L98.7866 145.334C99.576 145.602 99.5802 145.756 98.8191 146.207C97.9454 146.719 97.377 146.822 95.0673 146.876L93.0649 146.922L92.6267 147.29C91.9864 147.821 91.683 148.295 90.9518 149.844C90.2379 151.384 89.9557 151.835 89.2631 152.54C88.2495 153.56 87.3688 153.975 84.9896 154.545C83.5097 154.902 82.2552 155.305 81.6662 155.62C81.445 155.727 80.8484 155.923 80.3378 156.052L79.4038 156.283L80.5437 155.708C81.3978 155.285 82.1198 155.01 83.4141 154.619C88.2427 153.152 88.89 152.717 90.3701 149.944C91.9666 146.93 92.4157 146.478 94.0834 146.244ZM79.239 156.85C79.2535 156.898 79.0412 157.168 78.7762 157.443C78.195 158.043 77.6237 158.85 77.295 159.526L77.058 160.021L77.3428 159.991L77.6362 159.957L77.3295 161.279C76.4777 165.019 76.0924 165.715 73.5282 168.21C71.9143 169.774 71.5264 170.216 70.6471 171.487C69.8987 172.567 69.4234 173.511 68.7381 175.292C68.2493 176.544 67.7677 177.581 67.4971 177.971C67.3662 178.163 67.4029 177.899 67.6402 177.092C68.6845 173.483 70.5068 170.371 72.8552 168.18C74.565 166.587 75.2795 165.715 75.6542 164.791C75.7695 164.507 75.9704 163.653 76.1038 162.903C76.3681 161.314 76.9956 159.341 77.4703 158.542C77.6642 158.238 78.0029 157.767 78.2459 157.493C78.6678 157.011 79.1904 156.676 79.239 156.85ZM82.9156 155.999C84.365 155.815 85.9032 156.151 86.9519 156.904C87.4583 157.268 87.5809 157.414 87.8819 157.977C88.1411 158.463 88.2327 158.759 88.2607 159.145C88.2877 159.654 88.2797 159.68 87.3512 160.923C86.4233 162.187 86.4193 162.2 85.8558 163.938C85.0975 166.27 84.2057 167.894 82.9919 169.144C81.9448 170.227 81.0024 170.797 79.2651 171.381C77.7282 171.901 75.6445 172.837 74.7028 173.429C73.787 174.008 72.3609 175.048 72.2259 175.254C72.1797 175.334 72.1183 175.824 72.1107 176.351C72.1031 176.879 72.0626 177.491 72.02 177.703C71.9383 178.092 71.6026 178.672 71.5378 178.551C71.4267 178.343 71.0756 176.582 71.0701 176.217C71.0516 175.536 71.3353 174.984 71.9877 174.413C72.8028 173.687 75.2807 172.385 77.2028 171.647C78.2031 171.269 79.1144 170.849 80.1925 170.261C82.0502 169.257 82.5612 168.817 83.6073 167.378C84.2594 166.473 84.3009 166.384 84.8919 164.364C85.552 162.14 85.868 161.482 86.5943 160.882C87.1572 160.414 87.3257 160.146 87.4673 159.535C87.7561 158.201 87.0001 157.224 85.2636 156.704C84.2494 156.411 83.2424 156.381 81.9398 156.632C81.2449 156.769 81.0693 156.774 81.1668 156.644C81.3711 156.401 82.1889 156.098 82.9156 155.999ZM79.2421 160.357C79.3302 160.688 79.6135 161.572 79.884 162.308C80.4058 163.722 80.6435 164.708 80.6551 165.459L80.6584 165.903L80.3113 165.42C79.5437 164.338 78.8592 162.432 78.8287 161.313C78.8154 160.663 78.9475 159.701 79.0452 159.738C79.0717 159.746 79.1627 160.021 79.2421 160.357ZM66.3954 172.68C66.5852 173.035 66.007 174.558 65.7146 174.469C65.3777 174.359 65.6837 172.848 66.0908 172.631C66.2468 172.547 66.3305 172.558 66.3954 172.68ZM88.9108 161.882C89.9631 161.476 91.0374 161.235 91.8197 161.241C92.9971 161.235 94.2386 161.808 95.117 162.763C95.6468 163.338 95.9251 163.88 96.0644 164.64C96.2438 165.58 96.1909 165.898 95.7511 166.367C95.5422 166.601 95.3189 166.954 95.2544 167.167L95.1374 167.552L94.2971 167.189C92.7585 166.519 90.5877 166.187 88.861 166.352C87.8968 166.444 86.3384 166.821 85.8533 167.08C85.3596 167.344 85.0621 167.391 84.9788 167.235C84.9186 167.123 85.0439 167.045 85.8293 166.681C88.0203 165.654 90.5837 165.554 93.5413 166.379L94.923 166.776L95.1555 166.44C95.2738 166.266 95.4427 165.852 95.5175 165.534C95.8917 163.942 94.9262 162.531 93.0654 161.967C91.683 161.547 90.1078 161.788 87.9276 162.73C87.2502 163.026 86.6854 163.261 86.6588 163.253C86.3132 163.148 87.5021 162.434 88.9108 161.882ZM96.3543 167.058C98.0394 170.211 98.9048 174.08 98.987 178.881L99.0269 180.831L99.4184 181.334C100.151 182.268 101.263 183.077 102.7 183.745C103.501 184.119 107.641 185.425 109.145 185.78C110.37 186.072 111.74 186.219 113.983 186.29C115.988 186.354 117.443 186.512 118.448 186.788L119.266 187.007L118.954 188.132C118.237 190.665 118.088 193.45 118.499 196.26C118.721 197.822 118.567 198.618 117.821 199.618C117.029 200.698 116.11 201.312 115.491 201.175C114.439 200.958 113.698 199.55 111.641 193.889C110.482 190.7 110.082 189.7 109.331 188.108L108.836 187.036L107.744 186.618C107.14 186.384 106.004 185.966 105.218 185.684C102.352 184.655 100.691 183.694 99.4991 182.36L98.9098 181.695L99.1533 183.38C99.2841 184.312 99.4868 185.462 99.597 185.96C99.8371 187.035 100.427 188.368 100.954 189.021C101.577 189.791 102.564 191.513 103.003 192.604C103.766 194.49 104.107 196.045 104.193 197.914C104.267 199.49 104.306 199.814 104.514 200.661C105.132 203.192 106.771 205.613 108.877 207.115L109.822 207.78L110.459 207.472L111.097 207.165L110.976 206.584C110.875 206.125 110.735 205.821 110.243 205.004C109.907 204.438 109.512 203.825 109.37 203.622L109.119 203.255L109.611 203.426C110.415 203.721 111.017 204.223 111.5 205.023C111.891 205.671 111.929 205.763 111.943 206.434C111.971 207.132 111.776 207.748 111.364 208.269C111.271 208.386 111.186 208.498 111.178 208.525C111.132 208.605 112.473 209.28 112.96 209.421C113.513 209.582 114.139 209.481 114.461 209.187C114.568 209.096 114.902 208.951 115.207 208.855C117.256 208.25 119.624 209.367 120.776 211.502C121.526 212.883 123.58 213.456 125.217 212.726C125.981 212.384 126.455 211.897 126.735 211.191L126.936 210.671L127.477 210.872C128.192 211.147 129.331 211.964 129.92 212.629C130.346 213.092 130.752 213.81 133.548 219.042C136.251 224.079 136.8 225.044 137.324 225.732C137.853 226.43 138.706 227.422 139.166 227.866C139.238 227.939 139.071 227.917 138.796 227.819C138.148 227.586 137.328 226.989 136.85 226.409C136.6 226.086 135.366 223.861 133.034 219.539C129.244 212.489 129.409 212.735 128.231 211.906C127.698 211.534 127.676 211.534 127.563 211.761C126.915 213.132 125.378 213.798 123.026 213.752C121.456 213.711 121.018 213.433 119.806 211.687C118.904 210.375 118.489 209.952 117.915 209.712C117.315 209.465 116.982 209.487 115.683 209.87C113.987 210.364 113.644 210.347 112.26 209.695C108.45 207.922 105.753 205.522 104.447 202.745C103.818 201.422 103.617 200.483 103.522 198.618C103.451 196.964 103.296 195.966 102.903 194.606C102.573 193.446 101.356 191.168 100.62 190.313C100.322 189.983 100.032 189.692 99.9746 189.667C99.8238 189.614 99.7592 190.473 99.8765 191.067C99.9287 191.374 100.281 192.199 100.817 193.327C101.771 195.3 101.926 195.841 101.786 196.662C101.647 197.505 101.507 197.724 100.768 198.174C99.2082 199.131 96.9538 199.122 95.5392 198.163C95.2618 197.977 95.0254 197.847 95.0046 197.892C94.9879 197.923 95.0285 198.124 95.1003 198.342C95.5388 199.6 95.3427 201.275 94.6531 202.256C94.0397 203.129 93.575 203.489 91.5684 204.673C90.1629 205.502 89.5543 205.905 89.1087 206.322C88.7871 206.616 88.5008 206.914 88.4807 206.98C88.3597 207.379 90.0332 207.843 91.7393 207.889C92.4164 207.906 93.2225 207.976 93.5229 208.038C94.0933 208.168 94.8714 208.665 95.0658 209.029L95.1769 209.237L94.7747 209.151C94.554 209.113 93.6503 209.006 92.7732 208.907C91.9008 208.816 90.9306 208.689 90.6348 208.635C89.7825 208.478 88.8952 208.006 88.3701 207.44C87.8364 206.879 87.8289 206.928 88.4424 206.221C89.0433 205.532 89.7147 205.018 91.2876 204.043C93.6556 202.577 94.2294 202.026 94.4874 201.008C94.6422 200.402 94.6318 199.695 94.4804 198.328L94.3611 197.334L94.0773 197.24C93.6468 197.081 92.7682 197.25 91.7425 197.664C89.4872 198.591 88.6924 198.771 87.4629 198.637C85.8982 198.46 84.4021 197.411 83.6197 195.947C82.9762 194.743 82.8742 193.74 83.2851 192.529C83.647 191.456 84.2119 190.742 86.0806 189.008C87.7737 187.446 88.0107 186.952 88.2206 184.49C88.4254 182.165 88.6342 181.763 90.4648 180.251C91.922 179.06 92.3116 178.684 92.704 178.085C93.3121 177.181 93.4256 176.185 93.0335 175.013C92.8081 174.321 92.3379 173.67 91.7557 173.269C91.3389 172.968 90.1179 172.663 89.4327 172.673C88.0496 172.71 86.6099 173.413 85.5127 174.59C84.7745 175.396 84.396 176.022 83.7895 177.471C82.6174 180.257 80.9265 183.032 78.6077 185.986C77.6013 187.27 77.2575 188.523 77.3529 190.577L77.3877 191.371L77.0896 190.751C76.8656 190.269 76.7954 189.951 76.7805 189.402C76.7084 187.558 77.3777 185.998 79.1202 183.986C80.4921 182.407 81.9591 179.963 83.4498 176.772C84.5085 174.503 85.3177 173.558 86.9941 172.673C87.9555 172.159 88.7226 171.927 89.718 171.852C91.893 171.692 94.1272 173.705 94.1961 175.918C94.2454 177.406 93.4486 178.645 91.3379 180.363C89.3392 181.999 89.3606 181.977 89.17 182.724C89.079 183.096 88.9954 183.898 88.9855 184.505C88.9428 187.133 88.693 187.645 86.4007 189.795C85.2399 190.894 84.4377 191.935 84.228 192.627C83.9256 193.623 84.2647 195.591 84.9087 196.65C85.3548 197.381 85.808 197.729 86.5477 197.946C87.5353 198.231 88.4278 198.088 90.3805 197.345C91.859 196.778 92.6226 196.581 93.2899 196.559C93.852 196.548 94.2658 196.739 95.7509 197.705C96.6006 198.253 97.4912 198.523 98.1168 198.422C98.3923 198.375 98.9329 198.22 99.3378 198.082C101.466 197.334 101.661 196.261 100.191 193.26L99.5161 191.872L99.0698 192.267C96.4385 194.553 93.9828 194.897 91.7768 193.269C90.9564 192.672 90.4042 192.076 89.6816 191.037C88.8718 189.855 88.8822 189.916 89.387 189.736C90.4613 189.329 91.5291 189.493 93.6617 190.358C95.5279 191.12 96.1739 191.287 97.1179 191.261C97.706 191.236 97.8631 191.197 98.2038 190.959C98.6178 190.671 99.0292 190.128 99.4515 189.335C99.6689 188.929 99.6717 188.872 99.4967 188.898C99.3962 188.919 98.9618 188.939 98.5406 188.964C96.1177 189.056 93.8559 187.804 91.657 185.148C90.9936 184.344 89.5201 182.025 89.6784 182.029C89.828 182.039 90.7018 182.986 91.8423 184.37C93.6462 186.557 94.4204 187.235 95.623 187.672C96.0935 187.844 96.521 187.894 97.1664 187.872C98.3206 187.823 98.711 187.637 98.8705 187.039C99.0266 186.477 99.0054 186.02 98.719 184.213C98.4401 182.358 98.3741 181.547 98.2702 178.373C98.1199 173.654 97.7102 171.679 96.3353 169.106C96.002 168.482 95.6981 167.81 95.6488 167.613C95.578 167.272 95.7524 166.578 95.943 166.476C95.9863 166.453 96.1737 166.72 96.3543 167.058ZM71.7714 186.656C71.7418 187.184 71.3427 188.021 70.9029 188.489C70.425 189.012 68.3664 190.224 68.3345 190.018C68.3031 189.834 68.6608 189.254 69.1595 188.686C69.4578 188.349 71.3698 186.592 71.7231 186.336C71.7664 186.313 71.7879 186.457 71.7714 186.656ZM47.6408 208.829C47.904 209.301 48.179 209.878 48.2601 210.113L48.3904 210.544L48.1446 210.23C47.8219 209.835 46.8827 208.098 46.757 207.675L46.6602 207.349L46.9147 207.658C47.0512 207.83 47.3775 208.357 47.6408 208.829ZM133.606 196.46C134.801 197.904 135.605 198.532 137.13 199.198C139.22 200.108 139.8 200.756 139.871 202.243C139.918 203.332 139.605 205.225 139.384 205.165C139.286 205.128 139.009 203.985 138.766 202.656C138.647 201.973 138.458 201.183 138.341 200.901L138.142 200.383L137.266 199.994C134.294 198.642 133.289 197.743 132.951 196.109C132.905 195.899 132.915 195.749 132.968 195.765C133.021 195.781 133.302 196.099 133.606 196.46ZM130.93 201.287C131.331 202.142 132.255 203.474 132.791 203.978C133.382 204.52 133.792 204.746 134.923 205.133C136.173 205.556 136.668 205.96 137.232 206.995C137.583 207.631 137.632 207.805 137.652 208.385L137.679 209.039L137.002 207.897C136.196 206.535 135.894 206.262 134.727 205.85C133.8 205.511 132.871 204.96 132.186 204.346C131.46 203.676 130.701 202.255 130.584 201.327C130.539 200.972 130.522 200.67 130.556 200.651C130.582 200.637 130.757 200.922 130.93 201.287ZM96.2284 248.71C97.3744 248.52 101.801 248.114 104.775 247.928C113.193 247.383 120.25 247.397 137.389 248.004C146.331 248.314 147.958 248.358 150.097 248.339C153.247 248.315 156.523 248.423 156.474 248.561C156.435 248.716 154.554 248.886 152.393 248.927L149.925 248.976L150.168 249.326C150.67 250.015 151.61 251.462 151.589 251.506C151.586 251.541 150.979 251.698 150.25 251.876C135.965 255.235 120.345 256.222 101.622 254.948C97.8894 254.693 96.9505 254.582 96.2322 254.343L95.6248 254.144L96.5168 254.146C97.0091 254.15 98.1923 254.197 99.1341 254.251C104.098 254.538 105.819 254.631 108.476 254.748C121.897 255.315 133.46 254.591 145.121 252.468C147.526 252.03 151.086 251.274 151.102 251.199C151.119 251.167 151.01 251.047 150.871 250.932C150.695 250.792 150.567 250.76 150.429 250.835C150.316 250.895 150.146 250.952 150.054 250.968C149.905 250.981 149.917 250.941 150.07 250.748C150.249 250.519 150.251 250.44 150.031 249.778C149.897 249.381 149.765 249.051 149.738 249.043C149.712 249.035 148.106 248.969 146.171 248.912C144.24 248.841 140.154 248.697 137.089 248.587C125.68 248.181 119.882 248.084 112.995 248.201C107.268 248.3 100.447 248.727 95.8175 249.275C94.854 249.389 94.3525 249.367 94.2691 249.211C94.2228 249.125 95.1655 248.888 96.2284 248.71ZM142.178 228.751C142.73 228.846 143.387 229.43 143.11 229.578C142.894 229.694 142.263 229.597 141.985 229.411C141.398 229 141.503 228.633 142.178 228.751ZM161.929 238.452C162.412 238.605 162.812 238.915 162.764 239.097C162.715 239.234 161.971 239.197 161.651 239.035C161.494 238.951 161.266 238.773 161.152 238.644C160.961 238.412 160.961 238.39 161.192 238.344C161.319 238.31 161.659 238.362 161.929 238.452Z" fill="#11C5FF"/>
<path d="M127.217 157C126.701 157.41 125.9 158.306 125.354 159.077L124.922 159.686L125.544 159.933C127.143 160.57 128.86 161.802 129.747 162.943C129.884 163.115 130.029 163.282 130.065 163.307C130.109 163.328 130.163 163.032 130.196 162.636C130.229 162.24 130.42 161.347 130.617 160.652C131.209 158.531 131.296 157.694 131.034 156.765C130.926 156.355 130.926 156.355 130.298 156.2C129.953 156.118 129.455 156.083 129.197 156.121C128.585 156.225 127.721 156.609 127.217 157Z" fill="#11C5FF"/>
<path d="M72.513 160.311C72.3352 160.562 72.4191 160.74 72.7006 160.746C73.0081 160.737 73.3021 160.558 73.4441 160.281C73.5941 159.978 73.557 159.909 73.2236 159.931C72.8901 159.954 72.6994 160.055 72.513 160.311Z" fill="#11C5FF"/>
<path d="M109.751 187.538C110.362 188.681 110.78 189.693 111.967 192.935C112.489 194.37 113.1 195.971 113.312 196.492C113.753 197.548 114.69 199.342 115.253 200.188L115.62 200.749L116.021 200.479C117.228 199.633 117.632 198.137 117.349 195.504C117.14 193.466 117.274 191.134 117.762 188.568C117.958 187.517 117.988 187.155 117.869 187.141C117.789 187.139 117.389 187.119 116.985 187.112C115.881 187.09 113.517 186.939 111.316 186.757C110.232 186.668 109.33 186.604 109.312 186.614C109.286 186.628 109.487 187.044 109.751 187.538Z" fill="#11C5FF"/>
<path d="M46.7653 220.733C48.3619 223.7 49.7444 226.224 49.8531 226.344C50.03 226.55 50.0433 226.554 50.0859 226.342C50.1291 226.152 49.7893 225.453 47.7598 221.594C46.4531 219.107 45.1163 216.648 44.79 216.12C44.2659 215.265 44.1889 215.183 44.0417 215.262C43.8858 215.345 43.9558 215.497 46.7653 220.733Z" fill="#11C5FF"/>
</mask>
<g mask="url(#mask1_245_590)">
<ellipse cx="111.295" cy="190.361" rx="61.303" ry="72.2179" transform="rotate(-28.524 111.295 190.361)" fill="#0F5065"/>
</g>
<rect x="167.961" y="118.742" width="4" height="31" transform="rotate(-5.85929 167.961 118.742)" fill="#D9F6FF"/>
<rect x="174.927" y="118.029" width="5" height="31" transform="rotate(-5.85929 174.927 118.029)" fill="#D9F6FF"/>
<rect x="183.878" y="117.109" width="4" height="31" transform="rotate(-5.85929 183.878 117.109)" fill="#D9F6FF"/>
<rect x="228.645" y="112.517" width="4" height="31" transform="rotate(-5.85929 228.645 112.517)" fill="#D9F6FF"/>
<rect x="219.69" y="113.435" width="5" height="31" transform="rotate(-5.85929 219.69 113.435)" fill="#D9F6FF"/>
<rect x="211.732" y="114.251" width="4" height="31" transform="rotate(-5.85929 211.732 114.251)" fill="#D9F6FF"/>
<rect x="202.78" y="115.171" width="4" height="31" transform="rotate(-5.85929 202.78 115.171)" fill="#D9F6FF"/>
<rect x="192.831" y="116.19" width="4" height="31" transform="rotate(-5.85929 192.831 116.19)" fill="#D9F6FF"/>
<rect x="164.365" y="113.08" width="70" height="7" transform="rotate(-5.85929 164.365 113.08)" fill="#2979A7"/>
<rect x="168.143" y="149.887" width="71" height="4" transform="rotate(-5.85929 168.143 149.887)" fill="#2979A7"/>
<path d="M196.77 94.7994L226.3 106.848L170.302 112.594L196.77 94.7994Z" fill="#0F5065"/>
<g filter="url(#filter0_d_245_590)">
<mask id="mask2_245_590" style="mask-type:alpha" maskUnits="userSpaceOnUse" x="50" y="42" width="310" height="310">
<ellipse cx="204.86" cy="196.92" rx="154.86" ry="154.92" fill="url(#paint3_radial_245_590)"/>
</mask>
<g mask="url(#mask2_245_590)">
<path d="M149.779 248.226C144.916 252.06 134.403 265.798 129.754 272.188L406.173 270.296C403.43 269.347 399.838 266.19 396.523 258.291C390.086 242.956 384.364 240.08 379.358 238.643C374.352 237.205 372.206 243.914 369.703 244.393C367.2 244.873 357.187 234.809 352.18 230.975C348.175 227.908 342.168 228.739 339.665 229.537C337.996 225.863 332.942 218.515 326.076 218.515H316.778C283.521 175.864 252.768 192.158 250.622 192.637C248.906 193.02 239.418 200.464 234.888 204.138C234.054 204.777 231.598 205.672 228.451 204.138C225.304 202.605 223.564 207.972 223.087 210.848C221.776 207.333 218.152 200.401 214.147 200.784C209.141 201.263 202.347 229.537 197.698 229.537C193.049 229.537 192.691 228.1 189.115 226.183C185.539 224.266 181.606 214.202 178.387 212.285C175.169 210.368 171.593 218.994 171.235 224.265C170.878 229.537 155.859 243.434 149.779 248.226Z" fill="#E8B7C9"/>
</g>
<path d="M291.735 194.685L291.781 194.224L249.095 196.004L234.084 196.63L232.027 207.729L289.546 211.689L291.735 194.685Z" fill="#527E97"/>
<path d="M314.658 208.178L291.735 194.685L289.546 211.689L313.539 219.238L314.658 208.178Z" fill="#527E97"/>
<path d="M252.904 181.443L251.046 190.567C250.723 190.689 249.973 191.016 249.566 191.348C249.159 191.679 249.549 193.053 249.795 193.699C250.03 194.467 251.718 194.204 252.533 193.976C252.649 194.159 252.797 194.332 252.985 194.487C254.02 195.337 255.04 194.184 255.42 193.502C255.548 193.629 255.692 193.744 255.853 193.846C256.731 194.401 259.602 189.104 259.649 188.644C259.686 188.275 263.083 186.043 264.776 184.973C264.797 184.614 264.851 184.297 264.942 184.058C265.026 183.839 265.142 183.686 265.295 183.628C265.363 183.603 265.444 183.562 265.536 183.508C262.038 178.857 254.941 168.707 254.537 165.314C254.184 162.349 253.682 159.142 253.03 157.124C256.627 158.506 262.673 156.123 265.247 154.759C266.674 158.318 268.646 162.676 269.519 164.968C270.995 168.842 270.156 177.137 270.016 178.519C269.886 179.805 266.756 182.799 265.536 183.508C265.444 183.562 265.363 183.603 265.295 183.628C265.142 183.686 265.026 183.839 264.942 184.058C264.851 184.297 264.797 184.614 264.776 184.973C264.695 186.381 265.116 188.419 265.706 188.791C266.584 189.346 267.696 187.596 268.62 187.689C269.36 187.764 270.501 187.569 270.979 187.463C271.472 187.202 272.737 186.709 273.846 186.822C275.234 186.962 277.27 185.306 277.779 184.892C278.186 184.561 279.676 183.066 280.37 182.361C281.388 181.533 281.668 178.768 281.715 178.307C281.761 177.846 279.318 169.684 278.949 168.716C278.653 167.941 278.774 156.593 278.872 151.017C279.01 151.186 279.463 151.635 280.166 152.079C280.868 152.522 286.128 154.7 288.671 155.733C289.164 155.472 290.262 154.777 290.707 154.077C291.262 153.202 291.22 149.007 291.313 148.086C291.406 147.164 290.719 140.111 290.812 139.189C290.905 138.268 292.534 126.794 292.674 125.411C292.786 124.305 292.109 118.681 291.757 116.007L291.715 111.813C291.717 111.671 291.72 111.515 291.723 111.348C290.98 112.669 289.464 115.589 289.352 116.695C289.212 118.077 286.943 122.038 286.803 123.42C286.663 124.803 285.734 129.364 285.225 129.778C284.868 130.069 281.415 130.965 278.523 131.385C277.297 131.563 276.172 131.655 275.427 131.58C272.924 131.327 267.515 129.383 265.619 129.656C264.102 129.875 262.151 130.081 261.365 130.157C260.814 131.379 259.356 133.833 257.639 134.664C257.531 135.927 259.73 140.663 260.911 143.011C260.962 143.067 260.987 143.116 260.983 143.154C260.96 143.107 260.936 143.06 260.911 143.011C260.476 142.523 258.192 141.426 256.983 140.887C257.238 140.683 257.215 139.96 257.149 139.507C256.749 138.845 255.967 137.339 256.041 136.601C256.116 135.864 256.813 135.128 257.153 134.852C257.317 134.805 257.479 134.741 257.639 134.664C259.356 133.833 260.814 131.379 261.365 130.157C262.151 130.081 264.102 129.875 265.619 129.656C267.515 129.383 272.924 131.327 275.427 131.58C276.172 131.655 277.297 131.563 278.523 131.385C281.415 130.965 284.868 130.069 285.225 129.778C285.734 129.364 286.663 124.803 286.803 123.42C286.943 122.038 289.212 118.077 289.352 116.695C289.464 115.589 290.98 112.669 291.723 111.348C291.765 109.329 291.873 105.634 292.045 103.932C292.278 101.627 290.013 100.933 288.719 99.8706C287.426 98.8085 278.085 98.7942 276.236 98.6071C274.386 98.4199 271.845 95.8349 271.476 94.8664C271.137 95.1424 270.273 95.6758 269.533 95.6009C268.609 95.5073 269.397 92.3282 269.444 91.8674C269.491 91.4065 266.81 90.2041 266.856 89.7432C266.903 89.2824 264.176 88.5408 263.713 88.494C263.251 88.4472 260.523 87.7055 260.061 87.6587C259.599 87.612 256.684 88.7137 255.76 88.6201C255.02 88.5452 253.458 89.6286 252.77 90.1797C252.763 90.4037 252.76 90.5649 252.752 90.6438C252.715 91.0124 253.752 93.0728 254.275 94.0568C254.352 94.8405 254.486 96.5922 254.411 97.3295C254.348 97.9577 255.532 99.6585 256.398 100.776C257.001 99.4273 264.257 101.585 265.504 103.108C266.502 104.326 265.3 106.656 264.575 107.669L269.192 122.045C270.194 121.909 270.943 121.815 271.083 121.829C271.404 121.862 274.539 120.83 276.593 120.059C277.495 119.72 278.189 119.432 278.345 119.305L279.409 118.016C279.224 118.308 278.752 118.974 278.345 119.305C278.189 119.432 277.495 119.72 276.593 120.059C274.539 120.83 271.404 121.862 271.083 121.829C270.943 121.815 270.194 121.909 269.192 122.045C266.88 122.36 263.219 122.895 262.573 122.83C262.17 122.789 260.96 123.22 259.678 123.745C258.609 124.183 257.489 124.685 256.745 125.034C256.098 125.279 254.405 126.007 252.813 126.964C251.222 127.92 248.725 130.43 247.676 131.565C247.306 132.148 246.445 133.582 245.963 134.65C245.481 135.719 245.884 136.97 246.145 137.462C243.987 137.244 239.653 136.991 239.579 137.729C239.504 138.466 235.939 139.843 234.166 140.44C229.632 143.705 237.666 156.623 237.526 158.006C237.414 159.112 247.731 174.092 252.904 181.443Z" fill="#74B4D7"/>
<path d="M262.573 122.83C263.219 122.895 266.88 122.36 269.192 122.045L264.575 107.669C265.3 106.656 266.502 104.326 265.504 103.108C264.257 101.585 257.001 99.4273 256.398 100.776C256.548 100.97 256.689 101.147 256.812 101.297C256.335 102.282 255.567 103.898 255.026 105.101C255.049 106.413 255.27 109.148 255.973 109.592C256.179 109.722 256.331 109.903 256.443 110.105C256.712 110.592 256.744 111.203 256.711 111.529L259.678 123.745C260.96 123.22 262.17 122.789 262.573 122.83Z" fill="#527E97"/>
<path d="M250.004 113.178C249.373 115.721 254.235 122.142 256.745 125.034C257.489 124.685 258.609 124.183 259.678 123.745L256.711 111.529C256.744 111.203 256.712 110.592 256.443 110.105C256.331 109.903 256.179 109.722 255.973 109.592C255.27 109.148 255.049 106.413 255.026 105.101C254.673 105.885 254.418 106.494 254.403 106.64C254.366 107.009 252.691 108.174 251.858 108.71C251.503 109.14 250.636 110.635 250.004 113.178Z" fill="#527E97"/>
<path d="M264.922 81.1676C260.392 79.778 255.904 82.5827 254.283 84.7465C252.94 86.5399 252.804 89.0952 252.77 90.1797C253.458 89.6286 255.02 88.5452 255.76 88.6201C256.684 88.7137 259.599 87.612 260.061 87.6587C260.523 87.7055 263.251 88.4472 263.713 88.494C264.176 88.5408 266.903 89.2824 266.856 89.7432C266.81 90.2041 269.491 91.4065 269.444 91.8674C269.397 92.3282 268.609 95.5073 269.533 95.6009C270.273 95.6758 271.137 95.1424 271.476 94.8664C271.107 93.8979 271.616 93.4839 272.172 92.609C272.616 91.9091 271.528 88.1986 270.929 86.4309C270.436 85.1397 268.546 82.2793 264.922 81.1676Z" fill="#527E97"/>
<path d="M270.016 178.519C270.156 177.137 270.995 168.842 269.519 164.968C268.646 162.676 266.674 158.318 265.247 154.759C262.673 156.123 256.627 158.506 253.03 157.124C253.682 159.142 254.184 162.349 254.537 165.314C254.941 168.707 262.038 178.857 265.536 183.508C266.756 182.799 269.886 179.805 270.016 178.519Z" fill="#5A70B0"/>
<path d="M293.986 158.599C293.653 158.193 290.304 156.519 288.671 155.733C286.128 154.7 280.868 152.522 280.166 152.079C279.463 151.635 279.01 151.186 278.872 151.017C278.774 156.593 278.653 167.941 278.949 168.716C279.318 169.684 281.761 177.846 281.715 178.307C281.668 178.768 281.388 181.533 280.37 182.361C279.676 183.066 278.186 184.561 277.779 184.892C277.27 185.306 275.234 186.962 273.846 186.822C272.737 186.709 271.472 187.202 270.979 187.463C270.501 187.569 269.36 187.764 268.62 187.689C267.696 187.596 266.584 189.346 265.706 188.791C265.116 188.419 264.695 186.381 264.776 184.973C263.083 186.043 259.686 188.275 259.649 188.644C259.602 189.104 256.731 194.401 255.853 193.846C255.692 193.744 255.548 193.629 255.42 193.502C255.04 194.184 254.02 195.337 252.985 194.487C252.797 194.332 252.649 194.159 252.533 193.976C251.718 194.204 250.03 194.467 249.795 193.699L249.095 196.004L291.781 194.224L291.735 194.685L314.658 208.178C314.674 208.025 314.622 207.616 314.289 207.21C313.873 206.702 312.537 201.446 312.168 200.477C311.799 199.509 308.978 199.689 308.147 198.673C307.315 197.658 304.269 190.832 303.115 188.387C301.961 185.943 301.554 176.125 302.02 171.516C302.487 166.908 294.401 159.106 293.986 158.599Z" fill="#5A70B0"/>
<path d="M256.745 125.034C256.098 125.279 254.405 126.007 252.813 126.964C251.222 127.92 248.725 130.43 247.676 131.565C247.306 132.148 246.445 133.582 245.963 134.65C245.481 135.719 245.884 136.97 246.145 137.462C243.987 137.244 239.653 136.991 239.579 137.729C239.504 138.466 235.939 139.843 234.166 140.44C229.632 143.705 237.666 156.623 237.526 158.006C237.414 159.112 247.731 174.092 252.904 181.443L251.046 190.567C250.723 190.689 249.973 191.016 249.566 191.348C249.159 191.679 249.549 193.053 249.795 193.699M256.745 125.034C254.235 122.142 249.373 115.721 250.004 113.178C250.636 110.635 251.503 109.14 251.858 108.71C252.691 108.174 254.366 107.009 254.403 106.64C254.418 106.494 254.673 105.885 255.026 105.101M256.745 125.034C257.489 124.685 258.609 124.183 259.678 123.745M271.476 94.8664C271.107 93.8979 271.616 93.4839 272.172 92.609C272.616 91.9091 271.528 88.1986 270.929 86.4309C270.436 85.1397 268.546 82.2793 264.922 81.1676C260.392 79.778 255.904 82.5827 254.283 84.7465C252.94 86.5399 252.804 89.0952 252.77 90.1797M271.476 94.8664C271.845 95.8349 274.386 98.4199 276.236 98.6071C278.085 98.7942 287.426 98.8085 288.719 99.8706C290.013 100.933 292.278 101.627 292.045 103.932C291.873 105.634 291.765 109.329 291.723 111.348M271.476 94.8664C271.137 95.1424 270.273 95.6758 269.533 95.6009C268.609 95.5073 269.397 92.3282 269.444 91.8674C269.491 91.4065 266.81 90.2041 266.856 89.7432C266.903 89.2824 264.176 88.5408 263.713 88.494C263.251 88.4472 260.523 87.7055 260.061 87.6587C259.599 87.612 256.684 88.7137 255.76 88.6201C255.02 88.5452 253.458 89.6286 252.77 90.1797M288.671 155.733C289.164 155.472 290.262 154.777 290.707 154.077C291.262 153.202 291.22 149.007 291.313 148.086C291.406 147.164 290.719 140.111 290.812 139.189C290.905 138.268 292.534 126.794 292.674 125.411C292.786 124.305 292.109 118.681 291.757 116.007L291.715 111.813C291.717 111.671 291.72 111.515 291.723 111.348M288.671 155.733C290.304 156.519 293.653 158.193 293.986 158.599C294.401 159.106 302.487 166.908 302.02 171.516C301.554 176.125 301.961 185.943 303.115 188.387C304.269 190.832 307.315 197.658 308.147 198.673M288.671 155.733C286.128 154.7 280.868 152.522 280.166 152.079C279.463 151.635 279.01 151.186 278.872 151.017M308.147 198.673C308.978 199.689 311.799 199.509 312.168 200.477C312.537 201.446 313.873 206.702 314.289 207.21C314.622 207.616 314.674 208.025 314.658 208.178M308.147 198.673C305.296 197.609 299.022 194.677 296.731 191.466M314.658 208.178L291.735 194.685M314.658 208.178L313.539 219.238L289.546 211.689M291.735 194.685L291.781 194.224L249.095 196.004M291.735 194.685L289.546 211.689M233.146 196.669L234.084 196.63M234.084 196.63L232.027 207.729L289.546 211.689M234.084 196.63L249.095 196.004M249.095 196.004L249.795 193.699M249.795 193.699C250.03 194.467 251.718 194.204 252.533 193.976M278.345 119.305C278.752 118.974 279.224 118.308 279.409 118.016L278.345 119.305ZM278.345 119.305C278.189 119.432 277.495 119.72 276.593 120.059M276.593 120.059C274.539 120.83 271.404 121.862 271.083 121.829C270.943 121.815 270.194 121.909 269.192 122.045M276.593 120.059C276.627 118.821 276.787 115.982 277.153 114.529C277.519 113.076 278.382 111.239 278.768 110.502C279.154 109.766 279.853 108.098 279.557 107.323M269.192 122.045C266.88 122.36 263.219 122.895 262.573 122.83C262.17 122.789 260.96 123.22 259.678 123.745M269.192 122.045L264.575 107.669C265.3 106.656 266.502 104.326 265.504 103.108M265.504 103.108C264.257 101.585 257.001 99.4273 256.398 100.776M265.504 103.108L269.067 100.209L269.3 97.9051M256.398 100.776C256.548 100.97 256.689 101.147 256.812 101.297C256.335 102.282 255.567 103.898 255.026 105.101M256.398 100.776C255.532 99.6585 254.348 97.9577 254.411 97.3295C254.486 96.5922 254.352 94.8405 254.275 94.0568C253.752 93.0728 252.715 91.0124 252.752 90.6438C252.76 90.5649 252.763 90.4037 252.77 90.1797M255.026 105.101C255.049 106.413 255.27 109.148 255.973 109.592C256.179 109.722 256.331 109.903 256.443 110.105M259.678 123.745L256.711 111.529C256.744 111.203 256.712 110.592 256.443 110.105M256.443 110.105C256.61 109.812 256.963 109.04 257.037 108.303M291.723 111.348C290.98 112.669 289.464 115.589 289.352 116.695C289.212 118.077 286.943 122.038 286.803 123.42C286.663 124.803 285.734 129.364 285.225 129.778C284.868 130.069 281.415 130.965 278.523 131.385M261.365 130.157C262.151 130.081 264.102 129.875 265.619 129.656C267.515 129.383 272.924 131.327 275.427 131.58C276.172 131.655 277.297 131.563 278.523 131.385M261.365 130.157L260.996 129.188M261.365 130.157C260.814 131.379 259.356 133.833 257.639 134.664M253.823 135.446C253.776 135.906 253.664 137.012 253.59 137.75C253.496 138.672 255.668 140.288 256.546 140.842C256.743 140.967 256.884 140.966 256.983 140.887M255.668 140.288C255.606 140.902 255.389 142.122 255.019 142.085C254.832 142.066 254.21 141.773 253.517 141.336M251.464 135.672C251.248 136.271 250.88 137.755 251.138 138.898C251.33 139.748 252.501 140.696 253.517 141.336M253.517 141.336C253.477 142.307 253.223 144.138 252.521 143.694C251.643 143.14 247.808 139.493 247.995 137.649C248.181 135.806 249.106 135.899 249.199 134.978C249.293 134.056 249.479 132.213 249.526 131.752M278.872 151.017C277.704 147.174 275.099 139.368 274.027 138.887M278.872 151.017C278.774 156.593 278.653 167.941 278.949 168.716C279.318 169.684 281.761 177.846 281.715 178.307C281.668 178.768 281.388 181.533 280.37 182.361C279.676 183.066 278.186 184.561 277.779 184.892C277.27 185.306 275.234 186.962 273.846 186.822C272.737 186.709 271.472 187.202 270.979 187.463C270.501 187.569 269.36 187.764 268.62 187.689C267.696 187.596 266.584 189.346 265.706 188.791C265.116 188.419 264.695 186.381 264.776 184.973M263.614 149.472C263.537 150.225 264.262 152.302 265.247 154.759M265.536 183.508C265.444 183.562 265.363 183.603 265.295 183.628C265.142 183.686 265.026 183.839 264.942 184.058C264.851 184.297 264.797 184.614 264.776 184.973M265.536 183.508C266.756 182.799 269.886 179.805 270.016 178.519C270.156 177.137 270.995 168.842 269.519 164.968C268.646 162.676 266.674 158.318 265.247 154.759M265.536 183.508C262.038 178.857 254.941 168.707 254.537 165.314C254.184 162.349 253.682 159.142 253.03 157.124M245.997 148.155C247.66 150.185 251.209 154.455 252.104 155.291C252.441 155.605 252.749 156.254 253.03 157.124M264.776 184.973C263.083 186.043 259.686 188.275 259.649 188.644C259.602 189.104 256.731 194.401 255.853 193.846C255.692 193.744 255.548 193.629 255.42 193.502M254.699 191.402C254.623 192.154 254.855 192.938 255.42 193.502M255.42 193.502C255.04 194.184 254.02 195.337 252.985 194.487C252.797 194.332 252.649 194.159 252.533 193.976M252.34 191.628C252.163 192.118 252.015 193.151 252.533 193.976M265.247 154.759C262.673 156.123 256.627 158.506 253.03 157.124M256.983 140.887C257.238 140.683 257.215 139.96 257.149 139.507C256.749 138.845 255.967 137.339 256.041 136.601C256.116 135.864 256.813 135.128 257.153 134.852C257.317 134.805 257.479 134.741 257.639 134.664M256.983 140.887C258.192 141.426 260.476 142.523 260.911 143.011M260.983 143.154L261.675 145.552M260.983 143.154C260.987 143.116 260.962 143.067 260.911 143.011M260.983 143.154C260.96 143.107 260.936 143.06 260.911 143.011M257.639 134.664C257.531 135.927 259.73 140.663 260.911 143.011M278.523 131.385C280.031 133.414 283.128 137.574 283.461 137.98C283.877 138.488 286.418 141.072 287.296 141.627" stroke="#41A9E5" stroke-opacity="0.7"/>
<mask id="mask3_245_590" style="mask-type:alpha" maskUnits="userSpaceOnUse" x="8" y="173" width="360" height="210">
<path d="M53.7542 190.627C69.5084 211.445 101.922 253.784 105.542 256.604L136.212 239.984L171.408 256.604L201.073 249.553L253.363 271.714L293.587 251.064L321.743 253.582C333.642 238.305 353.391 206.738 355 201.5C356.609 196.262 359.665 175.347 360 173.5L368 268.188L278.503 382.011L40.6816 335.676L8 173L53.7542 190.627Z" fill="black"/>
</mask>
<g mask="url(#mask3_245_590)">
<ellipse cx="207.106" cy="198.733" rx="154.86" ry="154.92" fill="url(#paint4_radial_245_590)"/>
</g>
</g>
<mask id="mask4_245_590" style="mask-type:alpha" maskUnits="userSpaceOnUse" x="51" y="41" width="310" height="310">
<circle cx="154.5" cy="154.5" r="154.5" transform="matrix(-0.973423 -0.229016 -0.229016 0.973423 391.553 80.7666)" fill="#99DD66"/>
</mask>
<g mask="url(#mask4_245_590)">
<path d="M276.999 51.501C276.999 65.5842 265.583 77.001 251.499 77.001C237.416 77.001 225.999 65.5842 225.999 51.501C225.999 37.4177 237.416 26.001 251.499 26.001C265.583 26.001 276.999 37.4177 276.999 51.501Z" fill="#FFF5C9"/>
</g>
<path fill-rule="evenodd" clip-rule="evenodd" d="M307.572 135.534C307.986 138.296 317.123 146.681 321.64 150.528C324.549 156.134 323.311 164.147 319.284 169.813C316.062 174.346 317.941 182.042 319.283 185.323C327.15 188.18 340.048 183.399 345.515 180.651C346.615 179.219 343.146 171.78 341.274 168.24C333.909 163.166 329.954 152.424 330.754 150.054C332.894 143.712 335.626 136.839 338.361 130.625L336.14 124.123C328.096 130.832 313.584 130.18 307.333 129.015C307.24 130.037 307.158 132.771 307.572 135.534ZM331.475 138.587C325.916 137.055 319.392 139.746 316.825 141.283L324.619 151.49L328.203 169.736C326.32 169.719 321.949 171.212 319.53 177.319C316.506 184.952 330.183 185.229 337.101 182.206C344.019 179.182 342.309 175.146 341.602 173.078C341.037 171.423 334.479 169.681 331.27 169.018L327.112 153.938L331.475 138.587Z" fill="#D9F6FF"/>
<path d="M316.825 141.283C319.392 139.746 325.916 137.055 331.475 138.587L327.112 153.938L331.27 169.018C334.479 169.681 341.037 171.423 341.602 173.078C342.309 175.146 344.019 179.182 337.101 182.206C330.183 185.229 316.506 184.952 319.53 177.319C321.949 171.212 326.32 169.719 328.203 169.736L324.619 151.49L316.825 141.283Z" fill="#527E97"/>
<path d="M345.515 180.651C340.048 183.399 327.15 188.18 319.283 185.323C318.397 186.286 316.826 188.605 317.629 190.178C318.632 192.146 334.02 196.458 348.02 185.075C348.079 183.955 347.66 181.502 345.515 180.651Z" fill="#2979A7"/>
<path d="M307.333 129.015C313.584 130.18 328.096 130.832 336.14 124.123C337.15 120.874 335.416 119.42 334.423 119.1C320.593 125.937 310.512 125.069 307.201 123.78C305.146 124.747 306.433 127.673 307.333 129.015Z" fill="#2979A7"/>
<path d="M307.201 123.78C310.512 125.069 320.593 125.937 334.423 119.1C332.364 117.273 324.036 115.653 307.201 123.78Z" fill="#0F5065"/>
<path d="M148.489 132.148L142.872 133.444C143.034 134.936 142.058 136.379 140.534 136.902L142.444 145.179C144.042 144.981 145.551 145.847 146.059 147.257L151.676 145.96C151.517 144.471 152.496 143.029 154.024 142.507L152.114 134.23C150.512 134.429 148.999 133.56 148.489 132.148Z" fill="#2979A7"/>
<path d="M150.149 128.707L139.872 131.079C139.303 133.361 137.53 135.272 135.201 136.112L138.986 152.52L160.339 147.593L156.553 131.185C154.091 131.451 151.66 130.51 150.149 128.707ZM154.853 142.663C154.898 142.859 154.768 143.051 154.557 143.1C153.11 143.434 152.179 144.798 152.489 146.141C152.534 146.336 152.404 146.529 152.193 146.577L145.864 148.038C145.653 148.086 145.452 147.971 145.407 147.775C145.097 146.432 143.67 145.612 142.223 145.946C142.012 145.995 141.811 145.879 141.766 145.683L139.703 136.745C139.658 136.549 139.788 136.357 139.999 136.309C141.446 135.975 142.368 134.606 142.058 133.263C142.013 133.067 142.143 132.875 142.354 132.826L148.683 131.366C148.894 131.317 149.095 131.433 149.14 131.629C149.45 132.971 150.887 133.796 152.333 133.463C152.544 133.414 152.745 133.53 152.791 133.725L154.853 142.663Z" fill="#D9F6FF"/>
<path d="M164.792 150.155C164.447 148.661 162.862 147.75 161.252 148.122L138.398 153.395C136.788 153.767 135.762 155.28 136.107 156.774L136.317 157.682L134.119 158.189L134.28 158.888L167.36 151.255L167.198 150.556L165.001 151.063L164.792 150.155Z" fill="#D9F6FF"/>
<path d="M156.609 127.187C158.261 126.806 159.318 125.247 158.964 123.713C158.61 122.178 156.977 121.24 155.324 121.622C153.671 122.003 152.614 123.562 152.968 125.097C153.322 126.631 154.955 127.569 156.609 127.187Z" fill="#67BEDB"/>
<path d="M134.126 135.69C136.854 135.061 138.808 132.938 139.212 130.494L150.484 127.894C151.918 129.912 154.605 130.965 157.332 130.335C160.866 129.52 163.108 126.203 162.353 122.93C161.598 119.657 158.129 117.658 154.595 118.474L131.089 123.905C127.74 124.832 125.634 128.051 126.368 131.233C127.124 134.507 130.6 136.504 134.126 135.69ZM155.162 120.921C157.231 120.444 159.274 121.618 159.717 123.538C160.16 125.458 158.838 127.408 156.769 127.886C154.7 128.363 152.657 127.189 152.214 125.269C151.771 123.349 153.093 121.398 155.162 120.921ZM131.954 126.276C134.022 125.799 136.065 126.973 136.508 128.893C136.951 130.813 135.629 132.764 133.561 133.241C131.492 133.718 129.448 132.545 129.005 130.625C128.562 128.704 129.885 126.754 131.954 126.276Z" fill="#D9F6FF"/>
<path d="M133.4 132.542C135.052 132.16 136.109 130.602 135.755 129.068C135.401 127.533 133.768 126.595 132.116 126.976C130.462 127.358 129.405 128.916 129.759 130.451C130.113 131.985 131.746 132.923 133.4 132.542Z" fill="#67BEDB"/>
<path d="M183.199 214.138C182.735 214.142 182.267 214.003 181.843 213.736C181.419 213.47 181.053 213.084 180.784 212.619L180.76 212.576L181.374 212.4C181.666 212.325 181.917 212.13 182.082 211.85C182.247 211.57 182.315 211.224 182.276 210.87C182.247 210.659 182.179 210.454 182.076 210.269C181.974 210.084 181.839 209.924 181.682 209.799C181.526 209.674 181.35 209.588 181.168 209.546C180.986 209.505 180.801 209.509 180.628 209.559L170.241 212.537C169.949 212.612 169.699 212.807 169.534 213.087C169.369 213.366 169.3 213.713 169.339 214.067C169.368 214.278 169.436 214.483 169.539 214.668C169.641 214.853 169.776 215.013 169.933 215.138C170.09 215.263 170.265 215.349 170.447 215.391C170.629 215.432 170.814 215.428 170.987 215.378L171.665 215.184L171.667 215.233C171.685 215.77 171.579 216.291 171.361 216.742C171.143 217.193 170.82 217.558 170.424 217.801C168.939 218.747 167.809 220.26 167.209 222.107C166.785 223.486 166.744 225.017 167.093 226.502C167.442 227.987 168.164 229.356 169.164 230.428L172.455 234.029C172.637 234.228 172.857 234.374 173.093 234.451C173.329 234.528 173.572 234.534 173.8 234.469L189.168 230.062C189.396 229.997 189.599 229.863 189.759 229.672C189.918 229.482 190.027 229.242 190.076 228.977L190.958 224.179C191.238 222.739 191.125 221.196 190.634 219.752C190.143 218.308 189.298 217.03 188.208 216.086C186.72 214.837 184.96 214.153 183.199 214.138Z" fill="#0F5065"/>
<path d="M190.803 159.147C191.462 172.535 161.279 184.562 174.211 199.407C173.242 199.993 168.532 195.363 169.374 196.76C171.125 199.662 172.595 202.08 174.565 203.197C175.943 194.934 177.759 183.93 188.466 172.755C188.47 172.751 176.79 187.874 175.657 207.853L178.111 207.15C178.173 206.294 178.361 205.469 178.669 204.712C181.221 204.854 183.687 204.129 185.758 202.624C185.758 202.624 180.483 202.802 180.467 202.411C180.452 202.02 186.853 202.458 188.918 194.83C185.205 196.757 182.673 194.987 182.653 194.476C182.633 193.966 188.221 196.317 191.903 186.817C189.327 188.565 185.495 188.296 185.472 187.703C185.448 187.11 191.903 186.817 194.304 177.836C191.249 180.077 189.092 178.864 189.092 178.864C198.828 174.719 190.803 159.147 190.803 159.147Z" fill="#3596B5"/>
<path d="M111.5 111.001L112.286 113.419H114.829L112.771 114.914L113.557 117.333L111.5 115.838L109.443 117.333L110.229 114.914L108.171 113.419H110.714L111.5 111.001Z" fill="#A0BDCB"/>
<path d="M137.5 102.001L138.286 104.419H140.829L138.771 105.914L139.557 108.333L137.5 106.838L135.443 108.333L136.229 105.914L134.171 104.419H136.714L137.5 102.001Z" fill="#A0BDCB"/>
<path d="M157.5 93.001L158.286 95.4194H160.829L158.771 96.9141L159.557 99.3325L157.5 97.8379L155.443 99.3325L156.229 96.9141L154.171 95.4194H156.714L157.5 93.001Z" fill="#A0BDCB"/>
<path d="M175.5 75.001L176.286 77.4194H178.829L176.771 78.9141L177.557 81.3325L175.5 79.8379L173.443 81.3325L174.229 78.9141L172.171 77.4194H174.714L175.5 75.001Z" fill="#A0BDCB"/>
<path d="M181.5 51.001L182.286 53.4194H184.829L182.771 54.9141L183.557 57.3325L181.5 55.8379L179.443 57.3325L180.229 54.9141L178.171 53.4194H180.714L181.5 51.001Z" fill="#A0BDCB"/>
<path d="M203.5 54.001L204.286 56.4194H206.829L204.771 57.9141L205.557 60.3325L203.5 58.8379L201.443 60.3325L202.229 57.9141L200.171 56.4194H202.714L203.5 54.001Z" fill="#A0BDCB"/>
<path d="M196.5 82.001L197.286 84.4194H199.829L197.771 85.9141L198.557 88.3325L196.5 86.8379L194.443 88.3325L195.229 85.9141L193.171 84.4194H195.714L196.5 82.001Z" fill="#A0BDCB"/>
<defs>
<filter id="filter0_d_245_590" x="48.2461" y="80.2959" width="317.721" height="281.356" filterUnits="userSpaceOnUse" color-interpolation-filters="sRGB">
<feFlood flood-opacity="0" result="BackgroundImageFix"/>
<feColorMatrix in="SourceAlpha" type="matrix" values="0 0 0 0 0 0 0 0 0 0 0 0 0 0 0 0 0 0 127 0" result="hardAlpha"/>
<feOffset dy="4"/>
<feGaussianBlur stdDeviation="2"/>
<feComposite in2="hardAlpha" operator="out"/>
<feColorMatrix type="matrix" values="0 0 0 0 0 0 0 0 0 0 0 0 0 0 0 0 0 0 0.25 0"/>
<feBlend mode="normal" in2="BackgroundImageFix" result="effect1_dropShadow_245_590"/>
<feBlend mode="normal" in="SourceGraphic" in2="effect1_dropShadow_245_590" result="shape"/>
</filter>
<linearGradient id="paint0_linear_245_590" x1="207" y1="42.0107" x2="207" y2="351.011" gradientUnits="userSpaceOnUse">
<stop stop-color="#475FA7"/>
<stop offset="1" stop-color="#98A6CD"/>
</linearGradient>
<linearGradient id="paint1_linear_245_590" x1="206" y1="0" x2="206" y2="309" gradientUnits="userSpaceOnUse">
<stop stop-color="#FFA9A7"/>
<stop offset="1" stop-color="#FF9997"/>
</linearGradient>
<linearGradient id="paint2_linear_245_590" x1="223" y1="147" x2="223" y2="434" gradientUnits="userSpaceOnUse">
<stop stop-color="#BAD5DE"/>
<stop offset="1" stop-color="white"/>
</linearGradient>
<radialGradient id="paint3_radial_245_590" cx="0" cy="0" r="1" gradientUnits="userSpaceOnUse" gradientTransform="translate(204.86 196.92) rotate(90) scale(154.92 154.86)">
<stop stop-color="#DECABA"/>
<stop offset="1" stop-color="#3CA8E6"/>
</radialGradient>
<radialGradient id="paint4_radial_245_590" cx="0" cy="0" r="1" gradientUnits="userSpaceOnUse" gradientTransform="translate(207.106 198.733) rotate(90) scale(154.92 154.86)">
<stop stop-color="#DECABA"/>
<stop offset="1" stop-color="#3CA8E6"/>
</radialGradient>
</defs>
</svg>
