<?xml version="1.0" encoding="UTF-8"?>
<svg id="Calque_1" data-name="Calque 1" xmlns="http://www.w3.org/2000/svg" xmlns:xlink="http://www.w3.org/1999/xlink" viewBox="0 0 314.25 309">
  <defs>
    <style>
      .cls-1 {
        fill: none;
      }

      .cls-2 {
        fill: url(#Dégradé_sans_nom_4);
      }

      .cls-3 {
        fill: #ffcbbf;
      }

      .cls-4 {
        fill: #ffb292;
      }

      .cls-5 {
        fill: #d86bc5;
      }

      .cls-6 {
        fill: #ffdcf9;
      }

      .cls-7 {
        fill: #d96bc6;
      }

      .cls-8 {
        fill: #facdba;
      }

      .cls-9 {
        fill: url(#Dégradé_sans_nom);
      }

      .cls-10 {
        fill: #fddd6e;
      }

      .cls-11 {
        fill: #1037b0;
        fill-rule: evenodd;
      }

      .cls-12 {
        fill: #e8b7c9;
      }

      .cls-13 {
        fill: #ffb697;
      }

      .cls-14 {
        fill: rgba(249, 232, 222, .31);
      }

      .cls-15 {
        clip-path: url(#clippath);
      }

      .cls-16 {
        fill: #f8b69a;
      }

      .cls-17 {
        fill: #f9e8de;
      }
    </style>
    <linearGradient id="Dégradé_sans_nom" data-name="Dégradé sans nom" x1="155" y1="333.92" x2="155" y2="24.92" gradientTransform="translate(0 333.92) scale(1 -1)" gradientUnits="userSpaceOnUse">
      <stop offset="0" stop-color="#f7cfd8"/>
      <stop offset="1" stop-color="#fdd69f"/>
    </linearGradient>
    <clipPath id="clippath">
      <path class="cls-1" d="M6.25,151.88l140.23-27.92,167.77,27.92-5.01,32.18c-22.37,18.09-69.21,54.21-77.63,53.9-10.52-.39-179.79-19.78-189.31-30.63-9.52-10.86-31.05-34.12-31.05-37.22,0-2.48-3.34-13.18-5.01-18.22Z"/>
    </clipPath>
    <linearGradient id="Dégradé_sans_nom_4" data-name="Dégradé sans nom 4" x1="155" y1="184.89" x2="155" y2="25.89" gradientTransform="translate(0 333.92) scale(1 -1)" gradientUnits="userSpaceOnUse">
      <stop offset="0" stop-color="#ff7ee9"/>
      <stop offset="1" stop-color="#994b8c"/>
    </linearGradient>
  </defs>
  <path class="cls-9" d="M309.5,154.5c0,85.33-69.17,154.5-154.5,154.5S.5,239.83.5,154.5,69.67,0,155,0s154.5,69.17,154.5,154.5Z"/>
  <path class="cls-17" d="M261.25,147.96c0-55.78-45.22-101-101-101s-101,45.22-101,101,45.22,101,101,101v1c-56.33,0-102-45.67-102-102s45.67-102,102-102,102,45.67,102,102-45.67,102-102,102v-1c55.78,0,101-45.22,101-101Z"/>
  <path class="cls-14" d="M258.25,147.46c0-53.85-43.65-97.5-97.5-97.5s-97.5,43.65-97.5,97.5,43.65,97.5,97.5,97.5v1c-54.4,0-98.5-44.1-98.5-98.5s44.1-98.5,98.5-98.5,98.5,44.1,98.5,98.5-44.1,98.5-98.5,98.5v-1c53.85,0,97.5-43.65,97.5-97.5Z"/>
  <path class="cls-10" d="M150.67,35.29c5.76-2.39,12.36.34,14.75,6.09,2.39,5.76-.33,12.36-6.09,14.75-5.75,2.39-12.36-.33-14.75-6.09-2.39-5.76.34-12.36,6.09-14.75Z"/>
  <g class="cls-15">
    <path class="cls-6" d="M309,150.95c0,81.5-68.9,147.5-154,147.5S1,232.45,1,150.95,69.9,3.45,155,3.45s154,66,154,147.5Z"/>
  </g>
  <path class="cls-1" d="M6.25,151.88l140.23-27.92,167.77,27.92-5.01,32.18c-22.37,18.1-69.21,54.21-77.63,53.9-10.52-.39-179.79-19.77-189.31-30.63-9.52-10.86-31.05-34.12-31.05-37.22,0-2.48-3.34-13.18-5.01-18.22Z"/>
  <path class="cls-12" d="M42.77,211.75c-4.74,3.23-14.99,14.82-19.52,20.21l269.51-1.6c-2.67-.8-6.18-3.46-9.41-10.12-6.28-12.93-11.86-15.36-16.74-16.57-4.88-1.21-6.97,4.45-9.41,4.85-2.44.4-12.2-8.08-17.08-11.32-3.9-2.59-9.76-1.89-12.2-1.21-1.63-3.1-6.55-9.3-13.25-9.3h-9.07c-32.43-35.97-62.41-22.23-64.5-21.82-1.67.32-10.93,6.6-15.34,9.7-.81.54-3.21,1.29-6.28,0-3.07-1.29-4.76,3.23-5.23,5.66-1.28-2.96-4.81-8.81-8.72-8.49-4.88.4-11.51,24.25-16.04,24.25s-4.88-1.21-8.37-2.83c-3.49-1.62-7.32-10.11-10.46-11.72-3.14-1.62-6.62,5.66-6.97,10.1-.35,4.45-14.99,16.17-20.92,20.21Z"/>
  <path class="cls-6" d="M150.75,7.96l.79,2.42h2.54l-2.06,1.49.79,2.42-2.06-1.49-2.06,1.49.79-2.42-2.06-1.49h2.54l.79-2.42Z"/>
  <path class="cls-6" d="M186.75,16.96l.79,2.42h2.54l-2.06,1.49.79,2.42-2.06-1.49-2.06,1.49.79-2.42-2.06-1.49h2.54l.79-2.42Z"/>
  <path class="cls-6" d="M87.75,24.96l.79,2.42h2.54l-2.06,1.49.79,2.42-2.06-1.49-2.06,1.49.79-2.42-2.06-1.49h2.54l.79-2.42Z"/>
  <path class="cls-6" d="M212.75,15.96l1.01,3.11h3.27l-2.65,1.92,1.01,3.11-2.65-1.92-2.65,1.92,1.01-3.11-2.65-1.92h3.27l1.01-3.11Z"/>
  <path class="cls-6" d="M64.75,45.96l.56,1.73h1.82l-1.47,1.07.56,1.73-1.47-1.07-1.47,1.07.56-1.73-1.47-1.07h1.82l.56-1.73Z"/>
  <path class="cls-6" d="M239.75,36.96l.56,1.73h1.82l-1.47,1.07.56,1.73-1.47-1.07-1.47,1.07.56-1.73-1.47-1.07h1.82l.56-1.73Z"/>
  <path class="cls-6" d="M119.75,11.96l.79,2.42h2.54l-2.06,1.49.79,2.42-2.06-1.49-2.06,1.49.79-2.42-2.06-1.49h2.54l.79-2.42Z"/>
  <path class="cls-11" d="M154.53,97.46c-4.5-6.17-10.2-19.5,3-23.5,6-.17,15.7,4.3,6.5,23.5-.67,3.33-.4,10.6,6,13,4.33.33,13.1,2.4,13.5,8,.4,5.6.83,23,1,31,0,1.17-.6,3.6-3,4-2.4.4-7.67.17-10,0l6,8c4.83-1.33,16-3.8,22-3,3,.33,7.8,3.1,3,11.5-2,1.17-6.6,3.6-9,4-3,.5-57.5,3-61,1.5-2.8-1.2-12.83-6.83-17.5-9.5-1.17-3.33-1.9-10,4.5-10s18,4,23,6c.83-1.83,3-5.9,5-7.5v-1h-9.5c-.67-.33-2-1.4-2-3s.67-23,1-33.5c.67-1.17,2.7-3.7,5.5-4.5,3.5-1,4.5-1,5.5-1s6.5-4.5,6.5-6v-8ZM142.53,145.47c-1.2-3.2,1.17-12,2.5-16,2.17,5.5,6.2,16.6,5,17-1.2.4-5.5-.5-7.5-1ZM170.03,145.47c-.4-1.6,3.17-11,5-15.5.83,4.83,2.5,14.7,2.5,15.5s-5,.33-7.5,0Z"/>
  <path class="cls-12" d="M280.18,153.57c1.58.25,5.23.96,7.19,1.84,2.44,1.1,7.94.98,9.27.66,1.06-.25,2.98.21,3.81.47.56.71,1.24,2.47-.48,3.92-2.16,1.8-6.77,2.66-11.3,1.47-4.53-1.19-9.4-4.82-8.48-8.36Z"/>
  <path class="cls-12" d="M289.95,144.91c.77.31,2.61.83,3.81.47,1.2-.36,2.04.46,2.3.92.63,1.4,1.95,4.31,2.16,4.72.26.51.8,2.64-.37,2.98-1.17.33-5.81,1.35-7.26,1.33-1.45-.02-6.66-3.52-5.85-4.85.81-1.33,1.95-5.32,5.2-5.56Z"/>
  <path class="cls-12" d="M292.71,138.25c-1.13.92-3.29,3.12-2.82,4.58.47,1.46,2.88,1.47,4.03,1.29,1.39-1.74,3.11-5.34-1.21-5.87Z"/>
  <path class="cls-8" d="M241.37,150.18c.8.71,2.36,2.9,2.47,6.12.26-.17.58-.36.94-.55.12-.34.88-5.56.77-7.01s-2.64-7.58-3.05-7.29c-.33.23-2.47,3.06-3.5,4.45.7,2.01,1.59,4.75,1.51,5.2l.87-.92Z"/>
  <path class="cls-8" d="M236.75,155.46c.09-.25.18-.48.27-.67l3.48-3.69c.08-.46-.81-3.19-1.51-5.2-.15-.44-.3-.85-.42-1.19l-1.42,2.97c-.39,1.9-1.11,6.03-.87,7.27.17.18.33.35.47.51Z"/>
  <path class="cls-8" d="M228.59,149.8c-.33.54-.83,1.93-.18,3.18.8,1.56,3.9,5.65,8.36,6.05-.69-.9-.41-2.46-.02-3.57-.14-.16-.3-.33-.47-.51-1.17-1.24-2.96-2.93-4.67-4.03-1.11-.72-2.18-1.19-3.02-1.12Z"/>
  <path class="cls-3" d="M243.84,156.3c0,.12,0,.24,0,.36,0,1.52-.59,2.45-1.42,2.97,5.71,2.39,9.81-2.74,11.14-5.61-1.02-.35-2.18-.38-3.34-.21-2.01.29-4.05,1.17-5.45,1.93-.36.2-.67.38-.94.55Z"/>
  <path class="cls-16" d="M237.02,154.79c-.09.19-.18.42-.27.67-.39,1.11-.67,2.67.02,3.57.14.18.31.33.53.45,1.26.67,3.61,1.09,5.12.15.84-.52,1.42-1.45,1.42-2.97,0-.12,0-.24,0-.36-.1-3.23-1.67-5.42-2.47-6.12l-.87.92-3.48,3.69Z"/>
  <path class="cls-13" d="M232.77,144.08c-.6.18-1.02,4.63-1.16,6.84,1.7,1.1,3.5,2.79,4.67,4.03-.24-1.24.48-5.36.87-7.27-1.21-1.27-3.78-3.78-4.39-3.6Z"/>
  <path class="cls-4" d="M245.54,148.74c.11,1.45-.65,6.67-.77,7.01,1.4-.77,3.44-1.64,5.45-1.93.6-2.51,1.66-7.57,1.11-7.66-.56-.09-4.09,1.69-5.79,2.59Z"/>
  <path class="cls-8" d="M32.19,150.17c1.03.27,3.42,1.5,4.99,4.33.16-.27.35-.58.58-.92-.05-.35-1.75-5.35-2.51-6.59-.76-1.24-5.81-5.54-6.04-5.1-.18.35-.8,3.85-1.09,5.56,1.54,1.48,3.57,3.5,3.71,3.94l.35-1.22Z"/>
  <path class="cls-8" d="M30.49,156.98c-.04-.26-.06-.51-.06-.72l1.41-4.87c-.14-.44-2.17-2.47-3.71-3.94-.34-.32-.65-.62-.92-.87l.09,3.29c.52,1.87,1.76,5.87,2.54,6.87.23.08.45.16.65.24Z"/>
  <path class="cls-8" d="M20.65,155.66c-.05.63.14,2.09,1.29,2.91,1.43,1.02,6.05,3.26,10.2,1.58-1.02-.49-1.48-2-1.64-3.17-.2-.08-.42-.16-.65-.24-1.61-.57-3.97-1.26-5.99-1.46-1.31-.13-2.48-.06-3.2.38Z"/>
  <path class="cls-3" d="M37.18,154.5c.06.1.11.21.17.32.69,1.36.6,2.45.09,3.29,6.17-.47,7.48-6.91,7.37-10.07-1.07.15-2.11.66-3.07,1.34-1.66,1.18-3.07,2.88-3.97,4.2-.23.34-.42.65-.58.92Z"/>
  <path class="cls-16" d="M30.43,156.26c0,.21.03.46.06.72.16,1.17.62,2.68,1.64,3.17.2.1.43.15.67.16,1.43.02,3.7-.68,4.63-2.2.51-.84.6-1.93-.09-3.29-.05-.11-.11-.21-.17-.32-1.56-2.83-3.95-4.06-4.99-4.33l-.35,1.22-1.41,4.87Z"/>
  <path class="cls-13" d="M21.76,148.67c-.45.44,1.2,4.59,2.09,6.61,2.02.2,4.38.89,5.99,1.46-.78-1-2.01-4.99-2.54-6.87-1.66-.58-5.09-1.64-5.54-1.2Z"/>
  <path class="cls-4" d="M35.25,146.99c.76,1.24,2.47,6.23,2.51,6.59.9-1.32,2.31-3.03,3.97-4.2-.61-2.51-1.97-7.49-2.51-7.32-.54.17-2.87,3.37-3.97,4.94Z"/>
  <path class="cls-5" d="M217.7,67.98v-12.86c.2-.13.66-.3.86,0,.2.3,1.07,1.81,1.48,2.52,1.52,1.18,4.21,4.29,2.83,7.31-.12.17-.39.43-.49.13-.12-.38.12-5.67-2.83-5.8-.25-.08-.74-.08-.74.63s-.16,7.6-.25,10.97c-.45.88-1.87,2.72-3.94,3.03-2.07.3-3.08-.8-3.32-1.39-.12-.76-.1-2.45.98-3.15,1.35-.88,2.71-1.39,3.69-1.13.99.25,1.11.5,1.35.38.2-.1.33-.46.37-.63Z"/>
  <path class="cls-7" d="M255.25,93.88v12.49l-.16.55c.02.1.03.2.03.31,0,1.29-1.64,2.33-3.67,2.33s-3.67-1.04-3.67-2.33c0-1.28,1.64-2.33,3.67-2.33,1.21,0,2.27.37,2.94.94l.12-10.61-9.8-3.43v12.98l-.15-.02c.02.09.02.18.02.27,0,1.28-1.64,2.33-3.67,2.33s-3.67-1.04-3.67-2.33,1.64-2.33,3.67-2.33c1.2,0,2.27.37,2.94.93v-13.67l11.39,3.92Z"/>
  <path class="cls-5" d="M108.7,67.98v-12.86c.21-.13.67-.3.86,0,.2.3,1.07,1.81,1.48,2.52,1.52,1.18,4.21,4.29,2.83,7.31-.12.17-.39.43-.49.13-.12-.38.12-5.67-2.83-5.8-.25-.08-.74-.08-.74.63s-.16,7.6-.25,10.97c-.45.88-1.87,2.72-3.94,3.03-2.07.3-3.08-.8-3.32-1.39-.12-.76-.1-2.45.98-3.15,1.35-.88,2.71-1.39,3.69-1.13.99.25,1.11.5,1.35.38.2-.1.33-.46.37-.63Z"/>
  <path class="cls-7" d="M81.25,93.88v12.49l-.16.55c.02.1.03.2.03.31,0,1.29-1.64,2.33-3.67,2.33s-3.67-1.04-3.67-2.33c0-1.28,1.65-2.33,3.67-2.33,1.21,0,2.27.37,2.94.94l.12-10.61-9.8-3.43v12.98l-.15-.02c.02.09.03.18.03.27,0,1.28-1.64,2.33-3.67,2.33s-3.67-1.04-3.67-2.33,1.64-2.33,3.67-2.33c1.2,0,2.27.37,2.94.93v-13.67l11.39,3.92Z"/>
  <path class="cls-2" d="M.24,149.03c-3.01,46.75,21.35,143.93,142.85,158.7,52.63,3.49,159.69-22.56,166.91-154.71l-40.1,56.39-30.07-2-39.1,19.96-51.63-19.96-29.07,5.99-35.59-16.47-31.08,16.47L.24,149.03Z"/>
</svg>