<svg width="31" height="28" viewBox="0 0 31 28" fill="none" xmlns="http://www.w3.org/2000/svg">
<g filter="url(#filter0_d_2760_1239)">
<path d="M10.1284 23H15.4108M20.6933 23H15.4108M15.4108 23V19.1751M15.4108 7.70027V15.3501M15.4108 15.3501L10.1284 10.1752M15.4108 15.3501L20.6933 10.1752M15.4108 15.3501V19.1751M15.4108 19.1751C15.4108 19.1751 7.83097 21.0268 7.83106 17.6C7.8312 11.7512 1.4608 5.00003 7.83151 5.00034C15.4115 5.00071 15.0753 4.9995 22.0713 5.00025C30.339 5.00114 22.9895 9.50124 22.9895 17.6C22.9895 20.8523 15.4108 19.1751 15.4108 19.1751Z" stroke="#62635E" stroke-width="2" shape-rendering="crispEdges"/>
</g>
<defs>
<filter id="filter0_d_2760_1239" x="0" y="0" width="31" height="28" filterUnits="userSpaceOnUse" color-interpolation-filters="sRGB">
<feFlood flood-opacity="0" result="BackgroundImageFix"/>
<feColorMatrix in="SourceAlpha" type="matrix" values="0 0 0 0 0 0 0 0 0 0 0 0 0 0 0 0 0 0 127 0" result="hardAlpha"/>
<feOffset/>
<feGaussianBlur stdDeviation="2"/>
<feComposite in2="hardAlpha" operator="out"/>
<feColorMatrix type="matrix" values="0 0 0 0 0.85098 0 0 0 0 0.85098 0 0 0 0 0.85098 0 0 0 1 0"/>
<feBlend mode="hard-light" in2="BackgroundImageFix" result="effect1_dropShadow_2760_1239"/>
<feBlend mode="normal" in="SourceGraphic" in2="effect1_dropShadow_2760_1239" result="shape"/>
</filter>
</defs>
</svg>
