<svg width="126" height="127" viewBox="0 0 126 127" fill="none" xmlns="http://www.w3.org/2000/svg">
<g filter="url(#filter0_f_2773_1030)">
<rect x="37.6904" y="37.688" width="50.5246" height="51.3667" rx="25.2623" fill="#FFCB51"/>
</g>
<g opacity="0.6" filter="url(#filter1_d_2773_1030)">
<rect x="30" y="30" width="65.9016" height="67" rx="32.9508" fill="url(#paint0_radial_2773_1030)"/>
</g>
<g clip-path="url(#clip0_2773_1030)">
<path d="M66.6354 69.7043H59.2675C58.7591 69.7043 58.3465 69.2921 58.3465 68.7833C58.3465 67.5136 57.8062 65.7304 56.9027 64.9447C54.427 62.7936 53.3044 59.5675 53.8999 56.3152C54.6926 51.9814 58.4958 48.8328 62.9437 48.8286C62.946 48.8286 62.9491 48.8286 62.952 48.8286C65.4104 48.8286 67.7219 49.7853 69.4613 51.5232C71.2025 53.2633 72.1613 55.5771 72.1613 58.0384C72.1613 60.6845 71.0071 63.2037 68.9948 64.9497C68.0942 65.731 67.5564 67.5124 67.5564 68.7833C67.5564 69.2921 67.1438 69.7043 66.6354 69.7043Z" fill="#FFC778"/>
<path d="M62.9513 69.7045C62.4428 69.7045 62.0303 69.2923 62.0303 68.7835V61.4156C62.0303 60.9069 62.4428 60.4946 62.9513 60.4946C63.4597 60.4946 63.8723 60.9069 63.8723 61.4156V68.7835C63.8723 69.2923 63.4598 69.7045 62.9513 69.7045Z" fill="#FFD919"/>
<path d="M57.525 57.8999C57.4698 57.8999 57.4141 57.8948 57.3583 57.8846C56.8576 57.7932 56.5261 57.3132 56.6178 56.8129C57.0926 54.2169 59.1775 52.1591 61.8055 51.6923C62.308 51.6044 62.7847 51.9375 62.8734 52.4381C62.9627 52.9388 62.6288 53.417 62.1281 53.506C60.2532 53.8388 58.7667 55.301 58.4298 57.1444C58.3483 57.5888 57.9609 57.8999 57.525 57.8999Z" fill="#F2FAFF"/>
<path d="M64.7934 71.5464H61.1095C60.5999 71.5464 60.1885 71.9577 60.1885 72.4674V74.3093C60.1885 75.832 61.4287 77.0723 62.9514 77.0723C64.3759 77.0723 65.5486 75.9917 65.7021 74.6041C65.7082 74.5058 65.7144 74.4076 65.7144 74.3093V72.4674C65.7144 71.9577 65.303 71.5464 64.7934 71.5464Z" fill="#485566"/>
<path d="M66.6355 69.7043C67.1439 69.7043 67.5565 69.2921 67.5565 68.7833C67.5565 67.5124 68.0943 65.731 68.9949 64.9497C71.0071 63.2036 72.1614 60.6845 72.1614 58.0384C72.1614 55.5771 71.2026 53.2632 69.4614 51.5232C67.7219 49.7853 65.4105 48.8286 62.9521 48.8286V69.7043H66.6355Z" fill="#FF9602"/>
<path d="M65.7141 72.4674V74.3093C65.7141 74.4076 65.708 74.5058 65.7018 74.6041C65.5484 75.9917 64.3757 77.0723 62.9512 77.0723V71.5464H64.7931C65.3028 71.5464 65.7141 71.9577 65.7141 72.4674Z" fill="#36404D"/>
<path d="M62.9521 69.7044C63.4604 69.7041 63.8725 69.2921 63.8725 68.7835V61.4156C63.8725 60.907 63.4604 60.495 62.9521 60.4946V69.7044Z" fill="#FFD919"/>
<path d="M64.7926 73.3881H61.1087C59.5827 73.3881 58.3457 72.1511 58.3457 70.6252V68.7832H67.5556V70.6252C67.5556 72.1511 66.3186 73.3881 64.7926 73.3881Z" fill="#576573"/>
<path d="M67.5565 70.6252V68.7832H62.9521V73.3881H64.7935C66.3194 73.3881 67.5565 72.1511 67.5565 70.6252Z" fill="#485566"/>
<path d="M65.7021 59.2849C65.5548 57.8973 64.3759 56.8105 62.9514 56.8105C61.4288 56.8105 60.1885 58.0508 60.1885 59.5735C60.1885 61.0962 61.4287 62.3365 62.9514 62.3365C64.4742 62.3365 65.7144 61.0962 65.7144 59.5735C65.7143 59.4753 65.7082 59.3832 65.7021 59.2849ZM62.9514 60.4945C62.4418 60.4945 62.0304 60.0832 62.0304 59.5735C62.0304 59.0639 62.4417 58.6525 62.9514 58.6525C63.461 58.6525 63.8724 59.0639 63.8724 59.5735C63.8724 60.0832 63.461 60.4945 62.9514 60.4945Z" fill="#FFD919"/>
<path d="M65.7141 59.5735C65.7141 61.0962 64.4739 62.3365 62.9512 62.3365V60.4945C63.4608 60.4945 63.8722 60.0832 63.8722 59.5735C63.8722 59.0639 63.4608 58.6525 62.9512 58.6525V56.8105C64.3757 56.8105 65.5545 57.8973 65.7018 59.2849C65.708 59.3831 65.7141 59.4753 65.7141 59.5735Z" fill="#FFD919"/>
</g>
<defs>
<filter id="filter0_f_2773_1030" x="17.6904" y="17.688" width="90.5244" height="91.3667" filterUnits="userSpaceOnUse" color-interpolation-filters="sRGB">
<feFlood flood-opacity="0" result="BackgroundImageFix"/>
<feBlend mode="normal" in="SourceGraphic" in2="BackgroundImageFix" result="shape"/>
<feGaussianBlur stdDeviation="10" result="effect1_foregroundBlur_2773_1030"/>
</filter>
<filter id="filter1_d_2773_1030" x="0" y="0" width="125.901" height="127" filterUnits="userSpaceOnUse" color-interpolation-filters="sRGB">
<feFlood flood-opacity="0" result="BackgroundImageFix"/>
<feColorMatrix in="SourceAlpha" type="matrix" values="0 0 0 0 0 0 0 0 0 0 0 0 0 0 0 0 0 0 127 0" result="hardAlpha"/>
<feOffset/>
<feGaussianBlur stdDeviation="15"/>
<feComposite in2="hardAlpha" operator="out"/>
<feColorMatrix type="matrix" values="0 0 0 0 0.0705882 0 0 0 0 0.784314 0 0 0 0 1 0 0 0 1 0"/>
<feBlend mode="screen" in2="BackgroundImageFix" result="effect1_dropShadow_2773_1030"/>
<feBlend mode="normal" in="SourceGraphic" in2="effect1_dropShadow_2773_1030" result="shape"/>
</filter>
<radialGradient id="paint0_radial_2773_1030" cx="0" cy="0" r="1" gradientUnits="userSpaceOnUse" gradientTransform="translate(62.9508 63.5) rotate(90) scale(33.5 32.9508)">
<stop offset="0.5" stop-color="#FFCB51" stop-opacity="0.5"/>
<stop offset="0.610577" stop-color="white"/>
<stop offset="1" stop-color="#0F3E4C" stop-opacity="0"/>
</radialGradient>
<clipPath id="clip0_2773_1030">
<rect width="28.2436" height="28.2436" fill="white" transform="translate(48.8301 48.8286)"/>
</clipPath>
</defs>
</svg>
