<svg width="126" height="127" viewBox="0 0 126 127" fill="none" xmlns="http://www.w3.org/2000/svg">
<g filter="url(#filter0_f_2773_1020)">
<rect x="37.6895" y="37.688" width="50.5246" height="51.3667" rx="25.2623" fill="#B2FD00"/>
</g>
<g opacity="0.6" filter="url(#filter1_d_2773_1020)">
<rect x="30" y="30" width="65.9016" height="67" rx="32.9508" fill="url(#paint0_radial_2773_1020)"/>
</g>
<g clip-path="url(#clip0_2773_1020)">
<path d="M55.8374 70.8159C62.0096 76.9882 76.3777 65.9362 73.2005 53.4528C60.717 50.2756 49.6652 64.6437 55.8374 70.8159Z" fill="#9FCB39" fill-opacity="0.913725"/>
<path opacity="0.2" d="M55.837 68.8586C54.8596 67.8812 54.3145 66.6979 54.1383 65.4115C53.8829 67.444 54.3795 69.3586 55.837 70.8161C61.5731 76.5522 74.3875 67.4123 73.6198 56.0723C72.9181 66.4695 61.2388 74.2605 55.837 68.8586Z" fill="black"/>
<path d="M68.8817 61.7406L66.1742 61.1711L68.8253 58.52C69.0164 58.3289 69.0164 58.019 68.8253 57.8279C68.6342 57.6368 68.3243 57.6368 68.1332 57.8279L65.4821 60.4791L64.9126 57.7716C64.8569 57.5071 64.5975 57.3377 64.333 57.3934C64.0684 57.4491 63.8992 57.7086 63.9547 57.973L64.6557 61.3055L62.1778 63.7833L61.6083 61.0758C61.5527 60.8112 61.2933 60.6419 61.0287 60.6976C60.7643 60.7532 60.5949 61.0127 60.6506 61.2772L61.3515 64.6096L58.8737 67.0874L58.3042 64.3799C58.2485 64.1155 57.9891 63.9461 57.7246 64.0018C57.4601 64.0574 57.2908 64.3169 57.3464 64.5814L58.0474 67.9138L52.1433 73.8178C51.9522 74.0089 51.9522 74.3188 52.1433 74.5099C52.2389 74.6054 52.3641 74.6532 52.4894 74.6532C52.6146 74.6532 52.7399 74.6054 52.8354 74.5099L58.7394 68.6058L62.0719 69.3068C62.1059 69.314 62.1397 69.3174 62.1731 69.3174C62.3996 69.3174 62.603 69.1591 62.6515 68.9286C62.7071 68.6642 62.5378 68.4046 62.2733 68.349L59.5657 67.7795L62.0436 65.3017L65.376 66.0026C65.41 66.0097 65.4439 66.0132 65.4772 66.0132C65.7038 66.0132 65.9071 65.855 65.9556 65.6244C66.0113 65.36 65.8419 65.1005 65.5775 65.0448L62.87 64.4753L65.3478 61.9975L68.6802 62.6985C68.7142 62.7056 68.7481 62.709 68.7814 62.709C69.008 62.709 69.2114 62.5508 69.2598 62.3203C69.3155 62.0557 69.1463 61.7962 68.8817 61.7406Z" fill="#4B8737"/>
</g>
<defs>
<filter id="filter0_f_2773_1020" x="17.6895" y="17.688" width="90.5244" height="91.3667" filterUnits="userSpaceOnUse" color-interpolation-filters="sRGB">
<feFlood flood-opacity="0" result="BackgroundImageFix"/>
<feBlend mode="normal" in="SourceGraphic" in2="BackgroundImageFix" result="shape"/>
<feGaussianBlur stdDeviation="10" result="effect1_foregroundBlur_2773_1020"/>
</filter>
<filter id="filter1_d_2773_1020" x="0" y="0" width="125.901" height="127" filterUnits="userSpaceOnUse" color-interpolation-filters="sRGB">
<feFlood flood-opacity="0" result="BackgroundImageFix"/>
<feColorMatrix in="SourceAlpha" type="matrix" values="0 0 0 0 0 0 0 0 0 0 0 0 0 0 0 0 0 0 127 0" result="hardAlpha"/>
<feOffset/>
<feGaussianBlur stdDeviation="15"/>
<feComposite in2="hardAlpha" operator="out"/>
<feColorMatrix type="matrix" values="0 0 0 0 0.0705882 0 0 0 0 0.784314 0 0 0 0 1 0 0 0 1 0"/>
<feBlend mode="screen" in2="BackgroundImageFix" result="effect1_dropShadow_2773_1020"/>
<feBlend mode="normal" in="SourceGraphic" in2="effect1_dropShadow_2773_1020" result="shape"/>
</filter>
<radialGradient id="paint0_radial_2773_1020" cx="0" cy="0" r="1" gradientUnits="userSpaceOnUse" gradientTransform="translate(62.9508 63.5) rotate(90) scale(33.5 32.9508)">
<stop offset="0.5" stop-color="#B2FD00" stop-opacity="0.5"/>
<stop offset="0.610577" stop-color="white"/>
<stop offset="1" stop-color="#0F3E4C" stop-opacity="0"/>
</radialGradient>
<clipPath id="clip0_2773_1020">
<rect width="21.6534" height="21.6534" fill="white" transform="translate(52 53)"/>
</clipPath>
</defs>
</svg>
