<svg width="402" height="874" viewBox="0 0 402 874" fill="none" xmlns="http://www.w3.org/2000/svg">
<rect width="402" height="874" fill="url(#paint0_linear_3573_2242)"/>
<path d="M57.5 71L59.5153 76.8504L65 79L59.5153 81.1496L57.5 87L55.4847 81.1496L50 79L55.4847 76.8504L57.5 71Z" fill="#FFFBF3"/>
<path d="M83 74L84.6122 78.7534L89 80.5L84.6122 82.2466L83 87L81.3878 82.2466L77 80.5L81.3878 78.7534L83 74Z" fill="#FFFBF3"/>
<path d="M362.5 44L364.515 50.216L370 52.5L364.515 54.784L362.5 61L360.485 54.784L355 52.5L360.485 50.216L362.5 44Z" fill="#FFFBF3"/>
<path d="M332.5 59L333.978 63.3878L338 65L333.978 66.6122L332.5 71L331.022 66.6122L327 65L331.022 63.3878L332.5 59Z" fill="#FFFBF3"/>
<path d="M343.5 76L344.978 80.0221L349 81.5L344.978 82.9779L343.5 87L342.022 82.9779L338 81.5L342.022 80.0221L343.5 76Z" fill="#FFFBF3"/>
<path d="M73.5 99L74.4405 101.925L77 103L74.4405 104.075L73.5 107L72.5595 104.075L70 103L72.5595 101.925L73.5 99Z" fill="#FFFBF3"/>
<defs>
<linearGradient id="paint0_linear_3573_2242" x1="201" y1="0" x2="201" y2="874" gradientUnits="userSpaceOnUse">
<stop stop-color="#066893"/>
<stop offset="0.846154" stop-color="#8CAAC3"/>
<stop offset="1" stop-color="#D8CFDE"/>
</linearGradient>
</defs>
</svg>
