<svg width="402" height="874" viewBox="0 0 402 874" fill="none" xmlns="http://www.w3.org/2000/svg">
<g clip-path="url(#clip0_4229_145)">
<rect width="402" height="874" fill="url(#paint0_linear_4229_145)"/>
<path d="M-5.71949 292.66C18.9472 329.327 70.8805 409.26 81.2805 435.66C94.2805 468.66 217.281 640.16 403.281 728.66C552.081 799.46 451.947 869.493 383.281 895.66C244.614 990.327 -44.4195 1106.66 -91.2195 814.66C-149.719 449.66 -99.7195 317.16 -61.2195 300.16C-30.4195 286.56 -11.3862 289.493 -5.71949 292.66Z" fill="#6987A0" fill-opacity="0.16"/>
<path d="M-72.6108 18C-70.879 41.7621 -52.8677 91.6626 5.32233 101.167C78.0599 113.048 136.943 60.0407 208.814 55.471C280.686 50.9014 371.645 94.2716 385.5 240.5C399.355 386.728 697.447 236.668 752 265C806.553 293.332 592.419 453.943 704.123 495.07C793.486 527.972 836.609 600.781 847 633.073C661.115 728.426 253.15 874.899 108.367 697.962C-72.6108 476.792 -152.276 309.543 -115.041 182.507C-85.2533 80.8782 -74.3426 30.4903 -72.6108 18Z" fill="url(#paint1_linear_4229_145)"/>
<g filter="url(#filter0_d_4229_145)">
<path d="M282.892 100.808C282.983 100.481 282.861 100.131 282.587 99.93L270.837 91.3222C270.562 91.1212 270.193 91.111 269.907 91.2963C268.457 92.2402 267.199 93.4319 266.168 94.8386C262.785 99.4572 262.467 105.633 265.359 110.573C265.416 110.671 265.493 110.754 265.582 110.819C265.671 110.885 265.774 110.932 265.884 110.957C271.466 112.225 277.258 110.06 280.642 105.441C281.673 104.034 282.43 102.475 282.892 100.808Z" fill="#FF9737"/>
<path d="M281.373 98.3502C281.347 98.1236 281.228 97.9184 281.044 97.7837L273.352 92.1487C273.168 92.014 272.936 91.9621 272.713 92.0057C272.489 92.0492 272.294 92.1842 272.174 92.378C270.497 95.0851 270.498 98.5883 272.176 101.302C272.232 101.393 272.304 101.47 272.389 101.532C272.473 101.594 272.569 101.639 272.671 101.665C275.765 102.447 279.105 101.391 281.181 98.9766C281.329 98.8033 281.399 98.5763 281.373 98.3502Z" fill="#FFD960"/>
<path opacity="0.1" d="M267.773 97.2613C268.884 95.7436 270.242 94.4576 271.807 93.4393C272.115 93.2394 272.514 93.2505 272.81 93.4672L282.881 100.845C282.884 100.833 282.888 100.821 282.892 100.808C282.983 100.481 282.861 100.131 282.587 99.93L270.837 91.3222C270.562 91.1212 270.193 91.111 269.907 91.2963C268.457 92.2402 267.199 93.4319 266.168 94.8386C262.796 99.4428 262.47 105.595 265.333 110.526C264.095 106.034 264.932 101.139 267.773 97.2613Z" fill="#231F20"/>
<path d="M295.173 111.498L299.659 105.375C301.649 102.659 301.611 99.9474 301.54 99.0981L299.669 82.4956L286.426 100.574L292.798 112.051C293.055 112.453 293.844 113.312 295.173 111.498Z" fill="#0B6B95"/>
<path d="M256.019 82.8123L260.505 76.6884C262.495 73.9727 265.091 73.1906 265.922 73.0025L282.316 69.7804L269.073 87.8584L256.209 85.2433C255.748 85.1196 254.69 84.6261 256.019 82.8123Z" fill="#0B6B95"/>
<path d="M301.17 62.2429C300.623 61.8426 300.442 61.1602 300.766 60.7189L306.845 52.4197C307.169 51.9784 307.874 51.9452 308.42 52.3454C308.967 52.7457 309.147 53.4281 308.824 53.8694L302.745 62.1686C302.421 62.6099 301.716 62.6432 301.17 62.2429Z" fill="#90C8EC"/>
<path d="M306.748 56.5096L304.96 55.1995C299.33 54.2408 294.273 52.9074 291.018 57.3515L268.811 87.6652C267.919 88.8827 268.183 90.5927 269.401 91.4849L282.874 101.354C284.091 102.246 285.802 101.983 286.693 100.765L304.231 76.8254L306.599 73.5931L308.9 70.4512C312.156 66.0071 309.728 62.8661 306.748 56.5096Z" fill="#CAE9F7"/>
<path d="M271.14 84.4795L268.807 87.664C267.915 88.8815 268.179 90.5915 269.397 91.4837L282.869 101.353C284.087 102.245 285.797 101.981 286.689 100.764L289.022 97.5794L271.14 84.4795Z" fill="#90C8EC"/>
<path d="M283.852 85.8852C286.017 87.4709 289.057 87.0016 290.643 84.837C292.229 82.6724 291.759 79.6322 289.595 78.0465C287.43 76.4608 284.39 76.9301 282.804 79.0947C281.218 81.2593 281.688 84.2995 283.852 85.8852Z" fill="#A599A3"/>
<path opacity="0.1" d="M257.477 85.4226L261.963 79.2986C263.952 76.5829 266.549 75.8009 267.38 75.6127L279.827 73.1664L282.309 69.7775L265.916 72.9995C265.084 73.1876 262.488 73.9696 260.498 76.6855L256.012 82.8094C254.684 84.6231 255.741 85.1166 256.202 85.2403L257.429 85.4897C257.445 85.4674 257.46 85.4455 257.477 85.4226Z" fill="#231F20"/>
<path opacity="0.1" d="M271.001 89.2755L293.208 58.9618C296.413 54.5866 302.512 53.5881 306.941 56.6648C306.873 56.613 306.808 56.5597 306.739 56.5091L304.951 55.1991C300.506 51.9433 294.265 52.9069 291.009 57.351L268.802 87.6647C267.911 88.8822 268.174 90.5922 269.392 91.4844L271.591 93.0953C270.373 92.203 270.11 90.4931 271.001 89.2755Z" fill="#231F20"/>
<path opacity="0.1" d="M284.996 80.7057C286.302 78.9229 288.594 78.2913 290.571 79.0093C290.297 78.6519 289.969 78.3261 289.587 78.0465C287.423 76.4607 284.383 76.93 282.797 79.0948C281.211 81.2594 281.68 84.2995 283.845 85.8853C284.227 86.1651 284.636 86.3796 285.06 86.5333C283.779 84.8642 283.69 82.4884 284.996 80.7057Z" fill="#231F20"/>
</g>
<path d="M-195 780.494C-192 796.994 -175.1 832.494 -131.5 842.494C-77 854.994 -63 821 -6.5 776.994C25.2612 752.256 78 745.494 134.5 754.494" stroke="#DED7E9" stroke-width="2"/>
<ellipse cx="186" cy="722.5" rx="34" ry="31.5" fill="#DED7E9"/>
<path d="M122.097 795.97C120.878 795.16 119.254 785.038 116.004 785.848C115.075 786.08 114.08 786.543 113.161 787.18C115.17 793.889 119.073 808.359 118.612 812.569C123.315 811.443 129.028 808.369 131.846 806.496C135.501 804.067 139.157 803.257 140.782 804.067C141.12 804.236 141.599 804.211 142.167 804.067C141.65 800.828 136.75 793.271 134.364 789.897C131.309 793.013 123.086 796.627 122.097 795.97Z" fill="#08ACDB"/>
<path d="M87.977 772.083C87.7062 768.709 86.0273 762.123 81.4779 762.771C82.6963 770.049 84.8893 785.619 83.9145 789.68C87.5717 788.552 93.8862 783.419 95.6942 783.419C96.3986 783.419 100.23 782.883 105.037 782.251C105.687 778.401 102.383 770.359 100.65 766.82L87.977 772.083Z" fill="#08ACDB"/>
<path d="M147.687 776.131C144.573 778.156 138.345 782.609 138.345 784.229C138.345 786.253 137.532 787.872 139.157 787.872C140.782 787.872 145.656 789.087 147.687 785.443C149.718 781.799 150.937 777.751 150.124 776.941C149.475 776.293 148.229 776.131 147.687 776.131Z" fill="#08ACDB"/>
<path d="M114.785 761.152C112.763 762.663 108.315 764.273 105.037 765.295C106.797 766.208 110.886 767.71 113.161 766.415C116.004 764.795 116.529 761.151 116.673 760.342C115.914 760.531 115.266 760.793 114.785 761.152Z" fill="#08ACDB"/>
<path d="M194.939 763.58C192.593 763.176 187.819 762.933 187.494 765.2C187.088 768.034 185.87 775.726 189.525 776.941C192.45 777.913 193.96 777.346 194.349 776.941C194.648 774.074 194.904 770.829 194.97 767.629C194.998 766.26 194.992 764.9 194.939 763.58Z" fill="#08ACDB"/>
<path d="M180.936 785.848C180.98 787.273 180.911 788.774 180.589 789.897C180.406 790.537 180.077 791.054 179.659 791.516C180.215 792.164 189.548 791.786 194.145 791.516L194.088 791.237C193.619 788.95 193.181 786.817 193.181 786.253L180.936 785.848Z" fill="#08ACDB"/>
<path d="M204.299 752.649C204.743 755.078 203.494 760.665 194.939 763.58C194.992 764.9 194.998 766.26 194.97 767.629C209.399 765.038 209.538 755.642 207.804 751.267C206.667 751.762 205.488 752.231 204.299 752.649Z" fill="#08ACDB"/>
<path d="M118.441 741.313C119.254 742.528 122.503 741.313 123.315 741.718C123.965 740.747 126.836 733.486 128.19 729.977C128.19 729.437 128.027 728.357 127.377 728.357H124.534C122.196 731.192 117.542 737.103 117.629 738.074C117.629 738.749 117.791 740.341 118.441 741.313Z" fill="#08ACDB"/>
<path d="M139.97 744.147L144.031 743.533V746.981L140.782 747.791L139.97 744.147Z" fill="#08ACDB"/>
<path d="M145.656 746.576V750.41L149.718 749.815L149.312 746.171L145.656 746.576Z" fill="#08ACDB"/>
<path d="M150.937 748.196L154.186 747.791V752.054L150.124 752.649L150.937 748.196Z" fill="#08ACDB"/>
<path fill-rule="evenodd" clip-rule="evenodd" d="M128.19 780.585C130.627 782.204 135.501 784.634 135.501 787.872C135.501 788.481 135.071 789.176 134.364 789.897C136.75 793.271 141.65 800.828 142.167 804.067C144.329 803.518 147.788 801.233 149.718 801.233C152.155 801.233 171.247 795.97 174.496 791.921C177.096 788.682 179.641 784.094 180.589 782.204C180.726 783.022 180.89 784.396 180.936 785.848L193.181 786.253C193.181 785.768 193.829 781.924 194.349 776.941C193.96 777.346 192.45 777.913 189.525 776.941C185.87 775.726 187.088 768.034 187.494 765.2C187.819 762.933 192.593 763.176 194.939 763.58C194.792 759.924 194.288 756.585 193.181 754.269C192.927 753.736 192.639 753.195 192.32 752.649C191.468 751.189 190.396 749.69 189.155 748.196C183.453 741.329 174.19 734.588 166.372 732.406C162.712 731.384 159.79 730.836 157.436 730.648C156.206 730.549 155.131 730.549 154.186 730.631C152.435 730.782 151.133 731.216 150.124 731.827C154.999 733.1 164.991 736.293 165.966 738.884C167.185 742.123 165.56 749.005 165.154 749.41C164.747 749.815 152.562 764.39 150.937 764.39C149.312 764.39 136.314 760.747 132.658 757.103C132.606 757.138 132.547 757.165 132.484 757.179C131.487 757.629 129.715 758.616 129.408 759.532C129.062 760.567 121.046 759.25 116.673 760.342C116.529 761.151 116.004 764.795 113.161 766.415C110.886 767.71 106.797 766.208 105.037 765.295C104.101 765.586 103.261 765.83 102.599 766.01L100.65 766.82C102.383 770.359 105.687 778.401 105.037 782.251C114.088 781.06 126.598 779.527 128.19 780.585ZM138.345 784.229C138.345 782.609 144.573 778.156 147.687 776.131C148.229 776.131 149.475 776.293 150.124 776.941C150.937 777.751 149.718 781.799 147.687 785.443C145.656 789.087 140.782 787.872 139.157 787.872C137.532 787.872 138.345 786.253 138.345 784.229Z" fill="#DED7E9"/>
<path d="M174.496 797.184C172.871 801.233 174.09 801.233 175.309 801.233C176.283 801.233 177.881 800.153 178.558 799.614C177.069 802.178 174.496 807.468 176.121 808.116C178.152 808.926 180.589 807.306 180.995 804.877C181.32 802.934 181.672 801.638 181.808 801.233C181.672 805.012 181.808 812.488 183.432 812.164C185.102 811.832 186.222 807.943 186.343 805.22C186.295 804.646 186.276 804.106 186.276 803.662C186.348 804.095 186.369 804.63 186.343 805.22C186.512 807.266 187.038 809.735 188.307 809.735C190.338 809.735 192.369 806.091 191.556 802.853C192.64 804.067 195.05 806.01 196.025 804.067C197.243 801.638 195.212 799.209 195.212 797.589C195.212 796.752 194.669 794.075 194.145 791.516C189.548 791.786 180.215 792.164 179.659 791.516C178.228 793.1 175.754 794.051 174.496 797.184Z" fill="#DED7E9"/>
<path d="M134.936 748.196C139.641 742.069 147.618 733.813 149.312 732.406C146.875 732.406 142 733.62 139.97 734.025C138.345 734.349 131.439 731.461 128.19 729.977C126.836 733.486 123.965 740.747 123.315 741.718C123.965 742.042 131.333 746.171 134.936 748.196Z" fill="#DED7E9"/>
<path d="M105.037 735.645C105.362 736.941 113.567 737.804 117.629 738.074C117.542 737.103 122.196 731.192 124.534 728.357L123.315 725.118C122.909 724.174 122.016 721.88 121.691 720.26C121.285 718.235 120.472 717.021 118.847 716.616C117.547 716.292 117.764 719.99 118.035 721.879C117.493 721.205 116.248 719.612 115.598 718.641C114.785 717.426 111.13 714.592 109.505 716.211C108.205 717.507 111.4 721.34 113.161 723.094C112.754 723.094 111.78 722.932 111.13 722.285C110.317 721.475 104.224 718.641 103.006 720.665C102.031 722.285 107.203 726.468 109.911 728.357C107.474 727.683 102.518 726.738 102.193 728.357C101.868 729.977 106.932 732.271 109.505 733.216H105.443C105.172 733.486 104.712 734.349 105.037 735.645Z" fill="#DED7E9"/>
<path fill-rule="evenodd" clip-rule="evenodd" d="M157.436 730.648C156.206 730.549 155.131 730.549 154.186 730.631C153.509 725.824 152.562 715.32 154.186 711.758C156.217 707.304 174.496 683.012 201.305 695.563C208.752 698.937 222.102 712.324 215.928 738.884C213.458 741.988 205.279 749.086 192.32 752.649C191.468 751.189 190.396 749.69 189.155 748.196C199.258 746.425 205.797 740.17 207.804 737.264C209.971 733.216 213.166 722.608 208.617 712.567C203.375 701 194.755 699.51 185.5 698.5C184.602 698.402 180.894 698.395 180 698.5C171.5 699.5 163.274 705.971 159.873 710.948C156 716.616 156.624 724.039 157.03 728.357L157.436 730.648Z" fill="#DED7E9"/>
<path fill-rule="evenodd" clip-rule="evenodd" d="M159.873 710.948C156 716.616 156.624 724.039 157.03 728.357L157.436 730.648C159.79 730.836 162.712 731.384 166.372 732.406C174.19 734.588 183.453 741.329 189.155 748.196C199.258 746.425 205.797 740.17 207.804 737.264C209.971 733.216 213.166 722.608 208.617 712.567C203.375 701 194.755 699.51 185.5 698.5C184.602 698.402 180.894 698.395 180 698.5C171.5 699.5 163.274 705.971 159.873 710.948ZM184.651 702.041C182.376 701.393 173.955 705.01 170.028 706.899L183.839 705.28C185.057 704.47 186.926 702.689 184.651 702.041Z" fill="black"/>
<path d="M170.028 706.899C173.955 705.01 182.376 701.393 184.651 702.041C186.926 702.689 185.057 704.47 183.839 705.28L170.028 706.899Z" fill="white"/>
<path d="M137.939 751.03H142.407L141.594 754.269H137.939V751.03Z" fill="#DB0887"/>
<path d="M148.5 753.864V756.698H143.625L144.438 753.496L148.5 753.864Z" fill="#DB0887"/>
<path d="M192.32 752.649C192.639 753.195 192.927 753.736 193.181 754.269C196.186 754.899 200.3 754.057 204.299 752.649C205.488 752.231 206.667 751.762 207.804 751.267C212.663 749.154 216.749 746.564 217.553 745.362C218.853 743.418 217.011 740.233 215.928 738.884C213.458 741.988 205.279 749.086 192.32 752.649Z" fill="#DED7E9"/>
<path d="M144.031 740.908C147.416 742.797 154.43 746.495 155.405 746.171C156.624 745.766 161.092 740.908 159.873 738.884C158.655 736.859 150.531 733.62 149.718 734.025C148.906 734.43 144.031 739.289 144.031 740.908Z" fill="black"/>
<path fill-rule="evenodd" clip-rule="evenodd" d="M149.312 732.406C147.618 733.813 139.641 742.069 134.936 748.196C132.873 750.882 131.439 753.158 131.439 754.269C131.439 756.81 132.057 757.279 132.484 757.179C132.545 757.152 132.603 757.126 132.658 757.103C136.314 760.747 149.312 764.39 150.937 764.39C152.562 764.39 164.747 749.815 165.154 749.41C165.56 749.005 167.185 742.123 165.966 738.884C164.991 736.293 154.999 733.1 150.124 731.827C149.83 732.006 149.56 732.2 149.312 732.406ZM155.405 746.171C154.43 746.495 147.416 742.797 144.031 740.908C144.031 739.289 148.906 734.43 149.718 734.025C150.531 733.62 158.655 736.859 159.873 738.884C161.092 740.908 156.624 745.766 155.405 746.171ZM144.031 743.533L139.97 744.147L140.782 747.791L144.031 746.981V743.533ZM145.656 750.41V746.576L149.312 746.171L149.718 749.815L145.656 750.41ZM154.186 747.791L150.937 748.196L150.124 752.649L154.186 752.054V747.791ZM142.407 751.03H137.939V754.269H141.594L142.407 751.03ZM148.5 756.698V753.864L144.438 753.496L143.625 756.698H148.5Z" fill="#BFBFBF"/>
<path d="M81.4779 762.771C75.7911 763.581 74.9787 775.727 77.0097 782.204C79.0407 788.682 79.4463 789.897 82.6959 789.897C83.0527 789.897 83.4634 789.819 83.9145 789.68C84.8893 785.619 82.6963 770.049 81.4779 762.771Z" fill="#CBCBCB"/>
<path d="M109.911 794.35C111.13 798.399 109.911 812.569 114.785 812.974C115.903 813.067 117.213 812.904 118.612 812.569C119.073 808.359 115.17 793.889 113.161 787.18C110.864 788.774 109.041 791.459 109.911 794.35Z" fill="#CBCBCB"/>
<ellipse cx="191" cy="703.5" rx="2" ry="1.5" fill="white"/>
<path d="M29.5 518L31.5153 523.85L37 526L31.5153 528.15L29.5 534L27.4847 528.15L22 526L27.4847 523.85L29.5 518Z" fill="#FFFBF3"/>
<path d="M45.5 546L46.4405 548.925L49 550L46.4405 551.075L45.5 554L44.5595 551.075L42 550L44.5595 548.925L45.5 546Z" fill="#FFFBF3"/>
<path d="M340.5 28L342.515 33.8504L348 36L342.515 38.1496L340.5 44L338.485 38.1496L333 36L338.485 33.8504L340.5 28Z" fill="#FFFBF3"/>
<path d="M366 31L367.612 35.7534L372 37.5L367.612 39.2466L366 44L364.388 39.2466L360 37.5L364.388 35.7534L366 31Z" fill="#FFFBF3"/>
<path d="M356.5 56L357.44 58.9252L360 60L357.44 61.0748L356.5 64L355.56 61.0748L353 60L355.56 58.9252L356.5 56Z" fill="#FFFBF3"/>
<path d="M103.5 -10L105.515 -4.1496L111 -2L105.515 0.149605L103.5 6L101.485 0.149605L96 -2L101.485 -4.1496L103.5 -10Z" fill="#FFFBF3"/>
<path d="M129 -7L130.612 -2.24655L135 -0.5L130.612 1.24655L129 6L127.388 1.24655L123 -0.5L127.388 -2.24655L129 -7Z" fill="#FFFBF3"/>
<path d="M119.5 18L120.44 20.9252L123 22L120.44 23.0748L119.5 26L118.56 23.0748L116 22L118.56 20.9252L119.5 18Z" fill="#FFFBF3"/>
<path d="M367.5 789L369.515 794.85L375 797L369.515 799.15L367.5 805L365.485 799.15L360 797L365.485 794.85L367.5 789Z" fill="#FFFBF3"/>
<path d="M362 588L363.612 592.753L368 594.5L363.612 596.247L362 601L360.388 596.247L356 594.5L360.388 592.753L362 588Z" fill="#FFFBF3"/>
<path d="M352.5 613L353.44 615.925L356 617L353.44 618.075L352.5 621L351.56 618.075L349 617L351.56 615.925L352.5 613Z" fill="#FFFBF3"/>
<path d="M378.5 357L379.44 359.925L382 361L379.44 362.075L378.5 365L377.56 362.075L375 361L377.56 359.925L378.5 357Z" fill="#FFFBF3"/>
<path d="M224.5 609L225.44 611.925L228 613L225.44 614.075L224.5 617L223.56 614.075L221 613L223.56 611.925L224.5 609Z" fill="#FFFBF3"/>
<path d="M375.5 708L376.44 710.925L379 712L376.44 713.075L375.5 716L374.56 713.075L372 712L374.56 710.925L375.5 708Z" fill="#FFFBF3"/>
<path d="M-1.5 232L0.515254 237.85L6 240L0.515254 242.15L-1.5 248L-3.51525 242.15L-9 240L-3.51525 237.85L-1.5 232Z" fill="#FFFBF3"/>
<path d="M24 235L25.6122 239.753L30 241.5L25.6122 243.247L24 248L22.3878 243.247L18 241.5L22.3878 239.753L24 235Z" fill="#FFFBF3"/>
<path d="M14.5 260L15.4405 262.925L18 264L15.4405 265.075L14.5 268L13.5595 265.075L11 264L13.5595 262.925L14.5 260Z" fill="#FFFBF3"/>
<path d="M207.5 150L209.515 155.85L215 158L209.515 160.15L207.5 166L205.485 160.15L200 158L205.485 155.85L207.5 150Z" fill="#FFFBF3"/>
<path d="M233 153L234.612 157.753L239 159.5L234.612 161.247L233 166L231.388 161.247L227 159.5L231.388 157.753L233 153Z" fill="#FFFBF3"/>
<path d="M223.5 178L224.44 180.925L227 182L224.44 183.075L223.5 186L222.56 183.075L220 182L222.56 180.925L223.5 178Z" fill="#FFFBF3"/>
<path d="M226.5 802L228.515 807.85L234 810L228.515 812.15L226.5 818L224.485 812.15L219 810L224.485 807.85L226.5 802Z" fill="#FFFBF3"/>
<path d="M252 805L253.612 809.753L258 811.5L253.612 813.247L252 818L250.388 813.247L246 811.5L250.388 809.753L252 805Z" fill="#FFFBF3"/>
<path d="M242.5 830L243.44 832.925L246 834L243.44 835.075L242.5 838L241.56 835.075L239 834L241.56 832.925L242.5 830Z" fill="#FFFBF3"/>
</g>
<defs>
<filter id="filter0_d_4229_145" x="251.366" y="52.0659" width="63.0859" height="68.5435" filterUnits="userSpaceOnUse" color-interpolation-filters="sRGB">
<feFlood flood-opacity="0" result="BackgroundImageFix"/>
<feColorMatrix in="SourceAlpha" type="matrix" values="0 0 0 0 0 0 0 0 0 0 0 0 0 0 0 0 0 0 127 0" result="hardAlpha"/>
<feOffset dy="4"/>
<feGaussianBlur stdDeviation="2"/>
<feComposite in2="hardAlpha" operator="out"/>
<feColorMatrix type="matrix" values="0 0 0 0 0 0 0 0 0 0 0 0 0 0 0 0 0 0 0.25 0"/>
<feBlend mode="normal" in2="BackgroundImageFix" result="effect1_dropShadow_4229_145"/>
<feBlend mode="normal" in="SourceGraphic" in2="effect1_dropShadow_4229_145" result="shape"/>
</filter>
<linearGradient id="paint0_linear_4229_145" x1="201" y1="0" x2="201" y2="874" gradientUnits="userSpaceOnUse">
<stop stop-color="#066893"/>
<stop offset="1" stop-color="#D8CFDE"/>
</linearGradient>
<linearGradient id="paint1_linear_4229_145" x1="361.5" y1="18" x2="361.5" y2="781" gradientUnits="userSpaceOnUse">
<stop stop-color="#E7CE99"/>
<stop offset="1" stop-color="#CB7E6F"/>
</linearGradient>
<clipPath id="clip0_4229_145">
<rect width="402" height="874" fill="white"/>
</clipPath>
</defs>
</svg>
