<svg width="32" height="32" viewBox="0 0 32 32" fill="none" xmlns="http://www.w3.org/2000/svg">
<g filter="url(#filter0_d_2644_908)">
<path d="M16 4.5C17.3807 4.5 18.5 5.61929 18.5 7V13.5H25C26.3807 13.5 27.5 14.6193 27.5 16C27.5 17.3807 26.3807 18.5 25 18.5H18.5V25C18.5 26.3807 17.3807 27.5 16 27.5C14.6193 27.5 13.5 26.3807 13.5 25V18.5H7C5.61929 18.5 4.5 17.3807 4.5 16C4.5 14.6193 5.61929 13.5 7 13.5H13.5V7C13.5 5.61929 14.6193 4.5 16 4.5Z" fill="#9DA480"/>
<path d="M16 4.5C17.3807 4.5 18.5 5.61929 18.5 7V13.5H25C26.3807 13.5 27.5 14.6193 27.5 16C27.5 17.3807 26.3807 18.5 25 18.5H18.5V25C18.5 26.3807 17.3807 27.5 16 27.5C14.6193 27.5 13.5 26.3807 13.5 25V18.5H7C5.61929 18.5 4.5 17.3807 4.5 16C4.5 14.6193 5.61929 13.5 7 13.5H13.5V7C13.5 5.61929 14.6193 4.5 16 4.5Z" fill="black" fill-opacity="0.2"/>
</g>
<defs>
<filter id="filter0_d_2644_908" x="0.5" y="0.5" width="31" height="31" filterUnits="userSpaceOnUse" color-interpolation-filters="sRGB">
<feFlood flood-opacity="0" result="BackgroundImageFix"/>
<feColorMatrix in="SourceAlpha" type="matrix" values="0 0 0 0 0 0 0 0 0 0 0 0 0 0 0 0 0 0 127 0" result="hardAlpha"/>
<feOffset/>
<feGaussianBlur stdDeviation="2"/>
<feComposite in2="hardAlpha" operator="out"/>
<feColorMatrix type="matrix" values="0 0 0 0 0.631373 0 0 0 0 0.878431 0 0 0 0 0.0431373 0 0 0 1 0"/>
<feBlend mode="plus-lighter" in2="BackgroundImageFix" result="effect1_dropShadow_2644_908"/>
<feBlend mode="normal" in="SourceGraphic" in2="effect1_dropShadow_2644_908" result="shape"/>
</filter>
</defs>
</svg>
