<svg width="126" height="127" viewBox="0 0 126 127" fill="none" xmlns="http://www.w3.org/2000/svg">
<g filter="url(#filter0_f_2773_1070)">
<rect x="37.6895" y="37.688" width="50.5246" height="51.3667" rx="25.2623" fill="#FD03DF"/>
</g>
<g opacity="0.6" filter="url(#filter1_d_2773_1070)">
<rect x="30" y="30" width="65.9016" height="67" rx="32.9508" fill="url(#paint0_radial_2773_1070)"/>
</g>
<path d="M69.2146 68.3259C67.9482 67.3197 66.2941 67.1021 65.648 66.7486C64.976 66.395 64.0715 65.7423 64.0715 65.1712C64.0715 64.872 64.2007 64.6817 64.2782 64.6273C65.5963 63.8658 66.0357 61.391 66.139 61.391C66.5784 61.391 66.8885 60.2216 66.8885 59.4601C66.8885 58.8346 66.7076 58.8618 66.3975 58.6714V58.5898C66.3975 56.5774 64.821 55 62.9085 55C60.9701 55 59.3161 56.6317 59.3161 58.6442V58.7258C59.0059 58.9162 58.8767 59.025 58.8767 59.6233C58.8767 60.4119 59.1351 61.4998 59.5745 61.4998C59.652 61.4998 60.2206 63.893 61.487 64.7089C61.5645 64.7633 61.6938 64.8992 61.6938 65.1712C61.6938 65.8239 60.8409 66.395 60.1172 66.7757C59.2385 67.2381 55 67.6188 55 71.8613H68.6977" stroke="#6B6C6E"/>
<path fill-rule="evenodd" clip-rule="evenodd" d="M69.2146 68.3259C67.9482 67.3197 66.2941 67.1021 65.648 66.7486C64.976 66.395 64.0715 65.7423 64.0715 65.1712C64.0715 64.872 64.2007 64.6817 64.2782 64.6273C65.5963 63.8658 66.0357 61.391 66.139 61.391C66.5784 61.391 66.8885 60.2216 66.8885 59.4601C66.8885 58.8346 66.7076 58.8618 66.3975 58.6714V58.5898C66.3975 56.5774 64.821 55 62.9085 55C60.9701 55 59.3161 56.6317 59.3161 58.6442V58.7258C59.0059 58.9162 58.8767 59.025 58.8767 59.6233C58.8767 60.4119 59.1351 61.4998 59.5745 61.4998C59.652 61.4998 60.2206 63.893 61.487 64.7089C61.5645 64.7633 61.6938 64.8992 61.6938 65.1712C61.6938 65.8239 60.8409 66.395 60.1172 66.7757C59.2385 67.2381 55 67.6188 55 71.8613H68.6977" fill="#7E0F3D"/>
<path d="M69.2146 68.3259C67.9482 67.3197 66.2941 67.1021 65.648 66.7486C64.976 66.395 64.0715 65.7423 64.0715 65.1712C64.0715 64.872 64.2007 64.6817 64.2782 64.6273C65.5963 63.8658 66.0357 61.391 66.139 61.391C66.5784 61.391 66.8885 60.2216 66.8885 59.4601C66.8885 58.8346 66.7076 58.8618 66.3975 58.6714V58.5898C66.3975 56.5774 64.821 55 62.9085 55C60.9701 55 59.3161 56.6317 59.3161 58.6442V58.7258C59.0059 58.9162 58.8767 59.025 58.8767 59.6233C58.8767 60.4119 59.1351 61.4998 59.5745 61.4998C59.652 61.4998 60.2206 63.893 61.487 64.7089C61.5645 64.7633 61.6938 64.8992 61.6938 65.1712C61.6938 65.8239 60.8409 66.395 60.1172 66.7757C59.2385 67.2381 55 67.6188 55 71.8613H68.6977" stroke="#7E0F3D" stroke-opacity="0.870588"/>
<path d="M68.7225 68.5987C68.3607 67.7556 66.3965 67.7013 66.3965 69.197C66.3965 70.3664 68.309 71.8622 68.7225 71.8622C69.136 71.8622 71.0485 70.3664 71.0485 69.197C71.0485 67.5381 68.4899 67.6469 68.4899 69.4146" stroke="#6B6C6E"/>
<path fill-rule="evenodd" clip-rule="evenodd" d="M68.7225 68.5987C68.3607 67.7556 66.3965 67.7013 66.3965 69.197C66.3965 70.3664 68.309 71.8622 68.7225 71.8622C69.136 71.8622 71.0485 70.3664 71.0485 69.197C71.0485 67.5381 68.4899 67.6469 68.4899 69.4146" fill="white"/>
<path d="M68.7225 68.5987C68.3607 67.7556 66.3965 67.7013 66.3965 69.197C66.3965 70.3664 68.309 71.8622 68.7225 71.8622C69.136 71.8622 71.0485 70.3664 71.0485 69.197C71.0485 67.5381 68.4899 67.6469 68.4899 69.4146" stroke="white"/>
<defs>
<filter id="filter0_f_2773_1070" x="17.6895" y="17.688" width="90.5244" height="91.3667" filterUnits="userSpaceOnUse" color-interpolation-filters="sRGB">
<feFlood flood-opacity="0" result="BackgroundImageFix"/>
<feBlend mode="normal" in="SourceGraphic" in2="BackgroundImageFix" result="shape"/>
<feGaussianBlur stdDeviation="10" result="effect1_foregroundBlur_2773_1070"/>
</filter>
<filter id="filter1_d_2773_1070" x="0" y="0" width="125.901" height="127" filterUnits="userSpaceOnUse" color-interpolation-filters="sRGB">
<feFlood flood-opacity="0" result="BackgroundImageFix"/>
<feColorMatrix in="SourceAlpha" type="matrix" values="0 0 0 0 0 0 0 0 0 0 0 0 0 0 0 0 0 0 127 0" result="hardAlpha"/>
<feOffset/>
<feGaussianBlur stdDeviation="15"/>
<feComposite in2="hardAlpha" operator="out"/>
<feColorMatrix type="matrix" values="0 0 0 0 0.0705882 0 0 0 0 0.784314 0 0 0 0 1 0 0 0 1 0"/>
<feBlend mode="screen" in2="BackgroundImageFix" result="effect1_dropShadow_2773_1070"/>
<feBlend mode="normal" in="SourceGraphic" in2="effect1_dropShadow_2773_1070" result="shape"/>
</filter>
<radialGradient id="paint0_radial_2773_1070" cx="0" cy="0" r="1" gradientUnits="userSpaceOnUse" gradientTransform="translate(62.9508 63.5) rotate(90) scale(33.5 32.9508)">
<stop offset="0.5" stop-color="#FF00E0" stop-opacity="0.5"/>
<stop offset="0.610577" stop-color="white"/>
<stop offset="1" stop-color="#0F3E4C" stop-opacity="0"/>
</radialGradient>
</defs>
</svg>
