<svg width="333" height="320" viewBox="0 0 333 320" fill="none" xmlns="http://www.w3.org/2000/svg">
<circle cx="165" cy="160.5" r="154.5" fill="#99DD66"/>
<path d="M153.01 53C153.01 67.0833 141.593 78.5 127.51 78.5C113.427 78.5 102.01 67.0833 102.01 53C102.01 38.9167 113.427 27.5 127.51 27.5C141.593 27.5 153.01 38.9167 153.01 53Z" fill="#FFF5C9"/>
<path d="M142.145 133.798H75.0254L109.409 59.8818L142.145 133.798Z" fill="#3C3D78"/>
<path d="M132.799 133.798H75.0254L109.409 59.8818L132.799 133.798Z" fill="#575884"/>
<path d="M115.195 78.2334L109.384 59.8818L100.854 78.2334L107.659 75.9395L109.333 78.2334H115.195Z" fill="white"/>
<path d="M122.094 133.755H75.0254L99.1373 82.0142L122.094 133.755Z" fill="#575884"/>
<path d="M115.467 133.755H75.0254L99.0948 82.0142L115.467 133.755Z" fill="#575884"/>
<path fill-rule="evenodd" clip-rule="evenodd" d="M87.1505 141.036C87.2923 141.456 89.8063 150.126 81.6696 152.263C74.896 154.041 73.9337 147.763 74.2993 144.401C71.3428 143.442 66.3135 140.375 69.8488 135.772L71.6667 134.376C69.2131 132.163 66.086 127.147 73.2061 124.787C72.6014 122.088 72.5581 116.14 77.2225 113.935C77.7916 111.745 80.0243 107.015 84.402 105.62C87.5295 103.268 95.0498 99.5786 100.111 103.638C102.716 103.26 108.158 104.096 109.082 110.467C111.713 110.184 117.172 110.608 117.961 114.564C119.599 115.257 122.898 117.677 122.987 121.817C125.532 123.19 129.754 127.143 126.278 131.975C125.879 134.019 123.762 137.84 118.488 136.776C116.62 137.981 112.291 139.323 109.92 135.046C109.535 134.802 109.037 134.434 108.538 133.982C107.418 132.969 106.295 131.537 106.447 130.141C105.753 130.458 104.529 130.878 102.976 131.188C102.531 131.278 102.058 131.358 101.563 131.423C99.8576 131.65 97.8882 131.709 95.8517 131.393C95.6331 131.48 95.3794 131.581 95.1035 131.693C94.6433 131.879 94.1211 132.093 93.5965 132.313C92.2673 132.868 90.9226 133.455 90.5299 133.709C90.5356 134.492 90.442 135.613 90.1685 136.751C90.1089 136.999 90.0408 137.247 89.9634 137.493C89.6968 138.34 89.3997 138.971 88.8775 139.623C88.4372 140.173 87.8136 140.792 87.1471 141.027L87.1458 141.027C87.1466 141.03 87.1482 141.033 87.1505 141.036Z" fill="#59B836"/>
<path fill-rule="evenodd" clip-rule="evenodd" d="M124.15 138.036C124.292 138.456 126.806 147.126 118.67 149.263C111.896 151.041 110.934 144.763 111.299 141.401C108.343 140.442 103.314 137.375 106.849 132.772L108.667 131.376C106.213 129.163 103.086 124.147 110.206 121.787C109.601 119.088 109.558 113.14 114.222 110.935C114.792 108.745 117.024 104.015 121.402 102.62C124.529 100.268 132.05 96.5786 137.111 100.638C139.716 100.26 145.158 101.096 146.082 107.467C148.713 107.184 154.172 107.608 154.961 111.564C156.599 112.257 159.898 114.677 159.987 118.817C162.532 120.19 166.754 124.143 163.278 128.975C162.879 131.019 160.762 134.84 155.488 133.776C153.62 134.981 149.291 136.323 146.92 132.046C146.535 131.802 146.037 131.434 145.538 130.982C144.418 129.969 143.295 128.537 143.447 127.141C142.753 127.458 141.529 127.878 139.976 128.188C139.531 128.278 139.058 128.358 138.563 128.423C136.858 128.65 134.888 128.709 132.852 128.393C132.633 128.48 132.379 128.581 132.104 128.693C131.643 128.879 131.121 129.093 130.596 129.313C129.267 129.868 127.923 130.455 127.53 130.709C127.536 131.492 127.442 132.613 127.169 133.751C127.109 133.999 127.041 134.247 126.963 134.493C126.697 135.34 126.4 135.971 125.878 136.623C125.437 137.173 124.814 137.792 124.147 138.027L124.146 138.027C124.147 138.03 124.148 138.033 124.15 138.036Z" fill="#406E63"/>
<path fill-rule="evenodd" clip-rule="evenodd" d="M243.15 153.036C243.292 153.456 245.806 162.126 237.67 164.263C230.896 166.041 229.934 159.763 230.299 156.401C227.343 155.442 222.314 152.375 225.849 147.772L227.667 146.376C225.213 144.163 222.086 139.147 229.206 136.787C228.601 134.088 228.558 128.14 233.222 125.935C233.792 123.745 236.024 119.015 240.402 117.62C243.529 115.268 251.05 111.579 256.111 115.638C258.716 115.26 264.158 116.096 265.082 122.467C267.713 122.184 273.172 122.608 273.961 126.564C275.599 127.257 278.898 129.677 278.987 133.817C281.532 135.19 285.754 139.143 282.278 143.975C281.879 146.019 279.762 149.84 274.488 148.776C272.62 149.981 268.291 151.323 265.92 147.046C265.535 146.802 265.037 146.434 264.538 145.982C263.418 144.969 262.295 143.537 262.447 142.141C261.753 142.458 260.529 142.878 258.976 143.188C258.531 143.278 258.058 143.358 257.563 143.423C255.858 143.65 253.888 143.709 251.852 143.393C251.633 143.48 251.379 143.581 251.104 143.693C250.643 143.879 250.121 144.093 249.596 144.313C248.267 144.868 246.923 145.455 246.53 145.709C246.536 146.492 246.442 147.613 246.169 148.751C246.109 148.999 246.041 149.247 245.963 149.493C245.697 150.34 245.4 150.971 244.878 151.623C244.437 152.173 243.814 152.792 243.147 153.027L243.146 153.027C243.147 153.03 243.148 153.033 243.15 153.036Z" fill="#406E63"/>
<path fill-rule="evenodd" clip-rule="evenodd" d="M199.15 146.036C199.292 146.456 201.806 155.126 193.67 157.263C186.896 159.041 185.934 152.763 186.299 149.401C183.343 148.442 178.314 145.375 181.849 140.772L183.667 139.376C181.213 137.163 178.086 132.147 185.206 129.787C184.601 127.088 184.558 121.14 189.222 118.935C189.792 116.745 192.024 112.015 196.402 110.62C199.529 108.268 207.05 104.579 212.111 108.638C214.716 108.26 220.158 109.096 221.082 115.467C223.713 115.184 229.172 115.608 229.961 119.564C231.599 120.257 234.898 122.677 234.987 126.817C237.532 128.19 241.754 132.143 238.278 136.975C237.879 139.019 235.762 142.84 230.488 141.776C228.62 142.981 224.291 144.323 221.92 140.046C221.535 139.802 221.037 139.434 220.538 138.982C219.418 137.969 218.295 136.537 218.447 135.141C217.753 135.458 216.529 135.878 214.976 136.188C214.531 136.278 214.058 136.358 213.563 136.423C211.858 136.65 209.888 136.709 207.852 136.393C207.633 136.48 207.379 136.581 207.104 136.693C206.643 136.879 206.121 137.093 205.596 137.313C204.267 137.868 202.923 138.455 202.53 138.709C202.536 139.492 202.442 140.613 202.169 141.751C202.109 141.999 202.041 142.247 201.963 142.493C201.697 143.34 201.4 143.971 200.878 144.623C200.437 145.173 199.814 145.792 199.147 146.027L199.146 146.027C199.147 146.03 199.148 146.033 199.15 146.036Z" fill="#406E63"/>
<path fill-rule="evenodd" clip-rule="evenodd" d="M35.1505 160.036C35.2923 160.456 37.8063 169.126 29.6696 171.263C22.896 173.041 21.9337 166.763 22.2993 163.401C19.3428 162.442 14.3135 159.375 17.8488 154.772L19.6667 153.376C17.2131 151.163 14.086 146.147 21.2061 143.787C20.6014 141.088 20.5581 135.14 25.2225 132.935C25.7916 130.745 28.0243 126.015 32.402 124.62C35.5295 122.268 43.0498 118.579 48.1107 122.638C50.7163 122.26 56.1585 123.096 57.0824 129.467C59.713 129.184 65.1717 129.608 65.9611 133.564C67.5994 134.257 70.8982 136.677 70.9868 140.817C73.532 142.19 77.7536 146.143 74.2785 150.975C73.8789 153.019 71.7616 156.84 66.4884 155.776C64.6202 156.981 60.291 158.323 57.9196 154.046C57.5347 153.802 57.0366 153.434 56.5378 152.982C55.4178 151.969 54.2948 150.537 54.4466 149.141C53.7529 149.458 52.5285 149.878 50.9764 150.188C50.5307 150.278 50.0581 150.358 49.5631 150.423C47.8576 150.65 45.8882 150.709 43.8517 150.393C43.6331 150.48 43.3794 150.581 43.1035 150.693C42.6433 150.879 42.1211 151.093 41.5965 151.313C40.2673 151.868 38.9226 152.455 38.5299 152.709C38.5356 153.492 38.442 154.613 38.1685 155.751C38.1089 155.999 38.0408 156.247 37.9634 156.493C37.6968 157.34 37.3997 157.971 36.8775 158.623C36.4372 159.173 35.8136 159.792 35.1471 160.027L35.1458 160.027C35.1466 160.03 35.1482 160.033 35.1505 160.036Z" fill="#406E63"/>
<path fill-rule="evenodd" clip-rule="evenodd" d="M279.15 163.036C279.292 163.456 281.806 172.126 273.67 174.263C266.896 176.041 265.934 169.763 266.299 166.401C263.343 165.442 258.314 162.375 261.849 157.772L263.667 156.376C261.213 154.163 258.086 149.147 265.206 146.787C264.601 144.088 264.558 138.14 269.222 135.935C269.792 133.745 272.024 129.015 276.402 127.62C279.529 125.268 287.05 121.579 292.111 125.638C294.716 125.26 300.158 126.096 301.082 132.467C303.713 132.184 309.172 132.608 309.961 136.564C311.599 137.257 314.898 139.677 314.987 143.817C317.532 145.19 321.754 149.143 318.278 153.975C317.879 156.019 315.762 159.84 310.488 158.776C308.62 159.981 304.291 161.323 301.92 157.046C301.535 156.802 301.037 156.434 300.538 155.982C299.418 154.969 298.295 153.537 298.447 152.141C297.753 152.458 296.529 152.878 294.976 153.188C294.531 153.278 294.058 153.358 293.563 153.423C291.858 153.65 289.888 153.709 287.852 153.393C287.633 153.48 287.379 153.581 287.104 153.693C286.643 153.879 286.121 154.093 285.596 154.313C284.267 154.868 282.923 155.455 282.53 155.709C282.536 156.492 282.442 157.613 282.169 158.751C282.109 158.999 282.041 159.247 281.963 159.493C281.697 160.34 281.4 160.971 280.878 161.623C280.437 162.173 279.814 162.792 279.147 163.027L279.146 163.027C279.147 163.03 279.148 163.033 279.15 163.036Z" fill="#59B836"/>
<path d="M11.5 151L151.5 115L319 151L314 192.5C291.667 215.833 244.9 262.4 236.5 262C226 261.5 57 236.5 47.5 222.5C38 208.5 16.5 178.5 16.5 174.5C16.5 171.3 13.1667 157.5 11.5 151Z" fill="#ABF46F"/>
<path d="M232.546 129.091C234.34 131.753 239.26 135.839 244.59 130.894C249.919 125.948 251.081 120.076 250.996 117.758C250.91 115.611 249.766 111.112 245.871 110.288C247.323 105.995 248.382 96.9969 241.002 95.3484C238.098 94.6616 231.06 94.5242 226.14 99.4697C221.271 97.6667 211.79 96.8426 212.815 107.97C209.826 109.687 205.743 114.358 213.328 119.303C211.278 121.965 208.305 127.906 212.815 130.379C214.097 131.924 218.248 134.088 224.603 130.379C225.543 130.036 227.627 129.4 228.447 129.606L232.546 129.091Z" fill="#51AE1F"/>
<path d="M229.471 143H233.059L232.546 129.091L228.447 129.606L229.471 143Z" fill="#6E7760"/>
<path d="M69.0011 132.267C71.8197 136.426 79.551 142.812 87.9265 135.084C96.3021 127.357 98.1275 118.181 97.9933 114.559C97.8591 111.205 96.0605 104.175 89.9399 102.887C92.2217 96.1796 93.8861 82.1202 82.2892 79.5444C77.7256 78.4712 66.6656 78.2566 58.9343 85.9838C51.2836 83.1667 36.3848 81.879 37.9955 99.2654C33.2978 101.948 26.8821 109.246 38.8012 116.974C35.5795 121.133 30.9081 130.416 37.9955 134.28C40.0092 136.694 46.533 140.075 56.5188 134.28C57.9955 133.743 61.2708 132.75 62.5589 133.072L69.0011 132.267Z" fill="#51AE1F"/>
<path d="M64.169 154H69.8064L69.0011 132.267L62.5589 133.072L64.169 154Z" fill="#6E7760"/>
<path d="M118.198 161.006C120.803 164.832 127.949 170.707 135.69 163.598C143.431 156.488 145.118 148.046 144.994 144.714C144.87 141.628 143.207 135.161 137.55 133.976C139.659 127.805 141.198 114.871 130.479 112.501C126.262 111.514 116.039 111.316 108.894 118.425C101.823 115.833 88.0526 114.649 89.5413 130.644C85.1995 133.113 79.2698 139.827 90.2859 146.936C87.3083 150.762 82.9908 159.303 89.5413 162.857C91.4024 165.079 97.432 168.189 106.661 162.857C108.026 162.364 111.053 161.45 112.244 161.746L118.198 161.006Z" fill="#575884"/>
<path d="M113.732 181H118.942L118.198 161.006L112.244 161.746L113.732 181Z" fill="#6E7760"/>
<path d="M152.622 175.409C154.117 177.627 158.216 181.033 162.658 176.912C167.1 172.79 168.068 167.896 167.996 165.965C167.925 164.176 166.971 160.427 163.726 159.74C164.936 156.162 165.818 148.664 159.668 147.29C157.248 146.718 151.383 146.604 147.283 150.725C143.226 149.222 135.325 148.535 136.179 157.808C133.688 159.239 130.286 163.131 136.607 167.253C134.898 169.471 132.421 174.422 136.179 176.482C137.247 177.77 140.707 179.573 146.002 176.482C146.785 176.196 148.522 175.667 149.205 175.839L152.622 175.409Z" fill="#51AE1F"/>
<path d="M150.059 187H153.049L152.622 175.409L149.205 175.839L150.059 187Z" fill="#6E7760"/>
<path d="M224.258 171.437C225.497 173.267 228.894 176.077 232.574 172.677C236.254 169.277 237.056 165.24 236.997 163.646C236.938 162.17 236.148 159.077 233.458 158.51C234.461 155.559 235.192 149.373 230.097 148.24C228.092 147.767 223.232 147.673 219.835 151.073C216.473 149.833 209.927 149.267 210.634 156.917C208.57 158.097 205.751 161.308 210.988 164.708C209.573 166.538 207.52 170.623 210.634 172.323C211.519 173.386 214.386 174.873 218.773 172.323C219.422 172.087 220.861 171.65 221.427 171.792L224.258 171.437Z" fill="#51AE1F"/>
<path d="M222.135 181H224.612L224.258 171.437L221.427 171.792L222.135 181Z" fill="#6E7760"/>
<path d="M167.119 126.301L166.723 141H172.266V126.301L198 124.712L190.874 117.164L188.102 109.219L192.853 110.014C189.026 104.055 181.372 91.4221 181.372 88.5619C181.372 85.9537 182.249 87.1111 182.804 88.2391L177.017 75.8492H178.6L173.849 69.0958L175.829 67.1095L169.494 54L163.16 68.3013C163.292 68.5662 163.714 69.0958 164.347 69.0958C164.981 69.0958 161.972 73.5981 160.388 75.8492C160.652 76.2465 161.259 77.041 161.576 77.041C161.893 77.041 156.429 86.0455 153.658 90.5478C154.449 90.8126 156.271 91.1834 157.221 90.5478C158.171 89.9122 150.226 103.26 146.135 110.014H150.49C151.678 110.014 138.613 123.918 139.009 126.301C139.326 128.208 157.881 127.096 167.119 126.301Z" fill="#406E63"/>
<path d="M186.319 137.136C189.01 141.129 196.39 147.259 204.384 139.841C212.379 132.423 214.122 123.614 213.994 120.136C213.865 116.917 212.149 110.168 206.306 108.932C208.484 102.492 210.073 88.9954 199.003 86.5227C194.647 85.4924 184.09 85.2863 176.71 92.7045C169.407 90 155.185 88.7639 156.723 105.455C152.239 108.031 146.115 115.037 157.492 122.455C154.417 126.447 149.958 135.359 156.723 139.068C158.645 141.387 164.872 144.632 174.404 139.068C175.814 138.553 178.94 137.6 180.17 137.909L186.319 137.136Z" fill="#64BD34"/>
<path d="M181.707 158H187.088L186.319 137.136L180.17 137.909L181.707 158Z" fill="#6E7760"/>
<mask id="mask0_3641_80" style="mask-type:alpha" maskUnits="userSpaceOnUse" x="10" y="6" width="310" height="309">
<circle cx="165" cy="160.5" r="154.5" fill="#99DD66"/>
</mask>
<g mask="url(#mask0_3641_80)">
<path d="M310 53H358V87H255C245.611 87 238 79.3888 238 70C238 68.6221 238.165 67.2829 238.475 66H207C197.611 66 190 58.3888 190 49C190 39.6112 197.611 32 207 32H310V53Z" fill="#BDE99A"/>
</g>
<g clip-path="url(#clip0_3641_80)">
<path d="M267.292 102.144C267.154 102.711 267.247 103.309 267.55 103.807C267.854 104.305 268.342 104.663 268.909 104.801C269.476 104.938 270.074 104.845 270.572 104.542C271.071 104.239 271.428 103.75 271.566 103.183C271.704 102.616 271.611 102.018 271.307 101.52C271.004 101.021 270.515 100.664 269.948 100.526C269.381 100.389 268.783 100.482 268.285 100.785C267.787 101.088 267.429 101.577 267.292 102.144Z" fill="#FFEB4D"/>
<path d="M281.689 107.483L284.895 108.262L272.07 161.022L268.864 160.243L281.689 107.483Z" fill="#DAE5FF"/>
<path d="M292.457 142.912L265.209 136.289C264.621 136.146 264.257 135.548 264.4 134.96L265.439 130.686C265.582 130.099 266.18 129.735 266.767 129.877L294.015 136.501L297.51 140.746L292.457 142.912Z" fill="#6E7760"/>
<path d="M261.58 124.443L288.829 131.067C289.416 131.21 290.014 130.846 290.157 130.258L291.196 125.984C291.339 125.396 290.975 124.799 290.387 124.656L263.139 118.032L258.086 120.199L261.58 124.443Z" fill="#96522D"/>
<path d="M297.489 122.209L270.241 115.586C269.653 115.443 269.289 114.845 269.432 114.257L270.471 109.983C270.614 109.395 271.212 109.031 271.8 109.174L299.048 115.798L302.543 120.042L297.489 122.209Z" fill="#575884"/>
<path d="M254.755 149.033C254.411 150.45 254.643 151.945 255.402 153.191C256.16 154.437 257.382 155.33 258.799 155.674C260.216 156.019 261.712 155.786 262.957 155.028C264.203 154.269 265.096 153.047 265.441 151.63C265.785 150.213 265.552 148.717 264.794 147.472C264.036 146.226 262.813 145.333 261.396 144.989C259.979 144.644 258.484 144.877 257.238 145.635C255.993 146.394 255.099 147.616 254.755 149.033Z" fill="#575884"/>
<path d="M257.694 157.598L244.605 154.416L245.546 150.543C246.421 146.943 250.082 144.714 253.682 145.589C257.282 146.464 259.511 150.125 258.636 153.725L257.694 157.598Z" fill="#6E7760"/>
<path d="M265.976 159.611L255.224 156.998L255.767 154.76C256.487 151.802 259.492 149.972 262.45 150.691C265.409 151.41 267.239 154.416 266.52 157.374L265.976 159.611Z" fill="#96522D"/>
<path d="M255.202 146.786C254.7 146.494 254.147 146.268 253.552 146.123C250.48 145.376 247.381 147.07 246.303 149.963C247.83 150.285 249.556 150.372 250.56 150.17C252.366 149.81 251.811 147.786 254.17 148.063C254.913 148.151 255.638 148.193 256.499 147.794C256.375 147.665 256.242 147.541 256.101 147.422C255.82 147.184 255.518 146.969 255.202 146.786ZM261.267 145.523C259.804 145.167 258.328 145.509 257.194 146.329C257.073 146.42 256.952 146.511 256.836 146.61C257.123 146.857 257.385 147.118 257.627 147.403C257.67 147.4 257.721 147.391 257.765 147.388C258.404 147.317 258.916 147.017 259.422 146.885C260.275 146.661 261.237 147.418 262.453 147.714C262.954 147.835 263.512 147.808 264.17 147.516C263.48 146.517 262.446 145.808 261.267 145.523Z" fill="white"/>
</g>
<path d="M10.1914 158C7.18396 204.746 38.9541 306.062 153.043 316.704C204.454 321.5 312.736 294.154 319.954 162L279.855 218.388L249.781 216.391L210.685 236.354L159.058 216.391L129.986 222.38L94.3987 205.911L63.3222 222.38L10.1914 158Z" fill="url(#paint0_linear_3641_80)"/>
<defs>
<linearGradient id="paint0_linear_3641_80" x1="164.954" y1="158" x2="164.954" y2="317" gradientUnits="userSpaceOnUse">
<stop stop-color="#B77755"/>
<stop offset="1" stop-color="#6E3F25"/>
</linearGradient>
<clipPath id="clip0_3641_80">
<rect width="70.379" height="70.379" fill="white" transform="translate(247.624 90) rotate(13.6625)"/>
</clipPath>
</defs>
</svg>
