<svg width="91" height="46" viewBox="0 0 91 46" fill="none" xmlns="http://www.w3.org/2000/svg">
<rect width="90" height="41.625" rx="3" fill="#C2BDBD"/>
<g filter="url(#filter0_d_2644_1335)">
<rect x="4.5" y="3.375" width="82.125" height="33.75" fill="#D9D9D9"/>
</g>
<path d="M19.1321 25L16.9201 15.2H18.8241L20.7421 24.076H20.9941L22.9121 15.2H24.8161L22.6041 25H19.1321ZM28.6283 25.196C28.0777 25.196 27.569 25.056 27.1023 24.776C26.6357 24.496 26.2623 24.09 25.9823 23.558C25.7023 23.026 25.5623 22.3867 25.5623 21.64V21.416C25.5623 20.6787 25.6977 20.044 25.9683 19.512C26.239 18.98 26.5983 18.574 27.0463 18.294C27.5037 18.0047 28.003 17.86 28.5443 17.86C29.039 17.86 29.4357 17.944 29.7343 18.112C30.0423 18.28 30.285 18.5413 30.4623 18.896H30.7143V18.056H32.4783V22.9C32.4783 23.18 32.6043 23.32 32.8563 23.32H33.1223V25H31.9183C31.601 25 31.3397 24.9067 31.1343 24.72C30.9383 24.524 30.8403 24.2813 30.8403 23.992H30.5883C30.411 24.4213 30.1497 24.7293 29.8043 24.916C29.4683 25.1027 29.0763 25.196 28.6283 25.196ZM29.0203 23.516C29.5337 23.516 29.9443 23.348 30.2523 23.012C30.5603 22.6667 30.7143 22.2 30.7143 21.612V21.444C30.7143 20.856 30.5603 20.394 30.2523 20.058C29.9443 19.7127 29.5337 19.54 29.0203 19.54C28.507 19.54 28.0963 19.7127 27.7883 20.058C27.4803 20.394 27.3263 20.856 27.3263 21.444V21.612C27.3263 22.2 27.4803 22.6667 27.7883 23.012C28.0963 23.348 28.507 23.516 29.0203 23.516ZM34.4706 25V23.32H36.9066V16.88H34.5546V15.2H38.6706V23.32H40.9386V25H34.4706ZM46.2769 17.328C45.9129 17.328 45.6002 17.202 45.3389 16.95C45.0775 16.6887 44.9469 16.3713 44.9469 15.998C44.9469 15.6247 45.0775 15.312 45.3389 15.06C45.6002 14.7987 45.9129 14.668 46.2769 14.668C46.6409 14.668 46.9535 14.7987 47.2149 15.06C47.4762 15.312 47.6069 15.6247 47.6069 15.998C47.6069 16.3713 47.4762 16.6887 47.2149 16.95C46.9535 17.202 46.6409 17.328 46.2769 17.328ZM43.0569 25V23.32H45.4089V19.736H43.2249V18.056H47.1729V23.32H49.1889V25H43.0569ZM53.9111 25.196C53.3418 25.196 52.8285 25.0607 52.3711 24.79C51.9138 24.51 51.5498 24.1087 51.2791 23.586C51.0085 23.054 50.8731 22.41 50.8731 21.654V21.402C50.8731 20.6553 51.0131 20.0207 51.2931 19.498C51.5825 18.966 51.9605 18.56 52.4271 18.28C52.9031 18 53.4211 17.86 53.9811 17.86C54.5411 17.86 54.9845 17.9673 55.3111 18.182C55.6471 18.3873 55.9038 18.6813 56.0811 19.064H56.3331V15.2H58.0971V25H56.3331V23.992H56.0811C55.9411 24.3 55.7078 24.58 55.3811 24.832C55.0638 25.0747 54.5738 25.196 53.9111 25.196ZM54.4851 23.516C55.0358 23.516 55.4791 23.3433 55.8151 22.998C56.1605 22.6433 56.3331 22.1813 56.3331 21.612V21.444C56.3331 20.8747 56.1605 20.4173 55.8151 20.072C55.4791 19.7173 55.0358 19.54 54.4851 19.54C53.9438 19.54 53.5005 19.7127 53.1551 20.058C52.8098 20.4033 52.6371 20.8653 52.6371 21.444V21.612C52.6371 22.1907 52.8098 22.6527 53.1551 22.998C53.5005 23.3433 53.9438 23.516 54.4851 23.516ZM63.0294 25.196C62.3387 25.196 61.7274 25.0513 61.1954 24.762C60.6634 24.4633 60.2481 24.0387 59.9494 23.488C59.6507 22.9373 59.5014 22.2747 59.5014 21.5V21.416C59.5014 20.7067 59.6601 20.086 59.9774 19.554C60.2947 19.022 60.7147 18.6067 61.2374 18.308C61.7694 18.0093 62.3574 17.86 63.0014 17.86C63.5987 17.86 64.1121 17.9627 64.5414 18.168C64.9707 18.3733 65.3207 18.6393 65.5914 18.966C65.8714 19.2927 66.0767 19.652 66.2074 20.044C66.3474 20.4267 66.4174 20.8 66.4174 21.164V22.102H61.3214C61.3401 22.5127 61.5127 22.8533 61.8394 23.124C62.1661 23.3853 62.5534 23.516 63.0014 23.516C63.4401 23.516 63.7761 23.4367 64.0094 23.278C64.2521 23.1193 64.4201 22.9373 64.5134 22.732L66.0254 23.572C65.9227 23.8053 65.7501 24.048 65.5074 24.3C65.2741 24.552 64.9567 24.7667 64.5554 24.944C64.1541 25.112 63.6454 25.196 63.0294 25.196ZM61.3494 20.59H64.6254C64.5694 20.2633 64.3921 19.9927 64.0934 19.778C63.8041 19.5633 63.4354 19.456 62.9874 19.456C62.5487 19.456 62.1847 19.5727 61.8954 19.806C61.6154 20.03 61.4334 20.2913 61.3494 20.59ZM67.6817 25V23.32H69.1097V19.736H67.8497V18.056H70.7897V19.064H71.0417C71.1723 18.6813 71.3963 18.3873 71.7137 18.182C72.031 17.9673 72.4043 17.86 72.8337 17.86C73.5243 17.86 74.0797 18.0793 74.4997 18.518C74.9197 18.9473 75.1297 19.6053 75.1297 20.492V20.8L73.3097 20.968V20.772C73.3097 20.3893 73.2117 20.086 73.0157 19.862C72.8197 19.6287 72.5257 19.512 72.1337 19.512C71.7417 19.512 71.4337 19.6473 71.2097 19.918C70.9857 20.1887 70.8737 20.576 70.8737 21.08V23.32H72.4697V25H67.6817Z" fill="#7C7676"/>
<defs>
<filter id="filter0_d_2644_1335" x="0.5" y="3.375" width="90.125" height="41.75" filterUnits="userSpaceOnUse" color-interpolation-filters="sRGB">
<feFlood flood-opacity="0" result="BackgroundImageFix"/>
<feColorMatrix in="SourceAlpha" type="matrix" values="0 0 0 0 0 0 0 0 0 0 0 0 0 0 0 0 0 0 127 0" result="hardAlpha"/>
<feOffset dy="4"/>
<feGaussianBlur stdDeviation="2"/>
<feComposite in2="hardAlpha" operator="out"/>
<feColorMatrix type="matrix" values="0 0 0 0 0 0 0 0 0 0 0 0 0 0 0 0 0 0 0.25 0"/>
<feBlend mode="normal" in2="BackgroundImageFix" result="effect1_dropShadow_2644_1335"/>
<feBlend mode="normal" in="SourceGraphic" in2="effect1_dropShadow_2644_1335" result="shape"/>
</filter>
</defs>
</svg>
