<svg width="59" height="60" viewBox="0 0 59 60" fill="none" xmlns="http://www.w3.org/2000/svg">
<rect x="7" y="7" width="44.8377" height="45.585" rx="22.4188" fill="#FFCB51"/>
<g opacity="0.6">
<rect width="58.484" height="59.4587" rx="29.242" fill="url(#paint0_radial_3481_1484)"/>
</g>
<g clip-path="url(#clip0_3481_1484)">
<path d="M32.5105 36.2357H25.9719C25.5207 36.2357 25.1546 35.8699 25.1546 35.4184C25.1546 34.2916 24.6751 32.7091 23.8732 32.0118C21.6762 30.1029 20.68 27.2398 21.2084 24.3536C21.9119 20.5076 25.2871 17.7134 29.2342 17.7097C29.2364 17.7097 29.239 17.7097 29.2417 17.7097C31.4233 17.7097 33.4747 18.5587 35.0183 20.101C36.5635 21.6452 37.4144 23.6986 37.4144 25.8829C37.4144 28.2311 36.3901 30.4668 34.6043 32.0163C33.8051 32.7096 33.3278 34.2905 33.3278 35.4184C33.3278 35.8699 32.9617 36.2357 32.5105 36.2357Z" fill="#FFC778"/>
<path d="M29.2412 36.2357C28.79 36.2357 28.4238 35.8699 28.4238 35.4184V28.8798C28.4238 28.4283 28.79 28.0625 29.2412 28.0625C29.6924 28.0625 30.0585 28.4283 30.0585 28.8798V35.4184C30.0585 35.8699 29.6924 36.2357 29.2412 36.2357Z" fill="#FFD919"/>
<path d="M24.4261 25.76C24.3771 25.76 24.3276 25.7555 24.2781 25.7465C23.8338 25.6654 23.5395 25.2394 23.621 24.7953C24.0424 22.4916 25.8925 20.6654 28.2248 20.2511C28.6707 20.1731 29.0937 20.4687 29.1725 20.913C29.2517 21.3573 28.9554 21.7817 28.511 21.8607C26.8471 22.1561 25.528 23.4536 25.229 25.0896C25.1567 25.4839 24.8129 25.76 24.4261 25.76Z" fill="#F2FAFF"/>
<path d="M30.8757 37.8704H27.6064C27.1542 37.8704 26.7891 38.2354 26.7891 38.6877V40.3223C26.7891 41.6736 27.8897 42.7743 29.241 42.7743C30.5052 42.7743 31.5459 41.8153 31.6821 40.5839C31.6875 40.4967 31.693 40.4095 31.693 40.3223V38.6877C31.693 38.2354 31.328 37.8704 30.8757 37.8704Z" fill="#485566"/>
<path d="M32.5109 36.2357C32.9621 36.2357 33.3282 35.8699 33.3282 35.4184C33.3282 34.2906 33.8056 32.7096 34.6048 32.0163C36.3905 30.4667 37.4148 28.2311 37.4148 25.8829C37.4148 23.6986 36.564 21.6452 35.0187 20.101C33.4751 18.5587 31.4238 17.7097 29.2422 17.7097V36.2357H32.5109Z" fill="#FF9602"/>
<path d="M31.6932 38.6877V40.3223C31.6932 40.4095 31.6877 40.4967 31.6823 40.5839C31.5461 41.8153 30.5054 42.7743 29.2412 42.7743V37.8704H30.8758C31.3281 37.8704 31.6932 38.2354 31.6932 38.6877Z" fill="#36404D"/>
<path d="M29.2422 36.2356C29.6932 36.2354 30.059 35.8697 30.059 35.4184V28.8798C30.059 28.4285 29.6932 28.0628 29.2422 28.0625V36.2356Z" fill="#FFD919"/>
<path d="M30.8766 39.5049H27.6072C26.2531 39.5049 25.1553 38.4072 25.1553 37.053V35.4183H33.3285V37.053C33.3285 38.4072 32.2307 39.5049 30.8766 39.5049Z" fill="#576573"/>
<path d="M33.3282 37.053V35.4183H29.2422V39.5049H30.8763C32.2305 39.5049 33.3282 38.4072 33.3282 37.053Z" fill="#485566"/>
<path d="M31.6831 26.989C31.5523 25.7575 30.5061 24.7931 29.242 24.7931C27.8907 24.7931 26.79 25.8937 26.79 27.2451C26.79 28.5964 27.8907 29.697 29.242 29.697C30.5933 29.697 31.694 28.5964 31.694 27.2451C31.6939 27.1579 31.6885 27.0762 31.6831 26.989ZM29.242 28.0624C28.7897 28.0624 28.4246 27.6973 28.4246 27.2451C28.4246 26.7928 28.7897 26.4277 29.242 26.4277C29.6942 26.4277 30.0593 26.7928 30.0593 27.2451C30.0593 27.6973 29.6942 28.0624 29.242 28.0624Z" fill="#FFD919"/>
<path d="M31.6932 27.2452C31.6932 28.5965 30.5925 29.6972 29.2412 29.6972V28.0625C29.6934 28.0625 30.0586 27.6975 30.0586 27.2452C30.0586 26.7929 29.6935 26.4278 29.2412 26.4278V24.7932C30.5054 24.7932 31.5515 25.7577 31.6823 26.9891C31.6877 27.0762 31.6932 27.158 31.6932 27.2452Z" fill="#FFD919"/>
</g>
<defs>
<radialGradient id="paint0_radial_3481_1484" cx="0" cy="0" r="1" gradientUnits="userSpaceOnUse" gradientTransform="translate(29.242 29.7293) rotate(90) scale(29.7293 29.242)">
<stop offset="0.5" stop-color="#FFCB51" stop-opacity="0.5"/>
<stop offset="0.610577" stop-color="white"/>
<stop offset="1" stop-color="#0F3E4C" stop-opacity="0"/>
</radialGradient>
<clipPath id="clip0_3481_1484">
<rect width="25.0646" height="25.0646" fill="white" transform="translate(16.71 17.7097)"/>
</clipPath>
</defs>
</svg>
