<svg width="72" height="71" viewBox="0 0 72 71" fill="none" xmlns="http://www.w3.org/2000/svg">
<g filter="url(#filter0_d_4056_47)">
<path d="M62.9379 31.218C62.9379 44.2488 53.9597 55.1826 41.8518 58.1708C39.7139 58.6985 37.4784 58.9784 35.1775 58.9784C32.8767 58.9784 30.6412 58.6985 28.5033 58.1708C23.9467 57.0462 19.8334 54.7964 16.475 51.733C16.4163 51.6794 16.3578 51.6256 16.2995 51.5715C13.0282 48.5359 10.4898 44.7212 8.97956 40.4226C7.96756 37.5421 7.41718 34.4443 7.41718 31.218C7.41718 30.2648 8.31409 28.8096 8.40789 27.8811C8.46271 27.3385 8.29788 27.2944 7.76989 26.7808C8.50532 22.2028 10.3601 17.999 13.0447 14.4591C15.7207 10.9305 19.2212 8.06152 23.2593 6.13909C26.8705 4.41987 30.9117 3.45766 35.1775 3.45766C50.5092 3.45766 62.9379 15.8864 62.9379 31.218Z" fill="#EAB600"/>
<path d="M7.41718 31.218C7.41718 30.2648 8.31409 28.8096 8.40789 27.8811C7.15045 29.0057 3.83072 32.2008 4.00674 33.9317C4.22677 36.0953 3.97777 36.4987 8.97956 40.4226C7.96756 37.5421 7.41718 34.4443 7.41718 31.218Z" fill="#ECC601"/>
<path d="M13.0447 14.4591C10.7899 15.5348 6.22902 18.0456 6.02366 19.4831C5.76696 21.28 6.65574 25.4973 7.76989 26.7808C8.50532 22.2028 10.3601 17.999 13.0447 14.4591Z" fill="#ECC601"/>
<path d="M23.2593 6.13909C21.5357 5.87163 17.7512 5.4972 16.4017 6.13909C14.7148 6.94146 11.888 7.89491 13.0447 14.4591C15.7207 10.9305 19.2212 8.06152 23.2593 6.13909Z" fill="#ECC601"/>
<path d="M35.1775 3.45766C50.5092 3.45766 62.9379 15.8864 62.9379 31.218C62.9379 44.2488 53.9597 55.1826 41.8518 58.1708C43.2208 58.66 46.3477 59.6385 47.9025 59.6385C49.8461 59.6385 52.5598 57.9516 52.5965 57.2548C52.6332 56.5581 52.8899 52.6342 53.9167 51.9741C54.9435 51.314 59.8941 51.2407 60.9943 49.5538C62.0944 47.8669 62.1678 44.1997 61.581 41.8161C61.5321 41.1682 61.7351 39.7332 62.9379 39.1757C64.4414 38.479 67.6318 35.0685 67.1918 33.9317C66.8397 33.0223 64.747 29.8612 63.7446 28.3943C63.4635 28.0887 63.0259 27.2575 63.5246 26.3774C64.148 25.2772 65.6516 20.8766 65.3949 19.8865C65.1382 18.8964 62.1678 16.2194 59.7108 15.6326C59.2218 15.547 58.2366 15.1412 58.2072 14.2024C58.3906 11.9273 58.3466 7.25331 56.7037 6.7581C54.6501 6.13909 49.9561 5.73877 48.9293 6.13909C48.6237 6.16207 47.9905 6.07601 47.9025 5.54794C47.7925 4.88785 45.2255 0.0838785 43.942 0.0105355C42.6585 -0.0628076 40.4582 0.230565 38.4779 1.40405C36.4977 2.57754 35.1775 2.68762 34.7741 2.50427C34.3707 2.32091 30.4835 0.0105355 29.2 0.0105355C27.9165 0.0105355 26.828 0.360098 26.083 1.0374C24.4694 2.50427 23.9927 5.7765 23.2593 6.13909C26.8705 4.41987 30.9117 3.45766 35.1775 3.45766Z" fill="#ECC601"/>
<path d="M8.97956 40.4226C8.6447 42.7818 8.17589 47.7642 8.97956 48.8204C9.92758 50.0662 15.0756 50.6866 16.2995 51.5715C13.0282 48.5359 10.4898 44.7212 8.97956 40.4226Z" fill="#ECC601"/>
<path d="M16.475 51.733C17.1596 52.7546 18.6166 55.2159 18.9687 56.8881C19.3207 58.5603 21.2179 59.4184 22.1224 59.6385C24.0049 59.0924 27.9165 58.0345 28.5033 58.1708C23.9467 57.0462 19.8334 54.7964 16.475 51.733Z" fill="#ECC601"/>
<path d="M35.1775 58.9784C32.8767 58.9784 30.6412 58.6985 28.5033 58.1708C29.5301 58.8189 31.7377 60.4012 32.3538 61.5454C33.1239 62.9756 36.3143 62.9756 36.9011 62.6089C37.4878 62.2421 40.825 58.4453 41.8518 58.1708C39.7139 58.6985 37.4784 58.9784 35.1775 58.9784Z" fill="#ECC601"/>
<path d="M39.791 59.0996C39.4843 59.3861 39.1678 59.6945 38.8594 60.001C38.3445 60.5125 37.8251 61.0447 37.4238 61.4463C37.2191 61.6512 37.0421 61.8258 36.8994 61.959C36.8281 62.0255 36.7679 62.0785 36.7197 62.1191C36.6958 62.1393 36.6764 62.1553 36.6611 62.167C36.6536 62.1728 36.647 62.1775 36.6426 62.1807C36.6406 62.182 36.6388 62.1828 36.6377 62.1836C36.6365 62.1844 36.6357 62.1846 36.6357 62.1846C36.6325 62.1862 36.6202 62.1931 36.5947 62.2021C36.5623 62.2137 36.5176 62.2264 36.46 62.2393C36.3444 62.265 36.1937 62.2865 36.0146 62.2998C35.6564 62.3264 35.2135 62.3175 34.7646 62.2559C34.3137 62.1939 33.876 62.0817 33.5186 61.9141C33.1585 61.7451 32.9177 61.5383 32.7939 61.3086C32.4343 60.6407 31.6564 59.9045 30.8994 59.2852C30.8312 59.2293 30.7602 59.1768 30.6914 59.1221C32.1528 59.3552 33.6512 59.4785 35.1777 59.4785C36.7487 59.4785 38.2893 59.3463 39.791 59.0996ZM52.6182 53.4531C52.5288 53.7975 52.4536 54.1604 52.3926 54.5166C52.1962 55.6631 52.1199 56.8082 52.0986 57.1973C52.0943 57.2063 52.0843 57.229 52.0586 57.2646C52.0059 57.3375 51.9182 57.4336 51.79 57.5469C51.5347 57.7724 51.1635 58.0278 50.7236 58.2695C49.8322 58.7594 48.7543 59.1387 47.9023 59.1387C47.1972 59.1386 46.0839 58.9103 44.9365 58.6045C44.4675 58.4795 44.0024 58.3429 43.5703 58.21C46.8906 57.1787 49.9474 55.5509 52.6182 53.4531ZM18.3223 53.9004C20.7006 55.6705 23.3666 57.0743 26.2383 58.0312C26.0566 58.0737 25.8693 58.1166 25.6797 58.1631C24.4449 58.4661 23.0645 58.8467 22.1191 59.1191C21.7193 59.0055 21.1464 58.771 20.6289 58.4014C20.0558 57.9919 19.599 57.4547 19.458 56.7852C19.2717 55.9001 18.8089 54.8455 18.3223 53.9004ZM6.91699 31.2178C6.91699 33.917 7.29579 36.5287 8.00293 39.002C6.37087 37.6724 5.54941 36.8723 5.1123 36.2344C4.60881 35.4995 4.618 35.0028 4.50391 33.8809C4.47573 33.6028 4.58929 33.1901 4.88184 32.6543C5.16599 32.134 5.58166 31.5653 6.05371 31C6.4569 30.5172 6.89365 30.0468 7.30957 29.623C7.11248 30.1377 6.91706 30.7159 6.91699 31.2178ZM61.1777 42.3086C61.3982 43.3828 61.4924 44.6817 61.4209 45.917C61.34 47.3154 61.053 48.5475 60.5752 49.2803C60.3859 49.5705 59.9894 49.8438 59.3828 50.0869C58.7898 50.3246 58.07 50.505 57.3262 50.6592C56.9563 50.7358 56.5859 50.805 56.2266 50.8711C55.9112 50.9291 55.6023 50.9855 55.3154 51.042C57.7779 48.5409 59.7786 45.5843 61.1777 42.3086ZM9.24121 42.4521C10.4988 45.3518 12.2279 47.998 14.332 50.2959C13.7989 50.1476 13.2232 49.999 12.667 49.8486C11.8884 49.6381 11.14 49.4221 10.5322 49.1855C10.2291 49.0676 9.97281 48.9484 9.77051 48.8291C9.56384 48.7072 9.44111 48.6005 9.37793 48.5176C9.33525 48.4615 9.2751 48.3409 9.21875 48.126C9.16434 47.9184 9.1212 47.6563 9.09082 47.3457C9.03006 46.7246 9.0238 45.9539 9.05273 45.1279C9.08377 44.2421 9.15585 43.3079 9.24121 42.4521ZM58.9277 15.8984C59.1696 16.0126 59.4064 16.0814 59.5947 16.1172V16.1191C60.7207 16.3881 62.0101 17.1539 63.0654 17.999C63.5881 18.4176 64.0385 18.8436 64.3691 19.2178C64.7185 19.6131 64.8792 19.8889 64.9111 20.0117C64.9217 20.0524 64.9316 20.1622 64.915 20.3643C64.8994 20.5551 64.8636 20.7921 64.8086 21.0654C64.6986 21.6116 64.5205 22.271 64.3125 22.9424C63.892 24.2998 63.3731 25.631 63.0898 26.1309C63.0596 26.1843 63.0329 26.238 63.0078 26.291C62.344 22.5154 60.9315 18.9985 58.9277 15.8984ZM11.4805 15.8184C9.61819 18.6783 8.26053 21.896 7.53125 25.3467C7.50727 25.289 7.48081 25.2308 7.45703 25.1699C7.23194 24.5939 7.03065 23.9144 6.87012 23.2129C6.54489 21.7917 6.40336 20.3601 6.51855 19.5537C6.52835 19.4854 6.5729 19.3651 6.69824 19.1895C6.82041 19.0184 6.99856 18.8238 7.22949 18.6104C7.69143 18.1835 8.32489 17.7189 9.03809 17.2549C9.81954 16.7465 10.6797 16.2506 11.4805 15.8184ZM50.2959 6.47949C50.8917 6.47071 51.622 6.50162 52.3906 6.56445C53.9366 6.69084 55.5829 6.9429 56.5596 7.2373C56.7553 7.29644 56.9844 7.50904 57.1973 8.00684C57.4034 8.48905 57.5504 9.13878 57.6445 9.87598C57.8321 11.3446 57.7988 13.044 57.709 14.1602C55.385 11.0952 52.4506 8.51931 49.0859 6.61328L49.1113 6.60449C49.2734 6.54151 49.6732 6.48868 50.2959 6.47949ZM19.6729 6.29785C20.3227 6.32072 20.985 6.37136 21.5908 6.43262C18.4345 8.16643 15.6469 10.4862 13.3711 13.2441C13.0803 10.7362 13.4841 9.29948 14.0732 8.41602C14.754 7.39509 15.7343 7.0103 16.6162 6.59082C16.8716 6.46937 17.2896 6.37863 17.8447 6.3291C18.3883 6.28062 19.0196 6.27487 19.6729 6.29785ZM43.9131 0.509766C43.9336 0.510939 44.021 0.529965 44.1836 0.647461C44.3372 0.758499 44.5165 0.926513 44.7148 1.14746C45.111 1.5887 45.5384 2.19083 45.9395 2.82617C46.3386 3.45861 46.7022 4.10956 46.9717 4.64062C47.1065 4.90636 47.2163 5.13859 47.2939 5.32031C47.3328 5.41117 47.3624 5.48606 47.3828 5.54395C47.4027 5.60047 47.4084 5.62652 47.4092 5.62988C47.416 5.67094 47.4271 5.71007 47.4375 5.74805C43.9741 4.07787 40.1178 3.09447 36.0449 2.97168C36.0798 2.96399 36.1156 2.95783 36.1514 2.94922C36.8364 2.78419 37.7079 2.4411 38.7324 1.83398C40.6141 0.718921 42.7127 0.441256 43.9131 0.509766ZM29.2002 0.510742C29.4148 0.510792 29.8178 0.618577 30.3711 0.838867C30.9019 1.05022 31.5053 1.33748 32.0908 1.63477C32.6748 1.93131 33.2332 2.23408 33.6729 2.47559C34.0934 2.7066 34.4435 2.90268 34.5674 2.95898C34.5734 2.9617 34.5799 2.96322 34.5859 2.96582C31.0108 3.03927 27.5975 3.77399 24.4658 5.05762C24.5758 4.78061 24.6901 4.48128 24.8066 4.18555C25.2232 3.12869 25.71 2.05181 26.4189 1.40723C27.046 0.837152 28.0009 0.510742 29.2002 0.510742ZM7.91699 31.2178C7.91707 30.855 8.09696 30.3477 8.34277 29.7236C8.538 29.228 8.78143 28.6422 8.875 28.1328L8.88574 28.124L8.90527 27.9316C8.9387 27.6008 8.914 27.3144 8.7168 27.0332C8.63614 26.9182 8.53641 26.8184 8.44531 26.7314C8.39776 26.686 8.3544 26.6453 8.30859 26.6025C9.05118 22.2479 10.8251 18.2454 13.373 14.8555L13.6035 14.7471L13.5752 14.5918C16.1862 11.2044 19.5748 8.44744 23.4746 6.59082C27.0201 4.90295 30.9879 3.95801 35.1777 3.95801C50.233 3.95811 62.4374 16.1625 62.4375 31.2178C62.4375 43.9617 53.6923 54.6634 41.875 57.6484L41.873 57.6475L41.7227 57.6875H41.7197C39.6244 58.2036 37.4335 58.4785 35.1777 58.4785C32.9403 58.4785 30.7664 58.2082 28.6865 57.7002L28.6162 57.6836L28.6143 57.6826C24.1526 56.5798 20.1238 54.3779 16.8311 51.3799C16.7709 51.3113 16.7027 51.2522 16.6338 51.1992C13.4521 48.245 10.9786 44.5405 9.49219 40.3682L9.51562 40.207L9.4043 40.1201C8.44107 37.3309 7.91699 34.3359 7.91699 31.2178ZM63.4375 31.2178C63.4375 30.3566 63.3967 29.5046 63.3213 28.6631C63.3248 28.6674 63.3285 28.6716 63.332 28.6758V28.6768C63.831 29.407 64.6013 30.5592 65.29 31.6406C65.6346 32.1816 65.957 32.7022 66.2139 33.1416C66.4765 33.5909 66.6539 33.927 66.7256 34.1123C66.7298 34.1234 66.7459 34.1876 66.71 34.3398C66.6752 34.4871 66.6011 34.6752 66.4824 34.8984C66.2455 35.344 65.8668 35.8673 65.415 36.3926C64.9654 36.9154 64.4561 37.4249 63.9717 37.8438C63.5414 38.2158 63.1509 38.4983 62.8506 38.6602L62.5908 38.79C62.5149 38.8307 62.4429 38.8748 62.374 38.9209C63.0662 36.4721 63.4375 33.8883 63.4375 31.2178Z" stroke="#DA9C22"/>
</g>
<circle cx="35.1779" cy="31.2184" r="21.7462" fill="white"/>
<circle cx="35.2147" cy="31.2553" r="17.6757" fill="#ECC601"/>
<path d="M26.1517 29.8632C26.0682 30.0107 25.9512 30.411 26.1517 30.8316C26.3522 31.2522 30.3189 36.3009 32.2772 38.7727C32.5092 39.0033 33.1069 39.3427 33.6415 38.8557C34.1761 38.3687 40.5651 29.3559 43.6928 24.9103C43.7856 24.7259 43.9156 24.3016 43.6928 24.0802C43.4701 23.8589 42.542 23.1395 42.1058 22.8074C41.9016 22.7337 41.4097 22.6746 41.0756 23.0288C40.7415 23.383 35.5348 29.4112 32.9733 32.3811L28.8525 28.7287C28.6019 28.5627 28.0061 28.2915 27.6274 28.535C27.2487 28.7785 26.4858 29.5219 26.1517 29.8632Z" fill="white"/>
<defs>
<filter id="filter0_d_4056_47" x="0" y="0" width="71.2334" height="70.814" filterUnits="userSpaceOnUse" color-interpolation-filters="sRGB">
<feFlood flood-opacity="0" result="BackgroundImageFix"/>
<feColorMatrix in="SourceAlpha" type="matrix" values="0 0 0 0 0 0 0 0 0 0 0 0 0 0 0 0 0 0 127 0" result="hardAlpha"/>
<feOffset dy="4"/>
<feGaussianBlur stdDeviation="2"/>
<feComposite in2="hardAlpha" operator="out"/>
<feColorMatrix type="matrix" values="0 0 0 0 0 0 0 0 0 0 0 0 0 0 0 0 0 0 0.25 0"/>
<feBlend mode="normal" in2="BackgroundImageFix" result="effect1_dropShadow_4056_47"/>
<feBlend mode="normal" in="SourceGraphic" in2="effect1_dropShadow_4056_47" result="shape"/>
</filter>
</defs>
</svg>
