<svg width="333" height="320" viewBox="0 0 333 320" fill="none" xmlns="http://www.w3.org/2000/svg">
<g clip-path="url(#clip0_3641_80)">
<circle cx="161" cy="156.511" r="154.5" fill="url(#paint0_linear_3641_80)"/>
<mask id="mask0_3641_80" style="mask-type:alpha" maskUnits="userSpaceOnUse" x="3" y="-40" width="313" height="309">
<path d="M316 154C316 239.328 246.709 269 160 269C73.2913 269 3 199.828 3 114.5C3 29.172 73.2913 -40 160 -40C246.709 -40 312 70 316 154Z" fill="url(#paint1_linear_3641_80)"/>
</mask>
<g mask="url(#mask0_3641_80)">
<ellipse cx="177" cy="250.5" rx="236.5" ry="143.5" fill="url(#paint2_linear_3641_80)"/>
</g>
<path d="M245.997 237.501L172.997 210.5L170.078 167.7L148.396 163.56L98.5576 194.407L71.1395 150.535C68.9019 147.34 66.2209 139.746 73.3975 134.935C80.574 130.124 88.3677 138.217 91.3674 142.865L106.271 167.624L141.504 145.174L186.598 149.173L190.089 201.393L245.999 221.5L245.997 237.501Z" fill="#FFDEA4"/>
<circle cx="79.5097" cy="144.676" r="4" transform="rotate(-19.2045 79.5097 144.676)" fill="white"/>
<line x1="83.8327" y1="152.573" x2="88.353" y2="159.47" stroke="white"/>
<line x1="90.2844" y1="161.973" x2="94.8046" y2="168.87" stroke="white"/>
<line x1="97.0642" y1="172.319" x2="101.584" y2="179.216" stroke="white"/>
<line x1="108.447" y1="176.44" x2="115.344" y2="171.92" stroke="white"/>
<line x1="120.681" y1="169.002" x2="127.578" y2="164.482" stroke="white"/>
<line x1="131.971" y1="161.893" x2="138.868" y2="157.373" stroke="white"/>
<line x1="145.794" y1="154.99" x2="155.609" y2="155.807" stroke="white"/>
<line x1="160.044" y1="156.38" x2="169.859" y2="157.197" stroke="white"/>
<line x1="178.498" y1="159.991" x2="178.626" y2="169.477" stroke="white"/>
<line x1="178.498" y1="175.991" x2="178.626" y2="185.477" stroke="white"/>
<line x1="178.499" y1="190.992" x2="178.626" y2="200.478" stroke="white"/>
<line x1="183.17" y1="206.529" x2="194.17" y2="210.528" stroke="white"/>
<line x1="198.17" y1="211.529" x2="209.17" y2="215.528" stroke="white"/>
<line x1="215.17" y1="217.53" x2="226.17" y2="221.529" stroke="white"/>
<path d="M88.1786 45.3982C81.4835 46.4038 75.257 47.2886 71.5853 49.0162L72.8247 60.0396C74.2956 58.9226 83.8598 57.2424 88.3867 55.9176L88.1786 45.3982Z" fill="#8C3838"/>
<path d="M102.508 56.7684C100.971 55.9945 95.9957 54.7409 88.3867 55.9176L88.7195 72.75C91.3525 72.4535 97.3688 72.08 100.371 72.9578L102.508 56.7684Z" fill="#8C3838"/>
<path d="M76.7296 94.769C79.9049 91.1084 84.4082 90.4248 89.0525 89.5825L88.7195 72.75C86.7504 72.2565 78.4527 74.3067 74.6213 76.0179L76.7296 94.769Z" fill="#8C3838"/>
<path d="M98.2329 89.1472C102.12 89.4044 105.792 90.1369 108.717 90.9673L112.726 80.4115C111.146 78.4677 103.831 74.6325 100.371 72.9578L98.2329 89.1472Z" fill="#8C3838"/>
<path d="M110.499 48.4515C108.466 47.2372 106.259 46.3734 103.957 45.794L102.508 56.7684C105.883 57.5256 113.909 64.4626 117.501 67.8365L121.562 57.1417C117.291 54.0746 113.393 50.9501 110.499 48.4515Z" fill="#8C3838"/>
<path d="M150.43 68.5771C146.975 70.5964 140.844 68.6713 134.199 65.1416L129.256 75.5107C133.526 78.2424 139.317 79.0924 141.679 79.1759C145.824 75.3635 148.79 71.436 150.43 68.5771Z" fill="#8C3838"/>
<path d="M129.256 75.5107C126.301 73.7429 119.813 69.7331 117.501 67.8365L112.726 80.4115C114.208 82.7787 118.44 87.5239 123.509 87.5672L129.256 75.5107Z" fill="#8C3838"/>
<path d="M67.1931 50.5461L77.4153 143.893L79.7288 145.975L82.2111 143.521L76.7296 94.769L74.6213 76.0179L72.8247 60.0396L71.5853 49.0162L67.1931 50.5461Z" fill="#F68E86"/>
<path d="M88.3867 55.9176C83.8598 57.2424 74.2956 58.9226 72.8247 60.0396L74.6213 76.0179C78.4527 74.3067 86.7504 72.2565 88.7195 72.75L88.3867 55.9176Z" fill="#E2D393"/>
<path d="M103.957 45.794C98.8861 44.5178 93.35 44.6215 88.1786 45.3982L88.3867 55.9176C95.9957 54.7409 100.971 55.9945 102.508 56.7684L103.957 45.794Z" fill="#E2D393"/>
<path d="M117.501 67.8365C113.909 64.4626 105.883 57.5256 102.508 56.7684L100.371 72.9578C103.831 74.6325 111.146 78.4677 112.726 80.4115L117.501 67.8365Z" fill="#E2D393"/>
<path d="M89.0525 89.5825C92.0755 89.0342 95.2186 88.9478 98.2329 89.1472L100.371 72.9578C97.3688 72.08 91.3525 72.4535 88.7195 72.75L89.0525 89.5825Z" fill="#E2D393"/>
<path d="M134.199 65.1416C130.011 62.9171 125.618 60.0552 121.562 57.1417L117.501 67.8365C119.813 69.7331 126.301 73.7429 129.256 75.5107L134.199 65.1416Z" fill="#E2D393"/>
<path d="M108.717 90.9673C109.68 91.2405 110.561 91.5242 111.342 91.8052C115.207 91.779 118.838 91.2203 122.217 90.2787L123.509 87.5672C118.44 87.5239 114.208 82.7787 112.726 80.4115L108.717 90.9673Z" fill="#E2D393"/>
<path d="M141.679 79.1759C139.317 79.0924 133.526 78.2424 129.256 75.5107L123.509 87.5672C125.077 87.5123 128.7 87.3115 130.648 86.9482C134.926 84.7365 138.623 81.9875 141.679 79.1759Z" fill="#E2D393"/>
<path d="M123.509 87.5672L122.217 90.2787C125.233 89.4381 128.048 88.2924 130.648 86.9482C128.7 87.3115 125.077 87.5123 123.509 87.5672Z" fill="#8C3838"/>
<circle cx="69.0471" cy="47.748" r="5" transform="rotate(-19.2045 69.0471 47.748)" fill="#F68E86"/>
<path d="M192.26 103.362L192.26 107.5L197 107.5L197.407 103.352L223.139 101.713L215.997 94.1788L213.21 86.2391L217.963 87.0243C214.124 81.0729 206.445 68.4551 206.439 65.5949C206.434 62.9867 207.314 64.1425 207.872 65.2693L202.059 52.8908L203.643 52.8877L198.879 46.1436L200.854 44.1535L194.494 31.0564L188.188 45.3701C188.32 45.6347 188.743 46.1635 189.377 46.1623C190.01 46.161 187.01 50.6692 185.431 52.9234C185.696 53.3202 186.304 54.1135 186.621 54.1129C186.938 54.1123 181.492 63.1275 178.729 67.6352C179.522 67.8985 181.344 68.2657 182.293 67.6282C183.241 66.9907 175.323 80.3544 171.245 87.1159L175.6 87.1074C176.788 87.1051 163.75 101.035 164.151 103.417C164.471 105.323 183.024 104.175 192.26 103.362Z" fill="#406E63"/>
<mask id="mask1_3641_80" style="mask-type:alpha" maskUnits="userSpaceOnUse" x="6" y="2" width="310" height="310">
<circle cx="161" cy="156.511" r="154.5" fill="url(#paint3_linear_3641_80)"/>
</mask>
<g mask="url(#mask1_3641_80)">
<path d="M236.037 67.1222C235.754 68.4614 236.312 71.3136 240.815 72.0091C246.443 72.8785 262.667 72.2574 263.107 64.208C265.893 65.582 271.642 66.8823 272.351 61.0912C273.061 55.3001 269.993 55.9633 268.37 57.0188C268.932 54.8774 268.925 50.7429 264.408 51.3359C262.294 48.3585 257.079 44.1646 253.133 51.2078C250.195 49.8321 244.146 48.2064 243.451 52.709C240.806 49.1887 234.36 44.7124 229.733 54.9694C229.458 55.5033 229.229 56.7357 230.51 57.3946C226.981 60.8444 223.145 67.6197 236.037 67.1222Z" fill="#CB942C"/>
<g clip-path="url(#clip1_3641_80)">
<path d="M294.285 127.063L221.361 111.16L276.231 38.9991L294.285 127.063Z" fill="#3C3D78"/>
<path d="M284.131 124.849L221.361 111.16L276.231 38.9991L284.131 124.849Z" fill="#575884"/>
<path d="M278.17 60.3086L276.204 38.9932L262.588 56.9106L270.525 56.0307L271.8 58.9196L278.17 60.3086Z" fill="white"/>
<path d="M272.51 122.266L221.372 111.114L259.828 60.6118L272.51 122.266Z" fill="#575884"/>
<path d="M265.31 120.696L221.372 111.114L259.782 60.6017L265.31 120.696Z" fill="#575884"/>
<path d="M274.476 132.395C275.643 133.561 278.976 135.695 282.976 134.895C287.976 133.895 292.476 137.395 294.476 134.895C296.476 132.395 300.476 137.895 301.976 132.395C303.476 126.895 299.476 113.395 294.476 112.895C289.476 112.395 285.976 108.895 282.976 112.895C279.976 116.895 271.976 116.894 274.476 132.395Z" fill="#406E63"/>
<path d="M216.235 115.347C216.813 115.911 218.462 116.943 220.441 116.556C222.915 116.072 225.141 117.765 226.131 116.556C227.12 115.347 229.099 118.007 229.842 115.347C230.584 112.687 228.605 106.158 226.131 105.917C223.657 105.675 221.925 103.982 220.441 105.917C218.957 107.851 214.998 107.851 216.235 115.347Z" fill="#406E63"/>
</g>
<path d="M17.9461 94.371C17.6025 95.993 18.2786 99.4475 23.7319 100.29C30.5485 101.343 50.1989 100.591 50.7317 90.8414C54.1056 92.5056 61.0684 94.0805 61.9279 87.0666C62.7874 80.0526 59.0717 80.8559 57.1064 82.1342C57.7862 79.5407 57.778 74.5331 52.307 75.2514C49.7466 71.6453 43.431 66.5658 38.6516 75.0962C35.0936 73.4301 27.7671 71.461 26.9247 76.9143C23.7215 72.6507 15.9139 67.2292 10.3099 79.6521C9.97739 80.2987 9.70029 81.7913 11.252 82.5894C6.97716 86.7676 2.33111 94.9736 17.9461 94.371Z" fill="#CB942C"/>
<path d="M1.61604 147.364C3.64896 148.64 9.06803 150.584 14.481 148.152C21.2472 145.112 28.764 148.616 30.7893 144.422C32.8146 140.228 40.2712 146.73 40.6142 138.443C40.9573 130.157 30.9057 112.31 23.6529 113.223C16.4001 114.136 10.3014 110.308 7.34458 116.953C4.38776 123.599 -6.95728 126.194 1.61604 147.364Z" fill="#406E63"/>
</g>
<path d="M128.946 40.371C128.602 41.993 129.279 45.4475 134.732 46.2898C141.549 47.3428 161.199 46.5905 161.732 36.8414C165.106 38.5056 172.068 40.0805 172.928 33.0666C173.787 26.0526 170.072 26.8559 168.106 28.1342C168.786 25.5407 168.778 20.5331 163.307 21.2514C160.747 17.6453 154.431 12.5658 149.652 21.0962C146.094 19.4301 138.767 17.461 137.925 22.9143C134.721 18.6507 126.914 13.2292 121.31 25.6521C120.977 26.2987 120.7 27.7913 122.252 28.5894C117.977 32.7676 113.331 40.9736 128.946 40.371Z" fill="#CB942C"/>
<path d="M133.477 117.395C134.643 118.561 137.977 120.695 141.977 119.895C146.977 118.895 151.477 122.395 153.477 119.895C155.477 117.395 159.477 122.895 160.977 117.395C162.477 111.895 158.477 98.3947 153.477 97.8947C148.477 97.3947 144.977 93.8947 141.977 97.8947C138.977 101.895 130.977 101.894 133.477 117.395Z" fill="#406E63"/>
<path d="M118.228 123.453C119.094 124.109 121.46 125.203 123.998 124.322C127.171 123.222 130.421 125.102 131.502 123.292C132.583 121.481 135.686 124.712 136.172 120.988C136.658 117.265 132.838 108.815 129.531 108.937C126.223 109.059 123.626 107.088 122.027 109.967C120.428 112.846 115.208 113.563 118.228 123.453Z" fill="#355951"/>
<path fill-rule="evenodd" clip-rule="evenodd" d="M288.863 113.59C288.04 114.11 286.437 115.449 286.616 116.648C286.795 117.847 288.191 122.152 288.866 124.155C289.939 124.951 292.101 126.727 292.172 127.465C292.243 128.202 291.67 129.986 291.375 130.786C291.349 131.156 291.342 131.985 291.52 132.345C291.698 132.704 294.339 140.184 295.637 143.879C295.833 144.348 296.649 145.301 298.338 145.359C300.45 145.431 306.701 144.167 307.266 140.465L303.566 128.987C303.34 128.21 302.601 126.577 301.456 126.256C300.311 125.935 299.94 124.724 299.897 124.159C300.225 122.943 300.801 120.362 300.485 119.76C300.091 119.008 298.426 113.468 297.856 112.972C297.286 112.476 295.622 111.694 294.256 111.862C294.357 112.342 294.292 113.392 293.226 113.753C291.893 114.205 289.875 115.544 288.863 113.59ZM293.739 117.32C291.422 118.577 288.606 117.986 287.488 117.534C292.115 120.167 296.403 116.439 297.969 114.247L297.552 114.191C297.247 114.71 296.057 116.062 293.739 117.32ZM299.453 120.602C296.441 123.669 291.588 124.075 289.538 123.894C293.889 125.203 298.239 122.282 299.87 120.657L299.453 120.602ZM295.987 142.316C297.636 142.676 301.928 142.522 305.903 139.023C304.529 140.659 300.623 143.607 295.987 142.316Z" fill="#CA9999"/>
<path fill-rule="evenodd" clip-rule="evenodd" d="M293.226 113.753C294.292 113.392 294.357 112.342 294.256 111.862C294.033 111.062 293.387 109.367 292.59 108.981C292.453 108.914 292.29 108.884 292.109 108.882C290.975 108.868 289.15 109.949 288.767 110.079C288.411 110.199 288.249 110.779 288.212 111.054L288.863 113.59C289.875 115.544 291.893 114.205 293.226 113.753ZM288.938 110.382C289.07 110.633 289.538 111.078 290.361 110.852C291.388 110.569 292.541 109.884 292.387 109.443C292.35 109.338 292.324 109.269 292.306 109.226C292.296 109.223 292.286 109.221 292.276 109.219C292.266 109.168 292.264 109.126 292.306 109.226C292.587 109.298 293.061 109.569 292.93 110.145C292.794 110.743 292.108 111.178 291.783 111.321C290.943 111.606 289.184 112.038 288.861 111.491C288.538 110.944 288.778 110.524 288.938 110.382Z" fill="#8C3838"/>
<path d="M288.497 108.924L288.767 110.079C289.15 109.949 290.975 108.868 292.109 108.882C292.005 108.6 291.775 107.99 291.686 107.81C291.575 107.586 291.176 107.393 290.82 107.415C290.463 107.437 288.746 108.117 288.579 108.305C288.446 108.455 288.469 108.78 288.497 108.924Z" fill="#FFD382"/>
<path d="M290.361 110.852C289.538 111.078 289.07 110.633 288.938 110.382C288.778 110.524 288.538 110.944 288.861 111.491C289.184 112.038 290.943 111.606 291.783 111.321C292.108 111.178 292.794 110.743 292.93 110.145C293.061 109.569 292.587 109.298 292.306 109.226C292.324 109.269 292.35 109.338 292.387 109.443C292.541 109.884 291.388 110.569 290.361 110.852Z" fill="#FFD78D"/>
<path d="M287.488 117.534C288.606 117.986 291.422 118.577 293.739 117.32C296.057 116.062 297.247 114.71 297.552 114.191L297.969 114.247C296.403 116.439 292.115 120.167 287.488 117.534Z" fill="#FFDEA4"/>
<path d="M289.538 123.894C291.588 124.075 296.441 123.669 299.453 120.602L299.87 120.657C298.239 122.282 293.889 125.203 289.538 123.894Z" fill="#FFDEA4"/>
<path d="M295.987 142.316C297.636 142.676 301.928 142.522 305.903 139.023C304.529 140.659 300.623 143.607 295.987 142.316Z" fill="#FFDEA4"/>
<path d="M161.957 113.757C156.381 119.731 147.858 122.27 144.294 122.793C143.572 128.688 146.939 131.332 147.58 131.505C148.04 131.628 153.023 128.736 156.206 126.826C156.569 126.609 156.908 126.404 157.215 126.218C157.596 125.92 157.975 125.631 158.352 125.35C167.083 118.851 174.641 116.912 177.42 116.766C176.24 111.358 173.342 109.459 172.04 109.186C169.07 108.095 164.08 111.779 161.957 113.757Z" fill="#BEAD65"/>
<path d="M177.42 116.766C174.641 116.912 167.083 118.851 158.352 125.35C161.664 126.234 168.574 127.923 169.723 127.609C171.158 127.216 174.501 128.251 179.667 121.856C180.688 120.915 183.163 118.972 184.893 118.735C182.543 117.935 179.386 117.177 177.42 116.766Z" fill="#406E63"/>
<path d="M184.367 122.111C185.732 122.035 188.361 121.581 187.954 120.373C187.786 119.876 186.537 119.295 184.893 118.735C183.163 118.972 180.688 120.915 179.667 121.856C174.501 128.251 171.158 127.216 169.723 127.609C168.574 127.923 161.664 126.234 158.352 125.35C157.975 125.631 157.596 125.92 157.215 126.218C156.908 126.404 156.569 126.609 156.206 126.826C158.982 125.455 163.722 127.316 165.745 128.417C169.067 129.356 174.169 127.613 175.042 127.435C175.741 127.293 180.125 123.444 182.229 121.537L184.367 122.111Z" fill="#8C7438"/>
<path d="M281.696 140.733L266.08 125.229C262.687 124.777 261.418 128.274 261.207 130.078L276.622 145.97C277.998 146.423 280.578 142.667 281.696 140.733Z" fill="#AC9C9C"/>
<path d="M281.696 140.733C280.578 142.667 277.998 146.423 276.622 145.97C273.721 151.549 277.014 153.612 279.024 153.946C284.265 153.554 288.966 144.513 289.042 143.076C289.103 141.926 286.827 140.447 285.681 139.852L281.696 140.733Z" fill="#8C8686"/>
<path d="M261.207 130.078C261.418 128.274 262.687 124.777 266.08 125.229L268.032 120.829C267.64 119.86 266.446 117.872 264.803 117.674C262.748 117.426 257.78 116.647 253.662 127.795C254.599 129.76 257.421 132.966 261.207 130.078Z" fill="#8C8686"/>
<path d="M256.852 139.104L233.459 130.609C229.762 131.757 230.12 135.948 230.761 137.901L254.131 146.889C255.759 146.701 256.624 141.62 256.852 139.104Z" fill="#AC9C9C"/>
<path d="M256.852 139.104C256.624 141.62 255.759 146.701 254.131 146.889C253.804 153.994 258.164 154.547 260.385 153.935C265.579 151.043 266.11 139.531 265.505 138.019C265.021 136.81 261.982 136.374 260.523 136.306L256.852 139.104Z" fill="#8C8686"/>
<path d="M230.761 137.901C230.12 135.948 229.762 131.757 233.459 130.609L233.372 125.166C232.51 124.357 230.34 122.883 228.559 123.46C226.333 124.182 220.862 125.743 221.932 139.142C223.827 140.712 228.247 142.663 230.761 137.901Z" fill="#8C8686"/>
<path d="M7.19078 153C4.19263 201.151 35.865 305.513 149.603 316.475C200.855 321.415 308.804 293.247 316 157.12L276.025 215.203L246.043 213.146L207.067 233.709L155.599 213.146L126.617 219.315L91.1389 202.351L60.1581 219.315L7.19078 153Z" fill="url(#paint4_linear_3641_80)"/>
</g>
<defs>
<linearGradient id="paint0_linear_3641_80" x1="161" y1="2.01074" x2="161" y2="311.011" gradientUnits="userSpaceOnUse">
<stop stop-color="#FFAF16"/>
<stop offset="1" stop-color="#FDD69F"/>
</linearGradient>
<linearGradient id="paint1_linear_3641_80" x1="160" y1="-40" x2="160" y2="269" gradientUnits="userSpaceOnUse">
<stop stop-color="#FFA9A7"/>
<stop offset="1" stop-color="#FDD69F"/>
</linearGradient>
<linearGradient id="paint2_linear_3641_80" x1="177" y1="107" x2="177" y2="394" gradientUnits="userSpaceOnUse">
<stop stop-color="#842C2A"/>
<stop offset="1" stop-color="#FFDCF9"/>
</linearGradient>
<linearGradient id="paint3_linear_3641_80" x1="161" y1="2.01123" x2="161" y2="311.011" gradientUnits="userSpaceOnUse">
<stop stop-color="#FFAF16"/>
<stop offset="1" stop-color="#FDD69F"/>
</linearGradient>
<linearGradient id="paint4_linear_3641_80" x1="161.477" y1="153" x2="161.477" y2="316.779" gradientUnits="userSpaceOnUse">
<stop stop-color="#DECABA"/>
<stop offset="1" stop-color="#FF7974"/>
</linearGradient>
<clipPath id="clip0_3641_80">
<rect width="333" height="320" fill="white"/>
</clipPath>
<clipPath id="clip1_3641_80">
<rect width="96.7446" height="96.7446" fill="white" transform="translate(229.613 21.0005) rotate(12.3022)"/>
</clipPath>
</defs>
</svg>
