<svg width="18" height="17" viewBox="0 0 18 17" fill="none" xmlns="http://www.w3.org/2000/svg">
<path fill-rule="evenodd" clip-rule="evenodd" d="M2.00005 11.9999H1.01205C0.460057 11.9939 0.00706033 12.4359 6.03693e-05 12.9879C-0.0059396 13.5399 0.436059 13.9929 0.988056 13.9999H1.97605H2.00005C2.00005 15.6569 3.34304 16.9999 5.00003 16.9999H7.00002C8.65701 16.9999 10 15.6569 10 13.9999H17C17.552 13.9999 18 13.5519 18 12.9999C18 12.4479 17.552 11.9999 17 11.9999H10C10 10.3429 8.65701 8.99995 7.00002 8.99995H5.00003C3.34304 8.99995 2.00005 10.3429 2.00005 11.9999ZM4.00004 11.9999C4.00004 11.4479 4.44804 10.9999 5.00003 10.9999H7.00002C7.55202 10.9999 8.00001 11.4479 8.00001 11.9999V13.9999C8.00001 14.5519 7.55202 14.9999 7.00002 14.9999H5.00003C4.44804 14.9999 4.00004 14.5519 4.00004 13.9999V11.9999ZM8.00001 2.99998H1.00005C0.448058 2.99998 6.03693e-05 3.44798 6.03693e-05 3.99998C6.03693e-05 4.55197 0.448058 4.99997 1.00005 4.99997H8.00001C8.00001 6.65696 9.34301 7.99996 11 7.99996H13C14.657 7.99996 16 6.65696 16 4.99997H17C17.552 4.99997 18 4.55197 18 3.99998C18 3.44798 17.552 2.99998 17 2.99998H16C16 1.34299 14.657 0 13 0H11C9.34301 0 8.00001 1.34299 8.00001 2.99998ZM14 2.99998V4.99997C14 5.55197 13.552 5.99997 13 5.99997H11C10.448 5.99997 10 5.55197 10 4.99997V2.99998C10 2.44799 10.448 1.99999 11 1.99999H13C13.552 1.99999 14 2.44799 14 2.99998Z" fill="#7C7676"/>
</svg>
