<svg width="59" height="60" viewBox="0 0 59 60" fill="none" xmlns="http://www.w3.org/2000/svg">
<rect x="6" y="8" width="44.8377" height="45.585" rx="22.4188" fill="#B2FD00"/>
<g opacity="0.6">
<path d="M0 29.242C0 13.0921 13.0921 0 29.242 0V0C45.3919 0 58.484 13.0921 58.484 29.242V30.2167C58.484 46.3666 45.3919 59.4587 29.242 59.4587V59.4587C13.0921 59.4587 0 46.3666 0 30.2167V29.242Z" fill="url(#paint0_radial_3537_1453)"/>
</g>
<g clip-path="url(#clip0_3537_1453)">
<path d="M22.4055 35.8106C27.8831 41.2882 40.6339 31.4802 37.8143 20.4019C26.7359 17.5823 16.928 30.3331 22.4055 35.8106Z" fill="#9FCB39" fill-opacity="0.913725"/>
<path opacity="0.2" d="M22.4052 34.0735C21.5378 33.2061 21.054 32.156 20.8977 31.0143C20.671 32.8181 21.1117 34.5172 22.4052 35.8107C27.4956 40.9011 38.8677 32.79 38.1864 22.7263C37.5637 31.9533 27.199 38.8673 22.4052 34.0735Z" fill="black"/>
<path d="M33.9816 27.7569L31.5788 27.2515L33.9315 24.8989C34.1011 24.7293 34.1011 24.4543 33.9315 24.2847C33.7619 24.1151 33.4869 24.1151 33.3173 24.2847L30.9646 26.6374L30.4592 24.2346C30.4098 23.9999 30.1796 23.8496 29.9448 23.8991C29.71 23.9485 29.5598 24.1788 29.6091 24.4134L30.2312 27.3708L28.0323 29.5697L27.5269 27.1669C27.4775 26.9322 27.2473 26.7819 27.0125 26.8313C26.7778 26.8807 26.6275 27.111 26.6769 27.3457L27.299 30.303L25.1 32.502L24.5946 30.0992C24.5452 29.8645 24.315 29.7142 24.0803 29.7636C23.8455 29.813 23.6953 30.0433 23.7446 30.278L24.3667 33.2353L19.1272 38.4748C18.9576 38.6444 18.9576 38.9193 19.1272 39.0889C19.212 39.1737 19.3232 39.2161 19.4343 39.2161C19.5454 39.2161 19.6566 39.1737 19.7414 39.0889L24.9809 33.8495L27.9382 34.4715C27.9684 34.4779 27.9984 34.4809 28.028 34.4809C28.2291 34.4809 28.4096 34.3405 28.4526 34.1359C28.502 33.9012 28.3517 33.6708 28.1169 33.6215L25.7142 33.1161L27.9131 30.9172L30.8704 31.5392C30.9006 31.5455 30.9307 31.5486 30.9603 31.5486C31.1613 31.5486 31.3417 31.4082 31.3848 31.2036C31.4342 30.9689 31.2839 30.7386 31.0492 30.6893L28.6465 30.1838L30.8454 27.9849L33.8027 28.607C33.8329 28.6133 33.863 28.6164 33.8926 28.6164C34.0936 28.6164 34.2741 28.476 34.3171 28.2714C34.3665 28.0366 34.2163 27.8063 33.9816 27.7569Z" fill="#4B8737"/>
</g>
<defs>
<radialGradient id="paint0_radial_3537_1453" cx="0" cy="0" r="1" gradientUnits="userSpaceOnUse" gradientTransform="translate(28.2097 30.1881) rotate(90) scale(29.7293 29.242)">
<stop offset="0.5" stop-color="#B2FD00" stop-opacity="0.5"/>
<stop offset="0.610577" stop-color="white"/>
<stop offset="1" stop-color="#0F3E4C" stop-opacity="0"/>
</radialGradient>
<clipPath id="clip0_3537_1453">
<rect width="19.2162" height="19.2162" fill="white" transform="translate(19 20)"/>
</clipPath>
</defs>
</svg>
