<svg width="82" height="88" viewBox="0 0 82 88" fill="none" xmlns="http://www.w3.org/2000/svg">
<g filter="url(#filter0_d_4228_80)">
<path d="M36.8913 62.8076C36.9822 62.4801 36.8607 62.1303 36.5866 61.9296L24.8362 53.3217C24.5619 53.1207 24.1921 53.1105 23.9069 53.2958C22.4564 54.2397 21.1984 55.4314 20.1679 56.8381C16.7845 61.4567 16.4669 67.6329 19.3587 72.5724C19.416 72.67 19.4921 72.7535 19.5813 72.8189C19.6706 72.8844 19.7732 72.9317 19.8834 72.9568C25.4652 74.2246 31.2579 72.0595 34.6414 67.4408C35.6723 66.0337 36.4292 64.4749 36.8913 62.8076Z" fill="#FF9737"/>
<path d="M35.3723 60.3502C35.3462 60.1236 35.2271 59.9184 35.0432 59.7837L27.351 54.1487C27.1671 54.014 26.9355 53.9621 26.7116 54.0057C26.4882 54.0492 26.2926 54.1842 26.1726 54.378C24.4963 57.0851 24.4973 60.5883 26.1753 63.3024C26.2311 63.3928 26.3034 63.4704 26.3876 63.5321C26.4717 63.5937 26.5676 63.6393 26.6705 63.6652C29.7641 64.4466 33.1043 63.3912 35.1802 60.9766C35.3285 60.8033 35.3982 60.5763 35.3723 60.3502Z" fill="#FFD960"/>
<path opacity="0.1" d="M21.772 59.2608C22.8838 57.7431 24.2412 56.4571 25.8065 55.4389C26.1143 55.2389 26.5132 55.25 26.8091 55.4667L36.8802 62.8444C36.8837 62.8322 36.8878 62.8201 36.8913 62.8076C36.9822 62.4801 36.8607 62.1303 36.5866 61.9295L24.8362 53.3217C24.5619 53.1207 24.1921 53.1105 23.9069 53.2958C22.4564 54.2397 21.1984 55.4314 20.1679 56.8381C16.795 61.4423 16.4698 67.5941 19.3325 72.5257C18.0943 68.0332 18.9313 63.1386 21.772 59.2608Z" fill="#231F20"/>
<path d="M49.1722 73.498L53.6584 67.3741C55.6478 64.6584 55.6105 61.9469 55.5393 61.0976L53.668 44.4951L40.4247 62.5731L46.7973 74.0501C47.0541 74.4522 47.8435 75.3118 49.1722 73.498Z" fill="#0B6B95"/>
<path d="M10.018 44.8118L14.5042 38.6879C16.4936 35.9722 19.0901 35.1901 19.9214 35.002L36.3153 31.7799L23.0721 49.8579L10.208 47.2428C9.74697 47.1191 8.68932 46.6256 10.018 44.8118Z" fill="#0B6B95"/>
<path d="M55.1687 24.2424C54.6222 23.8421 54.4413 23.1598 54.7646 22.7184L60.8443 14.4193C61.1676 13.9779 61.8727 13.9447 62.4192 14.345C62.9656 14.7452 63.1465 15.4276 62.8232 15.869L56.7435 24.1681C56.4203 24.6094 55.7151 24.6427 55.1687 24.2424Z" fill="#90C8EC"/>
<path d="M60.7469 18.5096L58.9585 17.1995C53.3293 16.2408 48.2724 14.9074 45.0169 19.3515L22.8102 49.6652C21.9183 50.8827 22.1821 52.5927 23.4 53.4849L36.8727 63.3545C38.0903 64.2465 39.8006 63.9826 40.6925 62.7651L58.2298 38.8254L60.5976 35.5931L62.8992 32.4512C66.1547 28.0071 63.7266 24.8661 60.7469 18.5096Z" fill="#CAE9F7"/>
<path d="M25.1387 46.479L22.8058 49.6635C21.9139 50.881 22.1777 52.591 23.3956 53.4832L36.8683 63.3528C38.0859 64.2448 39.7962 63.9809 40.6881 62.7634L43.021 59.5789L25.1387 46.479Z" fill="#90C8EC"/>
<path d="M37.8513 47.8847C40.0159 49.4704 43.0562 49.0012 44.6419 46.8365C46.2276 44.6719 45.7583 41.6317 43.5937 40.046C41.4291 38.4603 38.3888 38.9296 36.8031 41.0942C35.2174 43.2588 35.6867 46.299 37.8513 47.8847Z" fill="#A599A3"/>
<path opacity="0.1" d="M11.4759 47.4221L15.9621 41.2981C17.9515 38.5825 20.548 37.8004 21.3793 37.6122L33.8259 35.1659L36.3085 31.777L19.9145 34.9991C19.0834 35.1871 16.4868 35.9692 14.4974 38.685L10.0112 44.8089C8.68258 46.6226 9.74014 47.1161 10.2013 47.2398L11.4284 47.4892C11.4444 47.4669 11.4591 47.445 11.4759 47.4221Z" fill="#231F20"/>
<path opacity="0.1" d="M25.0005 51.275L47.2071 20.9613C50.4122 16.5861 56.5107 15.5876 60.9396 18.6643C60.8724 18.6125 60.8071 18.5592 60.7381 18.5086L58.9497 17.1986C54.5055 13.9429 48.2636 14.9065 45.0081 19.3505L22.8014 49.6642C21.9095 50.8817 22.1733 52.5917 23.3912 53.4839L25.5902 55.0948C24.3724 54.2025 24.1085 52.4926 25.0005 51.275Z" fill="#231F20"/>
<path opacity="0.1" d="M38.9947 42.7052C40.3007 40.9224 42.5929 40.2908 44.5704 41.0088C44.296 40.6514 43.9681 40.3256 43.5864 40.046C41.4216 38.4602 38.3815 38.9295 36.7957 41.0943C35.21 43.2589 35.6792 46.299 37.8439 47.8849C38.2258 48.1646 38.635 48.3791 39.0586 48.5328C37.7777 46.8638 37.6887 44.488 38.9947 42.7052Z" fill="#231F20"/>
</g>
<defs>
<filter id="filter0_d_4228_80" x="5.36475" y="14.0654" width="63.0859" height="68.5435" filterUnits="userSpaceOnUse" color-interpolation-filters="sRGB">
<feFlood flood-opacity="0" result="BackgroundImageFix"/>
<feColorMatrix in="SourceAlpha" type="matrix" values="0 0 0 0 0 0 0 0 0 0 0 0 0 0 0 0 0 0 127 0" result="hardAlpha"/>
<feOffset dy="4"/>
<feGaussianBlur stdDeviation="2"/>
<feComposite in2="hardAlpha" operator="out"/>
<feColorMatrix type="matrix" values="0 0 0 0 0 0 0 0 0 0 0 0 0 0 0 0 0 0 0.25 0"/>
<feBlend mode="normal" in2="BackgroundImageFix" result="effect1_dropShadow_4228_80"/>
<feBlend mode="normal" in="SourceGraphic" in2="effect1_dropShadow_4228_80" result="shape"/>
</filter>
</defs>
</svg>
