<svg width="402" height="874" viewBox="0 0 402 874" fill="none" xmlns="http://www.w3.org/2000/svg">
<g clip-path="url(#clip0_2758_53)">
<rect width="402" height="874" fill="url(#paint0_linear_2758_53)"/>
<path d="M683.959 785.956C706.243 932.84 546.204 1078.93 326.503 1112.26C106.801 1145.6 -89.3672 1053.54 -111.651 906.66C-133.935 759.776 26.1033 613.683 245.805 580.351C465.507 547.02 661.675 639.073 683.959 785.956Z" fill="url(#paint1_linear_2758_53)"/>
<ellipse cx="131.088" cy="746.633" rx="10.0371" ry="5.71813" transform="rotate(-13.3788 131.088 746.633)" fill="#DFE8F1" fill-opacity="0.5"/>
<ellipse cx="201.392" cy="733.561" rx="12.6745" ry="7.2206" transform="rotate(-16.7193 201.392 733.561)" fill="#DFE8F1" fill-opacity="0.5"/>
<ellipse cx="73.2036" cy="776.885" rx="29.6848" ry="16.9113" transform="rotate(-10.1661 73.2036 776.885)" fill="#DFE8F1" fill-opacity="0.5"/>
<ellipse cx="11.0531" cy="730.695" rx="29.6848" ry="16.9113" transform="rotate(-34.2876 11.0531 730.695)" fill="#DFE8F1" fill-opacity="0.5"/>
<ellipse cx="28.7194" cy="688.465" rx="11.0878" ry="6.31666" transform="rotate(-34.2876 28.7194 688.465)" fill="#DFE8F1" fill-opacity="0.5"/>
<ellipse cx="52.628" cy="673.117" rx="10.2155" ry="5.81976" transform="rotate(-21.175 52.628 673.117)" fill="#DFE8F1" fill-opacity="0.5"/>
<ellipse cx="140.628" cy="641.117" rx="10.2155" ry="5.81976" transform="rotate(-21.175 140.628 641.117)" fill="#DFE8F1" fill-opacity="0.5"/>
<ellipse cx="178.614" cy="632.378" rx="17.2312" ry="9.81657" transform="rotate(-21.175 178.614 632.378)" fill="#DFE8F1" fill-opacity="0.5"/>
<ellipse cx="383.798" cy="640.556" rx="8.51553" ry="4.85127" transform="rotate(31.138 383.798 640.556)" fill="#DFE8F1" fill-opacity="0.5"/>
<ellipse cx="403.071" cy="663.781" rx="15.7067" ry="8.94808" transform="rotate(31.138 403.071 663.781)" fill="#DFE8F1" fill-opacity="0.5"/>
<ellipse cx="67.5143" cy="664.565" rx="3.96733" ry="3.35877" transform="rotate(-21.175 67.5143 664.565)" fill="#DFE8F1" fill-opacity="0.5"/>
<ellipse cx="159" cy="700.404" rx="48.8828" ry="27.8484" transform="rotate(-13.3788 159 700.404)" fill="#DFE8F1" fill-opacity="0.5"/>
<path d="M-28.8632 802.927C-16.0298 812.26 20.5368 828.927 64.1368 820.927C118.637 810.927 199.137 766.927 396.637 802.927C554.637 831.727 467.137 958.927 403.637 1018.93C259.637 1033.09 -29.8632 1044.03 -35.8632 974.427C-43.3632 887.427 -59.8632 845.427 -51.8632 820.927C-45.4632 801.327 -33.8632 800.76 -28.8632 802.927Z" fill="#DFE8F1" fill-opacity="0.5"/>
<path fill-rule="evenodd" clip-rule="evenodd" d="M339.18 556.828L326.08 574.138L323.569 573.696L322.959 576.255L338.515 576.977L338.6 574.846L336.089 574.405L342.366 564.756C362.546 555.083 370.645 569.265 372.172 577.565L369.673 577.623L369.177 579.444L384.298 581.188L384.227 579.785L382.216 579.331L372.752 559.546L372.671 556.047C372.643 554.848 371.644 554.904 371.148 555.083L373.577 552.025L368.579 552.142L365.172 534.716L350.641 533.554L344.004 549.213L340.005 549.306L342.063 551.759L339.087 552.829L339.18 556.828ZM360.79 539.82L354.268 538.971L351.025 550.05L362.046 550.793L360.79 539.82Z" fill="#5B5F5A"/>
<path d="M361.728 472.78L351.524 528.532L355.032 528.84L361.729 494.285L361.046 529.366L365.055 529.718C365.128 511.378 365.564 474.291 366.727 472.663C368.18 470.629 365.669 470.187 366.645 469.164C367.224 468.558 366.566 467.629 365.621 466.981C364.972 466.534 364.187 466.221 363.576 466.235C362.077 466.27 362.623 468.258 361.647 469.281C360.865 470.099 361.375 471.954 361.728 472.78Z" fill="#5B5F5A"/>
<path d="M351.524 528.532C348.734 528.998 349.773 532.074 350.641 533.554L365.172 534.716C367.497 531.461 366.063 530.028 365.055 529.718L361.046 529.366L355.032 528.84L351.524 528.532Z" fill="#5B5F5A"/>
<path d="M363.576 466.235C364.187 466.221 364.972 466.534 365.621 466.981L365.562 457.472L363.576 466.235Z" fill="#5B5F5A"/>
<path d="M66.7157 584.285L104.399 625.965L116.588 623.193L66.7157 584.285Z" fill="#EAC384"/>
<path d="M66.7157 584.285L51.0808 646.298L104.399 625.965L66.7157 584.285Z" fill="#5B5F5A"/>
<path d="M58.2642 542.622C58.6543 542.533 61.9536 547.57 63.5544 550.099L70.0617 545.066C66.9565 543.38 60.5509 540.051 59.7708 540.228C58.7957 540.45 57.7767 542.733 58.2642 542.622Z" fill="#5B5F5A"/>
<path d="M74.7131 567.596L72.7097 550.617C70.7294 552.029 68.6714 553.481 66.6907 554.87L71.7439 570.322L74.7131 567.596Z" fill="#5B5F5A"/>
<path d="M49.2145 564.678C49.3811 565.837 49.8341 568.23 50.3128 568.531C50.9113 568.908 52.3739 568.575 52.263 568.088C52.1743 567.697 51.9483 565.201 51.8463 564.001C50.8875 564.271 49.924 564.512 49.2145 564.678Z" fill="#5B5F5A"/>
<path d="M52.217 558.868L42.1773 557.562L40.6707 559.956L48.9381 564.742C49.025 564.722 49.1174 564.701 49.2145 564.678C49.924 564.512 50.8875 564.271 51.8463 564.001C53.21 563.618 54.5643 563.177 55.1653 562.812C55.7403 562.463 60.8834 558.941 66.6907 554.87C68.6714 553.481 70.7294 552.029 72.7097 550.617C78.5713 546.438 83.7528 542.613 84.2381 541.842C85.142 540.405 83.1221 539.19 81.9991 538.762L76.6361 539.981L70.0617 545.066L63.5544 550.099L52.217 558.868Z" fill="#D9D9D9"/>
<path d="M27.1931 543.537C27.2154 544.386 27.9648 546.027 30.7838 545.796C34.3075 545.508 44.0133 542.787 43.1152 537.864C44.9957 538.291 48.6546 538.245 48.2458 534.646C47.8371 531.047 46.0807 531.89 45.2536 532.762C45.2829 531.388 44.6811 528.893 42.0396 529.904C40.3328 528.412 36.5782 526.634 35.214 531.457C33.2415 531.051 29.3542 530.944 29.5852 533.763C27.4795 532.02 22.9404 530.249 21.6297 537.111C21.5411 537.473 21.5811 538.25 22.4499 538.463C20.8177 541.056 19.4811 545.701 27.1931 543.537Z" fill="#FFD4D0"/>
<path d="M388.083 524.41C387.881 525.235 388.171 527.016 390.951 527.537C394.426 528.188 404.505 528.123 404.938 523.137C406.639 524.045 410.181 524.966 410.736 521.387C411.291 517.807 409.374 518.158 408.346 518.781C408.737 517.463 408.814 514.898 406 515.176C404.747 513.287 401.594 510.581 399.006 514.873C397.211 513.962 393.489 512.833 392.969 515.613C391.397 513.376 387.486 510.471 384.412 516.744C384.231 517.07 384.064 517.83 384.846 518.264C382.588 520.335 380.073 524.463 388.083 524.41Z" fill="#FFD4D0"/>
</g>
<defs>
<linearGradient id="paint0_linear_2758_53" x1="201" y1="0" x2="201" y2="874" gradientUnits="userSpaceOnUse">
<stop stop-color="#066893"/>
<stop offset="1" stop-color="#999999"/>
</linearGradient>
<linearGradient id="paint1_linear_2758_53" x1="351.5" y1="573" x2="111.5" y2="813.5" gradientUnits="userSpaceOnUse">
<stop stop-color="#F0BC93"/>
<stop offset="1" stop-color="#FEADA6"/>
</linearGradient>
<clipPath id="clip0_2758_53">
<rect width="402" height="874" fill="white"/>
</clipPath>
</defs>
</svg>
