<svg width="358" height="336" viewBox="0 0 358 336" fill="none" xmlns="http://www.w3.org/2000/svg">
<circle cx="198" cy="154.501" r="154.5" fill="url(#paint0_linear_228_192)"/>
<mask id="mask0_228_192" style="mask-type:alpha" maskUnits="userSpaceOnUse" x="43" y="0" width="310" height="310">
<circle cx="198" cy="154.501" r="154.5" fill="url(#paint1_linear_228_192)"/>
</mask>
<g mask="url(#mask0_228_192)">
<path d="M132.5 107.501L112.5 112.001C116.667 128.501 125.1 161.501 125.5 161.501C125.9 161.501 134.333 159.07 138.5 157.855L132.5 107.501Z" fill="#EFBC94"/>
<path d="M112.5 112.001L132.5 107.501L135 106.501L132.5 82.501L129.5 83.2387L105 89.2633L102 90.001L109 112.501L112.5 112.001Z" fill="#CEA889"/>
<path d="M103.5 83.501L128.5 78.001L116.5 58.001L108 60.501L103.5 83.501Z" fill="#EFBC94"/>
<path d="M108 60.501L116.5 58.001L116 55.501L109 46.001L107 58.001L108 60.501Z" fill="#5B5F5A"/>
<path d="M122 162.001L117.25 150.501C116.065 150.882 114.811 151.288 113.5 151.714C111.608 152.329 109.597 152.988 107.5 153.679C106.411 154.038 105.417 154.288 104.408 154.541C103.332 154.812 102.24 155.086 101 155.501C99.1922 156.106 97.3529 156.725 95.5 157.353C94.2087 157.79 92.7435 158.381 91.2474 159.001C89.0857 159.897 86.8595 160.855 85 161.501C83.8502 161.9 82.8244 162.208 81.8133 162.512C80.7361 162.835 79.6757 163.154 78.5 163.572C76.9658 164.119 75.4619 164.659 74 165.19C62.5787 169.34 53.7191 172.928 53 174.27C58.8944 180.442 64.089 184.815 65.5 183.001C66.3087 181.961 69.8898 180.229 75 178.159C73.8333 175.375 72.1 169.446 74.5 168.001C76.9 166.556 79.5274 172.732 80.5411 176.001C82.1237 175.405 83.7843 174.793 85.5 174.173C84.5 171.782 83 166.401 85 164.001C87 161.601 89.1667 168.712 90 172.568C90.6622 172.335 91.3293 172.101 92 171.868C90.6667 169.103 88.7 163.158 91.5 161.501C94.3 159.844 95.6667 166.802 96 170.488C96.6657 170.26 97.3327 170.033 98 169.807C97.3333 166.909 96.3 160.69 97.5 159.001C98.7 157.312 101.667 164.381 103 168.127C103.67 167.904 104.337 167.683 105 167.463C103.833 164.871 102.1 159.149 104.5 157.001C106.9 154.853 108.833 162.096 109.5 165.987C110.517 165.656 111.519 165.331 112.5 165.014C111.667 162.011 110.4 155.803 112 155.001C113.6 154.199 116.443 160.242 117.665 163.363C119.201 162.876 120.654 162.42 122 162.001Z" fill="#F0CCB0"/>
<path d="M71 138.501C67.3585 140.156 69.8333 147.258 71.5 150.339C73.956 149.556 76.4622 148.777 78.9712 148.014C78.7141 147.277 78.4732 146.446 78.2238 145.585C76.9994 141.36 75.5693 136.424 71 138.501Z" fill="#5B5F5A"/>
<path d="M91.2474 144.001C90.8783 142.993 90.5869 141.818 90.2918 140.628C89.2546 136.445 88.1711 132.076 83.5 134.097C81.6644 134.891 82.6667 142.467 83.5 146.653C85.6975 146 89.1225 144.612 91.2474 144.001Z" fill="#5B5F5A"/>
<path d="M78.5 163.572C77.8333 159.764 75.8 152.718 73 155.001C70.2 157.284 72.5 162.745 74 165.19C75.4619 164.659 76.9658 164.119 78.5 163.572Z" fill="#5B5F5A"/>
<path d="M101 155.501C100.825 155.018 100.649 154.511 100.47 153.995C99.1217 150.098 97.5906 145.674 94.5 146.999C91.4093 148.323 93.8333 154.568 95.5 157.353C97.3529 156.725 99.1922 156.106 101 155.501Z" fill="#5B5F5A"/>
<path d="M113.5 151.714C111.833 147.31 108 139.401 106 143.001C104 146.601 106.167 151.619 107.5 153.679C109.597 152.988 111.608 152.329 113.5 151.714Z" fill="#5B5F5A"/>
<path d="M80.5411 176.001C79.5274 172.732 76.9 166.556 74.5 168.001C72.1 169.446 73.8333 175.375 75 178.159C76.6941 177.472 78.5562 176.749 80.5411 176.001Z" fill="#5B5F5A"/>
<path d="M90 172.568C89.1667 168.712 87 161.601 85 164.001C83 166.401 84.5 171.782 85.5 174.173C86.9646 173.643 88.4694 173.107 90 172.568Z" fill="#5B5F5A"/>
<path d="M96 170.488C95.6667 166.802 94.3 159.844 91.5 161.501C88.7 163.158 90.6667 169.103 92 171.868C93.322 171.407 94.6583 170.947 96 170.488Z" fill="#5B5F5A"/>
<path d="M103 168.127C101.667 164.381 98.7 157.312 97.5 159.001C96.3 160.69 97.3333 166.909 98 169.807C99.6707 169.24 101.343 168.678 103 168.127Z" fill="#5B5F5A"/>
<path d="M109.5 165.987C108.833 162.096 106.9 154.853 104.5 157.001C102.1 159.149 103.833 164.871 105 167.463C106.524 166.96 108.028 166.466 109.5 165.987Z" fill="#5B5F5A"/>
<path d="M117.665 163.363C116.443 160.242 113.6 154.199 112 155.001C110.4 155.803 111.667 162.011 112.5 165.014C114.298 164.434 116.029 163.881 117.665 163.363Z" fill="#5B5F5A"/>
<path fill-rule="evenodd" clip-rule="evenodd" d="M105 140.597L112.5 139.001L117.25 150.501C116.065 150.882 114.811 151.288 113.5 151.714C111.833 147.31 108 139.401 106 143.001C104 146.601 106.167 151.619 107.5 153.679C106.411 154.038 105.417 154.288 104.408 154.541C103.332 154.812 102.24 155.086 101 155.501C100.825 155.018 100.649 154.511 100.47 153.995C99.1217 150.098 97.5906 145.674 94.5 146.999C91.4093 148.323 93.8333 154.568 95.5 157.353C94.2087 157.79 92.7435 158.381 91.2474 159.001L89 153.501C88.3333 149.834 87.3 149.801 84.5 151.001C81.7659 152.173 83.7357 157.854 84.9161 161.259C84.9445 161.341 84.9725 161.422 85 161.501C83.8502 161.9 82.8244 162.208 81.8133 162.512C80.7361 162.835 79.6757 163.154 78.5 163.572C77.8333 159.764 75.8 152.718 73 155.001C70.2 157.284 72.5 162.745 74 165.19C62.5787 169.34 53.7191 172.928 53 174.27C49.5329 170.639 46.3237 166.483 43 162.501C44.1075 159.8 56.9188 154.99 71.5 150.339C73.956 149.556 76.4622 148.777 78.9712 148.014C80.4833 147.554 81.9963 147.099 83.5 146.653C85.6975 146 89.1225 144.612 91.2474 144.001C92.4053 143.668 93.2135 143.544 94.0126 143.421C94.7577 143.307 95.4948 143.193 96.5 142.913C98.6119 142.325 100.625 141.773 102.5 141.266C103.364 141.033 104.199 140.81 105 140.597Z" fill="#EFBC94"/>
<path d="M89 153.501C88.3333 149.834 87.3 149.801 84.5 151.001C81.7659 152.173 83.7357 157.854 84.9161 161.259L85 161.501C86.8595 160.855 89.0857 159.897 91.2474 159.001L89 153.501Z" fill="#5B5F5A"/>
<path fill-rule="evenodd" clip-rule="evenodd" d="M56 143.597C66 137.763 89 126.297 101 127.097L105 140.597C104.199 140.81 103.364 141.033 102.5 141.266C100.5 131.26 99.5 128.501 95.5 130.001C93.7606 130.871 93.9121 131.535 95.6256 139.05L95.6258 139.051C95.8825 140.177 96.1743 141.456 96.5 142.913C95.4948 143.193 94.7577 143.307 94.0126 143.421C93.2135 143.544 92.4053 143.668 91.2474 144.001C90.8783 142.993 90.5869 141.818 90.2918 140.628C89.2546 136.445 88.1711 132.076 83.5 134.097C81.6644 134.891 82.6667 142.467 83.5 146.653C81.9963 147.099 80.4833 147.554 78.9712 148.014C78.7141 147.277 78.4732 146.446 78.2238 145.585C76.9994 141.36 75.5693 136.424 71 138.501C67.3585 140.156 69.8333 147.258 71.5 150.339C56.9188 154.99 44.1075 159.8 43 162.501C40.7611 159.819 38.6972 157.26 37 155.097L56 143.597Z" fill="#FACEAB"/>
<path d="M96.5 142.913C98.6119 142.325 100.625 141.773 102.5 141.266C100.5 131.26 99.5 128.501 95.5 130.001C93.7606 130.871 93.9121 131.535 95.6256 139.05L95.6258 139.051C95.8825 140.177 96.1743 141.456 96.5 142.913Z" fill="#5B5F5A"/>
<path d="M103.5 83.501L105 89.2633L129.5 83.2387L128.5 78.001L103.5 83.501Z" fill="#5B5F5A"/>
</g>
<path d="M346.798 116.286L306.367 103.074L302.286 118.482L349.115 134.298C348.337 127.628 347.502 121.258 346.798 116.286Z" fill="#D5AC6B"/>
<path d="M349.115 134.298L302.286 118.482L298.3 133.532L313.285 139.611C315.49 133.006 317.959 127.945 320.236 128.147C326.233 128.679 329.733 128.697 329.197 135.694C329.112 136.799 328.816 138.351 328.372 140.19L350.812 150.807C350.357 145.509 349.756 139.801 349.115 134.298Z" fill="#EAC384"/>
<path d="M313.285 139.611L298.3 133.532L294.862 146.515L309.891 151.593C310.883 147.552 312.042 143.336 313.285 139.611Z" fill="#D2AE74"/>
<path d="M292.085 157C296.405 158.492 301.801 160.311 307.558 162.19C308.132 159.219 308.934 155.487 309.891 151.593L294.862 146.515L292.085 157Z" fill="#EAC384"/>
<path d="M324.05 154.667L351.62 164.312C351.546 160.538 351.246 155.859 350.812 150.807L328.372 140.19C327.406 144.2 325.742 149.576 324.05 154.667Z" fill="#D2AE74"/>
<path d="M320.037 166.165C334.76 170.724 348.595 174.483 350.5 173.306C351.418 172.739 351.718 169.325 351.62 164.312L324.05 154.667C322.588 159.067 321.106 163.254 320.037 166.165Z" fill="#EAC384"/>
<path d="M214.731 86.6262L206.151 135.099L234.491 140.353L243.306 91.7236L240.298 91.187L217.739 87.1628L214.731 86.6262Z" fill="#F2CB8B"/>
<path d="M220.998 70.0362L217.739 87.1628L240.298 91.187L243.052 73.7254L220.998 70.0362Z" fill="#CAA364"/>
<path d="M204.41 134.777L202.086 147.311L235.611 148.838L236.998 140.817L234.491 140.353L206.151 135.099L204.41 134.777Z" fill="#EDDCC0"/>
<rect x="203.559" y="131.083" width="37.0001" height="3.29474" rx="1.64737" transform="rotate(11.0648 203.559 131.083)" fill="#5B5F5A"/>
<rect x="206.326" y="116.248" width="37.0001" height="3.29474" rx="1.64737" transform="rotate(11.0648 206.326 116.248)" fill="#5B5F5A"/>
<rect x="208.114" y="101.221" width="37.0001" height="3.29474" rx="1.64737" transform="rotate(11.0648 208.114 101.221)" fill="#5B5F5A"/>
<rect x="217.54" y="68.085" width="31.1138" height="2.77058" rx="1.38529" transform="rotate(11.0648 217.54 68.085)" fill="#5B5F5A"/>
<rect width="20.4542" height="2.65213" rx="1.32606" transform="matrix(0.981411 0.191919 0.191919 -0.981411 222.992 69.6035)" fill="#5B5F5A"/>
<rect x="213.994" y="110.001" width="4.78195" height="10.0364" rx="2.39097" transform="rotate(11.4606 213.994 110.001)" fill="#5B5F5A"/>
<rect x="219.871" y="111.607" width="4.78195" height="9.41806" rx="2.39097" transform="rotate(11.4606 219.871 111.607)" fill="#5B5F5A"/>
<rect x="225.994" y="113.001" width="4.78195" height="10.0364" rx="2.39097" transform="rotate(11.4606 225.994 113.001)" fill="#5B5F5A"/>
<rect x="231.919" y="114.369" width="4.78195" height="9.66034" rx="2.39097" transform="rotate(11.4606 231.919 114.369)" fill="#5B5F5A"/>
<rect x="210.894" y="124.184" width="4.78195" height="10.0364" rx="2.39097" transform="rotate(11.4606 210.894 124.184)" fill="#5B5F5A"/>
<rect x="216.921" y="126.099" width="4.78195" height="10.0364" rx="2.39097" transform="rotate(11.4606 216.921 126.099)" fill="#5B5F5A"/>
<rect x="222.935" y="127.015" width="4.78195" height="10.0364" rx="2.39097" transform="rotate(11.4606 222.935 127.015)" fill="#5B5F5A"/>
<rect x="229.962" y="128.915" width="4.78195" height="10.0364" rx="2.39097" transform="rotate(11.4606 229.962 128.915)" fill="#5B5F5A"/>
<rect x="215.681" y="95.3652" width="4.78195" height="9.66677" rx="2.39097" transform="rotate(10.0134 215.681 95.3652)" fill="#5B5F5A"/>
<rect x="221.979" y="96.6152" width="4.78195" height="9.9564" rx="2.39097" transform="rotate(11.4606 221.979 96.6152)" fill="#5B5F5A"/>
<rect x="228.994" y="98.001" width="4.78195" height="10.0364" rx="2.39097" transform="rotate(11.4606 228.994 98.001)" fill="#5B5F5A"/>
<path d="M222.461 79.5654C222.812 77.8335 224.501 76.7143 226.233 77.0654C227.965 77.4167 229.084 79.1051 228.733 80.8369L227.336 87.7295C227.286 87.9757 227.208 88.2088 227.107 88.4277L221.007 87.3096C220.988 87.0308 221.006 86.7451 221.064 86.458L222.461 79.5654Z" fill="#5B5F5A"/>
<path d="M231.334 82.5977C231.731 80.8842 233.456 79.7444 235.188 80.0518C236.919 80.3594 238.003 81.9982 237.606 83.7119L236.373 89.041C236.293 89.385 236.159 89.7054 235.983 89.9961L230.047 89.042C229.998 88.6831 230.013 88.3067 230.101 87.9268L231.334 82.5977Z" fill="#5B5F5A"/>
<rect x="234.876" y="99.584" width="4.78195" height="9.44183" rx="2.39097" transform="rotate(11.4606 234.876 99.584)" fill="#5B5F5A"/>
<rect x="227.018" y="142.956" width="6.84099" height="10.0364" rx="3.4205" transform="rotate(10.6312 227.018 142.956)" fill="#5B5F5A"/>
<rect x="216.119" y="140.422" width="6.84099" height="10.7374" rx="3.4205" transform="rotate(10.6312 216.119 140.422)" fill="#5B5F5A"/>
<rect x="206.571" y="137.09" width="6.84099" height="13.2547" rx="3.4205" transform="rotate(10.6312 206.571 137.09)" fill="#5B5F5A"/>
<mask id="mask1_228_192" style="mask-type:alpha" maskUnits="userSpaceOnUse" x="43" y="0" width="310" height="310">
<circle cx="198" cy="154.501" r="154.5" fill="url(#paint2_linear_228_192)"/>
</mask>
<g mask="url(#mask1_228_192)">
<ellipse cx="217.5" cy="290.501" rx="236.5" ry="143.5" fill="url(#paint3_linear_228_192)"/>
<mask id="mask2_228_192" style="mask-type:alpha" maskUnits="userSpaceOnUse" x="-19" y="147" width="473" height="288">
<ellipse cx="217.5" cy="290.501" rx="236.5" ry="143.5" fill="url(#paint4_linear_228_192)"/>
</mask>
<g mask="url(#mask2_228_192)">
<path d="M84.5002 198.024C82.1002 188.024 88.5002 174.524 92.0002 169.024C97.0003 166.024 146.5 152.524 146.5 154.524C146.5 156.524 135 165.024 133.5 168.024C132 171.024 122 173.524 120.5 177.524C119.3 180.724 116.667 181.19 115.5 181.024C110 178.524 98.8 176.624 98 189.024C97 204.524 111 199.524 112 199.524C113 199.524 117 193.524 118.5 192.024C120 190.524 123.5 193.524 123.5 197.024C123.5 200.524 121 197.024 118.5 199.524C116 202.024 124.5 204.524 126 205.524C127.5 206.524 131 205.524 137 202.524C141.8 200.124 180.667 210.857 199.5 216.524C200.667 224.69 196.2 245.024 169 261.024C141.8 277.024 119.667 256.69 112 244.524C117 233.857 126.8 212.024 126 210.024C125 207.524 114.5 203.024 112 203.524C109.5 204.024 101 211.024 96.5 211.524C92 212.024 89 193.524 88 193.524C87.2 193.524 88.3333 198.19 89 200.524C88.5001 203.857 86.9002 208.024 84.5002 198.024Z" fill="#FFA9A7"/>
<path d="M243 151.524C249.252 149.197 245.5 150.001 260.5 149.501C291.5 147.001 350.5 174.024 352.5 175.024C354.1 175.824 381.5 219.357 395 241.024C363.333 251.524 298.9 272.724 294.5 273.524C289 274.524 270.5 268.024 270.5 267.024C270.5 266.024 262.5 241.524 256.5 229.024C250.5 216.524 258.5 211.524 259.5 204.024C260.3 198.024 255.833 196.857 253.5 197.024C250.5 198.19 242.3 199.824 233.5 197.024C222.5 193.524 226.5 177.524 234.5 170.024C240.9 164.024 264.833 171.857 276 176.524C280.167 177.524 289.4 178.924 293 176.524C296.6 174.124 305.167 180.857 309 184.524C311.4 184.524 315.667 195.19 317.5 200.524C320.667 201.857 327 205.124 327 207.524C327 210.524 310 220.524 308 226.024C306 231.524 302 251.024 309 262.024C316 273.024 370.5 213.524 370 210.024C369.5 206.523 346 189.024 344 188.024C342 187.024 326 171.024 323 169.024C320.6 167.423 322 172.357 323 175.024C322.5 180.024 339.5 186.524 341 192.024C342.5 197.523 326 198.024 322 198.024C318 198.024 310 174.024 309 175.024C308 176.024 306 177.524 305 175.024C304 172.524 305.5 173.524 305 165.524C304.5 157.524 297 159.024 294.5 159.024C292 159.024 292 165.524 288.5 165.524C285.7 165.524 281.667 156.857 280 152.524L278 151.024C277.667 151.024 277 151.724 277 154.524C277 158.024 279.5 162.524 277 163.524C274.5 164.524 275 165.524 271.5 165.524C268 165.524 269.5 166.024 270.5 162.524C271.5 159.024 274.5 162.524 275 161.024C275.5 159.524 270 154.524 268 153.524C266 152.524 260 153.024 256.5 153.524C253 154.024 248 160.524 245.5 162.524C243 164.524 239 163.524 236.5 161.024C234 158.524 235 154.501 243 151.524Z" fill="#FFA9A7"/>
<path d="M84.5002 198.024C82.1002 188.024 88.5002 174.524 92.0002 169.024C97.0003 166.024 146.5 152.524 146.5 154.524C146.5 156.524 135 165.024 133.5 168.024C132 171.024 122 173.524 120.5 177.524C119.3 180.724 116.667 181.19 115.5 181.024C110 178.524 98.8 176.624 98 189.024C97 204.524 111 199.524 112 199.524C113 199.524 117 193.524 118.5 192.024C120 190.524 123.5 193.524 123.5 197.024C123.5 200.524 121 197.024 118.5 199.524C116 202.024 124.5 204.524 126 205.524C127.5 206.524 131 205.524 137 202.524C141.8 200.124 180.667 210.857 199.5 216.524C200.667 224.69 196.2 245.024 169 261.024C141.8 277.024 119.667 256.69 112 244.524C117 233.857 126.8 212.024 126 210.024C125 207.524 114.5 203.024 112 203.524C109.5 204.024 101 211.024 96.5 211.524C92 212.024 89 193.524 88 193.524C87.2 193.524 88.3333 198.19 89 200.524C88.5001 203.857 86.9002 208.024 84.5002 198.024Z" stroke="#FFA9A7"/>
<path d="M243 151.524C249.252 149.197 245.5 150.001 260.5 149.501C291.5 147.001 350.5 174.024 352.5 175.024C354.1 175.824 381.5 219.357 395 241.024C363.333 251.524 298.9 272.724 294.5 273.524C289 274.524 270.5 268.024 270.5 267.024C270.5 266.024 262.5 241.524 256.5 229.024C250.5 216.524 258.5 211.524 259.5 204.024C260.3 198.024 255.833 196.857 253.5 197.024C250.5 198.19 242.3 199.824 233.5 197.024C222.5 193.524 226.5 177.524 234.5 170.024C240.9 164.024 264.833 171.857 276 176.524C280.167 177.524 289.4 178.924 293 176.524C296.6 174.124 305.167 180.857 309 184.524C311.4 184.524 315.667 195.19 317.5 200.524C320.667 201.857 327 205.124 327 207.524C327 210.524 310 220.524 308 226.024C306 231.524 302 251.024 309 262.024C316 273.024 370.5 213.524 370 210.024C369.5 206.523 346 189.024 344 188.024C342 187.024 326 171.024 323 169.024C320.6 167.423 322 172.357 323 175.024C322.5 180.024 339.5 186.524 341 192.024C342.5 197.523 326 198.024 322 198.024C318 198.024 310 174.024 309 175.024C308 176.024 306 177.524 305 175.024C304 172.524 305.5 173.524 305 165.524C304.5 157.524 297 159.024 294.5 159.024C292 159.024 292 165.524 288.5 165.524C285.7 165.524 281.667 156.857 280 152.524L278 151.024C277.667 151.024 277 151.724 277 154.524C277 158.024 279.5 162.524 277 163.524C274.5 164.524 275 165.524 271.5 165.524C268 165.524 269.5 166.024 270.5 162.524C271.5 159.024 274.5 162.524 275 161.024C275.5 159.524 270 154.524 268 153.524C266 152.524 260 153.024 256.5 153.524C253 154.024 248 160.524 245.5 162.524C243 164.524 239 163.524 236.5 161.024C234 158.524 235 154.501 243 151.524Z" stroke="#FFA9A7"/>
</g>
</g>
<path d="M165.77 169.318L214.064 158.453C215.788 165.496 218.328 176.265 220.264 185.37C218.242 183.455 209.267 186.089 205.032 187.645C202.441 187.075 198.354 180.588 193.61 180.667C188.866 180.747 178.162 186.447 175.727 185.843C173.779 185.359 170.021 184.109 168.386 183.544L165.77 169.318Z" fill="#9CCEFF"/>
<path fill-rule="evenodd" clip-rule="evenodd" d="M222.925 202.219C221.916 204.158 189.787 210.388 173.849 213.26L169.345 188.76C172.189 189.272 179.034 189.741 183.657 187.515C189.435 184.734 192.642 182.202 194.174 183.174C195.706 184.146 199.763 191.958 202.42 191.36C205.077 190.762 218.583 185.748 220.955 188.672C222.424 195.841 223.354 201.394 222.925 202.219ZM186.075 193.885C185.24 193.678 183.391 195.092 182.571 195.825C181.357 195.056 178.633 193.65 177.439 194.182C176.245 194.714 178.06 196.456 179.117 197.261C178.076 197.989 176.073 199.789 176.383 201.168C176.693 202.546 179.04 202.271 180.174 201.961C180.172 203.168 180.593 205.718 182.29 206.258C183.988 206.798 184.39 203.427 184.379 201.673C185.822 202.007 188.792 202.458 189.123 201.594C189.454 200.729 186.821 199.149 185.464 198.467C186.015 197.026 186.91 194.092 186.075 193.885Z" fill="#FFE4BB"/>
<path d="M182.571 195.825C183.391 195.092 185.24 193.678 186.075 193.885C186.91 194.092 186.015 197.026 185.464 198.467C186.821 199.149 189.454 200.729 189.123 201.594C188.792 202.458 185.822 202.007 184.379 201.673C184.39 203.427 183.988 206.798 182.29 206.258C180.593 205.718 180.172 203.168 180.174 201.961C179.04 202.271 176.693 202.546 176.383 201.168C176.073 199.789 178.076 197.989 179.117 197.261C178.06 196.456 176.245 194.714 177.439 194.182C178.633 193.65 181.357 195.056 182.571 195.825Z" fill="#FEA062"/>
<path fill-rule="evenodd" clip-rule="evenodd" d="M217.055 153.501L195.955 158.248C193.705 158.754 170.865 163.014 159.726 165.081C163.064 183.808 169.77 221.552 169.899 222.708C170.028 223.864 171.551 230.292 172.296 233.362C187.665 229.904 218.743 223.044 220.106 223.264C221.469 223.484 229.332 220.969 233.093 219.684C230.144 208.277 224.104 184.836 223.54 182.329C222.835 179.195 221.991 170.332 221.638 168.765C221.286 167.199 218.587 154.473 217.055 153.501ZM214.064 158.453L165.77 169.318L168.386 183.544L169.345 188.76L173.849 213.26C189.787 210.388 221.916 204.158 222.925 202.219C223.354 201.394 222.424 195.841 220.955 188.672C220.736 187.603 220.505 186.5 220.264 185.37C218.328 176.265 215.788 165.496 214.064 158.453Z" fill="#FFFEF0"/>
<path d="M193.61 180.667C198.354 180.588 202.441 187.075 205.032 187.645C209.267 186.089 218.242 183.455 220.264 185.37C220.505 186.5 220.736 187.603 220.955 188.672C218.583 185.748 205.077 190.762 202.42 191.36C199.763 191.958 195.706 184.146 194.174 183.174C192.642 182.202 189.435 184.734 183.657 187.515C179.034 189.741 172.189 189.272 169.345 188.76L168.386 183.544C170.021 184.109 173.779 185.359 175.727 185.843C178.162 186.447 188.866 180.747 193.61 180.667Z" fill="#E2EEFB"/>
<g filter="url(#filter0_d_228_192)">
<mask id="mask3_228_192" style="mask-type:alpha" maskUnits="userSpaceOnUse" x="0" y="137" width="358" height="200">
<path d="M45.5 153.784C61.1667 173.604 93.4 213.916 97 216.601L127.5 200.777L162.5 216.601L192 209.888L244 230.987L284 211.326L312 213.724C323.833 199.178 347.9 168.841 349.5 163.854C351.1 158.867 352.167 154.104 352.5 152.346L358 227.63L269 336.001L32.5 291.885L0 137.001L45.5 153.784Z" fill="black"/>
</mask>
<g mask="url(#mask3_228_192)">
<ellipse cx="198" cy="161.501" rx="154" ry="147.5" fill="url(#paint5_radial_228_192)"/>
</g>
</g>
<path d="M173.405 97.7585L200.347 147.068L212.846 147.21L173.405 97.7585Z" fill="#EAC384"/>
<path d="M173.405 97.7585L143.759 154.425L200.347 147.068L173.405 97.7585Z" fill="#5B5F5A"/>
<path d="M174.888 55.2726C175.288 55.2771 177.324 60.9435 178.291 63.7761L185.792 60.3968C183.165 58.0335 177.71 53.3045 176.91 53.2954C175.911 53.2841 174.388 55.2669 174.888 55.2726Z" fill="#5B5F5A"/>
<path d="M185.069 83.39L187.074 66.4117C184.82 67.3237 182.48 68.2568 180.231 69.1459L181.547 85.3502L185.069 83.39Z" fill="#5B5F5A"/>
<path d="M160.951 74.6146C160.843 75.7804 160.726 78.2132 161.122 78.6177C161.616 79.1233 163.116 79.1404 163.122 78.6404C163.126 78.2404 163.488 75.7599 163.668 74.5696C162.673 74.6085 161.68 74.6185 160.951 74.6146Z" fill="#5B5F5A"/>
<path d="M165.224 69.6637L155.764 66.056L153.742 68.0332L160.667 74.6123C160.756 74.6133 160.851 74.6141 160.951 74.6146C161.68 74.6185 162.673 74.6085 163.668 74.5696C165.083 74.5144 166.503 74.4009 167.172 74.1862C167.813 73.9807 173.635 71.7526 180.231 69.1459C182.48 68.2568 184.82 67.3237 187.074 66.4117C193.748 63.7125 199.678 61.1988 200.329 60.5619C201.543 59.3756 199.862 57.7231 198.869 57.0451L193.37 56.9826L185.792 60.3968L178.291 63.7761L165.224 69.6637Z" fill="#D9D9D9"/>
<path d="M144.458 48.9265C144.282 49.7579 144.628 51.5286 147.424 51.9604C150.918 52.5001 160.99 52.1145 161.263 47.1173C162.993 47.9703 166.562 48.7776 167.002 45.1824C167.443 41.5871 165.538 41.9988 164.531 42.6541C164.879 41.3247 164.875 38.7579 162.071 39.1261C160.758 37.2777 157.521 34.674 155.071 39.0466C153.248 38.1925 149.492 37.1832 149.06 39.9785C147.418 37.793 143.416 35.0141 140.544 41.3818C140.373 41.7133 140.231 42.4784 141.027 42.8874C138.836 45.0291 136.454 49.2354 144.458 48.9265Z" fill="#FFD4D0"/>
<path d="M249.914 58.8035C249.738 59.6349 250.085 61.4056 252.88 61.8374C256.374 62.3771 266.446 61.9915 266.72 56.9943C268.449 57.8473 272.018 58.6546 272.459 55.0594C272.899 51.4641 270.994 51.8758 269.987 52.5311C270.336 51.2017 270.331 48.6349 267.527 49.0031C266.215 47.1547 262.977 44.551 260.527 48.9236C258.704 48.0695 254.948 47.0602 254.516 49.8555C252.875 47.67 248.873 44.8911 246 51.2588C245.83 51.5903 245.688 52.3554 246.483 52.7644C244.292 54.9061 241.91 59.1124 249.914 58.8035Z" fill="#FFD4D0"/>
<path d="M166 113.501L170.75 112.751M175.5 112.001L170.75 112.751M170.75 112.751V110.501M170.75 110.501H169M170.75 110.501L174.5 110.001" stroke="#CEA889"/>
<path d="M156 133.001L166.938 130.501M173.5 129.001L166.938 130.501M166.938 130.501L166.5 128.001M166.5 128.001L161.5 129.001M166.5 128.001L175 126.001" stroke="#CEA889"/>
<path d="M149 146.001L153 145.001M157 144.001L153 145.001M153 145.001L153.5 148.501M153.5 148.501L164.5 146.501M153.5 148.501L150.25 149.001M147 149.501L150.25 149.001M150.25 149.001V152.501" stroke="#CEA889"/>
<path d="M169 143.001L181 141.589M194.5 140.001L185.5 141.06M185.5 141.06L185 138.001M185.5 141.06L181 141.589M185 138.001L193 137.001M185 138.001L180.25 138.501M175.5 139.001L179 138.633M180.25 138.501L181 141.589M180.25 138.501L179 138.633M179 138.633L178.5 137.001L168 139.001" stroke="#CEA889"/>
<path d="M169 71.4939L189.33 63.8158" stroke="black"/>
<circle cx="118.5" cy="97.501" r="9" stroke="black"/>
<rect x="114.945" y="112.391" width="2" height="9.70059" transform="rotate(-11.267 114.945 112.391)" fill="#CEA889"/>
<rect x="119" y="111.392" width="2" height="9.70059" transform="rotate(-11.267 119 111.392)" fill="#CEA889"/>
<rect x="123" y="110.392" width="2" height="9.70059" transform="rotate(-11.267 123 110.392)" fill="#CEA889"/>
<rect x="127" y="109.392" width="2" height="9.70059" transform="rotate(-11.267 127 109.392)" fill="#CEA889"/>
<rect x="118" y="125.983" width="1.75974" height="8.53526" transform="rotate(-11.267 118 125.983)" fill="#9C816B"/>
<rect x="121.567" y="125.104" width="1.75974" height="8.53526" transform="rotate(-11.267 121.567 125.104)" fill="#9C816B"/>
<rect x="125.087" y="124.225" width="1.75974" height="8.53526" transform="rotate(-11.267 125.087 124.225)" fill="#9C816B"/>
<rect x="128.606" y="123.345" width="1.75974" height="8.53526" transform="rotate(-11.267 128.606 123.345)" fill="#9C816B"/>
<rect x="122" y="139.558" width="1.50836" height="7.31599" transform="rotate(-11.267 122 139.558)" fill="#705640"/>
<rect x="125.058" y="138.805" width="1.50836" height="7.31599" transform="rotate(-11.267 125.058 138.805)" fill="#705640"/>
<rect x="128.074" y="138.051" width="1.50836" height="7.31599" transform="rotate(-11.267 128.074 138.051)" fill="#705640"/>
<rect x="131.091" y="137.296" width="1.50836" height="7.31599" transform="rotate(-11.267 131.091 137.296)" fill="#705640"/>
<rect x="125" y="151.345" width="1.38272" height="6.70659" transform="rotate(-11.267 125 151.345)" fill="black"/>
<rect x="127.803" y="150.654" width="1.38272" height="6.70659" transform="rotate(-11.267 127.803 150.654)" fill="black"/>
<rect x="130.568" y="149.964" width="1.38272" height="6.70659" transform="rotate(-11.267 130.568 149.964)" fill="black"/>
<rect x="133.334" y="149.271" width="1.38272" height="6.70659" transform="rotate(-11.267 133.334 149.271)" fill="black"/>
<line x1="117.495" y1="90.9303" x2="118.495" y2="97.9303" stroke="black"/>
<line x1="117.495" y1="90.9303" x2="118.495" y2="97.9303" stroke="black"/>
<line x1="117.495" y1="90.9303" x2="118.495" y2="97.9303" stroke="black"/>
<line x1="124.78" y1="98.9048" x2="117.95" y2="97.0747" stroke="black"/>
<line x1="124.78" y1="98.9048" x2="117.95" y2="97.0747" stroke="black"/>
<line x1="124.78" y1="98.9048" x2="117.95" y2="97.0747" stroke="black"/>
<circle cx="307.231" cy="129.084" r="4" transform="rotate(0.299781 307.231 129.084)" fill="#5B5F5A"/>
<path fill-rule="evenodd" clip-rule="evenodd" d="M256.173 129.411L242.222 146.043L239.737 145.476L239 148.001L254.5 149.501L254.691 147.378L252.205 146.811L258.958 137.489C279.597 128.839 286.976 143.409 288.085 151.775L285.586 151.708L285 153.501L300.014 156.001L300.014 154.596L298.028 154.042L289.567 133.808L289.661 130.309C289.693 129.11 288.693 129.116 288.189 129.27L290.768 126.338L285.77 126.204L283.24 108.63L268.786 106.741L261.373 122.048L257.374 121.941L259.306 124.493L256.28 125.413L256.173 129.411ZM278.608 113.507L272.137 112.333L268.343 123.235L279.312 124.53L278.608 113.507Z" fill="#5B5F5A"/>
<path d="M282.903 46.5982L269.919 101.77L273.408 102.252L281.827 68.077L279.388 103.08L283.374 103.631C284.366 85.318 286.659 48.2995 287.902 46.7322C289.455 44.7732 286.969 44.2063 287.996 43.2335C288.604 42.6571 287.993 41.6967 287.082 41.0014C286.456 40.5233 285.688 40.1705 285.077 40.1541C283.578 40.1139 284.024 42.1266 282.997 43.0994C282.176 43.8777 282.593 45.7562 282.903 46.5982Z" fill="#5B5F5A"/>
<path d="M269.919 101.77C267.11 102.095 267.993 105.219 268.786 106.741L283.24 108.63C285.725 105.495 284.365 103.991 283.374 103.631L279.388 103.08L273.408 102.252L269.919 101.77Z" fill="#5B5F5A"/>
<path d="M285.077 40.1541C285.688 40.1705 286.456 40.5233 287.082 41.0014L287.5 31.5014L285.077 40.1541Z" fill="#5B5F5A"/>
<rect x="285.678" y="92.001" width="37.0001" height="3.29474" rx="1.64737" transform="rotate(11.8733 285.678 92.001)" fill="#D9D9D9"/>
<defs>
<filter id="filter0_d_228_192" x="40" y="137.001" width="316" height="180" filterUnits="userSpaceOnUse" color-interpolation-filters="sRGB">
<feFlood flood-opacity="0" result="BackgroundImageFix"/>
<feColorMatrix in="SourceAlpha" type="matrix" values="0 0 0 0 0 0 0 0 0 0 0 0 0 0 0 0 0 0 127 0" result="hardAlpha"/>
<feOffset dy="4"/>
<feGaussianBlur stdDeviation="2"/>
<feComposite in2="hardAlpha" operator="out"/>
<feColorMatrix type="matrix" values="0 0 0 0 0 0 0 0 0 0 0 0 0 0 0 0 0 0 0.25 0"/>
<feBlend mode="normal" in2="BackgroundImageFix" result="effect1_dropShadow_228_192"/>
<feBlend mode="normal" in="SourceGraphic" in2="effect1_dropShadow_228_192" result="shape"/>
</filter>
<linearGradient id="paint0_linear_228_192" x1="198" y1="0.000976562" x2="198" y2="309.001" gradientUnits="userSpaceOnUse">
<stop stop-color="#FFA9A7"/>
<stop offset="1" stop-color="#FDD69F"/>
</linearGradient>
<linearGradient id="paint1_linear_228_192" x1="198" y1="0.000976562" x2="198" y2="309.001" gradientUnits="userSpaceOnUse">
<stop stop-color="#FFA9A7"/>
<stop offset="1" stop-color="#FDD69F"/>
</linearGradient>
<linearGradient id="paint2_linear_228_192" x1="198" y1="0.000976562" x2="198" y2="309.001" gradientUnits="userSpaceOnUse">
<stop stop-color="#FFA9A7"/>
<stop offset="1" stop-color="#FDD69F"/>
</linearGradient>
<linearGradient id="paint3_linear_228_192" x1="217.5" y1="147.001" x2="217.5" y2="434.001" gradientUnits="userSpaceOnUse">
<stop stop-color="#DBE9F1"/>
<stop offset="1" stop-color="#FFDCF9"/>
</linearGradient>
<linearGradient id="paint4_linear_228_192" x1="217.5" y1="147.001" x2="217.5" y2="434.001" gradientUnits="userSpaceOnUse">
<stop stop-color="#DBE9F1"/>
<stop offset="1" stop-color="#FFDCF9"/>
</linearGradient>
<radialGradient id="paint5_radial_228_192" cx="0" cy="0" r="1" gradientUnits="userSpaceOnUse" gradientTransform="translate(198 161.501) rotate(90) scale(147.5 154)">
<stop stop-color="#DECABA"/>
<stop offset="1" stop-color="#FFB274"/>
</radialGradient>
</defs>
</svg>
