<svg width="19" height="18" viewBox="0 0 19 18" fill="none" xmlns="http://www.w3.org/2000/svg">
<path d="M1 17H17.9663M1 13.5839C1 13.5839 2.87002 13.3321 3.95067 12.8248C7.52757 11.1456 5.61308 7.13058 8.00783 4.4161C9.37456 2.8669 10.4652 1.43994 12.065 1.05819C13.8006 0.644044 16.491 2.57629 16.491 2.57629C16.491 2.57629 17.8375 3.79315 17.9663 4.85386C18.1261 6.16944 17.7307 7.52957 16.491 7.89039C15.4354 8.19762 14.3834 7.76963 13.9092 6.75169C13.5978 6.08339 13.9092 4.85386 13.9092 4.85386C13.9092 4.85386 12.4308 6.54361 12.065 7.89039C11.716 9.17522 11.5529 9.86464 12.065 10.9269C12.6689 12.1796 13.701 12.4711 15.0157 12.8248C16.1305 13.1247 17.9663 12.8248 17.9663 12.8248" stroke="#62635E" stroke-width="2"/>
</svg>
