<svg width="88" height="88" viewBox="0 0 88 88" fill="none" xmlns="http://www.w3.org/2000/svg">
<path d="M32.0746 65.6508L13.165 59.0508L26.1381 31.3413L36.9111 33.2969L32.0746 65.6508Z" fill="#B9A499"/>
<path d="M32.0747 65.6508L52.0493 59.0159L48.2779 31.3413L36.9112 33.2969L32.0747 65.6508Z" fill="#CCBDB5"/>
<path d="M75.9175 65.6508L52.0493 59.0159L48.2778 31.3413L60.2207 33.2969L75.9175 65.6508Z" fill="#D0B9AC"/>
<path d="M56.9208 36.2126L48.7319 34.7111L51.3859 54.2142L66.6986 58.3174L56.9208 36.2126Z" fill="#84DBFF"/>
<path d="M27.9191 35.1476L18.3159 56.1698L32.6858 60.6222L36.3524 36.6666L27.9191 35.1476Z" fill="#84DBFF"/>
<path d="M48.6712 34.2858L35.8095 36.2696L32 60.5715L51.4286 54.0709L48.6712 34.2858Z" fill="#54C0EB"/>
<path d="M57.933 24.4269C57.933 32.2841 43.7028 49.4476 43.7028 49.4476C43.7028 49.4476 29.4727 32.2841 29.4727 24.4269C29.4727 16.5698 35.8457 10.1968 43.7028 10.1968C51.56 10.1968 57.933 16.5523 57.933 24.4269Z" fill="#F1543F"/>
<path d="M43.6857 30.4682C47.6683 30.4682 50.8968 27.2397 50.8968 23.2571C50.8968 19.2745 47.6683 16.046 43.6857 16.046C39.7031 16.046 36.4746 19.2745 36.4746 23.2571C36.4746 27.2397 39.7031 30.4682 43.6857 30.4682Z" fill="white"/>
</svg>
