<svg width="97" height="45" viewBox="0 0 97 45" fill="none" xmlns="http://www.w3.org/2000/svg">
<rect width="96" height="42" rx="3" fill="#C2BDBD"/>
<g filter="url(#filter0_d_2644_1208)">
<rect x="4" y="3" width="89" height="34" fill="#D9D9D9"/>
</g>
<path d="M14.9599 25L17.2979 15.2H20.7699L23.1079 25H21.1759L20.6999 22.9H17.3679L16.8919 25H14.9599ZM17.7599 21.136H20.2939L19.1599 16.124H18.9079L17.7599 21.136ZM27.5362 25.196C26.8549 25.196 26.2389 25.0607 25.6882 24.79C25.1375 24.51 24.6989 24.1087 24.3722 23.586C24.0549 23.054 23.8962 22.4147 23.8962 21.668V21.5C23.8962 20.7533 24.0595 20.1093 24.3862 19.568C24.7129 19.0173 25.1515 18.5973 25.7022 18.308C26.2529 18.0093 26.8642 17.86 27.5362 17.86C28.5069 17.86 29.2955 18.112 29.9022 18.616C30.5089 19.12 30.8869 19.7827 31.0362 20.604L29.3002 21.052C29.2442 20.6413 29.0669 20.2867 28.7682 19.988C28.4695 19.6893 28.0495 19.54 27.5082 19.54C27.0042 19.54 26.5702 19.7173 26.2062 20.072C25.8422 20.4267 25.6602 20.9167 25.6602 21.542V21.626C25.6602 22.2513 25.8422 22.7227 26.2062 23.04C26.5702 23.3573 27.0042 23.516 27.5082 23.516C28.0495 23.516 28.4602 23.3807 28.7402 23.11C29.0295 22.8393 29.2162 22.4753 29.3002 22.018L31.0362 22.452C30.8869 23.2733 30.5135 23.936 29.9162 24.44C29.3189 24.944 28.5255 25.196 27.5362 25.196ZM35.9545 25.196C35.2731 25.196 34.6571 25.0607 34.1065 24.79C33.5558 24.51 33.1171 24.1087 32.7905 23.586C32.4731 23.054 32.3145 22.4147 32.3145 21.668V21.5C32.3145 20.7533 32.4778 20.1093 32.8045 19.568C33.1311 19.0173 33.5698 18.5973 34.1205 18.308C34.6711 18.0093 35.2825 17.86 35.9545 17.86C36.9251 17.86 37.7138 18.112 38.3205 18.616C38.9271 19.12 39.3051 19.7827 39.4545 20.604L37.7185 21.052C37.6625 20.6413 37.4851 20.2867 37.1865 19.988C36.8878 19.6893 36.4678 19.54 35.9265 19.54C35.4225 19.54 34.9885 19.7173 34.6245 20.072C34.2605 20.4267 34.0785 20.9167 34.0785 21.542V21.626C34.0785 22.2513 34.2605 22.7227 34.6245 23.04C34.9885 23.3573 35.4225 23.516 35.9265 23.516C36.4678 23.516 36.8785 23.3807 37.1585 23.11C37.4478 22.8393 37.6345 22.4753 37.7185 22.018L39.4545 22.452C39.3051 23.2733 38.9318 23.936 38.3345 24.44C37.7371 24.944 36.9438 25.196 35.9545 25.196ZM44.3587 25.196C43.6681 25.196 43.0567 25.0513 42.5247 24.762C41.9927 24.4633 41.5774 24.0387 41.2787 23.488C40.9801 22.9373 40.8307 22.2747 40.8307 21.5V21.416C40.8307 20.7067 40.9894 20.086 41.3067 19.554C41.6241 19.022 42.0441 18.6067 42.5667 18.308C43.0987 18.0093 43.6867 17.86 44.3307 17.86C44.9281 17.86 45.4414 17.9627 45.8707 18.168C46.3001 18.3733 46.6501 18.6393 46.9207 18.966C47.2007 19.2927 47.4061 19.652 47.5367 20.044C47.6767 20.4267 47.7467 20.8 47.7467 21.164V22.102H42.6507C42.6694 22.5127 42.8421 22.8533 43.1687 23.124C43.4954 23.3853 43.8827 23.516 44.3307 23.516C44.7694 23.516 45.1054 23.4367 45.3387 23.278C45.5814 23.1193 45.7494 22.9373 45.8427 22.732L47.3547 23.572C47.2521 23.8053 47.0794 24.048 46.8367 24.3C46.6034 24.552 46.2861 24.7667 45.8847 24.944C45.4834 25.112 44.9747 25.196 44.3587 25.196ZM42.6787 20.59H45.9547C45.8987 20.2633 45.7214 19.9927 45.4227 19.778C45.1334 19.5633 44.7647 19.456 44.3167 19.456C43.8781 19.456 43.5141 19.5727 43.2247 19.806C42.9447 20.03 42.7627 20.2913 42.6787 20.59ZM49.151 27.8V18.056H50.915V19.064H51.167C51.3537 18.6813 51.6243 18.3873 51.979 18.182C52.343 17.9673 52.7957 17.86 53.337 17.86C53.8877 17.86 54.3917 18 54.849 18.28C55.3063 18.56 55.675 18.966 55.955 19.498C56.235 20.0207 56.375 20.6553 56.375 21.402V21.654C56.375 22.41 56.2397 23.054 55.969 23.586C55.6983 24.1087 55.3343 24.51 54.877 24.79C54.4197 25.0607 53.9063 25.196 53.337 25.196C52.7117 25.196 52.231 25.0747 51.895 24.832C51.5683 24.58 51.3257 24.3 51.167 23.992H50.915V27.8H49.151ZM52.763 23.516C53.3137 23.516 53.757 23.3433 54.093 22.998C54.4383 22.6527 54.611 22.1907 54.611 21.612V21.444C54.611 20.8653 54.4383 20.4033 54.093 20.058C53.757 19.7127 53.3137 19.54 52.763 19.54C52.2217 19.54 51.7783 19.7173 51.433 20.072C51.0877 20.4173 50.915 20.8747 50.915 21.444V21.612C50.915 22.1813 51.0877 22.6433 51.433 22.998C51.7783 23.3433 52.2217 23.516 52.763 23.516ZM60.8733 25C60.5559 25 60.2946 24.8973 60.0893 24.692C59.8933 24.4867 59.7953 24.2253 59.7953 23.908V19.736H57.7373V18.056H59.7953V15.2H61.5593V18.056H64.0653V19.736H61.5593V22.9C61.5593 23.18 61.6853 23.32 61.9373 23.32H63.8133V25H60.8733ZM69.6135 25.196C68.9229 25.196 68.3115 25.0513 67.7795 24.762C67.2475 24.4633 66.8322 24.0387 66.5335 23.488C66.2349 22.9373 66.0855 22.2747 66.0855 21.5V21.416C66.0855 20.7067 66.2442 20.086 66.5615 19.554C66.8789 19.022 67.2989 18.6067 67.8215 18.308C68.3535 18.0093 68.9415 17.86 69.5855 17.86C70.1829 17.86 70.6962 17.9627 71.1255 18.168C71.5549 18.3733 71.9049 18.6393 72.1755 18.966C72.4555 19.2927 72.6609 19.652 72.7915 20.044C72.9315 20.4267 73.0015 20.8 73.0015 21.164V22.102H67.9055C67.9242 22.5127 68.0969 22.8533 68.4235 23.124C68.7502 23.3853 69.1375 23.516 69.5855 23.516C70.0242 23.516 70.3602 23.4367 70.5935 23.278C70.8362 23.1193 71.0042 22.9373 71.0975 22.732L72.6095 23.572C72.5069 23.8053 72.3342 24.048 72.0915 24.3C71.8582 24.552 71.5409 24.7667 71.1395 24.944C70.7382 25.112 70.2295 25.196 69.6135 25.196ZM67.9335 20.59H71.2095C71.1535 20.2633 70.9762 19.9927 70.6775 19.778C70.3882 19.5633 70.0195 19.456 69.5715 19.456C69.1329 19.456 68.7689 19.5727 68.4795 19.806C68.1995 20.03 68.0175 20.2913 67.9335 20.59ZM74.2658 25V23.32H75.6938V19.736H74.4338V18.056H77.3738V19.064H77.6258C77.7565 18.6813 77.9805 18.3873 78.2978 18.182C78.6151 17.9673 78.9885 17.86 79.4178 17.86C80.1085 17.86 80.6638 18.0793 81.0838 18.518C81.5038 18.9473 81.7138 19.6053 81.7138 20.492V20.8L79.8938 20.968V20.772C79.8938 20.3893 79.7958 20.086 79.5998 19.862C79.4038 19.6287 79.1098 19.512 78.7178 19.512C78.3258 19.512 78.0178 19.6473 77.7938 19.918C77.5698 20.1887 77.4578 20.576 77.4578 21.08V23.32H79.0538V25H74.2658Z" fill="#62635E"/>
<defs>
<filter id="filter0_d_2644_1208" x="0" y="3" width="97" height="42" filterUnits="userSpaceOnUse" color-interpolation-filters="sRGB">
<feFlood flood-opacity="0" result="BackgroundImageFix"/>
<feColorMatrix in="SourceAlpha" type="matrix" values="0 0 0 0 0 0 0 0 0 0 0 0 0 0 0 0 0 0 127 0" result="hardAlpha"/>
<feOffset dy="4"/>
<feGaussianBlur stdDeviation="2"/>
<feComposite in2="hardAlpha" operator="out"/>
<feColorMatrix type="matrix" values="0 0 0 0 0 0 0 0 0 0 0 0 0 0 0 0 0 0 0.25 0"/>
<feBlend mode="normal" in2="BackgroundImageFix" result="effect1_dropShadow_2644_1208"/>
<feBlend mode="normal" in="SourceGraphic" in2="effect1_dropShadow_2644_1208" result="shape"/>
</filter>
</defs>
</svg>
