<svg width="64" height="64" viewBox="0 0 64 64" fill="none" xmlns="http://www.w3.org/2000/svg">
<circle cx="31" cy="31" r="31" fill="#C2BDBD"/>
<g filter="url(#filter0_d_2644_74)">
<path d="M31 4L40.9651 7.87178L50.799 12.0546L55.0578 21.7129L59 31.5L55.0578 41.2871L50.799 50.9454L40.9651 55.1282L31 59L21.0349 55.1282L11.201 50.9454L6.94218 41.2871L3 31.5L6.94218 21.7129L11.201 12.0546L21.0349 7.87178L31 4Z" fill="#D9D9D9"/>
</g>
<path d="M10.163 36V27.6H13.379C13.955 27.6 14.439 27.704 14.831 27.912C15.223 28.12 15.519 28.4 15.719 28.752C15.919 29.096 16.019 29.484 16.019 29.916V30.204C16.019 30.548 15.923 30.872 15.731 31.176C15.547 31.472 15.267 31.7 14.891 31.86V32.076C15.171 32.108 15.391 32.216 15.551 32.4C15.719 32.584 15.803 32.816 15.803 33.096V36H14.219V33.48C14.219 33.288 14.167 33.132 14.063 33.012C13.967 32.892 13.803 32.832 13.571 32.832H11.747V36H10.163ZM11.747 31.32H13.259C13.643 31.32 13.935 31.228 14.135 31.044C14.335 30.86 14.435 30.608 14.435 30.288V30.144C14.435 29.864 14.335 29.624 14.135 29.424C13.935 29.216 13.643 29.112 13.259 29.112H11.747V31.32ZM20.2347 36.168C19.6427 36.168 19.1187 36.044 18.6627 35.796C18.2067 35.54 17.8507 35.176 17.5947 34.704C17.3387 34.232 17.2107 33.664 17.2107 33V32.928C17.2107 32.32 17.3467 31.788 17.6187 31.332C17.8907 30.876 18.2507 30.52 18.6987 30.264C19.1547 30.008 19.6587 29.88 20.2107 29.88C20.7227 29.88 21.1627 29.968 21.5307 30.144C21.8987 30.32 22.1987 30.548 22.4307 30.828C22.6707 31.108 22.8467 31.416 22.9587 31.752C23.0787 32.08 23.1387 32.4 23.1387 32.712V33.516H18.7707C18.7867 33.868 18.9347 34.16 19.2147 34.392C19.4947 34.616 19.8267 34.728 20.2107 34.728C20.5867 34.728 20.8747 34.66 21.0747 34.524C21.2827 34.388 21.4267 34.232 21.5067 34.056L22.8027 34.776C22.7147 34.976 22.5667 35.184 22.3587 35.4C22.1587 35.616 21.8867 35.8 21.5427 35.952C21.1987 36.096 20.7627 36.168 20.2347 36.168ZM18.7947 32.22H21.6027C21.5547 31.94 21.4027 31.708 21.1467 31.524C20.8987 31.34 20.5827 31.248 20.1987 31.248C19.8227 31.248 19.5107 31.348 19.2627 31.548C19.0227 31.74 18.8667 31.964 18.7947 32.22ZM27.1743 36C26.9023 36 26.6783 35.912 26.5023 35.736C26.3343 35.56 26.2503 35.336 26.2503 35.064V31.488H24.4863V30.048H26.2503V27.6H27.7623V30.048H29.9103V31.488H27.7623V34.2C27.7623 34.44 27.8703 34.56 28.0863 34.56H29.6943V36H27.1743ZM34.606 36.168C34.062 36.168 33.554 36.048 33.082 35.808C32.61 35.568 32.23 35.22 31.942 34.764C31.654 34.308 31.51 33.752 31.51 33.096V32.952C31.51 32.304 31.654 31.752 31.942 31.296C32.23 30.832 32.61 30.48 33.082 30.24C33.554 30 34.062 29.88 34.606 29.88C35.15 29.88 35.658 30 36.13 30.24C36.602 30.48 36.982 30.832 37.27 31.296C37.558 31.752 37.702 32.304 37.702 32.952V33.096C37.702 33.752 37.558 34.308 37.27 34.764C36.982 35.22 36.602 35.568 36.13 35.808C35.658 36.048 35.15 36.168 34.606 36.168ZM34.606 34.728C35.046 34.728 35.418 34.588 35.722 34.308C36.034 34.02 36.19 33.632 36.19 33.144V32.904C36.19 32.408 36.034 32.02 35.722 31.74C35.418 31.46 35.046 31.32 34.606 31.32C34.166 31.32 33.79 31.46 33.478 31.74C33.174 32.02 33.022 32.408 33.022 32.904V33.144C33.022 33.632 33.174 34.02 33.478 34.308C33.79 34.588 34.166 34.728 34.606 34.728ZM41.1977 36.168C40.8057 36.168 40.4497 36.084 40.1297 35.916C39.8097 35.74 39.5537 35.476 39.3617 35.124C39.1777 34.764 39.0857 34.312 39.0857 33.768V30.048H40.5977V33.456C40.5977 33.872 40.6977 34.2 40.8977 34.44C41.1057 34.68 41.4057 34.8 41.7977 34.8C42.2537 34.8 42.5857 34.656 42.7937 34.368C43.0097 34.072 43.1177 33.672 43.1177 33.168V30.048H44.6297V36H43.1177V35.136H42.9017C42.6377 35.824 42.0697 36.168 41.1977 36.168ZM45.8693 36V34.56H47.0933V31.488H46.0133V30.048H48.5333V30.912H48.7493C48.8613 30.584 49.0533 30.332 49.3253 30.156C49.5973 29.972 49.9173 29.88 50.2853 29.88C50.8773 29.88 51.3533 30.068 51.7133 30.444C52.0733 30.812 52.2533 31.376 52.2533 32.136V32.4L50.6933 32.544V32.376C50.6933 32.048 50.6093 31.788 50.4413 31.596C50.2733 31.396 50.0213 31.296 49.6853 31.296C49.3493 31.296 49.0853 31.412 48.8933 31.644C48.7013 31.876 48.6053 32.208 48.6053 32.64V34.56H49.9733V36H45.8693Z" fill="#7B7C76"/>
<defs>
<filter id="filter0_d_2644_74" x="2.9" y="3.9" width="60.2" height="59.2" filterUnits="userSpaceOnUse" color-interpolation-filters="sRGB">
<feFlood flood-opacity="0" result="BackgroundImageFix"/>
<feColorMatrix in="SourceAlpha" type="matrix" values="0 0 0 0 0 0 0 0 0 0 0 0 0 0 0 0 0 0 127 0" result="hardAlpha"/>
<feOffset dx="2" dy="2"/>
<feGaussianBlur stdDeviation="1.05"/>
<feComposite in2="hardAlpha" operator="out"/>
<feColorMatrix type="matrix" values="0 0 0 0 0 0 0 0 0 0 0 0 0 0 0 0 0 0 0.25 0"/>
<feBlend mode="normal" in2="BackgroundImageFix" result="effect1_dropShadow_2644_74"/>
<feBlend mode="normal" in="SourceGraphic" in2="effect1_dropShadow_2644_74" result="shape"/>
</filter>
</defs>
</svg>
