<svg width="59" height="60" viewBox="0 0 59 60" fill="none" xmlns="http://www.w3.org/2000/svg">
<rect x="6.82227" y="6.82324" width="44.8377" height="45.585" rx="22.4188" fill="#83DFF1"/>
<g opacity="0.6">
<rect width="58.484" height="59.4587" rx="29.242" fill="url(#paint0_radial_3481_1504)"/>
</g>
<path d="M18.4102 19V19.7049" stroke="#FFC778" stroke-linecap="round" stroke-linejoin="round"/>
<path d="M18.4102 21.1145V21.8194" stroke="#FFC778" stroke-linecap="round" stroke-linejoin="round"/>
<path d="M17 20.4097H17.7049" stroke="#FFC778" stroke-linecap="round" stroke-linejoin="round"/>
<path d="M19.1162 20.4097H19.8212" stroke="#FFC778" stroke-linecap="round" stroke-linejoin="round"/>
<path d="M33.5669 26.4017C34.9295 26.4017 36.0342 25.2971 36.0342 23.9345C36.0342 22.5718 34.9295 21.4672 33.5669 21.4672C32.2043 21.4672 31.0996 22.5718 31.0996 23.9345C31.0996 25.2971 32.2043 26.4017 33.5669 26.4017Z" stroke="black" stroke-linecap="round" stroke-linejoin="round"/>
<path d="M24.0503 26.4017C25.4129 26.4017 26.5176 25.2971 26.5176 23.9345C26.5176 22.5718 25.4129 21.4672 24.0503 21.4672C22.6877 21.4672 21.583 22.5718 21.583 23.9345C21.583 25.2971 22.6877 26.4017 24.0503 26.4017Z" stroke="black" stroke-linecap="round" stroke-linejoin="round"/>
<path d="M33.5669 26.4017C34.9295 26.4017 36.0342 25.2971 36.0342 23.9345C36.0342 22.5718 34.9295 21.4672 33.5669 21.4672C32.2043 21.4672 31.0996 22.5718 31.0996 23.9345C31.0996 25.2971 32.2043 26.4017 33.5669 26.4017Z" fill="#0E7DAD" stroke="#0E7DAD" stroke-linecap="round" stroke-linejoin="round"/>
<path d="M24.0503 26.4017C25.4129 26.4017 26.5176 25.2971 26.5176 23.9345C26.5176 22.5718 25.4129 21.4672 24.0503 21.4672C22.6877 21.4672 21.583 22.5718 21.583 23.9345C21.583 25.2971 22.6877 26.4017 24.0503 26.4017Z" fill="#0E7DAD" stroke="#0E7DAD" stroke-linecap="round" stroke-linejoin="round"/>
<path d="M27.4446 28.6178C27.0362 27.8063 26.3653 27.1568 25.541 26.7748C24.7168 26.3928 23.7876 26.3008 22.9044 26.5137C22.0212 26.7265 21.236 27.2318 20.6763 27.9474C20.1166 28.663 19.8153 29.5468 19.8214 30.4552V32.7463C19.8214 34.4289 20.4898 36.0427 21.6796 37.2325C22.8694 38.4223 24.4832 39.0907 26.1658 39.0907H31.1004C32.7831 39.0907 34.3968 38.4223 35.5866 37.2325C36.7765 36.0427 37.4449 34.4289 37.4449 32.7463V30.4552C37.4507 29.5291 37.1373 28.6293 36.5574 27.9072C35.9775 27.1851 35.1665 26.6849 34.261 26.4907C33.3555 26.2965 32.4107 26.4202 31.5857 26.841C30.7607 27.2618 30.1059 27.954 29.7314 28.8011" stroke="black" stroke-linecap="round" stroke-linejoin="round"/>
<path d="M27.4446 28.6178C27.0362 27.8063 26.3653 27.1568 25.541 26.7748C24.7168 26.3928 23.7876 26.3008 22.9044 26.5137C22.0212 26.7265 21.236 27.2318 20.6763 27.9474C20.1166 28.663 19.8153 29.5468 19.8214 30.4552V32.7463C19.8214 34.4289 20.4898 36.0427 21.6796 37.2325C22.8694 38.4223 24.4832 39.0907 26.1658 39.0907H31.1004C32.7831 39.0907 34.3968 38.4223 35.5866 37.2325C36.7765 36.0427 37.4449 34.4289 37.4449 32.7463V30.4552C37.4507 29.5291 37.1373 28.6293 36.5574 27.9072C35.9775 27.1851 35.1665 26.6849 34.261 26.4907C33.3555 26.2965 32.4107 26.4202 31.5857 26.841C30.7607 27.2618 30.1059 27.954 29.7314 28.8011" fill="#0E7DAD"/>
<path d="M27.4446 28.6178C27.0362 27.8063 26.3653 27.1568 25.541 26.7748C24.7168 26.3928 23.7876 26.3008 22.9044 26.5137C22.0212 26.7265 21.236 27.2318 20.6763 27.9474C20.1166 28.663 19.8153 29.5468 19.8214 30.4552V32.7463C19.8214 34.4289 20.4898 36.0427 21.6796 37.2325C22.8694 38.4223 24.4832 39.0907 26.1658 39.0907H31.1004C32.7831 39.0907 34.3968 38.4223 35.5866 37.2325C36.7765 36.0427 37.4449 34.4289 37.4449 32.7463V30.4552C37.4507 29.5291 37.1373 28.6293 36.5574 27.9072C35.9775 27.1851 35.1665 26.6849 34.261 26.4907C33.3555 26.2965 32.4107 26.4202 31.5857 26.841C30.7607 27.2618 30.1059 27.954 29.7314 28.8011" stroke="#0E7DAD" stroke-linecap="round" stroke-linejoin="round"/>
<path d="M30.4772 28.7461C29.8446 28.7507 29.2395 29.0053 28.7938 29.4542C28.348 29.0052 27.7428 28.7506 27.1101 28.7461C25.7157 28.7461 24.585 29.984 24.585 31.5112C24.585 33.0385 27.5313 35.6587 28.7938 36.5805C30.0564 35.6587 33.003 33.0381 33.003 31.5126C33.003 29.9871 31.8719 28.7461 30.4772 28.7461Z" fill="#FFE3E3"/>
<defs>
<radialGradient id="paint0_radial_3481_1504" cx="0" cy="0" r="1" gradientUnits="userSpaceOnUse" gradientTransform="translate(29.242 29.7293) rotate(90) scale(29.7293 29.242)">
<stop offset="0.5" stop-color="#83DFF1" stop-opacity="0.5"/>
<stop offset="0.610577" stop-color="white"/>
<stop offset="1" stop-color="#0F3E4C" stop-opacity="0"/>
</radialGradient>
</defs>
</svg>
