<svg width="126" height="127" viewBox="0 0 126 127" fill="none" xmlns="http://www.w3.org/2000/svg">
<g filter="url(#filter0_f_2773_1050)">
<rect x="37.6865" y="37.688" width="50.5246" height="51.3667" rx="25.2623" fill="#83DFF1"/>
</g>
<g opacity="0.6" filter="url(#filter1_d_2773_1050)">
<rect x="30" y="30" width="65.9016" height="67" rx="32.9508" fill="url(#paint0_radial_2773_1050)"/>
</g>
<path d="M52.5918 53V53.8369" stroke="#FFC778" stroke-linecap="round" stroke-linejoin="round"/>
<path d="M52.5918 55.5103V56.3471" stroke="#FFC778" stroke-linecap="round" stroke-linejoin="round"/>
<path d="M51 54.6733H51.7944" stroke="#FFC778" stroke-linecap="round" stroke-linejoin="round"/>
<path d="M53.3867 54.6733H54.1811" stroke="#FFC778" stroke-linecap="round" stroke-linejoin="round"/>
<path d="M69.6689 61.7878C71.2044 61.7878 72.4491 60.4764 72.4491 58.8587C72.4491 57.2411 71.2044 55.9297 69.6689 55.9297C68.1334 55.9297 66.8887 57.2411 66.8887 58.8587C66.8887 60.4764 68.1334 61.7878 69.6689 61.7878Z" stroke="black" stroke-linecap="round" stroke-linejoin="round"/>
<path d="M58.9472 61.7878C60.4827 61.7878 61.7274 60.4764 61.7274 58.8587C61.7274 57.2411 60.4827 55.9297 58.9472 55.9297C57.4117 55.9297 56.167 57.2411 56.167 58.8587C56.167 60.4764 57.4117 61.7878 58.9472 61.7878Z" stroke="black" stroke-linecap="round" stroke-linejoin="round"/>
<path d="M69.6689 61.7878C71.2044 61.7878 72.4491 60.4764 72.4491 58.8587C72.4491 57.2411 71.2044 55.9297 69.6689 55.9297C68.1334 55.9297 66.8887 57.2411 66.8887 58.8587C66.8887 60.4764 68.1334 61.7878 69.6689 61.7878Z" fill="#0E7DAD" stroke="#0E7DAD" stroke-linecap="round" stroke-linejoin="round"/>
<path d="M58.9472 61.7878C60.4827 61.7878 61.7274 60.4764 61.7274 58.8587C61.7274 57.2411 60.4827 55.9297 58.9472 55.9297C57.4117 55.9297 56.167 57.2411 56.167 58.8587C56.167 60.4764 57.4117 61.7878 58.9472 61.7878Z" fill="#0E7DAD" stroke="#0E7DAD" stroke-linecap="round" stroke-linejoin="round"/>
<path d="M62.7709 64.4172C62.3106 63.4538 61.5547 62.6828 60.6259 62.2293C59.6971 61.7758 58.65 61.6665 57.6548 61.9192C56.6596 62.1719 55.7748 62.7718 55.1441 63.6213C54.5134 64.4708 54.1739 65.52 54.1808 66.5985V69.3183C54.1808 71.3159 54.934 73.2316 56.2747 74.6441C57.6154 76.0566 59.4338 76.8501 61.3299 76.8501H66.8904C68.7864 76.8501 70.6049 76.0566 71.9456 74.6441C73.2863 73.2316 74.0395 71.3159 74.0395 69.3183V66.5985C74.0461 65.4991 73.6929 64.4308 73.0395 63.5736C72.386 62.7164 71.4722 62.1225 70.4518 61.892C69.4314 61.6614 68.3668 61.8083 67.4372 62.3079C66.5075 62.8074 65.7696 63.6292 65.3477 64.6348" stroke="black" stroke-linecap="round" stroke-linejoin="round"/>
<path d="M62.7709 64.4172C62.3106 63.4538 61.5547 62.6828 60.6259 62.2293C59.6971 61.7758 58.65 61.6665 57.6548 61.9192C56.6596 62.1719 55.7748 62.7718 55.1441 63.6213C54.5134 64.4708 54.1739 65.52 54.1808 66.5985V69.3183C54.1808 71.3159 54.934 73.2316 56.2747 74.6441C57.6154 76.0566 59.4338 76.8501 61.3299 76.8501H66.8904C68.7864 76.8501 70.6049 76.0566 71.9456 74.6441C73.2863 73.2316 74.0395 71.3159 74.0395 69.3183V66.5985C74.0461 65.4991 73.6929 64.4308 73.0395 63.5736C72.386 62.7164 71.4722 62.1225 70.4518 61.892C69.4314 61.6614 68.3668 61.8083 67.4372 62.3079C66.5075 62.8074 65.7696 63.6292 65.3477 64.6348" fill="#0E7DAD"/>
<path d="M62.7709 64.4172C62.3106 63.4538 61.5547 62.6828 60.6259 62.2293C59.6971 61.7758 58.65 61.6665 57.6548 61.9192C56.6596 62.1719 55.7748 62.7718 55.1441 63.6213C54.5134 64.4708 54.1739 65.52 54.1808 66.5985V69.3183C54.1808 71.3159 54.934 73.2316 56.2747 74.6441C57.6154 76.0566 59.4338 76.8501 61.3299 76.8501H66.8904C68.7864 76.8501 70.6049 76.0566 71.9456 74.6441C73.2863 73.2316 74.0395 71.3159 74.0395 69.3183V66.5985C74.0461 65.4991 73.6929 64.4308 73.0395 63.5736C72.386 62.7164 71.4722 62.1225 70.4518 61.892C69.4314 61.6614 68.3668 61.8083 67.4372 62.3079C66.5075 62.8074 65.7696 63.6292 65.3477 64.6348" stroke="#0E7DAD" stroke-linecap="round" stroke-linejoin="round"/>
<path d="M66.1874 64.5698C65.4746 64.5753 64.7927 64.8775 64.2905 65.4105C63.7882 64.8774 63.1062 64.5752 62.3932 64.5698C60.822 64.5698 59.5479 66.0394 59.5479 67.8524C59.5479 69.6655 62.8678 72.7762 64.2905 73.8704C65.7132 72.7762 69.0336 69.6651 69.0336 67.8541C69.0336 66.0431 67.759 64.5698 66.1874 64.5698Z" fill="#FFE3E3"/>
<defs>
<filter id="filter0_f_2773_1050" x="17.6865" y="17.688" width="90.5244" height="91.3667" filterUnits="userSpaceOnUse" color-interpolation-filters="sRGB">
<feFlood flood-opacity="0" result="BackgroundImageFix"/>
<feBlend mode="normal" in="SourceGraphic" in2="BackgroundImageFix" result="shape"/>
<feGaussianBlur stdDeviation="10" result="effect1_foregroundBlur_2773_1050"/>
</filter>
<filter id="filter1_d_2773_1050" x="0" y="0" width="125.901" height="127" filterUnits="userSpaceOnUse" color-interpolation-filters="sRGB">
<feFlood flood-opacity="0" result="BackgroundImageFix"/>
<feColorMatrix in="SourceAlpha" type="matrix" values="0 0 0 0 0 0 0 0 0 0 0 0 0 0 0 0 0 0 127 0" result="hardAlpha"/>
<feOffset/>
<feGaussianBlur stdDeviation="15"/>
<feComposite in2="hardAlpha" operator="out"/>
<feColorMatrix type="matrix" values="0 0 0 0 0.0705882 0 0 0 0 0.784314 0 0 0 0 1 0 0 0 1 0"/>
<feBlend mode="screen" in2="BackgroundImageFix" result="effect1_dropShadow_2773_1050"/>
<feBlend mode="normal" in="SourceGraphic" in2="effect1_dropShadow_2773_1050" result="shape"/>
</filter>
<radialGradient id="paint0_radial_2773_1050" cx="0" cy="0" r="1" gradientUnits="userSpaceOnUse" gradientTransform="translate(62.9508 63.5) rotate(90) scale(33.5 32.9508)">
<stop offset="0.5" stop-color="#83DFF1" stop-opacity="0.5"/>
<stop offset="0.610577" stop-color="white"/>
<stop offset="1" stop-color="#0F3E4C" stop-opacity="0"/>
</radialGradient>
</defs>
</svg>
