<svg width="64" height="64" viewBox="0 0 64 64" fill="none" xmlns="http://www.w3.org/2000/svg">
<circle cx="31" cy="31" r="31" fill="#C2BDBD"/>
<g filter="url(#filter0_d_2644_25)">
<path d="M31 4L40.9651 7.87178L50.799 12.0546L55.0578 21.7129L59 31.5L55.0578 41.2871L50.799 50.9454L40.9651 55.1282L31 59L21.0349 55.1282L11.201 50.9454L6.94218 41.2871L3 31.5L6.94218 21.7129L11.201 12.0546L21.0349 7.87178L31 4Z" fill="#D9D9D9"/>
</g>
<g filter="url(#filter1_d_2644_25)">
<path d="M29.8499 38.2838C29.8865 38.1519 29.8376 38.0111 29.7272 37.9303L24.9969 34.465C24.8864 34.3841 24.7376 34.38 24.6228 34.4546C24.0388 34.8346 23.5324 35.3143 23.1175 35.8806C21.7555 37.7399 21.6276 40.2263 22.7918 42.2148C22.8148 42.2541 22.8455 42.2877 22.8814 42.314C22.9174 42.3404 22.9587 42.3595 23.003 42.3695C25.2501 42.8799 27.582 42.0083 28.9441 40.149C29.3592 39.5825 29.6639 38.955 29.8499 38.2838Z" fill="#FF9737"/>
<path d="M29.2374 37.2943C29.2268 37.2031 29.1789 37.1205 29.1048 37.0663L26.0082 34.7978C25.9342 34.7436 25.8409 34.7227 25.7508 34.7402C25.6609 34.7577 25.5821 34.8121 25.5338 34.8901C24.859 35.9799 24.8594 37.3902 25.5349 38.4828C25.5574 38.5192 25.5865 38.5504 25.6204 38.5752C25.6542 38.6001 25.6928 38.6184 25.7343 38.6288C26.9797 38.9434 28.3243 38.5185 29.16 37.5465C29.2197 37.4767 29.2478 37.3854 29.2374 37.2943Z" fill="#FFD960"/>
<path opacity="0.1" d="M23.7633 36.8559C24.2109 36.2449 24.7573 35.7273 25.3875 35.3173C25.5114 35.2368 25.672 35.2413 25.7911 35.3286L29.8454 38.2986C29.8468 38.2937 29.8485 38.2888 29.8499 38.2838C29.8865 38.1519 29.8376 38.0111 29.7272 37.9303L24.9969 34.465C24.8864 34.3841 24.7376 34.38 24.6228 34.4546C24.0388 34.8346 23.5324 35.3143 23.1175 35.8806C21.7597 37.7342 21.6288 40.2107 22.7813 42.196C22.2828 40.3875 22.6197 38.417 23.7633 36.8559Z" fill="#231F20"/>
<path d="M34.7937 42.5861L36.5997 40.1208C37.4005 39.0275 37.3855 37.936 37.3568 37.5941L36.6035 30.9104L31.2722 38.1881L33.8376 42.8083C33.941 42.9702 34.2588 43.3163 34.7937 42.5861Z" fill="#0B6B95"/>
<path d="M19.0308 31.0389L20.8368 28.5735C21.6377 27.4803 22.683 27.1655 23.0176 27.0897L29.6173 25.7926L24.286 33.0703L19.1073 32.0175C18.9217 31.9677 18.4959 31.769 19.0308 31.0389Z" fill="#0B6B95"/>
<path d="M37.2075 22.7584C36.9876 22.5973 36.9147 22.3226 37.0449 22.1449L39.4924 18.8039C39.6225 18.6262 39.9064 18.6128 40.1264 18.774C40.3463 18.9351 40.4192 19.2098 40.289 19.3875L37.8415 22.7285C37.7114 22.9062 37.4275 22.9195 37.2075 22.7584Z" fill="#90C8EC"/>
<path d="M39.4516 20.4496L38.7316 19.9222C36.4655 19.5362 34.4297 18.9994 33.1191 20.7885L24.1794 32.9919C23.8204 33.482 23.9265 34.1704 24.4168 34.5296L29.8405 38.5028C30.3307 38.8619 31.0192 38.7556 31.3783 38.2655L38.4383 28.6281L39.3915 27.3269L40.318 26.062C41.6286 24.273 40.6511 23.0085 39.4516 20.4496Z" fill="#CAE9F7"/>
<path d="M25.1187 31.71L24.1795 32.992C23.8205 33.4821 23.9267 34.1705 24.417 34.5297L29.8407 38.5029C30.3308 38.8619 31.0194 38.7557 31.3784 38.2656L32.3175 36.9836L25.1187 31.71Z" fill="#90C8EC"/>
<path d="M30.2358 32.2759C31.1073 32.9142 32.3312 32.7253 32.9695 31.8539C33.6079 30.9825 33.419 29.7586 32.5476 29.1202C31.6761 28.4818 30.4522 28.6708 29.8139 29.5422C29.1755 30.4136 29.3644 31.6375 30.2358 32.2759Z" fill="#A599A3"/>
<path opacity="0.1" d="M19.62 32.0904L21.426 29.625C22.2269 28.5318 23.2721 28.217 23.6068 28.1412L28.6174 27.1564L29.6168 25.7921L23.0171 27.0892C22.6825 27.1649 21.6372 27.4798 20.8363 28.5731L19.0303 31.0384C18.4955 31.7685 18.9212 31.9672 19.1069 32.017L19.6009 32.1174C19.6073 32.1084 19.6132 32.0996 19.62 32.0904Z" fill="#231F20"/>
<path opacity="0.1" d="M25.0647 33.6403L34.0044 21.4369C35.2947 19.6756 37.7498 19.2737 39.5327 20.5122C39.5056 20.4914 39.4794 20.4699 39.4516 20.4496L38.7316 19.9222C36.9425 18.6115 34.4297 18.9994 33.1191 20.7885L24.1794 32.9919C23.8204 33.482 23.9265 34.1704 24.4168 34.5296L25.3021 35.1781C24.8118 34.8188 24.7056 34.1305 25.0647 33.6403Z" fill="#231F20"/>
<path opacity="0.1" d="M30.6986 30.1905C31.2243 29.4728 32.1471 29.2185 32.9432 29.5076C32.8327 29.3637 32.7007 29.2325 32.5471 29.12C31.6756 28.4816 30.4518 28.6705 29.8134 29.542C29.175 30.4134 29.3639 31.6373 30.2353 32.2757C30.389 32.3883 30.5538 32.4746 30.7243 32.5365C30.2087 31.8646 30.1728 30.9082 30.6986 30.1905Z" fill="#231F20"/>
</g>
<defs>
<filter id="filter0_d_2644_25" x="2.9" y="3.9" width="60.2" height="59.2" filterUnits="userSpaceOnUse" color-interpolation-filters="sRGB">
<feFlood flood-opacity="0" result="BackgroundImageFix"/>
<feColorMatrix in="SourceAlpha" type="matrix" values="0 0 0 0 0 0 0 0 0 0 0 0 0 0 0 0 0 0 127 0" result="hardAlpha"/>
<feOffset dx="2" dy="2"/>
<feGaussianBlur stdDeviation="1.05"/>
<feComposite in2="hardAlpha" operator="out"/>
<feColorMatrix type="matrix" values="0 0 0 0 0 0 0 0 0 0 0 0 0 0 0 0 0 0 0.25 0"/>
<feBlend mode="normal" in2="BackgroundImageFix" result="effect1_dropShadow_2644_25"/>
<feBlend mode="normal" in="SourceGraphic" in2="effect1_dropShadow_2644_25" result="shape"/>
</filter>
<filter id="filter1_d_2644_25" x="14.77" y="18.6614" width="30.1724" height="32.3718" filterUnits="userSpaceOnUse" color-interpolation-filters="sRGB">
<feFlood flood-opacity="0" result="BackgroundImageFix"/>
<feColorMatrix in="SourceAlpha" type="matrix" values="0 0 0 0 0 0 0 0 0 0 0 0 0 0 0 0 0 0 127 0" result="hardAlpha"/>
<feOffset dy="4"/>
<feGaussianBlur stdDeviation="2"/>
<feComposite in2="hardAlpha" operator="out"/>
<feColorMatrix type="matrix" values="0 0 0 0 0 0 0 0 0 0 0 0 0 0 0 0 0 0 0.25 0"/>
<feBlend mode="normal" in2="BackgroundImageFix" result="effect1_dropShadow_2644_25"/>
<feBlend mode="normal" in="SourceGraphic" in2="effect1_dropShadow_2644_25" result="shape"/>
</filter>
</defs>
</svg>
