<svg width="402" height="874" viewBox="0 0 402 874" fill="none" xmlns="http://www.w3.org/2000/svg">
<g clip-path="url(#clip0_4228_77)">
<rect width="402" height="874" fill="url(#paint0_linear_4228_77)"/>
<path d="M-5.71949 292.66C18.9472 329.327 70.8805 409.26 81.2805 435.66C94.2805 468.66 217.281 640.16 403.281 728.66C552.081 799.46 451.947 869.493 383.281 895.66C244.614 990.327 -44.4195 1106.66 -91.2195 814.66C-149.719 449.66 -99.7195 317.16 -61.2195 300.16C-30.4195 286.56 -11.3862 289.493 -5.71949 292.66Z" fill="#6987A0" fill-opacity="0.16"/>
<path d="M-65.0859 712.222C-61.7192 722.943 -47.6802 743.843 -18.4581 741.677C18.0695 738.97 40.9793 708.012 75.3375 697.846C109.696 687.679 136.094 702.356 158.363 767.971C180.631 833.585 191.858 861.063 221.319 867.954C250.78 874.845 303.691 837.825 362.22 844.178C409.044 849.261 437.694 877.865 446.166 891.532C366.187 956.197 183.978 1069.27 94.9683 1004.25C-16.2935 922.967 -72.7029 855.084 -68.1613 792.551C-64.528 742.524 -64.5972 718.154 -65.0859 712.222Z" fill="white"/>
<path d="M-22.5 29.4078C-17 23.0745 -0.200001 12.3078 23 19.9078C52 29.4078 86.5 69.9081 87.5 109.408C88.5 148.908 83 226.408 91 276.408C99 326.408 156 455.908 205.5 475.908C255 495.908 344.5 520.408 376.5 398.408C408.5 276.408 379.5 225.908 361.5 199.908C343.5 173.908 266.5 80.9084 227.5 50.4081C188.5 19.9078 150 -44.0919 161.5 -60.5919C173 -77.0919 292 -128.092 307 -66.0919C322 -4.0919 308.5 20.4082 318.5 56.9082C328.5 93.4082 392 165.908 430 199.908C468 233.908 493 241.908 496 334.408C499 426.908 590.5 465.408 530 507.408C469.5 549.408 425 596.908 329 596.908C233 596.908 177.5 538.908 148.5 507.408C119.5 475.908 28.5 328.908 15.5 314.908C5.1 303.708 -27.1667 275.242 -42 262.408L-22.5 29.4078Z" fill="url(#paint1_linear_4228_77)" fill-opacity="0.07"/>
<circle cx="96" cy="109" r="54" fill="url(#paint2_linear_4228_77)"/>
<path d="M64.8467 121.917C75.807 118.427 91.2076 105.901 132.876 111.474C140.712 112.522 145.9 115.183 149.102 118.851C144.471 143.97 122.459 163 96 163C69.735 163 47.8496 144.248 43.001 119.402C43.8166 118.774 44.662 118.803 45.1973 119.028C48.0936 121.154 56.0785 124.709 64.8467 121.917ZM64.4629 106.503C67.7097 105.487 70.8182 106.519 71.4062 108.808C71.994 111.097 69.8387 113.778 66.5918 114.794C63.3447 115.81 60.2353 114.778 59.6475 112.488C59.0598 110.199 61.2159 107.519 64.4629 106.503ZM49.1328 96.748C51.6747 94.1782 54.7837 93.5964 56.0762 95.4492C57.3685 97.3021 56.3552 100.887 53.8135 103.457C51.2717 106.027 48.1637 106.608 46.8711 104.756C45.5787 102.903 46.5912 99.3179 49.1328 96.748ZM76.2139 100.611C77.2904 100.192 78.3533 100.47 78.5869 101.231C78.8204 101.993 78.1362 102.951 77.0596 103.37C75.983 103.789 74.921 103.512 74.6875 102.75C74.4541 101.988 75.1375 101.031 76.2139 100.611ZM90.1582 95.7383C91.4852 95.1114 92.8363 95.3677 93.1758 96.3105C93.515 97.2533 92.7144 98.5254 91.3877 99.1523C90.0609 99.7791 88.7099 99.5236 88.3701 98.5811C88.0306 97.6382 88.8312 96.3652 90.1582 95.7383ZM79.083 83.1182C84.3265 81.0763 89.4995 82.429 90.6367 86.1396C91.7736 89.8502 88.4445 94.5129 83.2012 96.5547C77.9577 98.5965 72.7856 97.2438 71.6484 93.5332C70.5115 89.8227 73.8399 85.1601 79.083 83.1182ZM53.0996 87.8848C54.049 86.9249 55.2096 86.7075 55.6924 87.3994C56.1751 88.0915 55.797 89.4307 54.8477 90.3906C53.8983 91.3504 52.7367 91.5679 52.2539 90.876C51.7712 90.1839 52.1502 88.8447 53.0996 87.8848ZM57.9053 83.5098C58.9342 82.9024 60.0284 83.0061 60.3486 83.7412C60.6688 84.4765 60.0935 85.5654 59.0645 86.1729C58.0356 86.7799 56.9423 86.6763 56.6221 85.9414C56.302 85.2061 56.8763 84.1172 57.9053 83.5098ZM60.9883 81.6523C61.3878 81.4165 61.862 81.569 62.0469 81.9932C62.2316 82.4175 62.0569 82.9536 61.6572 83.1895C61.2577 83.4249 60.7843 83.2718 60.5996 82.8477C60.415 82.4234 60.5888 81.8883 60.9883 81.6523ZM127.456 74.4561C127.868 73.3439 129.54 73.2526 131.191 74.252C132.842 75.2515 133.847 76.963 133.435 78.0752C133.022 79.1873 131.349 79.2788 129.698 78.2793C128.047 77.2799 127.044 75.5682 127.456 74.4561ZM75.1768 73.877C76.2057 73.2696 77.2999 73.3733 77.6201 74.1084C77.9402 74.8437 77.365 75.9326 76.3359 76.54C75.3071 77.1471 74.2138 77.0435 73.8936 76.3086C73.5734 75.5733 74.1478 74.4844 75.1768 73.877ZM82.3691 70.0859C84.1049 69.0615 85.9493 69.2363 86.4893 70.4766C87.0291 71.7169 86.06 73.5526 84.3242 74.5771C82.5885 75.6016 80.7431 75.4268 80.2031 74.1865C79.6633 72.9463 80.6335 71.1104 82.3691 70.0859ZM124.228 69.7676C124.451 69.165 125.358 69.1155 126.253 69.6572C127.148 70.1991 127.692 71.1275 127.469 71.7305C127.245 72.3333 126.338 72.3826 125.443 71.8408C124.548 71.2989 124.004 70.3706 124.228 69.7676Z" fill="#BC5F4E" fill-opacity="0.5"/>
<path d="M29.5 518L31.5153 523.85L37 526L31.5153 528.15L29.5 534L27.4847 528.15L22 526L27.4847 523.85L29.5 518Z" fill="#FFFBF3"/>
<path d="M45.5 546L46.4405 548.925L49 550L46.4405 551.075L45.5 554L44.5595 551.075L42 550L44.5595 548.925L45.5 546Z" fill="#FFFBF3"/>
<path d="M340.5 28L342.515 33.8504L348 36L342.515 38.1496L340.5 44L338.485 38.1496L333 36L338.485 33.8504L340.5 28Z" fill="#FFFBF3"/>
<path d="M366 31L367.612 35.7534L372 37.5L367.612 39.2466L366 44L364.388 39.2466L360 37.5L364.388 35.7534L366 31Z" fill="#FFFBF3"/>
<path d="M356.5 56L357.44 58.9252L360 60L357.44 61.0748L356.5 64L355.56 61.0748L353 60L355.56 58.9252L356.5 56Z" fill="#FFFBF3"/>
<path d="M103.5 -10L105.515 -4.1496L111 -2L105.515 0.149605L103.5 6L101.485 0.149605L96 -2L101.485 -4.1496L103.5 -10Z" fill="#FFFBF3"/>
<path d="M129 -7L130.612 -2.24655L135 -0.5L130.612 1.24655L129 6L127.388 1.24655L123 -0.5L127.388 -2.24655L129 -7Z" fill="#FFFBF3"/>
<path d="M119.5 18L120.44 20.9252L123 22L120.44 23.0748L119.5 26L118.56 23.0748L116 22L118.56 20.9252L119.5 18Z" fill="#FFFBF3"/>
<path d="M336.5 585L338.515 590.85L344 593L338.515 595.15L336.5 601L334.485 595.15L329 593L334.485 590.85L336.5 585Z" fill="#FFFBF3"/>
<path d="M362 588L363.612 592.753L368 594.5L363.612 596.247L362 601L360.388 596.247L356 594.5L360.388 592.753L362 588Z" fill="#FFFBF3"/>
<path d="M352.5 613L353.44 615.925L356 617L353.44 618.075L352.5 621L351.56 618.075L349 617L351.56 615.925L352.5 613Z" fill="#FFFBF3"/>
<path d="M227.5 479L228.44 481.925L231 483L228.44 484.075L227.5 487L226.56 484.075L224 483L226.56 481.925L227.5 479Z" fill="#FFFBF3"/>
<path d="M224.5 609L225.44 611.925L228 613L225.44 614.075L224.5 617L223.56 614.075L221 613L223.56 611.925L224.5 609Z" fill="#FFFBF3"/>
<path d="M375.5 708L376.44 710.925L379 712L376.44 713.075L375.5 716L374.56 713.075L372 712L374.56 710.925L375.5 708Z" fill="#FFFBF3"/>
<path d="M-1.5 232L0.515254 237.85L6 240L0.515254 242.15L-1.5 248L-3.51525 242.15L-9 240L-3.51525 237.85L-1.5 232Z" fill="#FFFBF3"/>
<path d="M24 235L25.6122 239.753L30 241.5L25.6122 243.247L24 248L22.3878 243.247L18 241.5L22.3878 239.753L24 235Z" fill="#FFFBF3"/>
<path d="M14.5 260L15.4405 262.925L18 264L15.4405 265.075L14.5 268L13.5595 265.075L11 264L13.5595 262.925L14.5 260Z" fill="#FFFBF3"/>
<path d="M207.5 150L209.515 155.85L215 158L209.515 160.15L207.5 166L205.485 160.15L200 158L205.485 155.85L207.5 150Z" fill="#FFFBF3"/>
<path d="M233 153L234.612 157.753L239 159.5L234.612 161.247L233 166L231.388 161.247L227 159.5L231.388 157.753L233 153Z" fill="#FFFBF3"/>
<path d="M223.5 178L224.44 180.925L227 182L224.44 183.075L223.5 186L222.56 183.075L220 182L222.56 180.925L223.5 178Z" fill="#FFFBF3"/>
<path d="M226.5 802L228.515 807.85L234 810L228.515 812.15L226.5 818L224.485 812.15L219 810L224.485 807.85L226.5 802Z" fill="#FFFBF3"/>
<path d="M252 805L253.612 809.753L258 811.5L253.612 813.247L252 818L250.388 813.247L246 811.5L250.388 809.753L252 805Z" fill="#FFFBF3"/>
<path d="M242.5 830L243.44 832.925L246 834L243.44 835.075L242.5 838L241.56 835.075L239 834L241.56 832.925L242.5 830Z" fill="#FFFBF3"/>
<path d="M-38 247.494C-35 263.994 -18.1 299.494 25.5 309.494C80 321.994 94 288 150.5 243.994C182.261 219.256 235 212.494 291.5 221.494" stroke="#DED7E9" stroke-width="2"/>
<ellipse cx="343" cy="189.5" rx="34" ry="31.5" fill="#DED7E9"/>
<path d="M279.097 262.97C277.878 262.16 276.254 252.038 273.004 252.848C272.075 253.08 271.08 253.543 270.161 254.18C272.17 260.889 276.073 275.359 275.612 279.569C280.315 278.443 286.028 275.369 288.846 273.496C292.501 271.067 296.157 270.257 297.782 271.067C298.12 271.236 298.599 271.211 299.167 271.067C298.65 267.828 293.75 260.271 291.364 256.897C288.309 260.013 280.086 263.627 279.097 262.97Z" fill="#08ACDB"/>
<path d="M244.977 239.083C244.706 235.709 243.027 229.123 238.478 229.771C239.696 237.049 241.889 252.619 240.914 256.68C244.572 255.552 250.886 250.419 252.694 250.419C253.399 250.419 257.23 249.883 262.037 249.251C262.687 245.401 259.383 237.359 257.65 233.82L244.977 239.083Z" fill="#08ACDB"/>
<path d="M304.687 243.131C301.573 245.156 295.345 249.609 295.345 251.229C295.345 253.253 294.532 254.872 296.157 254.872C297.782 254.872 302.656 256.087 304.687 252.443C306.718 248.799 307.937 244.751 307.124 243.941C306.475 243.293 305.229 243.131 304.687 243.131Z" fill="#08ACDB"/>
<path d="M271.785 228.152C269.763 229.663 265.315 231.273 262.037 232.295C263.797 233.208 267.886 234.71 270.161 233.415C273.004 231.795 273.529 228.151 273.673 227.342C272.914 227.531 272.266 227.793 271.785 228.152Z" fill="#08ACDB"/>
<path d="M351.939 230.58C349.593 230.176 344.819 229.933 344.494 232.2C344.088 235.034 342.87 242.726 346.525 243.941C349.45 244.913 350.96 244.346 351.349 243.941C351.648 241.074 351.904 237.829 351.97 234.629C351.998 233.26 351.992 231.9 351.939 230.58Z" fill="#08ACDB"/>
<path d="M337.936 252.848C337.98 254.273 337.911 255.774 337.589 256.897C337.406 257.537 337.077 258.054 336.659 258.516C337.215 259.164 346.548 258.786 351.145 258.516L351.088 258.237C350.619 255.95 350.181 253.817 350.181 253.253L337.936 252.848Z" fill="#08ACDB"/>
<path d="M361.299 219.649C361.743 222.078 360.494 227.665 351.939 230.58C351.992 231.9 351.998 233.26 351.97 234.629C366.399 232.038 366.538 222.642 364.804 218.267C363.667 218.762 362.488 219.231 361.299 219.649Z" fill="#08ACDB"/>
<path d="M275.441 208.313C276.254 209.528 279.503 208.313 280.315 208.718C280.965 207.747 283.836 200.486 285.19 196.977C285.19 196.437 285.027 195.357 284.377 195.357H281.534C279.196 198.192 274.542 204.103 274.629 205.074C274.629 205.749 274.791 207.341 275.441 208.313Z" fill="#08ACDB"/>
<path d="M296.97 211.147L301.031 210.533V213.981L297.782 214.791L296.97 211.147Z" fill="#08ACDB"/>
<path d="M302.656 213.576V217.41L306.718 216.815L306.312 213.171L302.656 213.576Z" fill="#08ACDB"/>
<path d="M307.937 215.196L311.186 214.791V219.054L307.124 219.649L307.937 215.196Z" fill="#08ACDB"/>
<path fill-rule="evenodd" clip-rule="evenodd" d="M285.19 247.585C287.627 249.204 292.501 251.634 292.501 254.872C292.501 255.481 292.071 256.176 291.364 256.897C293.75 260.271 298.65 267.828 299.167 271.067C301.329 270.518 304.788 268.233 306.718 268.233C309.155 268.233 328.247 262.97 331.496 258.921C334.096 255.682 336.641 251.094 337.589 249.204C337.726 250.022 337.89 251.396 337.936 252.848L350.181 253.253C350.181 252.768 350.829 248.924 351.349 243.941C350.96 244.346 349.45 244.913 346.525 243.941C342.87 242.726 344.088 235.034 344.494 232.2C344.819 229.933 349.593 230.176 351.939 230.58C351.792 226.924 351.288 223.585 350.181 221.269C349.927 220.736 349.639 220.195 349.32 219.649C348.468 218.189 347.396 216.69 346.155 215.196C340.453 208.329 331.19 201.588 323.372 199.406C319.712 198.384 316.79 197.836 314.436 197.648C313.206 197.549 312.131 197.549 311.186 197.631C309.435 197.782 308.133 198.216 307.124 198.827C311.999 200.1 321.991 203.293 322.966 205.884C324.185 209.123 322.56 216.005 322.154 216.41C321.747 216.815 309.562 231.39 307.937 231.39C306.312 231.39 293.314 227.747 289.658 224.103C289.606 224.138 289.547 224.165 289.484 224.179C288.487 224.629 286.715 225.616 286.408 226.532C286.062 227.567 278.046 226.25 273.673 227.342C273.529 228.151 273.004 231.795 270.161 233.415C267.886 234.71 263.797 233.208 262.037 232.295C261.101 232.586 260.261 232.83 259.599 233.01L257.65 233.82C259.383 237.359 262.687 245.401 262.037 249.251C271.088 248.06 283.598 246.527 285.19 247.585ZM295.345 251.229C295.345 249.609 301.573 245.156 304.687 243.131C305.229 243.131 306.475 243.293 307.124 243.941C307.937 244.751 306.718 248.799 304.687 252.443C302.656 256.087 297.782 254.872 296.157 254.872C294.532 254.872 295.345 253.253 295.345 251.229Z" fill="#DED7E9"/>
<path d="M331.496 264.184C329.871 268.233 331.09 268.233 332.309 268.233C333.283 268.233 334.881 267.153 335.558 266.614C334.069 269.178 331.496 274.468 333.121 275.116C335.152 275.926 337.589 274.306 337.995 271.877C338.32 269.934 338.672 268.638 338.808 268.233C338.672 272.012 338.808 279.488 340.432 279.164C342.102 278.832 343.222 274.943 343.343 272.22C343.295 271.646 343.276 271.106 343.276 270.662C343.348 271.095 343.369 271.63 343.343 272.22C343.512 274.266 344.038 276.735 345.307 276.735C347.338 276.735 349.369 273.091 348.556 269.853C349.64 271.067 352.05 273.01 353.025 271.067C354.243 268.638 352.212 266.209 352.212 264.589C352.212 263.752 351.669 261.075 351.145 258.516C346.548 258.786 337.215 259.164 336.659 258.516C335.228 260.1 332.754 261.051 331.496 264.184Z" fill="#DED7E9"/>
<path d="M291.936 215.196C296.641 209.069 304.618 200.813 306.312 199.406C303.875 199.406 299 200.62 296.97 201.025C295.345 201.349 288.439 198.461 285.19 196.977C283.836 200.486 280.965 207.747 280.315 208.718C280.965 209.042 288.333 213.171 291.936 215.196Z" fill="#DED7E9"/>
<path d="M262.037 202.645C262.362 203.941 270.567 204.804 274.629 205.074C274.542 204.103 279.196 198.192 281.534 195.357L280.315 192.118C279.909 191.174 279.016 188.88 278.691 187.26C278.285 185.235 277.472 184.021 275.847 183.616C274.547 183.292 274.764 186.99 275.035 188.879C274.493 188.205 273.248 186.612 272.598 185.641C271.785 184.426 268.13 181.592 266.505 183.211C265.205 184.507 268.4 188.34 270.161 190.094C269.754 190.094 268.78 189.932 268.13 189.285C267.317 188.475 261.224 185.641 260.006 187.665C259.031 189.285 264.203 193.468 266.911 195.357C264.474 194.683 259.518 193.738 259.193 195.357C258.868 196.977 263.932 199.271 266.505 200.216H262.443C262.172 200.486 261.712 201.349 262.037 202.645Z" fill="#DED7E9"/>
<path fill-rule="evenodd" clip-rule="evenodd" d="M314.436 197.648C313.206 197.549 312.131 197.549 311.186 197.631C310.509 192.824 309.562 182.32 311.186 178.758C313.217 174.304 331.496 150.012 358.305 162.563C365.752 165.937 379.102 179.324 372.928 205.884C370.458 208.988 362.279 216.086 349.32 219.649C348.468 218.189 347.396 216.69 346.155 215.196C356.258 213.425 362.797 207.17 364.804 204.264C366.971 200.216 370.166 189.608 365.617 179.567C360.375 168 351.755 166.51 342.5 165.5C341.602 165.402 337.894 165.395 337 165.5C328.5 166.5 320.274 172.971 316.873 177.948C313 183.616 313.624 191.039 314.03 195.357L314.436 197.648Z" fill="#DED7E9"/>
<path fill-rule="evenodd" clip-rule="evenodd" d="M316.873 177.948C313 183.616 313.624 191.039 314.03 195.357L314.436 197.648C316.79 197.836 319.712 198.384 323.372 199.406C331.19 201.588 340.453 208.329 346.155 215.196C356.258 213.425 362.797 207.17 364.804 204.264C366.971 200.216 370.166 189.608 365.617 179.567C360.375 168 351.755 166.51 342.5 165.5C341.602 165.402 337.894 165.395 337 165.5C328.5 166.5 320.274 172.971 316.873 177.948ZM341.651 169.041C339.376 168.393 330.955 172.01 327.028 173.899L340.839 172.28C342.057 171.47 343.926 169.689 341.651 169.041Z" fill="black"/>
<path d="M327.028 173.899C330.955 172.01 339.376 168.393 341.651 169.041C343.926 169.689 342.057 171.47 340.839 172.28L327.028 173.899Z" fill="white"/>
<path d="M294.939 218.03H299.407L298.594 221.269H294.939V218.03Z" fill="#DB0887"/>
<path d="M305.5 220.864V223.698H300.625L301.438 220.496L305.5 220.864Z" fill="#DB0887"/>
<path d="M349.32 219.649C349.639 220.195 349.927 220.736 350.181 221.269C353.186 221.899 357.3 221.057 361.299 219.649C362.488 219.231 363.667 218.762 364.804 218.267C369.663 216.154 373.749 213.564 374.553 212.362C375.853 210.418 374.011 207.233 372.928 205.884C370.458 208.988 362.279 216.086 349.32 219.649Z" fill="#DED7E9"/>
<path d="M301.031 207.908C304.416 209.797 311.43 213.495 312.405 213.171C313.624 212.766 318.092 207.908 316.873 205.884C315.655 203.859 307.531 200.62 306.718 201.025C305.906 201.43 301.031 206.289 301.031 207.908Z" fill="black"/>
<path fill-rule="evenodd" clip-rule="evenodd" d="M306.312 199.406C304.618 200.813 296.641 209.069 291.936 215.196C289.873 217.882 288.439 220.158 288.439 221.269C288.439 223.81 289.057 224.279 289.484 224.179C289.545 224.152 289.603 224.126 289.658 224.103C293.314 227.747 306.312 231.39 307.937 231.39C309.562 231.39 321.747 216.815 322.154 216.41C322.56 216.005 324.185 209.123 322.966 205.884C321.991 203.293 311.999 200.1 307.124 198.827C306.83 199.006 306.56 199.2 306.312 199.406ZM312.405 213.171C311.43 213.495 304.416 209.797 301.031 207.908C301.031 206.289 305.906 201.43 306.718 201.025C307.531 200.62 315.655 203.859 316.873 205.884C318.092 207.908 313.624 212.766 312.405 213.171ZM301.031 210.533L296.97 211.147L297.782 214.791L301.031 213.981V210.533ZM302.656 217.41V213.576L306.312 213.171L306.718 216.815L302.656 217.41ZM311.186 214.791L307.937 215.196L307.124 219.649L311.186 219.054V214.791ZM299.407 218.03H294.939V221.269H298.594L299.407 218.03ZM305.5 223.698V220.864L301.438 220.496L300.625 223.698H305.5Z" fill="#BFBFBF"/>
<path d="M238.478 229.771C232.791 230.581 231.979 242.727 234.01 249.204C236.041 255.682 236.446 256.897 239.696 256.897C240.053 256.897 240.463 256.819 240.914 256.68C241.889 252.619 239.696 237.049 238.478 229.771Z" fill="#CBCBCB"/>
<path d="M266.911 261.35C268.13 265.399 266.911 279.569 271.785 279.974C272.903 280.067 274.213 279.904 275.612 279.569C276.073 275.359 272.17 260.889 270.161 254.18C267.864 255.774 266.041 258.459 266.911 261.35Z" fill="#CBCBCB"/>
<ellipse cx="348" cy="170.5" rx="2" ry="1.5" fill="white"/>
</g>
<defs>
<linearGradient id="paint0_linear_4228_77" x1="201" y1="0" x2="201" y2="874" gradientUnits="userSpaceOnUse">
<stop stop-color="#066893"/>
<stop offset="1" stop-color="#D8CFDE"/>
</linearGradient>
<linearGradient id="paint1_linear_4228_77" x1="254.317" y1="-96" x2="254.317" y2="596.908" gradientUnits="userSpaceOnUse">
<stop stop-color="#6987A0"/>
<stop offset="1" stop-color="#26313A"/>
</linearGradient>
<linearGradient id="paint2_linear_4228_77" x1="96" y1="55" x2="96" y2="163" gradientUnits="userSpaceOnUse">
<stop stop-color="#E7CE99"/>
<stop offset="1" stop-color="#CB7E6F"/>
</linearGradient>
<clipPath id="clip0_4228_77">
<rect width="402" height="874" fill="white"/>
</clipPath>
</defs>
</svg>
