<?xml version="1.0" encoding="UTF-8"?>
<svg id="Calque_1" data-name="Calque 1" xmlns="http://www.w3.org/2000/svg" xmlns:xlink="http://www.w3.org/1999/xlink" viewBox="0 0 309.88 309.88">
  <defs>
    <style>
      .cls-1, .cls-2 {
        fill: none;
      }

      .cls-3 {
        mask: url(#mask);
      }

      .cls-4 {
        fill: #0f5065;
      }

      .cls-5 {
        fill: #9d6;
      }

      .cls-6 {
        fill: #527e97;
      }

      .cls-7 {
        fill: #5a70b0;
      }

      .cls-8 {
        fill: url(#Dégradé_sans_nom_4);
      }

      .cls-9 {
        fill: url(#Dégradé_sans_nom_5);
      }

      .cls-10 {
        fill: url(#Dégradé_sans_nom_2);
      }

      .cls-11 {
        fill: url(#Dégradé_sans_nom_3);
      }

      .cls-12 {
        fill-rule: evenodd;
      }

      .cls-12, .cls-13 {
        fill: #d9f6ff;
      }

      .cls-14 {
        fill: #67bedb;
      }

      .cls-2 {
        stroke: rgba(65, 169, 229, .7);
      }

      .cls-15 {
        fill: #fff5c9;
      }

      .cls-16 {
        mask: url(#mask-2);
      }

      .cls-17 {
        mask: url(#mask-3);
      }

      .cls-18 {
        mask: url(#mask-1);
      }

      .cls-19 {
        fill: #a0bdcb;
      }

      .cls-20 {
        fill: url(#Dégradé_sans_nom);
      }

      .cls-21 {
        fill: #3596b5;
      }

      .cls-22 {
        fill: #11c5ff;
      }

      .cls-23 {
        fill: #e8b7c9;
      }

      .cls-24 {
        fill: #74b4d7;
      }

      .cls-25 {
        clip-path: url(#clippath);
      }

      .cls-26 {
        fill: #2979a7;
      }
    </style>
    <clipPath id="clippath">
      <circle class="cls-1" cx="154.94" cy="154.94" r="154.94"/>
    </clipPath>
    <linearGradient id="Dégradé_sans_nom" data-name="Dégradé sans nom" x1="157.12" y1="300.66" x2="157.12" y2="-8.34" gradientTransform="translate(0 301.33) scale(1 -1)" gradientUnits="userSpaceOnUse">
      <stop offset="0" stop-color="#475fa7"/>
      <stop offset="1" stop-color="#98a6cd"/>
    </linearGradient>
    <linearGradient id="Dégradé_sans_nom_2" data-name="Dégradé sans nom 2" x1="155.62" y1="342.67" x2="155.62" y2="33.67" gradientTransform="translate(0 301.33) scale(1 -1)" gradientUnits="userSpaceOnUse">
      <stop offset="0" stop-color="#ffa9a7"/>
      <stop offset="1" stop-color="#ff9997"/>
    </linearGradient>
    <mask id="mask" x="-63.38" y="-41.33" width="473" height="434" maskUnits="userSpaceOnUse">
      <g id="mask0_3505_606" data-name="mask0 3505 606">
        <path class="cls-10" d="M312.12,152.67c0,85.33-69.29,115-156,115S-.88,198.5-.88,113.17,69.41-41.33,156.12-41.33s152,110,156,194Z"/>
      </g>
    </mask>
    <linearGradient id="Dégradé_sans_nom_3" data-name="Dégradé sans nom 3" x1="173.12" y1="195.67" x2="173.12" y2="-91.33" gradientTransform="translate(0 301.33) scale(1 -1)" gradientUnits="userSpaceOnUse">
      <stop offset="0" stop-color="#bad5de"/>
      <stop offset="1" stop-color="#fff"/>
    </linearGradient>
    <mask id="mask-1" x="-14.82" y="65.72" width="149.15" height="161.56" maskUnits="userSpaceOnUse">
      <g id="mask1_3505_606" data-name="mask1 3505 606">
        <path class="cls-22" d="M18.27,74.58c-.91.6-1.41.99-1.77,1.38-.38.43-.67.64-1.2.92-.53.27-.87.53-1.43,1.09-.4.4-.88.84-1.06.98l-.32.24-.27-.37c-.22-.28-.31-.35-.44-.28-.26.14-1.6,1.34-3.32,2.99-.88.84-2.06,1.95-2.64,2.47-2.4,2.18-4.97,5.22-6.85,8.07-.32.49-1,1.51-1.51,2.28-4.42,6.63-7.92,14.71-9.7,22.42-.25,1.08-.61,2.61-.8,3.4-.71,2.92-1.1,5.57-1.03,7.04.02.35-.01.66-.06.69-.05.04-.15.22-.2.42-.09.29-.07.43.09.67.18.28.18.32,0,.48-.26.23-.23.29.18.4.42.11.39.17-.09.21-.5.05-.52.07-.3.22.16.1.16.26-.04,1.09-.32,1.41-.22,2.15.31,2.42q.23.12-.16.33c-.44.24-.45.29-.04.47.41.18.4.23-.05.47l-.41.22.46.15.46.15-.26.14c-.14.07-.32.21-.41.29-.16.15-.17.17.12.3.15.07.37.21.48.28l.2.14-.47.07c-.25.05-.47.11-.48.13-.02.03.18.16.44.28l.46.22-.44.24c-.24.13-.43.26-.41.3.01.03.22.17.46.32l.43.27-.25.05c-.14.04-.31.08-.38.09-.08.01-.13.32-.11.87.02.75.06.9.3,1.27l.28.42-.32.24-.31.25.55.02.55.02-.35.26c-.36.27-.64.66-.57.79.02.04.24,0,.49-.08l.44-.15-.44.4-.43.4.21.28c.16.2.2.36.16.65-.15.98.07,2.79.59,4.87.14.57.23,1.14.2,1.25-.04.16.03.34.24.67.28.44.29.46.09.7-.18.22-.18.27.03.55.18.26.22.43.19.97-.02.36.01.9.08,1.18.1.52.14.58.71,1.19.05.06.01.19-.11.33-.12.12-.22.24-.23.26,0,.01.21.3.49.64.27.33.5.62.51.64,0,0-.13.03-.32.03-.39,0-.41-.16.2,1.62.22.65.53,1.42.69,1.71.23.43.26.54.14.56-.11.02-.12.11-.04.33.06.17.33.96.6,1.74.36,1.07.54,1.48.69,1.62.16.14.2.24.17.49-.09.74.1,1.24.85,2.24.42.56.45.64.46,1.06,0,.45.02.48,3.17,6.26,2.19,3.99,3.75,6.97,5,9.51,2.46,4.99,2.4,4.87,2.85,5.16.34.23.46.4,1.43,2.13,1.32,2.35,2.36,3.68,4.88,6.23.66.66.77.84,1.04,1.45.28.64.3.67.34.45.03-.14,0-.51-.04-.85-.05-.32-.06-.59-.03-.57.04,0,.21.43.38.94.34.99.59,1.35,1.03,1.5.21.08.25.15.4.67.18.66.44.92.78.86.17-.04.21,0,.22.17,0,.19.03.2.24.09.47-.25.57-.14.33.36-.2.43-.2.45.01.39.13-.03.41-.12.62-.18l.38-.12-.28.42-.28.42.39-.11c.21-.06.41-.1.44-.09.03,0,.03.18.02.4-.03.45.07.49.58.21l.28-.14-.25.37c-.14.2-.25.38-.27.4-.03.07.99.92,1.06.87.04-.03.19-.16.34-.28l.28-.21-.18.47-.19.48.52-.13.51-.14-.23.44c-.21.38-.21.44-.03.4.14-.02.28.06.45.3.14.18.65.69,1.12,1.14.48.44.91.86.95.94.04.08.14.18.23.22.12.07.16.05.23-.18.06-.14.12-.24.14-.23.03,0,.3.33.61.72.57.69,1.7,1.6,2.53,2.04.2.11.72.49,1.14.84,1.91,1.58,4.22,3.04,5.92,3.74,2.47,1.01,3.22,1.35,3.23,1.46.01.06.08.32.17.58.15.4.17.43.24.28.06-.16.22-.09,1.07.4,2.43,1.41,5.18,2.58,8.26,3.54,1.23.38,3.04.95,4.02,1.26.98.31,2.09.58,2.47.63.38.03.94.15,1.23.24.29.1.93.26,1.42.36.5.09,1.38.28,1.97.42,1.32.3,3.01.56,4.05.63.51.04.81.11.86.22.1.18.26.15.23-.05-.01-.07.26-.05.7.07.41.09,1.19.18,1.77.17.73-.02,1.08.02,1.16.14.1.12.12.06.14-.32.01-.27.04-.5.09-.52.03-.02.2.23.37.54.27.5.32.55.38.4.09-.23.17-.23,1.28-.08,1.4.18,2.84.2,5.48.03,3.98-.24,4.57-.35,4.87-.88q.13-.24.38.09l.25.32.17-.38.17-.38.2.23c.23.27.69.37,1.18.26,1.1-.25,2.04-.53,2.34-.69.28-.15.32-.23.32-.54v-.36s.3.48.3.48c.17.27.3.48.32.48.02,0,.14-.15.27-.31q.32-.38.45-.14c.07.12.24.23.38.24.29.03.77-.18.85-.37.02-.07.14-.21.28-.32.2-.17.28-.18.49-.07.35.19.65.09,1.25-.41l.51-.43.11.32.11.32.66-.35c.52-.28.71-.33.97-.29.27.05.43,0,1.04-.35.48-.27.75-.38.83-.33.14.07,2.2-.68,4.05-1.5,4.76-2.08,9.6-5.04,13.5-8.27.5-.41.93-.76.95-.77,0,0,.07.05.13.12.08.08.08-.08.02-.36l-.1-.5.31.2c.16.11.32.18.34.13.02-.04.57-.5,1.2-1.04l1.17-.98-.08-.39c-.08-.49.07-.5.32-.02l.2.36.02-.31c0-.27.08-.35.39-.52.44-.24,1.28-.95,1.74-1.49l.34-.38-.23-.37-.22-.36.54.2c.53.2.54.2.48-.04-.03-.13-.13-.4-.23-.59l-.18-.35.36.28.36.28.47-.53c.26-.29.79-.88,1.19-1.29.8-.84,1.63-1.89,1.88-2.41.13-.26.24-.35.54-.45l.37-.13-.28-.19c-.16-.11-.27-.22-.26-.26,0-.03.18-.1.4-.13.4-.07.49-.21.32-.54-.1-.18,0-.25.42-.25h.33s-.17-.32-.17-.32c-.18-.34-.17-.34.51-.48.23-.04.24-.06.02-.34-.19-.24-.2-.31-.07-.32.57-.07.64-.13.59-.46-.05-.32-.04-.32.23-.3.41.04.47-.04.29-.38-.09-.17-.15-.31-.13-.32.02,0,.2-.03.41-.05l.38-.04-.17-.31c-.15-.29-.15-.32.07-.37.13-.03.31-.07.39-.08.11-.01.12-.12.04-.36-.12-.39-.07-.46.28-.34.24.09.25.09.32-.26.04-.2.25-.55.49-.82.41-.45.61-.97.47-1.22-.04-.07,0-.15.07-.19.2-.11,1.13-1.51,1.66-2.54,1.52-2.85,4-9.99,5.33-15.29,1.21-4.84,1.74-8.87,1.67-12.59-.02-.72.01-1.5.06-1.72.04-.21.06-.7.04-1.08-.04-.41,0-.77.08-.88.08-.1.13-.39.11-.65-.02-.26-.05-1.14-.07-1.95-.05-1.34-.08-1.5-.27-1.59-.26-.14-.33-.26-.45-.77l-.09-.4.37.25c.32.23.36.23.34.04,0-.12-.08-.94-.14-1.82-.07-.89-.17-2.06-.22-2.61-.05-.55-.06-1.14-.02-1.29.06-.21.02-.37-.16-.66-.21-.32-.22-.39-.08-.49.13-.1.13-.17-.07-.49-.2-.31-.24-.51-.22-1.11.03-1.28-.05-1.76-.37-2.36-.17-.31-.35-.61-.41-.66-.09-.08-.03-.18.19-.33.15-.13.3-.26.31-.3.02-.03-.22-.1-.52-.14-.3-.04-.54-.1-.53-.12,0-.02.18-.08.39-.14.21-.06.38-.12.38-.12,0-.01-.14-.77-.31-1.69-.73-3.87-1.73-7.2-3.24-10.8-.35-.85-.61-1.59-.59-1.64.08-.13-.21-.1-.49.05-.4.21-.39,0,0-.25l.4-.25-.6-1.58c-1.51-3.98-3.27-7.74-5.37-11.49-.82-1.47-1.79-3.12-2.16-3.69-.36-.57-.9-1.43-1.19-1.93-1.31-2.23-1.7-2.82-1.95-2.96-.2-.12-.41-.44-1.07-1.65-.63-1.17-.92-1.61-1.25-1.95-.24-.24-.48-.54-.54-.66-.32-.63-1.26-2.11-1.33-2.07-.14.07-.04.7.21,1.33.23.57.22.58,0,.33-.32-.36-.55-1.02-.52-1.48.02-.33-.04-.48-.38-1.01-.44-.69-.79-.94-1.09-.79-.18.08-.18.07-.02-.17.14-.22.14-.3,0-.47-.1-.12-.36-.46-.59-.77-.23-.3-.44-.55-.46-.57-.03,0-.02.34.02.77.06.63.05.72-.07.52-.21-.4-.31-.98-.2-1.19.1-.2.07-.25-.96-1.58-.76-1-1.18-1.46-1.51-1.69-.31-.21-.55-.47-.73-.79-.15-.26-.79-.99-1.4-1.64-.62-.65-1.44-1.52-1.8-1.96-.65-.75-.68-.76-.83-.59-.17.2-.12.25-.78-.64-.23-.31-2.17-2.27-2.3-2.31-.05-.02-.15.11-.23.28-.07.17-.16.3-.2.29-.03-.02-.08-.22-.12-.46-.07-.44-.08-.45-1.42-1.7-1.35-1.25-1.36-1.27-1.53-1.07-.2.23-.57.26-.67.06-.06-.1,0-.16.2-.24.16-.05.27-.11.26-.13-.01-.02-.62-.46-1.36-.99-5.87-4.15-11.73-7.3-17.29-9.31-1.02-.36-1.84-.69-3.99-1.58-1.57-.64-4.49-1.49-6.08-1.76-.74-.12-1.78-.34-2.3-.5-1.24-.35-1.73-.38-2.09-.13-.16.11-.33.26-.39.33-.15.19-.41-.15-.45-.57-.03-.32-.04-.32-.5-.33-.25,0-.6,0-.76,0-.17,0-.84-.09-1.49-.2-.66-.11-1.9-.22-2.75-.27-.86-.04-2.27-.14-3.12-.2l-1.57-.12.17.43.18.43-.48-.42c-.26-.24-.56-.45-.66-.47-.15-.03-.14.04,0,.45.2.55.07.49-.41-.17-.15-.2-.31-.35-.35-.32-.04.02-.1.25-.12.51-.03.26-.07.48-.08.49-.03.01-.12-.18-.21-.44l-.17-.46-2.1.05-2.09.06.04.28c.1.69.07.74-.17.29-.14-.24-.3-.46-.38-.5-.16-.09-1.38.16-1.74.35-.18.1-.27.09-.33-.04s-.28-.14-.92-.04c-.53.06-.82.14-.81.22.01.06-.15.07-.39.02-.44-.09-.56-.06-.81.23-.14.16-.22.19-.41.12-.14-.05-.45-.06-.72-.01-.26.04-.75.08-1.08.09-.77.01-1.5.18-2.49.55-.44.16-.86.28-.94.26-.12-.02-.11.07.08.42.36.67.07.64-.36-.04l-.34-.53-.06.33c-.06.33-.07.33-.29.25-.14-.05-.48-.07-.77-.04-.47.03-.94.19-3.24,1.05-.39.14-1.18.41-1.75.59-.92.28-1.41.52-4.51,2.14-2.51,1.32-3.83,2.06-4.74,2.66ZM28.16,76.31c.26-.11.71-.2,1-.2.58,0,1.75-.38,3.02-.95.45-.2,1.06-.4,1.34-.43.83-.11,2-.42,2.42-.65.26-.14.65-.22,1.18-.24.44-.03,1.64-.22,2.68-.43,1.95-.4,3.97-.66,6.37-.85,2.48-.19,6.48-.3,8.22-.24.94.03,1.71.04,1.74.02.02-.02-.04-.24-.14-.48l-.17-.43.3.16c.19.1.37.29.46.5.15.32.18.33,1.04.39,1.44.1,4.16.47,5.82.79,5.66,1.09,12.83,3.6,17.55,6.14,1,.53,2.22,1.14,2.72,1.33,1.34.53,2.18,1.07,6.71,4.37.53.39,1.36.91,1.82,1.16.47.25.93.53,1.02.62s.76.67,1.48,1.3c1.16,1,1.6,1.44,2.3,2.24.13.15.28.19.55.13.54-.1.69-.04.36.14-.31.17-.31.2.1.57.16.16.44.47.61.71l.31.43.14-.44c.17-.5.17-.49.38.31q.21.8.61.7l.36-.1-.23.46c-.22.44-.22.45,0,.4.13-.03.38-.12.55-.2l.31-.14-.18.45c-.09.25-.16.48-.14.51.02.04.18,0,.35-.1.28-.15.32-.15.37.05.04.12.07.31.08.4.02.14.09.15.37.07l.34-.11-.18.32c-.14.23-.15.34-.05.43.08.06.38.34.66.61.29.28.64.59.78.7.19.13.35.36.53.79l.28.6.32-.09.33-.09-.22.28c-.24.33-.23.34.71,1.05l.61.47-.1.51-.11.53.49-.26c.27-.14.5-.23.52-.2.02.03-.02.22-.06.42l-.11.36.61.59c.52.49.76.81,1.54,2.11,1.09,1.81,1.54,2.42,2.18,2.95l.46.39-.18.16c-.21.19-.2.24.07.33.18.06.76,1.1,3.89,6.95,2.03,3.78,3.87,7.26,4.08,7.73.34.76.42.88.73,1.09l.35.24v.62c.01.7.16,1.01,1.28,2.77l.7,1.08-.05.45c-.05.47.07,1.18.33,1.89l.17.44.36-.19c.49-.26.59-.05.16.34l-.32.29.9,2.45c.49,1.35.92,2.57.96,2.72.08.25.1.26.37.11q.29-.14.2.07c-.06.12-.15.32-.21.42-.1.19-.08.2.32.23.49.03.48.11-.09.55l-.35.26h.43s.43,0,.43,0l-.13.3c-.1.24-.07.43.14,1.03.15.4.28.93.28,1.17.01.25.03.47.03.47,0,.02.15-.03.31-.1l.3-.11-.29.39-.3.38.26.86c.2.67.3.9.44.98.15.1.18.26.16.99-.02.49.01,1.17.07,1.52.05.35.12,1.15.16,1.77.08,1.35.22,1.93.6,2.37.23.27.26.33.15.5-.13.23-.12,1.55.05,4.03.07.93.09,2.13.07,2.67-.02.54-.06,1.33-.08,1.79-.03.71-.01.85.2,1.14.3.41.27.94-.09,1.77-.15.35-.26.94-.31,1.56-.14,2.28-.79,6.47-1.48,9.47-1.06,4.71-3.03,10.67-4.38,13.27-2.25,4.32-6.18,10.99-6.61,11.22-.03.02-.24-.11-.46-.29-.55-.47-1.74-1.21-3.06-1.89-1.66-.87-4.84-2.7-6.51-3.76-1.43-.9-2.54-1.62-7.41-4.87-4.31-2.86-7.2-4.62-7.21-4.37-.02.2,1.01,2.11,1.66,3.08.9,1.32,1.48,1.88,3.13,3.07,2.54,1.8,4.51,2.92,10.65,6.05,4.49,2.29,4.64,2.38,3.48,2.01-.88-.3-5.63-2.62-9.26-4.56-2.06-1.1-4.59-2.59-5.72-3.39-2.28-1.58-4.22-4.85-5.09-8.55-.3-1.27-.52-3.35-.49-4.57.02-.55,0-1.03-.02-1.07-.02-.04-.45-.11-.93-.14-2.39-.15-3.54-.54-4.41-1.5l-.32-.36.24-.99c.32-1.34.38-1.75.35-2.61l-.03-.74.29.27c.41.39.73,1.22.76,1.97.01.36-.1,1.06-.28,1.69l-.3,1.08.51.19c1.58.57,4.01.41,5.82-.36l.65-.28.03-.45c.02-.26.05-.6.05-.77l.02-.32.94.43c1.38.63,2.09.74,2.75.39.24-.13.29-.22.29-.58.01-.56-.22-1.18-.62-1.64-.18-.21-.81-.75-1.41-1.2-1.35-1.01-1.75-1.38-2.03-1.9l-.21-.41.37.25c.2.14.88.58,1.5.98.63.4,1.32.87,1.55,1.05.97.76,1.59,1.66,1.82,2.63.15.6.04.59,1.36.07,1.64-.65,3.09-1.39,3.94-2.03,1-.76,1.72-1.54,1.62-1.79-.03-.1-.61-.7-1.27-1.34l-1.2-1.15.78-.46c.88-.54,1.36-1.1,1.58-1.85.16-.59.16-1.98-.03-2.69-.23-.97-1.12-2.53-2.39-4.19-.59-.78-1.16-1.53-1.26-1.65-.32-.42-3.79-4.05-4.76-4.97-1.46-1.39-2.85-2.43-4.1-3.04-.27-.13-1.12-.72-1.87-1.29-.75-.58-1.61-1.21-1.88-1.42l-.51-.36-1.14.61c-1.32.71-2.28,1.34-3.88,2.6-1.6,1.23-1.59,1.22-.92,1.25,1.79.07,3.57-.64,5.73-2.28.38-.29.7-.52.72-.51.09.02-.18,1.35-.45,2.17-.31.98-.95,1.93-1.59,2.39-.81.58-1.94.47-3.85-.34-1.15-.49-1.81-.7-1.86-.61-.03.04-.05.78-.07,1.64-.02,1.52-.22,2.73-.56,3.43l-.16.32-.67-.07c-.8-.07-1.87-.35-2.64-.68l-.55-.24.02.41c.03.36.19.71,1.21,2.63,1,1.86,1.2,2.31,1.33,2.85.49,2.18,0,4.46-1.39,6.44-.56.81-1.26,1.61-1.38,1.57-.11-.03.4-1.28,1.06-2.63.9-1.82,1.22-2.92,1.2-4.18-.02-1.29-.25-1.96-1.07-3.18-.77-1.15-1.35-2.23-1.46-2.74-.12-.5.01-1.33.28-1.77l.2-.33,1.6.53,1.59.53.14-.4c.21-.63.5-2.66.5-3.54.01-.44.06-.85.12-.91.39-.38,2.45-2.09,3.48-2.87,1.42-1.09,4.3-2.8,4.7-2.8.68,0,1.96,1,3.48,2.7.34.38.69.72.78.76.18.07,2.22.06,2.23-.01,0-.11-1.18-3.18-1.66-4.29-.62-1.43-1.44-2.71-2.28-3.6-.65-.7-1.27-1.16-1.46-1.09-.07.03-.61.27-1.18.54l-1.04.48-1.12-.05c-1.21-.07-1.9.06-2.35.42-.16.12-.51.56-.78.98-.62.93-1.26,1.62-1.77,1.89l-.39.21-.18-.33c-.19-.36-1.37-1.97-1.45-2.01-.04,0-.31.41-.59.93-.29.51-.88,1.44-1.3,2.07-2.8,4.17-3.53,5.45-4.12,7.23-.92,2.79-.82,4.59.35,6.81.57,1.09.54,1.12-.26.39-.53-.49-1.16-1.62-1.35-2.44-.4-1.73,0-4.3,1-6.42.64-1.36,1.24-2.29,3.44-5.38,1.13-1.6,2.09-2.97,2.12-3.05.04-.09,0-.3-.09-.46-.28-.52-.59-1.75-.61-2.38-.02-.59.19-1.39.47-1.81.17-.25.19-.21.18.5-.02,1.36.47,2.65,1.14,3.04.51.29,1.04.26,2.71-.19,2.54-.69,4.77-1.47,6.69-2.33.79-.36.89-.42,1.18-.82.6-.83.84-2.01.53-2.62-.07-.13-1.06-1.06-2.2-2.05-2.25-1.99-6.71-6.12-8.1-7.52-2.01-2.02-3.59-2.79-5.32-2.62-.43.04-.79.15-1.19.37-.56.3-.59.33-.7.77-.6,2.36-.39,4.98.55,6.96.26.55.44,1.02.41,1.04-.11.06-.55-.39-.93-.95l-.35-.53.22.56c.12.31.24.75.25.98l.02.42-.31-.44c-.17-.24-.48-.76-.69-1.13-.68-1.24-1.46-1.9-2.32-1.95-.29-.01-.52.07-1.25.46-1.43.76-2.17,1.44-4.45,4.06-.79.91-1.56,1.71-1.73,1.8-.35.19-.4.34-.12.41.14.03.59-.17,1.56-.68,1.01-.53,1.83-.88,3.14-1.35.98-.35,1.8-.63,1.82-.62.07,0,.01,1.92-.07,2.37-.1.51-.42.84-1.2,1.26-.73.39-1.38.54-2.37.54-.86,0-2.29-.36-2.98-.77l-.4-.23-1.03.47c-.59.28-1.42.58-1.96.71l-.93.24.31-.41c.22-.3.59-.6,1.28-1.04,2.07-1.33,2.52-1.74,4.51-3.97,2.77-3.13,3.11-3.41,5.36-4.35l1.61-.67.11-.32c.46-1.35-1.85-2.23-4.21-1.6-.52.15-.94.34-1.9.89-2,1.16-2.6,1.82-4.28,4.66-1.56,2.65-2.37,3.54-4.07,4.45-1.05.56-1.86.78-2.87.79-.87,0-.89-.07-.07-.33.31-.1,1.03-.41,1.62-.68,2.04-.96,3.16-2.08,4.08-4.02.81-1.73,1.47-2.89,2.24-3.96,1.28-1.77,2.19-2.59,3.83-3.46,1.38-.73,2.03-.87,4.36-.95.86-.04,1.93-.13,2.4-.21.74-.14.94-.22,1.62-.64,2.22-1.37,3.33-3.74,2.55-5.52-.54-1.22-1.56-2.17-5.13-4.71-1.37-.98-3.2-2.37-4.06-3.07-2.85-2.34-3.91-2.96-5.03-2.93-.83.02-1.44.21-3.27,1.01-1.78.77-3.07,1.15-3.06.89.02-.25,2.94-1.59,5.27-2.41,1.19-.42,2.2-.79,2.26-.82.15-.08.04-2.43-.15-3.18l-.17-.65,1.8-.95,1.79-.94-1.05.95c-.58.52-1.09,1.05-1.13,1.16-.04.11-.06,1.04-.04,2.05.02,1,.02,2.03,0,2.28l-.05.44,2.27,1.77c6.96,5.41,11.11,8.22,13.92,9.4.84.35,1.65.57,1.82.48.19-.1-.26-1.46-.83-2.51-.85-1.57-1.44-2.23-4.43-4.96-2.18-1.98-2.29-2.15-2.76-4.45-.14-.65-.36-1.34-.63-1.98-.41-.91-.45-.97-.7-1.03-.77-.2-1.6.07-3.19,1.01l-1.14.66.02-.28c.04-.41.38-.84,1.1-1.36.74-.55,1.12-1.05,1.1-1.42-.04-.61-1.12-.96-2.01-.63l-.45.18v-1.2s.03-1.2.03-1.2l-.99-.74c-1.13-.83-1.9-1.17-2.73-1.14h-.53s-.95.69-.95.69l-.96.69h-.57c-.78.03-1.95.33-2.62.69-.48.26-.56.27-.58.13-.02-.09-.05-.28-.09-.41l-.06-.26.99-.45c.54-.26,1.36-.62,1.81-.83.81-.36.82-.37.76-.6-.15-.66-3.09-1.47-5.62-1.54-2.92-.09-6.6.34-8.95,1.05-2.04.61-4.53,1.91-5.68,2.97-1.07.97-2.26,2.69-2.79,4l-.18.44,1.95-.5c2.28-.59,3.17-.74,3.97-.67.68.06,1.53.33,2.07.65.85.51,1.82.42,3.42-.33.57-.27,1.06-.46,1.08-.42.07.13-.86.8-1.61,1.16-1.01.47-1.49.5-2.61.12-1.8-.6-2.4-.76-2.92-.75-.57.02-2.79.45-4.17.83-2.9.78-5.44,2.14-6.91,3.69-.44.47-.47.48-1.24.71-1.19.34-3.7,1.62-4.91,2.51-1.65,1.19-3.45,2.98-4.45,4.41-1.29,1.84-2.21,4.24-2.42,6.34-.13,1.24-.1,1.96.18,3.84.31,2.1.35,2.82.17,3.48-.14.52-.15.54-1.01,1.12-1.47,1.02-2.45,2.12-3.1,3.49-.42.88-.58,1.78-.51,2.88.05.86.12,1.14.78,2.89.33.89.39,1.47.2,2.21-.21.83-.26,1.82-.14,2.77.1.68.2,1.02.58,1.82.29.58.62,1.16.85,1.42.41.49,1.56,1.35,1.77,1.33.08-.02.4-.47.7-1.02,1.66-2.94,2.07-3.54,3.01-4.39.64-.59,1.26-.94,1.99-1.14q.6-.17-.43.59c-.44.32-1.09.88-1.46,1.23-.93.9-2.22,2.75-2.81,4.02-.63,1.37-.77,1.56-1.77,2.36-.91.74-1.3,1.22-1.39,1.73-.1.6,0,2.08.21,2.92.28,1.11,1.18,2.68,1.85,3.25.57.48,1.39.87,1.86.9.78.05,1.26-.45,1.92-1.96.23-.53.44-.96.48-.95.04.01.07.25.08.53.02.68-.33,1.99-.73,2.74-.38.71-1.33,1.82-1.91,2.22l-.41.3.96,1.89c1.33,2.63,2.31,4.22,2.89,4.65.23.19.6.4.82.49.78.32,2.59.06,3.8-.52l.49-.24-.26-.92c-.14-.51-.35-1.18-.48-1.5-.12-.31-.2-.58-.17-.6.03-.01.32.33.65.76.59.77.75.92.79.78.01-.04-.34-.6-.79-1.25-.75-1.09-.82-1.23-.93-1.74-.25-1.19.12-1.74,1.43-2.08.45-.12.82-.22.81-.23,0-.01,0-.33-.02-.72-.02-1.06-.14-1.28-1.51-2.87-1.59-1.82-2.25-2.73-2.88-3.92-.52-.98-.94-2.15-.99-2.78-.02-.28.17.03,1.41,2.37,1.33,2.51,1.46,2.73,1.97,3.28.3.32.78.73,1.07.92.43.28.57.44.82.92.56,1.04.75,2.37.48,3.42-.08.3-.12.6-.09.65.11.2,1.57,1.02,3.01,1.7.81.38,1.48.71,1.47.74,0,.03-.17.04-.36.02-1.12-.08-1.79-.35-3.69-1.5-1.09-.66-2.62-1.37-2.67-1.24-.05.16,1.81,4.67,2.5,6.05.34.69.38.73,1.21,1.34.47.34,1.67,1.1,2.67,1.7,2.57,1.53,3.29,1.7,6.42,1.49,1.39-.09,1.4-.09,1.04.13-.48.3-1.29.46-2.49.49-2.14.05-3.08-.27-5.15-1.72-1.1-.78-2.13-1.36-2.16-1.23-.06.2.23,1.46.52,2.23.53,1.45,1.59,2.8,2.89,3.7.57.4,1.04.6,1.95.88,1.09.33,1.34.36,2.46.32,1.2-.04,2.56-.31,3.67-.7.42-.16.56-.14,1.73.22,1.67.51,2.03.49,3.41-.13,1.24-.56,1.43-.63,3.43-1.27.85-.28,1.7-.59,1.88-.68l.33-.18-.11-.85c-.15-1.29-.56-2.81-1.32-5.07-.87-2.58-1.25-3.97-1.46-5.28-.15-.91-.23-2.55-.13-2.53.02.01.13.47.25,1.01.31,1.47.8,3.18,1.24,4.34,1.02,2.7,1.4,4.48,2.12,9.95.18,1.29.46,3.14.63,4.12.37,2.09.38,2.99.11,4.77l-.19,1.31,1.39.43c2.97.92,7.48,2.1,14.94,3.91,8.81,2.14,11.69,2.89,17.23,4.54,5.62,1.68,8.39,2.65,12.56,4.43,3.31,1.42,9.29,4.29,10.17,4.89.39.26.95.94,1.04,1.27l.09.32-.46-.41c-.72-.65-1.55-1.1-3.23-1.74-.84-.33-2.01-.82-2.58-1.1-1.39-.69-2.08-1-4.08-1.85-7.64-3.26-15.32-5.68-28.93-9.17-1.52-.39-3.59-.93-4.6-1.21-1.01-.28-3.13-.84-4.73-1.25-3.29-.84-6.07-1.65-7.78-2.29-.65-.23-1.21-.42-1.24-.43-.04,0-.32.42-.63.93-.88,1.45-1.96,2.66-4.78,5.33-.81.77-1.82,1.76-2.22,2.2s-.79.86-.87.93c-.12.12-.1.2.23.68.19.3.84,1.38,1.42,2.39l1.06,1.86.53-.28c1.6-.86,4.82-1.74,8.45-2.34,6.28-1.03,7.36-1.21,8.75-1.46,1.64-.31,3.5-.4,4.93-.24,1.57.19,4.92,1.09,14.08,3.83,10.52,3.14,13.76,4.03,17.76,4.87.61.13,1.53.34,2.03.47.5.13,1.8.35,2.9.5,2.17.28,3.66.55,3.62.66,0,.04-.38.08-.81.1-2.22.1-8.76-1.23-16.77-3.42-1.29-.36-5.41-1.53-9.14-2.63-7.91-2.32-11.85-3.43-13.1-3.72-1.89-.43-3.67-.33-7.42.38-1.3.25-3.28.59-4.39.75-3.5.51-6.69,1.19-9.72,2.07l-1.32.38-.47.8c-1.13,1.9-2.32,4.26-4.51,8.98-.74,1.6-1.54,3.3-1.79,3.78-.24.49-.42.92-.4.95.02.04.64.22,1.38.39l1.34.32.65,1.22c1.2,2.24,2.2,3.26,3.63,3.68.86.25,4.44,1,9.13,1.9,1.8.35,3.26.65,3.25.68-.03.11-1.72.21-2.79.17-1.94-.08-3.55-.41-7.99-1.65-1.34-.38-2.82-.76-3.3-.86-1.42-.29-4.7-1.55-7.98-3.07-2.83-1.32-6.22-3.14-7.29-3.91-.27-.2-.75-.5-1.05-.67-3.16-1.77-10.2-7.72-13.83-11.69l-1.16-1.27v.66c0,.37-.02.56-.06.43-.04-.14-.16-.55-.27-.92-.19-.63-.24-.73-.77-1.32-.31-.35-.76-.95-1.02-1.34l-.45-.7.04.79c.03.43.04.78.01.77-.02-.01-.25-.63-.5-1.37-.26-.75-.48-1.37-.5-1.37-.01,0-.27.02-.55.05l-.53.06.46-.32.45-.32-.45-.11-.45-.11-.41-.91c-.43-.96-.74-1.32-1.19-1.41-.19-.04-.2-.06-.15-.28.06-.22,0-.34-.65-1.31-.39-.58-.8-1.16-.9-1.27-.18-.18-.17-.12,0,.49.1.39.26.84.35,1,.09.17.14.35.1.4-.08.13-.69-1.02-.74-1.41-.03-.15,0-.45.06-.64l.1-.34h-.67l-.12-.51c-.09-.39-.38-1.03-1.1-2.37-.94-1.76-1.01-1.87-1.53-2.33l-.55-.5-2.72-5.09c-1.5-2.81-2.79-5.29-2.89-5.53-.15-.41-.14-.44.13-.58.27-.14.28-.17.13-.55-.08-.21-.4-.91-.7-1.54-2.98-6.22-5.22-14.41-6.27-23.01-.19-1.54-.24-1.75-.43-1.91-.2-.15-.22-.22-.14-.64.12-.67.14-1.39.03-2.18-.05-.38-.06-1.05-.02-1.48.03-.44.08-1.79.09-2.99.02-1.2.06-2.58.08-3.05.04-.48.02-1.36-.01-1.96-.05-.85.03-1.69.35-3.81.62-4.04.89-5.43,1.36-6.84.23-.7.78-2.5,1.24-4,1.06-3.51,1.98-5.86,3.81-9.77,1.53-3.27,2.16-4.27,5.72-9.22,2.38-3.33,2.53-3.51,4.4-5.47,1.06-1.11,2.22-2.31,2.56-2.66.62-.61.63-.64.53-.96-.06-.18-.09-.35-.07-.4.03-.04.23.06.47.23l.42.3-.06-.32-.07-.32.91-.53c.64-.37,1.33-.89,2.35-1.77.8-.68,1.59-1.34,1.76-1.46.28-.21.29-.23.11-.56l-.19-.35,1.66-.91c2.28-1.26,8.67-4.61,9.25-4.86ZM42.87,95.79c.74-.13,1.53-.12,2.57.03,1.01.15,1.53.07,2.88-.45,1.73-.66,2.38-.76,3.22-.51.79.23,1.27.55,1.85,1.16.77.84,1.26,2.18,1.3,3.56.02,1-.4,3.48-.85,4.99-.6,1.99-1.36,3.27-2.51,4.24-.68.58-1.52.91-3.7,1.48-1.89.49-2.82.86-3.47,1.4-.98.81-1.9,2.43-2.3,4.08-.14.57-.21.7-.25.51-.33-1.39.37-3.16,1.81-4.54.45-.44.81-.69,1.59-1.09.89-.48,1.16-.58,2.58-.91,2.6-.62,3.4-1.08,4.44-2.57,1.59-2.26,2.34-5.29,2.03-8.19-.26-2.37-2.11-4.04-4.02-3.62-.27.05-.95.29-1.51.51-1.31.53-1.86.6-2.94.36-1.61-.38-3.52-.15-4.48.54l-.33.23.19-.26c.31-.39,1.19-.83,1.92-.95ZM30.48,105.49c-.36.68-1.06,1.35-2.49,2.37-2.64,1.86-4.14,3.49-5.83,6.33-.27.46-.51.83-.53.82-.03,0,.13-.57.34-1.25.36-1.17.41-1.25.87-1.64.27-.22.66-.63.88-.92,1.01-1.31,1.64-1.89,4.18-3.85.99-.77,1.98-1.57,2.18-1.76.55-.54.63-.56.39-.1ZM32.05,107.58c1.79-.55,4.2-1.46,5.85-2.22,1.82-.83,1.92-.8.8.18-.81.7-2.2,1.33-4.26,1.94-2.32.68-3.35,1.1-4.14,1.68-.86.62-1.36,1.21-1.74,2.04-.73,1.61-1.09,2.23-2.35,4.02-.73,1.04-1.54,2.26-1.8,2.71l-.48.83.14,1.11c.24,2.03.04,3.29-.63,4.05-.17.18-1.14,1.06-2.16,1.96-2.08,1.82-3.25,3.02-4.15,4.21-.7.93-.8.87-.32-.16.46-1.01,1.13-1.84,2.38-2.95.61-.54,1.51-1.34,2.01-1.79,1.55-1.37,2.36-2.74,2.47-4.17.07-.84-.04-.96-.88-1.19-.75-.2-1.06-.49-.83-.77.06-.07.67-.74,1.35-1.47,2.1-2.27,2.76-3.21,3.94-5.63.45-.94,1.24-2.09,1.88-2.75.64-.68,1.63-1.22,2.94-1.61ZM44.2,104.91c.37-.05,1.35-.08,2.18-.05.83.03,1.54.03,1.58,0,.04-.02.15-.27.24-.55l.16-.5.55.19c.79.27.79.42.03.87-.87.51-1.44.62-3.75.67l-2,.05-.44.37c-.64.53-.94,1.01-1.67,2.55-.71,1.54-1,1.99-1.69,2.7-1.01,1.02-1.89,1.44-4.27,2.01-1.48.36-2.73.76-3.32,1.07-.22.11-.82.3-1.33.43l-.93.23,1.14-.58c.85-.42,1.58-.7,2.87-1.09,4.83-1.47,5.48-1.9,6.96-4.68,1.6-3.01,2.05-3.47,3.71-3.7ZM29.36,115.52s-.2.32-.46.59c-.58.6-1.15,1.41-1.48,2.08l-.24.49.28-.03.29-.03-.31,1.32c-.85,3.74-1.24,4.44-3.8,6.93-1.61,1.56-2,2.01-2.88,3.28-.75,1.08-1.22,2.02-1.91,3.81-.49,1.25-.97,2.29-1.24,2.68-.13.19-.09-.07.14-.88,1.04-3.61,2.87-6.72,5.21-8.91,1.71-1.59,2.42-2.46,2.8-3.39.12-.28.32-1.14.45-1.89.26-1.59.89-3.56,1.37-4.36.19-.3.53-.78.78-1.05.42-.48.94-.82.99-.64ZM33.04,114.67c1.45-.18,2.99.15,4.04.91.51.36.63.51.93,1.07.26.49.35.78.38,1.17.03.51.02.53-.91,1.78-.93,1.26-.93,1.28-1.5,3.01-.76,2.33-1.65,3.96-2.86,5.21-1.05,1.08-1.99,1.65-3.73,2.24-1.54.52-3.62,1.46-4.56,2.05-.92.58-2.34,1.62-2.48,1.82-.05.08-.11.57-.12,1.1,0,.53-.05,1.14-.09,1.35-.08.39-.42.97-.48.85-.11-.21-.46-1.97-.47-2.33-.02-.68.27-1.23.92-1.8.82-.73,3.29-2.03,5.22-2.77,1-.38,1.91-.8,2.99-1.39,1.86-1,2.37-1.44,3.41-2.88.65-.9.69-.99,1.28-3.01.66-2.22.98-2.88,1.7-3.48.56-.47.73-.74.87-1.35.29-1.33-.47-2.31-2.2-2.83-1.01-.29-2.02-.32-3.32-.07-.69.14-.87.14-.77.01.2-.24,1.02-.55,1.75-.65ZM29.36,119.02c.09.33.37,1.22.64,1.95.52,1.41.76,2.4.77,3.15v.44s-.34-.48-.34-.48c-.77-1.08-1.45-2.99-1.48-4.11-.01-.65.12-1.61.22-1.57.03,0,.12.28.2.62ZM16.52,131.35c.19.36-.39,1.88-.68,1.79-.34-.11-.03-1.62.38-1.84.16-.08.24-.07.3.05ZM39.03,120.55c1.05-.41,2.13-.65,2.91-.64,1.18,0,2.42.57,3.3,1.52.53.57.81,1.12.95,1.88.18.94.13,1.26-.31,1.73-.21.23-.43.59-.5.8l-.12.38-.84-.36c-1.54-.67-3.71-1-5.44-.84-.96.09-2.52.47-3.01.73-.49.26-.79.31-.87.15-.06-.11.07-.19.85-.55,2.19-1.03,4.75-1.13,7.71-.3l1.38.4.23-.34c.12-.17.29-.59.36-.91.37-1.59-.59-3-2.45-3.57-1.38-.42-2.96-.18-5.14.76-.68.3-1.24.53-1.27.52-.35-.11.84-.82,2.25-1.37ZM46.47,125.73c1.69,3.15,2.55,7.02,2.63,11.82l.04,1.95.39.5c.73.93,1.84,1.74,3.28,2.41.8.37,4.94,1.68,6.44,2.04,1.23.29,2.6.44,4.84.51,2.01.06,3.46.22,4.46.5l.82.22-.31,1.12c-.72,2.53-.87,5.32-.46,8.13.22,1.56.07,2.36-.68,3.36-.79,1.08-1.71,1.69-2.33,1.56-1.05-.22-1.79-1.62-3.85-7.29-1.16-3.19-1.56-4.19-2.31-5.78l-.5-1.07-1.09-.42c-.6-.23-1.74-.65-2.53-.93-2.87-1.03-4.53-1.99-5.72-3.32l-.59-.66.24,1.68c.13.93.33,2.08.44,2.58.24,1.07.83,2.41,1.36,3.06.62.77,1.61,2.49,2.05,3.58.76,1.89,1.1,3.44,1.19,5.31.07,1.58.11,1.9.32,2.75.62,2.53,2.26,4.95,4.36,6.45l.94.66.64-.31.64-.31-.12-.58c-.1-.46-.24-.76-.73-1.58-.34-.57-.73-1.18-.87-1.38l-.25-.37.49.17c.8.29,1.4.8,1.89,1.6.39.65.43.74.44,1.41.03.7-.17,1.31-.58,1.83-.09.12-.18.23-.19.26-.05.08,1.29.76,1.78.9.55.16,1.18.06,1.5-.23.11-.09.44-.24.75-.33,2.05-.6,4.42.51,5.57,2.65.75,1.38,2.8,1.95,4.44,1.22.76-.34,1.24-.83,1.52-1.54l.2-.52.54.2c.71.28,1.85,1.09,2.44,1.76.43.46.83,1.18,3.63,6.41,2.7,5.04,3.25,6,3.78,6.69.53.7,1.38,1.69,1.84,2.13.07.07-.1.05-.37-.05-.65-.23-1.47-.83-1.95-1.41-.25-.32-1.48-2.55-3.82-6.87-3.79-7.05-3.63-6.8-4.8-7.63-.53-.37-.56-.37-.67-.15-.65,1.37-2.19,2.04-4.54,1.99-1.57-.04-2.01-.32-3.22-2.07-.9-1.31-1.32-1.74-1.89-1.97-.6-.25-.93-.23-2.23.16-1.7.49-2.04.48-3.42-.17-3.81-1.77-6.51-4.17-7.81-6.95-.63-1.32-.83-2.26-.92-4.13-.07-1.65-.23-2.65-.62-4.01-.33-1.16-1.55-3.44-2.28-4.29-.3-.33-.59-.62-.65-.65-.15-.05-.22.81-.1,1.4.05.31.4,1.13.94,2.26.96,1.97,1.11,2.51.97,3.34-.14.84-.28,1.06-1.02,1.51-1.56.96-3.81.95-5.23-.01-.28-.19-.51-.32-.53-.27-.02.03.02.23.1.45.44,1.26.24,2.93-.45,3.91-.61.87-1.08,1.23-3.08,2.42-1.41.83-2.01,1.23-2.46,1.65-.32.29-.61.59-.63.66-.12.4,1.55.86,3.26.91.68.02,1.48.09,1.78.15.57.13,1.35.63,1.54.99l.11.21-.4-.09c-.22-.04-1.12-.15-2-.24-.87-.09-1.84-.22-2.14-.27-.85-.16-1.74-.63-2.26-1.19-.53-.56-.54-.51.07-1.22.6-.69,1.27-1.2,2.85-2.18,2.37-1.47,2.94-2.02,3.2-3.04.15-.61.14-1.31,0-2.68l-.12-.99-.28-.09c-.43-.16-1.31,0-2.33.42-2.26.93-3.05,1.11-4.28.97-1.56-.18-3.06-1.23-3.84-2.69-.64-1.2-.75-2.21-.33-3.42.36-1.07.93-1.79,2.8-3.52,1.69-1.56,1.93-2.06,2.14-4.52.2-2.33.41-2.73,2.24-4.24,1.46-1.19,1.85-1.57,2.24-2.17.61-.9.72-1.9.33-3.07-.23-.69-.7-1.34-1.28-1.74-.42-.3-1.64-.61-2.32-.6-1.38.04-2.82.74-3.92,1.92-.74.81-1.12,1.43-1.72,2.88-1.17,2.79-2.86,5.56-5.18,8.51-1.01,1.28-1.35,2.54-1.25,4.59l.03.79-.3-.62c-.22-.48-.29-.8-.31-1.35-.07-1.84.6-3.4,2.34-5.42,1.37-1.58,2.84-4.02,4.33-7.21,1.06-2.27,1.87-3.21,3.54-4.1.96-.51,1.73-.75,2.72-.82,2.18-.16,4.41,1.85,4.48,4.07.05,1.49-.75,2.73-2.86,4.45-2,1.64-1.98,1.61-2.17,2.36-.09.37-.17,1.17-.18,1.78-.04,2.63-.29,3.14-2.58,5.29-1.16,1.1-1.96,2.14-2.17,2.83-.3,1,.04,2.96.68,4.02.45.73.9,1.08,1.64,1.3.99.29,1.88.14,3.83-.6,1.48-.57,2.24-.76,2.91-.79.56-.01.98.18,2.46,1.15.85.55,1.74.82,2.37.72.28-.05.82-.2,1.22-.34,2.13-.75,2.32-1.82.85-4.82l-.67-1.39-.45.4c-2.63,2.29-5.09,2.63-7.29,1-.82-.6-1.37-1.19-2.1-2.23-.81-1.18-.8-1.12-.29-1.3,1.07-.41,2.14-.24,4.27.62,1.87.76,2.51.93,3.46.9.59-.03.75-.06,1.09-.3.41-.29.83-.83,1.25-1.62.22-.41.22-.46.05-.44-.1.02-.54.04-.96.07-2.42.09-4.68-1.16-6.88-3.82-.66-.8-2.14-3.12-1.98-3.12.15,0,1.02.96,2.16,2.34,1.8,2.19,2.58,2.87,3.78,3.3.47.17.9.22,1.54.2,1.15-.05,1.54-.24,1.7-.83.16-.56.13-1.02-.15-2.83-.28-1.85-.34-2.67-.45-5.84-.15-4.72-.56-6.69-1.93-9.27-.33-.62-.64-1.3-.69-1.49-.07-.34.1-1.04.29-1.14.04-.02.23.24.41.58ZM21.89,145.32c-.03.53-.43,1.36-.87,1.83-.48.52-2.54,1.74-2.57,1.53-.03-.18.33-.76.82-1.33.3-.34,2.21-2.09,2.56-2.35.04-.02.06.12.05.32ZM-2.24,167.5c.26.47.54,1.05.62,1.28l.13.43-.25-.31c-.32-.39-1.26-2.13-1.39-2.55l-.1-.33.25.31c.14.17.46.7.73,1.17ZM83.73,155.13c1.19,1.44,2,2.07,3.52,2.74,2.09.91,2.67,1.56,2.74,3.04.05,1.09-.27,2.98-.49,2.92-.1-.04-.38-1.18-.62-2.51-.12-.68-.31-1.47-.43-1.76l-.2-.52-.88-.39c-2.97-1.35-3.98-2.25-4.32-3.89-.04-.21-.04-.36.02-.34.05.02.33.33.64.7ZM81.05,159.95c.4.85,1.33,2.19,1.86,2.69.59.54,1,.77,2.13,1.15,1.25.42,1.74.83,2.31,1.86.35.64.4.81.42,1.39l.03.65-.68-1.14c-.81-1.36-1.11-1.64-2.27-2.05-.93-.34-1.86-.89-2.54-1.5-.73-.67-1.49-2.09-1.6-3.02-.04-.35-.06-.66-.03-.68.03-.01.2.27.37.64ZM46.35,207.38c1.15-.19,5.57-.6,8.55-.78,8.42-.54,15.47-.53,32.61.08,8.94.31,10.57.35,12.71.34,3.15-.02,6.43.08,6.38.22-.04.15-1.92.32-4.08.37l-2.47.05.24.35c.5.69,1.44,2.14,1.42,2.18,0,.04-.61.19-1.34.37-14.29,3.36-29.91,4.35-48.63,3.07-3.73-.26-4.67-.37-5.39-.6l-.61-.2h.89c.49,0,1.68.05,2.62.11,4.96.29,6.68.38,9.34.5,13.42.57,24.99-.16,36.65-2.28,2.4-.44,5.97-1.19,5.98-1.27.02-.03-.09-.15-.23-.27-.18-.14-.3-.17-.44-.1-.11.06-.28.12-.37.13-.15.01-.14-.03.02-.22.18-.23.18-.31-.04-.97-.13-.4-.27-.73-.29-.74-.03,0-1.63-.07-3.57-.13-1.93-.07-6.02-.21-9.08-.32-11.41-.41-17.21-.5-24.09-.39-5.73.1-12.55.53-17.18,1.07-.96.11-1.47.09-1.55-.06-.05-.09.9-.32,1.96-.5ZM92.3,187.42c.55.09,1.21.68.93.83-.22.12-.85.02-1.12-.17-.59-.41-.48-.78.19-.66ZM112.05,197.12c.48.15.88.46.83.65-.05.14-.79.1-1.11-.06-.16-.08-.38-.26-.5-.39-.19-.23-.19-.25.04-.3.13-.03.47.02.74.11Z"/>
        <path class="cls-22" d="M77.34,115.67c-.52.41-1.32,1.31-1.86,2.08l-.43.61.62.25c1.6.64,3.31,1.87,4.2,3.01.14.17.28.34.32.36.04.02.1-.28.13-.67.03-.4.22-1.29.42-1.98.59-2.12.68-2.96.42-3.89q-.11-.41-.74-.57c-.35-.08-.84-.12-1.1-.08-.61.1-1.48.49-1.98.88Z"/>
        <path class="cls-22" d="M22.63,118.98c-.18.25-.09.43.19.43.31,0,.6-.19.74-.46.15-.3.11-.37-.22-.35-.33.02-.52.12-.71.38Z"/>
        <path class="cls-22" d="M59.87,146.21c.61,1.14,1.03,2.15,2.22,5.4.52,1.43,1.13,3.04,1.34,3.56.44,1.06,1.38,2.85,1.94,3.7l.37.56.4-.27c1.21-.85,1.61-2.34,1.33-4.98-.21-2.04-.07-4.37.41-6.94.19-1.05.22-1.41.11-1.43-.08,0-.48-.02-.88-.03-1.1-.02-3.47-.17-5.67-.35-1.08-.09-1.99-.15-2-.14-.03.01.17.43.44.92Z"/>
        <path class="cls-22" d="M-3.12,179.4c1.6,2.97,2.98,5.49,3.09,5.61.18.21.19.21.23,0,.04-.19-.3-.89-2.33-4.75-1.31-2.49-2.64-4.95-2.97-5.47-.52-.85-.6-.94-.75-.86-.16.08-.09.24,2.72,5.47Z"/>
      </g>
    </mask>
    <radialGradient id="Dégradé_sans_nom_4" data-name="Dégradé sans nom 4" cx="-409.26" cy="1371.03" fx="-409.26" fy="1371.03" r="1" gradientTransform="translate(-212162.84 63557.78) rotate(90) scale(154.92 -154.86)" gradientUnits="userSpaceOnUse">
      <stop offset="0" stop-color="#decaba"/>
      <stop offset="1" stop-color="#3ca8e6"/>
    </radialGradient>
    <mask id="mask-2" x=".12" y=".67" width="356.17" height="309.84" maskUnits="userSpaceOnUse">
      <g id="mask2_3505_606" data-name="mask2 3505 606">
        <ellipse class="cls-8" cx="154.98" cy="155.59" rx="154.86" ry="154.92"/>
      </g>
    </mask>
    <mask id="mask-3" x="1.36" y="-15.33" width="309.07" height="324.31" maskUnits="userSpaceOnUse">
      <g id="mask3_3505_606" data-name="mask3 3505 606">
        <circle class="cls-5" cx="155.9" cy="154.44" r="154.5"/>
      </g>
    </mask>
    <linearGradient id="Dégradé_sans_nom_5" data-name="Dégradé sans nom 5" x1="157.1" y1="150.67" x2="157.1" y2="-8.33" gradientTransform="translate(0 301.33) scale(1 -1)" gradientUnits="userSpaceOnUse">
      <stop offset="0" stop-color="#95bbce"/>
      <stop offset="1" stop-color="#3ca8e6"/>
    </linearGradient>
  </defs>
  <g class="cls-25">
    <circle class="cls-20" cx="157.12" cy="155.18" r="154.5"/>
    <g class="cls-3">
      <ellipse class="cls-11" cx="173.12" cy="249.17" rx="236.5" ry="143.5"/>
    </g>
    <g class="cls-18">
      <ellipse class="cls-4" cx="61.41" cy="149.03" rx="61.3" ry="72.22" transform="translate(-63.71 47.42) rotate(-28.52)"/>
    </g>
    <rect class="cls-13" x="119.65" y="77.12" width="4" height="31" transform="translate(-8.82 12.9) rotate(-5.86)"/>
    <rect class="cls-13" x="126.61" y="76.36" width="5" height="31" transform="translate(-8.7 13.66) rotate(-5.86)"/>
    <rect class="cls-13" x="135.57" y="75.49" width="4" height="31" transform="translate(-8.57 14.52) rotate(-5.86)"/>
    <rect class="cls-13" x="180.34" y="70.9" width="4" height="31" transform="translate(-7.87 19.07) rotate(-5.86)"/>
    <rect class="cls-13" x="171.38" y="71.77" width="5" height="31" transform="translate(-8 18.21) rotate(-5.86)"/>
    <rect class="cls-13" x="163.42" y="72.63" width="4" height="31" transform="translate(-8.13 17.35) rotate(-5.86)"/>
    <rect class="cls-13" x="154.47" y="73.55" width="4" height="31" transform="translate(-8.27 16.44) rotate(-5.86)"/>
    <rect class="cls-13" x="144.52" y="74.57" width="4" height="31" transform="translate(-8.43 15.43) rotate(-5.86)"/>
    <rect class="cls-26" x="114.66" y="68.16" width="70" height="7" transform="translate(-6.53 15.65) rotate(-5.86)"/>
    <rect class="cls-26" x="118.28" y="104.92" width="71" height="4" transform="translate(-10.11 16.26) rotate(-5.86)"/>
    <path class="cls-4" d="M146.89,53.47l29.53,12.05-56,5.75,26.47-17.79Z"/>
    <g class="cls-16">
      <path class="cls-23" d="M99.9,206.89c-4.86,3.83-15.38,17.57-20.03,23.96l276.42-1.89c-2.74-.95-6.33-4.11-9.65-12.01-6.44-15.33-12.16-18.21-17.16-19.65-5.01-1.44-7.15,5.27-9.66,5.75-2.5.48-12.52-9.58-17.52-13.42-4.01-3.07-10.01-2.24-12.52-1.44-1.67-3.67-6.72-11.02-13.59-11.02h-9.3c-33.26-42.65-64.01-26.36-66.16-25.88-1.72.38-11.2,7.83-15.73,11.5-.84.64-3.29,1.53-6.44,0-3.15-1.53-4.89,3.83-5.36,6.71-1.31-3.52-4.94-10.45-8.94-10.06-5.01.48-11.8,28.75-16.45,28.75s-5.01-1.44-8.58-3.35c-3.58-1.92-7.51-11.98-10.73-13.9-3.22-1.92-6.79,6.71-7.15,11.98-.36,5.27-15.38,19.17-21.46,23.96Z"/>
    </g>
    <path class="cls-6" d="M241.85,153.35l.05-.46-42.69,1.78-15.01.63-2.06,11.1,57.52,3.96,2.19-17Z"/>
    <path class="cls-6" d="M264.78,166.85l-22.92-13.49-2.19,17,23.99,7.55,1.12-11.06Z"/>
    <path class="cls-24" d="M203.02,140.11l-1.86,9.12c-.32.12-1.07.45-1.48.78-.41.33-.02,1.7.23,2.35.23.77,1.92.5,2.74.28.11.18.26.36.45.51,1.04.85,2.05-.3,2.43-.99.13.13.27.24.43.34.88.56,3.75-4.74,3.8-5.2.04-.37,3.43-2.6,5.13-3.67.02-.36.07-.68.17-.92.08-.22.2-.37.35-.43.07-.03.15-.07.24-.12-3.5-4.65-10.6-14.8-11-18.19-.35-2.96-.85-6.17-1.51-8.19,3.6,1.38,9.64-1,12.22-2.36,1.43,3.56,3.4,7.92,4.27,10.21,1.48,3.87.64,12.17.5,13.55-.13,1.29-3.26,4.28-4.48,4.99-.09.05-.17.1-.24.12-.15.06-.27.21-.35.43-.09.24-.14.56-.17.92-.08,1.41.34,3.45.93,3.82.88.55,1.99-1.2,2.91-1.1.74.08,1.88-.12,2.36-.23.49-.26,1.76-.75,2.87-.64,1.39.14,3.42-1.52,3.93-1.93.41-.33,1.9-1.83,2.59-2.53,1.02-.83,1.3-3.59,1.34-4.05.05-.46-2.4-8.62-2.77-9.59-.29-.78-.17-12.12-.08-17.7.14.17.59.62,1.29,1.06.7.44,5.96,2.62,8.51,3.65.49-.26,1.59-.96,2.04-1.66.56-.88.51-5.07.61-5.99.09-.92-.59-7.98-.5-8.9.09-.92,1.72-12.39,1.86-13.78.11-1.11-.56-6.73-.92-9.4l-.04-4.19c0-.14,0-.3,0-.47-.74,1.32-2.26,4.24-2.37,5.35-.14,1.38-2.41,5.34-2.55,6.72-.14,1.38-1.07,5.94-1.58,6.36-.36.29-3.81,1.19-6.7,1.61-1.23.18-2.35.27-3.1.2-2.5-.25-7.91-2.2-9.81-1.92-1.52.22-3.47.42-4.25.5-.55,1.22-2.01,3.68-3.73,4.51-.11,1.26,2.09,6,3.27,8.35.05.06.08.1.07.14-.02-.05-.05-.09-.07-.14-.44-.49-2.72-1.59-3.93-2.12.25-.2.23-.93.17-1.38-.4-.66-1.18-2.17-1.11-2.91.08-.74.77-1.47,1.11-1.75.16-.05.33-.11.49-.19,1.72-.83,3.17-3.29,3.73-4.51.79-.08,2.74-.28,4.25-.5,1.9-.27,7.3,1.67,9.81,1.92.75.07,1.87-.02,3.1-.2,2.89-.42,6.34-1.32,6.7-1.61.51-.41,1.44-4.97,1.58-6.36.14-1.38,2.41-5.34,2.55-6.72.11-1.11,1.63-4.03,2.37-5.35.04-2.02.15-5.71.32-7.42.23-2.31-2.03-3-3.33-4.06-1.29-1.06-10.63-1.08-12.48-1.26-1.85-.19-4.39-2.77-4.76-3.74-.34.28-1.2.81-1.94.73-.92-.09-.14-3.27-.09-3.73.05-.46-2.64-1.66-2.59-2.12.05-.46-2.68-1.2-3.14-1.25-.46-.05-3.19-.79-3.65-.84-.46-.05-3.38,1.06-4.3.96-.74-.07-2.3,1.01-2.99,1.56,0,.22,0,.39-.02.46-.04.37,1,2.43,1.52,3.41.08.78.21,2.54.14,3.27-.06.63,1.12,2.33,1.99,3.45.6-1.35,7.86.81,9.11,2.33,1,1.22-.2,3.55-.93,4.56l4.62,14.38c1-.14,1.75-.23,1.89-.22.32.03,3.46-1,5.51-1.77.9-.34,1.6-.63,1.75-.75l1.07-1.29c-.19.29-.66.96-1.07,1.29-.15.13-.85.42-1.75.75-2.05.77-5.19,1.8-5.51,1.77-.14-.01-.89.08-1.89.22-2.31.32-5.97.85-6.62.79-.4-.04-1.61.39-2.89.92-1.07.44-2.19.94-2.93,1.29-.65.25-2.34.97-3.93,1.93-1.59.96-4.09,3.47-5.14,4.6-.37.58-1.23,2.02-1.71,3.08-.48,1.07-.08,2.32.18,2.81-2.16-.22-6.49-.47-6.57.27-.07.74-3.64,2.11-5.41,2.71-4.54,3.26,3.5,16.18,3.36,17.57-.11,1.11,10.21,16.09,15.38,23.44Z"/>
    <path class="cls-6" d="M212.69,81.5c.64.06,4.31-.47,6.62-.79l-4.62-14.38c.72-1.01,1.93-3.34.93-4.56-1.25-1.52-8.5-3.68-9.11-2.33.15.19.29.37.42.52-.48.99-1.25,2.6-1.79,3.8.02,1.31.25,4.05.95,4.49.21.13.36.31.47.51.27.49.3,1.1.27,1.42l2.97,12.22c1.28-.53,2.49-.96,2.89-.92Z"/>
    <path class="cls-6" d="M200.12,71.85c-.63,2.54,4.23,8.96,6.74,11.86.74-.35,1.86-.85,2.93-1.29l-2.97-12.22c.03-.33,0-.94-.27-1.42-.11-.2-.26-.38-.47-.51-.7-.44-.92-3.18-.95-4.49-.35.78-.61,1.39-.62,1.54-.04.37-1.71,1.53-2.55,2.07-.35.43-1.22,1.93-1.85,4.47Z"/>
    <path class="cls-6" d="M215.04,39.83c-4.53-1.39-9.02,1.42-10.64,3.58-1.34,1.79-1.48,4.35-1.51,5.43.69-.55,2.25-1.63,2.99-1.56.92.09,3.84-1.01,4.3-.96.46.05,3.19.79,3.65.84.46.05,3.19.79,3.14,1.25-.05.46,2.63,1.66,2.59,2.12-.05.46-.84,3.64.09,3.73.74.07,1.6-.46,1.94-.73-.37-.97.14-1.38.69-2.26.45-.7-.64-4.41-1.24-6.18-.49-1.29-2.38-4.15-6.01-5.26Z"/>
    <path class="cls-7" d="M220.13,137.19c.14-1.38.98-9.68-.5-13.55-.87-2.29-2.85-6.65-4.27-10.21-2.57,1.36-8.62,3.75-12.22,2.36.65,2.02,1.15,5.23,1.51,8.19.4,3.39,7.5,13.54,11,18.19,1.22-.71,4.35-3.7,4.48-4.99Z"/>
    <path class="cls-7" d="M244.1,117.27c-.33-.41-3.68-2.08-5.31-2.87-2.54-1.03-7.8-3.21-8.51-3.65-.7-.44-1.15-.89-1.29-1.06-.1,5.58-.22,16.92.08,17.7.37.97,2.81,9.13,2.77,9.59-.05.46-.33,3.23-1.34,4.05-.69.71-2.18,2.2-2.59,2.53-.51.41-2.55,2.07-3.93,1.93-1.11-.11-2.37.38-2.87.64-.48.11-1.62.3-2.36.23-.92-.09-2.04,1.66-2.91,1.1-.59-.37-1.01-2.41-.93-3.82-1.69,1.07-5.09,3.3-5.13,3.67-.05.46-2.92,5.76-3.8,5.2-.16-.1-.31-.22-.43-.34-.38.68-1.4,1.84-2.43.99-.19-.15-.34-.33-.45-.51-.82.23-2.5.49-2.74-.28l-.7,2.3,42.69-1.78-.05.46,22.92,13.49c.02-.15-.04-.56-.37-.97-.42-.51-1.75-5.76-2.12-6.73-.37-.97-3.19-.79-4.02-1.8-.83-1.01-3.88-7.84-5.03-10.29-1.15-2.44-1.56-12.26-1.1-16.87.47-4.61-7.62-12.41-8.04-12.92Z"/>
    <path class="cls-2" d="M206.86,83.7c-.65.25-2.34.97-3.93,1.93-1.59.96-4.09,3.47-5.14,4.6-.37.58-1.23,2.02-1.71,3.08-.48,1.07-.08,2.32.18,2.81-2.16-.22-6.49-.47-6.57.27-.07.74-3.64,2.11-5.41,2.71-4.54,3.26,3.5,16.18,3.36,17.57-.11,1.11,10.21,16.09,15.38,23.44l-1.86,9.12c-.32.12-1.07.45-1.48.78-.41.33-.02,1.7.23,2.35M206.86,83.7c-2.51-2.89-7.37-9.31-6.74-11.86s1.5-4.04,1.85-4.47c.83-.54,2.51-1.7,2.55-2.07.01-.15.27-.75.62-1.54M206.86,83.7c.74-.35,1.86-.85,2.93-1.29M221.6,53.53c-.37-.97.14-1.38.69-2.26.45-.7-.64-4.41-1.24-6.18-.49-1.29-2.38-4.15-6.01-5.26-4.53-1.39-9.02,1.42-10.64,3.58-1.34,1.79-1.48,4.35-1.51,5.43M221.6,53.53c.37.97,2.91,3.55,4.76,3.74,1.85.19,11.19.2,12.48,1.26,1.29,1.06,3.56,1.76,3.33,4.06-.17,1.7-.28,5.4-.32,7.42M221.6,53.53c-.34.28-1.2.81-1.94.73-.92-.09-.14-3.27-.09-3.73.05-.46-2.64-1.66-2.59-2.12.05-.46-2.68-1.2-3.14-1.25-.46-.05-3.19-.79-3.65-.84-.46-.05-3.38,1.06-4.3.96-.74-.07-2.3,1.01-2.99,1.56M238.79,114.4c.49-.26,1.59-.96,2.04-1.66.56-.88.51-5.07.61-5.99.09-.92-.59-7.98-.5-8.9.09-.92,1.72-12.39,1.86-13.78.11-1.11-.56-6.73-.92-9.4l-.04-4.19c0-.14,0-.3,0-.47M238.79,114.4c1.63.79,4.98,2.46,5.31,2.87.42.51,8.5,8.31,8.04,12.92-.47,4.61-.06,14.43,1.1,16.87,1.15,2.45,4.2,9.27,5.03,10.29M238.79,114.4c-2.54-1.03-7.8-3.21-8.51-3.65-.7-.44-1.15-.89-1.29-1.06M258.27,157.34c.83,1.02,3.65.84,4.02,1.8.37.97,1.71,6.22,2.12,6.73.33.41.38.81.37.97M258.27,157.34c-2.85-1.06-9.12-4-11.42-7.21M264.78,166.85l-22.92-13.49M264.78,166.85l-1.12,11.06-23.99-7.55M241.85,153.35l.05-.46-42.69,1.78M241.85,153.35l-2.19,17M183.27,155.34l.94-.04M184.2,155.3l-2.06,11.1,57.52,3.96M184.2,155.3l15.01-.63M199.21,154.67l.7-2.3M199.91,152.37c.23.77,1.92.5,2.74.28M228.46,77.97c.41-.33.88-1,1.07-1.29l-1.07,1.29ZM228.46,77.97c-.15.13-.85.42-1.75.75M226.71,78.73c-2.05.77-5.19,1.8-5.51,1.77-.14-.01-.89.08-1.89.22M226.71,78.73c.03-1.24.19-4.08.56-5.53s1.23-3.29,1.62-4.03c.39-.74,1.08-2.4.79-3.18M219.31,80.71c-2.31.32-5.97.85-6.62.79-.4-.04-1.61.39-2.89.92M219.31,80.71l-4.62-14.38c.72-1.01,1.93-3.34.93-4.56M215.62,61.78c-1.25-1.52-8.5-3.68-9.11-2.33M215.62,61.78l3.56-2.9.23-2.3M206.52,59.44c.15.19.29.37.42.52-.48.99-1.25,2.6-1.79,3.8M206.52,59.44c-.87-1.12-2.05-2.82-1.99-3.45.07-.74-.06-2.49-.14-3.27-.52-.98-1.56-3.04-1.52-3.41,0-.08,0-.24.02-.46M205.14,63.77c.02,1.31.25,4.05.95,4.49.21.13.36.31.47.51M209.8,82.41l-2.97-12.22c.03-.33,0-.94-.27-1.42M206.56,68.77c.17-.29.52-1.07.59-1.8M241.84,70.02c-.74,1.32-2.26,4.24-2.37,5.35-.14,1.38-2.41,5.34-2.55,6.72-.14,1.38-1.07,5.94-1.58,6.36-.36.29-3.81,1.19-6.7,1.61M211.48,88.82c.79-.08,2.74-.28,4.25-.5,1.9-.27,7.3,1.67,9.81,1.92.75.07,1.87-.02,3.1-.2M211.48,88.82l-.37-.97M211.48,88.82c-.55,1.22-2.01,3.68-3.73,4.51M203.94,94.11c-.05.46-.16,1.57-.23,2.3-.09.92,2.08,2.54,2.96,3.09.2.12.34.12.44.04M205.79,98.96c-.06.61-.28,1.83-.65,1.8-.19-.02-.81-.31-1.5-.75M201.58,94.34c-.22.6-.58,2.08-.33,3.23.19.85,1.36,1.8,2.38,2.44M203.64,100c-.04.97-.29,2.8-1,2.36-.88-.55-4.71-4.2-4.53-6.04.19-1.84,1.11-1.75,1.21-2.67.09-.92.28-2.76.33-3.23M228.99,109.68c-1.17-3.84-3.77-11.65-4.84-12.13M228.99,109.68c-.1,5.58-.22,16.92.08,17.7.37.97,2.81,9.13,2.77,9.59-.05.46-.33,3.23-1.34,4.05-.69.71-2.18,2.2-2.59,2.53-.51.41-2.55,2.07-3.93,1.93-1.11-.11-2.37.38-2.87.64-.48.11-1.62.3-2.36.23-.92-.09-2.04,1.66-2.91,1.1-.59-.37-1.01-2.41-.93-3.82M213.73,108.14c-.08.75.65,2.83,1.63,5.29M215.66,142.18c-.09.05-.17.1-.24.12-.15.06-.27.21-.35.43-.09.24-.14.56-.17.92M215.66,142.18c1.22-.71,4.35-3.7,4.48-4.99.14-1.38.98-9.68-.5-13.55-.87-2.29-2.85-6.65-4.27-10.21M215.66,142.18c-3.5-4.65-10.6-14.8-11-18.19-.35-2.96-.85-6.17-1.51-8.19M196.12,106.82c1.66,2.03,5.21,6.3,6.11,7.14.34.31.64.96.93,1.83M214.9,143.64c-1.69,1.07-5.09,3.3-5.13,3.67-.05.46-2.92,5.76-3.8,5.2-.16-.1-.31-.22-.43-.34M204.82,150.07c-.08.75.16,1.54.72,2.1M205.54,152.17c-.38.68-1.4,1.84-2.43.99-.19-.15-.34-.33-.45-.51M202.46,150.3c-.18.49-.33,1.52.19,2.35M215.37,113.43c-2.57,1.36-8.62,3.75-12.22,2.36M207.1,99.55c.25-.2.23-.93.17-1.38-.4-.66-1.18-2.17-1.11-2.91.08-.74.77-1.47,1.11-1.75.16-.05.33-.11.49-.19M207.1,99.55c1.21.54,3.49,1.64,3.93,2.12M211.1,101.82l.69,2.4M211.1,101.82s-.02-.09-.07-.14M211.1,101.82s-.05-.09-.07-.14M207.76,93.33c-.11,1.26,2.09,6,3.27,8.35M228.64,90.05c1.51,2.03,4.6,6.19,4.94,6.6.42.51,2.96,3.09,3.84,3.65"/>
    <g class="cls-17">
      <path class="cls-15" d="M227.12,10.17c0,14.08-11.42,25.5-25.5,25.5s-25.5-11.42-25.5-25.5,11.42-25.5,25.5-25.5,25.5,11.42,25.5,25.5Z"/>
    </g>
    <path class="cls-12" d="M257.69,94.2c.41,2.76,9.55,11.15,14.07,14.99,2.91,5.61,1.67,13.62-2.36,19.29-3.22,4.53-1.34,12.23,0,15.51,7.87,2.86,20.77-1.92,26.23-4.67,1.1-1.43-2.37-8.87-4.24-12.41-7.37-5.07-11.32-15.82-10.52-18.19,2.14-6.34,4.87-13.21,7.61-19.43l-2.22-6.5c-8.04,6.71-22.56,6.06-28.81,4.89-.09,1.02-.18,3.76.24,6.52ZM281.59,97.25c-5.56-1.53-12.08,1.16-14.65,2.7l7.79,10.21,3.58,18.25c-1.88-.02-6.25,1.48-8.67,7.58-3.02,7.63,10.65,7.91,17.57,4.89,6.92-3.02,5.21-7.06,4.5-9.13-.57-1.65-7.12-3.4-10.33-4.06l-4.16-15.08,4.36-15.35Z"/>
    <path class="cls-6" d="M266.94,99.95c2.57-1.54,9.09-4.23,14.65-2.7l-4.36,15.35,4.16,15.08c3.21.66,9.77,2.4,10.33,4.06.71,2.07,2.42,6.1-4.5,9.13-6.92,3.02-20.6,2.75-17.57-4.89,2.42-6.11,6.79-7.6,8.67-7.58l-3.58-18.25-7.79-10.21Z"/>
    <path class="cls-26" d="M295.63,139.32c-5.47,2.75-18.37,7.53-26.23,4.67-.89.96-2.46,3.28-1.65,4.85,1,1.97,16.39,6.28,30.39-5.1.06-1.12-.36-3.57-2.51-4.42Z"/>
    <path class="cls-26" d="M257.45,87.68c6.25,1.16,20.76,1.82,28.81-4.89,1.01-3.25-.72-4.7-1.72-5.02-13.83,6.84-23.91,5.97-27.22,4.68-2.05.97-.77,3.89.13,5.24Z"/>
    <path class="cls-4" d="M257.32,82.45c3.31,1.29,13.39,2.16,27.22-4.68-2.06-1.83-10.39-3.45-27.22,4.68Z"/>
    <path class="cls-26" d="M98.61,90.82l-5.62,1.3c.16,1.49-.81,2.93-2.34,3.46l1.91,8.28c1.6-.2,3.11.67,3.62,2.08l5.62-1.3c-.16-1.49.82-2.93,2.35-3.45l-1.91-8.28c-1.6.2-3.12-.67-3.62-2.08Z"/>
    <path class="cls-13" d="M100.27,87.37l-10.28,2.37c-.57,2.28-2.34,4.19-4.67,5.03l3.79,16.41,21.35-4.93-3.79-16.41c-2.46.27-4.89-.68-6.4-2.48ZM104.97,101.33c.04.2-.09.39-.3.44-1.45.33-2.38,1.7-2.07,3.04.04.19-.09.39-.3.44l-6.33,1.46c-.21.05-.41-.07-.46-.26-.31-1.34-1.74-2.16-3.18-1.83-.21.05-.41-.07-.46-.26l-2.06-8.94c-.04-.2.09-.39.3-.44,1.45-.33,2.37-1.7,2.06-3.05-.05-.2.08-.39.3-.44l6.33-1.46c.21-.05.41.07.46.26.31,1.34,1.75,2.17,3.19,1.83.21-.05.41.07.46.26l2.06,8.94Z"/>
    <path class="cls-13" d="M114.91,108.82c-.35-1.49-1.93-2.4-3.54-2.03l-22.85,5.27c-1.61.37-2.64,1.88-2.29,3.38l.21.91-2.2.51.16.7,33.08-7.63-.16-.7-2.2.51-.21-.91Z"/>
    <path class="cls-14" d="M106.73,85.85c1.65-.38,2.71-1.94,2.36-3.47-.35-1.53-1.99-2.47-3.64-2.09-1.65.38-2.71,1.94-2.36,3.47.35,1.53,1.99,2.47,3.64,2.09Z"/>
    <path class="cls-13" d="M84.25,94.36c2.73-.63,4.68-2.75,5.09-5.2l11.27-2.6c1.43,2.02,4.12,3.07,6.85,2.44,3.53-.82,5.78-4.13,5.02-7.41-.76-3.27-4.22-5.27-7.76-4.46l-23.51,5.43c-3.35.93-5.45,4.15-4.72,7.33.76,3.27,4.23,5.27,7.76,4.46ZM105.28,79.59c2.07-.48,4.11.7,4.56,2.62.44,1.92-.88,3.87-2.95,4.35-2.07.48-4.11-.7-4.56-2.62-.44-1.92.88-3.87,2.95-4.35ZM82.07,84.94c2.07-.48,4.11.7,4.55,2.62.44,1.92-.88,3.87-2.95,4.35-2.07.48-4.11-.7-4.56-2.62-.44-1.92.88-3.87,2.95-4.35Z"/>
    <path class="cls-14" d="M83.52,91.21c1.65-.38,2.71-1.94,2.35-3.47-.35-1.53-1.99-2.47-3.64-2.09-1.65.38-2.71,1.94-2.36,3.48.35,1.53,1.99,2.47,3.64,2.09Z"/>
    <path class="cls-4" d="M133.32,172.81c-.46,0-.93-.13-1.36-.4-.42-.27-.79-.65-1.06-1.12l-.02-.04.61-.18c.29-.07.54-.27.71-.55.17-.28.23-.63.2-.98-.03-.21-.1-.42-.2-.6-.1-.18-.24-.35-.39-.47-.16-.12-.33-.21-.51-.25-.18-.04-.37-.04-.54.01l-10.39,2.98c-.29.07-.54.27-.71.55-.17.28-.23.63-.19.98.03.21.1.42.2.6.1.18.24.35.39.47.16.12.33.21.51.25.18.04.37.04.54-.01l.68-.19v.05c.02.54-.09,1.06-.3,1.51-.22.45-.54.82-.94,1.06-1.49.95-2.62,2.46-3.22,4.31-.42,1.38-.46,2.91-.11,4.4s1.07,2.85,2.07,3.93l3.29,3.6c.18.2.4.34.64.42.24.08.48.08.71.02l15.37-4.41c.23-.07.43-.2.59-.39.16-.19.27-.43.32-.69l.88-4.8c.28-1.44.17-2.98-.32-4.43s-1.34-2.72-2.43-3.67c-1.49-1.25-3.25-1.93-5.01-1.95Z"/>
    <path class="cls-21" d="M140.92,117.81c.66,13.39-29.52,25.41-16.59,40.26-.97.59-5.68-4.04-4.84-2.65,1.75,2.9,3.22,5.32,5.19,6.44,1.38-8.26,3.19-19.27,13.9-30.44,0,0-11.68,15.12-12.81,35.1l2.45-.7c.06-.86.25-1.68.56-2.44,2.55.14,5.02-.58,7.09-2.09,0,0-5.28.18-5.29-.21-.02-.39,6.39.05,8.45-7.58-3.71,1.93-6.25.16-6.27-.35-.02-.51,5.57,1.84,9.25-7.66-2.58,1.75-6.41,1.48-6.43.89-.02-.59,6.43-.89,8.83-9.87-3.06,2.24-5.21,1.03-5.21,1.03,9.74-4.15,1.71-19.72,1.71-19.72Z"/>
    <path class="cls-9" d="M2.31,150.67c-3.01,46.75,28.76,148.06,142.85,158.7,51.41,4.8,159.69-22.55,166.91-154.7l-40.1,56.39-30.07-2-39.1,19.96-51.63-19.96-29.07,5.99-35.59-16.47-31.08,16.47L2.31,150.67Z"/>
    <path class="cls-19" d="M61.62,69.67l.79,2.42h2.54l-2.06,1.5.79,2.42-2.06-1.5-2.06,1.5.79-2.42-2.06-1.5h2.54l.79-2.42Z"/>
    <path class="cls-19" d="M87.62,60.67l.79,2.42h2.54l-2.06,1.5.79,2.42-2.06-1.5-2.06,1.5.79-2.42-2.06-1.5h2.54l.79-2.42Z"/>
    <path class="cls-19" d="M107.62,51.67l.79,2.42h2.54l-2.06,1.49.79,2.42-2.06-1.49-2.06,1.49.79-2.42-2.06-1.49h2.54l.79-2.42Z"/>
    <path class="cls-19" d="M125.62,33.67l.79,2.42h2.54l-2.06,1.49.79,2.42-2.06-1.49-2.06,1.49.79-2.42-2.06-1.49h2.54l.79-2.42Z"/>
    <path class="cls-19" d="M131.62,9.67l.79,2.42h2.54l-2.06,1.49.79,2.42-2.06-1.49-2.06,1.49.79-2.42-2.06-1.49h2.54l.79-2.42Z"/>
    <path class="cls-19" d="M153.62,12.67l.79,2.42h2.54l-2.06,1.49.79,2.42-2.06-1.49-2.06,1.49.79-2.42-2.06-1.49h2.54l.79-2.42Z"/>
    <path class="cls-19" d="M146.62,40.67l.79,2.42h2.54l-2.06,1.49.79,2.42-2.06-1.49-2.06,1.49.79-2.42-2.06-1.49h2.54l.79-2.42Z"/>
  </g>
</svg>