<svg width="35" height="39" viewBox="0 0 35 39" fill="none" xmlns="http://www.w3.org/2000/svg">
<g filter="url(#filter0_d_2801_336)">
<path d="M15.8533 25.2833C15.8899 25.1514 15.841 25.0106 15.7306 24.9298L11.0003 21.4645C10.8898 21.3836 10.741 21.3795 10.6262 21.4541C10.0423 21.8341 9.53582 22.3138 9.12096 22.8802C7.75891 24.7395 7.63106 27.2258 8.79522 29.2143C8.81825 29.2536 8.84889 29.2872 8.88482 29.3135C8.92078 29.3399 8.96208 29.359 9.00644 29.369C11.2535 29.8794 13.5855 29.0078 14.9475 27.1485C15.3626 26.582 15.6673 25.9545 15.8533 25.2833Z" fill="#FF9737"/>
<path d="M15.2408 24.2941C15.2303 24.2029 15.1823 24.1203 15.1083 24.066L12.0116 21.7976C11.9376 21.7433 11.8443 21.7224 11.7542 21.74C11.6643 21.7575 11.5855 21.8118 11.5372 21.8898C10.8624 22.9797 10.8628 24.3899 11.5383 25.4826C11.5608 25.5189 11.5899 25.5502 11.6238 25.575C11.6576 25.5998 11.6962 25.6182 11.7377 25.6286C12.9831 25.9432 14.3277 25.5183 15.1634 24.5462C15.2231 24.4765 15.2512 24.3851 15.2408 24.2941Z" fill="#FFD960"/>
<path opacity="0.1" d="M9.76674 23.8554C10.2143 23.2445 10.7608 22.7268 11.3909 22.3168C11.5148 22.2363 11.6754 22.2408 11.7945 22.3281L15.8488 25.2981C15.8502 25.2932 15.8519 25.2883 15.8533 25.2833C15.8899 25.1514 15.841 25.0106 15.7306 24.9298L11.0003 21.4645C10.8898 21.3836 10.741 21.3795 10.6262 21.4541C10.0423 21.8341 9.53582 22.3138 9.12096 22.8802C7.76315 24.7337 7.63221 27.2102 8.78468 29.1955C8.28619 27.387 8.62315 25.4165 9.76674 23.8554Z" fill="#231F20"/>
<path d="M20.7966 29.5854L22.6026 27.1201C23.4035 26.0268 23.3884 24.9352 23.3598 24.5933L22.6064 17.9097L17.2751 25.1873L19.8405 29.8076C19.9439 29.9695 20.2617 30.3155 20.7966 29.5854Z" fill="#0B6B95"/>
<path d="M5.03375 18.0381L6.83974 15.5728C7.64062 14.4796 8.68591 14.1647 9.02055 14.089L15.6203 12.7919L10.2889 20.0695L5.11024 19.0168C4.92463 18.967 4.49885 18.7683 5.03375 18.0381Z" fill="#0B6B95"/>
<path d="M23.2105 9.75816C22.9905 9.59702 22.9177 9.32231 23.0478 9.14465L25.4953 5.80365C25.6254 5.62599 25.9093 5.61259 26.1293 5.77373C26.3493 5.93488 26.4221 6.20959 26.2919 6.38725L23.8445 9.72825C23.7143 9.90591 23.4304 9.9193 23.2105 9.75816Z" fill="#90C8EC"/>
<path d="M25.4545 7.44932L24.7346 6.92192C22.4684 6.53595 20.4326 5.99918 19.1221 7.78823L10.1823 19.9916C9.82328 20.4818 9.92946 21.1702 10.4198 21.5293L15.8435 25.5025C16.3336 25.8616 17.0222 25.7554 17.3812 25.2653L24.4412 15.6278L25.3944 14.3266L26.321 13.0618C27.6315 11.2727 26.654 10.0083 25.4545 7.44932Z" fill="#CAE9F7"/>
<path d="M11.1216 18.7095L10.1824 19.9915C9.8234 20.4816 9.92958 21.17 10.4199 21.5292L15.8436 25.5024C16.3338 25.8614 17.0223 25.7552 17.3813 25.2651L18.3205 23.9831L11.1216 18.7095Z" fill="#90C8EC"/>
<path d="M16.2388 19.2754C17.1102 19.9137 18.3341 19.7248 18.9725 18.8534C19.6108 17.982 19.4219 16.7581 18.5505 16.1197C17.6791 15.4814 16.4552 15.6703 15.8168 16.5417C15.1784 17.4131 15.3674 18.637 16.2388 19.2754Z" fill="#A599A3"/>
<path opacity="0.1" d="M5.62292 19.0901L7.42891 16.6248C8.22979 15.5315 9.27508 15.2167 9.60971 15.141L14.6204 14.1561L15.6198 12.7919L9.02006 14.089C8.68546 14.1647 7.64017 14.4795 6.83926 15.5728L5.03326 18.0381C4.4984 18.7683 4.92414 18.967 5.10979 19.0167L5.6038 19.1171C5.61022 19.1082 5.61616 19.0993 5.62292 19.0901Z" fill="#231F20"/>
<path opacity="0.1" d="M11.0676 20.6406L20.0073 8.43716C21.2976 6.67586 23.7527 6.2739 25.5356 7.51246C25.5086 7.49161 25.4823 7.47017 25.4545 7.44981L24.7346 6.92241C22.9454 5.61176 20.4326 5.99967 19.1221 7.78872L10.1823 19.9921C9.82328 20.4822 9.92946 21.1706 10.4198 21.5298L11.305 22.1783C10.8147 21.8191 10.7085 21.1307 11.0676 20.6406Z" fill="#231F20"/>
<path opacity="0.1" d="M16.7015 17.1907C17.2273 16.473 18.1501 16.2188 18.9461 16.5078C18.8357 16.3639 18.7037 16.2328 18.55 16.1202C17.6785 15.4818 16.4547 15.6708 15.8163 16.5422C15.1779 17.4136 15.3668 18.6375 16.2383 19.2759C16.392 19.3885 16.5567 19.4749 16.7273 19.5367C16.2116 18.8648 16.1758 17.9084 16.7015 17.1907Z" fill="#231F20"/>
</g>
<defs>
<filter id="filter0_d_2801_336" x="0.772949" y="5.66113" width="30.1724" height="32.3716" filterUnits="userSpaceOnUse" color-interpolation-filters="sRGB">
<feFlood flood-opacity="0" result="BackgroundImageFix"/>
<feColorMatrix in="SourceAlpha" type="matrix" values="0 0 0 0 0 0 0 0 0 0 0 0 0 0 0 0 0 0 127 0" result="hardAlpha"/>
<feOffset dy="4"/>
<feGaussianBlur stdDeviation="2"/>
<feComposite in2="hardAlpha" operator="out"/>
<feColorMatrix type="matrix" values="0 0 0 0 0 0 0 0 0 0 0 0 0 0 0 0 0 0 0.25 0"/>
<feBlend mode="normal" in2="BackgroundImageFix" result="effect1_dropShadow_2801_336"/>
<feBlend mode="normal" in="SourceGraphic" in2="effect1_dropShadow_2801_336" result="shape"/>
</filter>
</defs>
</svg>
