<svg width="402" height="874" viewBox="0 0 402 874" fill="none" xmlns="http://www.w3.org/2000/svg">
<g clip-path="url(#clip0_2728_175)">
<rect width="402" height="874" fill="url(#paint0_linear_2728_175)"/>
<path d="M683.959 785.956C706.243 932.84 546.204 1078.93 326.503 1112.26C106.801 1145.6 -89.3672 1053.54 -111.651 906.66C-133.935 759.776 26.1033 613.683 245.805 580.351C465.507 547.02 661.675 639.073 683.959 785.956Z" fill="url(#paint1_linear_2728_175)"/>
<path d="M176.744 584.247L176.241 603H183.287V584.247L216 582.219L206.941 572.589L203.418 562.452L209.457 563.466C204.592 555.863 194.862 539.745 194.862 536.096C194.862 532.768 195.978 534.245 196.684 535.684L189.326 519.877H191.339L185.3 511.26L187.816 508.726L179.764 492L171.711 510.247C171.879 510.584 172.416 511.26 173.221 511.26C174.026 511.26 170.201 517.004 168.188 519.877C168.524 520.383 169.296 521.397 169.698 521.397C170.101 521.397 163.156 532.886 159.633 538.63C160.639 538.968 162.954 539.441 164.162 538.63C165.37 537.819 155.271 554.849 150.07 563.466H155.606C157.116 563.466 140.508 581.206 141.011 584.247C141.414 586.679 165.001 585.26 176.744 584.247Z" fill="#406E63"/>
<path d="M144.198 591.006C146.803 594.832 153.949 600.707 161.69 593.598C169.431 586.488 171.118 578.046 170.994 574.714C170.87 571.628 169.207 565.161 163.55 563.976C165.659 557.805 167.198 544.871 156.479 542.501C152.262 541.514 142.039 541.316 134.894 548.425C127.823 545.833 114.053 544.649 115.541 560.644C111.199 563.113 105.27 569.827 116.286 576.936C113.308 580.762 108.991 589.303 115.541 592.857C117.402 595.079 123.432 598.189 132.661 592.857C134.026 592.364 137.053 591.45 138.244 591.746L144.198 591.006Z" fill="#575884"/>
<path d="M139.732 611H144.942L144.198 591.006L138.244 591.746L139.732 611Z" fill="#6E7760"/>
<path d="M178.622 605.409C180.117 607.627 184.216 611.033 188.658 606.912C193.1 602.79 194.068 597.896 193.996 595.965C193.925 594.176 192.971 590.427 189.726 589.74C190.936 586.162 191.818 578.664 185.668 577.29C183.248 576.718 177.383 576.604 173.283 580.725C169.226 579.222 161.325 578.535 162.179 587.808C159.688 589.239 156.286 593.131 162.607 597.253C160.898 599.471 158.421 604.422 162.179 606.482C163.247 607.77 166.707 609.573 172.002 606.482C172.785 606.196 174.522 605.667 175.205 605.839L178.622 605.409Z" fill="#51AE1F"/>
<path d="M176.059 617H179.049L178.622 605.409L175.205 605.839L176.059 617Z" fill="#6E7760"/>
<path d="M250.258 601.437C251.497 603.267 254.894 606.077 258.574 602.677C262.254 599.277 263.056 595.24 262.997 593.646C262.938 592.17 262.148 589.077 259.458 588.51C260.461 585.559 261.192 579.373 256.097 578.24C254.092 577.767 249.232 577.673 245.835 581.073C242.473 579.833 235.927 579.267 236.634 586.917C234.57 588.097 231.751 591.308 236.988 594.708C235.573 596.538 233.52 600.623 236.634 602.323C237.519 603.386 240.386 604.873 244.773 602.323C245.422 602.087 246.861 601.65 247.427 601.792L250.258 601.437Z" fill="#51AE1F"/>
<path d="M248.135 611H250.612L250.258 601.437L247.427 601.792L248.135 611Z" fill="#6E7760"/>
<path d="M212.319 567.136C215.01 571.129 222.39 577.259 230.384 569.841C238.379 562.423 240.122 553.614 239.994 550.136C239.865 546.917 238.149 540.168 232.306 538.932C234.484 532.492 236.073 518.995 225.003 516.523C220.647 515.492 210.09 515.286 202.71 522.704C195.407 520 181.185 518.764 182.723 535.455C178.239 538.031 172.115 545.037 183.492 552.455C180.417 556.447 175.958 565.359 182.723 569.068C184.645 571.387 190.872 574.632 200.404 569.068C201.814 568.553 204.94 567.6 206.17 567.909L212.319 567.136Z" fill="#64BD34"/>
<path d="M207.707 588H213.088L212.319 567.136L206.17 567.909L207.707 588Z" fill="#6E7760"/>
<path d="M306.744 562.247L306.241 581H313.287V562.247L346 560.219L336.941 550.589L333.418 540.452L339.457 541.466C334.592 533.863 324.862 517.745 324.862 514.096C324.862 510.768 325.978 512.245 326.684 513.684L319.326 497.877H321.339L315.3 489.26L317.816 486.726L309.764 470L301.711 488.247C301.879 488.584 302.416 489.26 303.221 489.26C304.026 489.26 300.201 495.004 298.188 497.877C298.524 498.383 299.296 499.397 299.698 499.397C300.101 499.397 293.156 510.886 289.633 516.63C290.639 516.968 292.954 517.441 294.162 516.63C295.37 515.819 285.271 532.849 280.07 541.466H285.606C287.116 541.466 270.508 559.206 271.011 562.247C271.414 564.679 295.001 563.26 306.744 562.247Z" fill="#406E63"/>
<path d="M274.198 569.006C276.803 572.832 283.949 578.707 291.69 571.598C299.431 564.488 301.118 556.046 300.994 552.714C300.87 549.628 299.207 543.161 293.55 541.976C295.659 535.805 297.198 522.871 286.479 520.501C282.262 519.514 272.039 519.316 264.894 526.425C257.823 523.833 244.053 522.649 245.541 538.644C241.199 541.113 235.27 547.827 246.286 554.936C243.308 558.762 238.991 567.303 245.541 570.857C247.402 573.079 253.432 576.189 262.661 570.857C264.026 570.364 267.053 569.45 268.244 569.746L274.198 569.006Z" fill="#575884"/>
<path d="M269.732 589H274.942L274.198 569.006L268.244 569.746L269.732 589Z" fill="#6E7760"/>
<path d="M308.622 583.409C310.117 585.627 314.216 589.033 318.658 584.912C323.1 580.79 324.068 575.896 323.996 573.965C323.925 572.176 322.971 568.427 319.726 567.74C320.936 564.162 321.818 556.664 315.668 555.29C313.248 554.718 307.383 554.604 303.283 558.725C299.226 557.222 291.325 556.535 292.179 565.808C289.688 567.239 286.286 571.131 292.607 575.253C290.898 577.471 288.421 582.422 292.179 584.482C293.247 585.77 296.707 587.573 302.002 584.482C302.785 584.196 304.522 583.667 305.205 583.839L308.622 583.409Z" fill="#51AE1F"/>
<path d="M306.059 595H309.049L308.622 583.409L305.205 583.839L306.059 595Z" fill="#6E7760"/>
<path d="M380.258 579.437C381.497 581.267 384.894 584.077 388.574 580.677C392.254 577.277 393.056 573.24 392.997 571.646C392.938 570.17 392.148 567.077 389.458 566.51C390.461 563.559 391.192 557.373 386.097 556.24C384.092 555.767 379.232 555.673 375.835 559.073C372.473 557.833 365.927 557.267 366.634 564.917C364.57 566.097 361.751 569.308 366.988 572.708C365.573 574.538 363.52 578.623 366.634 580.323C367.519 581.386 370.386 582.873 374.773 580.323C375.422 580.087 376.861 579.65 377.427 579.792L380.258 579.437Z" fill="#51AE1F"/>
<path d="M378.135 589H380.612L380.258 579.437L377.427 579.792L378.135 589Z" fill="#6E7760"/>
<path d="M342.319 545.136C345.01 549.129 352.39 555.259 360.384 547.841C368.379 540.423 370.122 531.614 369.994 528.136C369.865 524.917 368.149 518.168 362.306 516.932C364.484 510.492 366.073 496.995 355.003 494.523C350.647 493.492 340.09 493.286 332.71 500.704C325.407 498 311.185 496.764 312.723 513.455C308.239 516.031 302.115 523.037 313.492 530.455C310.417 534.447 305.958 543.359 312.723 547.068C314.645 549.387 320.872 552.632 330.404 547.068C331.814 546.553 334.94 545.6 336.17 545.909L342.319 545.136Z" fill="#64BD34"/>
<path d="M337.707 566H343.088L342.319 545.136L336.17 545.909L337.707 566Z" fill="#6E7760"/>
<path d="M77.7441 627.247L77.2408 646H84.2868V627.247L117 625.219L107.941 615.589L104.418 605.452L110.457 606.466C105.592 598.863 95.8622 582.745 95.8622 579.096C95.8622 575.768 96.9781 577.245 97.6837 578.684L90.3261 562.877H92.3393L86.2999 554.26L88.8163 551.726L80.7638 535L72.7113 553.247C72.8791 553.584 73.4159 554.26 74.2212 554.26C75.0264 554.26 71.2015 560.004 69.1884 562.877C69.5239 563.383 70.2956 564.397 70.6982 564.397C71.1008 564.397 64.1556 575.886 60.6326 581.63C61.6392 581.968 63.9542 582.441 65.1621 581.63C66.37 580.819 56.2708 597.849 51.0703 606.466H56.6063C58.1162 606.466 41.5079 624.206 42.0112 627.247C42.4138 629.679 66.0009 628.26 77.7441 627.247Z" fill="#406E63"/>
<path d="M45.1979 634.006C47.8031 637.832 54.9487 643.707 62.6897 636.598C70.4307 629.488 72.1178 621.046 71.9938 617.714C71.8697 614.628 70.2074 608.161 64.5505 606.976C66.6594 600.805 68.1977 587.871 57.4794 585.501C53.2615 584.514 43.0394 584.316 35.8938 591.425C28.8227 588.833 15.0526 587.649 16.5413 603.644C12.1995 606.113 6.26985 612.827 17.2859 619.936C14.3083 623.762 9.99078 632.303 16.5413 635.857C18.4024 638.079 24.432 641.189 33.6613 635.857C35.0261 635.364 38.0533 634.45 39.2438 634.746L45.1979 634.006Z" fill="#575884"/>
<path d="M40.732 654H45.9423L45.1979 634.006L39.2438 634.746L40.732 654Z" fill="#6E7760"/>
<path d="M79.6218 648.409C81.1165 650.627 85.2164 654.033 89.658 649.912C94.0996 645.79 95.0676 640.896 94.9964 638.965C94.9253 637.176 93.9715 633.427 90.7257 632.74C91.9357 629.162 92.8184 621.664 86.6685 620.29C84.2484 619.718 78.3833 619.604 74.2833 623.725C70.2261 622.222 62.3253 621.535 63.1794 630.808C60.6882 632.239 57.286 636.131 63.6067 640.253C61.8982 642.471 59.4209 647.422 63.1794 649.482C64.2473 650.77 67.7069 652.573 73.0024 649.482C73.7855 649.196 75.5224 648.667 76.2055 648.839L79.6218 648.409Z" fill="#51AE1F"/>
<path d="M77.0593 660H80.0488L79.6218 648.409L76.2055 648.839L77.0593 660Z" fill="#6E7760"/>
<path d="M151.258 644.437C152.497 646.267 155.894 649.077 159.574 645.677C163.254 642.277 164.056 638.24 163.997 636.646C163.938 635.17 163.148 632.077 160.458 631.51C161.461 628.559 162.192 622.373 157.097 621.24C155.092 620.767 150.232 620.673 146.835 624.073C143.473 622.833 136.927 622.267 137.634 629.917C135.57 631.097 132.751 634.308 137.988 637.708C136.573 639.538 134.52 643.623 137.634 645.323C138.519 646.386 141.386 647.873 145.773 645.323C146.422 645.087 147.861 644.65 148.427 644.792L151.258 644.437Z" fill="#51AE1F"/>
<path d="M149.135 654H151.612L151.258 644.437L148.427 644.792L149.135 654Z" fill="#6E7760"/>
<path d="M113.319 610.136C116.01 614.129 123.39 620.259 131.384 612.841C139.379 605.423 141.122 596.614 140.994 593.136C140.865 589.917 139.149 583.168 133.306 581.932C135.484 575.492 137.073 561.995 126.003 559.523C121.647 558.492 111.09 558.286 103.71 565.704C96.407 563 82.1855 561.764 83.7229 578.455C79.2388 581.031 73.1148 588.037 84.492 595.455C81.4168 599.447 76.9577 608.359 83.7229 612.068C85.6451 614.387 91.8724 617.632 101.404 612.068C102.814 611.553 105.94 610.6 107.17 610.909L113.319 610.136Z" fill="#64BD34"/>
<path d="M108.707 631H114.088L113.319 610.136L107.17 610.909L108.707 631Z" fill="#6E7760"/>
<ellipse cx="131.088" cy="746.633" rx="10.0371" ry="5.71813" transform="rotate(-13.3788 131.088 746.633)" fill="#575884" fill-opacity="0.5"/>
<ellipse cx="201.392" cy="733.561" rx="12.6745" ry="7.2206" transform="rotate(-16.7193 201.392 733.561)" fill="#575884" fill-opacity="0.5"/>
<ellipse cx="73.2036" cy="776.885" rx="29.6848" ry="16.9113" transform="rotate(-10.1661 73.2036 776.885)" fill="#575884" fill-opacity="0.5"/>
<ellipse cx="11.0531" cy="730.695" rx="29.6848" ry="16.9113" transform="rotate(-34.2876 11.0531 730.695)" fill="#575884" fill-opacity="0.5"/>
<ellipse cx="28.7194" cy="688.465" rx="11.0878" ry="6.31666" transform="rotate(-34.2876 28.7194 688.465)" fill="#575884" fill-opacity="0.5"/>
<ellipse cx="52.628" cy="673.117" rx="10.2155" ry="5.81976" transform="rotate(-21.175 52.628 673.117)" fill="#575884" fill-opacity="0.5"/>
<ellipse cx="140.628" cy="641.117" rx="10.2155" ry="5.81976" transform="rotate(-21.175 140.628 641.117)" fill="#64BD34" fill-opacity="0.5"/>
<ellipse cx="178.614" cy="632.378" rx="17.2312" ry="9.81657" transform="rotate(-21.175 178.614 632.378)" fill="#64BD34" fill-opacity="0.5"/>
<ellipse cx="383.798" cy="640.556" rx="8.51553" ry="4.85127" transform="rotate(31.138 383.798 640.556)" fill="#575884" fill-opacity="0.5"/>
<ellipse cx="403.071" cy="663.781" rx="15.7067" ry="8.94808" transform="rotate(31.138 403.071 663.781)" fill="#575884" fill-opacity="0.5"/>
<ellipse cx="67.5143" cy="664.565" rx="3.96733" ry="3.35877" transform="rotate(-21.175 67.5143 664.565)" fill="#575884" fill-opacity="0.5"/>
<ellipse cx="159" cy="700.404" rx="48.8828" ry="27.8484" transform="rotate(-13.3788 159 700.404)" fill="#575884" fill-opacity="0.5"/>
<path d="M-28.8632 802.927C-16.0298 812.26 20.5368 828.927 64.1368 820.927C118.637 810.927 199.137 766.927 396.637 802.927C554.637 831.727 467.137 958.927 403.637 1018.93C259.637 1033.09 -29.8632 1044.03 -35.8632 974.427C-43.3632 887.427 -59.8632 845.427 -51.8632 820.927C-45.4632 801.327 -33.8632 800.76 -28.8632 802.927Z" fill="#575884" fill-opacity="0.5"/>
</g>
<defs>
<linearGradient id="paint0_linear_2728_175" x1="201" y1="0" x2="201" y2="874" gradientUnits="userSpaceOnUse">
<stop stop-color="#066893"/>
<stop offset="1" stop-color="#999999"/>
</linearGradient>
<linearGradient id="paint1_linear_2728_175" x1="351.5" y1="573" x2="111.5" y2="813.5" gradientUnits="userSpaceOnUse">
<stop stop-color="#99DD66"/>
<stop offset="1" stop-color="#51AE1F"/>
</linearGradient>
<clipPath id="clip0_2728_175">
<rect width="402" height="874" fill="white"/>
</clipPath>
</defs>
</svg>
