<svg width="402" height="874" viewBox="0 0 402 874" fill="none" xmlns="http://www.w3.org/2000/svg">
<g clip-path="url(#clip0_2727_85)">
<rect width="402" height="874" fill="url(#paint0_linear_2727_85)"/>
<ellipse cx="286.154" cy="846.308" rx="402.357" ry="269" transform="rotate(-8.62666 286.154 846.308)" fill="url(#paint1_linear_2727_85)"/>
<path d="M274.746 569.09C275.705 569.558 277.803 571.244 278.77 574.324C278.978 574.089 279.231 573.822 279.522 573.538C279.548 573.181 278.869 567.947 278.372 566.585C277.874 565.223 273.786 559.995 273.473 560.382C273.222 560.691 271.922 563.997 271.303 565.611C272.518 567.364 274.109 569.754 274.157 570.213L274.746 569.09Z" fill="#FACDBA"/>
<path d="M271.723 575.422C271.74 575.158 271.768 574.915 271.802 574.706L274.157 570.213C274.109 569.754 272.518 567.364 271.303 565.611C271.036 565.227 270.788 564.874 270.578 564.578L270.014 567.821C270.152 569.761 270.569 573.924 271.131 575.056C271.344 575.184 271.543 575.307 271.723 575.422Z" fill="#FACDBA"/>
<path d="M262.338 572.168C262.166 572.776 262.062 574.249 263.02 575.28C264.217 576.568 268.297 579.674 272.701 578.856C271.798 578.177 271.647 576.597 271.723 575.422C271.543 575.307 271.344 575.184 271.131 575.056C269.667 574.175 267.486 573.034 265.549 572.433C264.287 572.042 263.128 571.88 262.338 572.168Z" fill="#FACDBA"/>
<path d="M278.77 574.324C278.805 574.437 278.839 574.551 278.871 574.667C279.279 576.137 278.968 577.188 278.301 577.911C284.443 578.677 287.008 572.63 287.523 569.51C286.445 569.445 285.324 569.732 284.248 570.209C282.389 571.033 280.664 572.422 279.522 573.538C279.231 573.822 278.978 574.089 278.77 574.324Z" fill="#FFCBBF"/>
<path d="M271.802 574.706C271.768 574.915 271.74 575.158 271.723 575.422C271.647 576.597 271.798 578.177 272.701 578.856C272.88 578.99 273.089 579.09 273.331 579.143C274.73 579.451 277.096 579.216 278.301 577.911C278.968 577.188 279.279 576.137 278.871 574.667C278.839 574.551 278.805 574.437 278.77 574.324C277.803 571.244 275.705 569.558 274.746 569.09L274.157 570.213L271.802 574.706Z" fill="#F8B69A"/>
<path d="M264.821 565.54C264.291 565.879 265.085 570.277 265.549 572.433C267.486 573.034 269.667 574.175 271.131 575.056C270.569 573.924 270.152 569.761 270.014 567.821C268.504 566.919 265.351 565.201 264.821 565.54Z" fill="#FFB697"/>
<path d="M278.372 566.585C278.869 567.947 279.548 573.181 279.522 573.538C280.664 572.422 282.389 571.033 284.248 570.209C284.149 567.626 283.809 562.474 283.25 562.533C282.69 562.592 279.765 565.259 278.372 566.585Z" fill="#FFB292"/>
<path d="M31.465 650.132C32.5316 650.161 35.1382 650.83 37.292 653.236C37.3841 652.936 37.5045 652.589 37.6522 652.209C37.528 651.874 34.748 647.388 33.7322 646.352C32.7163 645.317 26.8333 642.246 26.7081 642.727C26.608 643.112 26.7891 646.66 26.8923 648.386C28.7229 649.48 31.1592 651 31.3928 651.398L31.465 650.132Z" fill="#FACDBA"/>
<path d="M31.3275 657.147C31.2339 656.9 31.1591 656.666 31.1039 656.463L31.3928 651.398C31.1592 651 28.7229 649.48 26.8923 648.386C26.491 648.146 26.1189 647.927 25.8054 647.745L26.6312 650.931C27.5586 652.641 29.6583 656.259 30.6376 657.058C30.8849 657.087 31.1162 657.117 31.3275 657.147Z" fill="#FACDBA"/>
<path d="M21.4366 658.061C21.5312 658.685 22.0451 660.07 23.343 660.613C24.9654 661.292 29.9642 662.435 33.6368 659.87C32.5348 659.625 31.7443 658.248 31.3275 657.147C31.1162 657.117 30.8849 657.087 30.6376 657.058C28.9401 656.861 26.4829 656.723 24.4705 656.976C23.1593 657.141 22.0369 657.472 21.4366 658.061Z" fill="#FACDBA"/>
<path d="M37.292 653.236C37.3706 653.324 37.4486 653.414 37.5259 653.507C38.5038 654.677 38.6552 655.762 38.3465 656.696C44.2562 654.857 44.0941 648.29 43.2742 645.236C42.2655 645.622 41.3636 646.347 40.5807 647.225C39.228 648.743 38.2309 650.721 37.6522 652.209C37.5045 652.589 37.3841 652.936 37.292 653.236Z" fill="#FFCBBF"/>
<path d="M31.1039 656.463C31.1591 656.666 31.2339 656.9 31.3275 657.147C31.7443 658.248 32.5348 659.625 33.6368 659.87C33.8556 659.919 34.0866 659.923 34.3295 659.871C35.7301 659.574 37.7889 658.383 38.3465 656.696C38.6552 655.762 38.5038 654.677 37.5259 653.507C37.4486 653.414 37.3706 653.324 37.292 653.236C35.1382 650.83 32.5316 650.161 31.465 650.132L31.3928 651.398L31.1039 656.463Z" fill="#F8B69A"/>
<path d="M20.96 650.999C20.6172 651.526 23.1575 655.203 24.4705 656.976C26.4829 656.723 28.9401 656.861 30.6376 657.058C29.6583 656.259 27.5586 652.641 26.6312 650.931C24.8836 650.734 21.3027 650.471 20.96 650.999Z" fill="#FFB697"/>
<path d="M33.7322 646.352C34.748 647.388 37.528 651.874 37.6522 652.209C38.2309 650.721 39.228 648.743 40.5807 647.225C39.4228 644.914 36.9857 640.363 36.5004 640.648C36.0151 640.933 34.4527 644.57 33.7322 646.352Z" fill="#FFB292"/>
<ellipse cx="131.088" cy="746.633" rx="10.0371" ry="5.71813" transform="rotate(-13.3788 131.088 746.633)" fill="#9F4790" fill-opacity="0.5"/>
<ellipse cx="201.392" cy="733.561" rx="12.6745" ry="7.2206" transform="rotate(-16.7193 201.392 733.561)" fill="#9F4790" fill-opacity="0.5"/>
<ellipse cx="73.2036" cy="776.885" rx="29.6848" ry="16.9113" transform="rotate(-10.1661 73.2036 776.885)" fill="#9F4790" fill-opacity="0.5"/>
<ellipse cx="11.0531" cy="730.695" rx="29.6848" ry="16.9113" transform="rotate(-34.2876 11.0531 730.695)" fill="#9F4790" fill-opacity="0.5"/>
<ellipse cx="28.7194" cy="688.465" rx="11.0878" ry="6.31666" transform="rotate(-34.2876 28.7194 688.465)" fill="#9F4790" fill-opacity="0.5"/>
<ellipse cx="52.628" cy="673.117" rx="10.2155" ry="5.81976" transform="rotate(-21.175 52.628 673.117)" fill="#9F4790" fill-opacity="0.5"/>
<ellipse cx="140.628" cy="641.117" rx="10.2155" ry="5.81976" transform="rotate(-21.175 140.628 641.117)" fill="#9F4790" fill-opacity="0.5"/>
<ellipse cx="178.614" cy="632.378" rx="17.2312" ry="9.81657" transform="rotate(-21.175 178.614 632.378)" fill="#9F4790" fill-opacity="0.5"/>
<ellipse cx="383.798" cy="640.556" rx="8.51553" ry="4.85127" transform="rotate(31.138 383.798 640.556)" fill="#9F4790" fill-opacity="0.5"/>
<ellipse cx="403.071" cy="663.781" rx="15.7067" ry="8.94808" transform="rotate(31.138 403.071 663.781)" fill="#9F4790" fill-opacity="0.5"/>
<ellipse cx="67.5143" cy="664.565" rx="3.96733" ry="3.35877" transform="rotate(-21.175 67.5143 664.565)" fill="#9F4790" fill-opacity="0.5"/>
<ellipse cx="159" cy="700.404" rx="48.8828" ry="27.8484" transform="rotate(-13.3788 159 700.404)" fill="#9F4790" fill-opacity="0.5"/>
<path d="M-28.8632 802.927C-16.0298 812.26 20.5368 828.927 64.1368 820.927C118.637 810.927 199.137 766.927 396.637 802.927C554.637 831.727 467.137 958.927 403.637 1018.93C259.637 1033.09 -29.8632 1044.03 -35.8632 974.427C-43.3632 887.427 -59.8632 845.427 -51.8632 820.927C-45.4632 801.327 -33.8632 800.76 -28.8632 802.927Z" fill="#9F4790"/>
<path fill-rule="evenodd" clip-rule="evenodd" d="M335.279 499.504C330.779 493.338 325.079 480.004 338.279 476.004C344.279 475.838 353.979 480.304 344.779 499.504C344.112 502.838 344.379 510.105 350.779 512.505C355.112 512.838 363.879 514.905 364.279 520.505C364.679 526.105 365.112 543.505 365.279 551.505C365.279 552.672 364.679 555.105 362.279 555.505C359.879 555.905 354.612 555.672 352.279 555.505L358.279 563.505C363.112 562.172 374.279 559.705 380.279 560.505C383.279 560.838 388.079 563.605 383.279 572.005C381.279 573.172 376.679 575.605 374.279 576.005C371.279 576.505 316.779 579.005 313.279 577.505C310.479 576.305 300.446 570.672 295.779 568.005C294.612 564.672 293.879 558.005 300.279 558.005C306.679 558.005 318.279 562.005 323.279 564.005C324.113 562.172 326.279 558.105 328.279 556.505V555.505H318.779C318.113 555.172 316.779 554.105 316.779 552.505C316.779 550.905 317.446 529.505 317.779 519.005C318.446 517.838 320.479 515.305 323.279 514.505C326.779 513.505 327.779 513.505 328.779 513.505C329.779 513.505 335.279 509.005 335.279 507.505V499.504ZM323.279 547.505C322.079 544.305 324.446 535.505 325.779 531.505C327.946 537.005 331.979 548.105 330.779 548.505C329.579 548.905 325.279 548.005 323.279 547.505ZM350.779 547.505C350.379 545.905 353.946 536.505 355.779 532.005C356.613 536.838 358.279 546.705 358.279 547.505C358.279 548.305 353.279 547.838 350.779 547.505Z" fill="#1037B0"/>
<path d="M230.197 580.077C231.753 579.702 235.4 578.967 237.542 579.03C240.219 579.11 245.251 576.901 246.359 576.104C247.245 575.466 249.195 575.157 250.059 575.082C250.844 575.52 252.153 576.894 251.11 578.884C249.806 581.373 245.867 583.935 241.227 584.561C236.588 585.188 230.701 583.703 230.197 580.077Z" fill="#E8B7C9"/>
<path d="M235.918 568.346C236.745 568.336 238.643 568.117 239.619 567.324C240.594 566.53 241.679 566.973 242.1 567.293C243.221 568.348 245.55 570.531 245.897 570.828C246.332 571.2 247.649 572.964 246.696 573.719C245.742 574.473 241.845 577.187 240.5 577.722C239.154 578.258 233.001 577.01 233.24 575.471C233.478 573.932 233.003 569.806 235.918 568.346Z" fill="#E8B7C9"/>
<path d="M235.92 561.142C235.223 562.426 234.077 565.285 235.064 566.454C236.05 567.622 238.287 566.709 239.283 566.107C239.909 563.969 240.114 559.983 235.92 561.142Z" fill="#E8B7C9"/>
<path d="M306.45 462.024V449.167C306.655 449.041 307.115 448.865 307.312 449.167C307.508 449.47 308.378 450.974 308.788 451.688C310.306 452.864 312.997 455.974 311.619 458.999C311.496 459.167 311.225 459.427 311.127 459.125C311.004 458.747 311.25 453.453 308.296 453.327C308.05 453.243 307.558 453.251 307.558 453.957C307.558 454.663 307.394 461.562 307.312 464.923C306.86 465.806 305.441 467.646 303.373 467.948C301.306 468.251 300.297 467.15 300.051 466.562C299.927 465.806 299.952 464.116 301.035 463.411C302.389 462.528 303.743 462.024 304.727 462.276C305.712 462.528 305.835 462.78 306.081 462.654C306.278 462.553 306.409 462.192 306.45 462.024Z" fill="#D86BC5"/>
<path d="M279 487.918V500.408L278.844 500.954C278.865 501.056 278.878 501.159 278.878 501.265C278.878 502.55 277.233 503.592 275.204 503.592C273.175 503.592 271.53 502.55 271.53 501.265C271.531 499.98 273.175 498.938 275.204 498.938C276.41 498.939 277.478 499.309 278.147 499.877L278.266 489.266L268.47 485.837V498.816L268.322 498.795C268.338 498.882 268.347 498.971 268.347 499.062C268.346 500.346 266.702 501.388 264.674 501.388C262.645 501.388 261 500.346 261 499.062C261 497.777 262.645 496.734 264.674 496.734C265.877 496.734 266.942 497.103 267.612 497.669V484L279 487.918Z" fill="#D96BC6"/>
</g>
<defs>
<linearGradient id="paint0_linear_2727_85" x1="201" y1="0" x2="201" y2="874" gradientUnits="userSpaceOnUse">
<stop stop-color="#066893"/>
<stop offset="1" stop-color="#999999"/>
</linearGradient>
<linearGradient id="paint1_linear_2727_85" x1="391.756" y1="585.894" x2="118.397" y2="787.674" gradientUnits="userSpaceOnUse">
<stop stop-color="#FFBEF4"/>
<stop offset="1" stop-color="#8E327F"/>
</linearGradient>
<clipPath id="clip0_2727_85">
<rect width="402" height="874" fill="white"/>
</clipPath>
</defs>
</svg>
